<?xml version="1.0" encoding="utf-8"?>
<!-- Generator: Adobe Illustrator 23.0.1, SVG Export Plug-In . SVG Version: 6.00 Build 0)  -->
<svg version="1.1" id="Layer_1" xmlns="http://www.w3.org/2000/svg" xmlns:xlink="http://www.w3.org/1999/xlink" x="0px" y="0px"
	 viewBox="0 0 40 40" style="enable-background:new 0 0 40 40;" xml:space="preserve">
<style type="text/css">
	.st0{fill:#231F20;}
</style>
<g>
	<path class="st0" d="M32.75,22.796c-0.958-2.915-3.206-5.237-6.071-6.302c-0.402-1.563-1.809-2.723-3.498-2.723
		c-1.685,0-3.088,1.155-3.495,2.712c-2.88,1.061-5.143,3.388-6.103,6.316c-1.71,0.291-3.015,1.77-3.015,3.563
		c0,1.906,1.475,3.45,3.344,3.596c0.989,2.276,2.795,4.108,5.044,5.146v4.122h2.111v-3.44c0.345,0.073,0.694,0.13,1.051,0.167v3.272
		h2.111v-3.273c0.357-0.038,0.706-0.095,1.051-0.169v3.442h2.111v-4.128c2.242-1.038,4.042-2.867,5.028-5.137
		c1.882-0.131,3.374-1.683,3.374-3.6C35.793,24.56,34.473,23.076,32.75,22.796z M14.192,27.876c-0.834,0-1.513-0.679-1.513-1.513
		s0.679-1.513,1.513-1.513s1.513,0.679,1.513,1.513S15.028,27.876,14.192,27.876z M18.957,32.711
		c-1.251-0.784-2.273-1.904-2.934-3.235c0.773-0.455,1.353-1.183,1.621-2.057h1.313V32.711z M22.118,33.848
		c-0.359-0.048-0.709-0.121-1.051-0.216v-8.324h-3.424c-0.302-0.984-0.999-1.787-1.918-2.218c0.745-1.934,2.218-3.504,4.087-4.374
		c0.4,1.022,1.25,1.803,2.306,2.129L22.118,33.848L22.118,33.848z M23.181,18.91c-0.834,0-1.514-0.679-1.514-1.513
		s0.679-1.513,1.514-1.513c0.834,0,1.513,0.679,1.513,1.513S24.015,18.91,23.181,18.91z M27.391,32.703v-5.285h1.327
		c0.265,0.865,0.837,1.589,1.599,2.046C29.658,30.795,28.64,31.916,27.391,32.703z M28.719,25.307h-3.438v8.321
		c-0.342,0.095-0.691,0.169-1.051,0.217V20.848c1.058-0.322,1.912-1.102,2.317-2.122c1.861,0.875,3.328,2.443,4.067,4.375
		C29.706,23.536,29.017,24.332,28.719,25.307z M32.169,27.876c-0.834,0-1.513-0.679-1.513-1.513s0.679-1.513,1.513-1.513
		c0.834,0,1.513,0.679,1.513,1.513S33.004,27.876,32.169,27.876z M39.998,19.299c0-3.964-2.843-7.26-6.601-7.972
		c-0.145-2.744-2.397-4.93-5.176-4.93c-0.976,0-1.879,0.286-2.659,0.753c-1.575-3.746-5.279-6.378-9.598-6.378
		c-5.633,0-10.209,4.478-10.391,10.066c-3.458,1.291-5.863,4.743-5.545,8.719c0.35,4.378,4.107,7.679,8.47,7.846v-2.098
		c-3.721-0.039-6.697-3.238-6.36-7.036c0.224-2.521,2.003-4.641,4.375-5.527l0.048-0.018c0.653-0.243,1.093-0.857,1.115-1.553
		c0.13-3.972,2.929-7.495,6.847-8.164c3.905-0.667,7.611,1.434,9.095,4.961l0.176,0.418c0.405,0.963,1.569,1.344,2.465,0.808
		l0.39-0.233c0.502-0.3,1.032-0.453,1.575-0.453c1.633,0,2.982,1.287,3.069,2.93l0.016,0.309c0.042,0.79,0.618,1.449,1.395,1.597
		l0.066,0.013c2.653,0.502,4.806,2.617,5.087,5.302c0.01,0.096,0.033,0.774,0.033,0.774c0,1.561-0.616,2.978-1.613,4.032
		c0.427,0.616,0.705,1.335,0.819,2.11C38.866,24.108,40,21.903,40,19.43l-0.011-0.002C39.987,19.385,39.998,19.344,39.998,19.299z"
		/>
</g>
</svg>
