<?xml version="1.0" encoding="utf-8"?>
<!-- Generator: Adobe Illustrator 23.0.1, SVG Export Plug-In . SVG Version: 6.00 Build 0)  -->
<svg version="1.1" id="Layer_1" xmlns="http://www.w3.org/2000/svg" xmlns:xlink="http://www.w3.org/1999/xlink" x="0px" y="0px"
	 viewBox="0 0 40 40" style="enable-background:new 0 0 40 40;" xml:space="preserve">
<style type="text/css">
	.st0{fill:#231F20;}
</style>
<path class="st0" d="M40,11.307V9.486h-3.887V6.755c0-1.571-1.278-2.85-2.849-2.85h-2.75V0h-1.821v3.905h-2.986V0h-1.821v3.905
	H20.91V0h-1.82v3.905h-2.977V0h-1.821v3.905h-2.986V0h-1.82v3.905H6.737c-1.571,0-2.85,1.278-2.85,2.85v2.731H0v1.821h3.887v2.986H0
	v1.821h3.887v2.977H0v1.821h3.887v2.976H0v1.821h3.887v2.986H0v1.821h3.887v2.75c0,1.571,1.278,2.849,2.85,2.849h2.749V40h1.821
	v-3.887h2.986V40h1.821v-3.887h2.977V40h1.821v-3.887h2.976V40h1.821v-3.887h2.986V40h1.821v-3.887h2.75
	c1.571,0,2.849-1.278,2.849-2.849v-2.75H40v-1.821h-3.887v-2.986H40v-1.821h-3.887V20.91H40v-1.82h-3.887v-2.977H40v-1.821h-3.887
	v-2.986L40,11.307L40,11.307z M34.293,33.264c0,0.567-0.461,1.029-1.029,1.029H6.737c-0.567,0-1.029-0.461-1.029-1.029V6.755
	c0-0.567,0.462-1.029,1.029-1.029h26.527c0.567,0,1.029,0.462,1.029,1.029V33.264z M29.495,28.803v0.728h-2.263l-0.55-3.973
	c2.191-0.436,3.831-2.352,3.832-4.648v-0.193c-0.005-2.981-2.342-5.421-5.278-5.606l-0.32-2.312l0,0
	c0-2.269-1.846-4.115-4.115-4.115H20.11V7.201h-1.821v1.484h-0.695c-2.217,0.007-4.018,1.782-4.089,3.982
	c-0.001,0.01-0.007,0.018-0.009,0.028l-0.565,5.394l-1.672-4.97c-0.079-0.235-0.25-0.427-0.474-0.533
	c-0.224-0.105-0.481-0.117-0.713-0.028l-2.395,0.91c-0.419,0.159-0.659,0.599-0.567,1.038l2.547,12.127
	c0.209,1.512,1.119,2.673,2.266,2.992L11.9,29.926c-0.068,0.904,0.204,1.781,0.727,2.344c0.38,0.411,0.875,0.637,1.392,0.637H25.17
	c0.517,0,1.012-0.23,1.393-0.649c0.228-0.25,0.396-0.565,0.519-0.908h2.412v0.646c0,0.503,0.407,0.91,0.91,0.91h2.394v-1.821h-1.484
	v-1.374h1.484V27.89h-2.394C29.902,27.893,29.495,28.3,29.495,28.803z M17.597,10.505h3.204c0.938,0,1.746,0.566,2.101,1.375h-7.397
	C15.86,11.075,16.664,10.509,17.597,10.505z M25.171,31.088l-11.14,0.002c-0.105-0.036-0.361-0.407-0.315-1.024l0.075-0.974
	c0.03-0.091,0.046-0.188,0.046-0.288c0-0.503-0.408-0.91-0.91-0.91h-0.364c-0.501,0-0.984-0.662-1.112-1.57l-2.398-11.43
	l0.783-0.297l2.702,8.033c0.136,0.406,0.541,0.663,0.963,0.615c0.425-0.047,0.761-0.384,0.805-0.81l0.915-8.726h7.984l2.261,16.334
	C25.521,30.63,25.268,31.043,25.171,31.088z M26.434,23.764l-0.939-6.788c1.807,0.296,3.196,1.856,3.199,3.743v0.19
	C28.692,22.291,27.734,23.455,26.434,23.764z"/>
</svg>
