<?xml version="1.0" encoding="utf-8"?>
<!-- Generator: Adobe Illustrator 23.0.1, SVG Export Plug-In . SVG Version: 6.00 Build 0)  -->
<svg version="1.1" id="Layer_1" xmlns="http://www.w3.org/2000/svg" xmlns:xlink="http://www.w3.org/1999/xlink" x="0px" y="0px"
	 viewBox="0 0 40 40" style="enable-background:new 0 0 40 40;" xml:space="preserve">
<style type="text/css">
	.st0{fill:#231F20;}
</style>
<path class="st0" d="M40,11.255V9.548h-3.95V6.63c0-1.472-1.198-2.671-2.671-2.671h-2.927V0h-1.706v3.959h-3.097V0h-1.706v3.959
	h-3.089V0h-1.706v3.959h-3.097V0h-1.706v3.959h-3.088V0H9.548v3.959H6.621c-1.472,0-2.671,1.198-2.671,2.671v2.918H0v1.706h3.951
	v3.088H0v1.706h3.951v3.098H0v1.706h3.951v3.088H0v1.706h3.951v3.097H0v1.706h3.951v2.927c0,1.472,1.198,2.671,2.671,2.671h2.927V40
	h1.706v-3.95h3.088V40h1.706v-3.95h3.097V40h1.706v-3.95h3.089V40h1.706v-3.95h3.097V40h1.706v-3.95h2.927
	c1.472,0,2.671-1.198,2.671-2.671v-2.927H40v-1.706h-3.95v-3.097H40v-1.706h-3.95v-3.088H40v-1.706h-3.95v-3.098H40v-1.706h-3.95
	v-3.088H40V11.255z M34.343,33.379c0,0.532-0.432,0.964-0.964,0.964H6.621c-0.532,0-0.964-0.432-0.964-0.964V6.63
	c0-0.532,0.432-0.964,0.964-0.964h26.758c0.532,0,0.964,0.432,0.964,0.964V33.379z M30.152,15.728l-0.525-0.639
	c-0.022-0.027-2.242-2.727-2.741-3.415l-0.638-0.881l-0.703,0.83c-0.626,0.738-1.539,1.188-2.453,1.234
	c-0.957-0.012-1.833-0.502-2.345-1.309l-0.721-1.139l-0.721,1.139c-0.512,0.808-1.388,1.298-2.292,1.31
	c-0.967-0.047-1.879-0.497-2.505-1.235l-0.703-0.829l-0.639,0.88c-0.499,0.687-2.726,3.387-2.749,3.414l-0.529,0.64l0.626,0.546
	c0.76,0.663,1.217,1.621,1.252,2.599c0,0.719-0.315,1.261-0.713,1.947c-0.48,0.828-1.078,1.857-1.078,3.369
	c0,2.555,2.023,4.444,5.386,5.05c1.513,0.32,2.913,0.942,4.163,1.851l0.502,0.365l0.502-0.365c1.25-0.909,2.651-1.531,4.137-1.846
	c3.39-0.611,5.413-2.501,5.413-5.055c0-1.511-0.598-2.541-1.079-3.369c-0.398-0.686-0.713-1.228-0.714-1.918
	c0.035-1.007,0.489-1.966,1.247-2.63L30.152,15.728z M28.37,24.189c0,2.396-2.803,3.159-4.034,3.38
	c-1.549,0.327-2.996,0.931-4.311,1.794c-1.315-0.864-2.765-1.466-4.337-1.799c-1.205-0.217-4.008-0.98-4.008-3.375
	c0-1.052,0.412-1.761,0.848-2.512c0.442-0.762,0.944-1.626,0.943-2.834c-0.042-1.199-0.491-2.349-1.253-3.26
	c0.474-0.577,1.197-1.462,1.733-2.138c0.848,0.667,1.901,1.065,3.029,1.119c1.152-0.014,2.23-0.46,3.045-1.228
	c0.817,0.769,1.905,1.214,3.095,1.227c1.088-0.053,2.131-0.45,2.977-1.117c0.535,0.675,1.256,1.56,1.726,2.136
	c-0.76,0.912-1.206,2.068-1.247,3.29c0,1.178,0.502,2.042,0.944,2.804C27.959,22.429,28.37,23.138,28.37,24.189z"/>
</svg>
