<?xml version="1.0" encoding="utf-8"?>
<!-- Generator: Adobe Illustrator 23.0.1, SVG Export Plug-In . SVG Version: 6.00 Build 0)  -->
<svg version="1.1" id="Layer_1" xmlns="http://www.w3.org/2000/svg" xmlns:xlink="http://www.w3.org/1999/xlink" x="0px" y="0px"
	 viewBox="0 0 40 40" style="enable-background:new 0 0 40 40;" xml:space="preserve">
<style type="text/css">
	.st0{fill:#231F20;}
</style>
<path class="st0" d="M5.652,33.441V6.509c0-0.47,0.382-0.852,0.852-0.852h26.94c0.47,0,0.852,0.382,0.852,0.852v14.314h5.65v-1.704
	H36v-3.084h3.946v-1.704H36v-3.093h3.946V9.534H36V6.509c0-1.409-1.147-2.556-2.556-2.556h-3.033V0h-1.704v3.953h-3.084V0h-1.704
	v3.953h-3.093V0h-1.704v3.953h-3.084V0h-1.704v3.953h-3.093V0H9.537v3.953H6.504c-1.409,0-2.556,1.147-2.556,2.556v3.024H0.003
	v1.704h3.945v3.093H0.003v1.704h3.945v3.084H0.003v1.704h3.945v3.093H0.003v1.704h3.945v3.084H0.003v1.704h3.945v3.033
	c0,1.409,1.147,2.556,2.556,2.556h3.033v3.946h1.704v-3.946h3.093v3.946h1.704v-3.946h3.084v3.946h1.704v-5.65H6.504
	C6.034,34.293,5.652,33.911,5.652,33.441z M38.744,25.111c-1.764-3.2-5.13-5.189-8.784-5.19h-0.006
	c-2.678,0-5.197,1.043-7.092,2.936c-1.896,1.895-2.942,4.415-2.943,7.096c-0.002,4.044,2.405,7.674,6.13,9.249
	C27.311,39.735,28.638,40,29.961,40c1.668,0,3.329-0.421,4.84-1.254c2.348-1.295,4.051-3.426,4.796-6.002
	S40.039,27.458,38.744,25.111z M29.346,37.867v-0.669c-0.012-0.989-0.607-1.875-1.517-2.257c-2.748-1.162-4.04-4.342-2.88-7.089
	c0.872-2.063,2.881-3.306,4.992-3.306c0.701,0,1.413,0.137,2.098,0.426c2.008,0.848,3.305,2.805,3.305,4.991
	C35.366,33.365,32.9,36.545,29.346,37.867z M33.979,37.253c-0.285,0.157-0.576,0.296-0.872,0.417
	c2.433-1.929,3.96-4.745,3.941-7.714c0-2.866-1.706-5.439-4.347-6.554c-3.613-1.525-7.795,0.172-9.321,3.786
	c-1.526,3.613,0.172,7.795,3.787,9.322c0.285,0.12,0.472,0.397,0.475,0.697v0.754c-0.313-0.091-0.624-0.2-0.929-0.329
	c-3.094-1.308-5.091-4.322-5.09-7.679c0.001-2.227,0.869-4.318,2.443-5.892c1.573-1.573,3.664-2.438,5.888-2.438h0.004
	c3.034,0.002,5.829,1.652,7.293,4.308C39.471,29.956,38.002,35.035,33.979,37.253z"/>
</svg>
