<?xml version="1.0" encoding="utf-8"?>
<!-- Generator: Adobe Illustrator 23.0.1, SVG Export Plug-In . SVG Version: 6.00 Build 0)  -->
<svg version="1.1" id="Layer_1" xmlns="http://www.w3.org/2000/svg" xmlns:xlink="http://www.w3.org/1999/xlink" x="0px" y="0px"
	 viewBox="0 0 40 40" style="enable-background:new 0 0 40 40;" xml:space="preserve">
<style type="text/css">
	.st0{fill:#231F20;}
</style>
<path class="st0" d="M19.124,33.157l-1.609-3.353h-1.396v5.898h1.124v-4.085l1.302,2.646h1.141l1.302-2.646v4.085h1.123v-5.898
	h-1.37L19.124,33.157z M27.867,34.646c0.32-0.51,0.48-1.143,0.48-1.897c0-0.647-0.117-1.202-0.353-1.664
	c-0.235-0.463-0.568-0.815-1-1.06c-0.431-0.244-0.939-0.366-1.523-0.366c-0.601,0-1.119,0.126-1.553,0.378
	c-0.434,0.253-0.763,0.612-0.987,1.077c-0.224,0.465-0.337,1.01-0.337,1.634c0,0.942,0.245,1.686,0.736,2.234
	c0.49,0.548,1.167,0.832,2.03,0.855c0.397,0.369,0.847,0.671,1.349,0.906c0.502,0.236,1.009,0.381,1.519,0.439v-1.039
	c-0.369-0.028-0.689-0.077-0.962-0.149c-0.273-0.071-0.528-0.171-0.766-0.302C27.091,35.506,27.547,35.157,27.867,34.646z
	 M26.637,34.281c-0.267,0.352-0.655,0.528-1.166,0.528c-0.51,0-0.899-0.176-1.166-0.528s-0.4-0.863-0.4-1.532
	c0-0.67,0.133-1.179,0.4-1.528c0.267-0.349,0.656-0.524,1.166-0.524c0.511,0,0.899,0.175,1.166,0.524
	c0.267,0.348,0.4,0.858,0.4,1.528C27.037,33.418,26.904,33.929,26.637,34.281z M28.175,30.825h1.796v4.877h1.277v-4.877h3.422v4.877
	h1.277v-4.877h1.795v-1.021h-9.566L28.175,30.825L28.175,30.825z M34.8,0H5.2C2.333,0,0,2.333,0,5.2v29.611
	c0.002,1.389,0.546,2.694,1.53,3.674C2.512,39.462,3.814,40,5.197,40h6.82v-1.702H5.199c-0.932,0-1.808-0.362-2.468-1.02
	c-0.662-0.659-1.028-1.537-1.029-2.478V5.2c0-1.929,1.569-3.498,3.498-3.498h29.6c1.929,0,3.498,1.569,3.498,3.498v19.575H40V5.2
	C40,2.333,37.667,0,34.8,0z M13.566,40H40V26.331H13.566V40z M15.268,28.034h23.03v10.264h-23.03V28.034z"/>
</svg>
