<?xml version="1.0" encoding="utf-8"?>
<!-- Generator: Adobe Illustrator 23.0.1, SVG Export Plug-In . SVG Version: 6.00 Build 0)  -->
<svg version="1.1" id="Layer_1" xmlns="http://www.w3.org/2000/svg" xmlns:xlink="http://www.w3.org/1999/xlink" x="0px" y="0px"
	 viewBox="0 0 40 40" style="enable-background:new 0 0 40 40;" xml:space="preserve">
<style type="text/css">
	.st0{fill:#231F20;}
</style>
<path class="st0" d="M13.657,2.818l5.761,5.393C19.582,8.364,19.791,8.44,20,8.44s0.418-0.076,0.581-0.229l5.762-5.393v6.747h1.705
	V0.853C28.048,0.382,27.667,0,27.196,0H12.805c-0.471,0-0.853,0.382-0.853,0.853v8.712h1.705V2.818z M25.038,1.705L20,6.422
	l-5.037-4.717H25.038z M33.566,8.062C33.263,6.8,32.033,5.725,29.91,4.87l-0.638,1.582c1.338,0.539,2.242,1.172,2.548,1.782
	c-0.312,1.411-4.842,3.329-11.82,3.329c-6.982,0-11.512-1.92-11.82-3.331c0.299-0.601,1.203-1.238,2.548-1.78L10.091,4.87
	C7.967,5.725,6.736,6.8,6.439,8.044C6.387,8.241,6.361,8.445,6.36,8.653v25.959C6.36,38.112,13.388,40,20,40
	c6.613,0,13.64-1.888,13.64-5.388V8.653C33.64,8.45,33.614,8.246,33.566,8.062z M31.935,34.612c0,1.538-4.541,3.683-11.935,3.683
	S8.065,36.15,8.065,34.612V10.627c2.443,1.726,7.286,2.64,11.935,2.64c4.649,0,9.492-0.914,11.935-2.64V34.612z"/>
</svg>
