<?xml version="1.0" encoding="utf-8"?>
<!-- Generator: Adobe Illustrator 23.0.1, SVG Export Plug-In . SVG Version: 6.00 Build 0)  -->
<svg version="1.1" id="Layer_1" xmlns="http://www.w3.org/2000/svg" xmlns:xlink="http://www.w3.org/1999/xlink" x="0px" y="0px"
	 viewBox="0 0 40 40" style="enable-background:new 0 0 40 40;" xml:space="preserve">
<style type="text/css">
	.st0{fill:#231F20;}
</style>
<path class="st0" d="M7.82,26.431c0.034,0,0.069,0,0.103-0.001l24.898-0.002c2.48-0.185,7.172-2.051,7.179-7.793
	c0-4.557-3.133-6.902-6.278-7.651c-0.336-2.611-1.73-4.502-3.8-5.111c-1.471-0.433-3.016-0.112-4.219,0.817
	c-0.591-1.274-1.399-2.451-2.374-3.452c-3.069-3.203-7.847-4.13-11.874-2.315c-3.576,1.51-6.273,5.685-6.273,9.717
	c0.001,0.179,0.006,0.359,0.015,0.539c-3.202,1.006-5.347,4.02-5.19,7.405l0.003,0.63C0.338,23.28,3.763,26.431,7.82,26.431z
	 M1.709,18.544c-0.132-2.841,1.795-5.32,4.581-5.893c0.428-0.088,0.719-0.485,0.675-0.92c-0.006-0.058-0.017-0.114-0.034-0.167
	c-0.029-0.311-0.045-0.624-0.047-0.93c0-3.328,2.298-6.905,5.252-8.152c3.388-1.529,7.391-0.752,9.969,1.937
	c1.114,1.144,1.973,2.548,2.483,4.061C24.691,8.781,24.95,9,25.262,9.05c0.308,0.049,0.628-0.079,0.816-0.333
	c0.815-1.097,2.136-1.572,3.363-1.211c1.506,0.443,2.492,2,2.636,4.185c0,0.415,0.299,0.77,0.709,0.839
	c1.657,0.281,5.512,1.44,5.512,6.104c-0.007,5.582-5.377,6.079-5.54,6.095H7.912C7.885,24.73,7.858,24.73,7.831,24.73
	c-3.185,0-5.867-2.468-6.121-5.584L1.709,18.544z M6.425,23.248h26.332c0.47,0,0.851-0.381,0.851-0.851v-7.983
	c0-0.47-0.381-0.851-0.851-0.851H6.425c-0.47,0-0.851,0.381-0.851,0.851v7.983C5.574,22.867,5.955,23.248,6.425,23.248z
	 M7.276,15.264h24.63v6.281H7.276V15.264z M10.417,15.843c-1.413,0-2.562,1.149-2.562,2.562s1.149,2.562,2.562,2.562
	s2.562-1.149,2.562-2.562C12.978,16.992,11.829,15.843,10.417,15.843z M10.417,19.264c-0.474,0-0.859-0.386-0.859-0.859
	c0-0.474,0.386-0.859,0.859-0.859s0.859,0.386,0.859,0.859S10.891,19.264,10.417,19.264z M20.118,16.26
	c-0.162-0.194-0.406-0.333-0.654-0.307c-0.252,0-0.492,0.112-0.653,0.306l-2.664,3.192c-0.212,0.253-0.258,0.607-0.118,0.906
	c0.14,0.299,0.44,0.49,0.771,0.49h5.319c0.33,0,0.631-0.191,0.77-0.49c0.14-0.299,0.095-0.652-0.116-0.906L20.118,16.26z
	 M18.619,19.145l0.844-1.011l0.841,1.011H18.619z M30.366,16.005h-3.201c-0.47,0-0.851,0.381-0.851,0.851v3.2
	c0,0.47,0.381,0.851,0.851,0.851h3.201c0.47,0,0.851-0.381,0.851-0.851v-3.2C31.217,16.386,30.837,16.005,30.366,16.005z
	 M29.515,19.205h-1.499v-1.498h1.499V19.205z M37.549,27.919H2.442c-0.47,0-0.851,0.381-0.851,0.851v10.375
	c0,0.47,0.381,0.851,0.851,0.851h35.107c0.47,0,0.851-0.381,0.851-0.851V28.771C38.4,28.3,38.019,27.919,37.549,27.919z
	 M36.698,38.294H3.293v-8.673h33.405C36.698,29.621,36.698,38.294,36.698,38.294z M8.425,36.967c1.656,0,3.004-1.348,3.004-3.005
	c0-1.656-1.348-3.005-3.004-3.005c-1.657,0-3.005,1.348-3.005,3.005C5.421,35.619,6.769,36.967,8.425,36.967z M8.425,32.66
	c0.718,0,1.302,0.584,1.302,1.302s-0.584,1.302-1.302,1.302s-1.302-0.584-1.302-1.302C7.123,33.245,7.707,32.66,8.425,32.66z
	 M16.8,36.745h6.383c0.321,0,0.615-0.181,0.76-0.468s0.116-0.63-0.075-0.888l-3.192-4.324c-0.321-0.436-1.049-0.436-1.37,0
	l-3.192,4.324c-0.191,0.258-0.22,0.602-0.075,0.888C16.185,36.564,16.479,36.745,16.8,36.745z M19.991,33.004l1.505,2.04h-3.011
	L19.991,33.004z M29.566,36.805h3.992c0.47,0,0.851-0.381,0.851-0.851v-3.992c0-0.47-0.381-0.851-0.851-0.851h-3.992
	c-0.47,0-0.851,0.381-0.851,0.851v3.992C28.715,36.424,29.096,36.805,29.566,36.805z M30.417,32.813h2.29v2.29h-2.29V32.813z"/>
</svg>
