<?xml version="1.0" encoding="utf-8"?>
<!-- Generator: Adobe Illustrator 23.0.1, SVG Export Plug-In . SVG Version: 6.00 Build 0)  -->
<svg version="1.1" id="Layer_1" xmlns="http://www.w3.org/2000/svg" xmlns:xlink="http://www.w3.org/1999/xlink" x="0px" y="0px"
	 viewBox="0 0 40 40" style="enable-background:new 0 0 40 40;" xml:space="preserve">
<style type="text/css">
	.st0{fill:#231F20;}
</style>
<path class="st0" d="M40,11.255V9.548h-3.95V6.63c0-1.472-1.198-2.671-2.671-2.671h-2.927V0h-1.706v3.959h-3.097V0h-1.706v3.959
	h-3.089V0h-1.706v3.959h-3.097V0h-1.706v3.959h-3.088V0H9.548v3.959H6.621c-1.472,0-2.671,1.198-2.671,2.671v2.918H0v1.706h3.951
	v3.088H0v1.706h3.951v3.098H0v1.706h3.951v3.088H0v1.706h3.951v3.097H0v1.706h3.951v2.927c0,1.472,1.198,2.671,2.671,2.671h2.927V40
	h1.706v-3.95h3.088V40h1.706v-3.95h3.097V40h1.706v-3.95h3.089V40h1.706v-3.95h3.097V40h1.706v-3.95h2.927
	c1.472,0,2.671-1.198,2.671-2.671v-2.927H40v-1.706h-3.95v-3.097H40v-1.706h-3.95v-3.088H40v-1.706h-3.95v-3.098H40v-1.706h-3.95
	v-3.088H40V11.255z M34.343,33.379c0,0.532-0.432,0.964-0.964,0.964H6.621c-0.532,0-0.964-0.432-0.964-0.964V6.63
	c0-0.532,0.432-0.964,0.964-0.964h26.758c0.532,0,0.964,0.432,0.964,0.964V33.379z M31.789,11.533
	c0.387-0.947,0.272-2.009-0.311-2.854c-0.029-0.042-0.062-0.082-0.099-0.119c-1.38-1.381-4.265-0.182-5.399,0.95l-3.009,3.216
	l-2.422-0.559l0.546-0.546c0.378-0.392,0.582-0.908,0.572-1.452c-0.009-0.537-0.224-1.039-0.606-1.416
	c-0.004-0.005-0.009-0.009-0.012-0.013c-0.806-0.799-2.11-0.794-2.906,0.006l-2.333,2.326l-4.218-0.974
	c-0.287-0.068-0.586,0.02-0.794,0.227l-2.321,2.312c-0.199,0.198-0.287,0.481-0.237,0.757c0.05,0.276,0.232,0.51,0.487,0.625
	l9.133,4.135l-3.034,3.365H9.599c-0.227,0-0.445,0.09-0.605,0.252l-1.595,1.604c-0.213,0.214-0.297,0.525-0.221,0.817
	c0.077,0.292,0.302,0.522,0.592,0.605l5.723,1.629l1.677,5.783c0.084,0.29,0.315,0.514,0.607,0.589
	c0.07,0.017,0.142,0.027,0.212,0.027c0.223,0,0.441-0.087,0.603-0.25l1.613-1.612c0.16-0.16,0.25-0.377,0.25-0.603v-5.233
	l3.32-3.072l4.145,9.16c0.115,0.255,0.348,0.437,0.623,0.487c0.27,0.05,0.557-0.036,0.755-0.233l2.321-2.304
	c0.21-0.208,0.297-0.51,0.231-0.798l-0.975-4.217l2.333-2.333c0.803-0.799,0.807-2.104,0.003-2.913
	c-0.802-0.804-2.106-0.808-2.916,0l-0.513,0.516l-0.567-2.452l3.265-3.058C31.092,13.233,31.544,12.412,31.789,11.533z
	 M19.352,9.953c0.088-0.089,0.192-0.103,0.247-0.103c0.008-0.005,0.152,0.012,0.239,0.094c0.007,0.007,0.015,0.015,0.022,0.022
	c0.086,0.083,0.101,0.182,0.102,0.233c0.001,0.052-0.01,0.151-0.112,0.256l-1.26,1.26l-0.816-0.188L19.352,9.953z M29.503,20.109
	c0.003-0.003,0.007-0.007,0.011-0.01c0.136-0.13,0.354-0.126,0.492,0.014c0.136,0.137,0.135,0.359-0.003,0.497l-1.581,1.581
	l-0.187-0.806L29.503,20.109z M30.198,10.916c-0.017,0.038-0.03,0.077-0.041,0.118c-0.172,0.64-0.497,1.238-0.894,1.68l-3.575,3.345
	c-0.222,0.208-0.317,0.519-0.248,0.815l2.641,11.414l-1.112,1.103l-4.127-9.119c-0.113-0.25-0.339-0.43-0.608-0.485
	c-0.266-0.056-0.547,0.023-0.749,0.21l-4.462,4.129c-0.175,0.162-0.274,0.389-0.274,0.627v5.253l-0.342,0.342L15,25.497
	c-0.082-0.282-0.303-0.502-0.586-0.583l-4.785-1.362l0.325-0.327h5.251c0.242,0,0.472-0.102,0.634-0.282l4.07-4.514
	c0.182-0.202,0.257-0.479,0.202-0.746s-0.235-0.49-0.483-0.603l-9.07-4.106l1.111-1.107l11.4,2.633
	c0.294,0.069,0.607-0.025,0.815-0.248l3.325-3.555c0.772-0.772,2.468-1.254,2.919-0.967C30.338,10.091,30.366,10.527,30.198,10.916z
	"/>
</svg>
