<?xml version="1.0" encoding="utf-8"?>
<!-- Generator: Adobe Illustrator 23.0.1, SVG Export Plug-In . SVG Version: 6.00 Build 0)  -->
<svg version="1.1" id="Layer_1" xmlns="http://www.w3.org/2000/svg" xmlns:xlink="http://www.w3.org/1999/xlink" x="0px" y="0px"
	 viewBox="0 0 40 40" style="enable-background:new 0 0 40 40;" xml:space="preserve">
<style type="text/css">
	.st0{fill:#231F20;}
</style>
<path class="st0" d="M40,11.307V9.486h-3.887V6.755c0-1.571-1.278-2.85-2.849-2.85h-2.75V0h-1.821v3.905h-2.986V0h-1.821v3.905
	H20.91V0h-1.82v3.905h-2.977V0h-1.821v3.905h-2.986V0h-1.82v3.905H6.737c-1.571,0-2.85,1.278-2.85,2.85v2.731H0v1.821h3.887v2.986H0
	v1.821h3.887v2.977H0v1.821h3.887v2.976H0v1.821h3.887v2.986H0v1.821h3.887v2.75c0,1.571,1.278,2.849,2.85,2.849h2.749V40h1.821
	v-3.887h2.986V40h1.821v-3.887h2.977V40h1.821v-3.887h2.976V40h1.821v-3.887h2.986V40h1.821v-3.887h2.75
	c1.571,0,2.849-1.278,2.849-2.849v-2.75H40v-1.821h-3.887v-2.986H40v-1.821h-3.887V20.91H40v-1.82h-3.887v-2.977H40v-1.821h-3.887
	v-2.986L40,11.307L40,11.307z M34.293,33.264c0,0.567-0.461,1.029-1.029,1.029H6.737c-0.567,0-1.029-0.461-1.029-1.029V6.755
	c0-0.567,0.462-1.029,1.029-1.029h26.527c0.567,0,1.029,0.462,1.029,1.029V33.264z M28.803,10.287H11.197
	c-0.503,0-0.91,0.408-0.91,0.91v17.606c0,0.503,0.408,0.91,0.91,0.91h17.606c0.503,0,0.91-0.407,0.91-0.91V11.197
	C29.713,10.695,29.306,10.287,28.803,10.287z M27.893,15.885h-7.926c-0.398-1.383-1.661-2.403-3.171-2.403
	c-1.827,0-3.314,1.486-3.314,3.314c0,1.827,1.486,3.314,3.314,3.314c1.51,0,2.772-1.02,3.171-2.403h7.926v10.187H12.108v-3.778
	h7.926c0.398,1.383,1.661,2.404,3.17,2.404c1.828,0,3.314-1.486,3.314-3.314c0-1.827-1.486-3.313-3.314-3.313
	c-1.509,0-2.772,1.02-3.17,2.403h-7.926V12.108h15.785V15.885z M18.289,16.796c0,0.823-0.67,1.493-1.493,1.493
	s-1.493-0.67-1.493-1.493s0.67-1.493,1.493-1.493C17.619,15.303,18.289,15.973,18.289,16.796z M21.712,23.204
	c0-0.823,0.669-1.493,1.493-1.493s1.494,0.669,1.494,1.493s-0.67,1.494-1.494,1.494S21.712,24.027,21.712,23.204z"/>
</svg>
