<?xml version="1.0" encoding="utf-8"?>
<!-- Generator: Adobe Illustrator 23.0.1, SVG Export Plug-In . SVG Version: 6.00 Build 0)  -->
<svg version="1.1" id="Layer_1" xmlns="http://www.w3.org/2000/svg" xmlns:xlink="http://www.w3.org/1999/xlink" x="0px" y="0px"
	 viewBox="0 0 40 40" style="enable-background:new 0 0 40 40;" xml:space="preserve">
<style type="text/css">
	.st0{fill:#231F20;}
</style>
<path class="st0" d="M39.143,9.58H0.857c-0.47,0-0.851,0.381-0.851,0.851v19.143c0,0.47,0.381,0.851,0.851,0.851h38.286
	c0.47,0,0.851-0.381,0.851-0.851V10.43C39.994,9.96,39.613,9.58,39.143,9.58z M38.292,23.941H24.184
	c-0.32-0.672-0.999-1.14-1.793-1.14c-1.1,0-1.991,0.891-1.991,1.991c0,1.1,0.891,1.991,1.991,1.991c0.794,0,1.474-0.468,1.793-1.14
	h14.108v3.08H12.879V20.45l-4.153-4.153c0.073-0.207,0.12-0.427,0.12-0.659c0-1.1-0.891-1.991-1.991-1.991s-1.991,0.891-1.991,1.991
	s0.891,1.991,1.991,1.991c0.237,0,0.461-0.048,0.672-0.124l3.65,3.651v7.568H6.498v-4.137c0.672-0.32,1.14-0.999,1.14-1.793
	c0-1.099-0.891-1.991-1.991-1.991s-1.991,0.891-1.991,1.991c0,0.794,0.468,1.473,1.14,1.793v4.137H1.708V11.281h10.266l0.022,3.511
	l4.143,4.15c-0.073,0.208-0.121,0.427-0.121,0.66c0,1.099,0.891,1.991,1.991,1.991c1.1,0,1.991-0.891,1.991-1.991
	c0-1.1-0.891-1.991-1.991-1.991c-0.236,0-0.46,0.048-0.671,0.124l-3.645-3.652l-0.018-2.802h24.617V23.941z M21.389,3.435
	c-2.878-0.766-5.836,0.95-6.602,3.824l1.644,0.438c0.524-1.968,2.556-3.14,4.519-2.617c1.275,0.339,2.277,1.343,2.618,2.618
	l1.643-0.439C24.716,5.397,23.25,3.931,21.389,3.435z M17.398,2.211c1.722-0.694,3.611-0.678,5.32,0.048
	c1.666,0.707,2.973,2.014,3.681,3.68l1.565-0.666c-0.881-2.073-2.508-3.7-4.581-4.581c-2.126-0.903-4.478-0.924-6.622-0.06
	c-2.143,0.865-3.821,2.513-4.725,4.64l1.566,0.666C14.328,4.23,15.676,2.906,17.398,2.211z M18.611,36.568
	c0.464,0.124,0.929,0.183,1.388,0.183c2.384,0,4.571-1.595,5.213-4.006l-1.643-0.439c-0.525,1.967-2.551,3.143-4.519,2.617
	c-1.275-0.339-2.277-1.342-2.617-2.617l-1.644,0.439C15.284,34.608,16.749,36.072,18.611,36.568z M17.282,37.745
	c-1.665-0.708-2.972-2.015-3.68-3.68l-1.566,0.665c0.881,2.073,2.508,3.7,4.581,4.581c1.101,0.468,2.245,0.69,3.372,0.69
	c3.368,0,6.578-1.979,7.975-5.27l-1.565-0.665C24.9,37.591,20.81,39.243,17.282,37.745z M25.181,19.602
	c0.794,0,1.474-0.468,1.793-1.14h3.345v2.399h6.492v-6.492H30.32v2.391h-3.346c-0.32-0.672-0.999-1.14-1.793-1.14
	c-1.1,0-1.991,0.891-1.991,1.991C23.191,18.711,24.082,19.602,25.181,19.602z M32.022,16.071h3.088v3.088h-3.088V16.071z"/>
</svg>
