<?xml version="1.0" encoding="utf-8"?>
<!-- Generator: Adobe Illustrator 23.0.1, SVG Export Plug-In . SVG Version: 6.00 Build 0)  -->
<svg version="1.1" id="Layer_1" xmlns="http://www.w3.org/2000/svg" xmlns:xlink="http://www.w3.org/1999/xlink" x="0px" y="0px"
	 viewBox="0 0 40 40" style="enable-background:new 0 0 40 40;" xml:space="preserve">
<style type="text/css">
	.st0{fill:#231F20;}
</style>
<g>
	<path class="st0" d="M20,0L2.68,10v20L20,40l17.32-10V10L20,0z M35.256,28.808L20,37.616L4.744,28.808V11.191L20,2.383
		l15.256,8.808V28.808z M11.603,14.986c0,0.007,0.001,0.014,0.001,0.022c-2.517,1.457-4.214,4.171-4.214,7.289
		c0,4.653,3.771,8.424,8.424,8.424c1.536,0,2.973-0.418,4.213-1.136c1.24,0.719,2.675,1.136,4.213,1.136
		c4.653,0,8.424-3.771,8.424-8.424c0-3.117-1.697-5.832-4.214-7.289c0-0.007,0.001-0.015,0.001-0.022
		c0-4.653-3.771-8.424-8.424-8.424S11.603,10.334,11.603,14.986z M15.816,28.657c-3.507,0-6.36-2.854-6.36-6.36
		c0-2.042,0.971-3.857,2.471-5.022c0.293,1.038,0.793,1.982,1.433,2.813c-0.52,0.583-0.845,1.344-0.845,2.187
		c0,1.824,1.479,3.303,3.303,3.303c0.226,0,0.446-0.023,0.658-0.066c0.414,0.999,0.999,1.91,1.743,2.671
		C17.477,28.486,16.666,28.657,15.816,28.657z M16.502,19.046c-0.222-0.047-0.45-0.073-0.685-0.073
		c-0.218,0-0.432,0.024-0.639,0.064c-0.667-0.786-1.165-1.719-1.381-2.767c0.635-0.214,1.312-0.334,2.018-0.334
		c0.374,0,0.736,0.046,1.093,0.11c0.143,0.431,0.368,0.819,0.663,1.151C17.139,17.762,16.781,18.382,16.502,19.046z M17.055,22.275
		c0,0.683-0.555,1.239-1.239,1.239c-0.682,0-1.239-0.555-1.239-1.239c0-0.682,0.555-1.238,1.239-1.238
		C16.499,21.037,17.055,21.592,17.055,22.275z M20.027,27.049c-0.789-0.699-1.37-1.605-1.73-2.616
		c0.282-0.325,0.498-0.701,0.638-1.118c0.358,0.054,0.719,0.095,1.093,0.095s0.735-0.041,1.093-0.095
		c0.139,0.417,0.355,0.793,0.638,1.118C21.399,25.444,20.816,26.35,20.027,27.049z M19.384,18.247
		c0.208,0.041,0.423,0.065,0.643,0.065c0.221,0,0.435-0.024,0.643-0.065c0.463,0.554,0.829,1.185,1.082,1.875
		c-0.279,0.321-0.493,0.694-0.631,1.105c-0.357,0.069-0.718,0.12-1.095,0.12c-0.377,0-0.738-0.05-1.095-0.12
		c-0.138-0.411-0.353-0.784-0.631-1.105C18.555,19.432,18.921,18.801,19.384,18.247z M18.789,15.009
		c0-0.682,0.555-1.238,1.239-1.238c0.682,0,1.239,0.555,1.239,1.238c0,0.683-0.555,1.239-1.239,1.239
		C19.344,16.247,18.789,15.691,18.789,15.009z M26.696,20.088c0.64-0.832,1.141-1.775,1.433-2.813
		c1.501,1.165,2.471,2.979,2.471,5.022c0,3.507-2.854,6.36-6.36,6.36c-0.85,0-1.661-0.17-2.402-0.474
		c0.744-0.762,1.329-1.672,1.743-2.671c0.213,0.043,0.433,0.066,0.659,0.066c1.824,0,3.303-1.479,3.303-3.303
		C27.542,21.432,27.216,20.672,26.696,20.088z M24.878,19.038c-0.207-0.041-0.419-0.064-0.638-0.064
		c-0.235,0-0.464,0.026-0.685,0.073c-0.279-0.665-0.638-1.285-1.07-1.849c0.295-0.331,0.52-0.72,0.663-1.15
		c0.357-0.065,0.719-0.111,1.093-0.111c0.706,0,1.383,0.12,2.018,0.334C26.042,17.318,25.545,18.25,24.878,19.038z M25.478,22.275
		c0,0.683-0.555,1.239-1.239,1.239c-0.682,0-1.239-0.555-1.239-1.239c0-0.682,0.555-1.238,1.239-1.238
		C24.921,21.037,25.478,21.592,25.478,22.275z M20.027,8.626c3.221,0,5.883,2.408,6.298,5.518c-0.669-0.17-1.365-0.271-2.086-0.271
		c-0.374,0-0.736,0.04-1.095,0.093c-0.439-1.309-1.661-2.258-3.118-2.258c-1.457,0-2.679,0.95-3.118,2.258
		c-0.359-0.053-0.72-0.093-1.094-0.093c-0.721,0-1.417,0.101-2.086,0.271C14.144,11.034,16.807,8.626,20.027,8.626z"/>
</g>
</svg>
