<?xml version="1.0" encoding="utf-8"?>
<!-- Generator: Adobe Illustrator 23.0.1, SVG Export Plug-In . SVG Version: 6.00 Build 0)  -->
<svg version="1.1" id="Layer_1" xmlns="http://www.w3.org/2000/svg" xmlns:xlink="http://www.w3.org/1999/xlink" x="0px" y="0px"
	 viewBox="0 0 40 40" style="enable-background:new 0 0 40 40;" xml:space="preserve">
<style type="text/css">
	.st0{fill:#231F20;}
</style>
<g>
	<path class="st0" d="M30.561,12.998h-2.079v4.128h2.079V12.998z M28.483,23.333h2.079v-4.128h-2.079V23.333z M23.315,30.398v-2.079
		h-4.128v2.079H23.315z M17.108,30.398v-2.079H12.98v2.079H17.108z M33.493,5.91c0.203-0.499,0.321-1.044,0.321-1.618
		c0-2.37-1.921-4.291-4.291-4.291s-4.291,1.921-4.291,4.291c0,2.009,1.387,3.683,3.251,4.15v2.478h2.079V8.441
		c0.627-0.157,1.194-0.454,1.678-0.854c3.428,3.202,5.588,7.748,5.588,12.798c0,9.668-7.866,17.534-17.534,17.534
		c-5.058,0-9.609-2.166-12.812-5.602c0.505-0.529,0.871-1.187,1.054-1.92h2.367v-2.079H8.535c-0.466-1.865-2.14-3.251-4.15-3.251
		c-2.37,0-4.291,1.921-4.291,4.291s1.921,4.291,4.291,4.291c0.453,0,0.88-0.089,1.29-0.219C9.267,37.454,14.476,40,20.293,40
		c10.832,0,19.613-8.781,19.613-19.613C39.906,14.645,37.424,9.497,33.493,5.91z M29.521,6.504c-1.219,0-2.213-0.992-2.213-2.213
		s0.992-2.213,2.213-2.213s2.213,0.992,2.213,2.213S30.742,6.504,29.521,6.504z M4.385,31.57c-1.219,0-2.213-0.992-2.213-2.213
		c0-1.219,0.992-2.213,2.213-2.213s2.213,0.992,2.213,2.213C6.598,30.578,5.604,31.57,4.385,31.57z M8.224,12.362
		c0.802,0,1.544-0.234,2.186-0.617l16.574,16.574h-1.59v2.079h5.167v-4.986h-2.079v1.465L11.885,10.28
		c0.391-0.647,0.63-1.398,0.63-2.209c0-2.37-1.921-4.291-4.291-4.291S3.932,5.7,3.932,8.071C3.933,10.441,5.854,12.362,8.224,12.362
		z M8.224,5.858c1.219,0,2.213,0.992,2.213,2.213c0,1.219-0.992,2.213-2.213,2.213S6.011,9.291,6.011,8.071
		C6.011,6.851,7.004,5.858,8.224,5.858z"/>
</g>
</svg>
