<?xml version="1.0" encoding="utf-8"?>
<!-- Generator: Adobe Illustrator 23.0.1, SVG Export Plug-In . SVG Version: 6.00 Build 0)  -->
<svg version="1.1" id="Layer_1" xmlns="http://www.w3.org/2000/svg" xmlns:xlink="http://www.w3.org/1999/xlink" x="0px" y="0px"
	 viewBox="0 0 40 40" style="enable-background:new 0 0 40 40;" xml:space="preserve">
<style type="text/css">
	.st0{fill:#231F20;}
</style>
<path class="st0" d="M40,11.307V9.486h-3.887V6.755c0-1.571-1.278-2.85-2.849-2.85h-2.75V0h-1.821v3.905h-2.986V0h-1.821v3.905
	H20.91V0h-1.82v3.905h-2.977V0h-1.821v3.905h-2.986V0h-1.82v3.905H6.737c-1.571,0-2.85,1.278-2.85,2.85v2.731H0v1.821h3.887v2.986H0
	v1.821h3.887v2.977H0v1.821h3.887v2.976H0v1.821h3.887v2.986H0v1.821h3.887v2.75c0,1.571,1.278,2.849,2.85,2.849h2.749V40h1.821
	v-3.887h2.986V40h1.821v-3.887h2.977V40h1.821v-3.887h2.976V40h1.821v-3.887h2.986V40h1.821v-3.887h2.75
	c1.571,0,2.849-1.278,2.849-2.849v-2.75H40v-1.821h-3.887v-2.986H40v-1.821h-3.887V20.91H40v-1.82h-3.887v-2.977H40v-1.821h-3.887
	v-2.986L40,11.307L40,11.307z M34.293,33.264c0,0.567-0.461,1.029-1.029,1.029H6.737c-0.567,0-1.029-0.461-1.029-1.029V6.755
	c0-0.567,0.462-1.029,1.029-1.029h26.527c0.567,0,1.029,0.462,1.029,1.029V33.264z M25.608,7.092H14.392
	c-1.38,0-2.503,1.123-2.503,2.503v21.621c0,1.381,1.123,2.503,2.503,2.503h11.216c1.381,0,2.503-1.123,2.503-2.503V9.595
	C28.111,8.215,26.989,7.092,25.608,7.092z M26.291,31.216c0,0.376-0.307,0.683-0.683,0.683H14.392c-0.376,0-0.683-0.307-0.683-0.683
	V9.595c0-0.376,0.306-0.683,0.683-0.683h11.216c0.376,0,0.683,0.306,0.683,0.683V31.216z M20,10.696
	c-2.706,0-4.907,2.201-4.907,4.907S17.294,20.51,20,20.51c2.705,0,4.906-2.202,4.906-4.907S22.705,10.696,20,10.696z M20,18.689
	c-1.702,0-3.086-1.385-3.086-3.086s1.385-3.086,3.086-3.086c1.702,0,3.086,1.385,3.086,3.086S21.702,18.689,20,18.689z M20,22.686
	c-1.386,0-2.512,1.127-2.512,2.512c0,1.063,0.667,1.969,1.602,2.335v2.872h1.821v-2.872c0.935-0.366,1.602-1.272,1.602-2.335
	C22.513,23.813,21.385,22.686,20,22.686z M20,25.89c-0.381,0-0.692-0.31-0.692-0.692s0.31-0.692,0.692-0.692
	c0.381,0,0.692,0.31,0.692,0.692S20.382,25.89,20,25.89z"/>
</svg>
