<?xml version="1.0" encoding="utf-8"?>
<!-- Generator: Adobe Illustrator 23.0.1, SVG Export Plug-In . SVG Version: 6.00 Build 0)  -->
<svg version="1.1" id="Layer_1" xmlns="http://www.w3.org/2000/svg" xmlns:xlink="http://www.w3.org/1999/xlink" x="0px" y="0px"
	 viewBox="0 0 40 40" style="enable-background:new 0 0 40 40;" xml:space="preserve">
<style type="text/css">
	.st0{fill:#231F20;}
</style>
<path class="st0" d="M40,11.307V9.486h-3.887V6.755c0-1.571-1.278-2.85-2.849-2.85h-2.75V0h-1.821v3.905h-2.986V0h-1.821v3.905
	H20.91V0h-1.82v3.905h-2.977V0h-1.821v3.905h-2.986V0h-1.82v3.905H6.737c-1.571,0-2.85,1.278-2.85,2.85v2.731H0v1.821h3.887v2.986H0
	v1.821h3.887v2.977H0v1.821h3.887v2.976H0v1.821h3.887v2.986H0v1.821h3.887v2.75c0,1.571,1.278,2.849,2.85,2.849h2.749V40h1.821
	v-3.887h2.986V40h1.821v-3.887h2.977V40h1.821v-3.887h2.976V40h1.821v-3.887h2.986V40h1.821v-3.887h2.75
	c1.571,0,2.849-1.278,2.849-2.849v-2.75H40v-1.821h-3.887v-2.986H40v-1.821h-3.887V20.91H40v-1.82h-3.887v-2.977H40v-1.821h-3.887
	v-2.986L40,11.307L40,11.307z M34.293,33.264c0,0.567-0.461,1.029-1.029,1.029H6.737c-0.567,0-1.029-0.461-1.029-1.029V6.755
	c0-0.567,0.462-1.029,1.029-1.029h26.527c0.567,0,1.029,0.462,1.029,1.029V33.264z M30.564,18.145l-1.976-4.26
	c-0.381-0.721-1.124-1.167-1.936-1.167h-0.006l-8.56,0.001c-0.817-0.044-1.573,0.446-1.899,1.262l-1.149,3.484L9.583,19.21
	c-1.008,0.163-1.739,1.034-1.717,2.046v1.83H6.4v1.821h1.591c0.067,0.148,0.158,0.285,0.277,0.404
	c0.258,0.257,0.578,0.36,0.964,0.397h1.047c0.403,1.465,1.732,2.55,3.323,2.55c1.59,0,2.92-1.085,3.322-2.55h7.448
	c0.402,1.465,1.731,2.55,3.322,2.55c1.581,0,2.902-1.072,3.314-2.522h1.367c0.364-0.008,0.704-0.156,0.956-0.42
	c0.253-0.263,0.388-0.609,0.38-0.955v-1.72C33.709,20.304,32.597,18.725,30.564,18.145z M13.601,26.437
	c-0.904,0-1.639-0.735-1.639-1.639c0-0.903,0.735-1.638,1.639-1.638c0.903,0,1.638,0.735,1.638,1.638S14.504,26.437,13.601,26.437z
	 M27.693,26.437c-0.903,0-1.638-0.735-1.638-1.639c0-0.903,0.735-1.638,1.638-1.638s1.638,0.735,1.638,1.638
	C29.331,25.701,28.596,26.437,27.693,26.437z M31.889,23.914h-0.865c-0.393-1.479-1.73-2.576-3.331-2.576
	c-1.591,0-2.92,1.084-3.322,2.549h-7.448c-0.403-1.464-1.732-2.549-3.322-2.549c-1.591,0-2.92,1.084-3.323,2.549H9.686v-2.65
	c-0.003-0.119,0.084-0.219,0.202-0.231c0.06-0.007,0.119-0.02,0.176-0.038l5.707-1.826c0.522-0.179,0.901-0.614,1.01-1.149
	l1.114-3.386c0.017-0.044,0.065-0.072,0.148-0.068h8.606c0.139,0,0.265,0.076,0.308,0.155l2.14,4.615
	c0.123,0.264,0.363,0.453,0.648,0.51c1.482,0.295,2.143,1.165,2.143,2.822v1.273H31.889z"/>
</svg>
