<?xml version="1.0" encoding="utf-8"?>
<!-- Generator: Adobe Illustrator 23.0.1, SVG Export Plug-In . SVG Version: 6.00 Build 0)  -->
<svg version="1.1" id="Layer_1" xmlns="http://www.w3.org/2000/svg" xmlns:xlink="http://www.w3.org/1999/xlink" x="0px" y="0px"
	 viewBox="0 0 40 40" style="enable-background:new 0 0 40 40;" xml:space="preserve">
<style type="text/css">
	.st0{fill:#231F20;}
</style>
<path class="st0" d="M40,11.254V9.548h-3.95V6.63c0-1.472-1.198-2.671-2.671-2.671h-2.927V0h-1.706v3.959h-3.097V0h-1.706v3.959
	h-3.088V0h-1.706v3.959h-3.098V0h-1.706v3.959h-3.088V0H9.548v3.959H6.621c-1.472,0-2.671,1.198-2.671,2.671v2.918H0v1.706h3.951
	v3.098H0v1.706h3.951v3.089H0v1.706h3.951v3.097H0v1.706h3.951v3.089H0v1.706h3.951v2.926c0,1.472,1.198,2.671,2.671,2.671h2.927V40
	h1.706v-3.95h3.088V40h1.706v-3.95h3.098V40h1.706v-3.95h3.088V40h1.706v-3.95h3.097V40h1.706v-3.95h2.927
	c1.472,0,2.671-1.198,2.671-2.671v-2.926H40v-1.706h-3.95v-3.089H40v-1.706h-3.95v-3.097H40v-1.706h-3.95V16.06H40v-1.706h-3.95
	v-3.098H40V11.254z M34.343,33.379c0,0.532-0.432,0.964-0.964,0.964H6.621c-0.532,0-0.964-0.432-0.964-0.964V6.63
	c0-0.532,0.432-0.964,0.964-0.964h26.758c0.532,0,0.964,0.432,0.964,0.964V33.379z M20.734,22.407L20.742,32.8l1.706-0.002
	L22.44,22.405L20.734,22.407z M24.445,18.405c0-0.802-0.335-1.525-0.87-2.043l4.39-8.779L26.438,6.82l-4.39,8.78
	c-0.148-0.024-0.297-0.046-0.452-0.046c-1.272,0-2.34,0.844-2.705,1.997H8.797v1.706h10.094c0.365,1.153,1.432,1.996,2.705,1.996
	c0.258,0,0.503-0.045,0.74-0.11l6.771,6.771l1.207-1.207l-6.516-6.516C24.196,19.702,24.445,19.085,24.445,18.405z M21.595,19.548
	c-0.631,0-1.143-0.512-1.143-1.143s0.512-1.144,1.143-1.144s1.143,0.513,1.143,1.144S22.226,19.548,21.595,19.548z"/>
</svg>
