<?xml version="1.0" encoding="utf-8"?>
<!-- Generator: Adobe Illustrator 23.0.1, SVG Export Plug-In . SVG Version: 6.00 Build 0)  -->
<svg version="1.1" id="Layer_1" xmlns="http://www.w3.org/2000/svg" xmlns:xlink="http://www.w3.org/1999/xlink" x="0px" y="0px"
	 viewBox="0 0 40 40" style="enable-background:new 0 0 40 40;" xml:space="preserve">
<style type="text/css">
	.st0{fill:#231F20;}
</style>
<path class="st0" d="M32.186,9.607c-0.425-3.106-2.456-4.424-4.146-4.601l-0.177,1.688c1.19,0.125,2.522,1.139,2.686,3.611
	c0,0.412,0.296,0.765,0.702,0.836c1.785,0.313,4.78,1.41,4.78,5.241c0,4.74-4.659,5.196-4.787,5.21h-21.9
	c-0.029,0.001-0.058,0.001-0.087,0.001c-2.726,0-5.038-2.105-5.28-4.753l-0.001-0.534c-0.121-2.418,1.578-4.595,3.951-5.066
	c0.435-0.086,0.73-0.492,0.678-0.932C8.568,9.996,8.55,9.677,8.551,9.381c0.093-3.042,1.859-5.744,4.585-7.04
	c2.953-1.296,6.441-0.607,8.695,1.727c0.41,0.407,0.777,0.858,1.088,1.342l1.427-0.92c-0.379-0.587-0.824-1.135-1.308-1.614
	c-2.73-2.829-6.984-3.669-10.607-2.079C9.104,2.378,6.967,5.647,6.854,9.35C6.853,9.489,6.856,9.627,6.861,9.766
	C4.059,10.67,2.13,13.39,2.279,16.348l0.003,0.568c0.324,3.596,3.376,6.375,6.96,6.375c0.038,0,0.076,0,0.114-0.001l21.955-0.002
	c2.219-0.177,6.416-1.849,6.416-6.905C37.729,11.615,34.051,10.078,32.186,9.607z M26.356,24.775H12.829
	c-0.469,0-0.849,0.38-0.849,0.849v13.528c0,0.469,0.38,0.849,0.849,0.849h13.528c0.469,0,0.849-0.38,0.849-0.849V25.623
	C27.205,25.154,26.825,24.775,26.356,24.775z M25.508,28.789h-5.802c-0.346-1.055-1.328-1.825-2.497-1.825
	c-1.455,0-2.64,1.184-2.64,2.64s1.184,2.639,2.64,2.639c1.144,0,2.111-0.736,2.476-1.756h5.824v7.816h-11.83v-2.317h5.803
	c0.345,1.055,1.328,1.825,2.497,1.825c1.455,0,2.64-1.184,2.64-2.64s-1.184-2.64-2.64-2.64c-1.144,0-2.111,0.737-2.476,1.757h-5.824
	v-7.816h11.83L25.508,28.789L25.508,28.789z M18.15,29.604c0,0.519-0.423,0.941-0.942,0.941c-0.52,0-0.942-0.423-0.942-0.941
	c0-0.52,0.423-0.942,0.942-0.942S18.15,29.084,18.15,29.604z M21.035,35.171c0-0.52,0.423-0.942,0.941-0.942
	c0.52,0,0.942,0.423,0.942,0.942c0,0.52-0.423,0.942-0.942,0.942C21.458,36.113,21.035,35.69,21.035,35.171z M12.778,7.394v11.932
	c0,0.469,0.38,0.849,0.849,0.849h11.932c0.469,0,0.849-0.38,0.849-0.849V7.394c0-0.469-0.38-0.849-0.849-0.849H13.626
	C13.158,6.545,12.778,6.925,12.778,7.394z M14.475,16.144h4.659c0.335,0.815,1.136,1.392,2.071,1.392
	c1.236,0,2.241-1.005,2.241-2.241c0-1.235-1.005-2.241-2.241-2.241c-0.935,0-1.736,0.577-2.071,1.392h-4.659V8.243H24.71v2.215
	h-4.641c-0.335-0.815-1.137-1.392-2.071-1.392c-1.235,0-2.241,1.005-2.241,2.24s1.005,2.241,2.241,2.241
	c0.935,0,1.736-0.577,2.071-1.392h4.641v6.323H14.475V16.144z M20.662,15.295c0-0.3,0.244-0.543,0.543-0.543
	c0.3,0,0.544,0.244,0.544,0.543s-0.244,0.543-0.544,0.543C20.905,15.838,20.662,15.595,20.662,15.295z M18.54,11.306
	c0,0.3-0.244,0.543-0.543,0.543c-0.3,0-0.543-0.244-0.543-0.543s0.244-0.543,0.543-0.543C18.296,10.763,18.54,11.007,18.54,11.306z"
	/>
</svg>
