<?xml version="1.0" encoding="utf-8"?>
<!-- Generator: Adobe Illustrator 23.0.1, SVG Export Plug-In . SVG Version: 6.00 Build 0)  -->
<svg version="1.1" id="Layer_1" xmlns="http://www.w3.org/2000/svg" xmlns:xlink="http://www.w3.org/1999/xlink" x="0px" y="0px"
	 viewBox="0 0 40 40" style="enable-background:new 0 0 40 40;" xml:space="preserve">
<style type="text/css">
	.st0{fill:#231F20;}
</style>
<path class="st0" d="M31.966,24.732h-2.077L20.874,5.285c-0.14-0.301-0.44-0.493-0.772-0.493h-8.077
	c-0.47,0-0.851,0.381-0.851,0.851v5.583c0,0.47,0.381,0.851,0.851,0.851h3.653l9.056,19.457c0.14,0.3,0.44,0.492,0.771,0.492h6.459
	c0.47,0,0.851-0.381,0.851-0.851v-5.592C32.817,25.112,32.436,24.732,31.966,24.732z M31.115,30.323h-5.066l-9.056-19.457
	c-0.14-0.3-0.441-0.492-0.772-0.492h-3.345v-3.88h6.682l9.014,19.447c0.14,0.3,0.44,0.493,0.772,0.493h1.769v3.889H31.115z
	 M15.489,15.663c-0.142-0.294-0.44-0.48-0.766-0.48c-0.362-0.002-0.627,0.189-0.768,0.485L6.73,30.808
	c-0.126,0.263-0.108,0.573,0.048,0.82c0.156,0.248,0.428,0.397,0.72,0.397h6.911c0.329,0,0.629-0.189,0.769-0.487l3.779-7.991
	c0.11-0.233,0.109-0.504-0.003-0.736L15.489,15.663z M13.87,30.323H8.847l5.882-12.325l2.515,5.189L13.87,30.323z M20,0
	C8.972,0,0,8.972,0,20s8.972,20,20,20s20-8.972,20-20S31.028,0,20,0z M20,38.298C9.911,38.298,1.702,30.09,1.702,20
	C1.702,9.911,9.911,1.702,20,1.702c10.09,0,18.298,8.209,18.298,18.298C38.298,30.09,30.09,38.298,20,38.298z"/>
</svg>
