<?xml version="1.0" encoding="utf-8"?>
<!-- Generator: Adobe Illustrator 23.0.1, SVG Export Plug-In . SVG Version: 6.00 Build 0)  -->
<svg version="1.1" id="Layer_1" xmlns="http://www.w3.org/2000/svg" xmlns:xlink="http://www.w3.org/1999/xlink" x="0px" y="0px"
	 viewBox="0 0 40 40" style="enable-background:new 0 0 40 40;" xml:space="preserve">
<style type="text/css">
	.st0{fill:#231F20;}
</style>
<path class="st0" d="M20,0C8.972,0,0,8.972,0,20s8.972,20,20,20s20-8.972,20-20S31.028,0,20,0z M20,38.298
	C9.91,38.298,1.702,30.09,1.702,20S9.91,1.702,20,1.702S38.298,9.911,38.298,20S30.09,38.298,20,38.298z M15.829,6.652l-1.242,1.164
	L26.016,20L14.588,32.183l1.242,1.165l11.975-12.766c0.307-0.327,0.307-0.837,0-1.164L15.829,6.652z"/>
</svg>
