<?xml version="1.0" encoding="utf-8"?>
<!-- Generator: Adobe Illustrator 23.0.1, SVG Export Plug-In . SVG Version: 6.00 Build 0)  -->
<svg version="1.1" id="Layer_1" xmlns="http://www.w3.org/2000/svg" xmlns:xlink="http://www.w3.org/1999/xlink" x="0px" y="0px"
	 viewBox="0 0 40 40" style="enable-background:new 0 0 40 40;" xml:space="preserve">
<style type="text/css">
	.st0{fill:#231F20;}
</style>
<path class="st0" d="M34.51,0H5.49C2.463,0,0,2.463,0,5.49v29.02C0,37.537,2.463,40,5.49,40h29.02c3.027,0,5.49-2.463,5.49-5.49
	V5.49C40,2.463,37.537,0,34.51,0z M38.298,34.51c0,2.089-1.699,3.787-3.787,3.787H5.49c-2.088,0-3.787-1.699-3.787-3.787V5.49
	c0-2.088,1.699-3.787,3.787-3.787h29.02c2.089,0,3.787,1.699,3.787,3.787v29.02H38.298z M12.817,16.757H3.243
	c-0.47,0-0.851,0.381-0.851,0.851v17.558c0,0.47,0.381,0.851,0.851,0.851h9.574c0.47,0,0.851-0.381,0.851-0.851V17.608
	C13.668,17.138,13.287,16.757,12.817,16.757z M11.966,34.315H4.094V18.46h7.872V34.315z M24.791,5.583h-9.574
	c-0.47,0-0.851,0.381-0.851,0.851v28.723c0,0.47,0.381,0.851,0.851,0.851h9.574c0.47,0,0.851-0.381,0.851-0.851V6.434
	C25.642,5.964,25.262,5.583,24.791,5.583z M23.94,34.306h-7.872V7.285h7.872V34.306z M8.034,32.817c1.567,0,2.842-1.275,2.842-2.842
	s-1.275-2.842-2.842-2.842s-2.842,1.275-2.842,2.842C5.192,31.542,6.467,32.817,8.034,32.817z M8.034,28.834
	c0.629,0,1.14,0.511,1.14,1.14s-0.512,1.14-1.14,1.14s-1.14-0.511-1.14-1.14S7.405,28.834,8.034,28.834z M17.608,32.817h4.783
	c0.307,0,0.589-0.165,0.741-0.432c0.151-0.267,0.147-0.594-0.011-0.857l-2.391-3.983c-0.154-0.256-0.431-0.413-0.73-0.413
	s-0.576,0.157-0.73,0.413l-2.392,3.983c-0.158,0.263-0.162,0.59-0.011,0.857C17.019,32.651,17.302,32.817,17.608,32.817z M20,29.636
	l0.888,1.479h-1.775L20,29.636z"/>
</svg>
