<?xml version="1.0" encoding="utf-8"?>
<!-- Generator: Adobe Illustrator 23.0.1, SVG Export Plug-In . SVG Version: 6.00 Build 0)  -->
<svg version="1.1" id="Layer_1" xmlns="http://www.w3.org/2000/svg" xmlns:xlink="http://www.w3.org/1999/xlink" x="0px" y="0px"
	 viewBox="0 0 40 40" style="enable-background:new 0 0 40 40;" xml:space="preserve">
<style type="text/css">
	.st0{fill:#231F20;}
</style>
<path class="st0" d="M26.724,33.86h1.013c0.612,0,1.098-0.167,1.455-0.502s0.536-0.791,0.536-1.37c0-0.578-0.179-1.035-0.536-1.369
	c-0.357-0.335-0.843-0.502-1.455-0.502h-2.255v5.896h1.242C26.724,36.013,26.724,33.86,26.724,33.86z M26.724,31.07h0.868
	c0.283,0,0.5,0.077,0.651,0.233c0.15,0.156,0.225,0.385,0.225,0.685c0,0.301-0.075,0.529-0.225,0.686
	c-0.15,0.156-0.367,0.233-0.651,0.233h-0.868C26.724,32.907,26.724,31.07,26.724,31.07z M32.929,31.665
	c0.3-0.209,0.598-0.371,0.893-0.484c0.295-0.114,0.567-0.17,0.817-0.17c0.221,0,0.397,0.061,0.528,0.183s0.195,0.291,0.195,0.506
	c0,0.21-0.07,0.44-0.209,0.69c-0.139,0.249-0.388,0.58-0.749,0.991c-0.36,0.411-0.903,0.982-1.629,1.714v0.919h4.118v-0.987h-2.706
	c0.602-0.544,1.081-1.017,1.438-1.417s0.618-0.759,0.783-1.076s0.247-0.624,0.247-0.919c0-0.494-0.164-0.891-0.489-1.192
	c-0.327-0.3-0.759-0.45-1.298-0.45c-0.369,0-0.705,0.052-1.008,0.157c-0.303,0.105-0.614,0.279-0.931,0.523
	C32.929,30.653,32.929,31.665,32.929,31.665z M30.085,37.239l2.901-7.641h-1.251l-2.902,7.641H30.085z M12.04,33.503h2.349v2.51
	h1.276v-5.896h-1.276v2.399H12.04v-2.399h-1.276v5.896h1.276V33.503z M17.585,36.013h1.276v-4.876h3.42v4.876h1.276v-4.876h1.796
	v-1.02H15.79v1.02h1.795V36.013z M1.702,34.797V5.203c0-1.928,1.569-3.497,3.497-3.497h29.594c1.929,0,3.497,1.569,3.497,3.497
	v19.571h1.702V5.203c0-2.867-2.332-5.199-5.199-5.199H5.199C2.332,0.004,0,2.336,0,5.203v29.594c0,2.867,2.332,5.199,5.199,5.199
	h1.234v-1.702H5.199C3.271,38.294,1.702,36.725,1.702,34.797z M7.981,26.33v13.666H40V26.33H7.981z M38.298,38.294H9.683V28.032
	h28.615V38.294z"/>
</svg>
