<?xml version="1.0" encoding="utf-8"?>
<!-- Generator: Adobe Illustrator 23.0.1, SVG Export Plug-In . SVG Version: 6.00 Build 0)  -->
<svg version="1.1" id="Layer_1" xmlns="http://www.w3.org/2000/svg" xmlns:xlink="http://www.w3.org/1999/xlink" x="0px" y="0px"
	 viewBox="0 0 40 40" style="enable-background:new 0 0 40 40;" xml:space="preserve">
<style type="text/css">
	.st0{fill:#231F20;}
</style>
<path class="st0" d="M40,11.307V9.486h-3.887V6.755c0-1.571-1.278-2.85-2.849-2.85h-2.75V0h-1.821v3.905h-2.986V0h-1.821v3.905
	H20.91V0h-1.82v3.905h-2.977V0h-1.821v3.905h-2.986V0h-1.82v3.905H6.737c-1.571,0-2.85,1.278-2.85,2.85v2.731H0v1.821h3.887v2.986H0
	v1.821h3.887v2.977H0v1.821h3.887v2.976H0v1.821h3.887v2.986H0v1.821h3.887v2.75c0,1.571,1.278,2.849,2.85,2.849h2.749V40h1.821
	v-3.887h2.986V40h1.821v-3.887h2.977V40h1.821v-3.887h2.976V40h1.821v-3.887h2.986V40h1.821v-3.887h2.75
	c1.571,0,2.849-1.278,2.849-2.849v-2.75H40v-1.821h-3.887v-2.986H40v-1.821h-3.887V20.91H40v-1.82h-3.887v-2.977H40v-1.821h-3.887
	v-2.986L40,11.307L40,11.307z M34.293,33.264c0,0.567-0.461,1.029-1.029,1.029H6.737c-0.567,0-1.029-0.461-1.029-1.029V6.755
	c0-0.567,0.462-1.029,1.029-1.029h26.527c0.567,0,1.029,0.462,1.029,1.029V33.264z M29.905,12.69H12.712l-0.531-2.069
	c-0.146-0.584-0.626-1.021-1.213-1.118L8.254,8.72l-0.505,1.75l2.714,0.783l0.573,2.234c-0.136,0.289-0.183,0.629-0.099,0.983
	l2.941,9.503c0.215,0.567,0.753,0.935,1.313,0.935c0.022,0,0.044-0.001,0.066-0.002h0.875l-0.479,0.988
	c-0.017,0-0.033-0.005-0.05-0.005c-1.606,0-2.913,1.307-2.913,2.913s1.307,2.913,2.913,2.913c1.287,0,2.368-0.844,2.753-2.003h5.691
	c0.385,1.159,1.467,2.003,2.753,2.003c1.606,0,2.913-1.307,2.913-2.913S28.407,25.89,26.8,25.89c-1.287,0-2.368,0.844-2.753,2.003
	h-5.691c-0.184-0.555-0.526-1.032-0.978-1.383l0.776-1.603h8.724c0.586,0.006,1.188-0.372,1.398-0.989l3.033-9.509
	c0.034-0.144,0.044-0.291,0.032-0.433C31.279,13.205,30.6,12.64,29.905,12.69z M26.8,27.71c0.603,0,1.093,0.49,1.093,1.093
	s-0.49,1.093-1.093,1.093s-1.093-0.49-1.093-1.093C25.708,28.2,26.197,27.71,26.8,27.71z M15.603,29.896
	c-0.602,0-1.092-0.49-1.092-1.093s0.49-1.093,1.092-1.093s1.093,0.49,1.093,1.093S16.206,29.896,15.603,29.896z M26.632,23.086
	l-11.124,0.001l-2.655-8.576l16.517-0.003L26.632,23.086z"/>
</svg>
