<?xml version="1.0" encoding="utf-8"?>
<!-- Generator: Adobe Illustrator 23.0.1, SVG Export Plug-In . SVG Version: 6.00 Build 0)  -->
<svg version="1.1" id="Layer_1" xmlns="http://www.w3.org/2000/svg" xmlns:xlink="http://www.w3.org/1999/xlink" x="0px" y="0px"
	 viewBox="0 0 40 40" style="enable-background:new 0 0 40 40;" xml:space="preserve">
<style type="text/css">
	.st0{fill:#231F20;}
</style>
<path class="st0" d="M40,11.254V9.548h-3.95V6.63c0-1.472-1.198-2.671-2.671-2.671h-2.927V0h-1.706v3.959h-3.097V0h-1.706v3.959
	h-3.088V0h-1.707v3.959H16.05V0h-1.706v3.959h-3.088V0H9.548v3.959H6.621c-1.472,0-2.671,1.198-2.671,2.671v2.918H0v1.706h3.951
	v3.098H0v1.706h3.951v3.089H0v1.706h3.951v3.097H0v1.706h3.951v3.089H0v1.706h3.951v2.926c0,1.472,1.198,2.671,2.671,2.671h2.927V40
	h1.706v-3.95h3.088V40h1.706v-3.95h3.098V40h1.707v-3.95h3.088V40h1.706v-3.95h3.097V40h1.706v-3.95h2.927
	c1.472,0,2.671-1.198,2.671-2.671v-2.926H40v-1.706h-3.95v-3.089H40v-1.706h-3.95v-3.097H40v-1.706h-3.95V16.06H40v-1.706h-3.95
	v-3.098H40V11.254z M34.343,33.379c0,0.532-0.432,0.964-0.964,0.964H6.621c-0.532,0-0.964-0.432-0.964-0.964V6.63
	c0-0.532,0.432-0.964,0.964-0.964h26.758c0.532,0,0.964,0.432,0.964,0.964V33.379z M24.471,14.352h-4.42v-2.295h4.753
	c0.472,0,0.853-0.382,0.853-0.853V8.806c0-0.471-0.382-0.853-0.853-0.853H13.601c-0.471,0-0.853,0.382-0.853,0.853v2.398
	c0,0.471,0.382,0.853,0.853,0.853h4.744v2.295H8.797c-0.471,0-0.853,0.382-0.853,0.853v4.872c0,0.472,0.382,0.853,0.853,0.853
	h15.077v2.27c0,0.472,0.382,0.853,0.853,0.853h4.872c0.227,0,0.444-0.09,0.604-0.251s0.25-0.378,0.249-0.605l-0.008-2.873
	C30.444,17.031,27.764,14.352,24.471,14.352z M14.454,10.35V9.659h9.496v0.691H14.454z M25.58,22.347v-1.519
	c0-0.884-0.72-1.604-1.612-1.604H9.65v-3.165h14.821c2.352,0,4.266,1.914,4.266,4.269l0.006,2.02L25.58,22.347L25.58,22.347z
	 M28.369,25.222c-0.142-0.292-0.438-0.477-0.763-0.478h-0.003c-0.323,0-0.619,0.182-0.763,0.472
	c-0.087,0.174-0.234,0.432-0.408,0.739c-0.922,1.625-1.686,3.051-1.685,4.1c0.092,1.427,1.239,2.574,2.666,2.666
	c0.064,0.004,0.127,0.006,0.191,0.006c0.693,0,1.355-0.248,1.881-0.709c0.574-0.504,0.918-1.201,0.967-1.963
	c0.001-0.018,0.002-0.037,0.002-0.055c0-0.983-0.752-2.396-1.66-4.005C28.611,25.673,28.457,25.403,28.369,25.222z M28.358,30.735
	c-0.232,0.202-0.53,0.302-0.836,0.283C26.947,30.981,26.486,30.52,26.45,30c0-0.501,0.662-1.765,1.149-2.643
	c0.484,0.876,1.124,2.098,1.145,2.617C28.718,30.27,28.581,30.539,28.358,30.735z"/>
</svg>
