<?xml version="1.0" encoding="utf-8"?>
<!-- Generator: Adobe Illustrator 23.0.1, SVG Export Plug-In . SVG Version: 6.00 Build 0)  -->
<svg version="1.1" id="Layer_1" xmlns="http://www.w3.org/2000/svg" xmlns:xlink="http://www.w3.org/1999/xlink" x="0px" y="0px"
	 viewBox="0 0 40 40" style="enable-background:new 0 0 40 40;" xml:space="preserve">
<style type="text/css">
	.st0{fill:#231F20;}
</style>
<path class="st0" d="M40,11.307V9.486h-3.887V6.755c0-1.571-1.278-2.85-2.849-2.85h-2.75V0h-1.821v3.905h-2.986V0h-1.821v3.905
	H20.91V0h-1.82v3.905h-2.977V0h-1.821v3.905h-2.986V0h-1.82v3.905H6.737c-1.571,0-2.85,1.278-2.85,2.85v2.731H0v1.821h3.887v2.986H0
	v1.821h3.887v2.977H0v1.821h3.887v2.976H0v1.821h3.887v2.986H0v1.821h3.887v2.75c0,1.571,1.278,2.849,2.85,2.849h2.749V40h1.821
	v-3.887h2.986V40h1.821v-3.887h2.977V40h1.821v-3.887h2.976V40h1.821v-3.887h2.986V40h1.821v-3.887h2.75
	c1.571,0,2.849-1.278,2.849-2.849v-2.75H40v-1.821h-3.887v-2.986H40v-1.821h-3.887V20.91H40v-1.82h-3.887v-2.977H40v-1.821h-3.887
	v-2.986L40,11.307L40,11.307z M34.293,33.264c0,0.567-0.461,1.029-1.029,1.029H6.737c-0.567,0-1.029-0.461-1.029-1.029V6.755
	c0-0.567,0.462-1.029,1.029-1.029h26.527c0.567,0,1.029,0.462,1.029,1.029V33.264z M27.201,19.09c-0.52,0-1.021,0.076-1.5,0.207
	l-1.536-3.379l0.357-1.407h0.813V12.69h-3.214v1.821h0.523l-0.148,0.582h-7.25l-0.472-2.175h2.048v-1.821h-2.795
	c-0.06,0-0.119,0.006-0.177,0.017c-0.39,0.077-0.716,0.328-0.895,0.688c-0.122,0.245-0.273,0.752,0.03,1.458l0.586,2.707
	l-0.603,3.131c-0.057-0.002-0.113-0.009-0.17-0.009c-3.147,0-5.708,2.56-5.708,5.707c0,3.148,2.56,5.708,5.708,5.708
	s5.708-2.56,5.708-5.708c0-2.458-1.565-4.553-3.75-5.354l0.277-1.44l5.082,5.801c0.214,0.245,0.546,0.355,0.864,0.292
	c0.296-0.06,0.535-0.265,0.652-0.539c-0.089,0.4-0.14,0.813-0.14,1.239c0,3.148,2.56,5.708,5.708,5.708
	c3.147,0,5.707-2.56,5.707-5.708C32.908,21.65,30.348,19.09,27.201,19.09z M16.686,24.797c0,2.143-1.744,3.888-3.887,3.888
	s-3.887-1.744-3.887-3.888c0-2.081,1.648-3.771,3.705-3.868l-0.712,3.696l1.788,0.345l0.713-3.702
	C15.747,21.881,16.686,23.228,16.686,24.797z M20.44,21.41l-3.94-4.496h5.44L20.44,21.41z M22.031,22.393l1.303-3.904l0.708,1.558
	C23.174,20.627,22.477,21.439,22.031,22.393z M27.201,28.685c-2.143,0-3.888-1.744-3.888-3.888c0-1.241,0.595-2.335,1.503-3.047
	l1.556,3.424l1.657-0.754l-1.562-3.436c0.238-0.046,0.482-0.074,0.733-0.074c2.143,0,3.887,1.743,3.887,3.887
	S29.344,28.685,27.201,28.685z"/>
</svg>
