<?xml version="1.0" encoding="utf-8"?>
<!-- Generator: Adobe Illustrator 23.0.1, SVG Export Plug-In . SVG Version: 6.00 Build 0)  -->
<svg version="1.1" id="Layer_1" xmlns="http://www.w3.org/2000/svg" xmlns:xlink="http://www.w3.org/1999/xlink" x="0px" y="0px"
	 viewBox="0 0 40 40" style="enable-background:new 0 0 40 40;" xml:space="preserve">
<style type="text/css">
	.st0{fill:#231F20;}
</style>
<path class="st0" d="M1.702,20.722H0v3.457h1.702V20.722z M38.297,19.304h1.702v-3.457h-1.702V19.304z M38.297,14.119h1.702v-3.457
	h-1.702V14.119z M1.702,15.536H0v3.457h1.702V15.536z M1.702,5.489c0-0.089,0.003-0.177,0.009-0.264L0.013,5.107
	C0.005,5.234,0,5.361,0,5.489v3.133h1.702V5.489z M8.946,1.702V0H5.469L5.452,0.467l0.037,1.235H8.946z M1.702,10.351H0v3.457h1.702
	V10.351z M4.072,1.976L3.434,0.398C2.153,0.915,1.121,1.889,0.527,3.139l1.538,0.73C2.475,3.006,3.187,2.333,4.072,1.976z
	 M39.078,5.477l-0.767-0.139c-0.009,0.05-0.014,0.101-0.014,0.152v3.444h1.702V5.489L40,5.477H39.078z M34.804,1.714l0.136-1.697
	C34.798,0.005,34.654,0,34.51,0h-3.094v1.702h3.094C34.609,1.702,34.707,1.706,34.804,1.714z M38.034,4.1l1.584-0.623
	c-0.506-1.286-1.471-2.326-2.716-2.93l-0.743,1.532C37.02,2.495,37.685,3.213,38.034,4.1z M19.317,0H15.86v1.702h3.457V0z M24.501,0
	h-3.457v1.702h3.457V0z M29.687,0H26.23v1.702h3.457V0z M25.894,40h3.457v-1.702h-3.457V40z M38.297,24.489h1.702v-3.457h-1.702
	V24.489z M20.708,40h3.457v-1.702h-3.457V40z M38.297,29.674h1.702v-3.457h-1.702V29.674z M38.297,34.511
	c0,0.095-0.003,0.188-0.011,0.281l1.697,0.135c0.011-0.136,0.016-0.276,0.016-0.416v-3.108h-1.702
	C38.297,31.403,38.297,34.511,38.297,34.511z M15.523,40h3.457v-1.702h-3.457V40z M35.908,38.031l0.628,1.582
	c1.284-0.51,2.321-1.478,2.922-2.725l-1.534-0.738C37.511,37.011,36.794,37.68,35.908,38.031z M31.079,38.298V40h3.457l-0.027-1.702
	H31.079z M1.702,25.907H0v3.457h1.702V25.907z M5.216,38.288l-0.127,1.697C5.221,39.995,5.355,40,5.489,40h3.12v-1.702h-3.12
	C5.397,38.298,5.306,38.295,5.216,38.288z M10.338,40h3.457v-1.702h-3.457V40z M1.972,35.918l-1.58,0.633
	c0.514,1.282,1.484,2.318,2.733,2.915l0.734-1.536C2.997,37.518,2.327,36.804,1.972,35.918z M1.702,31.092H0v3.443l0.345,0.006
	l1.357-0.031V31.092z M10.674,1.702h3.457V0h-3.457V1.702z M2.391,17.609v17.557c0,0.47,0.381,0.851,0.851,0.851h9.574
	c0.47,0,0.851-0.381,0.851-0.851V17.609c0-0.47-0.381-0.851-0.851-0.851H3.242C2.772,16.758,2.391,17.139,2.391,17.609z
	 M4.093,18.46h7.872v15.855H4.093V18.46z M24.782,5.583h-9.574c-0.47,0-0.851,0.381-0.851,0.851v28.723
	c0,0.47,0.381,0.851,0.851,0.851h9.574c0.47,0,0.851-0.381,0.851-0.851V6.434C25.633,5.964,25.253,5.583,24.782,5.583z
	 M23.931,34.306h-7.872V7.285h7.872V34.306z M27.183,10.375c-0.47,0-0.851,0.381-0.851,0.851v23.94c0,0.47,0.381,0.851,0.851,0.851
	h9.574c0.47,0,0.851-0.381,0.851-0.851v-23.94c0-0.47-0.381-0.851-0.851-0.851H27.183z M35.906,34.314h-7.872V12.077h7.872V34.314z
	 M8.034,27.132c-1.567,0-2.843,1.275-2.843,2.842s1.275,2.842,2.843,2.842s2.842-1.275,2.842-2.842S9.601,27.132,8.034,27.132z
	 M8.034,31.115c-0.629,0-1.141-0.511-1.141-1.14s0.512-1.14,1.141-1.14s1.14,0.511,1.14,1.14
	C9.174,30.603,8.663,31.115,8.034,31.115z M17.608,32.817h4.783c0.307,0,0.589-0.165,0.741-0.432
	c0.151-0.267,0.147-0.594-0.011-0.857l-2.392-3.983c-0.308-0.512-1.152-0.512-1.459,0l-2.392,3.983
	c-0.158,0.263-0.162,0.59-0.011,0.857C17.019,32.651,17.302,32.817,17.608,32.817z M20,29.636l0.888,1.479h-1.776L20,29.636z
	 M29.574,32.825h4.791c0.47,0,0.851-0.381,0.851-0.851v-4.791c0-0.47-0.381-0.851-0.851-0.851h-4.791
	c-0.47,0-0.851,0.381-0.851,0.851v4.791C28.723,32.444,29.103,32.825,29.574,32.825z M30.425,28.034h3.089v3.089h-3.089V28.034z"/>
</svg>
