<?xml version="1.0" encoding="utf-8"?>
<!-- Generator: Adobe Illustrator 23.0.1, SVG Export Plug-In . SVG Version: 6.00 Build 0)  -->
<svg version="1.1" id="Layer_1" xmlns="http://www.w3.org/2000/svg" xmlns:xlink="http://www.w3.org/1999/xlink" x="0px" y="0px"
	 viewBox="0 0 40 40" style="enable-background:new 0 0 40 40;" xml:space="preserve">
<style type="text/css">
	.st0{fill:#231F20;}
</style>
<path class="st0" d="M40,11.307V9.486h-3.887V6.755c0-1.571-1.278-2.85-2.849-2.85h-2.75V0h-1.821v3.905h-2.986V0h-1.821v3.905
	H20.91V0h-1.82v3.905h-2.977V0h-1.821v3.905h-2.986V0h-1.82v3.905H6.737c-1.571,0-2.85,1.278-2.85,2.85v2.731H0v1.821h3.887v2.986H0
	v1.821h3.887v2.977H0v1.821h3.887v2.976H0v1.821h3.887v2.986H0v1.821h3.887v2.75c0,1.571,1.278,2.849,2.85,2.849h2.749V40h1.821
	v-3.887h2.986V40h1.821v-3.887h2.977V40h1.821v-3.887h2.976V40h1.821v-3.887h2.986V40h1.821v-3.887h2.75
	c1.571,0,2.849-1.278,2.849-2.849v-2.75H40v-1.821h-3.887v-2.986H40v-1.821h-3.887V20.91H40v-1.82h-3.887v-2.977H40v-1.821h-3.887
	v-2.986L40,11.307L40,11.307z M34.293,33.264c0,0.567-0.461,1.029-1.029,1.029H6.737c-0.567,0-1.029-0.461-1.029-1.029V6.755
	c0-0.567,0.462-1.029,1.029-1.029h26.527c0.567,0,1.029,0.462,1.029,1.029V33.264z M20.053,8.019H20
	c-2.254,0-4.376,0.871-5.98,2.456c-1.618,1.598-2.516,3.729-2.53,6.003c-0.02,3.123,1.688,6.007,4.397,7.504v2.391
	c0,0.503,0.408,0.91,0.91,0.91h6.373c0.503,0,0.91-0.407,0.91-0.91v-2.385c2.702-1.461,4.423-4.306,4.433-7.407
	c0.013-2.272-0.858-4.414-2.455-6.031C24.459,8.932,22.327,8.033,20.053,8.019z M26.691,16.575c-0.008,2.59-1.537,4.952-3.897,6.019
	c-0.325,0.148-0.535,0.472-0.535,0.829v2.039h-1.348V20.11h0.692v-1.821h-3.204v1.821h0.692v5.353h-1.384v-2.039
	c0-0.354-0.205-0.677-0.527-0.826c-2.367-1.1-3.886-3.497-3.87-6.108c0.011-1.787,0.717-3.464,1.989-4.719
	c1.272-1.256,2.988-1.909,4.744-1.93c1.787,0.011,3.463,0.717,4.719,1.989s1.942,2.956,1.93,4.743L26.691,16.575L26.691,16.575z
	 M22.394,27.893h-4.77c-0.728,0-1.257,0.685-1.257,1.63v0.263c-0.004,0.209,0.024,0.416,0.083,0.614
	c-0.06,0.197-0.089,0.4-0.083,0.597v0.282c0,0.944,0.529,1.63,1.257,1.63h4.725c0.723,0,1.247-0.685,1.247-1.63l-0.001-0.247
	c0.008-0.202-0.015-0.401-0.068-0.592c0.069-0.196,0.108-0.4,0.114-0.61v-0.308C23.642,28.578,23.117,27.893,22.394,27.893z
	 M21.821,29.785c-0.003,0.035-0.014,0.068-0.035,0.097c-0.209,0.297-0.201,0.805-0.011,1.115v0.091h-3.587v-0.091
	c0-0.009,0.021-0.093,0.021-0.102c0.188-0.295,0.191-0.673,0.006-0.97c-0.019-0.03-0.028-0.065-0.027-0.121v-0.091h3.632
	L21.821,29.785L21.821,29.785z"/>
</svg>
