<?xml version="1.0" encoding="utf-8"?>
<!-- Generator: Adobe Illustrator 23.0.1, SVG Export Plug-In . SVG Version: 6.00 Build 0)  -->
<svg version="1.1" id="Layer_1" xmlns="http://www.w3.org/2000/svg" xmlns:xlink="http://www.w3.org/1999/xlink" x="0px" y="0px"
	 viewBox="0 0 40 40" style="enable-background:new 0 0 40 40;" xml:space="preserve">
<style type="text/css">
	.st0{fill:#231F20;}
</style>
<g>
	<path class="st0" d="M40,11.307V9.486h-3.887V6.755c0-1.571-1.278-2.85-2.849-2.85h-2.75V0h-1.821v3.905h-2.986V0h-1.821v3.905
		H20.91V0h-1.82v3.905h-2.977V0h-1.821v3.905h-2.986V0h-1.82v3.905H6.737c-1.571,0-2.85,1.278-2.85,2.85v2.731H0v1.821h3.887v2.986
		H0v1.821h3.887v2.977H0v1.821h3.887v2.976H0v1.821h3.887v2.986H0v1.821h3.887v2.75c0,1.571,1.278,2.849,2.85,2.849h2.749V40h1.821
		v-3.887h2.986V40h1.821v-3.887h2.977V40h1.821v-3.887h2.976V40h1.821v-3.887h2.986V40h1.821v-3.887h2.75
		c1.571,0,2.849-1.278,2.849-2.849v-2.75H40v-1.821h-3.887v-2.986H40v-1.821h-3.887V20.91H40v-1.82h-3.887v-2.977H40v-1.821h-3.887
		v-2.986L40,11.307L40,11.307z M34.293,33.264c0,0.567-0.461,1.029-1.029,1.029H6.737c-0.567,0-1.029-0.461-1.029-1.029V6.755
		c0-0.567,0.462-1.029,1.029-1.029h26.527c0.567,0,1.029,0.462,1.029,1.029V33.264z"/>
	<path class="st0" d="M31.491,16.399l-3.38-1.155V9.595c0-0.503-0.407-0.91-0.91-0.91h-2.404c-0.503,0-0.91,0.408-0.91,0.91v4.206
		L9.098,8.734c-0.279-0.097-0.585-0.051-0.825,0.12c-0.238,0.171-0.38,0.447-0.38,0.741v21.602c0,0.503,0.408,0.91,0.91,0.91h9.595
		c0.503,0,0.91-0.407,0.91-0.91v-5.49h1.383v5.49c0,0.503,0.407,0.91,0.91,0.91h9.595c0.503,0,0.91-0.407,0.91-0.91V17.26
		C32.107,16.871,31.86,16.525,31.491,16.399z M30.287,30.287h-7.774v-5.49c0-0.503-0.407-0.91-0.91-0.91h-3.204
		c-0.503,0-0.91,0.407-0.91,0.91v5.49H9.714V10.869l14.788,5.067c0.277,0.096,0.584,0.052,0.824-0.12
		c0.239-0.171,0.381-0.447,0.381-0.741v-4.57h0.583v5.39c0,0.389,0.247,0.736,0.616,0.861l3.38,1.155v12.376H30.287z"/>
	<path class="st0" d="M15.203,16.686h-3.204c-0.503,0-0.91,0.408-0.91,0.91V20.8c0,0.503,0.408,0.91,0.91,0.91h3.204
		c0.503,0,0.91-0.407,0.91-0.91v-3.204C16.113,17.094,15.705,16.686,15.203,16.686z M14.292,19.891h-1.384v-1.384h1.384V19.891z"/>
	<path class="st0" d="M21.602,16.686h-3.204c-0.503,0-0.91,0.408-0.91,0.91V20.8c0,0.503,0.408,0.91,0.91,0.91h3.204
		c0.503,0,0.91-0.407,0.91-0.91v-3.204C22.513,17.094,22.105,16.686,21.602,16.686z M20.692,19.891h-1.383v-1.384h1.383V19.891z"/>
	<path class="st0" d="M15.203,23.887h-3.204c-0.503,0-0.91,0.407-0.91,0.91v3.205c0,0.503,0.408,0.91,0.91,0.91h3.204
		c0.503,0,0.91-0.407,0.91-0.91v-3.205C16.113,24.294,15.705,23.887,15.203,23.887z M14.292,27.092h-1.384v-1.384h1.384V27.092z"/>
	<path class="st0" d="M23.887,24.797v3.205c0,0.503,0.407,0.91,0.91,0.91h3.205c0.503,0,0.91-0.407,0.91-0.91v-3.205
		c0-0.503-0.407-0.91-0.91-0.91h-3.205C24.294,23.887,23.887,24.294,23.887,24.797z M25.708,25.708h1.384v1.384h-1.384V25.708z"/>
</g>
</svg>
