<?xml version="1.0" encoding="utf-8"?>
<!-- Generator: Adobe Illustrator 23.0.1, SVG Export Plug-In . SVG Version: 6.00 Build 0)  -->
<svg version="1.1" id="Layer_1" xmlns="http://www.w3.org/2000/svg" xmlns:xlink="http://www.w3.org/1999/xlink" x="0px" y="0px"
	 viewBox="0 0 40 40" style="enable-background:new 0 0 40 40;" xml:space="preserve">
<style type="text/css">
	.st0{fill:#231F20;}
</style>
<path class="st0" d="M39.149,5.583H0.851C0.381,5.583,0,5.964,0,6.434v27.132c0,0.47,0.381,0.851,0.851,0.851h38.298
	c0.47,0,0.851-0.381,0.851-0.851V6.434C40,5.964,39.619,5.583,39.149,5.583z M23.339,8.038c0.352-0.096,0.596-0.403,0.624-0.753
	h9.607c-0.007,0.048-0.015,0.096-0.024,0.144c-0.076,0.411,0.158,0.816,0.552,0.956l0.538,0.191l-0.392,0.858l-0.492-0.283
	c-0.374-0.216-0.849-0.117-1.106,0.229c-0.331,0.444-0.733,0.822-1.195,1.123c-0.367,0.239-0.493,0.719-0.29,1.107l0.262,0.5
	l-0.859,0.322l-0.152-0.55c-0.103-0.373-0.442-0.624-0.819-0.624c-0.038,0-0.077,0.002-0.116,0.008
	c-0.552,0.074-1.102,0.055-1.642-0.058c-0.416-0.086-0.828,0.143-0.974,0.541l-0.219,0.6l-0.878-0.401l0.301-0.54
	c0.207-0.372,0.107-0.84-0.234-1.095c-0.44-0.329-0.816-0.73-1.118-1.19c-0.234-0.357-0.696-0.486-1.082-0.299l-0.516,0.25
	L22.78,8.19L23.339,8.038z M16.668,31.962c-0.352,0.096-0.595,0.403-0.623,0.753H6.43c0.008-0.053,0.016-0.106,0.025-0.158
	c0.074-0.412-0.164-0.817-0.56-0.953l-0.544-0.188l0.391-0.858l0.521,0.293c0.373,0.209,0.843,0.111,1.099-0.231
	c0.329-0.44,0.73-0.816,1.19-1.118c0.366-0.239,0.49-0.717,0.288-1.105l-0.262-0.503l0.859-0.325l0.152,0.554
	c0.114,0.412,0.515,0.679,0.94,0.617c0.549-0.077,1.101-0.061,1.643,0.05c0.413,0.084,0.825-0.146,0.969-0.541l0.22-0.6l0.878,0.401
	l-0.3,0.539c-0.207,0.372-0.108,0.839,0.233,1.095c0.44,0.331,0.817,0.731,1.117,1.19c0.234,0.357,0.697,0.485,1.083,0.3l0.516-0.25
	l0.335,0.885L16.668,31.962z M38.298,32.715H19.122c0.086-0.202,0.101-0.427,0.023-0.634l-0.996-2.63
	c-0.084-0.223-0.259-0.401-0.481-0.489c-0.221-0.09-0.471-0.08-0.686,0.024l-0.721,0.349c-0.155-0.185-0.321-0.362-0.497-0.529
	l0.408-0.734c0.116-0.207,0.139-0.454,0.065-0.679c-0.074-0.226-0.239-0.411-0.455-0.509L13.23,25.72
	c-0.216-0.099-0.464-0.105-0.682-0.012c-0.219,0.091-0.39,0.27-0.471,0.493l-0.299,0.815c-0.245-0.022-0.491-0.03-0.736-0.023
	l-0.213-0.776c-0.064-0.23-0.221-0.424-0.435-0.533c-0.214-0.108-0.463-0.121-0.687-0.037l-2.63,0.996
	c-0.228,0.086-0.408,0.266-0.494,0.494c-0.086,0.227-0.071,0.48,0.041,0.696l0.372,0.711c-0.179,0.15-0.349,0.311-0.509,0.48
	L5.771,28.62c-0.208-0.116-0.455-0.141-0.681-0.068c-0.227,0.074-0.412,0.239-0.511,0.456l-1.166,2.553
	c-0.1,0.218-0.103,0.468-0.008,0.688c0.093,0.219,0.274,0.386,0.498,0.465H1.702V7.285h19.176c-0.086,0.202-0.101,0.427-0.023,0.633
	l0.996,2.63c0.085,0.224,0.259,0.401,0.481,0.49c0.223,0.089,0.473,0.079,0.686-0.025l0.721-0.349
	c0.155,0.185,0.322,0.362,0.497,0.529l-0.409,0.734c-0.116,0.207-0.139,0.454-0.065,0.679c0.074,0.226,0.239,0.41,0.455,0.509
	l2.553,1.166c0.215,0.098,0.462,0.102,0.682,0.011c0.219-0.091,0.389-0.27,0.471-0.493l0.298-0.813
	c0.244,0.023,0.487,0.032,0.737,0.027l0.214,0.772c0.064,0.23,0.221,0.423,0.435,0.531c0.121,0.062,0.253,0.093,0.386,0.093
	c0.101,0,0.203-0.018,0.299-0.054l2.63-0.987c0.229-0.086,0.409-0.265,0.495-0.493c0.087-0.227,0.072-0.482-0.04-0.698l-0.371-0.71
	c0.18-0.152,0.352-0.314,0.514-0.485l0.687,0.395c0.206,0.12,0.456,0.146,0.684,0.073c0.228-0.073,0.415-0.239,0.514-0.457
	L36.57,8.44c0.099-0.217,0.102-0.465,0.009-0.685c-0.093-0.218-0.273-0.387-0.495-0.468h2.214V32.715z M9.225,16.757
	c-1.788,0-3.243,1.454-3.243,3.243c0,1.788,1.454,3.242,3.243,3.242s3.243-1.454,3.243-3.242S11.014,16.757,9.225,16.757z
	 M9.225,21.54c-0.849,0-1.54-0.691-1.54-1.54s0.691-1.54,1.54-1.54s1.54,0.691,1.54,1.54S10.075,21.54,9.225,21.54z M20.708,17.136
	c-0.316-0.473-1.1-0.473-1.416,0L16.1,21.919c-0.174,0.261-0.19,0.597-0.042,0.874c0.148,0.277,0.437,0.45,0.75,0.45h6.383
	c0.314,0,0.603-0.173,0.75-0.45s0.131-0.613-0.042-0.874L20.708,17.136z M18.4,21.54l1.6-2.398l1.601,2.398H18.4z"/>
</svg>
