<?xml version="1.0" encoding="utf-8"?>
<!-- Generator: Adobe Illustrator 23.0.1, SVG Export Plug-In . SVG Version: 6.00 Build 0)  -->
<svg version="1.1" id="Layer_1" xmlns="http://www.w3.org/2000/svg" xmlns:xlink="http://www.w3.org/1999/xlink" x="0px" y="0px"
	 viewBox="0 0 40 40" style="enable-background:new 0 0 40 40;" xml:space="preserve">
<style type="text/css">
	.st0{fill:#231F20;}
</style>
<path class="st0" d="M40,11.307V9.486h-3.887V6.755c0-1.571-1.278-2.85-2.849-2.85h-2.75V0h-1.821v3.905h-2.986V0h-1.821v3.905
	H20.91V0h-1.82v3.905h-2.977V0h-1.821v3.905h-2.986V0h-1.82v3.905H6.737c-1.571,0-2.85,1.278-2.85,2.85v2.731H0v1.821h3.887v2.986H0
	v1.821h3.887v2.977H0v1.821h3.887v2.976H0v1.821h3.887v2.986H0v1.821h3.887v2.75c0,1.571,1.278,2.849,2.85,2.849h2.749V40h1.821
	v-3.887h2.986V40h1.821v-3.887h2.977V40h1.821v-3.887h2.976V40h1.821v-3.887h2.986V40h1.821v-3.887h2.75
	c1.571,0,2.849-1.278,2.849-2.849v-2.75H40v-1.821h-3.887v-2.986H40v-1.821h-3.887V20.91H40v-1.82h-3.887v-2.977H40v-1.821h-3.887
	v-2.986L40,11.307L40,11.307z M34.293,33.264c0,0.567-0.461,1.029-1.029,1.029H6.737c-0.567,0-1.029-0.461-1.029-1.029V6.755
	c0-0.567,0.462-1.029,1.029-1.029h26.527c0.567,0,1.029,0.462,1.029,1.029V33.264z M20.597,8.115c-0.343-0.296-0.85-0.296-1.193,0
	L7.406,18.511c-0.2,0.173-0.314,0.424-0.314,0.688v0.756c0,0.501,0.405,0.909,0.907,0.91l1.488,0.005v9.535
	c0,0.503,0.408,0.91,0.91,0.91h10.405c0.503,0,0.91-0.407,0.91-0.91v-7.092h2.977v7.092c0,0.503,0.407,0.91,0.91,0.91h4.005
	c0.503,0,0.91-0.407,0.91-0.91v-9.5l1.48,0.005h0.004c0.241,0,0.472-0.095,0.643-0.266c0.172-0.171,0.268-0.403,0.268-0.645v-0.801
	c0-0.264-0.115-0.515-0.314-0.688L20.597,8.115z M29.608,19.081h-0.004c-0.241,0-0.472,0.096-0.643,0.265
	c-0.172,0.171-0.268,0.403-0.268,0.645v9.503h-2.184v-7.092c0-0.503-0.407-0.91-0.91-0.91h-4.798c-0.503,0-0.91,0.407-0.91,0.91
	v7.092h-8.584v-9.531c0-0.501-0.405-0.909-0.907-0.91L9.564,19.05L20,10.008l10.475,9.076L29.608,19.081z M16.805,21.493h-3.204
	c-0.503,0-0.91,0.407-0.91,0.91v3.205c0,0.503,0.408,0.91,0.91,0.91h3.204c0.503,0,0.91-0.407,0.91-0.91v-3.205
	C17.715,21.9,17.308,21.493,16.805,21.493z M15.895,24.698h-1.384v-1.384h1.384V24.698z"/>
</svg>
