<?xml version="1.0" encoding="utf-8"?>
<!-- Generator: Adobe Illustrator 23.0.1, SVG Export Plug-In . SVG Version: 6.00 Build 0)  -->
<svg version="1.1" id="Layer_1" xmlns="http://www.w3.org/2000/svg" xmlns:xlink="http://www.w3.org/1999/xlink" x="0px" y="0px"
	 viewBox="0 0 40 40" style="enable-background:new 0 0 40 40;" xml:space="preserve">
<style type="text/css">
	.st0{fill:#231F20;}
</style>
<g>
	<path class="st0" d="M34.51,0H5.49C2.463,0,0,2.463,0,5.49v29.02C0,37.537,2.463,40,5.49,40h29.02c3.027,0,5.49-2.463,5.49-5.49
		V5.49C40,2.463,37.537,0,34.51,0z M38.298,34.51c0,2.089-1.699,3.787-3.787,3.787H5.49c-2.088,0-3.787-1.699-3.787-3.787V5.49
		c0-2.088,1.699-3.787,3.787-3.787h29.02c2.089,0,3.787,1.699,3.787,3.787v29.02H38.298z"/>
	<path class="st0" d="M19.694,6.383L19.694,6.383C12.185,6.385,6.079,12.496,6.081,20.004c0.002,5.476,3.261,10.395,8.302,12.532
		c1.715,0.726,3.52,1.087,5.319,1.087c2.258,0,4.508-0.568,6.556-1.695c6.577-3.621,8.982-11.918,5.361-18.496
		C29.225,9.085,24.655,6.384,19.694,6.383z M16.638,27.207c-3.99-1.686-5.866-6.302-4.181-10.293
		c0.816-1.933,2.337-3.432,4.281-4.222c0.955-0.388,1.956-0.582,2.957-0.582c1.036,0,2.072,0.208,3.056,0.623
		c2.926,1.235,4.81,4.086,4.799,7.265c0,4.993-3.727,9.663-9.004,11.462v-1.418C18.536,28.797,17.785,27.683,16.638,27.207z
		 M25.436,30.437c-1.045,0.575-2.152,0.965-3.283,1.206c4.28-2.565,7.098-6.971,7.098-11.641c0.012-3.864-2.279-7.333-5.839-8.836
		c-4.852-2.049-10.472,0.23-12.523,5.086c-2.05,4.855,0.232,10.472,5.092,12.525c0.519,0.215,0.858,0.717,0.862,1.273v1.5
		c-0.606-0.151-1.208-0.333-1.796-0.582c-4.411-1.87-7.262-6.174-7.264-10.965c-0.002-6.57,5.341-11.916,11.911-11.919
		c4.342,0.001,8.339,2.365,10.433,6.168C33.295,20.009,31.191,27.269,25.436,30.437z"/>
</g>
</svg>
