<?xml version="1.0" encoding="utf-8"?>
<!-- Generator: Adobe Illustrator 23.0.1, SVG Export Plug-In . SVG Version: 6.00 Build 0)  -->
<svg version="1.1" id="Layer_1" xmlns="http://www.w3.org/2000/svg" xmlns:xlink="http://www.w3.org/1999/xlink" x="0px" y="0px"
	 viewBox="0 0 40 40" style="enable-background:new 0 0 40 40;" xml:space="preserve">
<style type="text/css">
	.st0{fill:#231F20;}
</style>
<path class="st0" d="M40,11.307V9.486h-3.887V6.755c0-1.571-1.278-2.85-2.849-2.85h-2.75V0h-1.821v3.905h-2.986V0h-1.821v3.905
	H20.91V0h-1.82v3.905h-2.977V0h-1.821v3.905h-2.986V0h-1.82v3.905H6.737c-1.571,0-2.85,1.278-2.85,2.85v2.731H0v1.821h3.887v2.986H0
	v1.821h3.887v2.977H0v1.821h3.887v2.976H0v1.821h3.887v2.986H0v1.821h3.887v2.75c0,1.571,1.278,2.849,2.85,2.849h2.749V40h1.821
	v-3.887h2.986V40h1.821v-3.887h2.977V40h1.821v-3.887h2.976V40h1.821v-3.887h2.986V40h1.821v-3.887h2.75
	c1.571,0,2.849-1.278,2.849-2.849v-2.75H40v-1.821h-3.887v-2.986H40v-1.821h-3.887V20.91H40v-1.82h-3.887v-2.977H40v-1.821h-3.887
	v-2.986L40,11.307L40,11.307z M34.293,33.264c0,0.567-0.461,1.029-1.029,1.029H6.737c-0.567,0-1.029-0.461-1.029-1.029V6.755
	c0-0.567,0.462-1.029,1.029-1.029h26.527c0.567,0,1.029,0.462,1.029,1.029V33.264z M30.515,12.718c-0.001,0-0.001,0-0.002,0h-4.31
	l-0.26-1.258c-0.155-0.749-0.813-1.937-1.92-1.937H18.27c-1.073,0-1.739,1.177-1.91,1.933l-0.266,1.262h-1.595l-0.024-0.537
	c0-1.062-0.696-1.894-1.584-1.894H11.07c-0.888,0-1.584,0.832-1.584,1.894v0.537H9.468c-1.32,0-2.395,1.074-2.395,2.394v13
	c0,1.317,1.072,2.396,2.395,2.403H30.52c1.317-0.007,2.389-1.085,2.389-2.403V15.053C32.876,13.765,31.803,12.718,30.515,12.718z
	 M11.307,12.181c0-0.027,0.002-0.052,0.005-0.073h1.335c0.004,0.03,0.008,0.068,0.008,0.113l0.022,0.497h-1.37
	C11.307,12.718,11.307,12.181,11.307,12.181z M31.088,28.111c0,0.319-0.26,0.581-0.573,0.582H9.473
	c-0.319-0.002-0.579-0.263-0.579-0.582v-13c0-0.316,0.257-0.573,0.574-0.573h7.364c0.43,0,0.802-0.301,0.891-0.722l0.416-1.971
	c0.042-0.186,0.168-0.405,0.255-0.501h5.518c0.087,0.092,0.213,0.308,0.25,0.484l0.41,1.985c0.087,0.423,0.46,0.726,0.892,0.726
	h5.052c0,0,0,0,0.001,0c0.308,0,0.565,0.251,0.573,0.537v13.035H31.088z M21.074,13.874c-4.005,0-7.264,3.259-7.264,7.264
	s3.259,7.265,7.264,7.265c4.006,0,7.265-3.259,7.265-7.265S25.08,13.874,21.074,13.874z M21.074,26.582
	c-3.001,0-5.443-2.442-5.443-5.444s2.442-5.444,5.443-5.444c3.002,0,5.444,2.442,5.444,5.444S24.076,26.582,21.074,26.582z
	 M21.074,16.422c-2.6,0-4.715,2.115-4.715,4.716s2.115,4.715,4.715,4.715s4.716-2.115,4.716-4.715S23.674,16.422,21.074,16.422z
	 M21.074,24.033c-1.596,0-2.895-1.299-2.895-2.895s1.298-2.895,2.895-2.895s2.895,1.299,2.895,2.895
	C23.97,22.734,22.671,24.033,21.074,24.033z M13.1,16.004h-2.203c-0.263-0.01-0.486,0.192-0.501,0.455v0.683
	c0.015,0.263,0.238,0.466,0.501,0.455H13.1c0.263,0.01,0.486-0.192,0.501-0.455v-0.683C13.586,16.196,13.363,15.994,13.1,16.004z"/>
</svg>
