<?xml version="1.0" encoding="utf-8"?>
<!-- Generator: Adobe Illustrator 23.0.1, SVG Export Plug-In . SVG Version: 6.00 Build 0)  -->
<svg version="1.1" id="Layer_1" xmlns="http://www.w3.org/2000/svg" xmlns:xlink="http://www.w3.org/1999/xlink" x="0px" y="0px"
	 viewBox="0 0 40 40" style="enable-background:new 0 0 40 40;" xml:space="preserve">
<style type="text/css">
	.st0{fill:#231F20;}
</style>
<path class="st0" d="M26.43,20.187v-5.77c0-0.47-0.381-0.851-0.851-0.851H14.413c-0.47,0-0.851,0.381-0.851,0.851v5.77h1.702v-3.92
	l4.18,3.581c0.159,0.135,0.355,0.204,0.552,0.204c0.196,0,0.393-0.068,0.552-0.204l4.18-3.581v3.92H26.43z M19.996,18.082
	l-3.282-2.814h6.565L19.996,18.082z M30.355,19.461c-0.258-0.908-1.205-1.632-2.899-2.215l-0.554,1.609
	c1.016,0.35,1.51,0.691,1.708,0.909c-0.245,0.643-3.241,1.993-8.615,1.993c-5.451,0-8.454-1.388-8.622-2.02
	c0.213-0.218,0.705-0.545,1.682-0.882l-0.554-1.609c-1.693,0.583-2.642,1.307-2.899,2.215c-0.01,0.036-0.018,0.072-0.023,0.108
	c-0.021,0.14-0.024,0.282-0.009,0.422v16.306C9.57,38.841,14.957,40,19.962,40c5.022,0,10.426-1.159,10.426-3.702V19.99
	c0.014-0.138,0.011-0.278-0.008-0.416C30.373,19.536,30.366,19.498,30.355,19.461z M28.685,36.298c0,0.58-3.057,2-8.723,2
	c-5.645,0-8.689-1.42-8.689-2V21.83c1.963,1.106,5.422,1.629,8.723,1.629c3.282,0,6.72-0.517,8.689-1.611V36.298z M27.979,0
	c-2.229,0-4.043,1.813-4.043,4.043c0,0.753,0.22,1.45,0.58,2.054l-4.52,2.846l-4.732-2.979V0.851c0-0.47-0.381-0.851-0.851-0.851
	H8.83C8.36,0,7.979,0.381,7.979,0.851v5.583c0,0.47,0.381,0.851,0.851,0.851h5.338l4.977,3.134v2.398h1.702v-2.398l4.844-3.049
	c0.651,0.45,1.439,0.716,2.288,0.716c2.229,0,4.043-1.813,4.043-4.043S30.208,0,27.979,0z M13.562,5.583H9.681V1.702h3.881V5.583z
	 M27.979,6.383c-1.291,0-2.34-1.05-2.34-2.34s1.05-2.34,2.34-2.34c1.291,0,2.34,1.05,2.34,2.34S29.269,6.383,27.979,6.383z"/>
</svg>
