<?xml version="1.0" encoding="utf-8"?>
<!-- Generator: Adobe Illustrator 23.0.1, SVG Export Plug-In . SVG Version: 6.00 Build 0)  -->
<svg version="1.1" id="Layer_1" xmlns="http://www.w3.org/2000/svg" xmlns:xlink="http://www.w3.org/1999/xlink" x="0px" y="0px"
	 viewBox="0 0 40 40" style="enable-background:new 0 0 40 40;" xml:space="preserve">
<style type="text/css">
	.st0{fill:#231F20;}
</style>
<path class="st0" d="M39.724,17.781L20.575,0.224c-0.326-0.298-0.825-0.298-1.15,0L0.276,17.781C0.1,17.942,0,18.17,0,18.409v1.575
	c0,0.468,0.379,0.849,0.847,0.851l3.144,0.014V39.15c0,0.47,0.381,0.851,0.851,0.851h30.315c0.47,0,0.851-0.381,0.851-0.851V20.838
	l3.137,0.013h0.003c0.225,0,0.441-0.089,0.601-0.248C39.91,20.443,40,20.226,40,20v-1.592C40,18.17,39.9,17.942,39.724,17.781z
	 M38.298,19.145l-3.137-0.013c-0.227-0.023-0.444,0.089-0.604,0.248c-0.16,0.16-0.25,0.376-0.25,0.603v18.315H5.694V20
	c0-0.469-0.379-0.849-0.847-0.851l-3.144-0.013v-0.353L20,2.006l18.298,16.777V19.145z M8.085,23.226
	c0,6.57,5.345,11.915,11.915,11.915s11.915-5.345,11.915-11.915S26.57,11.311,20,11.311S8.085,16.656,8.085,23.226z M19.149,32.951
	v-1.048c-0.015-1.118-0.691-2.12-1.72-2.551c-3.394-1.433-4.99-5.359-3.558-8.752c0.694-1.644,1.986-2.92,3.639-3.592
	c0.813-0.331,1.665-0.496,2.517-0.496c0.881,0,1.761,0.177,2.596,0.529c2.483,1.047,4.086,3.464,4.084,6.154
	C26.684,27.42,23.565,31.374,19.149,32.951z M30.213,23.226c0,4.703-3.199,8.662-7.533,9.844c3.453-2.273,5.708-5.963,5.728-9.869
	c0.002-3.381-2.01-6.414-5.125-7.728c-2.063-0.871-4.34-0.886-6.416-0.042c-2.074,0.844-3.696,2.444-4.566,4.508
	c-1.797,4.259,0.207,9.185,4.467,10.983c0.406,0.17,0.672,0.564,0.678,0.993v1.187c-4.397-1.138-7.66-5.128-7.66-9.877
	c0-5.631,4.582-10.213,10.213-10.213C25.632,13.013,30.213,17.594,30.213,23.226z"/>
</svg>
