<?xml version="1.0" encoding="utf-8"?>
<!-- Generator: Adobe Illustrator 23.0.1, SVG Export Plug-In . SVG Version: 6.00 Build 0)  -->
<svg version="1.1" id="Layer_1" xmlns="http://www.w3.org/2000/svg" xmlns:xlink="http://www.w3.org/1999/xlink" x="0px" y="0px"
	 viewBox="0 0 40 40" style="enable-background:new 0 0 40 40;" xml:space="preserve">
<style type="text/css">
	.st0{fill:#231F20;}
</style>
<path class="st0" d="M15.16,4.585c0.861,0,1.559-0.34,1.559-0.758c0-0.419-0.698-0.758-1.559-0.758s-1.559,0.34-1.559,0.758
	C13.6,4.245,14.299,4.585,15.16,4.585z M30.409,20.106c0.002-0.036,0.013-0.069,0.013-0.105h-0.013l-0.005-3.485
	c0.004-0.049,0.018-0.095,0.018-0.144h-0.018L30.388,4.823c0-0.888-0.341-1.678-1.015-2.348C26.92,0.034,20.654,0.002,19.932,0
	C9.86,0,9.569,4.009,9.569,4.465V35.91c0,0.176,0.055,0.348,0.156,0.492C10.323,37.246,12.827,40,19.992,40
	c5.661,0,8.971-1.798,10.216-3.515c0.143-0.157,0.223-0.363,0.223-0.576L30.409,20.106z M19.936,1.704
	c1.709-0.01,6.575,0.328,8.235,1.979c0.209,0.208,0.344,0.424,0.424,0.654C28.391,4.962,25.728,6.366,20,6.366
	c-5.99,0-8.649-1.537-8.649-2.122h-0.024C11.629,3.466,13.46,1.704,19.936,1.704z M11.274,6.452C13.211,7.554,16.61,8.07,20,8.07
	c3.372,0,6.753-0.511,8.686-1.604l0.014,9.973c-0.186,0.626-2.881,2.053-8.708,2.053c-6.037,0-8.718-1.537-8.718-2.122V6.452z
	 M11.274,18.616c1.961,1.077,5.344,1.581,8.718,1.581c3.368,0,6.747-0.502,8.711-1.573l0.002,1.427
	c-0.136,0.616-2.827,2.072-8.713,2.072c-5.752,0-8.718-1.487-8.718-2.122V18.616z M19.992,38.296c-4.794,0-7.64-1.398-8.718-2.676
	V22.217c1.991,1.092,5.432,1.609,8.718,1.609c3.371,0,6.752-0.503,8.716-1.576l0.018,13.367
	C27.689,36.893,24.858,38.296,19.992,38.296z"/>
</svg>
