<?xml version="1.0" encoding="utf-8"?>
<!-- Generator: Adobe Illustrator 23.0.1, SVG Export Plug-In . SVG Version: 6.00 Build 0)  -->
<svg version="1.1" id="Layer_1" xmlns="http://www.w3.org/2000/svg" xmlns:xlink="http://www.w3.org/1999/xlink" x="0px" y="0px"
	 viewBox="0 0 40 40" style="enable-background:new 0 0 40 40;" xml:space="preserve">
<style type="text/css">
	.st0{fill:#231F20;}
</style>
<path class="st0" d="M34.51,0H5.49C2.463,0,0,2.463,0,5.49v29.02C0,37.537,2.463,40,5.49,40h29.02c3.027,0,5.49-2.463,5.49-5.49
	V5.49C40,2.463,37.537,0,34.51,0z M38.298,34.51c0,2.089-1.699,3.787-3.787,3.787H5.49c-2.088,0-3.787-1.699-3.787-3.787V5.49
	c0-2.088,1.699-3.787,3.787-3.787h29.02c2.089,0,3.787,1.699,3.787,3.787v29.02H38.298z M20,6.383L20,6.383
	C12.491,6.39,6.388,12.505,6.396,20.014c0.006,5.472,3.265,10.387,8.299,12.521c1.677,0.718,3.451,1.082,5.272,1.082H20
	c7.508,0,13.617-6.109,13.617-13.617S27.508,6.383,20,6.383z M18.851,31.462v-1.43c-0.027-1.239-0.787-2.34-1.922-2.798
	c-1.931-0.821-3.428-2.344-4.213-4.29s-0.766-4.08,0.054-6.011c1.269-2.987,4.182-4.784,7.241-4.784
	c1.022,0,2.061,0.201,3.061,0.625c2.905,1.234,4.782,4.071,4.784,7.226C27.856,24.993,24.129,29.663,18.851,31.462z M22.42,31.667
	c4.303-2.562,7.138-6.98,7.138-11.667c-0.002-3.84-2.286-7.291-5.821-8.792c-2.349-0.997-4.947-1.021-7.314-0.066
	c-2.367,0.956-4.221,2.776-5.219,5.125s-1.021,4.948-0.066,7.315c0.956,2.367,2.776,4.221,5.139,5.224
	c0.518,0.209,0.86,0.706,0.872,1.245v1.511c-0.605-0.153-1.201-0.342-1.787-0.593c-4.407-1.868-7.259-6.169-7.264-10.957
	c-0.007-6.57,5.333-11.921,11.903-11.927C26.57,8.086,31.915,13.43,31.915,20C31.915,25.741,27.834,30.545,22.42,31.667z"/>
</svg>
