<?xml version="1.0" encoding="utf-8"?>
<!-- Generator: Adobe Illustrator 23.0.1, SVG Export Plug-In . SVG Version: 6.00 Build 0)  -->
<svg version="1.1" id="Layer_1" xmlns="http://www.w3.org/2000/svg" xmlns:xlink="http://www.w3.org/1999/xlink" x="0px" y="0px"
	 viewBox="0 0 40 40" style="enable-background:new 0 0 40 40;" xml:space="preserve">
<style type="text/css">
	.st0{fill:#231F20;}
</style>
<g>
	<path class="st0" d="M36.129,29.792c-0.603,0-1.168,0.15-1.677,0.397l-2.293-3.25c1.442-1.085,2.368-2.809,2.368-4.75v-0.095
		c0-2.831-1.972-5.278-4.717-5.893c-0.115-1.119-0.701-2.082-1.538-2.727l2.386-4.422c0.326,0.081,0.661,0.136,1.01,0.136
		c2.318,0,4.197-1.879,4.197-4.197s-1.879-4.197-4.197-4.197c-2.318,0-4.197,1.879-4.197,4.197c0,1.218,0.528,2.306,1.358,3.073
		l-2.495,4.624c-0.151-0.017-0.299-0.043-0.454-0.043c-0.607,0-1.213,0.149-1.77,0.431c-1.257-2.705-3.958-4.437-6.958-4.437
		c-2.136,0-4.057,0.865-5.445,2.265l-2.49-2.983c0.658-0.8,1.07-1.811,1.07-2.929c0-2.56-2.076-4.637-4.637-4.637
		c-2.56,0-4.637,2.076-4.637,4.637c0,2.56,2.076,4.637,4.637,4.637c0.689,0,1.337-0.16,1.926-0.43l2.855,3.421
		c-0.533,0.977-0.866,2.082-0.931,3.268c-2.556,1.035-4.176,3.646-3.956,6.411c0.158,1.972,1.265,3.681,2.863,4.733l-2.645,2.645
		c-0.561-0.317-1.2-0.512-1.89-0.512C1.734,29.163,0,30.897,0,33.036c0,2.138,1.734,3.872,3.872,3.872s3.872-1.734,3.872-3.872
		c0-0.69-0.195-1.329-0.512-1.892l3.217-3.217c0.523,0.131,1.07,0.208,1.632,0.208h7.6l-1.034,3.805
		c-1.953,0.198-3.484,1.828-3.484,3.833c0,2.138,1.734,3.872,3.872,3.872s3.872-1.734,3.872-3.872c0-1.538-0.904-2.856-2.204-3.481
		l1.13-4.158h6.99l0.259-0.013v-0.016c0.413-0.034,0.809-0.117,1.192-0.231l2.602,3.69c-0.392,0.606-0.624,1.323-0.624,2.097
		c0,2.138,1.734,3.872,3.872,3.872c2.138,0,3.872-1.734,3.872-3.872C40.001,31.526,38.267,29.792,36.129,29.792z M31.669,2.874
		c1.168,0,2.118,0.951,2.118,2.119s-0.95,2.119-2.118,2.119s-2.118-0.95-2.118-2.119S30.501,2.874,31.669,2.874z M3.093,4.992
		c0-1.41,1.147-2.558,2.558-2.558s2.558,1.148,2.558,2.558S7.061,7.55,5.651,7.55S3.093,6.402,3.093,4.992z M3.872,34.83
		c-0.99,0-1.794-0.805-1.794-1.794c0-0.99,0.805-1.794,1.794-1.794s1.794,0.805,1.794,1.794C5.667,34.025,4.861,34.83,3.872,34.83z
		 M19.037,37.568c-0.99,0-1.794-0.805-1.794-1.794c0-0.99,0.805-1.794,1.794-1.794s1.794,0.805,1.794,1.794
		C20.831,36.764,20.026,37.568,19.037,37.568z M28.58,26.113H11.882c-1.211,0-2.377-0.514-3.198-1.411
		c-0.832-0.909-1.229-2.088-1.12-3.319c0.145-1.642,1.303-3.101,2.981-3.728c0.566-0.212,0.943-0.738,0.963-1.341
		c0.09-2.78,2.05-5.12,4.66-5.566c0.329-0.056,0.656-0.083,0.979-0.083c2.256,0,4.317,1.33,5.213,3.461l0.126,0.298
		c0.167,0.397,0.496,0.701,0.905,0.834c0.408,0.133,0.855,0.083,1.223-0.137l0.278-0.166c0.317-0.19,0.648-0.286,0.988-0.286
		c1.025,0,1.871,0.809,1.926,1.841l0.011,0.219c0.035,0.685,0.531,1.25,1.251,1.387c1.826,0.346,3.23,1.805,3.412,3.548
		c0.007,0.07,0.023,0.525,0.023,0.525C32.505,24.352,30.745,26.113,28.58,26.113z M36.129,35.458c-0.99,0-1.794-0.805-1.794-1.794
		c0-0.989,0.805-1.794,1.794-1.794c0.99,0,1.794,0.805,1.794,1.794C37.923,34.654,37.119,35.458,36.129,35.458z"/>
</g>
</svg>
