<?xml version="1.0" encoding="utf-8"?>
<!-- Generator: Adobe Illustrator 23.0.1, SVG Export Plug-In . SVG Version: 6.00 Build 0)  -->
<svg version="1.1" id="Layer_1" xmlns="http://www.w3.org/2000/svg" xmlns:xlink="http://www.w3.org/1999/xlink" x="0px" y="0px"
	 viewBox="0 0 40 40" style="enable-background:new 0 0 40 40;" xml:space="preserve">
<style type="text/css">
	.st0{fill:#231F20;}
</style>
<g>
	<path class="st0" d="M35.209,15.808c-0.398,0-0.778,0.063-1.147,0.154l0,0c-0.579-1.535-1.384-2.952-2.343-4.247
		c0.35,0.081,0.711,0.135,1.085,0.135c2.646,0,4.79-2.144,4.79-4.79c0-2.646-2.144-4.79-4.79-4.79s-4.79,2.144-4.79,4.79
		c0,0.363,0.048,0.714,0.125,1.055c-1.272-0.955-2.665-1.76-4.174-2.346c0.04-0.248,0.077-0.497,0.077-0.757
		c0-2.646-2.144-4.79-4.79-4.79c-2.593,0-4.691,2.064-4.774,4.636C6.25,6.337,0,13.517,0,22.171c0,3.071,0.79,5.955,2.173,8.469
		c-0.747,0.845-1.216,1.943-1.216,3.16c0,2.646,2.144,4.79,4.79,4.79c1.187,0,2.261-0.448,3.097-1.163
		c2.582,1.487,5.568,2.35,8.762,2.35c8.633,0,15.801-6.218,17.302-14.417c0.102,0.007,0.199,0.031,0.303,0.031
		c2.646,0,4.79-2.144,4.79-4.79C39.998,17.953,37.854,15.808,35.209,15.808z M32.192,16.906c-1.073,0.879-1.773,2.197-1.773,3.692
		c0,0.337,0.037,0.664,0.103,0.982L9.825,30.95l19.431-18.973C30.515,13.414,31.528,15.072,32.192,16.906L32.192,16.906z
		 M32.804,4.349c1.495,0,2.711,1.216,2.711,2.711S34.298,9.77,32.804,9.77c-1.495,0-2.711-1.216-2.711-2.711
		C30.092,5.565,31.309,4.349,32.804,4.349z M23.21,7.707c1.696,0.659,3.234,1.619,4.58,2.797L8.676,29.165L18.15,9.661
		C18.506,9.745,18.871,9.8,19.253,9.8C20.898,9.801,22.347,8.97,23.21,7.707L23.21,7.707z M19.252,2.301
		c1.495,0,2.711,1.216,2.711,2.711s-1.216,2.711-2.711,2.711s-2.711-1.216-2.711-2.711S17.757,2.301,19.252,2.301z M14.853,6.902
		L14.853,6.902c0.314,0.73,0.817,1.353,1.431,1.842L6.408,29.076C6.19,29.045,5.972,29.01,5.745,29.01
		c-0.665,0-1.298,0.137-1.874,0.382c-1.141-2.16-1.793-4.615-1.793-7.221C2.078,14.549,7.602,8.206,14.853,6.902z M5.745,36.51
		c-1.495,0-2.711-1.216-2.711-2.711c0-1.495,1.216-2.711,2.711-2.711s2.711,1.216,2.711,2.711C8.457,35.294,7.24,36.51,5.745,36.51z
		 M32.895,24.767c-1.242,7.327-7.617,12.929-15.291,12.929c-2.718,0-5.272-0.706-7.497-1.938c0.27-0.599,0.427-1.259,0.427-1.959
		c0-0.291-0.035-0.574-0.086-0.851l20.945-9.482C31.797,24,32.306,24.44,32.895,24.767L32.895,24.767z M35.209,23.309
		c-1.495,0-2.711-1.216-2.711-2.711c0-1.495,1.216-2.711,2.711-2.711c1.495,0,2.711,1.216,2.711,2.711
		C37.92,22.092,36.704,23.309,35.209,23.309z"/>
</g>
</svg>
