<?xml version="1.0" encoding="utf-8"?>
<!-- Generator: Adobe Illustrator 23.0.1, SVG Export Plug-In . SVG Version: 6.00 Build 0)  -->
<svg version="1.1" id="Layer_1" xmlns="http://www.w3.org/2000/svg" xmlns:xlink="http://www.w3.org/1999/xlink" x="0px" y="0px"
	 viewBox="0 0 40 40" style="enable-background:new 0 0 40 40;" xml:space="preserve">
<style type="text/css">
	.st0{fill:#231F20;}
</style>
<g>
	<path class="st0" d="M4.936,5.566c9.358-0.224,13.354-1.916,15.058-3.335c1.702,1.335,5.713,3.1,15.07,3.334v10.133h2.135V3.456
		C22.653,3.456,20.77,0,20.77,0h-1.625c0,0-1.541,3.456-16.342,3.456v12.242h2.135V5.566H4.936z M35.063,27.721
		c0,2.087-1.227,3.993-3.127,4.857l-6.668,3.032v-13.5h3.008c0.487,2.144,2.396,3.748,4.687,3.748c2.66,0,4.815-2.155,4.815-4.815
		s-2.155-4.815-4.815-4.815c-2.291,0-4.2,1.603-4.687,3.748h-5.143v16.605l-2.066,0.939V14.721c2.144-0.487,3.748-2.395,3.748-4.687
		c0-2.66-2.155-4.815-4.815-4.815s-4.815,2.155-4.815,4.815c0,2.291,1.603,4.2,3.748,4.687v22.836l-2.112-0.966h0.01V19.976h-5.108
		c-0.487-2.144-2.396-3.748-4.687-3.748c-2.66,0-4.815,2.155-4.815,4.815s2.155,4.815,4.815,4.815c2.291,0,4.2-1.603,4.687-3.748
		h2.973v13.509l-6.642-3.037c-1.894-0.866-3.118-2.77-3.118-4.853v-0.273H2.801v0.273c0,2.923,1.705,5.578,4.365,6.794L19.143,40
		h1.625l12.05-5.48c2.666-1.213,4.378-3.871,4.378-6.8v-0.263h-2.135v0.264H35.063z M32.964,18.363c1.478,0,2.681,1.202,2.681,2.68
		s-1.202,2.68-2.681,2.68c-1.478,0-2.68-1.202-2.68-2.68C30.283,19.566,31.486,18.363,32.964,18.363z M7.036,23.724
		c-1.478,0-2.68-1.202-2.68-2.68c0-1.478,1.202-2.68,2.68-2.68c1.478,0,2.68,1.202,2.68,2.68
		C9.716,22.522,8.514,23.724,7.036,23.724z M20,12.715c-1.478,0-2.68-1.202-2.68-2.68s1.202-2.68,2.68-2.68
		c1.478,0,2.68,1.202,2.68,2.68C22.68,11.512,21.478,12.715,20,12.715z"/>
</g>
</svg>
