<?xml version="1.0" encoding="utf-8"?>
<!-- Generator: Adobe Illustrator 23.0.1, SVG Export Plug-In . SVG Version: 6.00 Build 0)  -->
<svg version="1.1" id="Layer_1" xmlns="http://www.w3.org/2000/svg" xmlns:xlink="http://www.w3.org/1999/xlink" x="0px" y="0px"
	 viewBox="0 0 40 40" style="enable-background:new 0 0 40 40;" xml:space="preserve">
<style type="text/css">
	.st0{fill:#231F20;}
</style>
<path class="st0" d="M2.276,16.903c0.323,3.589,3.372,6.366,6.952,6.366c0.035,0,0.07,0,0.105-0.001h5.085v-1.695H9.32
	c-2.746,0.079-5.109-2.077-5.352-4.746l-0.001-0.535c-0.123-2.419,1.576-4.593,3.953-5.058c0.435-0.085,0.73-0.49,0.679-0.93
	c-0.037-0.317-0.055-0.64-0.054-0.935c0.093-3.039,1.857-5.737,4.579-7.031c2.948-1.295,6.433-0.607,8.675,1.717
	c0.976,0.993,1.722,2.218,2.155,3.543c0.13,0.396,0.536,0.615,0.939,0.548c0.253-0.041,0.465-0.2,0.591-0.414
	c0.703-0.886,1.808-1.263,2.835-0.956c1.274,0.378,2.108,1.689,2.23,3.508c0,0.412,0.295,0.764,0.701,0.835
	c1.783,0.312,4.774,1.408,4.774,5.234c0,4.734-4.652,5.19-4.78,5.204h-5.679v1.695l5.746-0.002c2.217-0.177,6.408-1.846,6.408-6.897
	c0-4.762-3.675-6.296-5.537-6.767c-0.317-2.256-1.554-3.894-3.38-4.436c-1.299-0.387-2.663-0.127-3.74,0.658
	c-0.516-1.085-1.211-2.084-2.048-2.935c-2.726-2.827-6.975-3.666-10.593-2.076C9.097,2.375,6.963,5.64,6.85,9.339
	c-0.001,0.14,0.002,0.28,0.007,0.421c-2.807,0.898-4.737,3.616-4.585,6.576L2.276,16.903z M17.425,22.602l-1.199,1.199l3.178,3.178
	c0.166,0.166,0.382,0.248,0.599,0.248s0.434-0.083,0.599-0.248l3.178-3.178l-1.199-1.199l-1.732,1.731v-6.352
	c0.452-0.109,0.886-0.295,1.276-0.576c0.786-0.567,1.304-1.405,1.459-2.362c0.32-1.974-1.026-3.841-3-4.162
	c-0.957-0.154-1.916,0.071-2.702,0.638s-1.305,1.405-1.46,2.362c-0.156,0.956,0.071,1.916,0.637,2.702
	c0.512,0.71,1.252,1.186,2.094,1.389v6.36L17.425,22.602z M18.438,15.592c-0.302-0.419-0.423-0.93-0.34-1.439l0,0
	c0.082-0.509,0.359-0.956,0.777-1.258c0.333-0.24,0.724-0.365,1.126-0.365c0.104,0,0.209,0.008,0.314,0.025
	c1.051,0.171,1.768,1.166,1.597,2.217c-0.083,0.509-0.358,0.956-0.777,1.258c-0.419,0.302-0.928,0.425-1.439,0.34
	C19.186,16.287,18.739,16.011,18.438,15.592z M37.481,27.972H2.519c-0.468,0-0.848,0.379-0.848,0.848v10.332
	C1.671,39.62,2.051,40,2.519,40h34.963c0.468,0,0.848-0.379,0.848-0.848V28.82C38.329,28.352,37.95,27.972,37.481,27.972z
	 M36.634,38.305H3.366v-8.637h33.267L36.634,38.305L36.634,38.305z M8.486,36.966c1.673,0,3.034-1.362,3.034-3.034
	s-1.361-3.034-3.034-3.034s-3.034,1.362-3.034,3.034S6.812,36.966,8.486,36.966z M8.486,32.592c0.738,0,1.339,0.601,1.339,1.339
	S9.224,35.27,8.486,35.27s-1.339-0.601-1.339-1.339C7.146,33.193,7.747,32.592,8.486,32.592z M16.826,36.762h6.356
	c0.319,0,0.613-0.18,0.757-0.465c0.144-0.286,0.116-0.627-0.074-0.885l-3.178-4.314c-0.319-0.434-1.045-0.434-1.364,0l-3.178,4.314
	c-0.19,0.257-0.218,0.599-0.074,0.885C16.214,36.582,16.506,36.762,16.826,36.762z M20.004,33.029l1.501,2.038h-3.003L20.004,33.029
	z M29.539,36.822h3.976c0.468,0,0.848-0.379,0.848-0.848v-3.976c0-0.468-0.379-0.848-0.848-0.848h-3.976
	c-0.468,0-0.848,0.379-0.848,0.848v3.976C28.692,36.442,29.071,36.822,29.539,36.822z M30.387,32.846h2.28v2.28h-2.28V32.846z"/>
</svg>
