<?xml version="1.0" encoding="utf-8"?>
<!-- Generator: Adobe Illustrator 23.0.1, SVG Export Plug-In . SVG Version: 6.00 Build 0)  -->
<svg version="1.1" id="Layer_1" xmlns="http://www.w3.org/2000/svg" xmlns:xlink="http://www.w3.org/1999/xlink" x="0px" y="0px"
	 viewBox="0 0 40 40" style="enable-background:new 0 0 40 40;" xml:space="preserve">
<style type="text/css">
	.st0{fill-rule:evenodd;clip-rule:evenodd;fill:#231F20;}
</style>
<path class="st0" d="M39.149,13.563h-3.94V13.35c0-1.201-0.977-2.178-2.178-2.178H0.851C0.381,11.172,0,11.553,0,12.023v15.954
	c0,0.47,0.381,0.851,0.851,0.851h32.181c1.201,0,2.178-0.977,2.178-2.178v-0.213h3.94c0.47,0,0.851-0.381,0.851-0.851V14.414
	C40,13.944,39.62,13.563,39.149,13.563z M33.508,26.65c0,0.263-0.214,0.476-0.476,0.476H1.702V12.874h31.33
	c0.263,0,0.476,0.214,0.476,0.477C33.508,13.351,33.508,26.65,33.508,26.65z M38.298,24.736H35.21v-9.471h3.089L38.298,24.736
	L38.298,24.736z M25.952,18.651c-3.063,1.288-6.352,1.957-9.675,1.966c-4.431,0.001-8.785-1.152-12.636-3.344
	c-0.281-0.187-0.545,0.136-0.281,0.374c3.46,3.12,7.96,4.837,12.619,4.816c3.685,0.009,7.287-1.091,10.338-3.157
	C26.803,18.958,26.386,18.447,25.952,18.651z M24.148,17.486c-0.247,0.17-0.204,0.383,0.068,0.383
	c0.902-0.111,2.91-0.349,3.267,0.102c0.357,0.459-0.4,2.348-0.74,3.182c-0.102,0.255,0.119,0.357,0.349,0.162
	c1.498-1.242,1.855-3.88,1.583-4.254C28.403,16.686,25.748,16.363,24.148,17.486z"/>
</svg>
