<?xml version="1.0" encoding="utf-8"?>
<!-- Generator: Adobe Illustrator 23.0.1, SVG Export Plug-In . SVG Version: 6.00 Build 0)  -->
<svg version="1.1" id="Layer_1" xmlns="http://www.w3.org/2000/svg" xmlns:xlink="http://www.w3.org/1999/xlink" x="0px" y="0px"
	 viewBox="0 0 40 40" style="enable-background:new 0 0 40 40;" xml:space="preserve">
<style type="text/css">
	.st0{fill-rule:evenodd;clip-rule:evenodd;fill:#231F20;}
</style>
<path class="st0" d="M39.149,5.983H0.851C0.381,5.983,0,6.364,0,6.834v21.54c0,0.47,0.381,0.851,0.851,0.851h18.298v3.089h-4.732
	v1.702h11.166v-1.702h-4.732v-3.089h18.298c0.47,0,0.851-0.381,0.851-0.851V6.834C40,6.364,39.619,5.983,39.149,5.983z
	 M38.298,27.523H1.702V7.685h36.596V27.523z M20,21.268c4.367,0.007,8.634-1.301,12.247-3.753c0.519-0.4,0.077-1.013-0.451-0.774
	c-3.624,1.528-7.514,2.324-11.447,2.34c-5.262,0.001-10.433-1.369-15.004-3.974c-0.332-0.221-0.647,0.162-0.332,0.443
	C9.121,19.257,14.466,21.297,20,21.268z M29.745,15.813c1.064-0.128,3.447-0.417,3.872,0.128c0.434,0.545-0.46,2.783-0.868,3.787
	c-0.128,0.298,0.136,0.426,0.409,0.196c1.779-1.489,2.247-4.613,1.881-5.064s-3.481-0.834-5.379,0.502
	C29.37,15.566,29.421,15.813,29.745,15.813z"/>
</svg>
