<?xml version="1.0" encoding="utf-8"?>
<!-- Generator: Adobe Illustrator 23.0.1, SVG Export Plug-In . SVG Version: 6.00 Build 0)  -->
<svg version="1.1" id="Layer_1" xmlns="http://www.w3.org/2000/svg" xmlns:xlink="http://www.w3.org/1999/xlink" x="0px" y="0px"
	 viewBox="0 0 40 40" style="enable-background:new 0 0 40 40;" xml:space="preserve">
<style type="text/css">
	.st0{fill:#231F20;}
</style>
<g>
	<path class="st0" d="M30.406,25.915c3.354,0,6.073-2.719,6.073-6.073c0-3.354-2.719-6.073-6.073-6.073
		c-3.354,0-6.073,2.719-6.073,6.073C24.333,23.197,27.051,25.915,30.406,25.915z M30.406,15.863c2.194,0,3.979,1.785,3.979,3.979
		s-1.785,3.981-3.979,3.981s-3.979-1.785-3.979-3.981C26.425,17.648,28.21,15.863,30.406,15.863z M21.264,21.467
		c1.171,0,2.122-0.95,2.122-2.122c0-1.173-0.95-2.122-2.122-2.122c-1.173,0-2.122,0.95-2.122,2.122
		C19.142,20.518,20.091,21.467,21.264,21.467z M8.984,28.849h22.032c4.962,0,8.984-4.023,8.984-8.984
		c0-4.962-4.023-8.984-8.984-8.984H8.984C4.022,10.881,0,14.904,0,19.865S4.022,28.849,8.984,28.849z M8.984,12.974h22.032
		c3.8,0,6.891,3.091,6.891,6.891s-3.091,6.891-6.891,6.891H8.984c-3.8,0-6.891-3.091-6.891-6.891S5.184,12.974,8.984,12.974z
		 M3.808,3.763h5.961V1.671H1.715v8.037h2.093V3.763z M3.808,30.294H1.715v8.037h8.054v-2.093H3.808V30.294z M36.281,9.706h2.093
		V1.67h-8.018v2.093h5.926V9.706z M36.281,36.237h-5.926v2.093h8.018v-8.037h-2.093V36.237z"/>
</g>
</svg>
