<?xml version="1.0" encoding="utf-8"?>
<!-- Generator: Adobe Illustrator 23.0.1, SVG Export Plug-In . SVG Version: 6.00 Build 0)  -->
<svg version="1.1" id="Layer_1" xmlns="http://www.w3.org/2000/svg" xmlns:xlink="http://www.w3.org/1999/xlink" x="0px" y="0px"
	 viewBox="0 0 40 40" style="enable-background:new 0 0 40 40;" xml:space="preserve">
<style type="text/css">
	.st0{fill:#231F20;}
</style>
<path class="st0" d="M9.212,23.296c0.038,0,0.076,0,0.114-0.001h8.259v-1.698H9.313c-0.029,0.001-0.058,0.001-0.087,0.001
	c-2.726,0-5.039-2.105-5.281-4.754L3.944,16.31c-0.121-2.418,1.578-4.595,3.952-5.067c0.435-0.086,0.73-0.492,0.678-0.932
	C8.536,9.997,8.518,9.678,8.52,9.385c0.094-3.04,1.86-5.739,4.588-7.034c2.949-1.307,6.434-0.623,8.677,1.704
	c0.973,0.988,1.723,2.203,2.17,3.515c0.102,0.301,0.365,0.52,0.68,0.566c0.319,0.046,0.629-0.088,0.814-0.346
	c0.496-0.693,1.301-1.113,2.144-1.122c1.348,0,2.785,1.12,2.953,3.633c0,0.415,0.3,0.769,0.71,0.837
	c1.435,0.24,4.774,1.228,4.774,5.223c0,4.742-4.66,5.206-4.787,5.22h-8.862v1.698l8.931-0.003c2.219-0.181,6.416-1.858,6.416-6.915
	c0-4.014-2.755-6.089-5.545-6.766c-0.443-3.173-2.637-4.626-4.599-4.626c-0.914,0.01-1.795,0.309-2.521,0.833
	c-0.523-1.083-1.224-2.082-2.062-2.933c-2.73-2.833-6.983-3.666-10.6-2.062C9.074,2.386,6.937,5.652,6.823,9.353
	C6.822,9.491,6.824,9.63,6.83,9.769c-2.803,0.906-4.731,3.626-4.582,6.583l0.003,0.568C2.574,20.517,5.627,23.296,9.212,23.296z
	 M37.506,27.955H20.845V17.323l1.734,1.734l1.2-1.2l-3.183-3.183c-0.332-0.332-0.869-0.332-1.2,0l-3.183,3.183l1.2,1.2l1.734-1.734
	v10.632H2.494c-0.469,0-0.849,0.38-0.849,0.849v10.347C1.645,39.62,2.025,40,2.494,40h35.013c0.469,0,0.849-0.38,0.849-0.849V28.804
	C38.355,28.335,37.976,27.955,37.506,27.955z M36.658,38.302H3.342v-8.65h33.315v8.65H36.658z M16.813,36.757h6.366
	c0.32,0,0.613-0.18,0.758-0.466c0.144-0.286,0.116-0.628-0.075-0.886l-3.183-4.32c-0.321-0.434-1.047-0.434-1.366,0l-3.183,4.32
	c-0.19,0.258-0.218,0.6-0.074,0.886C16.2,36.577,16.492,36.757,16.813,36.757z M19.996,33.019L21.5,35.06h-3.007L19.996,33.019z
	 M8.461,36.97c1.652,0,2.996-1.344,2.996-2.997c0-1.652-1.344-2.996-2.996-2.996s-2.997,1.344-2.997,2.996
	C5.464,35.625,6.808,36.97,8.461,36.97z M8.461,32.675c0.716,0,1.298,0.583,1.298,1.298c0,0.716-0.582,1.299-1.298,1.299
	s-1.299-0.583-1.299-1.299C7.162,33.258,7.745,32.675,8.461,32.675z"/>
</svg>
