<?xml version="1.0" encoding="utf-8"?>
<!-- Generator: Adobe Illustrator 23.0.1, SVG Export Plug-In . SVG Version: 6.00 Build 0)  -->
<svg version="1.1" id="Layer_1" xmlns="http://www.w3.org/2000/svg" xmlns:xlink="http://www.w3.org/1999/xlink" x="0px" y="0px"
	 viewBox="0 0 40 40" style="enable-background:new 0 0 40 40;" xml:space="preserve">
<style type="text/css">
	.st0{fill:#231F20;}
</style>
<path class="st0" d="M1.76,31.454c-0.026-0.026-0.058-0.071-0.058-0.14V4.685c0-0.113,0.092-0.204,0.204-0.204h19.43
	c0.112,0,0.204,0.092,0.204,0.204v12.528h1.702V4.685c0-1.051-0.855-1.907-1.906-1.907H1.907C0.855,2.778,0,3.634,0,4.685V31.33
	c0.004,0.507,0.205,0.982,0.567,1.338c0.357,0.352,0.829,0.544,1.323,0.544h17.097V31.51H1.899
	C1.87,31.528,1.787,31.479,1.76,31.454z M5.445,13.022l2.189-2.193l2.189,2.193l1.204-1.203l-2.19-2.194l2.191-2.194L9.823,6.228
	L7.634,8.421L5.445,6.228L4.24,7.431l2.191,2.194L4.24,11.82L5.445,13.022z M9.824,15.011l-2.19,2.19l-2.19-2.19l-1.203,1.203
	l2.19,2.19l-2.19,2.19l1.203,1.203l2.19-2.19l2.19,2.19l1.203-1.203l-2.19-2.19l2.19-2.19L9.824,15.011z M6.09,30.558
	c0.161,0.168,0.383,0.263,0.616,0.263l0,0c0.233,0,0.455-0.096,0.616-0.264l5.319-5.583L11.408,23.8l-4.703,4.936L4.658,26.59
	l-1.232,1.175L6.09,30.558z M29.574,16.37c-5.749,0-10.426,4.677-10.426,10.426s4.677,10.426,10.426,10.426S40,32.545,40,26.796
	S35.323,16.37,29.574,16.37z M29.574,35.519c-4.811,0-8.723-3.913-8.723-8.723s3.913-8.724,8.723-8.724
	c4.807,0,8.718,3.908,8.723,8.715c-0.043-0.082-0.093-0.16-0.163-0.227l-1.285-1.217c-0.158-0.15-0.367-0.233-0.585-0.233h-0.623
	l-0.72-0.637c-0.319-0.281-0.796-0.286-1.117-0.009l-0.757,0.647l-0.742-0.64c-0.322-0.282-0.804-0.281-1.125,0.002l-0.72,0.637
	h-0.286c-0.798-1.454-2.347-2.391-4.022-2.391h-0.051c-2.449,0-4.442,1.993-4.442,4.442c0,2.385,1.89,4.338,4.251,4.438
	c0.075,0.017,0.155,0.022,0.23,0.022c1.684,0,3.235-0.937,4.033-2.392h6.413c0.258,0,0.503-0.117,0.664-0.319l0.962-1.2
	c0.02-0.024,0.026-0.054,0.042-0.08C37.834,32.05,34.103,35.519,29.574,35.519z M36.395,27.257l-0.216,0.27h-6.544
	c-0.352,0-0.667,0.216-0.794,0.544c-0.416,1.071-1.439,1.798-2.578,1.846c-0.052-0.01-0.106-0.015-0.16-0.015
	c-1.511,0-2.74-1.229-2.74-2.74c0-1.522,1.233-2.74,2.782-2.74c1.186,0,2.267,0.739,2.697,1.848
	c0.127,0.327,0.442,0.544,0.794,0.544h1.149c0.208,0,0.408-0.076,0.564-0.214l0.4-0.354l0.407,0.357
	c0.155,0.136,0.355,0.211,0.561,0.211h0.647c0.203,0,0.399-0.072,0.553-0.204l0.433-0.37l0.407,0.361
	c0.156,0.138,0.357,0.214,0.564,0.214h0.606L36.395,27.257z M25.268,26.064c-0.616,0-1.115,0.499-1.115,1.115
	s0.499,1.115,1.115,1.115s1.115-0.499,1.115-1.115S25.884,26.064,25.268,26.064z"/>
</svg>
