<?xml version="1.0" encoding="utf-8"?>
<!-- Generator: Adobe Illustrator 23.0.1, SVG Export Plug-In . SVG Version: 6.00 Build 0)  -->
<svg version="1.1" id="Layer_1" xmlns="http://www.w3.org/2000/svg" xmlns:xlink="http://www.w3.org/1999/xlink" x="0px" y="0px"
	 viewBox="0 0 40 40" style="enable-background:new 0 0 40 40;" xml:space="preserve">
<style type="text/css">
	.st0{fill:#231F20;}
</style>
<path class="st0" d="M22.219,31.029h1.796v4.877h1.277v-4.877h3.634v4.877h1.277v-4.877h1.796v-1.021H22.22v1.021H22.219z
	 M34.595,30.008h-2.256v5.898h1.243v-2.153h1.013c0.613,0,1.098-0.167,1.455-0.502c0.357-0.335,0.536-0.791,0.536-1.371
	c0-0.578-0.179-1.035-0.536-1.37S35.207,30.008,34.595,30.008z M35.101,32.566c-0.15,0.156-0.367,0.234-0.651,0.234h-0.869v-1.838
	h0.869c0.283,0,0.5,0.077,0.651,0.234c0.15,0.156,0.225,0.385,0.225,0.685C35.326,32.181,35.251,32.409,35.101,32.566z
	 M20.605,32.408h-2.349v-2.399H16.98v5.898h1.277v-2.511h2.349v2.511h1.277v-5.898h-1.277L20.605,32.408L20.605,32.408z M34.8,0H5.2
	C2.333,0,0,2.333,0,5.2v29.611c0.002,1.389,0.546,2.694,1.53,3.674C2.512,39.462,3.814,40,5.197,40h6.82v-1.702H5.199
	c-0.932,0-1.808-0.362-2.468-1.02c-0.662-0.659-1.028-1.537-1.029-2.478V5.2c0-1.929,1.569-3.498,3.498-3.498h29.6
	c1.929,0,3.498,1.569,3.498,3.498v19.575H40V5.2C40,2.333,37.667,0,34.8,0z M13.566,40H40V26.331H13.566V40z M15.268,28.034h23.03
	v10.264h-23.03V28.034z"/>
</svg>
