<?xml version="1.0" encoding="utf-8"?>
<!-- Generator: Adobe Illustrator 23.0.1, SVG Export Plug-In . SVG Version: 6.00 Build 0)  -->
<svg version="1.1" id="Layer_1" xmlns="http://www.w3.org/2000/svg" xmlns:xlink="http://www.w3.org/1999/xlink" x="0px" y="0px"
	 viewBox="0 0 40 40" style="enable-background:new 0 0 40 40;" xml:space="preserve">
<style type="text/css">
	.st0{fill:#231F20;}
</style>
<path class="st0" d="M32.112,15.198l-1.921-1.575c-0.151-0.123-0.339-0.191-0.534-0.191h-1.109l-1.157-1.274
	c-0.158-0.175-0.383-0.275-0.619-0.276c-0.241-0.03-0.462,0.096-0.622,0.269l-1.191,1.282H24.69l-1.191-1.282
	c-0.319-0.343-0.917-0.343-1.234,0l-1.191,1.282h-0.725c-0.559-1.354-1.559-2.463-2.867-3.164c-1.496-0.803-3.215-0.974-4.839-0.483
	c-3.354,1.013-5.259,4.565-4.246,7.919c0.804,2.662,3.302,4.517,6.082,4.517h0.033c2.559-0.016,4.863-1.605,5.816-3.943h9.809
	c0.237,0,0.464-0.1,0.624-0.276l1.441-1.584c0.155-0.171,0.234-0.398,0.216-0.628C32.402,15.558,32.291,15.344,32.112,15.198z
	 M29.764,16.591H19.731c-0.374,0-0.704,0.247-0.809,0.607c-0.573,1.964-2.402,3.336-4.449,3.336h-0.005
	c-2.037-0.006-3.867-1.367-4.456-3.319c-0.744-2.464,0.655-5.074,3.12-5.818c0.446-0.135,0.902-0.202,1.355-0.202
	c0.76,0,1.512,0.187,2.2,0.556c1.099,0.59,1.903,1.571,2.263,2.765c0.107,0.355,0.435,0.599,0.807,0.599h1.685
	c0.234,0,0.458-0.098,0.618-0.269l0.823-0.886l0.824,0.886c0.16,0.172,0.383,0.269,0.617,0.269h1.003
	c0.235,0,0.458-0.098,0.617-0.269l0.816-0.878l0.791,0.871c0.16,0.176,0.386,0.276,0.624,0.276h1.182l1.002,0.822L29.764,16.591z
	 M12.787,13.322c-1.394,0-2.528,1.134-2.528,2.528s1.134,2.528,2.528,2.528s2.528-1.134,2.528-2.528S14.181,13.322,12.787,13.322z
	 M12.787,16.692c-0.465,0-0.843-0.378-0.843-0.843s0.378-0.843,0.843-0.843s0.843,0.378,0.843,0.843S13.252,16.692,12.787,16.692z
	 M20,0C11.479,0,4.546,6.932,4.546,15.454S11.479,30.908,20,30.908s15.453-6.933,15.453-15.454S28.522,0,20,0z M20,29.223
	c-7.592,0-13.769-6.177-13.769-13.769S12.408,1.685,20,1.685s13.768,6.177,13.768,13.769C33.769,23.046,27.592,29.223,20,29.223z
	 M25.477,37.554l-4.999-3.44c-0.288-0.197-0.667-0.197-0.955,0l-4.999,3.44v-7.482h-1.685v9.084c0,0.313,0.174,0.6,0.451,0.746
	c0.276,0.146,0.612,0.125,0.87-0.051L20,35.832l5.842,4.02C25.986,39.95,26.152,40,26.32,40c0.134,0,0.269-0.032,0.393-0.097
	c0.276-0.146,0.45-0.433,0.45-0.746v-9.084h-1.685v7.481H25.477z"/>
</svg>
