<?xml version="1.0" encoding="utf-8"?>
<!-- Generator: Adobe Illustrator 23.0.1, SVG Export Plug-In . SVG Version: 6.00 Build 0)  -->
<svg version="1.1" id="Layer_1" xmlns="http://www.w3.org/2000/svg" xmlns:xlink="http://www.w3.org/1999/xlink" x="0px" y="0px"
	 viewBox="0 0 40 40" style="enable-background:new 0 0 40 40;" xml:space="preserve">
<style type="text/css">
	.st0{fill:#231F20;}
</style>
<path class="st0" d="M40,11.254V9.548h-3.951V6.63c0-1.472-1.198-2.671-2.671-2.671h-2.926V0h-1.706v3.959h-3.089V0H23.95v3.959
	h-3.097V0h-1.706v3.959h-3.089V0h-1.706v3.959h-3.097V0H9.548v3.959H6.621c-1.472,0-2.671,1.198-2.671,2.671v2.918H0v1.706h3.95
	v3.097H0v1.706h3.95v3.089H0v1.706h3.95v3.097H0v1.706h3.95v3.089H0v1.706h3.95v2.926c0,1.472,1.198,2.671,2.671,2.671h2.927V40
	h1.706v-3.951h3.097V40h1.706v-3.951h3.089V40h1.706v-3.951h3.097V40h1.706v-3.951h3.089V40h1.706v-3.951h2.926
	c1.472,0,2.671-1.198,2.671-2.671v-2.926H40v-1.706h-3.951v-3.089H40V23.95h-3.951v-3.097H40v-1.706h-3.951v-3.089H40v-1.706h-3.951
	v-3.097H40V11.254z M34.342,33.378c0,0.532-0.432,0.964-0.964,0.964H6.621c-0.532,0-0.964-0.432-0.964-0.964V6.63
	c0-0.532,0.432-0.964,0.964-0.964h26.757c0.532,0,0.964,0.432,0.964,0.964V33.378z M31.48,12.649L20.277,8.792
	c-0.179-0.063-0.375-0.063-0.555,0L8.527,12.649c-0.344,0.118-0.575,0.442-0.575,0.807v2.543c0,0.471,0.382,0.853,0.853,0.853h1.544
	v10.384H9.667c-0.471,0-0.853,0.382-0.853,0.853v2.312c0,0.472,0.382,0.853,0.853,0.853h20.674c0.472,0,0.853-0.382,0.853-0.853
	v-2.312c0-0.472-0.382-0.853-0.853-0.853H29.65V16.851h1.553c0.472,0,0.853-0.382,0.853-0.853v-2.543
	C32.056,13.091,31.825,12.767,31.48,12.649z M30.349,15.145h-1.553c-0.472,0-0.853,0.382-0.853,0.853v12.091
	c0,0.472,0.382,0.853,0.853,0.853h0.692v0.606H10.52v-0.606h0.682c0.471,0,0.853-0.382,0.853-0.853V15.998
	c0-0.471-0.382-0.853-0.853-0.853H9.658v-1.081L20,10.501l10.35,3.563L30.349,15.145L30.349,15.145z M19.466,14.556v1.645
	c-0.816,0.072-1.473,0.363-1.972,0.871c-0.499,0.507-0.748,1.147-0.748,1.917c0,0.58,0.172,1.067,0.517,1.461
	c0.344,0.395,0.897,0.732,1.659,1.013l0.544,0.204v2.625c-0.317-0.027-0.666-0.104-1.047-0.232c-0.381-0.127-0.897-0.34-1.55-0.639
	v1.523c0.743,0.481,1.609,0.757,2.597,0.83v1.659h1.007V25.76c0.842-0.099,1.516-0.401,2.019-0.904
	c0.503-0.503,0.755-1.131,0.755-1.883c0-0.581-0.177-1.066-0.531-1.456c-0.353-0.389-0.942-0.734-1.767-1.033l-0.476-0.177v-2.611
	c0.616,0.082,1.301,0.317,2.053,0.707V16.88c-0.662-0.372-1.347-0.593-2.053-0.666v-1.659L19.466,14.556L19.466,14.556z
	 M19.466,20.021c-0.362-0.145-0.623-0.308-0.782-0.489c-0.159-0.182-0.238-0.403-0.238-0.667c0-0.317,0.09-0.582,0.272-0.796
	c0.181-0.212,0.43-0.342,0.748-0.387C19.466,17.682,19.466,20.021,19.466,20.021z M21.274,22.422
	c0.163,0.177,0.245,0.401,0.245,0.673c0,0.299-0.1,0.562-0.299,0.788s-0.448,0.358-0.747,0.394v-2.325
	C20.844,22.089,21.111,22.245,21.274,22.422z"/>
</svg>
