<?xml version="1.0" encoding="utf-8"?>
<!-- Generator: Adobe Illustrator 23.0.1, SVG Export Plug-In . SVG Version: 6.00 Build 0)  -->
<svg version="1.1" id="Layer_1" xmlns="http://www.w3.org/2000/svg" xmlns:xlink="http://www.w3.org/1999/xlink" x="0px" y="0px"
	 viewBox="0 0 40 40" style="enable-background:new 0 0 40 40;" xml:space="preserve">
<style type="text/css">
	.st0{fill:#231F20;}
</style>
<path class="st0" d="M40,11.254V9.548h-3.951V6.63c0-1.472-1.198-2.671-2.671-2.671h-2.926V0h-1.706v3.959h-3.089V0H23.95v3.959
	h-3.097V0h-1.706v3.959h-3.089V0h-1.706v3.959h-3.097V0H9.548v3.959H6.621c-1.472,0-2.671,1.198-2.671,2.671v2.918H0v1.706h3.95
	v3.097H0v1.706h3.95v3.089H0v1.706h3.95v3.097H0v1.706h3.95v3.089H0v1.706h3.95v2.926c0,1.472,1.198,2.671,2.671,2.671h2.927V40
	h1.706v-3.951h3.097V40h1.706v-3.951h3.089V40h1.706v-3.951h3.097V40h1.706v-3.951h3.089V40h1.706v-3.951h2.926
	c1.472,0,2.671-1.198,2.671-2.671v-2.926H40v-1.706h-3.951v-3.089H40V23.95h-3.951v-3.097H40v-1.706h-3.951v-3.089H40v-1.706h-3.951
	v-3.097H40V11.254z M34.342,33.379c0,0.532-0.432,0.964-0.964,0.964H6.621c-0.532,0-0.964-0.432-0.964-0.964V6.63
	c0-0.532,0.432-0.964,0.964-0.964h26.757c0.532,0,0.964,0.432,0.964,0.964V33.379z M28.805,10.35H11.203
	c-0.471,0-0.853,0.382-0.853,0.853v17.603c0,0.472,0.382,0.853,0.853,0.853h17.603c0.472,0,0.853-0.382,0.853-0.853V11.203
	C29.659,10.732,29.277,10.35,28.805,10.35z M27.952,27.952H12.056V12.056h15.896V27.952z M14.403,22.457h3.148v3.14
	c0,0.472,0.382,0.853,0.853,0.853h3.2c0.472,0,0.853-0.382,0.853-0.853v-3.14h3.14c0.472,0,0.853-0.382,0.853-0.853v-3.2
	c0-0.471-0.382-0.853-0.853-0.853h-3.14v-3.148c0-0.471-0.382-0.853-0.853-0.853h-3.2c-0.471,0-0.853,0.382-0.853,0.853v3.148
	h-3.148c-0.471,0-0.853,0.382-0.853,0.853v3.2C13.549,22.076,13.931,22.457,14.403,22.457z M15.256,19.258h3.148
	c0.471,0,0.853-0.382,0.853-0.853v-3.148h1.493v3.148c0,0.471,0.382,0.853,0.853,0.853h3.14v1.493h-3.14
	c-0.472,0-0.853,0.382-0.853,0.853v3.14h-1.493v-3.14c0-0.472-0.382-0.853-0.853-0.853h-3.148V19.258z"/>
</svg>
