<?xml version="1.0" encoding="utf-8"?>
<!-- Generator: Adobe Illustrator 23.0.1, SVG Export Plug-In . SVG Version: 6.00 Build 0)  -->
<svg version="1.1" id="Layer_1" xmlns="http://www.w3.org/2000/svg" xmlns:xlink="http://www.w3.org/1999/xlink" x="0px" y="0px"
	 viewBox="0 0 40 40" style="enable-background:new 0 0 40 40;" xml:space="preserve">
<style type="text/css">
	.st0{fill:#231F20;}
</style>
<path class="st0" d="M40,11.255V9.548h-3.96V6.515c-0.006-1.404-1.155-2.547-2.56-2.547h-3.029V0h-1.706v3.968h-3.097V0h-1.706
	v3.968h-3.089V0h-1.706v3.968H16.05V0h-1.706v3.968h-3.088V0H9.548v3.968H6.511c-1.412,0-2.56,1.148-2.56,2.56v3.02H0v1.706h3.951
	v3.088H0v1.706h3.951v3.098H0v1.707h3.951v3.088H0v1.706h3.951v3.097H0v1.706h3.951v3.038c0,1.412,1.148,2.56,2.56,2.56h3.038V40
	h1.706v-3.95h3.088V40h1.706v-3.95h3.097V40h1.706v-3.95h3.089V40h1.706v-3.95h3.097V40h1.706v-3.95h3.029
	c1.412,0,2.56-1.148,2.56-2.56v-3.038H40v-1.706h-3.96v-3.097H40v-1.706h-3.96v-3.088H40v-1.707h-3.96V16.05H40v-1.706h-3.96v-3.088
	L40,11.255L40,11.255z M34.334,33.49c0,0.471-0.382,0.853-0.853,0.853H6.511c-0.47,0-0.853-0.382-0.853-0.853V6.528
	c0-0.47,0.383-0.853,0.853-0.853h26.97c0.468,0,0.852,0.38,0.853,0.844V33.49z M20,7.551C13.136,7.551,7.551,13.136,7.551,20
	S13.135,32.448,20,32.448S32.448,26.864,32.448,20S26.864,7.551,20,7.551z M28.063,17.907l2.261-0.844
	c0.266,0.935,0.418,1.918,0.418,2.937c0,5.923-4.819,10.742-10.742,10.742S9.258,25.923,9.258,20c0-1.291,0.241-2.524,0.66-3.672
	l2.194,1.001l0.708-1.552l-2.198-1.002c1.098-1.963,2.796-3.541,4.843-4.499l0.843,2.258l1.599-0.597l-0.844-2.261
	C17.998,9.41,18.981,9.258,20,9.258c1.289,0,2.52,0.24,3.666,0.658l-0.996,2.199l1.555,0.704l0.996-2.199
	c1.966,1.098,3.545,2.798,4.504,4.846l-2.258,0.843L28.063,17.907z M20.853,23.694V13.601h-1.706v0.742h-1.544v1.706h1.544v1.493
	h-1.544v1.706h1.544v1.493h-1.544v1.706h1.544v1.246c-1.153,0.365-1.996,1.432-1.996,2.705c0,1.571,1.278,2.85,2.85,2.85
	c1.571,0,2.85-1.278,2.85-2.85C22.849,25.127,22.006,24.059,20.853,23.694z M20,27.542c-0.631,0-1.143-0.512-1.143-1.143
	s0.512-1.143,1.143-1.143s1.143,0.512,1.143,1.143S20.631,27.542,20,27.542z"/>
</svg>
