<?xml version="1.0" encoding="utf-8"?>
<!-- Generator: Adobe Illustrator 23.0.1, SVG Export Plug-In . SVG Version: 6.00 Build 0)  -->
<svg version="1.1" id="Layer_1" xmlns="http://www.w3.org/2000/svg" xmlns:xlink="http://www.w3.org/1999/xlink" x="0px" y="0px"
	 viewBox="0 0 40 40" style="enable-background:new 0 0 40 40;" xml:space="preserve">
<style type="text/css">
	.st0{fill:#231F20;}
</style>
<g>
	<path class="st0" d="M11.064,23.628c0.953,2.194,2.695,3.961,4.863,4.961v2.923h2.035v-2.265c0.333,0.071,0.669,0.126,1.014,0.161
		v2.103h2.035v-2.104c0.344-0.037,0.681-0.093,1.014-0.163v2.267h2.035v-2.928c2.161-1,3.897-2.765,4.848-4.953
		c1.815-0.127,3.251-1.623,3.251-3.47c0-1.738-1.272-3.169-2.935-3.438c-0.923-2.81-3.091-5.048-5.853-6.075
		C22.985,9.139,21.629,8.02,20,8.02c-1.624,0-2.977,1.113-3.369,2.615c-2.777,1.023-4.958,3.267-5.883,6.089
		c-1.649,0.281-2.906,1.706-2.906,3.435C7.84,21.998,9.263,23.487,11.064,23.628z M15.928,26.28
		c-1.207-0.757-2.192-1.835-2.829-3.119c0.745-0.439,1.304-1.141,1.562-1.983h1.266V26.28z M24.059,26.273v-5.095h1.279
		c0.256,0.834,0.807,1.531,1.541,1.971C26.246,24.433,25.264,25.514,24.059,26.273z M28.665,18.702c0.805,0,1.459,0.655,1.459,1.459
		s-0.655,1.459-1.459,1.459c-0.805,0-1.459-0.655-1.459-1.459C27.206,19.355,27.861,18.702,28.665,18.702z M23.245,12.798
		c1.794,0.843,3.208,2.355,3.921,4.218c-0.874,0.418-1.538,1.186-1.826,2.127h-3.314v8.023c-0.33,0.091-0.667,0.163-1.014,0.21
		V14.845C22.032,14.534,22.855,13.782,23.245,12.798z M20,10.056c0.805,0,1.459,0.655,1.459,1.459S20.805,12.975,20,12.975
		c-0.805,0-1.459-0.655-1.459-1.459S19.195,10.056,20,10.056z M16.753,12.787c0.386,0.984,1.206,1.739,2.223,2.053v12.536
		c-0.346-0.046-0.683-0.118-1.014-0.208v-8.026h-3.302c-0.29-0.949-0.963-1.723-1.849-2.138
		C13.53,15.14,14.952,13.626,16.753,12.787z M11.335,18.702c0.805,0,1.459,0.655,1.459,1.459s-0.655,1.459-1.459,1.459
		s-1.459-0.655-1.459-1.459C9.875,19.355,10.53,18.702,11.335,18.702z M40,9.423V7.32h-3.185V4.261H3.185V7.32H0v2.103h3.185v1.754
		H0v2.103h3.185v1.754H0v2.103h3.185v1.754H0v2.103h3.185v1.754H0v2.103h3.185v1.754H0v2.103h3.185v1.754H0v2.103h3.185v3.174h33.63
		v-3.174H40v-2.103h-3.185v-1.754H40v-2.103h-3.185v-1.754H40v-2.103h-3.185v-1.754H40v-2.103h-3.185v-1.754H40v-2.103h-3.185V13.28
		H40v-2.103h-3.185V9.423H40z M34.712,33.634H5.288V6.365h29.424V33.634z"/>
</g>
</svg>
