<?xml version="1.0" encoding="utf-8"?>
<!-- Generator: Adobe Illustrator 23.0.1, SVG Export Plug-In . SVG Version: 6.00 Build 0)  -->
<svg version="1.1" id="Layer_1" xmlns="http://www.w3.org/2000/svg" xmlns:xlink="http://www.w3.org/1999/xlink" x="0px" y="0px"
	 viewBox="0 0 40 40" style="enable-background:new 0 0 40 40;" xml:space="preserve">
<style type="text/css">
	.st0{fill:#231F20;}
</style>
<g>
	<g>
		<path class="st0" d="M34.633,22.436c-0.944,0-1.831,0.247-2.602,0.678c-0.025-0.003-0.05-0.008-0.077-0.008H21.8
			c-0.026,0-0.051,0.005-0.077,0.008c-0.771-0.43-1.658-0.678-2.602-0.678c-2.959,0-5.365,2.407-5.365,5.365v8.706
			c0,0.033,0.039,3.355,3.423,3.355c2.707,0,4.161-3.642,5.329-6.568c0.209-0.523,0.408-1.023,0.602-1.469h7.535
			c0.193,0.446,0.393,0.945,0.602,1.469c1.168,2.927,2.622,6.568,5.329,6.568c3.384,0,3.423-3.322,3.423-3.355V27.8
			C39.998,24.843,37.591,22.436,34.633,22.436z M21.25,32.793c-0.962,2.413-2.281,5.717-4.072,5.717
			c-1.946,0-2.065-1.671-2.069-2.002v-5.155c0.984,1.11,2.415,1.815,4.011,1.815c0.77,0,1.502-0.166,2.165-0.459
			C21.274,32.734,21.263,32.763,21.25,32.793z M19.121,31.811c-2.211,0-4.011-1.799-4.011-4.011c0-2.211,1.799-4.011,4.011-4.011
			c2.211,0,4.011,1.799,4.011,4.011C23.133,30.012,21.333,31.811,19.121,31.811z M29.987,30.471h-6.221
			c0.455-0.787,0.719-1.698,0.719-2.672c0-1.263-0.441-2.424-1.175-3.342h7.131c-0.734,0.918-1.175,2.078-1.175,3.342
			C29.269,28.773,29.533,29.684,29.987,30.471z M36.575,38.509c-1.791,0-3.109-3.304-4.072-5.717
			c-0.011-0.03-0.023-0.058-0.035-0.087c0.663,0.294,1.394,0.459,2.165,0.459c1.595,0,3.027-0.704,4.011-1.815v5.155l0,0
			C38.643,36.711,38.586,38.509,36.575,38.509z M34.633,31.811c-2.211,0-4.011-1.799-4.011-4.011c0-2.211,1.799-4.011,4.011-4.011
			c2.211,0,4.011,1.799,4.011,4.011C38.643,30.012,36.845,31.811,34.633,31.811z M34.633,26.461c-0.739,0-1.339,0.6-1.339,1.339
			s0.6,1.339,1.339,1.339s1.339-0.6,1.339-1.339S35.373,26.461,34.633,26.461z M19.798,25.791h-1.353v1.333h-1.333v1.354h1.333
			v1.333h1.353v-1.333h1.333v-1.354h-1.333V25.791z M10.475,18.305h12.854c-0.026,0.911-0.098,1.81-0.209,2.698h2.11
			c0.107-0.888,0.182-1.786,0.207-2.698h6.635c-0.064,0.915-0.218,1.803-0.439,2.665c0.729-0.321,1.506-0.523,2.298-0.6
			c0.186-1.013,0.297-2.051,0.297-3.118c0-9.453-7.663-17.114-17.114-17.114C7.662,0.138,0,7.801,0,17.252
			c0,7.542,4.883,13.929,11.656,16.21v-2.256c-1.986-0.779-3.775-1.951-5.246-3.448c1.097-0.48,2.23-0.893,3.397-1.225
			c0.498,1.506,1.123,2.953,1.849,4.341v-3.074c0-0.589,0.075-1.159,0.205-1.709c-0.006-0.016-0.013-0.031-0.017-0.047
			c0.01-0.002,0.021-0.003,0.031-0.006c0.202-0.831,0.539-1.607,0.993-2.304c-0.544,0.082-1.085,0.176-1.618,0.288
			C10.784,22.187,10.531,20.27,10.475,18.305z M10.501,16.202c0.106-2.112,0.456-4.155,1.027-6.11
			c1.808,0.358,3.672,0.555,5.584,0.555c1.773,0,3.505-0.166,5.189-0.474c0.558,1.929,0.898,3.946,1.002,6.029H10.501z
			 M32.071,16.202h-6.657c-0.104-2.241-0.462-4.414-1.051-6.491c1.593-0.415,3.133-0.962,4.607-1.629
			C30.737,10.36,31.858,13.155,32.071,16.202z M27.49,6.432c-1.217,0.514-2.478,0.939-3.777,1.272
			c-0.616-1.687-1.384-3.299-2.288-4.825C23.73,3.573,25.797,4.807,27.49,6.432z M17.112,2.242c0.486,0,0.966,0.027,1.44,0.073
			c1.253,1.803,2.291,3.76,3.079,5.843c-1.47,0.253-2.978,0.387-4.52,0.387c-1.678,0-3.317-0.166-4.909-0.464
			c0.775-2.031,1.787-3.942,3.006-5.705C15.834,2.297,16.466,2.242,17.112,2.242z M5.007,26.094
			c-1.624-2.217-2.651-4.888-2.854-7.79h6.215c0.057,2.141,0.349,4.219,0.851,6.219C7.767,24.94,6.36,25.467,5.007,26.094z
			 M8.392,16.202H2.154c0.213-3.047,1.334-5.841,3.102-8.12C6.61,8.694,8.018,9.205,9.473,9.606
			C8.864,11.716,8.497,13.924,8.392,16.202z M6.733,6.434c1.563-1.501,3.448-2.662,5.542-3.377
			c-0.842,1.445-1.561,2.966-2.147,4.553C8.962,7.293,7.83,6.896,6.733,6.434z"/>
	</g>
</g>
</svg>
