<?xml version="1.0" encoding="utf-8"?>
<!-- Generator: Adobe Illustrator 23.0.1, SVG Export Plug-In . SVG Version: 6.00 Build 0)  -->
<svg version="1.1" id="Layer_1" xmlns="http://www.w3.org/2000/svg" xmlns:xlink="http://www.w3.org/1999/xlink" x="0px" y="0px"
	 viewBox="0 0 40 40" style="enable-background:new 0 0 40 40;" xml:space="preserve">
<style type="text/css">
	.st0{fill:#231F20;}
</style>
<g>
	<path class="st0" d="M0.367,30.874h16.229V0H0.367V30.874z M2.493,2.125h11.978v26.624H2.493V2.125z M3.929,6.693h8.707V4.568
		H3.929V6.693z M3.929,10.853h8.707V8.728H3.929V10.853z M3.929,15.014h8.707v-2.125H3.929V15.014z M39.63,22.683l-0.006-0.502
		l-0.027-0.006c-0.307-3.111-2.499-5.779-5.507-6.679c-0.503-2.47-2.655-4.266-5.225-4.266c-0.578,0-1.145,0.095-1.695,0.285
		c-1.695-3.013-4.913-4.92-8.407-4.92c-0.231,0-0.458,0.016-0.686,0.032v2.127c0.226-0.021,0.454-0.033,0.686-0.033
		c2.933,0,5.616,1.723,6.837,4.39c0.15,0.327,0.429,0.582,0.766,0.696c0.338,0.113,0.715,0.086,1.031-0.081
		c0.47-0.246,0.963-0.37,1.467-0.37c1.665,0,3.039,1.256,3.195,2.921c0.054,0.574,0.467,1.038,1.021,1.154
		c2.552,0.554,4.408,2.845,4.429,5.454l-0.01,0.495c-0.171,2.802-2.425,5.041-5.271,5.163l-8.16,0.006v2.133h8.206l1.063-0.015
		v-0.112c3.603-0.637,6.298-3.762,6.298-7.519v-0.109C39.633,22.846,39.633,22.765,39.63,22.683z M14.288,37.874h2.125v-5.677
		h-2.125V37.874z M19.174,40h2.125v-7.802h-2.125V40z M24.059,37.874h2.125v-5.677h-2.125V37.874z"/>
</g>
</svg>
