<?xml version="1.0" encoding="utf-8"?>
<!-- Generator: Adobe Illustrator 23.0.1, SVG Export Plug-In . SVG Version: 6.00 Build 0)  -->
<svg version="1.1" id="Layer_1" xmlns="http://www.w3.org/2000/svg" xmlns:xlink="http://www.w3.org/1999/xlink" x="0px" y="0px"
	 viewBox="0 0 40 40" style="enable-background:new 0 0 40 40;" xml:space="preserve">
<style type="text/css">
	.st0{fill:#231F20;}
</style>
<g>
	<path class="st0" d="M15.847,4.193c-6.39,0-11.569,5.18-11.569,11.57c0,6.39,5.18,11.57,11.569,11.57
		c6.39,0,11.569-5.18,11.569-11.57C27.418,9.374,22.237,4.193,15.847,4.193z M15.847,25.238c-5.224,0-9.475-4.25-9.475-9.475
		s4.25-9.475,9.475-9.475s9.475,4.25,9.475,9.475C25.323,20.988,21.073,25.238,15.847,25.238z M38.674,32.765l-9.163-9.163
		c1.329-2.311,2.101-4.982,2.101-7.839C31.612,7.057,24.555,0,15.848,0S0.085,7.057,0.085,15.764
		c0,8.707,7.057,15.764,15.764,15.764c2.768,0,5.367-0.719,7.629-1.973l9.204,9.204C33.508,39.586,34.593,40,35.678,40
		c1.085,0,2.169-0.414,2.997-1.241C40.329,37.104,40.329,34.42,38.674,32.765z M15.847,29.433c-7.537,0-13.669-6.132-13.669-13.669
		S8.31,2.095,15.847,2.095s13.669,6.132,13.669,13.669S23.385,29.433,15.847,29.433z M37.193,37.278
		c-0.405,0.405-0.943,0.627-1.515,0.627c-0.573,0-1.111-0.223-1.515-0.627l-8.895-8.895c1.151-0.861,2.178-1.87,3.055-3.007
		l8.871,8.871c0.405,0.405,0.627,0.943,0.627,1.516C37.82,36.335,37.598,36.873,37.193,37.278z M9.271,21.018
		c0.424,0.529,0.911,1.002,1.449,1.417h7.199V20.34H9.271L9.271,21.018L9.271,21.018z M7.946,18.661h9.973v-2.095H7.463
		C7.532,17.297,7.702,17.996,7.946,18.661z M8.757,11.23h11.064v11.764c0.791-0.472,1.499-1.067,2.095-1.763V9.135H10.663
		C9.916,9.721,9.271,10.429,8.757,11.23z M7.468,14.887h10.452v-2.095H7.973C7.721,13.456,7.544,14.156,7.468,14.887z
		 M17.726,37.521H6.096v-8.184c-0.743-0.535-1.45-1.118-2.095-1.765v12.044h15.82v-7.62c-0.685,0.167-1.381,0.303-2.095,0.383
		V37.521z"/>
</g>
</svg>
