<?xml version="1.0" encoding="utf-8"?>
<!-- Generator: Adobe Illustrator 23.0.1, SVG Export Plug-In . SVG Version: 6.00 Build 0)  -->
<svg version="1.1" id="Layer_1" xmlns="http://www.w3.org/2000/svg" xmlns:xlink="http://www.w3.org/1999/xlink" x="0px" y="0px"
	 viewBox="0 0 40 40" style="enable-background:new 0 0 40 40;" xml:space="preserve">
<style type="text/css">
	.st0{fill:#231F20;}
</style>
<g>
	<path class="st0" d="M22.582,6.369V4.325h-6.097v2.044H22.582z M39.714,31.676C39.894,30.95,40,30.196,40,29.414
		c0-0.807-0.112-1.585-0.304-2.331h-1.87c-0.131-0.41-0.298-0.803-0.495-1.18l1.32-1.32c-0.801-1.331-1.92-2.445-3.256-3.24
		l-1.318,1.318c-0.375-0.193-0.766-0.36-1.175-0.49v-1.855c-0.736-0.185-1.503-0.295-2.296-0.295c-0.794,0-1.56,0.11-2.297,0.295
		v1.855c-0.408,0.13-0.8,0.296-1.175,0.49l-1.318-1.318c-1.336,0.794-2.455,1.909-3.256,3.24l1.32,1.32
		c-0.197,0.376-0.363,0.77-0.495,1.18h-1.87c-0.191,0.746-0.304,1.525-0.304,2.331c0,0.782,0.106,1.536,0.286,2.262h1.875
		c0.13,0.415,0.299,0.811,0.496,1.192l-1.335,1.335c0.794,1.336,1.908,2.455,3.239,3.256l1.337-1.337
		c0.382,0.199,0.782,0.369,1.198,0.502v1.89c0.736,0.185,1.503,0.295,2.297,0.295c0.794,0,1.56-0.11,2.296-0.295v-1.89
		c0.417-0.133,0.816-0.302,1.198-0.502l1.337,1.337c1.331-0.801,2.444-1.92,3.239-3.256l-1.335-1.335
		c0.197-0.381,0.366-0.777,0.496-1.192H39.714z M36.713,30.142l-0.338,1.073c-0.097,0.309-0.231,0.627-0.397,0.948l-0.514,0.995
		l0.792,0.792l0.427,0.427c-0.322,0.394-0.683,0.757-1.075,1.082l-0.424-0.424l-0.795-0.795l-0.998,0.52
		c-0.317,0.165-0.637,0.299-0.954,0.4l-1.07,0.339v1.733c-0.257,0.027-0.512,0.04-0.762,0.04c-0.25,0-0.505-0.014-0.762-0.04v-1.733
		l-1.07-0.339c-0.317-0.101-0.638-0.235-0.954-0.4l-0.998-0.52l-0.795,0.795l-0.424,0.424c-0.392-0.325-0.753-0.688-1.075-1.082
		l0.427-0.427l0.792-0.793l-0.514-0.995c-0.166-0.321-0.299-0.64-0.397-0.948l-0.338-1.073h-1.715
		c-0.025-0.246-0.037-0.489-0.037-0.728c0-0.262,0.015-0.528,0.045-0.798h1.714l0.342-1.066c0.101-0.314,0.233-0.63,0.394-0.939
		l0.52-0.998l-1.202-1.202c0.325-0.392,0.688-0.753,1.082-1.075l0.409,0.409l0.792,0.792l0.995-0.514
		c0.313-0.162,0.629-0.294,0.935-0.391l1.07-0.339v-1.697c0.257-0.027,0.512-0.041,0.762-0.041c0.25,0,0.505,0.014,0.762,0.041
		v1.697l1.07,0.339c0.307,0.097,0.622,0.23,0.935,0.391l0.995,0.514l0.793-0.792l0.409-0.409c0.394,0.322,0.757,0.683,1.082,1.075
		l-1.202,1.202l0.519,0.998c0.161,0.31,0.294,0.626,0.394,0.941l0.342,1.066h1.714c0.03,0.27,0.045,0.536,0.045,0.798
		c0,0.239-0.013,0.482-0.037,0.728H36.713z M30.606,25.427c-2.202,0-3.987,1.785-3.987,3.987s1.785,3.987,3.987,3.987
		s3.987-1.785,3.987-3.987S32.808,25.427,30.606,25.427z M30.606,31.868c-1.353,0-2.454-1.101-2.454-2.454s1.101-2.454,2.454-2.454
		c1.353,0,2.454,1.101,2.454,2.454S31.959,31.868,30.606,31.868z M2.046,27.717V5.282c0-1.127,0.918-2.046,2.045-2.046h30.886
		c1.128,0,2.046,0.918,2.046,2.046v16.444h2.045V5.282c0-2.256-1.835-4.09-4.09-4.09H4.09C1.835,1.192,0,3.026,0,5.282v22.435
		c0,2.256,1.835,4.09,4.09,4.09h15.412v-2.044H4.09C2.963,29.762,2.046,28.844,2.046,27.717z M5.12,26.023V6.976
		c0-0.328,0.278-0.606,0.607-0.606h7.068v1.214c0,1.128,0.918,2.046,2.045,2.046h9.387c1.128,0,2.045-0.918,2.045-2.046V6.37h7.069
		c0.329,0,0.607,0.278,0.607,0.606v12.705h2.045V6.976c0-1.462-1.19-2.651-2.651-2.651h-7.069c-1.128,0-2.045,0.918-2.045,2.044
		v1.214H14.84V6.369c0-1.127-0.918-2.044-2.045-2.044H5.727c-1.462,0-2.651,1.19-2.651,2.651v19.047c0,1.463,1.19,2.653,2.651,2.653
		h13.776V26.63H5.727C5.398,26.63,5.12,26.352,5.12,26.023z M30.884,18.658v-5.391c0-1.094-0.889-1.983-1.983-1.983H10.167
		c-1.094,0-1.983,0.89-1.983,1.983v8.558c0,1.094,0.889,1.983,1.983,1.983h11.381v-2.014l-11.319,0.031l-0.063-8.496l18.673-0.062
		v5.391L30.884,18.658L30.884,18.658z"/>
</g>
</svg>
