<?xml version="1.0" encoding="utf-8"?>
<!-- Generator: Adobe Illustrator 23.0.1, SVG Export Plug-In . SVG Version: 6.00 Build 0)  -->
<svg version="1.1" id="Layer_1" xmlns="http://www.w3.org/2000/svg" xmlns:xlink="http://www.w3.org/1999/xlink" x="0px" y="0px"
	 viewBox="0 0 40 40" style="enable-background:new 0 0 40 40;" xml:space="preserve">
<path d="M33.713,20.802c0.357,1.378,1.597,2.4,3.087,2.4c1.767,0,3.2-1.433,3.2-3.2s-1.433-3.2-3.2-3.2
	c-1.489,0-2.73,1.022-3.087,2.4H29.6v-8.8h1.713c0.357,1.378,1.597,2.4,3.087,2.4c1.767,0,3.2-1.433,3.2-3.2s-1.433-3.2-3.2-3.2
	c-1.489,0-2.73,1.022-3.087,2.4H28.8c-0.442,0-0.8,0.358-0.8,0.8v9.6h-5.6v1.6H28v9.6c0,0.442,0.358,0.8,0.8,0.8h2.513
	c0.357,1.378,1.597,2.4,3.087,2.4c1.767,0,3.2-1.433,3.2-3.2s-1.433-3.2-3.2-3.2c-1.489,0-2.73,1.022-3.087,2.4H29.6v-8.8H33.713z
	 M36.8,18.402c0.884,0,1.6,0.716,1.6,1.6s-0.716,1.6-1.6,1.6c-0.884,0-1.6-0.716-1.6-1.6S35.916,18.402,36.8,18.402z M34.4,8.002
	c0.884,0,1.6,0.716,1.6,1.6c0,0.884-0.716,1.6-1.6,1.6c-0.884,0-1.6-0.716-1.6-1.6C32.8,8.719,33.516,8.002,34.4,8.002z
	 M34.4,28.802c0.884,0,1.6,0.716,1.6,1.6c0,0.884-0.716,1.6-1.6,1.6c-0.884,0-1.6-0.716-1.6-1.6
	C32.8,29.519,33.516,28.802,34.4,28.802z M16.456,12.802c-0.656,0-6.448,0.064-6.448,2.4c0,0.373,0.159,0.682,0.41,0.948
	l3.182,8.092v4.56c0,0.442,0.358,0.8,0.8,0.8h0.592c0.936-0.244,1.806-0.695,2.544-1.32c0.192-0.136,0.36-0.256,0.496-0.336
	c0.231-0.148,0.37-0.405,0.368-0.68v-3.008l4.055-8.059c0.248-0.244,0.404-0.532,0.437-0.869l0.02-0.041l-0.013-0.007
	c0.002-0.028,0.013-0.053,0.013-0.081C22.912,12.874,17.112,12.802,16.456,12.802z M16.888,23.706
	c-0.057,0.111-0.087,0.235-0.088,0.36v2.776l-0.192,0.136c-0.444,0.336-0.915,0.636-1.408,0.896V24.09
	c0.002-0.099-0.018-0.197-0.056-0.288l-2.605-6.626c1.648,0.405,3.557,0.426,3.917,0.426c0.348,0,2.102-0.023,3.695-0.377
	L16.888,23.706z M21.165,15.212c-0.552,0.32-2.181,0.79-4.709,0.79c-2.509,0-4.123-0.448-4.686-0.783l-0.012-0.029
	c0.554-0.35,2.174-0.788,4.698-0.788c2.538,0,4.171,0.459,4.717,0.794L21.165,15.212z M20,36.802
	c-8.086-0.01-14.954-5.775-16.461-13.634c1.335-0.143,2.419-1.095,2.748-2.366H10.4v-1.6H6.287c-0.332-1.28-1.429-2.238-2.779-2.369
	c0.441-2.31,1.361-4.505,2.707-6.441C11.513,2.776,21.983,0.896,29.6,6.194l0.88-1.312c-2.385-1.654-5.127-2.721-8.003-3.114
	C12.539,0.414,3.38,7.265,1.823,17.125C0.748,17.641,0,18.73,0,20.002c0,1.283,0.76,2.382,1.851,2.892
	C3.284,31.792,10.947,38.382,20,38.402c3.861-0.002,7.621-1.226,10.744-3.496l-0.936-1.304C26.959,35.68,23.526,36.8,20,36.802z
	 M1.6,20.002c0-0.884,0.716-1.6,1.6-1.6s1.6,0.716,1.6,1.6s-0.716,1.6-1.6,1.6S1.6,20.886,1.6,20.002z"/>
</svg>
