<?xml version="1.0" encoding="utf-8"?>
<!-- Generator: Adobe Illustrator 23.0.1, SVG Export Plug-In . SVG Version: 6.00 Build 0)  -->
<svg version="1.1" id="Layer_1" xmlns="http://www.w3.org/2000/svg" xmlns:xlink="http://www.w3.org/1999/xlink" x="0px" y="0px"
	 viewBox="0 0 40 40" style="enable-background:new 0 0 40 40;" xml:space="preserve">
<path d="M39.149,2.791H0.851C0.381,2.791,0,3.172,0,3.642v8.775c0,0.47,0.381,0.851,0.851,0.851h38.298
	c0.47,0,0.851-0.381,0.851-0.851V3.642C40,3.172,39.619,2.791,39.149,2.791z M38.298,11.566H1.702V4.493h36.596V11.566z
	 M38.298,23.541h-0.851v1.702h1.702c0.47,0,0.851-0.381,0.851-0.851v-1.702h-1.702V23.541z M13.659,25.243h3.172v-1.702h-3.172
	V25.243z M32.691,25.243h3.172v-1.702h-3.172V25.243z M18.417,25.243h3.172v-1.702h-3.172V25.243z M23.175,25.243h3.172v-1.702
	h-3.172V25.243z M27.933,25.243h3.172v-1.702h-3.172V25.243z M8.9,25.243h3.172v-1.702H8.9V25.243z M4.142,25.243h3.172v-1.702
	H4.142V25.243z M1.702,22.689H0v1.702c0,0.47,0.381,0.851,0.851,0.851h1.702v-1.702H1.702V22.689z M1.702,18.659H0v2.686h1.702
	V18.659z M0,15.608v1.702h1.702v-0.851h0.851v-1.702H0.851C0.381,14.757,0,15.138,0,15.608z M12.067,14.757H8.894v1.702h3.172
	V14.757z M21.582,14.757h-3.172v1.702h3.172V14.757z M7.308,14.757H4.136v1.702h3.172V14.757z M16.825,14.757h-3.172v1.702h3.172
	V14.757z M31.1,14.757h-3.172v1.702H31.1V14.757z M35.858,14.757h-3.172v1.702h3.172V14.757z M26.341,14.757h-3.172v1.702h3.172
	V14.757z M39.149,14.757h-1.702v1.702h0.851v0.851H40v-1.702C40,15.138,39.619,14.757,39.149,14.757z M38.298,21.341H40v-2.686
	h-1.702V21.341z M38.298,35.506h-0.851v1.702h1.702c0.47,0,0.851-0.381,0.851-0.851v-1.702h-1.702V35.506z M8.9,37.208h3.172v-1.702
	H8.9V37.208z M13.659,37.208h3.172v-1.702h-3.172V37.208z M4.142,37.208h3.172v-1.702H4.142V37.208z M23.175,37.208h3.172v-1.702
	h-3.172V37.208z M27.933,37.208h3.172v-1.702h-3.172V37.208z M18.417,37.208h3.172v-1.702h-3.172V37.208z M32.691,37.208h3.172
	v-1.702h-3.172V37.208z M1.702,34.655H0v1.702c0,0.47,0.381,0.851,0.851,0.851h1.702v-1.702H1.702V34.655z M1.702,30.624H0v2.686
	h1.702V30.624z M0,27.583v1.702h1.702v-0.851h0.851v-1.702H0.851C0.381,26.732,0,27.113,0,27.583z M7.308,26.732H4.136v1.702h3.172
	V26.732z M21.582,26.732h-3.172v1.702h3.172V26.732z M16.825,26.732h-3.172v1.702h3.172V26.732z M35.858,26.732h-3.172v1.702h3.172
	V26.732z M31.1,26.732h-3.172v1.702H31.1V26.732z M12.067,26.732H8.894v1.702h3.172V26.732z M26.341,26.732h-3.172v1.702h3.172
	V26.732z M39.149,26.732h-1.702v1.702h0.851v0.851H40v-1.702C40,27.113,39.619,26.732,39.149,26.732z M38.298,33.308H40v-2.686
	h-1.702V33.308z"/>
</svg>
