<?xml version="1.0" encoding="utf-8"?>
<!-- Generator: Adobe Illustrator 23.0.1, SVG Export Plug-In . SVG Version: 6.00 Build 0)  -->
<svg version="1.1" id="Layer_1" xmlns="http://www.w3.org/2000/svg" xmlns:xlink="http://www.w3.org/1999/xlink" x="0px" y="0px"
	 viewBox="0 0 40 40" style="enable-background:new 0 0 40 40;" xml:space="preserve">
<path d="M5.777,15.063c1.507-4.3,4.889-7.681,9.189-9.189c7.814-2.739,16.368,1.375,19.107,9.189l1.512-0.52
	c-1.666-4.77-5.416-8.52-10.186-10.186C16.752,1.336,7.294,5.897,4.273,14.543l1.504,0.528V15.063z M24.852,34.143
	c-7.821,2.718-16.365-1.418-19.083-9.239l-1.512,0.52c2.315,6.677,8.606,11.153,15.672,11.152c7.085,0.001,13.388-4.499,15.688-11.2
	l-1.512-0.512C32.607,29.212,29.196,32.633,24.852,34.143z M8,20.006c0.004-2.209-1.784-4.003-3.993-4.007S0.004,17.783,0,19.992
	c-0.004,2.209,1.784,4.003,3.993,4.007c1.062,0.002,2.08-0.418,2.832-1.168C7.575,22.083,7.998,21.067,8,20.006z M4.005,22.399
	c-1.325,0.003-2.403-1.069-2.406-2.394c-0.003-1.325,1.069-2.403,2.394-2.406c0.635-0.002,1.245,0.249,1.696,0.696
	c0.453,0.449,0.708,1.06,0.71,1.698C6.402,21.319,5.33,22.396,4.005,22.399z M36.007,15.999c-2.209-0.004-4.003,1.784-4.007,3.993
	c-0.004,2.209,1.784,4.003,3.993,4.007c1.062,0.002,2.08-0.418,2.832-1.168c0.751-0.749,1.173-1.765,1.175-2.825
	C40.004,17.797,38.216,16.003,36.007,15.999z M36.005,22.399c-1.325,0.003-2.403-1.069-2.406-2.394
	c-0.003-1.325,1.069-2.403,2.394-2.406c0.635-0.002,1.245,0.249,1.696,0.696c0.453,0.449,0.708,1.06,0.71,1.698
	C38.402,21.319,37.33,22.396,36.005,22.399z M13.881,26.927c0.204,0.01,0.405-0.059,0.56-0.192c2.704-2.696,8.408-2.704,11.104,0
	c0.312,0.31,0.816,0.31,1.128,0c0.002-0.002,0.003-0.003,0.005-0.005c0.311-0.314,0.309-0.82-0.005-1.131
	c-2.68-2.736-2.68-8.44,0-11.152c0.15-0.151,0.233-0.355,0.232-0.568c-0.001-0.21-0.084-0.411-0.232-0.56
	c-0.312-0.31-0.816-0.31-1.128,0c-2.696,2.696-8.408,2.696-11.104,0c-0.312-0.31-0.816-0.31-1.128,0
	c-0.148,0.149-0.231,0.35-0.232,0.56c-0.001,0.213,0.082,0.417,0.232,0.568c1.379,1.513,2.111,3.506,2.04,5.552
	c0.073,2.049-0.659,4.045-2.04,5.56c-0.002,0.002-0.003,0.003-0.005,0.005c-0.311,0.314-0.309,0.82,0.005,1.131
	C13.464,26.845,13.668,26.929,13.881,26.927z M16.329,16.351c2.366,0.852,4.954,0.852,7.32,0c-0.848,2.366-0.848,4.954,0,7.32
	c-2.366-0.848-4.954-0.848-7.32,0C17.161,21.302,17.161,18.72,16.329,16.351z M28.369,22.887l2.325-2.325
	c0.311-0.314,0.309-0.82-0.005-1.131l-2.312-2.304l-1.128,1.128l0.96,0.96h-2.616v1.6h2.58l-0.94,0.936L28.369,22.887z
	 M11.905,22.895l2.328-2.336c0.148-0.149,0.231-0.35,0.232-0.56c0.001-0.213-0.082-0.417-0.232-0.568l-2.328-2.32l-1.128,1.128
	l0.976,0.976h-2.96v1.6h2.932l-0.948,0.952L11.905,22.895z"/>
</svg>
