<?xml version="1.0" encoding="utf-8"?>
<!-- Generator: Adobe Illustrator 23.0.1, SVG Export Plug-In . SVG Version: 6.00 Build 0)  -->
<svg version="1.1" id="Layer_1" xmlns="http://www.w3.org/2000/svg" xmlns:xlink="http://www.w3.org/1999/xlink" x="0px" y="0px"
	 viewBox="0 0 40 40" style="enable-background:new 0 0 40 40;" xml:space="preserve">
<path d="M20.097,38.378c-3.087,0-6.124-0.782-8.827-2.273l0.809-1.416c8.11,4.439,18.282,1.463,22.721-6.647
	c2.887-5.276,2.723-11.695-0.431-16.816l-0.809,4.045l-1.618-0.316l1.173-5.93c0.086-0.437,0.509-0.723,0.947-0.639L40,9.559
	l-0.316,1.618l-3.964-0.809c5.317,8.648,2.617,19.969-6.031,25.287C26.804,37.429,23.484,38.372,20.097,38.378z M6.068,31.315
	c-0.067,0.008-0.135,0.008-0.202,0L0,29.843l0.396-1.57l3.77,0.947c-5.103-8.761-2.138-20,6.623-25.103
	c5.557-3.237,12.403-3.33,18.046-0.245l-0.809,1.416c-8.131-4.4-18.289-1.376-22.689,6.754C2.521,17.245,2.66,23.548,5.704,28.621
	l1.052-4.167l1.57,0.388l-1.472,5.866C6.76,31.066,6.437,31.316,6.068,31.315z M26.472,27.836c-1.478,0.003-2.77-0.996-3.139-2.427
	h-6.65c-0.447,1.731-2.212,2.771-3.943,2.324c-1.731-0.447-2.771-2.212-2.324-3.943c0.369-1.43,1.659-2.428,3.136-2.427
	c0.292,0,0.583,0.038,0.866,0.113l3.382-5.858c-1.298-1.229-1.354-3.277-0.125-4.575c1.229-1.298,3.277-1.354,4.575-0.125
	c1.298,1.229,1.354,3.277,0.125,4.575c-0.041,0.043-0.082,0.085-0.125,0.125l3.414,5.858c0.264-0.07,0.536-0.108,0.809-0.113
	c1.787,0,3.236,1.449,3.236,3.236S28.26,27.836,26.472,27.836z M26.472,22.982c-0.894,0-1.618,0.724-1.618,1.618
	c0,0.894,0.724,1.618,1.618,1.618c0.894,0,1.618-0.724,1.618-1.618C28.091,23.706,27.366,22.982,26.472,22.982z M13.528,22.982
	c-0.894,0-1.618,0.724-1.618,1.618c0,0.894,0.724,1.618,1.618,1.618c0.894,0,1.618-0.724,1.618-1.618
	C15.146,23.706,14.421,22.982,13.528,22.982z M16.659,23.791h6.675c0.148-0.572,0.451-1.092,0.874-1.505l-3.398-5.882
	c-0.531,0.137-1.087,0.137-1.618,0l-3.39,5.89c0.425,0.409,0.73,0.927,0.882,1.497L16.659,23.791z M20,11.655
	c-0.894,0-1.618,0.724-1.618,1.618c0,0.894,0.724,1.618,1.618,1.618s1.618-0.724,1.618-1.618C21.618,12.379,20.894,11.655,20,11.655
	z"/>
</svg>
