<?xml version="1.0" encoding="utf-8"?>
<!-- Generator: Adobe Illustrator 23.0.1, SVG Export Plug-In . SVG Version: 6.00 Build 0)  -->
<svg version="1.1" id="Layer_1" xmlns="http://www.w3.org/2000/svg" xmlns:xlink="http://www.w3.org/1999/xlink" x="0px" y="0px"
	 viewBox="0 0 40 40" style="enable-background:new 0 0 40 40;" xml:space="preserve">
<path d="M39.149,5.583H12.817v1.702h25.481v7.081H1.702v-3.14H0v3.991c0,0.47,0.381,0.851,0.851,0.851h38.298
	c0.47,0,0.851-0.381,0.851-0.851V6.434C40,5.964,39.619,5.583,39.149,5.583z M38.298,26.332h-0.851v1.702h1.702
	c0.47,0,0.851-0.381,0.851-0.851v-1.702h-1.702V26.332z M27.933,28.034h3.172v-1.702h-3.172V28.034z M23.175,28.034h3.172v-1.702
	h-3.172V28.034z M4.142,28.034h3.172v-1.702H4.142V28.034z M8.9,28.034h3.172v-1.702H8.9V28.034z M13.659,28.034h3.172v-1.702
	h-3.172V28.034z M32.691,28.034h3.172v-1.702h-3.172V28.034z M18.417,28.034h3.172v-1.702h-3.172V28.034z M1.702,25.481H0v1.702
	c0,0.47,0.381,0.851,0.851,0.851h1.702v-1.702H1.702V25.481z M1.702,21.45H0v2.686h1.702V21.45z M0,18.408v1.702h1.702v-0.851h0.851
	v-1.702H0.851C0.381,17.557,0,17.938,0,18.408z M26.341,17.557h-3.172v1.702h3.172V17.557z M16.825,17.557h-3.172v1.702h3.172
	V17.557z M21.582,17.557h-3.172v1.702h3.172V17.557z M7.308,17.557H4.136v1.702h3.172V17.557z M12.067,17.557H8.894v1.702h3.172
	V17.557z M35.858,17.557h-3.172v1.702h3.172V17.557z M31.1,17.557h-3.172v1.702H31.1V17.557z M39.149,17.557h-1.702v1.702h0.851
	v0.851H40v-1.702C40,17.938,39.619,17.557,39.149,17.557z M38.298,24.133H40v-2.686h-1.702V24.133z M38.298,38.298h-0.851V40h1.702
	C39.619,40,40,39.619,40,39.149v-1.702h-1.702V38.298z M32.691,40h3.172v-1.702h-3.172V40z M18.417,40h3.172v-1.702h-3.172V40z
	 M27.933,40h3.172v-1.702h-3.172V40z M8.9,40h3.172v-1.702H8.9V40z M23.175,40h3.172v-1.702h-3.172V40z M4.142,40h3.172v-1.702
	H4.142V40z M13.659,40h3.172v-1.702h-3.172V40z M1.702,37.447H0v1.702C0,39.619,0.381,40,0.851,40h1.702v-1.702H1.702V37.447z
	 M1.702,33.416H0v2.686h1.702V33.416z M0,30.375v1.702h1.702v-0.851h0.851v-1.702H0.851C0.381,29.524,0,29.904,0,30.375z
	 M7.308,29.524H4.136v1.702h3.172V29.524z M26.341,29.524h-3.172v1.702h3.172V29.524z M31.1,29.524h-3.172v1.702H31.1V29.524z
	 M35.858,29.524h-3.172v1.702h3.172V29.524z M21.582,29.524h-3.172v1.702h3.172V29.524z M16.825,29.524h-3.172v1.702h3.172V29.524z
	 M12.067,29.524H8.894v1.702h3.172V29.524z M39.149,29.524h-1.702v1.702h0.851v0.851H40v-1.702
	C40,29.904,39.619,29.524,39.149,29.524z M38.298,36.107H40v-2.686h-1.702V36.107z M14.562,8.466v4.718h1.021v-2.009h1.879v2.009
	h1.021V8.466h-1.021v1.92h-1.879v-1.92H14.562z M21.788,13.185V9.283h1.437V8.466h-3.894v0.817h1.437v3.901H21.788z M26.286,13.185
	V9.283h1.436V8.466h-3.894v0.817h1.436v3.901H26.286z M30.377,11.462c0.49,0,0.878-0.134,1.164-0.401
	c0.286-0.268,0.429-0.633,0.429-1.096c0-0.463-0.143-0.828-0.429-1.096c-0.286-0.268-0.673-0.401-1.164-0.401h-1.804v4.718h0.994
	v-1.723H30.377z M29.566,9.229h0.695c0.227,0,0.401,0.063,0.52,0.188c0.12,0.125,0.181,0.307,0.181,0.548
	c0,0.241-0.061,0.423-0.181,0.549c-0.12,0.125-0.293,0.187-0.52,0.187h-0.695V9.229z M5.642,11.285c3.111,0,5.642-2.531,5.642-5.642
	S8.754,0,5.642,0S0,2.531,0,5.642S2.531,11.285,5.642,11.285z M5.642,1.702c2.173,0,3.94,1.768,3.94,3.94s-1.768,3.94-3.94,3.94
	s-3.94-1.768-3.94-3.94S3.47,1.702,5.642,1.702z"/>
</svg>
