<?xml version="1.0" encoding="utf-8"?>
<!-- Generator: Adobe Illustrator 23.0.1, SVG Export Plug-In . SVG Version: 6.00 Build 0)  -->
<svg version="1.1" id="Layer_1" xmlns="http://www.w3.org/2000/svg" xmlns:xlink="http://www.w3.org/1999/xlink" x="0px" y="0px"
	 viewBox="0 0 40 40" style="enable-background:new 0 0 40 40;" xml:space="preserve">
<path d="M31.2,28.8H8.8v-2.4h6.4c0.4,0,0.8-0.4,0.8-0.8v-4c0-0.4-0.4-0.8-0.8-0.8H8.8v-1.6h6.4c0.4,0,0.8-0.4,0.8-0.8v-4
	c0-0.4-0.4-0.8-0.8-0.8H8.8v-2.4h22.4v4h1.6v-4.8c0-0.4-0.4-0.8-0.8-0.8H20.8V7.9C22.6,7.5,24,5.9,24,4c0-2.2-1.8-4-4-4s-4,1.8-4,4
	c0,1.9,1.4,3.5,3.2,3.9v1.7H8c-0.4,0-0.8,0.4-0.8,0.8v3.2H0.8C0.4,13.6,0,14,0,14.4v4c0,0.4,0.4,0.8,0.8,0.8h6.4v1.6H0.8
	c-0.4,0-0.8,0.4-0.8,0.8v4c0,0.4,0.4,0.8,0.8,0.8h6.4v3.2c0,0.4,0.4,0.8,0.8,0.8h11.2v1.7c-1.8,0.4-3.2,2-3.2,3.9c0,2.2,1.8,4,4,4
	s4-1.8,4-4c0-1.9-1.4-3.5-3.2-3.9v-1.7H32c0.4,0,0.8-0.4,0.8-0.8v-4h-1.6V28.8z M17.6,4c0-1.3,1.1-2.4,2.4-2.4s2.4,1.1,2.4,2.4
	S21.3,6.4,20,6.4S17.6,5.3,17.6,4z M1.6,17.6v-2.4h12.8v2.4H1.6z M1.6,24.8v-2.4h12.8v2.4H1.6z M22.4,36c0,1.3-1.1,2.4-2.4,2.4
	s-2.4-1.1-2.4-2.4s1.1-2.4,2.4-2.4S22.4,34.7,22.4,36z M39.2,16.8h-16c-0.4,0-0.8,0.4-0.8,0.8v5.6c0,0.4,0.4,0.8,0.8,0.8h16
	c0.4,0,0.8-0.4,0.8-0.8v-5.6C40,17.2,39.6,16.8,39.2,16.8z M38.4,22.4H24v-4h14.4V22.4z"/>
</svg>
