<?xml version="1.0" encoding="utf-8"?>
<!-- Generator: Adobe Illustrator 23.0.1, SVG Export Plug-In . SVG Version: 6.00 Build 0)  -->
<svg version="1.1" id="Layer_1" xmlns="http://www.w3.org/2000/svg" xmlns:xlink="http://www.w3.org/1999/xlink" x="0px" y="0px"
	 viewBox="0 0 40 40" style="enable-background:new 0 0 40 40;" xml:space="preserve">
<path d="M11.625,0H1.251C0.781,0,0.4,0.381,0.4,0.851v38.298C0.4,39.619,0.781,40,1.251,40h10.374c0.47,0,0.851-0.381,0.851-0.851
	V0.851C12.477,0.381,12.095,0,11.625,0z M10.774,38.298H2.102V1.702h8.672V38.298z M25.183,0h-1.702v1.702h0.851v0.851h1.702V0.851
	C26.034,0.381,25.653,0,25.183,0z M24.332,7.308h1.702V4.136h-1.702V7.308z M24.332,35.858h1.702v-3.172h-1.702V35.858z
	 M24.332,31.1h1.702v-3.172h-1.702V31.1z M24.332,26.341h1.702v-3.172h-1.702V26.341z M24.332,16.825h1.702v-3.172h-1.702V16.825z
	 M24.332,12.067h1.702V8.894h-1.702V12.067z M24.332,21.582h1.702v-3.172h-1.702V21.582z M24.332,38.298h-0.851V40h1.702
	c0.47,0,0.851-0.381,0.851-0.851v-1.702h-1.702V38.298z M18.26,40h3.484v-1.702H18.26V40z M15.668,37.447h-1.702v1.702
	c0,0.47,0.381,0.851,0.851,0.851h1.702v-1.702h-0.851V37.447z M15.668,13.659h-1.702v3.172h1.702V13.659z M15.668,32.691h-1.702
	v3.172h1.702V32.691z M15.668,4.142h-1.702v3.172h1.702V4.142z M15.668,18.417h-1.702v3.172h1.702V18.417z M15.668,23.175h-1.702
	v3.172h1.702V23.175z M15.668,27.933h-1.702v3.172h1.702V27.933z M15.668,8.9h-1.702v3.172h1.702V8.9z M13.966,0.851v1.702h1.702
	V1.702h0.851V0h-1.702C14.347,0,13.966,0.381,13.966,0.851z M21.739,0h-3.484v1.702h3.484V0z M38.749,0h-1.702v1.702h0.851v0.851
	H39.6V0.851C39.6,0.381,39.219,0,38.749,0z M37.898,21.582H39.6v-3.172h-1.702V21.582z M37.898,26.341H39.6v-3.172h-1.702V26.341z
	 M37.898,31.1H39.6v-3.172h-1.702V31.1z M37.898,16.825H39.6v-3.172h-1.702V16.825z M37.898,35.858H39.6v-3.172h-1.702V35.858z
	 M37.898,12.067H39.6V8.894h-1.702V12.067z M37.898,7.308H39.6V4.136h-1.702V7.308z M37.898,38.298h-0.851V40h1.702
	c0.47,0,0.851-0.381,0.851-0.851v-1.702h-1.702V38.298z M31.818,40h3.484v-1.702h-3.484V40z M29.225,37.447h-1.702v1.702
	c0,0.47,0.381,0.851,0.851,0.851h1.702v-1.702h-0.851V37.447z M29.225,8.9h-1.702v3.172h1.702V8.9z M29.225,13.659h-1.702v3.172
	h1.702V13.659z M29.225,23.175h-1.702v3.172h1.702V23.175z M29.225,18.417h-1.702v3.172h1.702V18.417z M29.225,4.142h-1.702v3.172
	h1.702V4.142z M29.225,32.691h-1.702v3.172h1.702V32.691z M29.225,27.933h-1.702v3.172h1.702V27.933z M27.523,0.851v1.702h1.702
	V1.702h0.851V0h-1.702C27.904,0,27.523,0.381,27.523,0.851z M31.821,1.702h3.484V0h-3.484V1.702z"/>
</svg>
