<?xml version="1.0" encoding="utf-8"?>
<!-- Generator: Adobe Illustrator 23.0.1, SVG Export Plug-In . SVG Version: 6.00 Build 0)  -->
<svg version="1.1" id="Layer_1" xmlns="http://www.w3.org/2000/svg" xmlns:xlink="http://www.w3.org/1999/xlink" x="0px" y="0px"
	 viewBox="0 0 40 40" style="enable-background:new 0 0 40 40;" xml:space="preserve">
<path d="M24.654,19.992c0.128-2.017,0.851-3.973,2.181-5.303c0.15-0.151,0.233-0.355,0.232-0.568
	c0.001-0.213-0.082-0.417-0.232-0.568c-0.312-0.31-0.816-0.31-1.128,0c-2.951,2.951-8.958,2.951-11.909,0
	c-0.312-0.31-0.816-0.31-1.128,0c-0.15,0.151-0.233,0.355-0.232,0.568c-0.001,0.213,0.082,0.417,0.232,0.568
	c2.951,2.943,2.951,8.95,0,11.901c-0.31,0.312-0.31,0.816,0,1.128c0.312,0.31,0.816,0.31,1.128,0
	c1.625-1.478,3.763-2.265,5.959-2.192c2.193-0.073,4.328,0.714,5.951,2.192c0.149,0.148,0.35,0.231,0.56,0.232
	c0.208-0.001,0.408-0.083,0.557-0.229c0.315-0.309,0.321-0.816,0.011-1.131c-1.262-1.265-1.978-3.093-2.158-4.999h4.286
	l-1.176,1.176l1.128,1.128l2.471-2.463c0.002-0.002,0.003-0.003,0.005-0.005c0.311-0.314,0.309-0.82-0.005-1.131l-2.471-2.463
	l-1.128,1.128l1.032,1.032H24.654z M23.764,24.647c-2.585-0.931-5.413-0.931-7.998,0c0.958-2.58,0.958-5.418,0-7.998
	c2.579,0.965,5.419,0.965,7.998,0C22.802,19.228,22.802,22.068,23.764,24.647z M31.618,28.814c-1.983-0.004-3.595,1.6-3.599,3.583
	c-0.004,1.983,1.6,3.595,3.583,3.599c0.953,0,1.867-0.376,2.543-1.048c0.674-0.672,1.054-1.584,1.056-2.535
	C35.206,30.43,33.601,28.818,31.618,28.814z M33.018,33.813c-0.374,0.373-0.88,0.583-1.408,0.584
	c-1.104,0.002-2.001-0.892-2.003-1.996c-0.002-1.104,0.892-2.001,1.996-2.003c0.521,0.004,1.021,0.211,1.392,0.576
	C33.784,31.751,33.795,33.022,33.018,33.813z M36.417,16.817c-1.983-0.004-3.595,1.6-3.599,3.583
	c-0.004,1.983,1.6,3.595,3.583,3.599c0.953,0,1.867-0.376,2.543-1.048c0.674-0.672,1.054-1.584,1.056-2.535
	C40.004,18.433,38.4,16.821,36.417,16.817z M37.816,21.816c-0.374,0.373-0.88,0.583-1.408,0.584
	c-1.104,0.002-2.001-0.892-2.003-1.996c-0.002-1.104,0.892-2.001,1.996-2.003c0.521,0.004,1.021,0.211,1.392,0.576
	C38.583,19.754,38.594,21.025,37.816,21.816z M31.602,12.002c0.953,0,1.867-0.376,2.543-1.048c0.674-0.672,1.054-1.584,1.056-2.535
	c0.004-1.983-1.6-3.595-3.583-3.599c-1.983-0.004-3.595,1.6-3.599,3.583C28.014,10.386,29.619,11.998,31.602,12.002z M31.602,6.403
	c0.521,0.004,1.021,0.211,1.392,0.576c0.79,0.777,0.801,2.048,0.024,2.839c-0.374,0.373-0.88,0.583-1.408,0.584
	c-1.104,0.002-2.001-0.892-2.003-1.996C29.604,7.302,30.498,6.405,31.602,6.403z M6.167,22.934c0.389-0.392,0.659-0.854,0.831-1.342
	h4.084l-1.171,1.176l1.128,1.128l2.463-2.463c0.002-0.002,0.003-0.003,0.005-0.005c0.311-0.314,0.309-0.82-0.005-1.131l-2.463-2.463
	L9.903,18.96l1.032,1.032H7.176c-0.088-0.789-0.419-1.556-1.027-2.159c-1.414-1.404-3.697-1.396-5.101,0.018
	c-1.404,1.413-1.396,3.697,0.018,5.101c0.676,0.671,1.59,1.048,2.543,1.048C4.569,23.999,5.49,23.615,6.167,22.934z M2.193,21.816
	c-0.377-0.376-0.588-0.887-0.587-1.419c0.002-1.104,0.899-1.998,2.003-1.996c0.528,0.001,1.035,0.211,1.408,0.584
	c0.782,0.78,0.783,2.046,0.004,2.828C4.241,22.594,2.975,22.596,2.193,21.816z M27.003,5.684l0.728-1.424
	c-4.794-2.456-10.451-2.571-15.34-0.312l0.672,1.456C17.505,3.347,22.647,3.45,27.003,5.684z M6.168,11.874l-1.36-0.848
	c-0.809,1.286-1.444,2.674-1.888,4.127l1.528,0.464C4.854,14.299,5.433,13.041,6.168,11.874z M33.601,12.234
	c0.601,1.039,1.096,2.134,1.48,3.271l1.536-0.512c-0.423-1.239-0.973-2.432-1.64-3.559L33.601,12.234z M33.777,27.838l1.376,0.8
	c0.703-1.187,1.287-2.441,1.744-3.743l-1.52-0.52C34.962,25.581,34.426,26.741,33.777,27.838z M12.694,34.397l-0.688,1.456
	c2.408,1.197,5.061,1.818,7.75,1.816c2.806-0.006,5.569-0.68,8.062-1.968l-0.728-1.424C22.582,36.596,17.241,36.64,12.694,34.397z
	 M4.36,24.751l-1.528,0.472c0.41,1.341,0.971,2.632,1.672,3.847l1.392-0.8C5.251,27.16,4.736,25.979,4.36,24.751z M10.948,29.83
	c-1.414-1.404-3.697-1.396-5.101,0.018c-1.404,1.413-1.396,3.697,0.018,5.101c0.676,0.671,1.59,1.048,2.543,1.048
	c0.96,0,1.881-0.384,2.558-1.065C12.369,33.517,12.361,31.234,10.948,29.83z M9.82,33.809c-0.78,0.782-2.046,0.783-2.828,0.004
	c-0.377-0.376-0.588-0.887-0.587-1.419c0.002-1.104,0.899-1.998,2.003-1.996c0.528,0.001,1.035,0.211,1.408,0.584
	C10.598,31.761,10.599,33.027,9.82,33.809z M8.408,12.002c0.96,0,1.881-0.384,2.558-1.065c1.404-1.414,1.396-3.697-0.018-5.101
	C9.534,4.432,7.25,4.44,5.847,5.853C4.443,7.267,4.451,9.55,5.864,10.954C6.54,11.626,7.455,12.002,8.408,12.002z M8.408,6.403
	c0.528,0.001,1.035,0.211,1.408,0.584c0.782,0.78,0.783,2.046,0.004,2.828c-0.78,0.782-2.046,0.783-2.828,0.004
	C6.615,9.443,6.403,8.932,6.404,8.399C6.406,7.295,7.303,6.401,8.408,6.403z"/>
</svg>
