<?xml version="1.0" encoding="utf-8"?>
<!-- Generator: Adobe Illustrator 23.0.1, SVG Export Plug-In . SVG Version: 6.00 Build 0)  -->
<svg version="1.1" id="Layer_1" xmlns="http://www.w3.org/2000/svg" xmlns:xlink="http://www.w3.org/1999/xlink" x="0px" y="0px"
	 viewBox="0 0 40 40" style="enable-background:new 0 0 40 40;" xml:space="preserve">
<path d="M39.149,7.984H0.851C0.381,7.984,0,8.365,0,8.835v22.34c0,0.47,0.381,0.851,0.851,0.851h38.298
	c0.47,0,0.851-0.381,0.851-0.851V8.835C40,8.365,39.619,7.984,39.149,7.984z M38.298,30.324H1.702V9.686h36.596V30.324z
	 M16.068,11.226h-1.702v17.549h1.702V11.226z M20.851,11.226h-1.702v17.549h1.702V11.226z M25.642,11.226H23.94v17.549h1.702V11.226
	z M6.873,24.073c0.115,0.054,0.239,0.081,0.361,0.081c0.195,0,0.389-0.067,0.544-0.197l3.966-3.302
	c0.194-0.162,0.307-0.401,0.307-0.654c0-0.253-0.112-0.492-0.307-0.654l-3.966-3.302c-0.254-0.211-0.607-0.257-0.906-0.116
	c-0.299,0.14-0.49,0.44-0.49,0.77v6.604C6.383,23.633,6.574,23.934,6.873,24.073z M8.085,18.515l1.785,1.486l-1.785,1.486V18.515z
	 M32.222,23.957c0.155,0.13,0.349,0.197,0.544,0.197c0.123,0,0.246-0.027,0.362-0.081c0.298-0.14,0.49-0.44,0.49-0.77v-6.604
	c0-0.33-0.191-0.63-0.49-0.77c-0.298-0.139-0.652-0.095-0.906,0.116l-3.966,3.302c-0.194,0.162-0.307,0.401-0.307,0.654
	c0,0.253,0.112,0.492,0.307,0.654L32.222,23.957z M31.915,18.515v2.972l-1.785-1.486L31.915,18.515z"/>
</svg>
