<?xml version="1.0" encoding="utf-8"?>
<!-- Generator: Adobe Illustrator 23.0.1, SVG Export Plug-In . SVG Version: 6.00 Build 0)  -->
<svg version="1.1" id="Layer_1" xmlns="http://www.w3.org/2000/svg" xmlns:xlink="http://www.w3.org/1999/xlink" x="0px" y="0px"
	 viewBox="0 0 40 40" style="enable-background:new 0 0 40 40;" xml:space="preserve">
<style type="text/css">
	.st0{fill:#231F20;}
</style>
<path class="st0" d="M39.226,12.773c-0.495-0.491-1.123-0.733-1.848-0.756h-2.051c-0.701,0.021-1.361,0.259-1.861,0.75
	c-0.5,0.49-0.779,1.146-0.785,1.854v0.604h-2.23v-0.724c-0.015-1.434-1.188-2.595-2.616-2.595h-3.792v-0.925
	c-0.008-1.224-1.014-2.199-2.23-2.207H18.46V6.493h4.732V4.791H12.025v1.702h4.732v2.281h-3.396c-1.217,0-2.214,0.99-2.222,2.213
	v0.945H6.604c-1.435,0-2.606,1.164-2.613,2.604v6.213H1.702v-7.932H0v17.558h1.702V22.45h2.289v6.558
	c0.007,1.225,1.007,2.217,2.226,2.217h9.213c0.145,2.224,2.002,3.975,4.232,3.975c0.025,0,0.049,0,0.074-0.001h6.434
	c2.346,0,4.255-1.909,4.255-4.255v-1.32h2.29v0.591c0.006,1.428,1.173,2.595,2.604,2.601h2.023c0.014,0.001,0.029,0,0.044,0.001
	c1.435,0,2.606-1.164,2.614-2.605V14.617C39.997,13.918,39.722,13.264,39.226,12.773z M38.298,30.208
	c-0.002,0.495-0.401,0.896-0.896,0.907c-0.011-0.001-0.022-0.001-0.032-0.001h-2.048c-0.497-0.002-0.903-0.408-0.905-0.902v-1.439
	c0-0.47-0.381-0.851-0.851-0.851h-3.992c-0.47,0-0.851,0.381-0.851,0.851v2.171c0,1.408-1.145,2.553-2.553,2.553h-6.449
	c-1.394-0.016-2.573-1.1-2.598-2.553v-0.57c0-0.47-0.381-0.851-0.851-0.851H6.222c-0.29,0-0.527-0.234-0.529-0.519V14.54
	c0.002-0.501,0.411-0.906,0.923-0.906h5.375c0.47,0,0.851-0.381,0.851-0.851v-1.79c0.002-0.285,0.235-0.517,0.519-0.517h8.459
	c0.285,0,0.518,0.231,0.519,0.511v1.77c0,0.47,0.381,0.851,0.851,0.851h4.639c0.502,0,0.913,0.407,0.918,0.902v1.566
	c0,0.47,0.381,0.851,0.851,0.851h3.932c0.47,0,0.851-0.381,0.851-0.851v-1.447c0.002-0.246,0.1-0.475,0.275-0.647
	c0.175-0.172,0.411-0.262,0.661-0.263h2.069c0.241,0,0.469,0.094,0.64,0.263c0.172,0.17,0.268,0.398,0.27,0.64v15.586H38.298z
	 M14.799,20.961c-0.263,0-0.522,0.026-0.776,0.078s-0.465,0.121-0.633,0.208v0.661c0.449-0.141,0.86-0.211,1.233-0.211
	c0.231,0,0.39,0.038,0.476,0.116c0.086,0.077,0.13,0.22,0.13,0.429v0.341c-0.263-0.059-0.504-0.089-0.722-0.089
	c-0.277,0-0.517,0.048-0.722,0.143c-0.204,0.096-0.361,0.226-0.47,0.391c-0.109,0.166-0.163,0.357-0.163,0.576
	c0,0.317,0.101,0.572,0.303,0.762c0.202,0.19,0.471,0.286,0.807,0.286c0.172,0,0.351-0.037,0.534-0.112
	c0.184-0.075,0.346-0.176,0.487-0.303l0.081,0.307h0.783v-2.41c0-0.404-0.108-0.7-0.324-0.888S15.266,20.961,14.799,20.961z
	 M15.228,23.704c-0.105,0.086-0.217,0.155-0.337,0.204c-0.121,0.05-0.237,0.075-0.351,0.075c-0.141,0-0.25-0.038-0.327-0.116
	c-0.077-0.077-0.116-0.186-0.116-0.327c0-0.317,0.197-0.477,0.592-0.477c0.159,0,0.338,0.017,0.538,0.048L15.228,23.704
	L15.228,23.704z M9.958,22.507l-1.287-2.683H7.555v4.718h0.898v-3.268l1.042,2.118h0.913l1.041-2.118v3.268h0.899v-4.718h-1.096
	L9.958,22.507z M33.066,20.614h2.363l-1.77,3.929h1.083l1.695-3.976v-0.742h-3.371V20.614z M29.866,22.507l-1.287-2.683h-1.117
	v4.718h0.899v-3.268l1.041,2.118h0.913l1.041-2.118v3.268h0.899v-4.718H31.16L29.866,22.507z M24.528,22.002
	c0.15-0.218,0.224-0.463,0.224-0.735c0-0.445-0.143-0.797-0.429-1.056c-0.286-0.258-0.674-0.388-1.164-0.388h-1.818v4.718h0.981
	V22.71h0.667l1.021,1.832h1.055l-1.17-2.029C24.168,22.39,24.379,22.221,24.528,22.002z M23.031,22.002h-0.708v-1.43h0.721
	c0.467,0,0.701,0.236,0.701,0.708C23.745,21.762,23.507,22.002,23.031,22.002z M19.068,20.961c-0.2,0-0.396,0.038-0.589,0.116
	c-0.193,0.077-0.357,0.182-0.493,0.313l-0.082-0.327h-0.817v4.882h0.994v-1.661c0.118,0.104,0.261,0.186,0.429,0.245
	c0.168,0.059,0.345,0.088,0.531,0.088c0.29,0,0.547-0.081,0.769-0.242c0.223-0.16,0.393-0.382,0.511-0.663
	c0.118-0.282,0.177-0.602,0.177-0.96c0-0.549-0.128-0.986-0.384-1.307C19.856,21.122,19.508,20.961,19.068,20.961z M19.309,23.61
	c-0.12,0.172-0.308,0.258-0.561,0.258c-0.245,0-0.468-0.062-0.667-0.184v-1.791c0.209-0.122,0.431-0.184,0.667-0.184
	c0.258,0,0.447,0.086,0.565,0.258c0.118,0.173,0.177,0.447,0.177,0.824C19.49,23.165,19.43,23.437,19.309,23.61z"/>
</svg>
