<?xml version="1.0" encoding="utf-8"?>
<!-- Generator: Adobe Illustrator 23.0.1, SVG Export Plug-In . SVG Version: 6.00 Build 0)  -->
<svg version="1.1" id="Layer_1" xmlns="http://www.w3.org/2000/svg" xmlns:xlink="http://www.w3.org/1999/xlink" x="0px" y="0px"
	 viewBox="0 0 40 40" style="enable-background:new 0 0 40 40;" xml:space="preserve">
<path d="M24.8,34.4h-2.4V32h-1.6v3.2c0,0.4,0.4,0.8,0.8,0.8h1l-2.6,2.2L17.4,36h1c0.4,0,0.8-0.4,0.8-0.8V32h-1.6v2.4h-2.4
	c-0.3,0-0.6,0.2-0.8,0.5c-0.1,0.3,0,0.7,0.2,0.9l4.8,4c0.1,0.1,0.3,0.2,0.5,0.2c0.2,0,0.4-0.1,0.5-0.2l4.8-4
	c0.2-0.2,0.3-0.4,0.3-0.6C25.6,34.8,25.3,34.4,24.8,34.4z M27.2,10L27,11.6c1.3,0.1,2.6,0.4,3.9,0.8c-1.4,0.6-5.4,1.2-10.9,1.2
	c-5.6,0-9.6-0.6-10.9-1.2c1.2-0.5,4.6-1.1,10.2-1.2V9.6c-10.9,0.1-12.1,2-12.1,2.8c0,0.1,0,0.1,0,0.2c0,0.1,0.1,0.2,0.1,0.3l0.2,0.3
	c0,0.1,0.1,0.1,0.1,0.2c0.1,0.1,0.2,0.1,0.3,0.2l8.9,14v2.1c0,0.4,0.2,0.7,0.5,0.8c0.9,0.3,1.8,0.5,2.7,0.5c0.9,0,1.8-0.2,2.6-0.5
	c0.3-0.1,0.5-0.4,0.5-0.7v-2.1l8.9-13.9c0,0,0,0,0,0c0.4-0.2,0.6-0.6,0.7-1.1C32.8,11.6,32.1,10.6,27.2,10z M21.7,26.8
	c-0.1,0.1-0.1,0.3-0.1,0.4V29c-1,0.3-2.2,0.3-3.2,0v-1.8c0-0.1,0-0.3-0.1-0.4l-8-12.4c2.5,0.6,6.2,0.8,9.7,0.8
	c3.4,0,7.1-0.3,9.6-0.8L21.7,26.8z M20.8,8v3.2c0,0.4,0.4,0.8,0.8,0.8h3.2c0.4,0,0.8-0.4,0.8-0.8V8c0-0.4-0.4-0.8-0.8-0.8h-3.2
	C21.2,7.2,20.8,7.6,20.8,8z M22.4,8.8H24v1.6h-1.6V8.8z M20,4.8h3.2C23.7,4.8,24,4.4,24,4V0.8C24,0.4,23.7,0,23.2,0H20
	c-0.4,0-0.8,0.4-0.8,0.8V4C19.2,4.4,19.6,4.8,20,4.8z M20.8,1.6h1.6v1.6h-1.6V1.6z M13.6,8.8h3.2c0.4,0,0.8-0.4,0.8-0.8V4.8
	c0-0.4-0.4-0.8-0.8-0.8h-3.2c-0.4,0-0.8,0.4-0.8,0.8V8C12.8,8.4,13.2,8.8,13.6,8.8z M14.4,5.6H16v1.6h-1.6V5.6z"/>
</svg>
