<?xml version="1.0" encoding="utf-8"?>
<!-- Generator: Adobe Illustrator 23.0.1, SVG Export Plug-In . SVG Version: 6.00 Build 0)  -->
<svg version="1.1" id="Layer_1" xmlns="http://www.w3.org/2000/svg" xmlns:xlink="http://www.w3.org/1999/xlink" x="0px" y="0px"
	 viewBox="0 0 40 40" style="enable-background:new 0 0 40 40;" xml:space="preserve">
<path d="M10.784,15.925H9.179v3.21h-3.21v1.605h3.21v3.21h1.605v-3.21h3.21v-1.605h-3.21V15.925z M33.455,23.549l-1.806-3.511
	l2.307-4.213c0.502,0.201,1.003,0.301,1.505,0.301c1.204,0,2.307-0.502,3.11-1.304c1.705-1.705,1.705-4.514,0-6.219
	s-4.514-1.705-6.219,0c-1.103,1.103-1.505,2.708-1.204,4.113l-2.909,0.903l-3.21-6.019c0,0,0,0,0.1-0.1
	c1.705-1.705,1.705-4.514,0-6.219s-4.514-1.705-6.219,0c-1.605,1.605-1.705,4.013-0.401,5.718l-3.511,4.614
	c-1.505-0.903-3.21-1.404-5.116-1.404c-5.317,0-9.73,4.414-9.73,9.73s4.414,9.73,9.73,9.73c1.705,0,3.411-0.502,4.915-1.304
	l3.511,4.815c-1.103,1.705-0.903,4.013,0.602,5.517C19.712,39.498,20.815,40,22.019,40s2.307-0.502,3.11-1.304
	c1.705-1.705,1.705-4.514,0-6.219c0,0,0,0-0.1,0l3.11-5.918l2.809,0.903c0,1.103,0.401,2.307,1.304,3.21
	c0.803,0.803,1.906,1.304,3.11,1.304c1.204,0,2.307-0.502,3.11-1.304c1.705-1.705,1.705-4.514,0-6.219
	C37.166,22.947,35.16,22.746,33.455,23.549z M33.354,9.605c1.103-1.103,2.909-1.103,4.013,0s1.103,2.909,0,4.013
	s-2.909,1.103-4.013,0l0,0C32.251,12.514,32.251,10.708,33.354,9.605z M31.749,14.119c0.201,0.201,0.301,0.401,0.502,0.602
	c0.1,0.1,0.201,0.1,0.301,0.201l-1.806,3.31l-1.806-3.31L31.749,14.119z M20.013,2.282c0.502-0.502,1.204-0.803,2.006-0.803l0,0
	c0.803,0,1.505,0.301,2.006,0.803c1.103,1.103,1.103,2.909,0,4.013s-2.909,1.103-4.013,0c0,0,0,0-0.1-0.1
	C18.909,5.091,18.909,3.386,20.013,2.282z M19.611,8c0.702,0.401,1.505,0.702,2.408,0.702c0.602,0,1.204-0.1,1.705-0.301
	l2.909,5.618l-7.624,2.307c-0.602-1.404-1.505-2.708-2.708-3.712L19.611,8z M9.981,28.063c-4.514,0-8.125-3.611-8.125-8.125
	s3.611-8.125,8.125-8.125c2.107,0,4.213,0.803,5.718,2.408c1.505,1.505,2.408,3.611,2.408,5.718
	C18.107,24.351,14.495,28.063,9.981,28.063z M24.025,37.592c-1.103,1.103-2.909,1.103-4.013,0c0,0,0,0-0.1-0.1
	c-1.103-1.103-1.003-2.909,0.1-3.912c0.502-0.502,1.204-0.803,2.006-0.803l0,0c0.803,0,1.505,0.301,2.006,0.803
	C25.129,34.683,25.129,36.489,24.025,37.592z M23.724,31.574c-1.404-0.602-3.009-0.401-4.313,0.502l-3.31-4.614
	c0.201-0.201,0.502-0.401,0.702-0.602c0.903-0.903,1.605-2.006,2.107-3.21l7.724,2.408L23.724,31.574z M27.436,24.552l-8.025-2.508
	c0.201-0.702,0.201-1.404,0.201-2.107s-0.1-1.404-0.201-2.006l8.025-2.508l2.408,4.614L27.436,24.552z M31.248,25.856l-2.307-0.702
	l1.806-3.31l1.404,2.708C31.749,24.853,31.448,25.354,31.248,25.856z M37.367,29.467c-1.103,1.103-2.909,1.103-4.013,0
	c-0.502-0.502-0.803-1.304-0.803-2.006c0-1.505,1.304-2.809,2.809-2.809l0,0c0.803,0,1.505,0.301,2.006,0.803
	C38.571,26.658,38.47,28.364,37.367,29.467z"/>
</svg>
