<?xml version="1.0" encoding="utf-8"?>
<!-- Generator: Adobe Illustrator 23.0.1, SVG Export Plug-In . SVG Version: 6.00 Build 0)  -->
<svg version="1.1" id="Layer_1" xmlns="http://www.w3.org/2000/svg" xmlns:xlink="http://www.w3.org/1999/xlink" x="0px" y="0px"
	 viewBox="0 0 40 40" style="enable-background:new 0 0 40 40;" xml:space="preserve">
<style type="text/css">
	.st0{fill:#231F20;}
</style>
<path class="st0" d="M34.015,17.66h5.134c0.47,0,0.851-0.381,0.851-0.851V9.626c0-0.47-0.381-0.851-0.851-0.851h-3.443
	c-2.413-1.886-5.797-4.376-6.872-5.164v-2.76c0-0.47-0.381-0.851-0.851-0.851H20.8c-0.47,0-0.851,0.381-0.851,0.851v5.875
	l-7.434,6.04H0.851C0.381,12.766,0,13.147,0,13.617v12.766c0,0.47,0.381,0.851,0.851,0.851h11.664l7.434,6.04v5.875
	c0,0.47,0.381,0.851,0.851,0.851h7.183c0.47,0,0.851-0.381,0.851-0.851v-2.76c1.075-0.788,4.459-3.278,6.872-5.163h3.443
	c0.47,0,0.851-0.381,0.851-0.851v-7.183c0-0.47-0.381-0.851-0.851-0.851h-5.134L32.413,20L34.015,17.66z M20.8,31.115
	c-0.211,0-0.398,0.085-0.547,0.212l-5.827-4.734c0.018-0.069,0.042-0.136,0.042-0.21v-4.138l11.679,3.895l-3.405,4.974H20.8V31.115z
	 M20.253,8.673C20.402,8.8,20.589,8.885,20.8,8.885h1.942l3.405,4.975l-11.68,3.895v-4.138c0-0.075-0.024-0.141-0.042-0.21
	L20.253,8.673z M14.468,20.45v-0.901l12.68-4.228L30.351,20l-3.203,4.679L14.468,20.45z M28.827,14.761l2.287-0.763v2.81
	c0,0.466,0.375,0.842,0.839,0.849l-0.572,0.836L28.827,14.761z M38.298,15.957h-5.481v-5.481h5.481V15.957z M32.915,8.775h-0.95
	c-0.47,0-0.851,0.381-0.851,0.851v2.578L27.827,13.3l-3.022-4.415h3.178c0.47,0,0.851-0.381,0.851-0.851V5.723
	C29.899,6.509,31.44,7.653,32.915,8.775z M21.651,1.702h5.48v5.481h-5.48V1.702z M1.702,14.468h11.064v11.064H1.702V14.468z
	 M27.132,38.298h-5.48v-5.481h5.48V38.298z M28.834,34.277v-2.311c0-0.47-0.381-0.851-0.851-0.851h-3.178l3.022-4.414l3.288,1.097
	v2.578c0,0.47,0.381,0.851,0.851,0.851h0.95C31.439,32.348,29.899,33.491,28.834,34.277z M38.298,29.524h-5.481v-5.481h5.481V29.524
	z M31.954,22.343c-0.465,0.006-0.84,0.382-0.84,0.849v2.811l-2.288-0.763l2.555-3.733L31.954,22.343z"/>
</svg>
