<?xml version="1.0" encoding="utf-8"?>
<!-- Generator: Adobe Illustrator 23.0.1, SVG Export Plug-In . SVG Version: 6.00 Build 0)  -->
<svg version="1.1" id="Layer_1" xmlns="http://www.w3.org/2000/svg" xmlns:xlink="http://www.w3.org/1999/xlink" x="0px" y="0px"
	 viewBox="0 0 40 40" style="enable-background:new 0 0 40 40;" xml:space="preserve">
<style type="text/css">
	.st0{fill:#231F20;}
</style>
<path class="st0" d="M39.149,17.66c0.47,0,0.851-0.381,0.851-0.851V9.626c0-0.47-0.381-0.851-0.851-0.851h-3.443
	c-2.413-1.886-5.797-4.376-6.872-5.164v-2.76c0-0.47-0.381-0.851-0.851-0.851H20.8c-0.47,0-0.851,0.381-0.851,0.851v5.875
	l-7.434,6.04H0.851C0.381,12.766,0,13.147,0,13.617v12.766c0,0.47,0.381,0.851,0.851,0.851h11.664l7.434,6.04v5.875
	c0,0.47,0.381,0.851,0.851,0.851h7.183c0.47,0,0.851-0.381,0.851-0.851v-2.76c1.075-0.788,4.459-3.278,6.872-5.163h3.443
	c0.47,0,0.851-0.381,0.851-0.851v-7.183c0-0.47-0.381-0.851-0.851-0.851h-5.134L32.413,20l1.602-2.341L39.149,17.66L39.149,17.66z
	 M21.651,1.702h5.48v5.481h-5.48V1.702z M20.253,8.673C20.402,8.8,20.589,8.885,20.8,8.885h1.942l3.407,4.977l-6.098,2.037v-2.282
	c0-0.47-0.381-0.851-0.851-0.851h-3.985L20.253,8.673z M31.954,17.657l-0.572,0.836l-2.554-3.731l2.286-0.764v2.81
	C31.115,17.274,31.489,17.651,31.954,17.657z M31.954,22.343c-0.465,0.006-0.84,0.382-0.84,0.849v2.81l-2.287-0.764l2.554-3.731
	L31.954,22.343z M30.351,20l-3.201,4.677l-7.098-2.371v-4.613l7.098-2.371L30.351,20z M1.702,25.532V14.468h16.647v11.064
	C18.349,25.532,1.702,25.532,1.702,25.532z M20.253,31.327l-5.038-4.093H19.2c0.47,0,0.851-0.381,0.851-0.851V24.1l6.098,2.037
	l-3.407,4.977H20.8C20.589,31.115,20.402,31.199,20.253,31.327z M27.132,38.298h-5.48v-5.481h5.48V38.298z M32.817,24.043h5.481
	v5.481h-5.481V24.043z M32.915,31.226c-1.476,1.122-3.016,2.265-4.081,3.051v-2.311c0-0.47-0.381-0.851-0.851-0.851h-3.178
	l3.023-4.416l3.287,1.098v2.578c0,0.47,0.381,0.851,0.851,0.851H32.915z M31.966,8.775c-0.47,0-0.851,0.381-0.851,0.851v2.578
	l-3.286,1.098l-3.023-4.416h3.178c0.47,0,0.851-0.381,0.851-0.851V5.723c1.065,0.785,2.606,1.929,4.081,3.051L31.966,8.775
	L31.966,8.775z M32.817,10.477h5.481v5.481h-5.481V10.477z M6.964,16.968H4.633v6.487h2.359c0.949,0,1.683-0.283,2.205-0.847
	c0.521-0.565,0.782-1.366,0.782-2.402c0-1.042-0.261-1.842-0.782-2.401C8.676,17.247,7.931,16.968,6.964,16.968z M8.537,20.3
	c0,1.38-0.565,2.069-1.694,2.069H6.037v-4.315h0.796c1.136,0,1.704,0.687,1.704,2.059C8.537,20.113,8.537,20.3,8.537,20.3z
	 M13.808,19.683l-0.693-0.253c-0.35-0.125-0.588-0.243-0.716-0.356c-0.128-0.112-0.192-0.255-0.192-0.431
	c0-0.474,0.368-0.711,1.105-0.711c0.518,0,1.08,0.094,1.685,0.281v-1.067c-0.587-0.224-1.186-0.337-1.797-0.337
	c-0.731,0-1.312,0.175-1.746,0.524c-0.434,0.35-0.651,0.818-0.651,1.405c0,0.455,0.122,0.832,0.365,1.128
	c0.244,0.296,0.643,0.547,1.198,0.753l0.711,0.262c0.368,0.138,0.613,0.263,0.735,0.375s0.182,0.265,0.182,0.459
	c0,0.249-0.1,0.441-0.3,0.576c-0.199,0.134-0.484,0.201-0.852,0.201c-0.287,0-0.608-0.028-0.964-0.085
	c-0.356-0.056-0.69-0.13-1.001-0.224v1.067c0.249,0.112,0.549,0.201,0.898,0.267s0.699,0.098,1.048,0.098
	c0.805,0,1.439-0.185,1.901-0.557c0.462-0.371,0.693-0.878,0.693-1.521c0-0.455-0.123-0.825-0.37-1.11
	C14.801,20.142,14.388,19.895,13.808,19.683z"/>
</svg>
