<?xml version="1.0" encoding="utf-8"?>
<!-- Generator: Adobe Illustrator 23.0.1, SVG Export Plug-In . SVG Version: 6.00 Build 0)  -->
<svg version="1.1" id="Layer_1" xmlns="http://www.w3.org/2000/svg" xmlns:xlink="http://www.w3.org/1999/xlink" x="0px" y="0px"
	 viewBox="0 0 40 40" style="enable-background:new 0 0 40 40;" xml:space="preserve">
<path d="M20,0C13.4,0,6.4,1.9,6.4,5.5v29.1c0,3.5,7,5.5,13.6,5.5s13.6-1.9,13.6-5.5V5.5C33.6,1.9,26.6,0,20,0z M32,34.5
	c0,1.6-4.6,3.9-12,3.9S8,36.1,8,34.5V8.1c2.4,1.8,7.3,2.8,12,2.8s9.6-1,12-2.8V34.5z M20,9.3c-7.4,0-12-2.2-12-3.8s4.6-3.9,12-3.9
	s12,2.2,12,3.9S27.4,9.3,20,9.3z M15.6,19.1c-1.5,0-2.8,1.3-2.8,2.8c0,0.9,0.4,1.6,1,2.1l-1.1,2.6c-0.1,0-0.2,0-0.3,0
	c-1.5,0-2.8,1.3-2.8,2.8c0,1.5,1.3,2.8,2.8,2.8s2.8-1.3,2.8-2.8c0-0.9-0.4-1.6-1-2.1l1.1-2.6c0.1,0,0.2,0,0.3,0c1,0,1.9-0.6,2.4-1.4
	l3.6,0.8c0.2,1.3,1.4,2.3,2.7,2.3c1.5,0,2.8-1.3,2.8-2.8c0-0.9-0.4-1.6-1-2.1l1.4-3.5c1.5,0,2.8-1.2,2.8-2.8c0,0,0,0,0,0
	c0-1.5-1.3-2.8-2.8-2.8c-1.5,0-2.8,1.3-2.8,2.8c0,1,0.5,1.8,1.3,2.3l-1.3,3.3c-0.1,0-0.2,0-0.3,0c-1.2,0-2.2,0.7-2.6,1.7l-3.4-0.8
	C18.3,20.3,17.1,19.1,15.6,19.1z M12.4,30.6c-0.7,0-1.2-0.5-1.2-1.2s0.5-1.2,1.2-1.2c0.7,0,1.2,0.5,1.2,1.2S13.1,30.6,12.4,30.6z
	 M15.6,23.1c-0.7,0-1.2-0.5-1.2-1.2s0.5-1.2,1.2-1.2s1.2,0.5,1.2,1.2S16.3,23.1,15.6,23.1z M27.6,14C27.6,14,27.6,14,27.6,14
	c0.7,0,1.2,0.6,1.2,1.2c0,0.6-0.6,1.2-1.2,1.2c-0.7,0-1.2-0.5-1.2-1.2C26.4,14.5,26.9,14,27.6,14z M24.4,22.4c0.7,0,1.2,0.5,1.2,1.2
	s-0.5,1.2-1.2,1.2s-1.2-0.5-1.2-1.2S23.7,22.4,24.4,22.4z"/>
</svg>
