<?xml version="1.0" encoding="utf-8"?>
<!-- Generator: Adobe Illustrator 23.0.1, SVG Export Plug-In . SVG Version: 6.00 Build 0)  -->
<svg version="1.1" id="Layer_1" xmlns="http://www.w3.org/2000/svg" xmlns:xlink="http://www.w3.org/1999/xlink" x="0px" y="0px"
	 viewBox="0 0 40 40" style="enable-background:new 0 0 40 40;" xml:space="preserve">
<path d="M36.78,23.076l-15.981,0c-1.75,0-3.174,1.407-3.196,3.156l0,10.571c0,1.765,1.431,3.196,3.196,3.196l15.981,0
	c1.753,0,3.179-1.411,3.196-3.164l0-10.603C39.954,24.483,38.53,23.076,36.78,23.076z M38.378,36.836
	c0,0.883-0.715,1.598-1.598,1.598l-15.981,0c-0.883,0-1.598-0.715-1.598-1.598l0-10.603c0.022-0.867,0.731-1.558,1.598-1.558
	l15.981,0c0.867,0,1.576,0.691,1.598,1.558L38.378,36.836z M33.903,30.795l-8.789-3.827c-0.248-0.108-0.533-0.084-0.759,0.064
	c-0.226,0.149-0.361,0.401-0.36,0.671l0,7.655c-0.001,0.27,0.134,0.523,0.36,0.671c0.133,0.081,0.284,0.125,0.439,0.128
	c0.11-0.001,0.218-0.023,0.32-0.064l8.789-3.835c0.289-0.126,0.477-0.411,0.479-0.727C34.384,31.211,34.195,30.923,33.903,30.795z
	 M25.593,34.135l0-5.218l5.993,2.613L25.593,34.135z M16.237,26.368l-0.463-1.486c-9.86,3.036-15.749,8.374-15.749,14.271
	c0,0.267,0.017,0.533,0.042,0.799h1.62c-0.031-0.266-0.064-0.531-0.064-0.799C1.622,34.039,7.215,29.157,16.237,26.368z
	 M9.612,38.618c0,0.011,0,0.784,0.015,1.334l1.583,0l0-1.334c0-3.356,2.797-5.689,5.194-7.048l-0.799-1.39
	C11.682,32.441,9.612,35.358,9.612,38.618z M0.024,12.503l0,2.262c3.481,2.908,9.89,4.429,16.195,5.211
	c-6.305,0.782-12.714,2.303-16.195,5.211l0,2.262c3.326-4.183,14.548-6.674,30.172-6.673l9.78,0v-1.598l-9.78,0
	C14.572,19.177,3.35,16.687,0.024,12.503z M36.732,12.657c-14.551,0-25.521-4.866-25.521-11.323l0-1.334L9.612,0
	c0,0.551,0,1.334,0,1.334c0,7.455,11.402,12.921,27.12,12.921l3.244,0v-1.598L36.732,12.657z M1.622,0.799
	C1.627,0.531,1.663,0.265,1.697,0L0.063,0c-0.024,0.266-0.04,0.532-0.039,0.799c0,9.229,14.758,16.716,32.905,16.716l7.048,0v-1.63
	l-7.048,0C15.669,15.885,1.622,9.117,1.622,0.799z"/>
</svg>
