<?xml version="1.0" encoding="utf-8"?>
<!-- Generator: Adobe Illustrator 23.0.1, SVG Export Plug-In . SVG Version: 6.00 Build 0)  -->
<svg version="1.1" id="Layer_1" xmlns="http://www.w3.org/2000/svg" xmlns:xlink="http://www.w3.org/1999/xlink" x="0px" y="0px"
	 viewBox="0 0 40 40" style="enable-background:new 0 0 40 40;" xml:space="preserve">
<path d="M8,11.8H0.8c-0.4,0-0.8,0.4-0.8,0.8v25.6C0,38.6,0.4,39,0.8,39H8c0.4,0,0.8-0.4,0.8-0.8V12.6C8.8,12.2,8.4,11.8,8,11.8z
	 M7.2,37.4H1.6v-24h5.6V37.4z M12,8.6h5.6V11h1.6V7.8c0-0.4-0.4-0.8-0.8-0.8h-7.2c-0.4,0-0.8,0.4-0.8,0.8v10.4H12V8.6z M17.6,37.4
	H12V26.2h-1.6v12c0,0.4,0.4,0.8,0.8,0.8h7.2c0.4,0,0.8-0.4,0.8-0.8v-4.8h-1.6V37.4z M22.4,2.2H28v9.6h1.6V1.4c0-0.4-0.4-0.8-0.8-0.8
	h-7.2c-0.4,0-0.8,0.4-0.8,0.8v8.8h1.6V2.2z M28,37.4h-5.6v-3.2h-1.6v4c0,0.4,0.4,0.8,0.8,0.8h7.2c0.4,0,0.8-0.4,0.8-0.8V35H28V37.4z
	 M39.2,4.6H32c-0.4,0-0.8,0.4-0.8,0.8V15h1.6V6.2h5.6v25.6H40V5.4C40,5,39.6,4.6,39.2,4.6z M21.1,16.7c-2.8,0.4-4.8,3.1-4.3,5.9
	c0.2,1.4,0.9,2.6,2.1,3.4l0.9-1.3c-1.6-1.2-1.9-3.4-0.7-5c1.2-1.6,3.4-1.9,5-0.7l1-1.3C23.9,16.9,22.5,16.5,21.1,16.7z M31.9,26.5
	c0.6-1.3,0.9-2.8,0.9-4.3c0-5.7-4.7-10.4-10.4-10.4S12,16.5,12,22.2s4.7,10.4,10.4,10.4c1.8,0,3.4-0.4,4.9-1.2l7,7
	c0.6,0.6,1.5,1,2.4,1v0c0.9,0,1.7-0.3,2.3-1c1.3-1.3,1.3-3.4,0-4.7L31.9,26.5z M22.4,31c-4.9,0-8.8-3.9-8.8-8.8s3.9-8.8,8.8-8.8
	s8.8,3.9,8.8,8.8S27.3,31,22.4,31z M37.9,37.6c-0.8,0.6-1.8,0.4-2.4-0.3l-6.8-6.8c0.9-0.7,1.7-1.6,2.4-2.5l6.8,6.9
	c0.1,0.1,0.2,0.2,0.3,0.3C38.8,35.9,38.6,37,37.9,37.6z"/>
</svg>
