<?xml version="1.0" encoding="utf-8"?>
<!-- Generator: Adobe Illustrator 23.0.1, SVG Export Plug-In . SVG Version: 6.00 Build 0)  -->
<svg version="1.1" id="Layer_1" xmlns="http://www.w3.org/2000/svg" xmlns:xlink="http://www.w3.org/1999/xlink" x="0px" y="0px"
	 viewBox="0 0 40 40" style="enable-background:new 0 0 40 40;" xml:space="preserve">
<path d="M29.776,15.988l-8.976-1.99v-1.226c0-0.442-0.358-0.8-0.8-0.8h-4c-0.442,0-0.8,0.358-0.8,0.8v14.4
	c0,0.442,0.358,0.8,0.8,0.8h4c0.442,0,0.8-0.358,0.8-0.8v-1.21l8.976-1.99c0.372-0.084,0.633-0.419,0.624-0.8v-6.4
	C30.402,16.397,30.142,16.071,29.776,15.988z M19.2,26.372h-2.4v-12.8h2.4V26.372z M28.8,22.532l-8,1.776v-8.672l8,1.776V22.532z
	 M32.04,19.172v1.6c2.667-0.02,5.328,0.173,7.96,0.572v-2.631C37.365,19.076,34.704,19.231,32.04,19.172z M32.04,16.772v1.6
	c2.707,0.058,5.391-0.326,7.96-1.103v-1.66C37.442,16.438,34.751,16.836,32.04,16.772z M32.04,23.172
	c2.716-0.07,5.409,0.34,7.96,1.199v-1.655c-2.563-0.805-5.249-1.204-7.96-1.144V23.172z M0.048,36.772v3.2h0.941l0.659-0.056v-3.144
	c0-6.719,5.739-9.242,11.952-10.005v-1.619C2.538,26.408,0.048,31.992,0.048,36.772z M0,28.242c3.533-2.276,8.229-3.713,13.6-4.188
	v-1.618C8.338,22.875,3.667,24.234,0,26.369V28.242z M0,18.826c1.9,0.538,3.928,0.94,5.953,1.235
	C3.927,20.355,1.899,20.758,0,21.296v1.666c4.323-1.295,9.465-1.813,13.6-2.002v-1.799c-4.131-0.188-9.275-0.705-13.6-2V18.826z
	 M1.672,3.276c0-0.184,0-3.248,0-3.248h-1.6c0,0,0,3.024,0,3.2c0,4.811,2.498,10.45,13.528,11.73v-1.566
	C3.888,12.195,1.672,7.4,1.672,3.276z M0,13.712c3.665,2.142,8.341,3.491,13.6,3.925v-1.595C8.223,15.583,3.528,14.134,0,11.834
	V13.712z"/>
</svg>
