<?xml version="1.0" encoding="utf-8"?>
<!-- Generator: Adobe Illustrator 23.0.1, SVG Export Plug-In . SVG Version: 6.00 Build 0)  -->
<svg version="1.1" id="Layer_1" xmlns="http://www.w3.org/2000/svg" xmlns:xlink="http://www.w3.org/1999/xlink" x="0px" y="0px"
	 viewBox="0 0 40 40" style="enable-background:new 0 0 40 40;" xml:space="preserve">
<path d="M0.056,38.992C0.058,39.329,0.084,39.665,0.122,40h1.615c-0.049-0.334-0.08-0.67-0.081-1.008
	C1.656,30.728,15.696,24,32.952,24H40v-1.6h-7.048C14.816,22.4,0.056,29.848,0.056,38.992z M0,12.413v2.283
	C3.493,17.664,9.956,19.209,16.299,20C9.956,20.791,3.493,22.336,0,25.305v2.283C3.31,23.332,14.556,20.8,30.208,20.8H40v-1.6
	h-9.792C14.556,19.2,3.31,16.668,0,12.413z M9.016,38.448c0,0.013,0.026,1.031,0.036,1.552h1.564v-1.552
	C10.616,32,21.824,27.2,36.688,27.2H40v-1.6h-3.312C20.656,25.6,9.016,31,9.016,38.448z M36.728,12.8
	c-14.872,0-26.072-4.848-26.072-11.248V0H9.038C9.016,0.524,9.016,1.552,9.016,1.552C9.016,9,20.688,14.4,36.688,14.4H40v-1.6
	H36.728z M1.672,1.008C1.673,0.67,1.704,0.334,1.753,0H0.122C0.084,0.335,0.058,0.671,0.056,1.008
	c0,9.144,14.76,16.592,32.896,16.592H40V16h-7.048C15.696,16,1.656,9.272,1.672,1.008z"/>
</svg>
