<?xml version="1.0" encoding="utf-8"?>
<!-- Generator: Adobe Illustrator 23.0.1, SVG Export Plug-In . SVG Version: 6.00 Build 0)  -->
<svg version="1.1" id="Layer_1" xmlns="http://www.w3.org/2000/svg" xmlns:xlink="http://www.w3.org/1999/xlink" x="0px" y="0px"
	 viewBox="0 0 40 40" style="enable-background:new 0 0 40 40;" xml:space="preserve">
<style type="text/css">
	.st0{fill:#231F20;}
</style>
<path class="st0" d="M38.9,33.5l-3.7-3.7c2.1-3.1,3.3-6.8,3.2-10.6c0-7.4-4.2-14.1-10.9-17.3C18-2.7,6.6,1.3,2,10.9l1.4,0.7
	c2.9-6.1,9.1-10,15.8-10c9.7,0,17.6,7.9,17.6,17.6c0,3.4-1,6.7-2.8,9.5l-3-3c0.9-1.8,1.5-3.9,1.5-6.1c0-7.3-5.9-13.2-13.2-13.2
	c-5.7,0-10.6,3.7-12.4,8.8H1.6v1.6h4.8c-0.2,0.8-0.3,1.6-0.3,2.4H0v1.6h6.2c0.1,0.8,0.2,1.6,0.4,2.4h-5v1.6h5.5c2,4.7,6.7,8,12.1,8
	c2.3,0,4.5-0.6,6.4-1.7l2.9,2.9c-8.1,5.1-18.8,2.9-24.1-5.1l-1.3,0.9c3.6,5.4,9.6,8.6,16,8.6c3.8,0,7.4-1.1,10.6-3.2l3.7,3.7
	c0.7,0.7,1.7,1.1,2.7,1.1c1,0,1.9-0.4,2.7-1.1C40.4,37.4,40.4,35,38.9,33.5z M19.3,31.2c-6.4,0-11.6-5.2-11.6-11.6S12.9,8,19.3,8
	c6.4,0,11.6,5.2,11.6,11.6C30.9,26,25.7,31.2,19.3,31.2z M37.8,37.8c-0.9,0.8-2.2,0.8-3.1,0l-7.5-7.5c1.2-0.9,2.2-1.9,3.1-3.2
	l7.6,7.6c0,0,0,0,0,0C38.6,35.5,38.6,36.9,37.8,37.8z M25.2,19l0.5-3.9l0,0c0,0,0,0,0-0.1v-0.2c0,0,0-0.1,0-0.1
	c0-1.9-4.2-2.6-6.8-2.6c-2.6,0-6.8,0.7-6.8,2.6c0,0,0,0.1,0,0.1v0.1c0,0,0,0.1,0,0.1c0,0,0,0,0,0l0,0l1.3,10c0.1,2,4.9,2,5.4,2
	c1,0,2.1-0.1,3.1-0.3c0.3-0.1,0.7-0.2,1-0.3c0.9-0.3,1.4-0.8,1.4-1.4l0.4-3.1c0.3,0.1,0.6,0.1,0.8,0.1c0.4,0,0.8-0.2,1-0.5
	c0.1-0.2,0.2-0.5,0.1-0.8C26.6,20.2,25.8,19.4,25.2,19z M23.5,19.8c-1.2-0.5-2.3-1-3.5-1.5c-0.2-0.4-0.6-0.8-1.1-0.8
	c-0.6,0-1.2,0.5-1.2,1.2s0.5,1.2,1.2,1.2c0.1,0,0.3,0,0.4-0.1c1.7,0.8,3,1.4,3.9,1.7l-0.4,3.3c-0.1,0.1-0.2,0.1-0.4,0.2
	c-0.3,0.1-0.5,0.2-0.8,0.2c-0.9,0.2-1.8,0.3-2.7,0.3c-1.3,0.1-2.6-0.2-3.9-0.7L14,16.4c1.9,0.6,4.5,0.7,5,0.7c0.4,0,3.1,0,5-0.7
	L23.5,19.8z M18.9,15.5c-1.7,0.1-3.4-0.2-5-0.8v0c1.6-0.7,3.3-1,5-1c1.7-0.1,3.5,0.3,5,1C22.4,15.3,20.7,15.6,18.9,15.5z"/>
</svg>
