<?xml version="1.0" encoding="utf-8"?>
<!-- Generator: Adobe Illustrator 23.0.1, SVG Export Plug-In . SVG Version: 6.00 Build 0)  -->
<svg version="1.1" id="Layer_1" xmlns="http://www.w3.org/2000/svg" xmlns:xlink="http://www.w3.org/1999/xlink" x="0px" y="0px"
	 viewBox="0 0 40 40" style="enable-background:new 0 0 40 40;" xml:space="preserve">
<style type="text/css">
	.st0{fill:#231F20;}
</style>
<path class="st0" d="M39.226,12.777c-0.495-0.491-1.123-0.733-1.848-0.756h-2.051c-0.701,0.021-1.361,0.259-1.861,0.75
	c-0.5,0.49-0.779,1.146-0.785,1.854v0.604h-2.23v-0.724c-0.015-1.434-1.188-2.595-2.616-2.595h-3.792v-0.925
	c-0.008-1.224-1.014-2.199-2.23-2.207H18.46V6.497h4.732V4.795H12.025v1.702h4.732v2.281h-3.396c-1.217,0-2.214,0.99-2.222,2.213
	v0.945H6.604c-1.435,0-2.606,1.164-2.613,2.604v6.213H1.702v-7.932H0v17.558h1.702v-7.924h2.289v6.558
	c0.007,1.225,1.007,2.217,2.226,2.217h9.213c0.145,2.224,2.002,3.975,4.232,3.975c0.025,0,0.049,0,0.074-0.001h6.434
	c2.346,0,4.255-1.909,4.255-4.255v-1.32h2.29v0.591c0.006,1.428,1.173,2.595,2.604,2.601h2.023c0.014,0.001,0.029,0,0.044,0.001
	c1.435,0,2.606-1.164,2.614-2.605V14.621C39.997,13.923,39.722,13.268,39.226,12.777z M38.298,30.212
	c-0.002,0.495-0.401,0.896-0.896,0.907c-0.011-0.001-0.022-0.001-0.032-0.001h-2.048c-0.497-0.002-0.903-0.408-0.905-0.902v-1.439
	c0-0.47-0.381-0.851-0.851-0.851h-3.992c-0.47,0-0.851,0.381-0.851,0.851v2.171c0,1.408-1.145,2.553-2.553,2.553h-6.449
	c-1.394-0.016-2.573-1.1-2.598-2.553v-0.57c0-0.47-0.381-0.851-0.851-0.851H6.222c-0.29,0-0.527-0.234-0.529-0.519V14.544
	c0.002-0.501,0.411-0.906,0.923-0.906h5.375c0.47,0,0.851-0.381,0.851-0.851v-1.79c0.002-0.285,0.235-0.517,0.519-0.517h8.459
	c0.285,0,0.518,0.231,0.519,0.511v1.77c0,0.47,0.381,0.851,0.851,0.851h4.639c0.502,0,0.913,0.407,0.918,0.902v1.566
	c0,0.47,0.381,0.851,0.851,0.851h3.932c0.47,0,0.851-0.381,0.851-0.851v-1.447c0.002-0.246,0.1-0.475,0.275-0.647
	c0.175-0.172,0.411-0.262,0.661-0.263h2.069c0.241,0,0.469,0.094,0.64,0.263c0.172,0.17,0.268,0.398,0.27,0.64v15.586H38.298z"/>
</svg>
