<?xml version="1.0" encoding="utf-8"?>
<!-- Generator: Adobe Illustrator 23.0.1, SVG Export Plug-In . SVG Version: 6.00 Build 0)  -->
<svg version="1.1" id="Layer_1" xmlns="http://www.w3.org/2000/svg" xmlns:xlink="http://www.w3.org/1999/xlink" x="0px" y="0px"
	 viewBox="0 0 40 40" style="enable-background:new 0 0 40 40;" xml:space="preserve">
<path d="M40,14.9c0-1.5-1.2-2.7-2.7-2.7h-1.8c-1.5,0-2.7,1.2-2.7,2.7v0.2h-9.6v-4.8h1.3c0.5,0.5,1.2,0.8,1.9,0.8
	c1.7-0.1,3-1.5,2.9-3.2c0.1-1.7-1.2-3.1-2.9-3.2c-0.7,0-1.4,0.3-1.9,0.8h-1.3c-0.1-1.9-1.5-3.5-3.2-3.5c-1.7,0-3.1,1.5-3.2,3.5h-1.3
	c-0.5-0.5-1.2-0.8-1.9-0.8c-1.7,0.1-3,1.5-2.9,3.2c-0.1,1.7,1.2,3.1,2.9,3.2c0.7,0,1.5-0.3,2-0.8h1.2v4.8H7.2v-0.3c0,0,0,0,0-0.1
	c0-1.5-1.3-2.7-2.7-2.6H2.7c-1.5,0-2.7,1.2-2.7,2.7v20.3c0,0,0,0,0,0c0,1.5,1.2,2.7,2.7,2.6h1.8c0,0,0,0,0,0c1.5,0,2.7-1.2,2.7-2.7
	h25.6c0,1.5,1.2,2.7,2.7,2.7h1.8c0,0,0,0,0,0c1.5,0,2.7-1.2,2.7-2.7L40,14.9C40,14.9,40,14.9,40,14.9z M35.5,13.9l1.9,0
	c0.6,0,1.1,0.5,1.1,1.1v1.8h-4v-1.8C34.4,14.4,34.9,13.9,35.5,13.9z M32.8,29.6H7.2V20h25.6V29.6z M5.6,32h-4V18.4h4V32z M34.4,18.4
	h4V32h-4V18.4z M20,3.7c0.8,0,1.5,0.8,1.6,1.9h-3.2C18.5,4.5,19.2,3.7,20,3.7z M15.2,8.8c-0.3,0-0.5,0.1-0.7,0.3
	c-0.2,0.3-0.6,0.5-1,0.5c-0.8-0.1-1.4-0.8-1.3-1.6c-0.1-0.8,0.5-1.5,1.3-1.6c0.4,0,0.8,0.2,1,0.5c0.2,0.2,0.4,0.3,0.6,0.3h9.6
	c0.2,0,0.5-0.1,0.6-0.3c0.2-0.3,0.6-0.5,1-0.5c0.8,0.1,1.4,0.8,1.3,1.6c0.1,0.8-0.5,1.5-1.3,1.6c-0.4,0-0.7-0.2-1-0.5
	c-0.2-0.2-0.4-0.3-0.6-0.3H15.2z M18.4,10.4h3.2v4.8h-3.2V10.4z M32.8,16.8v1.6H7.2v-1.6H32.8z M1.6,14.9c0-0.6,0.5-1.1,1.1-1l1.8,0
	c0,0,0,0,0,0c0.6,0,1.1,0.5,1.1,1.1v1.9h-4L1.6,14.9C1.6,14.9,1.6,14.9,1.6,14.9z M5.6,35.3c0,0.6-0.6,1-1.1,1H2.7c0,0,0,0,0,0
	c-0.6,0-1.1-0.5-1.1-1.1v-1.6h4L5.6,35.3C5.6,35.2,5.6,35.2,5.6,35.3z M7.2,33.6v-2.4h25.6v2.4H7.2z M38.4,35.2
	c0,0.6-0.5,1.1-1.1,1.1h-1.8c-0.6,0-1.1-0.5-1.1-1.1v-1.6h4L38.4,35.2C38.4,35.2,38.4,35.2,38.4,35.2z"/>
</svg>
