<?xml version="1.0" encoding="utf-8"?>
<!-- Generator: Adobe Illustrator 23.0.1, SVG Export Plug-In . SVG Version: 6.00 Build 0)  -->
<svg version="1.1" id="Layer_1" xmlns="http://www.w3.org/2000/svg" xmlns:xlink="http://www.w3.org/1999/xlink" x="0px" y="0px"
	 viewBox="0 0 40 40" style="enable-background:new 0 0 40 40;" xml:space="preserve">
<path d="M37,37H3v-2.9H1.5v3.7c0,0.4,0.3,0.8,0.8,0.8h35.5c0.4,0,0.8-0.3,0.8-0.8V12.6H37V37z M3,3h34v0.7h1.5V2.2
	c0-0.4-0.3-0.8-0.8-0.8H2.2c-0.4,0-0.8,0.3-0.8,0.8v22.9H3V3z M37,5.2c-1.7,0-3,1.3-3,3c0,0.5,0.1,0.9,0.3,1.3L21.5,22.6
	c-0.2-0.1-0.4-0.2-0.7-0.3v-6.1c1.3-0.3,2.2-1.5,2.2-2.9v0c0-1.7-1.3-3-3-3c-1.7,0-3,1.3-3,3c0,0.3,0.1,0.7,0.2,1L4.4,27
	C4,26.8,3.5,26.6,3,26.6c-1.6,0-3,1.3-3,3c0,1.6,1.3,3,3,3h0c1.6,0,3-1.3,3-3C6,29,5.8,28.5,5.5,28l12.5-12.4
	c0.3,0.3,0.7,0.5,1.2,0.6v6.1c-1.3,0.3-2.2,1.5-2.2,2.9c0,1.7,1.3,3,3,3c1.6,0,3-1.3,3-3v0c0-0.6-0.2-1.1-0.4-1.5l12.8-13
	c0.5,0.3,1,0.5,1.7,0.5c1.6,0,3-1.3,3-3v0C40,6.5,38.7,5.2,37,5.2z M3,31.1c-0.8,0-1.4-0.6-1.5-1.4c0-0.8,0.6-1.4,1.4-1.5h0
	c0.8,0,1.4,0.6,1.4,1.4C4.4,30.4,3.8,31.1,3,31.1z M18.5,13.3c0-0.8,0.7-1.5,1.5-1.4c0.8,0,1.4,0.7,1.4,1.5v0c0,0.8-0.7,1.5-1.5,1.4
	C19.2,14.8,18.5,14.1,18.5,13.3z M21.4,25.2c0,0.8-0.7,1.5-1.5,1.4c-0.8,0-1.5-0.7-1.4-1.5c0-0.8,0.7-1.5,1.5-1.4
	C20.8,23.7,21.4,24.4,21.4,25.2C21.4,25.2,21.4,25.2,21.4,25.2z M38.5,8.2c0,0.8-0.7,1.5-1.5,1.4c-0.8,0-1.5-0.7-1.4-1.5
	c0-0.8,0.7-1.5,1.5-1.4C37.8,6.7,38.5,7.4,38.5,8.2L38.5,8.2z"/>
</svg>
