<?xml version="1.0" encoding="utf-8"?>
<!-- Generator: Adobe Illustrator 23.0.1, SVG Export Plug-In . SVG Version: 6.00 Build 0)  -->
<svg version="1.1" id="Layer_1" xmlns="http://www.w3.org/2000/svg" xmlns:xlink="http://www.w3.org/1999/xlink" x="0px" y="0px"
	 viewBox="0 0 40 40" style="enable-background:new 0 0 40 40;" xml:space="preserve">
<style type="text/css">
	.st0{fill:#231F20;}
</style>
<path class="st0" d="M34.023,17.663h5.127c0.47,0,0.85-0.381,0.85-0.85V9.639c0-0.469-0.38-0.85-0.85-0.85h-3.439
	c-2.41-1.883-5.789-4.37-6.863-5.157V0.876c0-0.469-0.38-0.85-0.85-0.85h-7.173c-0.47,0-0.85,0.381-0.85,0.85v5.868L14.07,11.54
	c-1.458-0.939-3.996-1.383-6.42-1.383c-3.447,0-7.139,0.892-7.6,2.839H0c0,0.072,0.015,0.139,0.023,0.208
	C0.015,13.274,0,13.341,0,13.413v13.744c0,2.237,3.966,3.255,7.65,3.255c2.645,0,5.427-0.528,6.791-1.653l5.534,4.497v5.868
	c0,0.47,0.38,0.85,0.85,0.85h7.173c0.47,0,0.85-0.38,0.85-0.85v-2.756c1.074-0.787,4.454-3.274,6.863-5.157h3.439
	c0.47,0,0.85-0.38,0.85-0.85v-7.174c0-0.47-0.38-0.85-0.85-0.85h-5.127L32.423,20L34.023,17.663z M20.825,31.1
	c-0.211,0-0.398,0.085-0.546,0.212l-4.99-4.055c0.002-0.034,0.011-0.066,0.011-0.101v-4.652l10.866,3.627L22.765,31.1H20.825z
	 M20.279,8.687c0.149,0.127,0.335,0.212,0.546,0.212h1.94l3.401,4.969L15.3,17.494v-4.082c0-0.072-0.015-0.139-0.023-0.208
	c0.008-0.069,0.023-0.136,0.023-0.208h-0.05c-0.014-0.06-0.041-0.116-0.061-0.174L20.279,8.687z M15.3,20.713v-1.427l11.865-3.959
	L30.363,20l-3.198,4.673L15.3,20.713z M28.842,14.768l2.284-0.762v2.806c0,0.465,0.374,0.841,0.838,0.848l-0.572,0.835
	L28.842,14.768z M38.3,15.963h-5.474v-5.474H38.3V15.963z M32.924,8.789h-0.949c-0.47,0-0.85,0.381-0.85,0.85v2.575l-3.283,1.095
	l-3.018-4.41h3.173c0.47,0,0.85-0.381,0.85-0.85V5.742C29.912,6.526,31.451,7.668,32.924,8.789z M21.675,1.725h5.473v5.474h-5.473
	V1.725z M13.471,13.204c-0.488,0.493-2.462,1.347-5.821,1.347s-5.333-0.854-5.821-1.347c0.488-0.493,2.462-1.347,5.821-1.347
	S12.983,12.711,13.471,13.204z M7.65,28.712c-3.904,0-5.95-1.155-5.95-1.556v-12.02c1.497,0.755,3.769,1.115,5.95,1.115
	s4.453-0.36,5.95-1.115v12.02C13.6,27.557,11.554,28.712,7.65,28.712z M27.148,38.275h-5.473V32.8h5.473V38.275z M28.848,34.258
	V31.95c0-0.47-0.38-0.85-0.85-0.85h-3.174l3.018-4.409l3.283,1.096v2.575c0,0.47,0.38,0.85,0.85,0.85h0.948
	C31.45,32.332,29.912,33.474,28.848,34.258z M38.3,29.512h-5.474v-5.474H38.3V29.512z M31.964,22.34
	c-0.464,0.006-0.839,0.382-0.839,0.848v2.807l-2.284-0.762l2.551-3.727L31.964,22.34z"/>
</svg>
