<?xml version="1.0" encoding="utf-8"?>
<!-- Generator: Adobe Illustrator 23.0.1, SVG Export Plug-In . SVG Version: 6.00 Build 0)  -->
<svg version="1.1" id="Layer_1" xmlns="http://www.w3.org/2000/svg" xmlns:xlink="http://www.w3.org/1999/xlink" x="0px" y="0px"
	 viewBox="0 0 40 40" style="enable-background:new 0 0 40 40;" xml:space="preserve">
<path d="M39.2,20.8H18.4c-0.442,0-0.8,0.358-0.8,0.8V40H40V21.6C40,21.158,39.642,20.8,39.2,20.8z M23.2,38.4h-1.6V32h1.6V38.4z
	 M29.6,38.4H28v-8.8h1.6V38.4z M36,38.4h-1.6v-12H36V38.4z M38.4,38.4h-0.8V25.6c0-0.442-0.358-0.8-0.8-0.8h-3.2
	c-0.442,0-0.8,0.358-0.8,0.8v12.8h-1.6v-9.6c0-0.442-0.358-0.8-0.8-0.8h-3.2c-0.442,0-0.8,0.358-0.8,0.8v9.6h-1.6v-7.2
	c0-0.442-0.358-0.8-0.8-0.8h-3.2c-0.442,0-0.8,0.358-0.8,0.8v7.2h-0.8v-16h19.2V38.4z M16.104,21.632l-0.208-1.6
	C8.249,21.019,2.933,22.786,0,25.29v2.276C2.19,24.721,7.735,22.699,16.104,21.632z M9.016,38.512c0,0.013,0,0.948,0.019,1.488
	h1.581v-1.488c0-3.488,3.128-5.864,5.76-7.248l-0.752-1.408C11.304,32.112,9.016,35.12,9.016,38.512z M16.232,26.4l-0.464-1.56
	c-9.84,2.976-15.712,8.312-15.712,14.176C0.055,39.345,0.08,39.673,0.117,40h1.616c-0.045-0.318-0.077-0.638-0.078-0.96
	C1.656,34,7.24,29.152,16.232,26.4z M1.672,1.008C1.673,0.67,1.704,0.334,1.753,0H0.122C0.084,0.335,0.058,0.671,0.056,1.008
	c0,9.144,14.76,16.592,32.896,16.592H40V16h-7.048C15.696,16,1.656,9.272,1.672,1.008z M36.728,12.8
	c-14.872,0-26.072-4.848-26.072-11.248V0H9.038C9.016,0.524,9.016,1.552,9.016,1.552C9.016,9,20.688,14.4,36.688,14.4H40v-1.6
	H36.728z M0,12.408v2.286C2.988,17.24,8.473,19.024,16.376,20l0.192-1.6C7.937,17.341,2.225,15.279,0,12.408z"/>
</svg>
