<?xml version="1.0" encoding="utf-8"?>
<!-- Generator: Adobe Illustrator 23.0.1, SVG Export Plug-In . SVG Version: 6.00 Build 0)  -->
<svg version="1.1" id="Layer_1" xmlns="http://www.w3.org/2000/svg" xmlns:xlink="http://www.w3.org/1999/xlink" x="0px" y="0px"
	 viewBox="0 0 40 40" style="enable-background:new 0 0 40 40;" xml:space="preserve">
<g id="ICONS_-_EDIT">
	<path d="M14.7,29.8C6.6,29.8,0,23.2,0,15S6.6,0.3,14.7,0.3S29.5,6.9,29.5,15C29.5,23.2,22.9,29.8,14.7,29.8z M14.7,1.9
		C7.5,1.9,1.6,7.8,1.6,15s5.9,13.1,13.1,13.1S27.9,22.3,27.9,15C27.9,7.8,22,1.9,14.7,1.9z"/>
	<path d="M35.5,39.7c-1.2,0-2.3-0.5-3.2-1.3L21.4,27.5l1.1-1.1l10.9,10.9c1.1,1.1,3,1.1,4.1,0s1.1-3,0-4.1L26.5,22.1l1.1-1.1
		l11,11.1c1.7,1.8,1.7,4.6,0,6.3C37.8,39.2,36.7,39.7,35.5,39.7L35.5,39.7z"/>
	<path d="M30.8,21.1l-0.1-1.6c0.8-0.1,1.6-0.3,2.2-0.8c0.8-0.6,1.4-1.5,1.4-2.5c0-1.6-1.2-2.9-2.8-3c-0.2,0-0.4-0.1-0.5-0.3
		c-0.1-0.2-0.2-0.4-0.2-0.6l0-0.1c0-0.8-0.5-1.5-1.3-1.7L29.9,9c1.3,0.3,2.4,1.4,2.6,2.7c2.5,0.6,4,3,3.4,5.5c-0.3,1.2-1,2.2-2,2.8
		C33,20.6,31.9,21,30.8,21.1z"/>
	<path d="M23.9,23.5H11.4c-3.2,0-5.8-2.6-5.8-5.8c0-0.3,0-0.7,0.1-1c0,0,0,0,0-0.1c0.4-1.9,1.6-3.4,3.4-4.2c0.1-1.6,0.8-3.2,1.9-4.4
		c2.7-3.1,7.5-3.3,10.5-0.6c0.6,0.6,1.2,1.2,1.6,2c0.8-0.4,1.7-0.5,2.6-0.3l-0.3,1.6c-0.7-0.2-1.5,0.1-2,0.6c-0.3,0.3-0.8,0.3-1.1,0
		C22,11.1,22,11.1,22,11c-1.2-3-4.5-4.5-7.5-3.4c-2.3,0.9-3.7,3-3.8,5.4c0,0.4-0.2,0.7-0.6,0.8c-1.4,0.5-2.5,1.7-2.8,3.1
		c0,0,0,0,0,0c0,0.3-0.1,0.5-0.1,0.8c0,2.3,1.9,4.2,4.2,4.2c0,0,0,0,0,0h12.5V23.5z"/>
</g>
</svg>
