<?xml version="1.0" encoding="utf-8"?>
<!-- Generator: Adobe Illustrator 23.0.1, SVG Export Plug-In . SVG Version: 6.00 Build 0)  -->
<svg version="1.1" id="Layer_1" xmlns="http://www.w3.org/2000/svg" xmlns:xlink="http://www.w3.org/1999/xlink" x="0px" y="0px"
	 viewBox="0 0 40 40" style="enable-background:new 0 0 40 40;" xml:space="preserve">
<style type="text/css">
	.st0{fill:#231F20;}
</style>
<path class="st0" d="M30.375,23.94H9.625v1.702h20.749L30.375,23.94L30.375,23.94z M30.375,19.149H9.625v1.702h20.749L30.375,19.149
	L30.375,19.149z M30.375,28.723H9.625v1.702h20.749L30.375,28.723L30.375,28.723z M7.285,1.702h25.43v7.132h1.702V0H5.583v8.834
	h1.702C7.285,8.834,7.285,1.702,7.285,1.702z M9.625,35.217h20.749v-1.702H9.625V35.217z M30.375,14.366H9.625v1.702h20.749
	L30.375,14.366L30.375,14.366z M32.715,38.298H7.285v-20.69H5.583V40h28.834V17.608h-1.702V38.298z M37.138,8.864
	c-0.288-0.143-0.632-0.113-0.891,0.08l-4.792,3.591c-0.214,0.161-0.341,0.413-0.341,0.681s0.126,0.52,0.341,0.681l4.792,3.592
	c0.15,0.113,0.33,0.17,0.51,0.17c0.13,0,0.26-0.03,0.381-0.09c0.288-0.144,0.47-0.439,0.47-0.761V9.626
	C37.609,9.303,37.427,9.008,37.138,8.864z M35.907,15.107l-2.522-1.89l2.522-1.89V15.107z M8.885,13.217
	c0-0.268-0.126-0.52-0.341-0.681L3.753,8.944C3.496,8.751,3.151,8.72,2.862,8.864c-0.288,0.144-0.47,0.439-0.47,0.761v7.183
	c0,0.322,0.182,0.617,0.47,0.761c0.121,0.06,0.251,0.09,0.381,0.09c0.181,0,0.36-0.057,0.51-0.17l4.791-3.592
	C8.759,13.737,8.885,13.485,8.885,13.217z M4.093,15.107v-3.78l2.521,1.89L4.093,15.107z M30.375,9.574H9.728v1.702h20.647V9.574z
	 M30.375,4.791H9.625v1.702h20.749L30.375,4.791L30.375,4.791z"/>
</svg>
