<?xml version="1.0" encoding="utf-8"?>
<!-- Generator: Adobe Illustrator 23.0.1, SVG Export Plug-In . SVG Version: 6.00 Build 0)  -->
<svg version="1.1" id="Layer_1" xmlns="http://www.w3.org/2000/svg" xmlns:xlink="http://www.w3.org/1999/xlink" x="0px" y="0px"
	 viewBox="0 0 40 40" style="enable-background:new 0 0 40 40;" xml:space="preserve">
<path d="M29.2,18.4c-5.965,0-10.8,4.835-10.8,10.8S23.235,40,29.2,40c5.961-0.009,10.791-4.839,10.8-10.8
	C40,23.235,35.165,18.4,29.2,18.4z M37.6,27.2v-1.735c0.509,1.142,0.799,2.404,0.8,3.735c0,0.408-0.036,0.806-0.087,1.2H32.8V32
	h5.163c-0.275,0.862-0.674,1.669-1.176,2.4H32.8V36h2.581c-1.634,1.486-3.798,2.4-6.181,2.4s-4.547-0.914-6.181-2.4H24v-1.6h-2.387
	c-0.502-0.731-0.901-1.538-1.176-2.4H24v-1.6h-3.913C20.036,30.006,20,29.608,20,29.2s0.036-0.806,0.087-1.2H24.8v-1.6h-4.363
	c0.275-0.862,0.674-1.669,1.176-2.4H30.4v-1.6h-7.381c1.634-1.486,3.798-2.4,6.181-2.4c2.381,0.002,4.543,0.915,6.176,2.4H32.8
	c-0.442,0-0.8,0.358-0.8,0.8v4c0,0.442,0.358,0.8,0.8,0.8h4C37.242,28,37.6,27.642,37.6,27.2z M36,24v2.4h-2.4V24H36z M30.4,26.4h-4
	V28h4V26.4z M30.4,30.4h-4c-0.442,0-0.8,0.358-0.8,0.8v4c0,0.442,0.358,0.8,0.8,0.8h4c0.442,0,0.8-0.358,0.8-0.8v-4
	C31.2,30.758,30.842,30.4,30.4,30.4z M29.6,34.4h-2.4V32h2.4V34.4z M9.016,38.512c0,0.013,0,0.948,0.019,1.488h1.557v-1.488
	c0-3.664,3.44-6.112,6.328-7.528l-0.704-1.44C11.512,31.856,9.016,34.96,9.016,38.512z M20.296,21.2l-0.065-0.814
	c0.248,0.02,0.501,0.043,0.745,0.062l0.12-1.6C10.052,18.021,2.579,15.725,0,12.387v2.285c3.526,2.995,10.09,4.534,16.341,5.316
	C10.175,20.74,3.559,22.257,0,25.28v2.292C2.534,24.317,9.716,22.05,20.296,21.2z M0.056,39.016C0.055,39.345,0.08,39.673,0.117,40
	h1.618c-0.047-0.326-0.079-0.654-0.08-0.984c0-5.312,6.032-10.288,15.744-12.984l-0.432-1.536
	C6.536,27.392,0.056,32.952,0.056,39.016z M1.672,0.944C1.673,0.628,1.705,0.313,1.748,0H0.115C0.082,0.314,0.058,0.628,0.056,0.944
	c0,9.152,14.76,16.6,32.896,16.6H40v-1.6h-7.032C15.712,15.944,1.672,9.216,1.672,0.944z M36.728,12.704
	c-14.872,0-26.072-4.848-26.072-11.248V0H9.034C9.016,0.545,9.016,1.456,9.016,1.456c0,7.44,11.672,12.848,27.672,12.848H40v-1.6
	H36.728z M37.232,20.784H40v-1.6h-2.768V20.784z"/>
</svg>
