<?xml version="1.0" encoding="utf-8"?>
<!-- Generator: Adobe Illustrator 23.0.1, SVG Export Plug-In . SVG Version: 6.00 Build 0)  -->
<svg version="1.1" id="Layer_1" xmlns="http://www.w3.org/2000/svg" xmlns:xlink="http://www.w3.org/1999/xlink" x="0px" y="0px"
	 viewBox="0 0 40 40" style="enable-background:new 0 0 40 40;" xml:space="preserve">
<style type="text/css">
	.st0{fill:#231F20;}
</style>
<g>
	<path class="st0" d="M14.156,23.475l-5.567-3.214l-5.567,3.214v6.428l5.567,3.214l5.567-3.214V23.475z M12.028,28.673l-3.438,1.985
		l-3.438-1.985v-3.97l3.438-1.985l3.438,1.985V28.673z M20.001,0l-8.153,4.708l-7.725,4.46L2.68,10v8.956h2.128V12.02l14.507,8.375
		v16.751l-6.654-3.841l-1.064,1.844L19.999,40l1.48-0.855l7.688-4.439l8.153-4.708v-20L20.001,0z M11.37,13.351l-5.119-2.956
		L11.37,7.44V13.351z M20.001,2.457l6.14,3.545l-5.962,3.514l-6.202-3.581L20.001,2.457z M21.443,36.709v-5.829l4.726,3.101
		L21.443,36.709z M27.04,22.887l-1.822-1.384l-1.288,1.695l3.11,2.362v6.447l-5.597-3.671v-9.169l-7.945-4.588V8.118l5.818,3.359
		v3.663h2.128v-2.434l5.596,3.231V22.887z M28.209,14.154l-5.914-3.415l5.961-3.514l5.914,3.415L28.209,14.154z M35.193,28.772
		l-6.025,3.478v-6.793l6.025-3.552V28.772z M35.193,19.434l-6.025,3.552v-6.927l6.025-3.552V19.434z"/>
</g>
</svg>
