<?xml version="1.0" encoding="utf-8"?>
<!-- Generator: Adobe Illustrator 23.0.1, SVG Export Plug-In . SVG Version: 6.00 Build 0)  -->
<svg version="1.1" id="Layer_1" xmlns="http://www.w3.org/2000/svg" xmlns:xlink="http://www.w3.org/1999/xlink" x="0px" y="0px"
	 viewBox="0 0 40 40" style="enable-background:new 0 0 40 40;" xml:space="preserve">
<style type="text/css">
	.st0{fill:#231F20;}
</style>
<path class="st0" d="M0,40h2.105c0-5.58,5.723-10.82,13.678-13.637V25.17c0-0.406,0.077-0.751,0.186-1.069
	C7.132,26.97,0,32.724,0,40z M29.473,12.632c-7.726,0-18.947-4.921-18.947-12.632H8.421c0,9.13,12.261,14.737,21.052,14.737H40
	v-2.105H29.473z M0,12.762v2.595c2.765,1.878,7.336,3.596,14.078,4.643C7.335,21.047,2.765,22.766,0,24.644v2.595
	c3.832-3.664,15.467-6.186,29.472-6.186h10.527v-2.105H29.472C15.467,18.948,3.832,16.426,0,12.762z M2.105,0.001H0
	c0,10.546,14.978,17.894,28.42,17.894h11.579V15.79H28.42C14.649,15.789,2.105,8.265,2.105,0.001z M8.422,40h2.105
	c0-3.39,2.17-6.24,5.257-8.37v-2.499C11.553,31.676,8.422,35.386,8.422,40z M37.629,23.086H19.932c-1.146,0-2.083,0.938-2.083,2.083
	V37.45c0,1.146,0.938,2.083,2.083,2.083h17.697c1.146,0,2.083-0.938,2.083-2.083V25.17C39.713,24.023,38.775,23.086,37.629,23.086z
	 M38.68,37.45c0,0.579-0.472,1.051-1.051,1.051H19.932c-0.579,0-1.051-0.472-1.051-1.051V25.17c0-0.579,0.472-1.051,1.051-1.051
	h17.697c0.579,0,1.051,0.472,1.051,1.051V37.45z M32.92,30.438l-7.98-3.631c-0.071-0.032-0.143-0.047-0.214-0.047
	c-0.272,0-0.517,0.218-0.517,0.517v7.262c0,0.298,0.245,0.517,0.517,0.517c0.071,0,0.143-0.015,0.214-0.047l7.98-3.631
	C33.324,31.195,33.324,30.622,32.92,30.438z M25.243,33.737v-5.658l6.217,2.828L25.243,33.737z"/>
</svg>
