<?xml version="1.0" encoding="utf-8"?>
<!-- Generator: Adobe Illustrator 23.0.1, SVG Export Plug-In . SVG Version: 6.00 Build 0)  -->
<svg version="1.1" id="Layer_1" xmlns="http://www.w3.org/2000/svg" xmlns:xlink="http://www.w3.org/1999/xlink" x="0px" y="0px"
	 viewBox="0 0 40 40" style="enable-background:new 0 0 40 40;" xml:space="preserve">
<style type="text/css">
	.st0{fill:#231F20;}
</style>
<g>
	<path class="st0" d="M20,0L2.68,10v20L20,40l17.32-10V10L20,0z M31.745,25.525v-4.755l-5.206-3.006l-5.206,3.006v6.011l5.206,3.006
		l4.118-2.377l3.401,1.963l-12.97,7.488v-6.434h-2.175v6.434l-12.97-7.488l3.401-1.963l4.118,2.377l5.206-3.006v-6.011l-5.206-3.006
		l-5.206,3.006v4.755l-3.401,1.963V12.512l5.571,3.217l1.088-1.885l-5.571-3.217l12.97-7.488v4.131l-4.118,2.377v6.011l5.206,3.006
		l5.206-3.006V9.648l-4.119-2.377V3.139l12.97,7.488l-5.573,3.217l1.088,1.885l5.573-3.217v14.976L31.745,25.525z M29.57,22.026
		v3.499l-3.031,1.75l-3.031-1.75v-3.499l3.031-1.75L29.57,22.026z M10.431,25.526v-3.499l3.031-1.75l3.031,1.75v3.499l-3.031,1.75
		L10.431,25.526z M20,9.155l3.031,1.75v3.499L20,16.154l-3.031-1.75v-3.499L20,9.155z"/>
</g>
</svg>
