<?xml version="1.0" encoding="utf-8"?>
<!-- Generator: Adobe Illustrator 23.0.1, SVG Export Plug-In . SVG Version: 6.00 Build 0)  -->
<svg version="1.1" id="Layer_1" xmlns="http://www.w3.org/2000/svg" xmlns:xlink="http://www.w3.org/1999/xlink" x="0px" y="0px"
	 viewBox="0 0 40 40" style="enable-background:new 0 0 40 40;" xml:space="preserve">
<style type="text/css">
	.st0{fill:#231F20;}
</style>
<g>
	<path class="st0" d="M4.534,11.634l7.863-4.539V4.551L2.331,10.362v8.18h2.202V11.634z M4.534,23.046H2.331v7.718l13.036,7.527
		v-2.544L4.535,29.492L4.534,23.046L4.534,23.046z M27.603,4.552v2.544l7.863,4.539v6.908h2.202v-8.18L27.603,4.552z M35.465,29.493
		l-10.833,6.255v2.544l13.036-7.527v-7.718h-2.202L35.465,29.493L35.465,29.493z M33.672,23.988l-6.399-3.392L33.7,16.71
		c0.366-0.222,0.351-0.757-0.026-0.958l-8.592-4.555l1.038-0.599V3.532L20.001,0l-6.119,3.532v7.066l1.031,0.595l-8.586,4.56
		c-0.377,0.2-0.393,0.736-0.027,0.958l6.417,3.891l-6.39,3.387c-0.377,0.2-0.393,0.736-0.027,0.958l12.581,7.628V40h2.202v-7.424
		l12.618-7.63C34.065,24.724,34.05,24.188,33.672,23.988z M16.083,4.804l3.916-2.262l3.916,2.262v4.522l-3.916,2.262l-3.916-2.262
		V4.804z M9.928,16.336l7.239-3.84l1.713,0.989v3.904h2.202v-3.882l1.751-1.011l7.233,3.838l-9.599,5.803h-0.973L9.928,16.336z
		 M20.468,30.372h-0.973l-9.567-5.801l4.977-2.641l3.974,2.409v1.817h2.202v-1.817l3.998-2.417l4.987,2.646L20.468,30.372z"/>
</g>
</svg>
