<?xml version="1.0" encoding="utf-8"?>
<!-- Generator: Adobe Illustrator 23.0.1, SVG Export Plug-In . SVG Version: 6.00 Build 0)  -->
<svg version="1.1" id="Layer_1" xmlns="http://www.w3.org/2000/svg" xmlns:xlink="http://www.w3.org/1999/xlink" x="0px" y="0px"
	 viewBox="0 0 40 40" style="enable-background:new 0 0 40 40;" xml:space="preserve">
<style type="text/css">
	.st0{fill:#231F20;}
</style>
<g>
	<path class="st0" d="M35.146,28.743l-4.526,2.613l1.088,1.885l5.614-3.241v-6.437h-2.176V28.743z M20,2.512l4.565,2.636
		l1.088-1.885L20,0l-5.614,3.241l1.088,1.885L20,2.512z M4.855,23.563H2.678v6.437l5.653,3.263l1.088-1.885l-4.565-2.636
		L4.855,23.563L4.855,23.563z M31.747,6.781l-1.088,1.885l3.399,1.962l-3.258,1.881L20,6.275L9.201,12.509l-3.258-1.881L9.38,8.643
		L8.292,6.758L2.678,9.999v6.527h2.176v-4.015l3.258,1.881v12.47l10.799,6.234v3.762l-3.399-1.962l-1.088,1.885L20,40l5.614-3.241
		l-1.088-1.885l-3.438,1.985v-3.762l10.799-6.234V14.394l3.258-1.881v4.015h2.176V10L31.747,6.781z M20,31.213l-9.711-5.607V14.392
		L20,8.785l9.711,5.607v11.214L20,31.213z M24.036,16.413L20,14.083l-4.036,2.33l-2.928-1.69l-1.088,1.885l2.928,1.69v4.66
		l4.036,2.33v3.381h2.176v-3.381l4.036-2.33v-4.661l2.928-1.69l-1.088-1.885L24.036,16.413z M22.949,21.702l-2.948,1.702
		l-2.948-1.702v-3.405l2.948-1.702l2.948,1.702V21.702z"/>
</g>
</svg>
