<?xml version="1.0" encoding="utf-8"?>
<!-- Generator: Adobe Illustrator 23.0.1, SVG Export Plug-In . SVG Version: 6.00 Build 0)  -->
<svg version="1.1" id="Layer_1" xmlns="http://www.w3.org/2000/svg" xmlns:xlink="http://www.w3.org/1999/xlink" x="0px" y="0px"
	 viewBox="0 0 40 40" style="enable-background:new 0 0 40 40;" xml:space="preserve">
<style type="text/css">
	.st0{fill:#231F20;}
</style>
<g>
	<path class="st0" d="M30.147,12.671l1.097,1.899l3.949-2.28v5.098h2.193V9.758L30.738,5.92l-1.097,1.899l4.454,2.571L30.147,12.671
		z M21.022,36.834v-4.559h-2.193v4.559l-4.454-2.571l-1.097,1.899L19.926,40l6.569-3.793l-1.097-1.899L21.022,36.834z M4.659,12.29
		l3.949,2.28l1.097-1.899l-3.949-2.28l4.376-2.526L9.035,5.966L2.466,9.758v7.631h2.193L4.659,12.29L4.659,12.29z M13.606,23.288
		l-5.57-3.216l-5.57,3.216v6.432l5.57,3.216l5.57-3.216V23.288z M11.413,28.454l-3.377,1.95l-3.377-1.95v-3.899l3.377-1.95
		l3.377,1.95V28.454z M31.964,20.072l-5.57,3.216v6.432l5.57,3.216l5.57-3.216v-6.432L31.964,20.072z M35.34,28.454l-3.377,1.95
		l-3.377-1.95v-3.899l3.377-1.95l3.377,1.95V28.454z M25.945,9.648V3.216L20.374,0l-5.57,3.216v6.432l5.57,3.216L25.945,9.648z
		 M16.997,4.482l3.377-1.95l3.377,1.95v3.899l-3.377,1.95l-3.377-1.95V4.482z M15.244,28.14c0.094,0,0.19-0.024,0.28-0.077
		l13.205-7.624c0.374-0.216,0.374-0.755,0-0.971l-13.205-7.624c-0.09-0.053-0.186-0.077-0.28-0.077
		c-0.294,0-0.562,0.234-0.562,0.562v15.247C14.682,27.905,14.951,28.14,15.244,28.14z M16.875,15.157l8.309,4.797l-8.309,4.797
		V15.157z"/>
</g>
</svg>
