<?xml version="1.0" encoding="utf-8"?>
<!-- Generator: Adobe Illustrator 23.0.1, SVG Export Plug-In . SVG Version: 6.00 Build 0)  -->
<svg version="1.1" id="Layer_1" xmlns="http://www.w3.org/2000/svg" xmlns:xlink="http://www.w3.org/1999/xlink" x="0px" y="0px"
	 viewBox="0 0 40 40" style="enable-background:new 0 0 40 40;" xml:space="preserve">
<style type="text/css">
	.st0{fill:#231F20;}
</style>
<g>
	<path class="st0" d="M31.017,22.202c0.063,0,0.127-0.015,0.189-0.046l5.889-3.021c0.385-0.198,0.385-0.749,0-0.946l-5.889-3.021
		c-0.062-0.032-0.126-0.046-0.189-0.046c-0.217,0-0.414,0.174-0.414,0.414v6.253C30.604,22.028,30.801,22.202,31.017,22.202z
		 M32.199,17.47l2.324,1.192l-2.324,1.192V17.47z M31.017,29.625c-0.217,0-0.414,0.174-0.414,0.414v6.253
		c0,0.24,0.197,0.414,0.414,0.414c0.063,0,0.127-0.015,0.189-0.046l5.889-3.021c0.385-0.198,0.385-0.749,0-0.946l-5.889-3.021
		C31.144,29.64,31.08,29.625,31.017,29.625z M32.199,31.974l2.324,1.192l-2.324,1.192V31.974z M32.944,26.329
		c-3.442,0-6.283,2.546-6.759,5.857l-9.263-3.944v-2.775l9.724-4.141c1.039,2.452,3.468,4.172,6.298,4.172
		c3.776,0,6.837-3.061,6.837-6.837c0-2.826-1.716-5.252-4.163-6.293c-1.003-1.546-2.525-2.742-4.355-3.284
		c-0.507-2.518-2.698-4.351-5.316-4.351c-0.597,0-1.179,0.098-1.741,0.295C22.482,1.95,19.198,0,15.633,0
		c-5.057,0-9.25,3.829-9.761,8.81c-3.205,1.517-5.11,4.941-4.673,8.508c0.031,0.255,0.074,0.505,0.129,0.752h2.208
		c-0.101-0.327-0.183-0.662-0.225-1.011c-0.341-2.782,1.232-5.447,3.828-6.482c0.473-0.19,0.794-0.641,0.819-1.149
		c0.207-4.094,3.578-7.302,7.675-7.302c3.002,0,5.75,1.765,7,4.496c0.15,0.327,0.43,0.582,0.768,0.697
		c0.339,0.117,0.719,0.086,1.038-0.081c0.48-0.251,0.987-0.379,1.508-0.379c1.71,0,3.122,1.29,3.284,3.005
		c0.055,0.571,0.467,1.037,1.025,1.155c0.715,0.155,1.369,0.453,1.952,0.845c-3.43,0.367-6.102,3.269-6.102,6.796
		c0,0.192,0.014,0.382,0.029,0.57l-9.214,3.924v-3.012c0-0.294-0.238-0.531-0.531-0.531H0.751c-0.294,0-0.531,0.238-0.531,0.531
		v14.072c0,0.294,0.238,0.531,0.531,0.531h15.638c0.294,0,0.531-0.238,0.531-0.531v-3.662l9.321,3.968
		c0.63,3.126,3.39,5.48,6.701,5.48c3.776,0,6.837-3.061,6.837-6.837S36.72,26.329,32.944,26.329z M32.944,13.952
		c2.597,0,4.709,2.112,4.709,4.709s-2.112,4.709-4.709,4.709c-2.597,0-4.709-2.113-4.709-4.709S30.348,13.952,32.944,13.952z
		 M14.795,32.619H2.349V21.74h12.445L14.795,32.619L14.795,32.619z M32.944,37.874c-2.597,0-4.709-2.112-4.709-4.709
		s2.112-4.709,4.709-4.709c2.597,0,4.709,2.113,4.709,4.709C37.654,35.762,35.541,37.874,32.944,37.874z M4.802,31.832
		c0.08,0,0.163-0.018,0.242-0.059l7.837-4.02c0.385-0.198,0.385-0.749,0-0.946l-7.837-4.02c-0.079-0.041-0.162-0.059-0.242-0.059
		c-0.279,0-0.533,0.224-0.533,0.533V31.3C4.269,31.608,4.523,31.832,4.802,31.832z M6.396,25.871l2.745,1.408l-2.745,1.408V25.871z"
		/>
</g>
</svg>
