<?xml version="1.0" encoding="utf-8"?>
<!-- Generator: Adobe Illustrator 23.0.1, SVG Export Plug-In . SVG Version: 6.00 Build 0)  -->
<svg version="1.1" id="Layer_1" xmlns="http://www.w3.org/2000/svg" xmlns:xlink="http://www.w3.org/1999/xlink" x="0px" y="0px"
	 viewBox="0 0 40 40" style="enable-background:new 0 0 40 40;" xml:space="preserve">
<path d="M38.95,19.433l-5.383-4.8l-1.067,1.2l4.529,4.018L20,31.667L2.985,19.855L7.5,15.833L6.483,14.6L1.1,19.4
	c-0.167,0.155-0.264,0.372-0.267,0.6v19.117C0.833,39.586,1.198,39.973,1.667,40h36.667c0.468-0.027,0.834-0.414,0.833-0.883V20
	C39.168,19.791,39.091,19.588,38.95,19.433z M2.383,21.641l8.794,6.12l-8.794,9.417V21.641z M3.431,38.4l9.073-9.716l6.921,4.816
	c0.17,0.114,0.37,0.175,0.575,0.175c0.208,0.002,0.411-0.059,0.583-0.175l6.912-4.81l9.061,9.71H3.431z M37.6,37.173l-8.778-9.406
	l8.778-6.109V37.173z M28.083,9.767l0.242-5.15c-0.277-0.138-0.582-0.212-0.892-0.217c-0.312,0.004-0.62,0.078-0.9,0.217l0.25,5.15
	H28.083z M26.425,11.612c0.033,0.524,0.485,0.921,1.008,0.888c0.034,0.002,0.069,0.002,0.103,0c0.529-0.028,0.934-0.48,0.906-1.008
	c0.001-0.028,0.001-0.057,0-0.085c-0.024-0.533-0.475-0.947-1.008-0.923c-0.034-0.002-0.069-0.002-0.103,0
	c-0.529,0.028-0.934,0.48-0.906,1.008C26.422,11.532,26.422,11.572,26.425,11.612z M9.567,1.567H30.4V22.4H32l0.033-21.567
	C32.033,0.373,31.66,0,31.2,0H8.833C8.373,0,8,0.373,8,0.833V22.4h1.567V1.567z M25.633,15.983l0.033-3.15
	c0-0.46-0.373-0.833-0.833-0.833h-3.167v1.6h1.449l-4.924,6.092l-2.5-1.925c-0.351-0.251-0.835-0.193-1.117,0.133l-3.2,4l1.25,1
	l2.692-3.383l2.5,1.917c0.349,0.246,0.828,0.189,1.108-0.133l5.108-6.295v0.979H25.633z"/>
</svg>
