<?xml version="1.0" encoding="utf-8"?>
<!-- Generator: Adobe Illustrator 23.0.1, SVG Export Plug-In . SVG Version: 6.00 Build 0)  -->
<svg version="1.1" id="Layer_1" xmlns="http://www.w3.org/2000/svg" xmlns:xlink="http://www.w3.org/1999/xlink" x="0px" y="0px"
	 viewBox="0 0 40 40" style="enable-background:new 0 0 40 40;" xml:space="preserve">
<path d="M20,14.4c-3.093,0-5.6,2.507-5.6,5.6s2.507,5.6,5.6,5.6s5.6-2.507,5.6-5.6S23.093,14.4,20,14.4z M20,24
	c-2.209,0-4-1.791-4-4s1.791-4,4-4s4,1.791,4,4S22.209,24,20,24z M37.405,19.2L32.87,8.226l2.192-2.192l-1.131-1.131l-2.209,2.209
	L20.8,2.595V0h-1.6v2.595L8.238,7.132L6.004,4.898L4.872,6.03l2.245,2.245L2.595,19.2H0v1.6h2.595l4.518,10.915l-2.237,2.237
	l1.131,1.131l2.22-2.22L19.2,37.405V40h1.6v-2.595l10.924-4.521l2.203,2.203l1.131-1.131l-2.192-2.192L37.405,20.8H40v-1.6H37.405z
	 M31.64,30.538l-6.006-6.006l-1.131,1.131l5.992,5.992L20,36L9.439,31.652l6.027-6.027l-1.131-1.131L8.327,30.5L4,20L8.342,9.499
	l5.995,5.995l1.131-1.131L9.462,8.357L20,4l10.495,4.339l-5.994,5.994l1.131,1.131l6.009-6.009L36,20L31.64,30.538z"/>
</svg>
