<?xml version="1.0" encoding="utf-8"?>
<!-- Generator: Adobe Illustrator 23.0.1, SVG Export Plug-In . SVG Version: 6.00 Build 0)  -->
<svg version="1.1" id="Layer_1" xmlns="http://www.w3.org/2000/svg" xmlns:xlink="http://www.w3.org/1999/xlink" x="0px" y="0px"
	 viewBox="0 0 40 40" style="enable-background:new 0 0 40 40;" xml:space="preserve">
<path d="M39.989,11.541c-0.004-0.066-0.017-0.129-0.037-0.192c-0.009-0.029-0.017-0.056-0.029-0.084
	c-0.038-0.084-0.087-0.165-0.154-0.233l-6.4-6.4c-0.068-0.068-0.149-0.116-0.233-0.154c-0.027-0.013-0.055-0.02-0.084-0.029
	c-0.063-0.02-0.126-0.033-0.192-0.037C32.839,4.41,32.821,4.4,32.8,4.4H20c-0.442,0-0.8,0.358-0.8,0.8v17.6h1.6V6H32v5.6
	c0,0.442,0.358,0.8,0.8,0.8h5.6V34H20.8v-6.4h-1.6v7.2c0,0.442,0.358,0.8,0.8,0.8h19.2c0.442,0,0.8-0.358,0.8-0.8V11.6
	C40,11.579,39.99,11.561,39.989,11.541z M33.6,10.8V7.128l3.672,3.672H33.6z M36.8,14.8h-2.4v1.6h2.4V14.8z M32,26h4.8v-1.6H32V26z
	 M30.4,24.4H12.8v-20c0-0.442-0.358-0.8-0.8-0.8H7.104C6.739,1.998,5.312,0.8,3.6,0.8C1.612,0.8,0,2.412,0,4.4S1.612,8,3.6,8
	c1.71-0.004,3.135-1.2,3.502-2.8H11.2V14H7.104c-0.365-1.602-1.791-2.8-3.504-2.8c-1.988,0-3.6,1.612-3.6,3.6s1.612,3.6,3.6,3.6
	c1.71-0.004,3.135-1.2,3.502-2.8H11.2v8.8H7.104c-0.365-1.602-1.791-2.8-3.504-2.8c-1.988,0-3.6,1.612-3.6,3.6s1.612,3.6,3.6,3.6
	c1.71-0.004,3.135-1.2,3.502-2.8H11.2v8.8H7.104C6.739,33.198,5.312,32,3.6,32C1.612,32,0,33.612,0,35.6c0,1.988,1.612,3.6,3.6,3.6
	c1.71-0.004,3.135-1.2,3.502-2.8H12c0.442,0,0.8-0.358,0.8-0.8V26h17.6V24.4z M3.6,6.4c-1.105,0-2-0.895-2-2s0.895-2,2-2
	s2,0.895,2,2S4.705,6.4,3.6,6.4z M3.6,16.8c-1.105,0-2-0.895-2-2s0.895-2,2-2s2,0.895,2,2S4.705,16.8,3.6,16.8z M3.6,27.2
	c-1.105,0-2-0.895-2-2c0-1.105,0.895-2,2-2s2,0.895,2,2C5.6,26.305,4.705,27.2,3.6,27.2z M3.6,37.6c-1.105,0-2-0.895-2-2
	c0-1.105,0.895-2,2-2s2,0.895,2,2C5.6,36.705,4.705,37.6,3.6,37.6z M22.4,16.4H32v-1.6h-9.6V16.4z M34.4,20.4h2.4v-1.6h-2.4V20.4z
	 M22.4,20.4H28v-1.6h-5.6V20.4z"/>
</svg>
