<?xml version="1.0" encoding="utf-8"?>
<!-- Generator: Adobe Illustrator 23.0.1, SVG Export Plug-In . SVG Version: 6.00 Build 0)  -->
<svg version="1.1" id="Layer_1" xmlns="http://www.w3.org/2000/svg" xmlns:xlink="http://www.w3.org/1999/xlink" x="0px" y="0px"
	 viewBox="0 0 40 40" style="enable-background:new 0 0 40 40;" xml:space="preserve">
<path d="M25.526,36.981v-0.386c-0.545-0.064-1.083-0.177-1.608-0.338v0.724h-8.843v-9.728c0.896-0.199,1.685-0.727,2.211-1.479
	c0.415-0.603,0.637-1.318,0.635-2.05c0.004-0.07,0.004-0.139,0-0.209c-0.043-0.822-0.37-1.603-0.925-2.211l6.432-8.675
	c0.155,0.065,0.317,0.113,0.482,0.145v5.314c0.525-0.161,1.063-0.274,1.608-0.338v-4.984c1.865-0.425,3.077-2.229,2.766-4.116
	l3.73-1.946c0.503,0.887,1.36,1.518,2.356,1.736v13.177c0.792,1.087,1.341,2.332,1.608,3.65V8.441
	c1.947-0.451,3.159-2.394,2.708-4.341c-0.318-1.375-1.407-2.439-2.789-2.726V0h-1.608v1.415c-1.606,0.405-2.732,1.849-2.733,3.505
	c-0.004,0.064-0.004,0.129,0,0.193l-3.883,2.042c-0.512-0.729-1.277-1.239-2.147-1.431V0h-1.608v5.724
	c-1.646,0.372-2.814,1.834-2.814,3.521c-0.003,0.926,0.355,1.817,0.997,2.484l-6.432,8.642c-0.193-0.081-0.392-0.145-0.595-0.193V0
	h-1.608v20.203c-0.606,0.153-1.161,0.464-1.608,0.9l-4.655-3.216c0.748-1.853-0.148-3.961-2.001-4.709
	C5.016,13.103,4.822,13.043,4.624,13V0H3.016v13c-1.945,0.439-3.166,2.371-2.727,4.315c0.307,1.359,1.368,2.421,2.727,2.727v18.547
	h29.288l-1.608-1.608H25.526z M35.174,2.91c1.11,0,2.01,0.9,2.01,2.01s-0.9,2.01-2.01,2.01s-2.01-0.9-2.01-2.01
	S34.064,2.91,35.174,2.91z M24.722,7.235c1.11,0,2.01,0.9,2.01,2.01s-0.9,2.01-2.01,2.01c-1.11,0-2.01-0.9-2.01-2.01
	S23.612,7.235,24.722,7.235z M1.81,16.521c0-1.11,0.9-2.01,2.01-2.01s2.01,0.9,2.01,2.01c0,1.11-0.9,2.01-2.01,2.01
	S1.81,17.631,1.81,16.521z M13.467,36.981H4.624V20.042c0.598-0.121,1.153-0.398,1.608-0.804l4.703,3.216
	c-0.156,0.405-0.235,0.836-0.233,1.27c0.005,1.666,1.147,3.113,2.766,3.505V36.981z M14.271,25.726c-1.11,0-2.01-0.9-2.01-2.01
	s0.9-2.01,2.01-2.01s2.01,0.9,2.01,2.01c0,1.094-0.875,1.988-1.97,2.01H14.271z M39.193,35.615l-5.258-5.274
	c0.437-0.999,0.661-2.077,0.659-3.168c0.004-4.387-3.548-7.947-7.935-7.951c-4.387-0.004-7.947,3.548-7.951,7.935
	c-0.004,4.387,3.548,7.947,7.935,7.951h0.008c1.242,0.004,2.466-0.291,3.569-0.86l5.193,5.145c1.148,0.939,2.84,0.77,3.779-0.378
	C40.003,38.026,40.003,36.604,39.193,35.615z M26.676,33.5h-0.024c-3.499,0-6.335-2.836-6.335-6.335s2.836-6.335,6.335-6.335
	s6.335,2.836,6.335,6.335v0.008C32.978,30.658,30.16,33.483,26.676,33.5z M38.101,38.251c-0.008,0.008-0.016,0.017-0.025,0.025
	h-0.024c-0.423,0.419-1.105,0.419-1.528,0l-4.888-4.912c0.572-0.462,1.076-1.003,1.495-1.608l4.944,4.96
	C38.507,37.133,38.518,37.82,38.101,38.251z M23.07,24.508c-1.332,1.8-0.952,4.34,0.848,5.672l0.957-1.318
	c-0.023-0.016-0.045-0.033-0.068-0.05c-1.055-0.813-1.252-2.327-0.439-3.382c0.385-0.522,0.965-0.867,1.608-0.957
	c0.644-0.097,1.3,0.064,1.825,0.45l0.941-1.262C26.942,22.328,24.402,22.708,23.07,24.508z"/>
</svg>
