<?xml version="1.0" encoding="utf-8"?>
<!-- Generator: Adobe Illustrator 23.0.1, SVG Export Plug-In . SVG Version: 6.00 Build 0)  -->
<svg version="1.1" id="Layer_1" xmlns="http://www.w3.org/2000/svg" xmlns:xlink="http://www.w3.org/1999/xlink" x="0px" y="0px"
	 viewBox="0 0 40 40" style="enable-background:new 0 0 40 40;" xml:space="preserve">
<style type="text/css">
	.st0{fill:#231F20;}
</style>
<g id="Art">
	<g>
		<path class="st0" d="M39.149,34.817H0.851c-0.47,0-0.851-0.38-0.851-0.851V23.591c0-0.194,0.066-0.381,0.187-0.532l9.574-11.966
			c0.276-0.344,0.769-0.421,1.137-0.176l8.95,5.967l9.884-11.408c0.15-0.173,0.364-0.279,0.593-0.292
			c0.235-0.017,0.454,0.065,0.623,0.22l8.774,7.983c0.177,0.161,0.278,0.39,0.278,0.63v19.949
			C40,34.437,39.619,34.817,39.149,34.817z M1.702,33.115h36.596V14.394L30.447,7.25l-9.804,11.316
			c-0.28,0.324-0.759,0.389-1.115,0.151l-8.925-5.95l-8.9,11.123v9.225H1.702z"/>
	</g>
</g>
</svg>
