<?xml version="1.0" encoding="utf-8"?>
<!-- Generator: Adobe Illustrator 23.0.1, SVG Export Plug-In . SVG Version: 6.00 Build 0)  -->
<svg version="1.1" id="Layer_1" xmlns="http://www.w3.org/2000/svg" xmlns:xlink="http://www.w3.org/1999/xlink" x="0px" y="0px"
	 viewBox="0 0 40 40" style="enable-background:new 0 0 40 40;" xml:space="preserve">
<style type="text/css">
	.st0{fill:#231F20;}
</style>
<g>
	<path class="st0" d="M13.074,15.927v7.996L20,27.922l6.926-3.999v-7.996L20,11.928L13.074,15.927z M18.991,25.011L15.09,22.76
		v-4.504l3.901,2.251V25.011z M24.909,22.759l-3.901,2.251v-4.504l3.901-2.251V22.759z M20,18.76l-3.901-2.251l3.899-2.251
		l3.899,2.251L20,18.76z M18.991,3.861v7.059h2.017V3.861l3.066,3.066l1.024,0.006V5.099L19.999,0l0,0l0,0l-5.099,5.099v1.833
		l1.024-0.006L18.991,3.861z M21.008,36.139V29.08h-2.017v7.059l-3.066-3.066l-1.024-0.006v1.833L20,40l0,0l0,0l5.099-5.099v-1.833
		l-1.024,0.006L21.008,36.139z M6.325,14.901H4.491l0.006,1.024l3.066,3.066H0.504v2.017h7.059l-3.066,3.066l-0.006,1.024h1.833
		l5.099-5.099l0,0l0,0L6.325,14.901z M39.496,18.991h-7.059l3.066-3.066l0.006-1.024h-1.833L28.576,20l0,0l0,0l5.099,5.099h1.833
		l-0.006-1.024l-3.066-3.066h7.059V18.991z"/>
</g>
</svg>
