<?xml version="1.0" encoding="utf-8"?>
<!-- Generator: Adobe Illustrator 23.0.1, SVG Export Plug-In . SVG Version: 6.00 Build 0)  -->
<svg version="1.1" id="Layer_1" xmlns="http://www.w3.org/2000/svg" xmlns:xlink="http://www.w3.org/1999/xlink" x="0px" y="0px"
	 viewBox="0 0 40 40" style="enable-background:new 0 0 40 40;" xml:space="preserve">
<style type="text/css">
	.st0{fill:#231F20;}
</style>
<g>
	<path class="st0" d="M39.665,31.584C39.877,30.733,40,29.847,40,28.929c0-0.946-0.131-1.859-0.357-2.736h-2.194
		c-0.154-0.482-0.351-0.944-0.581-1.385l1.549-1.549c-0.941-1.562-2.254-2.87-3.822-3.801l-1.546,1.546
		c-0.44-0.227-0.899-0.423-1.378-0.575v-2.177c-0.864-0.217-1.763-0.345-2.695-0.345c-0.931,0-1.831,0.128-2.695,0.345v2.177
		c-0.479,0.152-0.938,0.347-1.378,0.575l-1.546-1.546c-1.568,0.933-2.881,2.239-3.822,3.802l1.549,1.549
		c-0.23,0.442-0.426,0.904-0.581,1.385h-2.194c-0.224,0.877-0.357,1.79-0.357,2.736c0,0.917,0.125,1.802,0.335,2.655h2.2
		c0.153,0.487,0.352,0.952,0.583,1.399l-1.566,1.566c0.933,1.568,2.239,2.881,3.801,3.822l1.569-1.569
		c0.448,0.233,0.917,0.433,1.406,0.589v2.218c0.864,0.217,1.763,0.345,2.695,0.345s1.831-0.128,2.695-0.345v-2.218
		c0.489-0.155,0.958-0.354,1.406-0.589l1.569,1.569c1.562-0.941,2.87-2.254,3.801-3.822l-1.566-1.566
		c0.231-0.447,0.43-0.912,0.583-1.399L39.665,31.584L39.665,31.584z M36.123,29.755l-0.403,1.28c-0.113,0.36-0.27,0.734-0.463,1.109
		l-0.614,1.187l1.427,1.427c-0.368,0.447-0.777,0.858-1.221,1.229l-0.479-0.479l-0.949-0.949l-1.19,0.619
		c-0.37,0.193-0.745,0.35-1.115,0.467l-1.275,0.405v2.029c-0.293,0.03-0.582,0.045-0.866,0.045c-0.285,0-0.574-0.015-0.866-0.045
		v-2.029l-1.275-0.405c-0.369-0.118-0.744-0.274-1.115-0.467l-1.19-0.619l-0.949,0.949l-0.479,0.479
		c-0.445-0.37-0.854-0.782-1.221-1.229l1.427-1.427l-0.614-1.187c-0.193-0.375-0.35-0.747-0.463-1.109l-0.403-1.28H19.82
		c-0.027-0.279-0.041-0.554-0.041-0.825c0-0.298,0.016-0.601,0.049-0.907h2.008l0.407-1.271c0.118-0.367,0.273-0.736,0.462-1.098
		l0.619-1.19l-1.407-1.407c0.37-0.445,0.782-0.854,1.229-1.221l0.462,0.462l0.945,0.945l1.187-0.614
		c0.367-0.19,0.735-0.343,1.093-0.457l1.275-0.405V19.78c0.293-0.03,0.582-0.045,0.866-0.045c0.285,0,0.574,0.015,0.866,0.045v1.987
		l1.275,0.405c0.359,0.114,0.726,0.267,1.093,0.457l1.187,0.614l0.945-0.945l0.462-0.462c0.447,0.368,0.858,0.777,1.229,1.221
		l-0.458,0.458l-0.949,0.949l0.619,1.19c0.189,0.362,0.344,0.731,0.462,1.099l0.407,1.271h2.007
		c0.032,0.306,0.049,0.609,0.049,0.907c0,0.271-0.014,0.546-0.041,0.825L36.123,29.755L36.123,29.755z M2.091,2.136h31.375v14.67
		h2.09V0.046H0v32.315h16.76v-2.09H2.09V2.136H2.091z M5.207,28.334h4.291c0.289,0,0.522-0.234,0.522-0.522V14.706h1.254
		c0.144,0,0.262-0.117,0.262-0.262V9.734c0-0.144-0.117-0.262-0.262-0.262h-1.254V4.064c0-0.289-0.234-0.522-0.522-0.522H5.207
		c-0.289,0-0.522,0.234-0.522,0.522v5.408H3.431c-0.144,0-0.262,0.117-0.262,0.262v4.711c0,0.144,0.117,0.262,0.262,0.262h1.254
		v13.105C4.683,28.099,4.918,28.334,5.207,28.334z M7.93,26.243H6.775V14.706H7.93V26.243z M6.775,5.632H7.93v3.84H6.775V5.632z
		 M5.259,11.562h4.185v1.053H5.259V11.562z M28.977,16.601c0.527,0,1.041,0.043,1.551,0.107v-4.089h1.254
		c0.144,0,0.262-0.117,0.262-0.262V7.647c0-0.144-0.117-0.262-0.262-0.262h-1.254V4.063c0-0.289-0.234-0.522-0.522-0.522h-4.291
		c-0.289,0-0.522,0.234-0.522,0.522v3.322h-1.254c-0.144,0-0.262,0.117-0.262,0.262v4.711c0,0.144,0.117,0.262,0.262,0.262h1.254
		v4.579c0.673-0.217,1.373-0.369,2.09-0.469v-4.112h1.155v4.009C28.617,16.621,28.794,16.601,28.977,16.601z M27.281,5.632h1.155
		v1.755h-1.155V5.632z M25.767,10.53V9.478h4.185v1.053H25.767z M18.184,22.976c0.887-1.605,2.125-2.983,3.605-4.048v-2.88
		c0-0.144-0.117-0.262-0.262-0.262h-1.254V4.064c0-0.289-0.234-0.522-0.522-0.522h-4.291c-0.289,0-0.522,0.234-0.522,0.522v11.722
		h-1.254c-0.144,0-0.262,0.117-0.262,0.262v4.711c0,0.144,0.117,0.262,0.262,0.262h1.254v6.791c0,0.289,0.234,0.522,0.522,0.522
		h1.568V21.02h1.155L18.184,22.976L18.184,22.976z M17.027,5.632h1.155v10.154h-1.155V5.632z M15.513,18.93v-1.053h4.185v1.053
		H15.513z M31.026,31.881c-1.633,1.091-3.846,0.657-4.941-0.975c-0.131-0.195-0.231-0.405-0.32-0.618h1.52l0.011-1.046h-3.866v3.52
		h1.046v-1.506c0.091,0.178,0.193,0.353,0.307,0.522c0.989,1.474,2.613,2.271,4.267,2.271c0.981,0,1.974-0.281,2.848-0.866
		c1.216-0.816,2.027-2.115,2.225-3.566l-1.553-0.213C32.432,30.411,31.869,31.314,31.026,31.881z M33.552,26.526
		c-0.081-0.153-0.152-0.312-0.25-0.457c-1.574-2.349-4.767-2.979-7.115-1.405c-1.085,0.728-1.846,1.83-2.139,3.102l1.527,0.353
		c0.205-0.882,0.731-1.648,1.486-2.153c1.632-1.094,3.847-0.655,4.941,0.975c0.074,0.111,0.129,0.23,0.19,0.347h-1.8v1.046h4.208
		v-3.754h-1.046V26.526z"/>
</g>
</svg>
