<?xml version="1.0" encoding="utf-8"?>
<!-- Generator: Adobe Illustrator 23.0.1, SVG Export Plug-In . SVG Version: 6.00 Build 0)  -->
<svg version="1.1" id="Layer_1" xmlns="http://www.w3.org/2000/svg" xmlns:xlink="http://www.w3.org/1999/xlink" x="0px" y="0px"
	 viewBox="0 0 40 40" style="enable-background:new 0 0 40 40;" xml:space="preserve">
<style type="text/css">
	.st0{fill:#231F20;}
</style>
<path class="st0" d="M39.729,15.577c-0.17-0.161-0.386-0.244-0.632-0.231l-2.47,0.14c-0.382-1.419-0.943-2.776-1.674-4.051
	l1.848-1.65c0.175-0.156,0.278-0.377,0.284-0.611s-0.084-0.46-0.249-0.626l-5.379-5.379c-0.165-0.166-0.394-0.263-0.626-0.249
	c-0.234,0.007-0.455,0.109-0.611,0.284L28.563,5.06c-1.275-0.733-2.633-1.294-4.053-1.675l0.139-2.486
	c0.013-0.234-0.071-0.462-0.231-0.632C24.258,0.096,24.034,0,23.8,0h-7.6c-0.234,0-0.458,0.096-0.618,0.266
	s-0.244,0.399-0.231,0.632l0.14,2.479c-1.419,0.383-2.777,0.945-4.053,1.675l-1.659-1.85C9.623,3.028,9.402,2.926,9.168,2.92
	c-0.233-0.013-0.46,0.084-0.625,0.249L3.164,8.547C2.999,8.713,2.908,8.939,2.915,9.173s0.109,0.455,0.284,0.611l1.857,1.658
	c-0.733,1.275-1.296,2.632-1.681,4.05l-2.469-0.145c-0.237-0.018-0.463,0.069-0.634,0.23c-0.17,0.161-0.267,0.385-0.267,0.619v7.608
	c0,0.234,0.096,0.458,0.266,0.618s0.4,0.244,0.632,0.231l2.471-0.139c0.384,1.42,0.945,2.778,1.675,4.053l-1.843,1.65
	c-0.174,0.156-0.276,0.377-0.283,0.611s0.084,0.46,0.249,0.625l5.379,5.379c0.165,0.165,0.394,0.244,0.625,0.249
	c0.234-0.007,0.455-0.109,0.611-0.283l1.65-1.843c1.275,0.731,2.633,1.295,4.052,1.682l-0.14,2.463
	c-0.013,0.234,0.071,0.463,0.231,0.632C15.742,39.904,15.966,40,16.2,40h7.608c0.234,0,0.458-0.096,0.618-0.267
	c0.161-0.17,0.244-0.399,0.231-0.632l-0.139-2.463c1.42-0.385,2.778-0.948,4.052-1.681l1.641,1.84
	c0.155,0.175,0.376,0.278,0.611,0.284c0.231,0.006,0.46-0.084,0.626-0.249l5.378-5.379c0.165-0.165,0.256-0.392,0.249-0.626
	s-0.11-0.455-0.284-0.611l-1.848-1.649c0.734-1.275,1.297-2.633,1.682-4.053l2.471,0.139c0.247,0.012,0.463-0.071,0.632-0.231
	c0.17-0.16,0.267-0.384,0.267-0.618v-7.608C39.996,15.962,39.899,15.738,39.729,15.577z M38.294,22.904l-2.276-0.128
	c-0.415-0.022-0.786,0.255-0.878,0.662c-0.39,1.72-1.065,3.349-2.008,4.84c-0.223,0.352-0.158,0.813,0.152,1.09l1.703,1.519
	l-4.105,4.105l-1.511-1.694c-0.278-0.311-0.739-0.374-1.09-0.153c-1.49,0.942-3.119,1.618-4.84,2.009
	c-0.405,0.092-0.685,0.464-0.661,0.878l0.128,2.266H17.1l0.128-2.266c0.023-0.415-0.255-0.785-0.659-0.878
	c-1.72-0.395-3.35-1.07-4.843-2.01c-0.352-0.222-0.811-0.157-1.088,0.153l-1.519,1.696l-4.107-4.107l1.696-1.519
	c0.309-0.277,0.373-0.736,0.153-1.087c-0.938-1.492-1.612-3.121-2.001-4.841c-0.092-0.406-0.452-0.68-0.878-0.662l-2.276,0.128
	v-5.806l2.273,0.134c0.419,0.029,0.788-0.256,0.88-0.661c0.391-1.72,1.067-3.349,2.009-4.84c0.222-0.352,0.158-0.812-0.153-1.09
	l-1.71-1.528l4.106-4.106l1.528,1.705c0.277,0.31,0.736,0.374,1.087,0.152c1.493-0.94,3.121-1.612,4.84-2
	c0.406-0.092,0.686-0.463,0.662-0.878L17.1,1.702h5.8l-0.128,2.293c-0.023,0.416,0.258,0.787,0.664,0.878
	c1.72,0.384,3.347,1.056,4.836,1.999c0.351,0.221,0.811,0.158,1.09-0.153l1.528-1.711l4.106,4.105l-1.703,1.52
	c-0.31,0.277-0.375,0.737-0.153,1.089c0.94,1.491,1.612,3.12,2,4.84c0.092,0.406,0.471,0.691,0.878,0.663l2.276-0.128
	C38.294,17.097,38.294,22.904,38.294,22.904z M20.004,7.975c-6.63,0-12.025,5.394-12.025,12.025s5.395,12.025,12.025,12.025
	S32.03,26.631,32.03,20S26.635,7.975,20.004,7.975z M20.004,30.323c-5.692,0-10.323-4.631-10.323-10.323S14.312,9.677,20.004,9.677
	S30.327,14.308,30.327,20S25.696,30.323,20.004,30.323z M20.855,11.225h-1.702V20.8c0,0.47,0.381,0.851,0.851,0.851h7.183v-1.702
	h-6.332V11.225z"/>
</svg>
