<?xml version="1.0" encoding="utf-8"?>
<!-- Generator: Adobe Illustrator 23.0.1, SVG Export Plug-In . SVG Version: 6.00 Build 0)  -->
<svg version="1.1" id="Layer_1" xmlns="http://www.w3.org/2000/svg" xmlns:xlink="http://www.w3.org/1999/xlink" x="0px" y="0px"
	 viewBox="0 0 40 40" style="enable-background:new 0 0 40 40;" xml:space="preserve">
<style type="text/css">
	.st0{fill:#231F20;}
</style>
<g>
	<path class="st0" d="M20,0L0.064,11.394V40h39.871V11.394L20,0z M38.239,38.303H1.761V12.379L20,1.954l18.239,10.424V38.303z"/>
	<path class="st0" d="M4.84,36.819h30.328V12.854H4.84V36.819z M6.537,14.55h26.934v20.572H6.537V14.55z"/>
	<path class="st0" d="M8.022,20.913H12.9v-4.878H8.022V20.913z M9.718,17.732h1.485v1.485H9.718V17.732z"/>
	<path class="st0" d="M14.384,20.913h4.878v-4.878h-4.878C14.384,16.035,14.384,20.913,14.384,20.913z M16.081,17.732h1.485v1.485
		h-1.485V17.732z"/>
	<path class="st0" d="M8.022,27.275H12.9v-4.878H8.022V27.275z M9.718,24.094h1.485v1.485H9.718V24.094z"/>
	<path class="st0" d="M14.384,27.275h4.878v-4.878h-4.878C14.384,22.397,14.384,27.275,14.384,27.275z M16.081,24.094h1.485v1.485
		h-1.485V24.094z"/>
	<path class="st0" d="M20.746,27.275h4.878v-4.878h-4.878V27.275z M22.443,24.094h1.485v1.485h-1.485V24.094z"/>
	<path class="st0" d="M8.022,33.638H12.9V28.76H8.022V33.638z M9.718,30.456h1.485v1.485H9.718V30.456z"/>
	<path class="st0" d="M14.384,33.638h4.878V28.76h-4.878C14.384,28.76,14.384,33.638,14.384,33.638z M16.081,30.456h1.485v1.485
		h-1.485V30.456z"/>
	<path class="st0" d="M20.746,33.638h4.878V28.76h-4.878V33.638z M22.443,30.456h1.485v1.485h-1.485V30.456z"/>
	<path class="st0" d="M27.109,33.638h4.878V28.76h-4.878V33.638z M28.805,30.456h1.485v1.485h-1.485V30.456z"/>
</g>
</svg>
