<?xml version="1.0" encoding="utf-8"?>
<!-- Generator: Adobe Illustrator 23.0.1, SVG Export Plug-In . SVG Version: 6.00 Build 0)  -->
<svg version="1.1" id="Layer_1" xmlns="http://www.w3.org/2000/svg" xmlns:xlink="http://www.w3.org/1999/xlink" x="0px" y="0px"
	 viewBox="0 0 40 40" style="enable-background:new 0 0 40 40;" xml:space="preserve">
<style type="text/css">
	.st0{fill:#231F20;}
</style>
<g>
	<path class="st0" d="M39.445,30.068c0.25-1.01,0.398-2.062,0.398-3.15c0-1.123-0.157-2.207-0.423-3.247h-2.605
		c-0.183-0.571-0.416-1.12-0.689-1.645l1.838-1.838c-1.117-1.854-2.674-3.405-4.535-4.512l-1.834,1.834
		c-0.522-0.27-1.067-0.502-1.635-0.682v-2.584c-1.025-0.258-2.093-0.41-3.199-0.41c-1.106,0-2.173,0.152-3.199,0.41v2.584
		c-0.569,0.181-1.113,0.413-1.635,0.682l-1.834-1.834c-1.861,1.106-3.419,2.657-4.535,4.512l1.838,1.838
		c-0.273,0.525-0.506,1.073-0.689,1.645h-2.605c-0.266,1.04-0.423,2.123-0.423,3.247c0,1.088,0.147,2.139,0.398,3.15h2.611
		c0.182,0.577,0.417,1.13,0.691,1.661l-1.858,1.858c1.106,1.861,2.657,3.419,4.511,4.535l1.862-1.862
		c0.533,0.277,1.088,0.514,1.669,0.698v2.632C24.587,39.848,25.654,40,26.76,40c1.106,0,2.173-0.152,3.199-0.41v-2.632
		c0.581-0.184,1.136-0.421,1.669-0.698l1.862,1.862c1.854-1.117,3.405-2.674,4.512-4.535l-1.858-1.858
		c0.273-0.53,0.51-1.082,0.691-1.661H39.445z M35.312,27.994l-0.457,1.45c-0.136,0.433-0.323,0.881-0.555,1.331l-0.695,1.346
		l1.706,1.706c-0.473,0.584-1.005,1.119-1.586,1.595l-1.706-1.706L30.67,34.42c-0.443,0.231-0.894,0.419-1.338,0.561l-1.446,0.459
		v2.423c-0.381,0.042-0.755,0.063-1.125,0.063s-0.745-0.021-1.125-0.063V35.44l-1.446-0.459c-0.443-0.141-0.894-0.329-1.338-0.561
		l-1.349-0.702l-1.075,1.075l-0.631,0.631c-0.581-0.477-1.113-1.011-1.586-1.595l0.634-0.634l1.071-1.071l-0.695-1.346
		c-0.232-0.45-0.419-0.898-0.555-1.331l-0.457-1.45h-2.399c-0.039-0.363-0.057-0.723-0.057-1.077c0-0.385,0.023-0.777,0.069-1.174
		h2.399l0.462-1.441c0.142-0.441,0.328-0.885,0.553-1.319l0.703-1.349l-1.682-1.682c0.477-0.581,1.011-1.113,1.595-1.586l0.61,0.61
		l1.071,1.071l1.346-0.695c0.44-0.227,0.881-0.411,1.312-0.549l1.446-0.459v-2.375c0.381-0.041,0.755-0.063,1.125-0.063
		s0.745,0.021,1.125,0.063v2.375l1.446,0.459c0.431,0.137,0.872,0.321,1.312,0.549l1.346,0.695l1.071-1.071l0.61-0.61
		c0.584,0.473,1.119,1.005,1.595,1.586l-0.607,0.607l-1.075,1.075l0.702,1.349c0.226,0.434,0.413,0.879,0.554,1.319l0.462,1.441
		h2.399c0.046,0.397,0.069,0.789,0.069,1.174c0,0.353-0.019,0.713-0.057,1.077L35.312,27.994L35.312,27.994z M2.282,18.394
		c-0.376-3.07,1.359-6.009,4.217-7.149c0.471-0.186,0.793-0.634,0.821-1.144c0.227-4.502,3.934-8.027,8.438-8.027
		c3.301,0,6.321,1.941,7.696,4.945c0.15,0.326,0.43,0.578,0.766,0.693c0.337,0.114,0.714,0.086,1.032-0.081
		c0.538-0.282,1.107-0.425,1.689-0.425c1.915,0,3.496,1.446,3.677,3.358c0.053,0.571,0.463,1.037,1.021,1.157
		c2.07,0.45,3.72,1.915,4.505,3.793c0.975,0.795,1.834,1.723,2.571,2.745c0.001-0.066,0.009-0.13,0.009-0.197v-0.12
		c0-0.095-0.001-0.189-0.005-0.282l-0.006-0.449l-0.022-0.005c-0.306-3.451-2.745-6.419-6.086-7.379
		c-0.512-2.712-2.858-4.694-5.664-4.694c-0.665,0-1.315,0.117-1.942,0.346C23.163,2.127,19.614,0,15.757,0
		C10.309,0,5.798,4.142,5.284,9.512c-3.465,1.608-5.53,5.294-5.061,9.135c0.541,4.413,4.43,7.738,9.047,7.738h3.394
		c0.014-0.706,0.083-1.398,0.195-2.075l-3.589,0.002C5.699,24.312,2.694,21.768,2.282,18.394z M24.47,29.062h-1.555v0.79H20.85
		v1.555h2.065v0.79h1.555v-0.79h8.462v-1.555H24.47V29.062z M27.538,25.169h-1.555v0.79H20.85v1.555h5.133v0.79h1.555v-0.79h5.395
		v-1.555h-5.395V25.169z M30.659,21.276h-1.555v0.791h-8.253v1.555h8.253v0.79h1.555v-0.79h2.274v-1.555h-2.274V21.276z"/>
</g>
</svg>
