<?xml version="1.0" encoding="utf-8"?>
<!-- Generator: Adobe Illustrator 23.0.1, SVG Export Plug-In . SVG Version: 6.00 Build 0)  -->
<svg version="1.1" id="Layer_1" xmlns="http://www.w3.org/2000/svg" xmlns:xlink="http://www.w3.org/1999/xlink" x="0px" y="0px"
	 viewBox="0 0 40 40" style="enable-background:new 0 0 40 40;" xml:space="preserve">
<style type="text/css">
	.st0{fill:#231F20;}
</style>
<path class="st0" d="M39.381,6.474c-0.403-0.406-0.938-0.631-1.514-0.634H15.54c-1.003,0-1.882,0.712-2.091,1.694L8.356,31.578
	c-0.03,0.143-0.046,0.288-0.047,0.433c-0.003,0.571,0.217,1.109,0.619,1.515s0.938,0.631,1.513,0.633H32.77
	c1.003,0,1.881-0.711,2.091-1.694l5.091-24.04c0.03-0.14,0.046-0.286,0.048-0.437C40.002,7.418,39.783,6.88,39.381,6.474z
	 M33.181,32.109c-0.041,0.193-0.213,0.333-0.41,0.333H10.446c-0.152-0.001-0.252-0.078-0.297-0.124
	c-0.046-0.047-0.122-0.147-0.122-0.299c0-0.028,0.003-0.057,0.01-0.086l4.142-19.558H37.36L33.181,32.109z M38.273,8.067
	l-0.549,2.591H14.542l0.586-2.767c0.041-0.193,0.214-0.333,0.413-0.333c0,0,0,0,0.001,0h22.321c0.152,0.001,0.252,0.078,0.298,0.125
	c0.045,0.046,0.122,0.146,0.122,0.293C38.283,8.007,38.279,8.037,38.273,8.067z M33.292,15.535H17.036l-2.045,8.158h16.266
	L33.292,15.535z M29.915,21.975H17.193l1.184-4.723h12.717L29.915,21.975z M11.266,10.709H0v1.717h11.266V10.709z M9.66,16.342H0
	v1.717h9.66V16.342z M0,23.693h8.046v-1.717H0V23.693z"/>
</svg>
