<?xml version="1.0" encoding="utf-8"?>
<!-- Generator: Adobe Illustrator 23.0.1, SVG Export Plug-In . SVG Version: 6.00 Build 0)  -->
<svg version="1.1" id="Layer_1" xmlns="http://www.w3.org/2000/svg" xmlns:xlink="http://www.w3.org/1999/xlink" x="0px" y="0px"
	 viewBox="0 0 40 40" style="enable-background:new 0 0 40 40;" xml:space="preserve">
<style type="text/css">
	.st0{fill:#231F20;}
</style>
<path class="st0" d="M2.536,11.277h23.839v7.132h1.702v-7.983c0-0.47-0.381-0.851-0.851-0.851H1.685
	c-0.47,0-0.851,0.381-0.851,0.851v24.732c0,0.47,0.381,0.851,0.851,0.851h19.124v-1.702H2.536V11.277z M1.643,8.085h25.583
	c0.318,0,0.611-0.178,0.756-0.461C28.128,7.341,28.103,7,27.919,6.74l-4.545-6.383C23.215,0.133,22.956,0,22.681,0H6.187
	C5.912,0,5.653,0.133,5.494,0.357L0.949,6.74C0.764,7,0.74,7.341,0.886,7.624S1.324,8.085,1.643,8.085z M6.626,1.702h15.616
	l3.333,4.681H3.293L6.626,1.702z M20.051,14.366H8.877c-0.47,0-0.851,0.381-0.851,0.851v14.366c0,0.47,0.381,0.851,0.851,0.851
	h11.174c0.47,0,0.851-0.381,0.851-0.851V15.217C20.902,14.747,20.521,14.366,20.051,14.366z M19.199,28.732H9.728V16.068H19.2
	v12.664H19.199z M17.617,18.349h-6.383v1.703h6.383V18.349z M17.617,21.54h-6.383v1.702h6.383V21.54z M17.617,24.732h-6.383v1.702
	h6.383V24.732z M38.358,26.332h-2.35v-2.299c0.081-2.718-2.064-5.02-4.842-5.131c-1.33,0.04-2.563,0.596-3.475,1.565
	s-1.391,2.234-1.351,3.541v2.324H24c-0.47,0-0.851,0.381-0.851,0.851v11.966C23.149,39.619,23.53,40,24,40h14.358
	c0.47,0,0.851-0.381,0.851-0.851V27.183C39.209,26.713,38.828,26.332,38.358,26.332z M28.043,23.979
	c-0.027-0.875,0.288-1.707,0.888-2.345c0.599-0.637,1.411-1.003,2.226-1.031c1.79,0.073,3.202,1.589,3.149,3.405v2.324h-6.263
	V23.979z M37.506,38.298H24.851V28.034h12.655V38.298z M30.323,33.984v2.603h1.702V33.98c0.902-0.346,1.546-1.218,1.541-2.24l0,0
	c-0.007-1.312-1.08-2.378-2.405-2.378c-0.639,0.004-1.238,0.256-1.687,0.71c-0.449,0.455-0.694,1.056-0.691,1.695
	c0.003,0.638,0.255,1.238,0.71,1.687C29.733,33.691,30.016,33.867,30.323,33.984z M30.684,31.268c0.13-0.13,0.303-0.204,0.49-0.204
	c0.378,0,0.687,0.308,0.69,0.686c0.002,0.38-0.307,0.691-0.687,0.693c-0.204,0.001-0.357-0.07-0.488-0.199s-0.204-0.302-0.204-0.486
	C30.484,31.572,30.555,31.4,30.684,31.268z"/>
</svg>
