<?xml version="1.0" encoding="utf-8"?>
<!-- Generator: Adobe Illustrator 23.0.1, SVG Export Plug-In . SVG Version: 6.00 Build 0)  -->
<svg version="1.1" id="Layer_1" xmlns="http://www.w3.org/2000/svg" xmlns:xlink="http://www.w3.org/1999/xlink" x="0px" y="0px"
	 viewBox="0 0 40 40" style="enable-background:new 0 0 40 40;" xml:space="preserve">
<style type="text/css">
	.st0{fill:#231F20;}
</style>
<g>
	<path class="st0" d="M20.003,13.857c-2.546,0-4.61,2.064-4.61,4.61s2.064,4.61,4.61,4.61s4.61-2.064,4.61-4.61
		S22.548,13.857,20.003,13.857z M20.003,21.512c-1.679,0-3.045-1.366-3.045-3.045c0-1.679,1.366-3.045,3.045-3.045
		c1.679,0,3.045,1.366,3.045,3.045C23.048,20.146,21.682,21.512,20.003,21.512z M20.103,32.817c-5.372,0-10.347-2.912-12.982-7.598
		l-1.819,1.023c3.005,5.343,8.677,8.662,14.802,8.662c1.446,0,2.845-0.195,4.185-0.537c-0.211-0.651-0.342-1.337-0.394-2.046
		C22.683,32.642,21.414,32.817,20.103,32.817z M6.717,14.361L5.41,15.667C6.508,8.535,12.669,3.05,20.103,3.05
		c5.719,0,10.84,3.191,13.366,8.326l1.873-0.92c-2.879-5.855-8.717-9.493-15.238-9.493c-8.744,0-15.962,6.649-16.87,15.156
		L1.475,14.36L0,15.835l4.097,4.097l4.097-4.097L6.717,14.361z M33.281,22.131l1.44-1.44c-0.157,0.829-0.385,1.632-0.672,2.408
		c0.695,0.118,1.362,0.312,1.991,0.584c0.373-1.03,0.656-2.102,0.824-3.213l1.661,1.661L40,20.656l-4.097-4.097l-4.097,4.097
		L33.281,22.131z M38.173,31.012c-0.054-0.449-0.144-0.887-0.297-1.297l1.306-1.246c-0.665-1.362-1.744-2.486-3.075-3.217
		l-1.312,1.251c-0.401-0.171-0.827-0.287-1.271-0.362l-0.43-1.773c-0.078-0.006-0.154-0.018-0.233-0.021
		c-0.095-0.003-0.19-0.006-0.285-0.006c-1.39,0-2.694,0.391-3.808,1.069l0.431,1.778c-0.353,0.265-0.673,0.566-0.955,0.906
		l-1.746-0.513c-0.742,1.097-1.203,2.404-1.258,3.825c-0.006,0.15,0.002,0.297,0.006,0.446l1.742,0.512
		c0.054,0.449,0.144,0.887,0.297,1.298l-1.306,1.246c0.665,1.362,1.744,2.486,3.075,3.217l1.312-1.25
		c0.401,0.171,0.827,0.287,1.271,0.362l0.43,1.773c0.078,0.006,0.154,0.017,0.233,0.021c0.095,0.003,0.19,0.006,0.285,0.006
		c1.39,0,2.695-0.391,3.808-1.069L35.96,36.19c0.353-0.265,0.673-0.566,0.955-0.906l1.746,0.513
		c0.742-1.097,1.203-2.404,1.258-3.825c0.006-0.15-0.002-0.297-0.006-0.446L38.173,31.012z M37.898,33.939l-0.543-0.159l-0.987-0.29
		l-0.657,0.792c-0.197,0.238-0.43,0.458-0.693,0.655l-0.823,0.619l0.242,1l0.135,0.557c-0.414,0.153-0.843,0.257-1.282,0.312
		l-0.136-0.559l-0.243-1.002l-1.016-0.173c-0.351-0.059-0.65-0.144-0.918-0.258l-0.949-0.406l-0.746,0.712l-0.403,0.384
		c-0.341-0.282-0.647-0.602-0.913-0.953l0.395-0.377l0.747-0.713l-0.361-0.968c-0.096-0.258-0.165-0.565-0.209-0.937l-0.123-1.024
		l-0.99-0.29l-0.543-0.16c0.075-0.434,0.202-0.858,0.376-1.265l0.543,0.16l0.987,0.29l0.657-0.792
		c0.197-0.238,0.43-0.458,0.693-0.655l0.823-0.619l-0.242-1l-0.135-0.557c0.414-0.153,0.843-0.257,1.282-0.312l0.136,0.559
		l0.243,1.001l1.016,0.173c0.351,0.059,0.65,0.144,0.918,0.258l0.949,0.406l0.746-0.712l0.403-0.384
		c0.341,0.282,0.647,0.602,0.913,0.953l-0.395,0.377l-0.747,0.713l0.361,0.968c0.096,0.258,0.165,0.565,0.209,0.937l0.123,1.024
		l0.99,0.29l0.543,0.16C38.198,33.107,38.072,33.532,37.898,33.939z M29.676,22.777l-1.671-1.321c0.17-0.453,0.309-0.919,0.4-1.401
		l2.102-0.246c0.106-0.837,0.126-1.697,0.024-2.573c-0.105-0.904-0.334-1.761-0.646-2.574l-2.096,0.245
		c-0.201-0.442-0.44-0.862-0.71-1.258l1.306-1.651c-1.072-1.387-2.473-2.489-4.074-3.205l-1.304,1.649
		c-0.446-0.168-0.906-0.304-1.381-0.395l-0.243-2.079c-0.475-0.062-0.958-0.096-1.446-0.096c-0.385,0-0.775,0.022-1.167,0.067
		c-0.89,0.104-1.735,0.327-2.536,0.631l0.243,2.079c-0.44,0.199-0.857,0.437-1.253,0.703l-1.649-1.304
		c-1.393,1.065-2.502,2.461-3.226,4.057l1.651,1.306c-0.17,0.448-0.306,0.911-0.4,1.389l-2.096,0.245
		c-0.117,0.862-0.141,1.749-0.035,2.653c0.103,0.875,0.32,1.707,0.616,2.498l2.102-0.246c0.201,0.448,0.442,0.87,0.712,1.271
		l-1.321,1.671c1.065,1.393,2.461,2.502,4.057,3.226l1.323-1.673c0.455,0.173,0.925,0.311,1.408,0.405l0.247,2.119
		c0.475,0.062,0.958,0.096,1.446,0.096c0.385,0,0.775-0.022,1.167-0.067c0.89-0.104,1.735-0.327,2.536-0.631l-0.248-2.119
		c0.449-0.202,0.875-0.446,1.278-0.719l1.673,1.323C27.859,25.778,28.961,24.378,29.676,22.777z M26.092,23.892l-1.2-0.95
		l-1.266,0.859c-0.317,0.215-0.64,0.398-0.963,0.543l-1.392,0.627l0.177,1.517l0.042,0.359c-0.168,0.031-0.334,0.056-0.499,0.075
		c-0.166,0.019-0.334,0.033-0.503,0.042l-0.042-0.36l-0.177-1.517l-1.499-0.29c-0.347-0.067-0.705-0.17-1.063-0.306l-1.43-0.544
		l-0.949,1.2l-0.215,0.272c-0.275-0.194-0.539-0.403-0.79-0.629l0.219-0.277l0.946-1.197l-0.853-1.264
		c-0.216-0.321-0.398-0.643-0.538-0.958l-0.626-1.397l-1.52,0.177l-0.335,0.039c-0.027-0.154-0.05-0.309-0.069-0.461
		c-0.021-0.178-0.035-0.36-0.045-0.543l0.344-0.04l1.513-0.177l0.293-1.495c0.067-0.345,0.169-0.697,0.303-1.047l0.545-1.43
		l-1.2-0.95l-0.25-0.198c0.194-0.275,0.405-0.539,0.629-0.79l0.255,0.202l1.197,0.946l1.264-0.853
		c0.314-0.212,0.632-0.39,0.944-0.531l1.392-0.627l-0.177-1.517l-0.038-0.32c0.168-0.031,0.334-0.056,0.499-0.075
		c0.166-0.019,0.334-0.033,0.503-0.042l0.038,0.32l0.177,1.517l1.498,0.29c0.337,0.065,0.687,0.166,1.041,0.299l1.426,0.537
		l0.946-1.197l0.202-0.255c0.277,0.192,0.542,0.4,0.794,0.624l-0.198,0.25l-0.95,1.2l0.859,1.266c0.21,0.31,0.391,0.629,0.536,0.95
		l0.63,1.386l1.512-0.177l0.344-0.04c0.034,0.181,0.062,0.36,0.082,0.538c0.018,0.153,0.031,0.307,0.04,0.464l-0.335,0.039
		l-1.521,0.177l-0.287,1.504c-0.065,0.338-0.167,0.694-0.303,1.056l-0.537,1.426l1.195,0.946l0.277,0.219
		c-0.192,0.277-0.401,0.542-0.624,0.794L26.092,23.892z M32.579,28.798c-1.593,0-2.885,1.291-2.885,2.885s1.291,2.885,2.885,2.885
		s2.885-1.291,2.885-2.885S34.171,28.798,32.579,28.798z M32.579,33.001c-0.727,0-1.319-0.592-1.319-1.319
		c0-0.727,0.592-1.319,1.319-1.319c0.727,0,1.319,0.592,1.319,1.319C33.898,32.41,33.306,33.001,32.579,33.001z"/>
</g>
</svg>
