<?xml version="1.0" encoding="utf-8"?>
<!-- Generator: Adobe Illustrator 23.0.1, SVG Export Plug-In . SVG Version: 6.00 Build 0)  -->
<svg version="1.1" id="Layer_1" xmlns="http://www.w3.org/2000/svg" xmlns:xlink="http://www.w3.org/1999/xlink" x="0px" y="0px"
	 viewBox="0 0 40 40" style="enable-background:new 0 0 40 40;" xml:space="preserve">
<style type="text/css">
	.st0{fill:#231F20;}
</style>
<path class="st0" d="M35.957,0H4.043c-0.47,0-0.851,0.381-0.851,0.851v38.298c0,0.47,0.381,0.851,0.851,0.851h31.915
	c0.47,0,0.851-0.381,0.851-0.851V0.851C36.809,0.381,36.428,0,35.957,0z M35.106,38.298H4.894V1.702h30.213L35.106,38.298
	L35.106,38.298z M31.966,7.983H18.408v1.702h13.557L31.966,7.983L31.966,7.983z M31.966,20.749H18.408v1.702h13.557L31.966,20.749
	L31.966,20.749z M31.966,32.715H18.408v1.702h13.557L31.966,32.715L31.966,32.715z M10.426,10.477c0.02,0,0.04-0.001,0.06-0.002
	c0.246-0.017,0.472-0.141,0.62-0.338l4.791-6.383l-1.361-1.021L10.334,8.33L7.836,5.832L6.632,7.036l3.191,3.191
	C9.984,10.388,10.201,10.477,10.426,10.477z M10.426,23.242c0.02,0,0.04-0.001,0.06-0.002c0.246-0.017,0.472-0.14,0.62-0.337
	l4.791-6.383l-1.361-1.022l-4.203,5.598l-2.498-2.497l-1.203,1.203l3.191,3.191C9.984,23.153,10.201,23.242,10.426,23.242z
	 M10.426,36.008c0.02,0,0.04-0.001,0.06-0.002c0.246-0.017,0.472-0.14,0.62-0.337l4.791-6.383l-1.361-1.022l-4.203,5.598
	l-2.498-2.498l-1.203,1.203l3.191,3.191C9.984,35.919,10.201,36.008,10.426,36.008z"/>
</svg>
