<?xml version="1.0" encoding="utf-8"?>
<!-- Generator: Adobe Illustrator 23.0.1, SVG Export Plug-In . SVG Version: 6.00 Build 0)  -->
<svg version="1.1" id="Layer_1" xmlns="http://www.w3.org/2000/svg" xmlns:xlink="http://www.w3.org/1999/xlink" x="0px" y="0px"
	 viewBox="0 0 40 40" style="enable-background:new 0 0 40 40;" xml:space="preserve">
<style type="text/css">
	.st0{fill:#231F20;}
</style>
<g>
	<path class="st0" d="M27.376,18.934H4.166v2.105h23.21V18.934z M12.641,22.921H4.166v2.105h8.475V22.921z M4.166,14.946v2.105h6.37
		v-2.105H4.166z M4.166,29.014h5.319v-2.105H4.166V29.014z M15.115,26.909h-3.787v2.105h3.787V26.909z M29.386,18.934v2.105H32.6
		v-2.105H29.386z M17.222,35.319H2.104V12.213h15.118v5.096h2.105v-7.201H0v27.316h19.327V22.486h-2.105V35.319z M39.997,17.573
		l-0.005-0.571l-0.034-0.006c-0.314-2.863-2.337-5.314-5.104-6.157c-0.487-2.299-2.499-3.968-4.899-3.968
		c-0.526,0-1.041,0.083-1.539,0.249c-1.59-2.785-4.578-4.544-7.821-4.544c-4.106,0-7.584,2.755-8.649,6.555h2.213
		c0.987-2.611,3.502-4.45,6.437-4.45c2.69,0,5.153,1.582,6.273,4.032c0.146,0.319,0.419,0.566,0.75,0.678
		c0.33,0.113,0.698,0.083,1.009-0.08c0.424-0.222,0.871-0.335,1.327-0.335c1.507,0,2.751,1.138,2.894,2.646
		c0.053,0.559,0.456,1.013,0.999,1.128c2.334,0.507,4.031,2.601,4.049,4.986l-0.01,0.463c-0.16,2.558-2.219,4.601-4.818,4.713
		l-10.85,0.007v2.11h10.896c0,0,0.338,0.002,1.053-0.128C37.509,24.289,40,21.371,40,17.877v-0.102
		C40,17.706,39.999,17.639,39.997,17.573z"/>
</g>
</svg>
