<?xml version="1.0" encoding="utf-8"?>
<!-- Generator: Adobe Illustrator 23.0.1, SVG Export Plug-In . SVG Version: 6.00 Build 0)  -->
<svg version="1.1" id="Layer_1" xmlns="http://www.w3.org/2000/svg" xmlns:xlink="http://www.w3.org/1999/xlink" x="0px" y="0px"
	 viewBox="0 0 40 40" style="enable-background:new 0 0 40 40;" xml:space="preserve">
<style type="text/css">
	.st0{fill:#231F20;}
</style>
<path class="st0" d="M33.031,17.901h-4.067V8.933c0-4.915-3.999-8.922-8.909-8.933c-4.91-0.002-8.972,3.944-9.009,8.881v9.02H6.969
	c-0.48,0-0.869,0.389-0.869,0.869v20.361C6.1,39.611,6.489,40,6.969,40H33.03c0.48,0,0.869-0.389,0.869-0.869V18.77
	C33.9,18.29,33.511,17.901,33.031,17.901z M12.783,8.887c0.03-3.954,3.256-7.149,7.208-7.149h0.055
	c3.959,0.008,7.179,3.236,7.179,7.195v8.968H12.783V8.887z M32.162,38.262H7.838V19.639h24.323L32.162,38.262L32.162,38.262z
	 M19.135,29.139v4.743h1.738v-4.744c1.538-0.39,2.685-1.776,2.685-3.434c0-1.959-1.595-3.554-3.554-3.554
	c-1.96,0-3.554,1.595-3.554,3.554C16.45,27.363,17.597,28.748,19.135,29.139z M20.004,23.889c1.001,0,1.816,0.815,1.816,1.816
	s-0.815,1.816-1.816,1.816s-1.816-0.815-1.816-1.816S19.003,23.889,20.004,23.889z"/>
</svg>
