<?xml version="1.0" encoding="utf-8"?>
<!-- Generator: Adobe Illustrator 23.0.1, SVG Export Plug-In . SVG Version: 6.00 Build 0)  -->
<svg version="1.1" id="Layer_1" xmlns="http://www.w3.org/2000/svg" xmlns:xlink="http://www.w3.org/1999/xlink" x="0px" y="0px"
	 viewBox="0 0 40 40" style="enable-background:new 0 0 40 40;" xml:space="preserve">
<style type="text/css">
	.st0{fill:#231F20;}
</style>
<path class="st0" d="M35.957,0H4.043c-0.47,0-0.851,0.381-0.851,0.851v38.298c0,0.47,0.381,0.851,0.851,0.851h31.915
	c0.47,0,0.851-0.381,0.851-0.851V0.851C36.809,0.381,36.428,0,35.957,0z M35.106,38.298H4.894V1.702h30.213L35.106,38.298
	L35.106,38.298z M7.234,12.077h5.583c0.47,0,0.851-0.381,0.851-0.851V5.642c0-0.47-0.381-0.851-0.851-0.851H7.234
	c-0.47,0-0.851,0.381-0.851,0.851v5.583C6.383,11.695,6.764,12.077,7.234,12.077z M8.085,6.494h3.881v3.881H8.085V6.494z
	 M10.025,24.043c2.009,0,3.643-1.634,3.643-3.643c0-2.008-1.634-3.642-3.643-3.642c-2.008,0-3.642,1.634-3.642,3.642
	C6.383,22.409,8.017,24.043,10.025,24.043z M10.025,18.46c1.07,0,1.941,0.871,1.941,1.94c0,1.07-0.871,1.941-1.941,1.941
	s-1.94-0.87-1.94-1.941C8.085,19.33,8.955,18.46,10.025,18.46z M10.025,37.609c2.043,0,3.643-2.128,3.643-4.843
	s-1.6-4.843-3.643-4.843c-2.042,0-3.642,2.128-3.642,4.843S7.983,37.609,10.025,37.609z M10.025,29.625
	c1.052,0,1.941,1.439,1.941,3.141s-0.889,3.141-1.941,3.141s-1.94-1.439-1.94-3.141C8.085,31.064,8.974,29.625,10.025,29.625z
	 M25.532,20.4c0,1.621,1.91,2.842,4.442,2.842c2.533,0,4.443-1.222,4.443-2.842c0-1.62-1.91-2.842-4.443-2.842
	C27.442,17.557,25.532,18.78,25.532,20.4z M32.715,20.4c0,0.454-1.093,1.14-2.741,1.14c-1.647,0-2.74-0.687-2.74-1.14
	c0-0.454,1.093-1.14,2.74-1.14C31.622,19.259,32.715,19.946,32.715,20.4z M25.583,12.077h7.183c0.303,0,0.582-0.16,0.735-0.421
	s0.155-0.583,0.007-0.847l-3.591-6.383c-0.15-0.268-0.434-0.434-0.741-0.434c-0.308,0-0.591,0.166-0.741,0.434l-3.592,6.383
	c-0.149,0.263-0.146,0.586,0.007,0.847S25.28,12.077,25.583,12.077z M29.175,6.578l2.136,3.797h-4.273L29.175,6.578z M32.164,29.773
	l-2.19,2.19l-2.19-2.19l-1.203,1.203l2.19,2.19l-2.19,2.19l1.203,1.203l2.19-2.19l2.19,2.19l1.203-1.203l-2.19-2.19l2.19-2.19
	L32.164,29.773z M20.199,9.824l1.203,1.203l2.391-2.392c0.332-0.332,0.332-0.871,0-1.203L21.402,5.04l-1.203,1.203l0.939,0.939
	h-5.92v1.702h5.92L20.199,9.824z M20.199,22.59l1.203,1.203l2.391-2.391c0.332-0.332,0.332-0.871,0-1.203l-2.391-2.392l-1.203,1.203
	l0.939,0.939h-5.92v1.702h5.92L20.199,22.59z M20.199,35.356l1.203,1.203l2.391-2.391c0.332-0.332,0.332-0.871,0-1.203l-2.391-2.392
	l-1.203,1.203l0.939,0.939h-5.92v1.702h5.92L20.199,35.356z"/>
</svg>
