<?xml version="1.0" encoding="utf-8"?>
<!-- Generator: Adobe Illustrator 23.0.1, SVG Export Plug-In . SVG Version: 6.00 Build 0)  -->
<svg version="1.1" id="Layer_1" xmlns="http://www.w3.org/2000/svg" xmlns:xlink="http://www.w3.org/1999/xlink" x="0px" y="0px"
	 viewBox="0 0 40 40" style="enable-background:new 0 0 40 40;" xml:space="preserve">
<style type="text/css">
	.st0{fill:#231F20;}
</style>
<path class="st0" d="M34.51,0H5.49C2.463,0,0,2.463,0,5.49v29.02C0,37.537,2.463,40,5.49,40h29.02c3.027,0,5.49-2.463,5.49-5.49
	V5.49C40,2.463,37.537,0,34.51,0z M38.298,34.51c0,2.089-1.699,3.787-3.787,3.787H5.49c-2.088,0-3.787-1.699-3.787-3.787V5.49
	c0-2.088,1.699-3.787,3.787-3.787h29.02c2.089,0,3.787,1.699,3.787,3.787v29.02H38.298z M33.966,9.677
	c1.567,0,2.842-1.275,2.842-2.843s-1.275-2.842-2.842-2.842s-2.842,1.275-2.842,2.842S32.399,9.677,33.966,9.677z M33.966,5.694
	c0.629,0,1.14,0.512,1.14,1.14c0,0.629-0.511,1.141-1.14,1.141c-0.629,0-1.14-0.512-1.14-1.141S33.337,5.694,33.966,5.694z
	 M26.783,9.677c1.567,0,2.842-1.275,2.842-2.843s-1.275-2.842-2.842-2.842s-2.842,1.275-2.842,2.842S25.215,9.677,26.783,9.677z
	 M26.783,5.694c0.629,0,1.14,0.512,1.14,1.14c0,0.629-0.511,1.141-1.14,1.141s-1.14-0.512-1.14-1.141
	C25.642,6.205,26.154,5.694,26.783,5.694z M4.843,9.685H21.6c0.47,0,0.851-0.381,0.851-0.851V5.642c0-0.47-0.381-0.851-0.851-0.851
	H4.843c-0.47,0-0.851,0.381-0.851,0.851v3.191C3.991,9.304,4.373,9.685,4.843,9.685z M5.694,6.494h15.055v1.489H5.694V6.494z
	 M12.817,23.94H3.243c-0.47,0-0.851,0.381-0.851,0.851v10.375c0,0.47,0.381,0.851,0.851,0.851h9.574c0.47,0,0.851-0.381,0.851-0.851
	V24.791C13.668,24.321,13.287,23.94,12.817,23.94z M11.966,34.315H4.094v-8.673h7.872V34.315z M24.791,14.366h-9.574
	c-0.47,0-0.851,0.381-0.851,0.851v19.949c0,0.47,0.381,0.851,0.851,0.851h9.574c0.47,0,0.851-0.381,0.851-0.851V15.217
	C25.642,14.747,25.262,14.366,24.791,14.366z M23.94,34.315h-7.872V16.068h7.872V34.315z M27.183,17.557
	c-0.47,0-0.851,0.381-0.851,0.851v16.758c0,0.47,0.381,0.851,0.851,0.851h9.574c0.47,0,0.851-0.381,0.851-0.851V18.408
	c0-0.47-0.381-0.851-0.851-0.851C36.757,17.557,27.183,17.557,27.183,17.557z M35.907,34.315h-7.872V19.259h7.872V34.315z
	 M8.024,32.834h0.013c0.762-0.003,1.476-0.303,2.013-0.844c0.536-0.541,0.829-1.257,0.826-2.018
	c-0.001-1.567-1.276-2.841-2.863-2.841c-1.572,0.007-2.845,1.292-2.839,2.863c0.003,0.762,0.303,1.477,0.844,2.013
	C6.556,32.541,7.268,32.834,8.024,32.834z M8.034,28.834c0.629,0,1.14,0.511,1.14,1.14v0.004c0.001,0.307-0.117,0.595-0.333,0.814
	c-0.216,0.218-0.504,0.338-0.811,0.34c-0.327,0.001-0.596-0.117-0.814-0.333c-0.218-0.215-0.339-0.504-0.34-0.81
	C6.874,29.354,7.387,28.836,8.034,28.834z M17.608,32.817h4.783c0.307,0,0.589-0.165,0.741-0.432
	c0.151-0.267,0.147-0.594-0.011-0.857l-2.391-3.983c-0.154-0.256-0.431-0.413-0.73-0.413s-0.576,0.157-0.73,0.413l-2.392,3.983
	c-0.158,0.263-0.162,0.59-0.011,0.857C17.019,32.651,17.302,32.817,17.608,32.817z M20,29.636l0.888,1.479h-1.775L20,29.636z
	 M29.574,32.826h4.791c0.47,0,0.851-0.381,0.851-0.851v-4.791c0-0.47-0.381-0.851-0.851-0.851h-4.791
	c-0.47,0-0.851,0.381-0.851,0.851v4.791C28.723,32.445,29.104,32.826,29.574,32.826z M30.426,28.034h3.089v3.089h-3.089
	C30.426,31.123,30.426,28.034,30.426,28.034z"/>
</svg>
