<?xml version="1.0" encoding="utf-8"?>
<!-- Generator: Adobe Illustrator 23.0.1, SVG Export Plug-In . SVG Version: 6.00 Build 0)  -->
<svg version="1.1" id="Layer_1" xmlns="http://www.w3.org/2000/svg" xmlns:xlink="http://www.w3.org/1999/xlink" x="0px" y="0px"
	 viewBox="0 0 40 40" style="enable-background:new 0 0 40 40;" xml:space="preserve">
<style type="text/css">
	.st0{fill:#231F20;}
</style>
<path class="st0" d="M6.472,15.898l-1.18-1.181L0,19.999l3.755,3.755l1.181-1.181L2.363,20L6.472,15.898z M20.001,37.637
	l-4.102-4.109l-1.181,1.179L20,40l3.755-3.755l-1.181-1.181L20.001,37.637z M33.529,24.11l1.181,1.181L40,20l-3.755-3.755
	l-1.181,1.181L37.639,20L33.529,24.11z M20,2.361l4.11,4.11l1.181-1.181L20,0l-3.755,3.755l1.181,1.181L20,2.361z M20,5.856H8.261
	v1.67H20V5.856z M16.869,8.987H5.131v1.67H16.87v-1.67H16.869z M13.739,12.118H2v1.67h11.739V12.118z M5.857,31.738h1.67V20h-1.67
	V31.738z M8.988,34.869h1.67V23.131h-1.67V34.869z M12.119,38h1.67V26.261h-1.67V38z M34.144,8.261h-1.67V20h1.67V8.261z
	 M31.013,5.13h-1.67v11.739h1.67V5.13z M27.882,1.999h-1.67v11.739h1.67V1.999z M25.477,27.882h11.747v-1.67H25.477V27.882z
	 M22.346,31.012h11.747v-1.67H22.346V31.012z M19.216,34.143h11.747v-1.67H19.216V34.143z"/>
</svg>
