<?xml version="1.0" encoding="utf-8"?>
<!-- Generator: Adobe Illustrator 23.0.1, SVG Export Plug-In . SVG Version: 6.00 Build 0)  -->
<svg version="1.1" id="Layer_1" xmlns="http://www.w3.org/2000/svg" xmlns:xlink="http://www.w3.org/1999/xlink" x="0px" y="0px"
	 viewBox="0 0 40 40" style="enable-background:new 0 0 40 40;" xml:space="preserve">
<style type="text/css">
	.st0{fill:#231F20;}
</style>
<path class="st0" d="M3.242,36.817h7.983c0.47,0,0.851-0.381,0.851-0.851V18.408c0-0.47-0.381-0.851-0.851-0.851H3.242
	c-0.47,0-0.851,0.381-0.851,0.851v17.557C2.391,36.436,2.772,36.817,3.242,36.817z M4.093,19.259h6.281v15.855H4.093V19.259z
	 M16.008,36.809h7.983c0.47,0,0.851-0.381,0.851-0.851V22.391c0-0.47-0.381-0.851-0.851-0.851h-7.983
	c-0.47,0-0.851,0.381-0.851,0.851v13.566C15.157,36.428,15.538,36.809,16.008,36.809z M16.859,23.242h6.281v11.864h-6.281V23.242z
	 M0.051,38.298V40h39.898v-1.702H0.051z M28.392,12.876h8.757c1.135,0,2.06-0.924,2.06-2.06V2.06c0-1.136-0.924-2.06-2.06-2.06
	h-8.757c-1.135,0-2.06,0.924-2.06,2.06v8.757C26.332,11.953,27.256,12.876,28.392,12.876z M28.034,2.06
	c0-0.197,0.16-0.357,0.357-0.357h8.757c0.197,0,0.357,0.16,0.357,0.357v8.757c0,0.197-0.16,0.357-0.357,0.357h-8.757
	c-0.197,0-0.357-0.16-0.357-0.357C28.034,10.817,28.034,2.06,28.034,2.06z M28.774,14.366c-0.47,0-0.851,0.381-0.851,0.851v20.749
	c0,0.47,0.381,0.851,0.851,0.851h7.984c0.47,0,0.851-0.381,0.851-0.851V15.217c0-0.47-0.381-0.851-0.851-0.851H28.774z
	 M35.907,35.115h-6.282V16.068h6.282V35.115z"/>
</svg>
