<?xml version="1.0" encoding="utf-8"?>
<!-- Generator: Adobe Illustrator 23.0.1, SVG Export Plug-In . SVG Version: 6.00 Build 0)  -->
<svg version="1.1" id="Layer_1" xmlns="http://www.w3.org/2000/svg" xmlns:xlink="http://www.w3.org/1999/xlink" x="0px" y="0px"
	 viewBox="0 0 40 40" style="enable-background:new 0 0 40 40;" xml:space="preserve">
<style type="text/css">
	.st0{fill:#231F20;}
</style>
<path class="st0" d="M12.489,14.087L40,14.043L39.99,2.789H13.177l-2.416-2.382H0.073l-0.07,11.261l10.052,0.018L12.489,14.087z
	 M1.764,2.109h8.3l2.416,2.382h25.81l0.007,7.853l-25.112,0.041l-2.432-2.398L1.715,9.971L1.764,2.109z M13.17,15.567l-2.357-2.416
	H0v11.288h10.055l2.424,2.391l27.513-0.009l-0.01-11.246L13.17,15.567z M13.177,25.129l-2.424-2.391H1.701v-7.886h8.395l2.356,2.416
	l25.83,0.008l0.007,7.844L13.177,25.129z M10.698,25.911H0V37.2l10.076-0.009l2.423,2.356l27.492,0.045V28.319H13.174L10.698,25.911
	z M38.289,37.888l-25.098-0.04l-2.425-2.358l-9.065,0.007v-7.885h8.306l2.475,2.408h25.807V37.888z M30.43,21.672l-1.058-1.058
	l-1.203,1.203l2.158,2.158l5.369-4.489l-1.092-1.305L30.43,21.672z M35.483,32.204l-1.092-1.306l-4.176,3.492l-1.067-1.06
	l-1.2,1.206l2.167,2.155L35.483,32.204z M30.954,11.421l1.779-1.779l1.781,1.787l1.205-1.201l-1.782-1.789l1.782-1.782l-1.203-1.203
	l-1.779,1.779l-1.772-1.779L29.76,6.655l1.774,1.78l-1.781,1.782L30.954,11.421z"/>
</svg>
