<?xml version="1.0" encoding="utf-8"?>
<!-- Generator: Adobe Illustrator 23.0.1, SVG Export Plug-In . SVG Version: 6.00 Build 0)  -->
<svg version="1.1" id="Layer_1" xmlns="http://www.w3.org/2000/svg" xmlns:xlink="http://www.w3.org/1999/xlink" x="0px" y="0px"
	 viewBox="0 0 40 40" style="enable-background:new 0 0 40 40;" xml:space="preserve">
<style type="text/css">
	.st0{fill:#231F20;}
</style>
<g>
	<path class="st0" d="M8.134,23.42l7.293,4.21l7.293-4.21v-7.191l6.231-3.597V4.21L21.658,0l-6.231,3.598L9.195,0L1.902,4.21v8.421
		l6.231,3.598V23.42z M14.365,24.565l-4.108-2.372V17.45l4.108,2.372V24.565z M20.596,22.193l-4.107,2.372v-4.742l4.107-2.372
		V22.193z M26.826,11.404l-4.107,2.37V9.032l4.107-2.372V11.404z M21.657,2.452l4.107,2.372l-4.107,2.372L17.55,4.823L21.657,2.452z
		 M16.488,6.662l4.108,2.372v4.739l-4.108-2.372V6.662z M19.53,15.613l-4.103,2.369l-4.104-2.369l4.103-2.369L19.53,15.613z
		 M14.364,11.401l-4.107,2.372V9.034l4.107-2.372V11.401z M9.195,2.452l4.107,2.372L9.195,7.195L5.089,4.823L9.195,2.452z
		 M4.026,11.404V6.661l4.108,2.372v4.743L4.026,11.404z M8.613,31.716c-2.288,0-4.142,1.855-4.142,4.142S6.326,40,8.613,40
		s4.142-1.855,4.142-4.142S10.901,31.716,8.613,31.716z M8.613,37.86c-1.104,0-2.002-0.898-2.002-2.002s0.898-2.002,2.002-2.002
		s2.002,0.898,2.002,2.002S9.717,37.86,8.613,37.86z M31.539,11.521l-3.464,17.079H4.479L2.291,17.038H0.114l2.592,13.701h22.684
		l-0.301,1.008c-0.106-0.008-0.208-0.032-0.317-0.032c-2.288,0-4.142,1.855-4.142,4.142c0,2.287,1.855,4.142,4.142,4.142
		s4.142-1.855,4.142-4.142c0-1.418-0.714-2.668-1.801-3.414l0.509-1.704h2.202l3.464-17.079h6.598v-2.139L31.539,11.521
		L31.539,11.521z M24.773,37.86c-1.104,0-2.002-0.898-2.002-2.002s0.898-2.002,2.002-2.002s2.002,0.898,2.002,2.002
		S25.877,37.86,24.773,37.86z"/>
</g>
</svg>
