<?xml version="1.0" encoding="utf-8"?>
<!-- Generator: Adobe Illustrator 23.0.1, SVG Export Plug-In . SVG Version: 6.00 Build 0)  -->
<svg version="1.1" id="Layer_1" xmlns="http://www.w3.org/2000/svg" xmlns:xlink="http://www.w3.org/1999/xlink" x="0px" y="0px"
	 viewBox="0 0 40 40" style="enable-background:new 0 0 40 40;" xml:space="preserve">
<style type="text/css">
	.st0{fill:#231F20;}
</style>
<path class="st0" d="M1.702,1.702H23.94v16.706h1.702V0.851c0-0.47-0.381-0.851-0.851-0.851H0.851C0.381,0,0,0.381,0,0.851v29.524
	c0,0.47,0.381,0.851,0.851,0.851h17.557v-1.702H1.702V1.702z M22.391,6.383H12.025v1.702h10.366
	C22.391,8.085,22.391,6.383,22.391,6.383z M12.025,16.86h10.366v-1.702H12.025V16.86z M12.025,24.843h6.383v-1.702h-6.383V24.843z
	 M8.947,3.027L5.704,7.308L3.841,5.463l-1.197,1.21L5.197,9.2c0.16,0.158,0.375,0.246,0.599,0.246c0.02,0,0.04-0.001,0.06-0.002
	c0.245-0.017,0.47-0.14,0.618-0.335l3.83-5.055L8.947,3.027z M8.947,11.537l-3.243,4.281l-1.863-1.844l-1.198,1.209l2.553,2.528
	c0.16,0.158,0.375,0.246,0.599,0.246c0.02,0,0.04-0.001,0.06-0.002c0.245-0.017,0.47-0.14,0.618-0.335l3.83-5.055L8.947,11.537z
	 M3.841,22.484l-1.198,1.21l2.553,2.527c0.16,0.158,0.375,0.246,0.599,0.246c0.02,0,0.04-0.001,0.06-0.002
	c0.245-0.017,0.47-0.139,0.618-0.335l3.83-5.055l-1.356-1.027l-3.243,4.28L3.841,22.484z M39.149,19.949H20.8
	c-0.47,0-0.851,0.381-0.851,0.851v18.349c0,0.47,0.381,0.851,0.851,0.851h18.349C39.619,40,40,39.619,40,39.149V20.8
	C40,20.33,39.619,19.949,39.149,19.949z M38.298,38.298H21.651V21.651h16.646v16.647H38.298z M28.005,29.781l3.521,2.122
	c0.197,0.119,0.435,0.154,0.659,0.093c0.223-0.059,0.412-0.207,0.524-0.409l3.317-5.968l0.187,0.903l1.667-0.346l-0.647-3.123
	c-0.096-0.46-0.549-0.755-1.006-0.661l-3.123,0.647l0.346,1.667l1.286-0.267L31.65,29.99l-3.227-1.945
	c-0.282-0.169-0.636-0.162-0.912,0.021l-4.791,3.191l0.944,1.416L28.005,29.781z M23.141,36.758h1.702v-3.191h-1.702V36.758z
	 M27.132,36.758h1.702v-4.792h-1.702V36.758z M31.115,36.758h1.702v-3.191h-1.702C31.115,33.567,31.115,36.758,31.115,36.758z
	 M35.106,36.758h1.702v-7.183h-1.702V36.758z"/>
</svg>
