<?xml version="1.0" encoding="utf-8"?>
<!-- Generator: Adobe Illustrator 23.0.1, SVG Export Plug-In . SVG Version: 6.00 Build 0)  -->
<svg version="1.1" id="Layer_1" xmlns="http://www.w3.org/2000/svg" xmlns:xlink="http://www.w3.org/1999/xlink" x="0px" y="0px"
	 viewBox="0 0 40 40" style="enable-background:new 0 0 40 40;" xml:space="preserve">
<style type="text/css">
	.st0{fill:#231F20;}
</style>
<path class="st0" d="M1.702,1.702H23.94v15.106h1.702V0.851c0-0.47-0.381-0.851-0.851-0.851H0.851C0.381,0,0,0.381,0,0.851v29.524
	c0,0.47,0.381,0.851,0.851,0.851H19.2v-1.702H1.702V1.702z M22.391,6.383H12.025v1.702h10.366
	C22.391,8.085,22.391,6.383,22.391,6.383z M22.391,15.157H12.025v1.702h10.366C22.391,16.859,22.391,15.157,22.391,15.157z
	 M12.025,24.843h4.783v-1.702h-4.783C12.025,23.141,12.025,24.843,12.025,24.843z M8.947,3.027L5.704,7.308L3.841,5.463l-1.197,1.21
	L5.197,9.2c0.16,0.158,0.375,0.246,0.599,0.246c0.02,0,0.04-0.001,0.06-0.002c0.245-0.017,0.47-0.14,0.618-0.335l3.83-5.055
	L8.947,3.027z M8.947,11.537l-3.243,4.281l-1.863-1.844l-1.198,1.209l2.553,2.528c0.16,0.158,0.375,0.246,0.599,0.246
	c0.02,0,0.04-0.001,0.06-0.002c0.245-0.017,0.47-0.14,0.618-0.335l3.83-5.055L8.947,11.537z M3.841,22.484l-1.198,1.21l2.553,2.527
	c0.16,0.158,0.375,0.246,0.599,0.246c0.02,0,0.04-0.001,0.06-0.002c0.245-0.017,0.47-0.139,0.618-0.335l3.83-5.055l-1.356-1.027
	l-3.243,4.28L3.841,22.484z M39.751,30.573L27.785,18.598c-0.16-0.16-0.376-0.249-0.602-0.249H19.2c-0.47,0-0.851,0.381-0.851,0.851
	v7.983c0,0.226,0.09,0.442,0.249,0.602l11.974,11.966C30.739,39.917,30.957,40,31.174,40s0.436-0.083,0.602-0.249l7.975-7.975
	C40.083,31.444,40.083,30.905,39.751,30.573z M31.174,37.945L20.052,26.831v-6.779h6.779l11.115,11.123L31.174,37.945z
	 M22.792,20.741c-1.131,0-2.051,0.92-2.051,2.051s0.92,2.051,2.051,2.051s2.051-0.92,2.051-2.051S23.923,20.741,22.792,20.741z
	 M22.792,23.141c-0.193,0-0.349-0.156-0.349-0.349s0.156-0.349,0.349-0.349s0.349,0.156,0.349,0.349S22.985,23.141,22.792,23.141z"
	/>
</svg>
