<?xml version="1.0" encoding="utf-8"?>
<!-- Generator: Adobe Illustrator 23.0.1, SVG Export Plug-In . SVG Version: 6.00 Build 0)  -->
<svg version="1.1" id="Layer_1" xmlns="http://www.w3.org/2000/svg" xmlns:xlink="http://www.w3.org/1999/xlink" x="0px" y="0px"
	 viewBox="0 0 40 40" style="enable-background:new 0 0 40 40;" xml:space="preserve">
<style type="text/css">
	.st0{fill:#231F20;}
</style>
<path class="st0" d="M1.702,1.706h22.234V20h1.702V0.855c0-0.47-0.381-0.851-0.851-0.851H0.851C0.381,0.004,0,0.385,0,0.855v29.518
	c0,0.47,0.381,0.851,0.851,0.851h19.944v-1.702H1.702V1.706z M22.386,6.386H12.023v1.702h10.364V6.386H22.386z M22.386,15.159
	H12.023v1.702h10.364v-1.702H22.386z M12.023,24.842h10.364V23.14H12.023V24.842z M8.945,3.03L5.702,7.31L3.84,5.466L2.643,6.675
	l2.553,2.527c0.16,0.158,0.375,0.246,0.599,0.246c0.02,0,0.04-0.001,0.06-0.002c0.245-0.017,0.47-0.14,0.618-0.335l3.829-5.054
	L8.945,3.03z M8.945,11.539l-3.243,4.28L3.84,13.975l-1.197,1.209l2.553,2.527c0.16,0.158,0.375,0.246,0.599,0.246
	c0.02,0,0.04-0.001,0.06-0.002c0.245-0.017,0.47-0.14,0.618-0.335l3.829-5.054L8.945,11.539z M3.84,22.484l-1.197,1.21l2.553,2.527
	c0.16,0.158,0.375,0.246,0.599,0.246c0.02,0,0.04-0.001,0.06-0.002c0.245-0.017,0.47-0.139,0.618-0.335l3.829-5.054l-1.356-1.027
	l-3.243,4.279L3.84,22.484z M39.149,25.514h-2.357v-2.545c-0.061-3.035-2.604-5.474-5.572-5.402
	c-1.468-0.051-2.869,0.483-3.941,1.489c-1.073,1.007-1.688,2.37-1.732,3.793c-0.002,0.027-0.004,0.061-0.004,0.087v2.578h-2.357
	c-0.47,0-0.851,0.381-0.851,0.851v12.78c0,0.47,0.381,0.851,0.851,0.851h15.962c0.47,0,0.851-0.381,0.851-0.851v-12.78
	C40,25.895,39.619,25.514,39.149,25.514z M27.245,22.949c0.032-1.015,0.458-1.957,1.198-2.652c0.74-0.696,1.695-1.067,2.766-1.028
	c2.097-0.024,3.84,1.637,3.881,3.718v2.528h-7.846v-2.566H27.245z M38.298,38.294h-14.26V27.216h14.261L38.298,38.294L38.298,38.294
	z"/>
</svg>
