<?xml version="1.0" encoding="utf-8"?>
<!-- Generator: Adobe Illustrator 23.0.1, SVG Export Plug-In . SVG Version: 6.00 Build 0)  -->
<svg version="1.1" id="Layer_1" xmlns="http://www.w3.org/2000/svg" xmlns:xlink="http://www.w3.org/1999/xlink" x="0px" y="0px"
	 viewBox="0 0 40 40" style="enable-background:new 0 0 40 40;" xml:space="preserve">
<style type="text/css">
	.st0{fill:#231F20;}
</style>
<path class="st0" d="M10.426,0H0.851C0.381,0,0,0.381,0,0.851v9.574c0,0.47,0.381,0.851,0.851,0.851h9.574
	c0.47,0,0.851-0.381,0.851-0.851V0.851C11.277,0.381,10.896,0,10.426,0z M9.574,9.574H1.702V1.702h7.872V9.574z M39.149,0h-9.574
	c-0.47,0-0.851,0.381-0.851,0.851v9.574c0,0.47,0.381,0.851,0.851,0.851h9.574c0.47,0,0.851-0.381,0.851-0.851V0.851
	C40,0.381,39.619,0,39.149,0z M38.298,9.574h-7.872V1.702h7.872V9.574z M24.791,0h-9.574c-0.47,0-0.851,0.381-0.851,0.851v9.574
	c0,0.47,0.381,0.851,0.851,0.851h9.574c0.47,0,0.851-0.381,0.851-0.851V0.851C25.642,0.381,25.262,0,24.791,0z M23.94,9.574h-7.872
	V1.702h7.872V9.574z M10.426,14.366H0.851C0.381,14.366,0,14.747,0,15.217v9.574c0,0.47,0.381,0.851,0.851,0.851h9.574
	c0.47,0,0.851-0.381,0.851-0.851v-9.574C11.277,14.747,10.896,14.366,10.426,14.366z M9.574,23.94H1.702v-7.872h7.872V23.94z
	 M39.149,14.366h-9.574c-0.47,0-0.851,0.381-0.851,0.851v9.574c0,0.47,0.381,0.851,0.851,0.851h9.574
	c0.47,0,0.851-0.381,0.851-0.851v-9.574C40,14.747,39.619,14.366,39.149,14.366z M38.298,23.94h-7.872v-7.872h7.872V23.94z
	 M24.791,14.366h-9.574c-0.47,0-0.851,0.381-0.851,0.851v9.574c0,0.47,0.381,0.851,0.851,0.851h9.574
	c0.47,0,0.851-0.381,0.851-0.851v-9.574C25.642,14.747,25.262,14.366,24.791,14.366z M23.94,23.94h-7.872v-7.872h7.872V23.94z
	 M10.426,28.723H0.851C0.381,28.723,0,29.104,0,29.574v9.574C0,39.619,0.381,40,0.851,40h9.574c0.47,0,0.851-0.381,0.851-0.851
	v-9.574C11.277,29.104,10.896,28.723,10.426,28.723z M9.574,38.298H1.702v-7.872h7.872V38.298z M39.149,28.723h-9.574
	c-0.47,0-0.851,0.381-0.851,0.851v9.574c0,0.47,0.381,0.851,0.851,0.851h9.574C39.619,40,40,39.619,40,39.149v-9.574
	C40,29.104,39.619,28.723,39.149,28.723z M38.298,38.298h-7.872v-7.872h7.872V38.298z M24.791,28.723h-9.574
	c-0.47,0-0.851,0.381-0.851,0.851v9.574c0,0.47,0.381,0.851,0.851,0.851h9.574c0.47,0,0.851-0.381,0.851-0.851v-9.574
	C25.642,29.104,25.262,28.723,24.791,28.723z M23.94,38.298h-7.872v-7.872h7.872V38.298z"/>
</svg>
