<?xml version="1.0" encoding="utf-8"?>
<!-- Generator: Adobe Illustrator 23.0.1, SVG Export Plug-In . SVG Version: 6.00 Build 0)  -->
<svg version="1.1" id="Layer_1" xmlns="http://www.w3.org/2000/svg" xmlns:xlink="http://www.w3.org/1999/xlink" x="0px" y="0px"
	 viewBox="0 0 40 40" style="enable-background:new 0 0 40 40;" xml:space="preserve">
<style type="text/css">
	.st0{fill:#231F20;}
</style>
<g>
	<path class="st0" d="M39.993,24.107l-0.006-0.497l-0.027-0.006c-0.306-3.16-2.535-5.873-5.587-6.778
		c-0.505-2.504-2.684-4.326-5.287-4.326c-0.591,0-1.17,0.098-1.728,0.293c-1.715-3.059-4.98-4.996-8.523-4.996
		c-5.029,0-9.196,3.805-9.705,8.756c-2.307,1.093-3.922,3.186-4.48,5.603h2.202c0.542-1.707,1.8-3.145,3.537-3.838
		c0.474-0.187,0.797-0.639,0.822-1.146c0.206-4.067,3.554-7.253,7.625-7.253c2.982,0,5.712,1.753,6.954,4.466
		c0.15,0.327,0.429,0.579,0.765,0.696s0.715,0.088,1.035-0.081c0.478-0.25,0.982-0.377,1.497-0.377c1.698,0,3.099,1.281,3.259,2.978
		c0.053,0.571,0.464,1.036,1.022,1.156c2.599,0.565,4.488,2.897,4.507,5.555l-0.016,0.59c-0.216,2.81-2.492,5.043-5.359,5.167
		l-15.454,0.01v2.124h15.5l1.062-0.015v-0.111C37.264,31.44,40,28.27,40,24.462v-0.111C39.998,24.271,39.997,24.188,39.993,24.107z
		 M10.569,25.39h4.936v-2.124l-4.917-0.01L10.569,25.39z M8.969,23.266l-6.441-0.01l-0.025,2.136h6.466V23.266z M10.569,32.203
		h4.936v-2.124l-4.917-0.01L10.569,32.203z M3.372,32.203h5.875v-2.124l-5.852-0.01L3.372,32.203z M0,32.203h2.19v-2.124
		l-2.182-0.01L0,32.203z M13.8,28.797h9.455v-2.124l-9.419-0.01L13.8,28.797z M9.803,28.797h2.259v-2.124l-2.251-0.01L9.803,28.797z
		 M7.857,26.672l-6.736-0.01l-0.026,2.136h6.761v-2.126H7.857z"/>
</g>
</svg>
