<?xml version="1.0" encoding="utf-8"?>
<!-- Generator: Adobe Illustrator 23.0.1, SVG Export Plug-In . SVG Version: 6.00 Build 0)  -->
<svg version="1.1" id="Layer_1" xmlns="http://www.w3.org/2000/svg" xmlns:xlink="http://www.w3.org/1999/xlink" x="0px" y="0px"
	 viewBox="0 0 40 40" style="enable-background:new 0 0 40 40;" xml:space="preserve">
<style type="text/css">
	.st0{fill:#231F20;}
</style>
<path class="st0" d="M3.242,36.817h7.975c0.47,0,0.851-0.381,0.851-0.851V18.408c0-0.47-0.381-0.851-0.851-0.851H3.242
	c-0.47,0-0.851,0.381-0.851,0.851v17.557C2.391,36.436,2.772,36.817,3.242,36.817z M4.093,19.259h6.272v15.855H4.093V19.259z
	 M16.008,36.809h7.974c0.47,0,0.851-0.381,0.851-0.851V22.391c0-0.47-0.381-0.851-0.851-0.851h-7.974
	c-0.47,0-0.851,0.381-0.851,0.851v13.566C15.157,36.428,15.538,36.809,16.008,36.809z M16.859,23.242h6.272v11.864h-6.272
	C16.859,35.106,16.859,23.242,16.859,23.242z M0.051,38.298V40h39.898v-1.702H0.051z M32.766,12.868
	c3.547,0,6.434-2.886,6.434-6.434S36.313,0,32.766,0s-6.434,2.886-6.434,6.434S29.219,12.868,32.766,12.868z M32.766,1.702
	c2.609,0,4.732,2.123,4.732,4.732s-2.123,4.732-4.732,4.732c-2.609,0-4.732-2.123-4.732-4.732S30.157,1.702,32.766,1.702z
	 M36.392,14.032c-2.304,1.097-4.948,1.097-7.252,0c-0.264-0.126-0.574-0.107-0.82,0.049c-0.247,0.156-0.396,0.428-0.396,0.72v21.157
	c0,0.47,0.381,0.851,0.851,0.851h7.984c0.47,0,0.851-0.381,0.851-0.851V14.8c0-0.292-0.15-0.563-0.396-0.72
	C36.965,13.925,36.657,13.906,36.392,14.032z M35.907,35.106h-6.282V16.055c2.045,0.669,4.237,0.669,6.282,0V35.106z"/>
</svg>
