<?xml version="1.0" encoding="utf-8"?>
<!-- Generator: Adobe Illustrator 23.0.1, SVG Export Plug-In . SVG Version: 6.00 Build 0)  -->
<svg version="1.1" id="Layer_1" xmlns="http://www.w3.org/2000/svg" xmlns:xlink="http://www.w3.org/1999/xlink" x="0px" y="0px"
	 viewBox="0 0 40 40" style="enable-background:new 0 0 40 40;" xml:space="preserve">
<style type="text/css">
	.st0{fill:#231F20;}
</style>
<path class="st0" d="M20.8,29.523H1.702V1.702H23.94v22.289h1.702V0.851c0-0.47-0.381-0.851-0.851-0.851H0.851
	C0.381,0,0,0.381,0,0.851v29.523c0,0.47,0.381,0.851,0.851,0.851H20.8V29.523z M22.391,6.383H12.025v1.702h10.366
	C22.391,8.085,22.391,6.383,22.391,6.383z M22.391,15.166H12.025v1.702h10.366C22.391,16.868,22.391,15.166,22.391,15.166z
	 M12.025,24.842h10.366V23.14H12.025V24.842z M8.947,3.035L5.704,7.316L3.841,5.472L2.644,6.681l2.553,2.527
	c0.16,0.158,0.375,0.246,0.599,0.246c0.02,0,0.04-0.001,0.06-0.002c0.245-0.017,0.47-0.14,0.618-0.335l3.83-5.055L8.947,3.035z
	 M5.796,17.958c0.02,0,0.04-0.001,0.061-0.002c0.244-0.017,0.469-0.14,0.617-0.335l3.83-5.047l-1.356-1.029L5.704,15.82L3.84,13.981
	l-1.195,1.212l2.553,2.519C5.358,17.87,5.573,17.958,5.796,17.958z M5.197,26.231c0.16,0.158,0.375,0.246,0.599,0.246
	c0.02,0,0.04-0.001,0.06-0.002c0.245-0.017,0.47-0.139,0.618-0.335l3.83-5.056l-1.356-1.028l-3.243,4.281l-1.863-1.845l-1.198,1.21
	L5.197,26.231z M39.881,38.716L29.506,21.167c-0.306-0.519-1.159-0.519-1.465,0L17.676,38.716c-0.155,0.263-0.158,0.589-0.007,0.855
	C17.821,39.836,18.103,40,18.408,40h20.74c0.306,0,0.588-0.164,0.739-0.43C40.04,39.305,40.037,38.978,39.881,38.716z
	 M19.899,38.298l8.875-15.025l8.883,15.025H19.899z M28.082,34.061h1.388l0.263-5.505c-0.319-0.152-0.638-0.228-0.957-0.228
	s-0.638,0.076-0.957,0.228L28.082,34.061z M28.776,34.826c-0.319,0-0.578,0.1-0.778,0.299c-0.199,0.199-0.299,0.459-0.299,0.778
	s0.1,0.578,0.299,0.778c0.199,0.199,0.459,0.299,0.778,0.299s0.578-0.1,0.778-0.299c0.199-0.199,0.299-0.459,0.299-0.778
	s-0.1-0.578-0.299-0.778S29.095,34.826,28.776,34.826z"/>
</svg>
