<?xml version="1.0" encoding="utf-8"?>
<!-- Generator: Adobe Illustrator 23.0.1, SVG Export Plug-In . SVG Version: 6.00 Build 0)  -->
<svg version="1.1" id="Layer_1" xmlns="http://www.w3.org/2000/svg" xmlns:xlink="http://www.w3.org/1999/xlink" x="0px" y="0px"
	 viewBox="0 0 40 40" style="enable-background:new 0 0 40 40;" xml:space="preserve">
<style type="text/css">
	.st0{fill:#231F20;}
</style>
<g>
	<path class="st0" d="M6.657,20.108c-2.063-3.056-4.511-5.902-4.511-7.98c0-4.863,3.956-8.819,8.819-8.819
		c3.364,0,6.39,1.873,7.894,4.888c0.01,0.322,0.041,0.978,0.069,1.543c0.027,0.558,0.488,0.994,1.046,0.994h0.109
		c0.557,0,1.016-0.434,1.046-0.991c0.031-0.594,0.065-1.285,0.065-1.546c1.504-3.016,4.529-4.889,7.894-4.889
		c4.863,0,8.819,3.957,8.819,8.819c0,2.129-2.409,4.961-4.425,7.98h2.483C37.754,17.203,40,14.411,40,12.126
		c0-6.018-4.896-10.913-10.913-10.913c-3.689,0-7.048,1.819-9.06,4.828c-2.013-3.009-5.371-4.828-9.06-4.828
		c-6.018,0-10.913,4.896-10.913,10.913c0,2.238,2.285,5.043,4.122,7.98L6.657,20.108L6.657,20.108z M20.032,36.477
		C17.275,33.881,9.962,24.541,9.962,24.541H7.29c0,0,11.37,13.527,11.848,13.966c0.192,0.178,0.445,0.278,0.706,0.278l0.354,0.001
		h0.005c0.261,0,0.511-0.097,0.704-0.272c0.48-0.435,11.961-13.975,11.961-13.975h-2.676C30.191,24.542,22.811,33.903,20.032,36.477
		z M26.289,11.468c-0.15-0.414-0.542-0.689-0.981-0.69h-0.005c-0.438,0-0.83,0.273-0.982,0.683L19.837,23.55l-3.667-6.626
		c-0.175-0.315-0.501-0.52-0.861-0.538c-0.36-0.018-0.705,0.149-0.913,0.446l-3.019,4.314H3.988v2.095h7.934
		c0.342,0,0.662-0.167,0.858-0.447l2.371-3.386l3.959,7.154c0.185,0.335,0.537,0.541,0.917,0.541c0.026,0,0.053-0.001,0.079-0.003
		c0.408-0.031,0.761-0.296,0.903-0.68l4.285-11.549l2.782,7.681c0.151,0.415,0.544,0.69,0.985,0.69h10.209v-2.095h-9.474
		L26.289,11.468z M0,23.239h2.558v-2.095H0V23.239z"/>
</g>
</svg>
