<?xml version="1.0" encoding="utf-8"?>
<!-- Generator: Adobe Illustrator 23.0.1, SVG Export Plug-In . SVG Version: 6.00 Build 0)  -->
<svg version="1.1" id="Layer_1" xmlns="http://www.w3.org/2000/svg" xmlns:xlink="http://www.w3.org/1999/xlink" x="0px" y="0px"
	 viewBox="0 0 40 40" style="enable-background:new 0 0 40 40;" xml:space="preserve">
<style type="text/css">
	.st0{fill:#231F20;}
</style>
<g>
	<path class="st0" d="M11.138,14.282c0.16,0.508,0.368,0.994,0.608,1.46l-1.635,1.635c0.974,1.637,2.338,3.008,3.969,3.991
		l1.639-1.639c0.469,0.243,0.958,0.453,1.468,0.615v2.315c0.902,0.227,1.841,0.361,2.814,0.361c0.972,0,1.912-0.134,2.814-0.361
		v-2.315c0.511-0.162,1-0.37,1.468-0.614l1.639,1.638c1.631-0.982,2.996-2.353,3.969-3.991l-1.635-1.635
		c0.241-0.466,0.448-0.952,0.608-1.46h2.298c0.221-0.889,0.35-1.814,0.35-2.771c0-0.989-0.138-1.942-0.371-2.857h-2.291
		c-0.161-0.503-0.366-0.985-0.607-1.447l1.617-1.617c-0.982-1.631-2.353-2.996-3.991-3.969l-1.614,1.614
		c-0.459-0.238-0.939-0.441-1.439-0.6V0.361C21.913,0.134,20.974,0,20.002,0c-0.972,0-1.912,0.134-2.814,0.361v2.273
		c-0.501,0.159-0.979,0.363-1.439,0.6l-1.614-1.614c-1.637,0.974-3.008,2.338-3.991,3.969l1.617,1.617
		c-0.24,0.462-0.446,0.944-0.607,1.447H8.864c-0.234,0.915-0.371,1.869-0.371,2.857c0,0.958,0.13,1.882,0.35,2.771H11.138z
		 M10.605,10.734h2.066l0.463-1.446c0.12-0.374,0.278-0.751,0.471-1.12l0.704-1.353l-1.079-1.079l-0.368-0.368
		c0.32-0.371,0.669-0.718,1.042-1.035l0.373,0.373l1.074,1.074l1.35-0.697c0.375-0.193,0.75-0.35,1.114-0.466l1.45-0.461V2.111
		C19.514,2.091,19.758,2.079,20,2.079s0.487,0.01,0.735,0.032v2.044l1.45,0.461c0.366,0.117,0.741,0.273,1.114,0.466l1.351,0.697
		l1.074-1.074l0.373-0.373c0.374,0.318,0.722,0.664,1.042,1.035l-0.368,0.368l-1.079,1.079l0.704,1.353
		c0.192,0.369,0.351,0.746,0.471,1.121l0.463,1.446h2.066c0.024,0.262,0.035,0.521,0.035,0.777c0,0.227-0.009,0.458-0.029,0.691
		h-2.065l-0.458,1.455c-0.115,0.367-0.274,0.747-0.472,1.131l-0.697,1.351l1.074,1.074l0.394,0.394
		c-0.318,0.374-0.664,0.721-1.035,1.041l-0.39-0.39l-1.079-1.079l-1.353,0.704c-0.377,0.197-0.76,0.357-1.137,0.477l-1.45,0.461
		v2.087c-0.248,0.021-0.493,0.032-0.735,0.032c-0.242,0-0.487-0.01-0.735-0.032v-2.087l-1.45-0.461
		c-0.376-0.12-0.759-0.28-1.137-0.477l-1.353-0.704l-1.079,1.078l-0.39,0.39c-0.371-0.32-0.718-0.669-1.035-1.041l0.394-0.394
		l1.074-1.074l-0.697-1.351c-0.198-0.383-0.357-0.763-0.472-1.131l-0.458-1.455h-2.065c-0.018-0.233-0.029-0.464-0.029-0.691
		C10.57,11.255,10.583,10.995,10.605,10.734z M20.002,16.879c2.735,0,4.952-2.217,4.952-4.952s-2.217-4.952-4.952-4.952
		s-4.952,2.217-4.952,4.952S17.267,16.879,20.002,16.879z M20.002,9.055c1.584,0,2.872,1.288,2.872,2.872s-1.288,2.872-2.872,2.872
		s-2.872-1.288-2.872-2.872C17.13,10.343,18.418,9.055,20.002,9.055z M36.235,30.062h-1.81v-3.274H21.04V24.7h-2.08v2.088H5.576
		v3.274h-1.81c-0.144,0-0.261,0.117-0.261,0.261v9.417C3.505,39.883,3.622,40,3.766,40h5.7c0.144,0,0.259-0.117,0.259-0.261v-9.417
		c0-0.144-0.117-0.261-0.259-0.261h-1.81v-1.194h11.305v1.194h-1.81c-0.144,0-0.259,0.117-0.259,0.261v9.417
		c0,0.144,0.117,0.261,0.259,0.261h5.7c0.144,0,0.259-0.117,0.259-0.261v-9.417c0-0.144-0.117-0.261-0.259-0.261h-1.81v-1.194
		h11.305v1.194h-1.81c-0.144,0-0.259,0.117-0.259,0.261v9.417c0,0.144,0.117,0.261,0.259,0.261h5.7c0.144,0,0.259-0.117,0.259-0.261
		v-9.417C36.495,30.177,36.379,30.062,36.235,30.062z M7.648,37.919h-2.06v-5.777h2.06V37.919z M21.031,37.919h-2.06v-5.777h2.06
		V37.919z M34.415,37.919h-2.06v-5.777h2.06V37.919z"/>
</g>
</svg>
