<?xml version="1.0" encoding="utf-8"?>
<!-- Generator: Adobe Illustrator 23.0.1, SVG Export Plug-In . SVG Version: 6.00 Build 0)  -->
<svg version="1.1" id="Layer_1" xmlns="http://www.w3.org/2000/svg" xmlns:xlink="http://www.w3.org/1999/xlink" x="0px" y="0px"
	 viewBox="0 0 40 40" style="enable-background:new 0 0 40 40;" xml:space="preserve">
<style type="text/css">
	.st0{fill:#231F20;}
</style>
<g>
	<path class="st0" d="M19.255,13.967H0v12.074h19.255V13.967z M17.554,24.339H1.702v-8.67h15.852V24.339z"/>
	<path class="st0" d="M39.992,0.404H0v12.074h39.992V0.404z M38.29,10.776H1.702v-8.67H38.29V10.776z"/>
	<path class="st0" d="M13.563,39.596h12.865V27.522H13.563V39.596z M15.265,29.223h9.462v8.671h-9.462
		C15.265,37.894,15.265,29.223,15.265,29.223z"/>
	<path class="st0" d="M0,39.596h12.074V27.522H0V39.596z M1.702,29.223h8.67v8.671h-8.67C1.702,37.894,1.702,29.223,1.702,29.223z"
		/>
	<path class="st0" d="M20.745,13.967v12.074H40V13.967H20.745z M38.298,24.339H22.446v-8.67h15.852V24.339z"/>
	<path class="st0" d="M27.917,39.596h12.074V27.522H27.917V39.596z M29.619,29.223h8.671v8.671h-8.671
		C29.619,37.894,29.619,29.223,29.619,29.223z"/>
</g>
</svg>
