<?xml version="1.0" encoding="utf-8"?>
<!-- Generator: Adobe Illustrator 23.0.1, SVG Export Plug-In . SVG Version: 6.00 Build 0)  -->
<svg version="1.1" id="Layer_1" xmlns="http://www.w3.org/2000/svg" xmlns:xlink="http://www.w3.org/1999/xlink" x="0px" y="0px"
	 viewBox="0 0 40 40" style="enable-background:new 0 0 40 40;" xml:space="preserve">
<style type="text/css">
	.st0{fill:#231F20;}
</style>
<path class="st0" d="M3.217,36.817h7.975c0.47,0,0.851-0.381,0.851-0.851V18.408c0-0.47-0.381-0.851-0.851-0.851H3.217
	c-0.47,0-0.851,0.381-0.851,0.851v17.557C2.366,36.436,2.747,36.817,3.217,36.817z M4.068,19.259h6.272v15.855H4.068V19.259z
	 M15.983,36.809h7.974c0.47,0,0.851-0.381,0.851-0.851V22.391c0-0.47-0.381-0.851-0.851-0.851h-7.974
	c-0.47,0-0.851,0.381-0.851,0.851v13.566C15.132,36.428,15.513,36.809,15.983,36.809z M16.834,23.242h6.272v11.864h-6.272V23.242z
	 M0.026,40h39.898v-1.702H0.026V40z M36.385,15.231c-2.315,1.034-4.973,1.034-7.289,0c-0.265-0.118-0.569-0.094-0.81,0.063
	c-0.242,0.157-0.388,0.426-0.388,0.714v19.949c0,0.47,0.381,0.851,0.851,0.851h7.984c0.47,0,0.851-0.381,0.851-0.851V16.009
	c0-0.288-0.146-0.557-0.388-0.714C36.953,15.137,36.649,15.114,36.385,15.231z M35.881,35.106H29.6v-17.87
	c2.045,0.631,4.237,0.631,6.282,0L35.881,35.106L35.881,35.106z M32.74,14.468c3.989,0,7.234-3.245,7.234-7.234S36.729,0,32.74,0
	s-7.234,3.245-7.234,7.234S28.752,14.468,32.74,14.468z M32.74,1.702c3.05,0,5.532,2.482,5.532,5.532s-2.482,5.532-5.532,5.532
	c-3.05,0-5.532-2.482-5.532-5.532S29.69,1.702,32.74,1.702z M33.591,3.243h-1.702v3.923h-3.123v1.702h4.825V3.243z"/>
</svg>
