<?xml version="1.0" encoding="utf-8"?>
<!-- Generator: Adobe Illustrator 23.0.1, SVG Export Plug-In . SVG Version: 6.00 Build 0)  -->
<svg version="1.1" id="Layer_1" xmlns="http://www.w3.org/2000/svg" xmlns:xlink="http://www.w3.org/1999/xlink" x="0px" y="0px"
	 viewBox="0 0 40 40" style="enable-background:new 0 0 40 40;" xml:space="preserve">
<style type="text/css">
	.st0{fill:#231F20;}
</style>
<path class="st0" d="M39.149,12.766H0.851C0.381,12.766,0,13.147,0,13.617v25.532C0,39.619,0.381,40,0.851,40h38.298
	C39.619,40,40,39.619,40,39.149V13.617C40,13.147,39.619,12.766,39.149,12.766z M38.298,38.298H1.702v-23.83h36.596V38.298z
	 M39.149,0H0.851C0.381,0,0,0.381,0,0.851v10.374h1.702V1.702h36.596v9.523H40V0.851C40,0.381,39.619,0,39.149,0z"/>
</svg>
