<?xml version="1.0" encoding="utf-8"?>
<!-- Generator: Adobe Illustrator 23.0.1, SVG Export Plug-In . SVG Version: 6.00 Build 0)  -->
<svg version="1.1" id="Layer_1" xmlns="http://www.w3.org/2000/svg" xmlns:xlink="http://www.w3.org/1999/xlink" x="0px" y="0px"
	 viewBox="0 0 40 40" style="enable-background:new 0 0 40 40;" xml:space="preserve">
<style type="text/css">
	.st0{fill:#231F20;}
</style>
<path class="st0" d="M36.159,14.616l-7.975-7.983c-0.16-0.16-0.376-0.25-0.602-0.25H14.017c-0.47,0-0.851,0.381-0.851,0.851v31.915
	c0,0.47,0.381,0.851,0.851,0.851h21.54c0.47,0,0.851-0.381,0.851-0.851V15.217C36.409,14.991,36.319,14.775,36.159,14.616z
	 M28.434,9.29l5.07,5.076h-5.07C28.434,14.366,28.434,9.29,28.434,9.29z M34.706,38.298H14.868V8.085h11.864v7.132
	c0,0.47,0.381,0.851,0.851,0.851h7.124L34.706,38.298L34.706,38.298z M10.076,4.894h13.515V3.191H9.225
	c-0.47,0-0.851,0.381-0.851,0.851v31.915c0,0.47,0.381,0.851,0.851,0.851h2.4v-1.702h-1.549V4.894z M5.294,1.702H19.6V0H4.443
	c-0.47,0-0.851,0.381-0.851,0.851v31.915c0,0.47,0.381,0.851,0.851,0.851h1.591v-1.702h-0.74C5.294,31.915,5.294,1.702,5.294,1.702z
	 M23.591,13.566h-7.183v1.702h7.183V13.566z M16.408,20.851h16.757v-1.702H16.408V20.851z M16.408,26.434h13.566v-1.702H16.408
	V26.434z"/>
</svg>
