<?xml version="1.0" encoding="utf-8"?>
<!-- Generator: Adobe Illustrator 23.0.1, SVG Export Plug-In . SVG Version: 6.00 Build 0)  -->
<svg version="1.1" id="Layer_1" xmlns="http://www.w3.org/2000/svg" xmlns:xlink="http://www.w3.org/1999/xlink" x="0px" y="0px"
	 viewBox="0 0 40 40" style="enable-background:new 0 0 40 40;" xml:space="preserve">
<style type="text/css">
	.st0{fill:#231F20;}
</style>
<path class="st0" d="M26.602,19.804c-0.503-0.213-1.037-0.32-1.587-0.32c-2.248,0-4.076,1.828-4.076,4.078
	c0,1.163,0.499,2.274,1.37,3.048c0.099,0.089,0.224,0.133,0.349,0.133c0.144,0,0.288-0.059,0.392-0.176
	c0.192-0.216,0.173-0.547-0.045-0.74c-0.647-0.575-1.017-1.401-1.017-2.265c0-1.671,1.359-3.028,3.028-3.028
	c0.409,0,0.806,0.08,1.179,0.238c0.264,0.113,0.574-0.011,0.687-0.279C26.995,20.225,26.869,19.917,26.602,19.804z M39.174,33.15
	l-5.772-5.772c0.582-1.165,0.918-2.473,0.918-3.863c0-4.784-3.878-8.661-8.661-8.661s-8.661,3.878-8.661,8.661
	s3.878,8.661,8.661,8.661c1.326,0,2.576-0.306,3.698-0.839l5.815,5.815c0.551,0.551,1.275,0.825,2.001,0.825
	c0.726,0,1.451-0.275,2.001-0.825C40.276,36.051,40.276,34.25,39.174,33.15z M25.659,30.079c-3.619,0-6.564-2.945-6.564-6.564
	s2.945-6.564,6.564-6.564s6.564,2.945,6.564,6.564S29.278,30.079,25.659,30.079z M37.692,35.67
	c-0.184,0.184-0.403,0.211-0.519,0.211c-0.115,0-0.335-0.027-0.519-0.211l-5.479-5.479c0.377-0.312,0.723-0.661,1.043-1.032
	l5.473,5.473c0.184,0.184,0.211,0.405,0.211,0.519C37.903,35.265,37.876,35.486,37.692,35.67z M6.469,13.911l0.047-0.018
	c0.648-0.242,1.086-0.851,1.109-1.542l0,0c0.129-3.946,2.908-7.443,6.8-8.108c3.879-0.663,7.56,1.425,9.032,4.928l0.175,0.416
	c0.402,0.957,1.558,1.335,2.448,0.802l0.386-0.232c0.498-0.298,1.025-0.45,1.563-0.45c1.623,0,2.961,1.279,3.048,2.911l0.016,0.306
	c0.041,0.785,0.614,1.44,1.386,1.585l0.066,0.013c2.634,0.498,4.772,2.6,5.051,5.265c0.207,1.971-0.559,3.771-1.87,4.994v2.6
	c2.39-1.399,4-3.987,4-6.956c0-3.938-2.824-7.211-6.556-7.917c-0.144-2.726-2.379-4.897-5.142-4.897
	c-0.969,0-1.866,0.283-2.641,0.747c-1.565-3.721-5.243-6.333-9.532-6.333c-5.594,0-10.139,4.447-10.32,9.996
	c-3.434,1.282-5.823,4.71-5.507,8.659c0.357,4.464,4.276,7.809,8.755,7.809h5.984V26.39h-6.26c-3.727,0-6.72-3.196-6.383-6.992
	C2.347,16.896,4.113,14.789,6.469,13.911z"/>
</svg>
