<?xml version="1.0" encoding="utf-8"?>
<!-- Generator: Adobe Illustrator 23.0.1, SVG Export Plug-In . SVG Version: 6.00 Build 0)  -->
<svg version="1.1" id="Layer_1" xmlns="http://www.w3.org/2000/svg" xmlns:xlink="http://www.w3.org/1999/xlink" x="0px" y="0px"
	 viewBox="0 0 40 40" style="enable-background:new 0 0 40 40;" xml:space="preserve">
<style type="text/css">
	.st0{fill:#231F20;}
</style>
<g>
	<path class="st0" d="M35.907,26.617c-0.671,0-1.294,0.176-1.853,0.463l-1.706-1.838c2.39-1.844,4.436-4.203,5.996-6.939
		l-1.935-1.118C32.945,23.272,26.892,27.324,20,27.324S7.055,23.27,3.591,17.185l-1.935,1.118c1.561,2.736,3.606,5.095,5.996,6.939
		L5.945,27.08c-0.559-0.286-1.182-0.463-1.853-0.463C1.832,26.617,0,28.45,0,30.71s1.833,4.093,4.093,4.093
		c2.261,0,4.094-1.833,4.094-4.093c0-0.778-0.23-1.498-0.607-2.118l1.926-2.074c2.808,1.732,5.991,2.8,9.382,2.992v2.34
		c-1.716,0.488-2.981,2.049-2.981,3.921c0,2.261,1.833,4.093,4.093,4.093c2.261,0,4.094-1.832,4.094-4.093
		c0-1.872-1.264-3.433-2.981-3.921v-2.34c3.392-0.192,6.574-1.261,9.382-2.991l1.926,2.073c-0.377,0.619-0.607,1.34-0.607,2.118
		c0,2.261,1.833,4.093,4.093,4.093c2.261,0,4.093-1.833,4.093-4.093S38.168,26.617,35.907,26.617z M4.091,32.577
		c-1.03,0-1.868-0.838-1.868-1.868c0-1.03,0.838-1.868,1.868-1.868s1.868,0.838,1.868,1.868C5.958,31.74,5.12,32.577,4.091,32.577z
		 M21.866,35.771c0,1.03-0.838,1.868-1.868,1.868c-1.03,0-1.868-0.838-1.868-1.868s0.838-1.868,1.868-1.868
		C21.029,33.903,21.866,34.741,21.866,35.771z M35.907,32.577c-1.03,0-1.868-0.838-1.868-1.868c0-1.03,0.838-1.868,1.868-1.868
		c1.03,0,1.868,0.838,1.868,1.868C37.775,31.74,36.936,32.577,35.907,32.577z M20.177,25.124c4.894,0,9.85-3.37,9.85-9.813V3.496
		l-8.769-3.172c-0.697-0.25-1.464-0.25-2.161,0l-8.769,3.172v11.816C10.329,21.754,15.283,25.124,20.177,25.124z M12.448,4.983
		l7.37-2.665c0.232-0.083,0.489-0.083,0.72,0l7.37,2.665v10.329c0,5.286-4.007,7.693-7.73,7.693s-7.73-2.407-7.73-7.693V4.983z
		 M20.174,21.59c3.296,0,6.634-2.25,6.634-6.552V5.815L20.933,3.58c-0.486-0.186-1.021-0.186-1.507-0.001L13.54,5.815v9.223
		c0,2.012,0.728,3.712,2.103,4.917C16.848,21.01,18.456,21.59,20.174,21.59z M21.238,5.963l3.45,1.313v7.762
		c0,2.574-1.606,3.94-3.45,4.315V5.963z M15.659,7.276l3.458-1.314v13.392c-1.848-0.371-3.458-1.738-3.458-4.316V7.276z"/>
</g>
</svg>
