<?xml version="1.0" encoding="utf-8"?>
<!-- Generator: Adobe Illustrator 23.0.1, SVG Export Plug-In . SVG Version: 6.00 Build 0)  -->
<svg version="1.1" id="Layer_1" xmlns="http://www.w3.org/2000/svg" xmlns:xlink="http://www.w3.org/1999/xlink" x="0px" y="0px"
	 viewBox="0 0 40 40" style="enable-background:new 0 0 40 40;" xml:space="preserve">
<style type="text/css">
	.st0{fill:#231F20;}
</style>
<g>
	<path class="st0" d="M29.021,20.154c-0.163-0.511-0.373-1.002-0.617-1.471l1.645-1.645c-0.999-1.66-2.393-3.047-4.058-4.037
		l-1.641,1.641c-0.467-0.241-0.954-0.449-1.464-0.61V11.72c-0.918-0.231-1.873-0.367-2.862-0.367c-0.99,0-1.944,0.136-2.862,0.367
		v2.312c-0.509,0.161-0.997,0.369-1.464,0.61l-1.641-1.641c-1.665,0.99-3.06,2.377-4.057,4.037l1.645,1.645
		c-0.245,0.47-0.453,0.96-0.617,1.471h-2.33c-0.238,0.93-0.378,1.901-0.378,2.905c0,0.974,0.131,1.914,0.355,2.818h2.336
		c0.162,0.517,0.374,1.011,0.618,1.486l-1.663,1.663c0.99,1.665,2.377,3.06,4.037,4.058l1.666-1.666
		c0.477,0.248,0.974,0.459,1.493,0.625v2.356c0.918,0.231,1.872,0.367,2.862,0.367c0.989,0,1.944-0.136,2.862-0.367v-2.356
		c0.519-0.165,1.017-0.377,1.493-0.625l1.666,1.666c1.66-0.999,3.047-2.393,4.037-4.058l-1.663-1.663
		c0.245-0.474,0.456-0.968,0.618-1.486h2.336c0.224-0.904,0.355-1.845,0.355-2.818c0-1.005-0.141-1.975-0.378-2.905H29.021z
		 M29.586,23.762h-2.101l-0.466,1.48c-0.118,0.374-0.279,0.76-0.48,1.15l-0.709,1.373l1.093,1.093l0.401,0.4
		c-0.323,0.379-0.675,0.734-1.053,1.059l-0.397-0.397l-1.097-1.097l-1.376,0.717c-0.384,0.2-0.773,0.363-1.157,0.485l-1.474,0.469
		v2.122c-0.251,0.022-0.501,0.032-0.747,0.032c-0.246,0-0.495-0.011-0.746-0.032v-2.122l-1.474-0.469
		c-0.383-0.121-0.771-0.285-1.157-0.485l-1.376-0.717l-1.096,1.097l-0.397,0.397c-0.377-0.326-0.73-0.68-1.053-1.059l0.4-0.4
		l1.093-1.093l-0.709-1.373c-0.201-0.39-0.363-0.777-0.48-1.15l-0.466-1.48h-2.101c-0.019-0.238-0.029-0.472-0.029-0.703
		c0-0.261,0.011-0.523,0.035-0.79h2.102l0.471-1.47c0.122-0.381,0.282-0.763,0.479-1.139l0.717-1.376l-1.097-1.097l-0.375-0.375
		c0.326-0.377,0.68-0.73,1.059-1.053l0.378,0.378l1.093,1.093l1.373-0.709c0.381-0.197,0.762-0.357,1.134-0.474l1.474-0.469V13.5
		c0.251-0.022,0.501-0.032,0.746-0.032s0.495,0.01,0.747,0.032v2.079l1.474,0.469c0.371,0.118,0.753,0.278,1.134,0.474l1.373,0.709
		l1.093-1.093l0.378-0.378c0.379,0.323,0.734,0.675,1.059,1.053l-0.375,0.375l-1.097,1.097l0.717,1.376
		c0.195,0.376,0.357,0.759,0.479,1.139l0.471,1.47h2.101c0.024,0.266,0.035,0.53,0.035,0.79
		C29.615,23.29,29.606,23.525,29.586,23.762z M0,0.983v38.034h24.288v-2.118H2.118V9.181h35.766v27.719h-4.149v2.118H40V0.983H0z
		 M37.883,7.064H2.118V3.101h35.766V7.064z M5.228,4.502H3.042V5.56h2.185V4.502z M11.52,4.502H9.335V5.56h2.185V4.502z
		 M8.374,4.502H6.189V5.56h2.185V4.502z M20.092,18.558c-2.466,0-4.466,2-4.466,4.466s1.999,4.466,4.466,4.466
		c2.466,0,4.466-2,4.466-4.466S22.558,18.558,20.092,18.558z M20.092,25.376c-1.296,0-2.351-1.055-2.351-2.351
		s1.055-2.351,2.351-2.351c1.296,0,2.351,1.055,2.351,2.351S21.388,25.376,20.092,25.376z"/>
</g>
</svg>
