<?xml version="1.0" encoding="utf-8"?>
<!-- Generator: Adobe Illustrator 23.0.1, SVG Export Plug-In . SVG Version: 6.00 Build 0)  -->
<svg version="1.1" id="Layer_1" xmlns="http://www.w3.org/2000/svg" xmlns:xlink="http://www.w3.org/1999/xlink" x="0px" y="0px"
	 viewBox="0 0 40 40" style="enable-background:new 0 0 40 40;" xml:space="preserve">
<style type="text/css">
	.st0{fill:#231F20;}
</style>
<g>
	<path class="st0" d="M19.999,5.027l-6.297,3.635v7.042L7.925,19.04v7.272l6.297,3.635l5.777-3.336l5.777,3.336l6.297-3.635V19.04
		l-5.778-3.336V8.662L19.999,5.027z M13.305,27.302l-3.546-2.048v-4.095l3.546,2.048V27.302z M10.675,19.571l3.546-2.047
		l3.546,2.047l-3.546,2.048L10.675,19.571z M18.685,25.255l-3.546,2.048v-4.095l3.546-2.048V25.255z M19.081,16.925l-3.546-2.048
		v-4.096l3.546,2.048V16.925z M19.999,11.24l-3.546-2.048l3.546-2.047l3.546,2.047L19.999,11.24z M20.915,12.829l3.546-2.048v4.095
		l-3.546,2.048V12.829z M24.859,27.302l-3.546-2.048v-4.095l3.546,2.048V27.302z M30.24,25.255l-3.546,2.048v-4.095l3.546-2.048
		V25.255z M29.322,19.571l-3.546,2.048l-3.546-2.048l3.546-2.047L29.322,19.571z M35.67,6.501c-0.482,0-0.937,0.098-1.369,0.247
		C30.902,2.626,25.758,0,19.999,0c-5.243,0-9.973,2.182-13.343,5.682C7.36,5.909,7.982,6.305,8.471,6.837
		C11.441,3.905,15.506,2.081,20,2.081c5.023,0,9.521,2.27,12.541,5.83c-0.675,0.749-1.097,1.73-1.097,2.818
		c0,2.335,1.893,4.227,4.227,4.227c2.335,0,4.227-1.893,4.227-4.227C39.896,8.393,38.003,6.501,35.67,6.501z M35.67,12.874
		c-1.184,0-2.147-0.963-2.147-2.147s0.963-2.147,2.147-2.147c1.184,0,2.146,0.963,2.146,2.147S36.853,12.874,35.67,12.874z
		 M3.55,18.528c0-1.241,0.15-2.447,0.413-3.61c0.122,0.01,0.241,0.037,0.367,0.037c2.335,0,4.227-1.893,4.227-4.227
		S6.664,6.5,4.329,6.5c-2.335,0-4.227,1.893-4.227,4.227c0,1.469,0.75,2.76,1.886,3.518c-0.327,1.377-0.518,2.807-0.518,4.283
		c0,8.382,5.577,15.435,13.216,17.722c-0.018-0.159-0.048-0.314-0.048-0.478c0-0.574,0.117-1.119,0.323-1.617
		C8.353,32.019,3.55,25.837,3.55,18.528z M2.182,10.727c0-1.184,0.963-2.147,2.146-2.147c1.184,0,2.147,0.963,2.147,2.147
		s-0.963,2.147-2.147,2.147C3.145,12.874,2.182,11.911,2.182,10.727z M36.71,15.994c-0.17,0-0.333-0.031-0.497-0.05
		c0.138,0.845,0.237,1.701,0.237,2.584c0,7.72-5.353,14.197-12.537,15.959c-0.546-1.702-2.123-2.942-4.007-2.942
		c-2.335,0-4.227,1.893-4.227,4.227c0,2.335,1.893,4.227,4.227,4.227c2.051,0,3.759-1.462,4.144-3.4
		c8.283-1.849,14.48-9.231,14.48-18.072c0-0.97-0.089-1.918-0.239-2.846C37.8,15.88,37.268,15.994,36.71,15.994z M19.904,37.919
		c-1.184,0-2.147-0.963-2.147-2.146c0-1.184,0.963-2.147,2.147-2.147c1.184,0,2.146,0.963,2.146,2.147
		C22.051,36.955,21.088,37.919,19.904,37.919z"/>
</g>
</svg>
