<?xml version="1.0" encoding="utf-8"?>
<!-- Generator: Adobe Illustrator 23.0.1, SVG Export Plug-In . SVG Version: 6.00 Build 0)  -->
<svg version="1.1" id="Layer_1" xmlns="http://www.w3.org/2000/svg" xmlns:xlink="http://www.w3.org/1999/xlink" x="0px" y="0px"
	 viewBox="0 0 40 40" style="enable-background:new 0 0 40 40;" xml:space="preserve">
<style type="text/css">
	.st0{fill:#231F20;}
</style>
<path class="st0" d="M20,0C8.972,0,0,8.972,0,20s8.972,20,20,20s20-8.972,20-20S31.028,0,20,0z M20,38.298
	C9.911,38.298,1.702,30.09,1.702,20C1.702,9.911,9.911,1.702,20,1.702c10.09,0,18.298,8.209,18.298,18.298
	C38.298,30.09,30.09,38.298,20,38.298z M36.559,19.398l-3.992-3.991l-1.203,1.203l2.539,2.539H20.851V6.097l2.539,2.539l1.203-1.203
	l-3.992-3.991c-0.332-0.332-0.871-0.332-1.203,0l-3.991,3.991l1.203,1.203l2.539-2.539v13.052H6.097l2.539-2.539l-1.203-1.203
	l-3.991,3.991c-0.332,0.332-0.332,0.871,0,1.203l3.991,3.992l1.203-1.203l-2.539-2.539h13.052v13.052l-2.539-2.539l-1.203,1.203
	l3.991,3.992c0.16,0.16,0.376,0.249,0.602,0.249s0.442-0.09,0.602-0.249l3.992-3.992l-1.203-1.203l-2.539,2.539V20.851h13.052
	l-2.539,2.539l1.203,1.203l3.992-3.992c0.16-0.16,0.249-0.376,0.249-0.602C36.809,19.774,36.719,19.558,36.559,19.398z"/>
</svg>
