<?xml version="1.0" encoding="utf-8"?>
<!-- Generator: Adobe Illustrator 23.0.1, SVG Export Plug-In . SVG Version: 6.00 Build 0)  -->
<svg version="1.1" id="Layer_1" xmlns="http://www.w3.org/2000/svg" xmlns:xlink="http://www.w3.org/1999/xlink" x="0px" y="0px"
	 viewBox="0 0 40 40" style="enable-background:new 0 0 40 40;" xml:space="preserve">
<style type="text/css">
	.st0{fill:#231F20;}
</style>
<path class="st0" d="M28.774,15.957h-3.148v-3.099c0.061-3.148-2.452-5.759-5.635-5.82c-3.144,0.033-5.679,2.617-5.651,5.753v3.166
	h-3.115c-0.47,0-0.851,0.381-0.851,0.851v13.557c0,0.47,0.381,0.851,0.851,0.851h17.549c0.47,0,0.851-0.381,0.851-0.851V16.809
	C29.625,16.339,29.245,15.957,28.774,15.957z M16.043,12.784c-0.02-2.207,1.76-4.021,3.951-4.043c2.21,0.043,3.973,1.876,3.93,4.102
	v3.115h-7.881V12.784z M27.923,29.515H12.077V17.66h15.846V29.515z M20,0C8.972,0,0,8.972,0,20s8.972,20,20,20s20-8.972,20-20
	S31.028,0,20,0z M20,38.298C9.911,38.298,1.702,30.09,1.702,20C1.702,9.911,9.911,1.702,20,1.702
	c10.09,0,18.298,8.209,18.298,18.298C38.298,30.09,30.09,38.298,20,38.298z M19.149,25.09v2.833h1.702V25.09
	c1.15-0.364,1.991-1.43,1.991-2.699c0-1.567-1.275-2.842-2.842-2.842s-2.842,1.275-2.842,2.842
	C17.158,23.66,17.999,24.725,19.149,25.09z M20,21.251c0.629,0,1.14,0.511,1.14,1.14s-0.511,1.141-1.14,1.141
	s-1.14-0.512-1.14-1.141C18.86,21.762,19.371,21.251,20,21.251z"/>
</svg>
