<?xml version="1.0" encoding="utf-8"?>
<!-- Generator: Adobe Illustrator 23.0.1, SVG Export Plug-In . SVG Version: 6.00 Build 0)  -->
<svg version="1.1" id="Layer_1" xmlns="http://www.w3.org/2000/svg" xmlns:xlink="http://www.w3.org/1999/xlink" x="0px" y="0px"
	 viewBox="0 0 40 40" style="enable-background:new 0 0 40 40;" xml:space="preserve">
<style type="text/css">
	.st0{fill:#231F20;}
</style>
<path class="st0" d="M29.892,9.5l-9.574-3.855c-0.203-0.082-0.432-0.082-0.635,0L10.108,9.5c-0.322,0.13-0.533,0.442-0.533,0.79
	v7.319h1.702v-6.745L20,7.352l8.723,3.512v11.621c0,0.026-0.013,2.62-1.127,5.194c-1.441,3.33-3.997,5.019-7.596,5.019
	c-3.595,0-6.147-1.803-7.583-5.352c-0.635-1.602-1.011-3.287-1.117-5.007l-1.699,0.105c0.116,1.9,0.531,3.761,1.235,5.535
	c1.699,4.2,4.868,6.421,9.163,6.421c10.307,0,10.426-11.796,10.426-11.915V10.289C30.426,9.942,30.214,9.629,29.892,9.5z
	 M12.766,22.391v0.417c0,0.051,0.005,0.101,0.014,0.151c0.057,0.317,1.469,7.781,7.22,7.781s7.163-7.463,7.221-7.781
	c0.009-0.05,0.013-0.101,0.013-0.151v-9.617c0-0.348-0.212-0.661-0.535-0.79l-6.383-2.553c-0.203-0.081-0.428-0.081-0.632,0
	l-6.383,2.553c-0.323,0.129-0.535,0.443-0.535,0.79v4.443h1.702v-3.866L20,11.555l5.532,2.213v8.957
	c-0.144,0.687-1.447,6.314-5.532,6.314s-5.388-5.627-5.532-6.314v-0.333h-1.702V22.391z M20,0C8.972,0,0,8.972,0,20s8.972,20,20,20
	s20-8.972,20-20S31.028,0,20,0z M20,38.298C9.911,38.298,1.702,30.09,1.702,20C1.702,9.911,9.911,1.702,20,1.702
	c10.09,0,18.298,8.209,18.298,18.298C38.298,30.09,30.09,38.298,20,38.298z M17.007,23.39l1.203,1.203l3.991-3.992
	c0.332-0.332,0.332-0.871,0-1.203l-3.991-3.991l-1.203,1.203l2.539,2.539H4.043v1.702h15.503L17.007,23.39z"/>
</svg>
