<?xml version="1.0" encoding="utf-8"?>
<!-- Generator: Adobe Illustrator 23.0.1, SVG Export Plug-In . SVG Version: 6.00 Build 0)  -->
<svg version="1.1" id="Layer_1" xmlns="http://www.w3.org/2000/svg" xmlns:xlink="http://www.w3.org/1999/xlink" x="0px" y="0px"
	 viewBox="0 0 40 40" style="enable-background:new 0 0 40 40;" xml:space="preserve">
<style type="text/css">
	.st0{fill:#231F20;}
</style>
<path class="st0" d="M32.99,18.357h-3.898v-3.94H27.39v3.94H13.16v-3.94h-1.702v3.94H7.466c-0.47,0-0.851,0.381-0.851,0.851v19.94
	C6.615,39.62,6.996,40,7.466,40H32.99c0.471,0,0.851-0.38,0.851-0.851v-19.94C33.841,18.739,33.46,18.357,32.99,18.357z
	 M32.138,38.298H8.317V20.06h23.821V38.298z M19.381,29.033v4.737h1.702v-4.737c1.53-0.383,2.672-1.76,2.672-3.407
	c0-1.943-1.58-3.524-3.523-3.524s-3.523,1.58-3.523,3.524C16.709,27.273,17.85,28.649,19.381,29.033z M20.232,23.804
	c1.004,0,1.821,0.817,1.821,1.822c0,1.004-0.817,1.821-1.821,1.821s-1.821-0.817-1.821-1.821
	C18.411,24.621,19.228,23.804,20.232,23.804z M13.177,9.215c-0.089-4.026,3.113-7.397,7.115-7.513c1.791,0,3.494,0.72,4.8,2.027
	c1.443,1.445,2.268,3.497,2.264,5.632v0.272h1.702V9.363c0.004-2.582-1.002-5.074-2.761-6.837C24.67,0.898,22.538,0,20.269,0
	c0,0-0.001,0-0.002,0c-4.958,0.143-8.902,4.294-8.792,9.234v0.357h1.702V9.215z M37.622,11.369l-4.085-3.923l-1.179,1.227
	l2.621,2.517H4.807l2.585-2.552L6.196,7.427l-4.026,3.974c-0.162,0.16-0.253,0.378-0.253,0.605c0,0.227,0.09,0.445,0.253,0.605
	l4.026,3.983l1.197-1.21l-2.52-2.493h30.061l-2.49,2.517l1.21,1.197l3.984-4.026c0.16-0.162,0.249-0.382,0.246-0.609
	C37.88,11.745,37.786,11.527,37.622,11.369z"/>
</svg>
