<?xml version="1.0" encoding="utf-8"?>
<!-- Generator: Adobe Illustrator 23.0.1, SVG Export Plug-In . SVG Version: 6.00 Build 0)  -->
<svg version="1.1" id="Layer_1" xmlns="http://www.w3.org/2000/svg" xmlns:xlink="http://www.w3.org/1999/xlink" x="0px" y="0px"
	 viewBox="0 0 40 40" style="enable-background:new 0 0 40 40;" xml:space="preserve">
<style type="text/css">
	.st0{fill:#231F20;}
</style>
<g id="Art">
	<g>
		<path class="st0" d="M20,40l-0.492-0.357c-2.664-1.938-5.648-3.262-8.87-3.935c-6.425-1.156-10.274-4.68-10.274-9.424
			c0-2.84,1.108-4.748,2.086-6.432c0.849-1.462,1.583-2.724,1.583-4.431c-0.076-2.282-1.12-4.478-2.863-5.996L0.556,8.891
			l0.518-0.627C1.12,8.208,5.682,2.676,6.725,1.25l0.626-0.856l0.686,0.809c1.439,1.697,3.538,2.728,5.76,2.831
			c2.144-0.001,3.864-0.977,5.54-3.166L20,0l0.663,0.867c1.675,2.189,3.395,3.165,5.578,3.165c2.184-0.102,4.283-1.133,5.722-2.83
			l0.685-0.808l0.626,0.856c1.044,1.426,5.607,6.958,5.652,7.014l0.517,0.627L38.83,9.425c-1.742,1.518-2.786,3.714-2.863,6.024
			c0.001,1.685,0.735,2.95,1.585,4.414c0.977,1.682,2.083,3.587,2.083,6.421c0,4.743-3.849,8.267-10.297,9.429
			c-3.199,0.668-6.183,1.992-8.848,3.931L20,40z M2.858,8.724c1.735,1.781,2.762,4.169,2.845,6.669c0,2.185-0.919,3.768-1.808,5.299
			c-0.956,1.646-1.86,3.201-1.86,5.592c0,5.732,6.829,7.407,8.921,7.784c3.28,0.685,6.313,1.986,9.043,3.875
			c2.731-1.889,5.762-3.19,9.021-3.87c2.115-0.382,8.944-2.056,8.944-7.788c0-2.384-0.902-3.937-1.857-5.581
			c-0.89-1.533-1.811-3.118-1.811-5.281c0.083-2.525,1.111-4.915,2.844-6.696c-1.022-1.243-3.354-4.088-4.609-5.694
			c-1.684,1.603-3.913,2.565-6.253,2.672c-0.001,0-0.002,0-0.003,0c-2.451,0-4.458-0.962-6.276-3.013
			c-1.819,2.051-3.824,3.013-6.242,3.013c-2.374-0.109-4.606-1.07-6.29-2.673C6.213,4.636,3.881,7.481,2.858,8.724z"/>
	</g>
</g>
</svg>
