<?xml version="1.0" encoding="utf-8"?>
<!-- Generator: Adobe Illustrator 23.0.1, SVG Export Plug-In . SVG Version: 6.00 Build 0)  -->
<svg version="1.1" id="Layer_1" xmlns="http://www.w3.org/2000/svg" xmlns:xlink="http://www.w3.org/1999/xlink" x="0px" y="0px"
	 viewBox="0 0 40 40" style="enable-background:new 0 0 40 40;" xml:space="preserve">
<style type="text/css">
	.st0{fill:#231F20;}
</style>
<path class="st0" d="M20,0C8.972,0,0,8.972,0,20s8.972,20,20,20s20-8.972,20-20S31.028,0,20,0z M20,38.298
	C9.911,38.298,1.702,30.09,1.702,20C1.702,9.911,9.911,1.702,20,1.702c10.09,0,18.298,8.209,18.298,18.298
	C38.298,30.09,30.09,38.298,20,38.298z M10.157,7.369c-0.256-0.205-0.607-0.244-0.9-0.102c-0.295,0.142-0.482,0.44-0.482,0.767
	v6.383c0,0.327,0.187,0.625,0.482,0.767c0.117,0.056,0.243,0.084,0.369,0.084c0.189,0,0.378-0.063,0.531-0.186l3.991-3.191
	c0.202-0.162,0.32-0.406,0.32-0.665s-0.118-0.503-0.32-0.665L10.157,7.369z M10.477,12.647V9.804l1.778,1.421L10.477,12.647z
	 M10.157,16.944c-0.256-0.206-0.607-0.244-0.9-0.103c-0.295,0.142-0.482,0.44-0.482,0.767v6.383c0,0.327,0.187,0.625,0.482,0.767
	c0.117,0.057,0.243,0.084,0.369,0.084c0.189,0,0.378-0.063,0.531-0.186l3.991-3.191c0.202-0.162,0.32-0.406,0.32-0.665
	c0-0.258-0.118-0.503-0.32-0.665L10.157,16.944z M10.477,22.222v-2.843l1.778,1.422L10.477,22.222z M35.76,20.199l-3.983-3.992
	c-0.243-0.244-0.611-0.316-0.928-0.186c-0.318,0.132-0.526,0.442-0.526,0.787v3.141h-7.081v-8.724c0-0.47-0.381-0.851-0.851-0.851
	h-7.013v1.702h6.161v7.873h-6.323v1.702h6.323v7.872h-6.161v1.702h7.013c0.47,0,0.851-0.381,0.851-0.851v-8.723h7.081v3.14
	c0,0.344,0.208,0.655,0.526,0.786c0.105,0.044,0.215,0.065,0.325,0.065c0.222,0,0.44-0.086,0.603-0.25l3.983-3.991
	C36.091,21.07,36.091,20.531,35.76,20.199z M32.025,22.734v-3.867l1.929,1.934L32.025,22.734z M10.157,25.718
	c-0.256-0.204-0.607-0.245-0.9-0.102c-0.295,0.142-0.482,0.44-0.482,0.767v6.383c0,0.327,0.187,0.625,0.482,0.767
	c0.117,0.057,0.243,0.084,0.369,0.084c0.189,0,0.378-0.063,0.531-0.186l3.991-3.191c0.202-0.162,0.32-0.406,0.32-0.665
	c0-0.258-0.118-0.503-0.32-0.665L10.157,25.718z M10.477,30.996v-2.842l1.778,1.421L10.477,30.996z"/>
</svg>
