<?xml version="1.0" encoding="utf-8"?>
<!-- Generator: Adobe Illustrator 23.0.1, SVG Export Plug-In . SVG Version: 6.00 Build 0)  -->
<svg version="1.1" id="Layer_1" xmlns="http://www.w3.org/2000/svg" xmlns:xlink="http://www.w3.org/1999/xlink" x="0px" y="0px"
	 viewBox="0 0 40 40" style="enable-background:new 0 0 40 40;" xml:space="preserve">
<style type="text/css">
	.st0{fill:#231F20;}
</style>
<path class="st0" d="M20,0C8.972,0,0,8.972,0,20s8.972,20,20,20s20-8.972,20-20S31.028,0,20,0z M20,38.298
	C9.911,38.298,1.702,30.09,1.702,20C1.702,9.911,9.911,1.702,20,1.702c10.09,0,18.298,8.209,18.298,18.298
	C38.298,30.09,30.09,38.298,20,38.298z M12.077,8.885h15.055v8.723h1.702V8.034c0-0.47-0.381-0.851-0.851-0.851H11.225
	c-0.47,0-0.851,0.381-0.851,0.851v9.574h1.702L12.077,8.885L12.077,8.885z M27.132,31.115H12.077v-8.723h-1.702v9.574
	c0,0.47,0.381,0.851,0.851,0.851h16.757c0.47,0,0.851-0.381,0.851-0.851v-9.574h-1.702V31.115z M25.583,11.174H13.617v1.702h11.966
	V11.174z M13.617,16.86h11.966v-1.702H13.617V16.86z M25.583,23.141H13.617v1.702h11.966V23.141z M13.617,28.834h11.966v-1.702
	H13.617V28.834z M36.559,19.398l-3.992-3.991l-1.203,1.203l2.539,2.539H4.843v1.702h29.06l-2.539,2.539l1.203,1.203l3.992-3.992
	c0.16-0.16,0.249-0.376,0.249-0.602C36.809,19.774,36.719,19.558,36.559,19.398z"/>
</svg>
