<?xml version="1.0" encoding="utf-8"?>
<!-- Generator: Adobe Illustrator 23.0.1, SVG Export Plug-In . SVG Version: 6.00 Build 0)  -->
<svg version="1.1" id="Layer_1" xmlns="http://www.w3.org/2000/svg" xmlns:xlink="http://www.w3.org/1999/xlink" x="0px" y="0px"
	 viewBox="0 0 40 40" style="enable-background:new 0 0 40 40;" xml:space="preserve">
<style type="text/css">
	.st0{fill:#231F20;}
</style>
<g>
	<path class="st0" d="M20,0C8.954,0,0,8.954,0,20s8.954,20,20,20s20-8.954,20-20C40,8.954,31.046,0,20,0z M27.409,3.712
		c-1.063,0.257-2.104,0.573-3.114,0.954l0,0c-0.694-0.649-1.619-1.054-2.646-1.054c-0.81,0-1.561,0.249-2.183,0.673
		c-0.949-0.681-1.947-1.295-2.984-1.846C17.621,2.213,18.795,2.089,20,2.089C22.645,2.088,25.149,2.679,27.409,3.712z
		 M28.934,32.563c0.363,0.763,0.671,1.555,0.95,2.362c-0.781,0.519-1.609,0.968-2.469,1.361
		C28.016,35.096,28.529,33.855,28.934,32.563z M28.352,30.279c-0.991,0-1.797-0.806-1.797-1.797c0-0.991,0.806-1.798,1.797-1.798
		s1.797,0.806,1.797,1.798C30.149,29.472,29.343,30.279,28.352,30.279z M26.363,25.161L26.363,25.161
		c-3.043-3.242-6.923-5.685-11.291-6.99c-0.079-1.032-0.552-1.945-1.279-2.594l0,0c1.376-2.072,3.066-3.915,5.011-5.454
		c0.71,0.768,1.717,1.257,2.846,1.257c0.614,0,1.187-0.155,1.703-0.409c2.861,3.823,4.575,8.546,4.645,13.662
		C27.403,24.687,26.85,24.869,26.363,25.161z M9.419,18.464c0-0.991,0.806-1.797,1.797-1.797s1.797,0.806,1.797,1.797
		s-0.806,1.798-1.797,1.798C10.226,20.262,9.419,19.455,9.419,18.464z M21.65,9.293c-0.991,0-1.797-0.806-1.797-1.797
		s0.806-1.797,1.797-1.797s1.797,0.806,1.797,1.797S22.641,9.293,21.65,9.293z M13.485,3.333c1.647,0.68,3.206,1.531,4.641,2.551
		l0,0c-0.226,0.493-0.36,1.035-0.36,1.613c0,0.255,0.029,0.503,0.075,0.745c-2.327,1.778-4.337,3.946-5.936,6.409
		c-0.224-0.04-0.453-0.07-0.688-0.07c-1.665,0-3.074,1.054-3.627,2.526c-1.834,0.015-3.619,0.235-5.342,0.622
		C3.087,11.146,7.502,5.68,13.485,3.333z M2.088,20c0-0.03,0.005-0.059,0.005-0.09c1.707-0.429,3.483-0.678,5.314-0.709
		c0.176,0.914,0.681,1.703,1.377,2.267c-0.641,2.229-0.989,4.579-0.989,7.011c0,1.735,0.185,3.426,0.519,5.064
		C4.509,30.258,2.088,25.412,2.088,20z M10.965,35.441c-0.69-2.201-1.081-4.534-1.081-6.96c0-2.141,0.296-4.211,0.838-6.183
		c0.165,0.022,0.326,0.05,0.496,0.05c1.507,0,2.799-0.867,3.443-2.121c3.977,1.224,7.503,3.48,10.267,6.457l0,0
		c-0.285,0.539-0.461,1.145-0.461,1.798c0,1.625,1,3.013,2.416,3.593l0,0c-0.599,1.869-1.437,3.63-2.458,5.263
		c-1.418,0.362-2.896,0.576-4.425,0.576C16.703,37.913,13.621,37.002,10.965,35.441z M31.624,33.604
		c-0.271-0.705-0.56-1.401-0.887-2.077c0.906-0.711,1.499-1.803,1.499-3.046c0-1.517-0.878-2.816-2.145-3.456
		c0-0.023,0.003-0.046,0.003-0.069c0-5.769-1.936-11.089-5.182-15.365l0,0c0.39-0.606,0.622-1.322,0.622-2.096
		c0-0.361-0.065-0.703-0.157-1.034l0,0c1.541-0.554,3.158-0.942,4.827-1.163c4.651,3.239,7.707,8.617,7.707,14.702
		C37.913,25.442,35.465,30.315,31.624,33.604z"/>
</g>
</svg>
