<?xml version="1.0" encoding="utf-8"?>
<!-- Generator: Adobe Illustrator 23.0.1, SVG Export Plug-In . SVG Version: 6.00 Build 0)  -->
<svg version="1.1" id="Layer_1" xmlns="http://www.w3.org/2000/svg" xmlns:xlink="http://www.w3.org/1999/xlink" x="0px" y="0px"
	 viewBox="0 0 40 40" style="enable-background:new 0 0 40 40;" xml:space="preserve">
<style type="text/css">
	.st0{fill:#231F20;}
</style>
<g id="ICONS_-_EDIT">
	<path class="st0" d="M26.701,27.86h-3.505v-1.6h3.505c0.846-0.001,1.658-0.338,2.256-0.936c0.505-0.64,0.736-1.455,0.64-2.264
		c0.133-1.63-1.08-3.059-2.71-3.192c-0.057-0.005-0.114-0.008-0.171-0.009h-6.001c-0.27-0.002-0.539,0.033-0.8,0.104
		c-1.129,0.28-2.017,1.15-2.321,2.272c-0.202,0.74-0.129,1.528,0.208,2.216l-1.44,0.704c-0.319-0.653-0.483-1.37-0.48-2.096
		c0.002-0.422,0.058-0.841,0.168-1.248c0.453-1.655,1.756-2.943,3.417-3.377c0.402-0.109,0.816-0.163,1.232-0.16h5.993
		c2.519,0.036,4.531,2.107,4.495,4.626c-0.001,0.058-0.003,0.117-0.006,0.175c0.103,1.222-0.292,2.434-1.096,3.361
		C29.195,27.346,27.975,27.86,26.701,27.86z"/>
	<path class="st0" d="M18.019,29.46h-6.025c-2.652,0-4.801-2.149-4.801-4.801s2.149-4.801,4.801-4.801h3.201v1.6h-3.201
		c-1.768,0-3.201,1.433-3.201,3.201c0,1.768,1.433,3.201,3.201,3.201h6.001c0.593-0.004,1.174-0.17,1.68-0.48
		c0.212-0.124,0.406-0.278,0.576-0.456c0.608-0.596,0.949-1.413,0.944-2.264c0-0.104,0-0.2,0-0.296
		c-0.08-0.872-0.514-1.673-1.2-2.216l0.984-1.256c1.031,0.808,1.687,2.002,1.816,3.305c0.008,0.155,0.008,0.31,0,0.464
		c0.001,1.269-0.506,2.485-1.408,3.377c-0.261,0.263-0.554,0.491-0.872,0.68C19.772,29.198,18.905,29.456,18.019,29.46z"/>
	<path class="st0" d="M32.286,32.661H7.705c-4.241,0-7.482-2.825-7.698-6.705c0-0.176,0-0.352,0-0.528
		c-0.151-3.325,2.017-6.313,5.225-7.202c0-0.192,0-0.384,0-0.584c0.135-5.823,4.964-10.434,10.787-10.3
		c2.753,0.064,5.372,1.201,7.297,3.17c1,0.988,1.813,2.148,2.401,3.425c1.223-0.964,2.842-1.264,4.329-0.8
		c2.008,0.608,3.353,2.401,3.673,4.921C37.768,19.09,40,21.699,40,25.483C40,30.116,37.263,32.661,32.286,32.661z M6.201,19.642
		c-1.744,0.448-4.609,1.792-4.609,5.785c0,0.144,0,0.296,0,0.432c0.168,3.009,2.737,5.201,6.097,5.201h24.597
		c4.057,0,6.113-1.872,6.113-5.601c0-3.201-1.88-5.217-5.601-5.961c-0.356-0.072-0.618-0.374-0.64-0.736
		c-0.128-2.144-1.08-3.633-2.601-4.097c-1.305-0.391-2.715,0.088-3.513,1.192c-0.177,0.23-0.465,0.347-0.752,0.304
		c-0.29-0.044-0.533-0.244-0.632-0.52c-0.524-1.491-1.377-2.845-2.497-3.961c-3.425-3.555-9.083-3.66-12.638-0.234
		c-1.692,1.631-2.674,3.862-2.733,6.212c-0.003,0.361,0.019,0.722,0.064,1.08C6.92,19.167,6.628,19.569,6.201,19.642z"/>
</g>
</svg>
