<?xml version="1.0" encoding="utf-8"?>
<!-- Generator: Adobe Illustrator 23.0.1, SVG Export Plug-In . SVG Version: 6.00 Build 0)  -->
<svg version="1.1" id="Layer_1" xmlns="http://www.w3.org/2000/svg" xmlns:xlink="http://www.w3.org/1999/xlink" x="0px" y="0px"
	 viewBox="0 0 40 40" style="enable-background:new 0 0 40 40;" xml:space="preserve">
<style type="text/css">
	.st0{fill:#231F20;}
</style>
<g>
	<path class="st0" d="M39.709,6.026L27.774,0.053c-0.039-0.019-0.079-0.029-0.118-0.029c-0.138,0-0.263,0.111-0.263,0.263v9.877
		h-1.707v2.103h1.707v14.867h-1.707v2.103h1.707v10.474c0,0.151,0.123,0.263,0.263,0.263c0.033,0,0.067-0.007,0.102-0.021
		l11.919-4.97C39.872,34.901,40,34.71,40,34.498V6.494C39.999,6.296,39.886,6.115,39.709,6.026z M37.896,33.448l-8.401,3.503V3.266
		l8.401,4.203V33.448z M12.605,12.268h1.707v-2.103h-1.707V0.287c0-0.152-0.125-0.263-0.263-0.263c-0.039,0-0.079,0.009-0.118,0.029
		L0.29,6.026C0.112,6.115,0,6.296,0,6.495v28.004c0,0.213,0.128,0.403,0.323,0.486l11.919,4.97c0.033,0.014,0.067,0.021,0.102,0.021
		c0.138,0,0.263-0.112,0.263-0.263V29.239h1.707v-2.103h-1.707L12.605,12.268L12.605,12.268z M10.503,36.95l-8.401-3.503V7.469
		l8.401-4.203V36.95z M23.997,10.166h-3.154v2.103h3.154V10.166z M19.155,10.166h-3.154v2.103h3.154V10.166z M16.001,29.237h3.154
		v-2.103h-3.154V29.237z M20.843,29.237h3.154v-2.103h-3.154V29.237z M16.318,15.861l-3.489,3.489l3.489,3.489l1.487-1.487
		l-2.003-2.003l2.003-2.002L16.318,15.861z M23.68,22.84l3.489-3.489l-3.489-3.489l-1.487,1.487l2.003,2.002l-2.003,2.003
		L23.68,22.84z M20.929,14.585l-3.705,9.292l1.953,0.778l3.705-9.292L20.929,14.585z"/>
</g>
</svg>
