<?xml version="1.0" encoding="utf-8"?>
<!-- Generator: Adobe Illustrator 23.0.1, SVG Export Plug-In . SVG Version: 6.00 Build 0)  -->
<svg version="1.1" id="Layer_1" xmlns="http://www.w3.org/2000/svg" xmlns:xlink="http://www.w3.org/1999/xlink" x="0px" y="0px"
	 viewBox="0 0 40 40" style="enable-background:new 0 0 40 40;" xml:space="preserve">
<style type="text/css">
	.st0{fill:#231F20;}
</style>
<path class="st0" d="M20,0C8.972,0,0,8.972,0,20s8.972,20,20,20s20-8.972,20-20S31.028,0,20,0z M20,38.298
	C9.911,38.298,1.702,30.09,1.702,20C1.702,9.911,9.911,1.702,20,1.702c10.09,0,18.298,8.209,18.298,18.298
	C38.298,30.09,30.09,38.298,20,38.298z M20.851,33.795V6.452l2.469,2.877l1.292-1.109l-3.966-4.621
	c-0.322-0.376-0.968-0.377-1.292,0L15.388,8.22l1.292,1.109l2.469-2.877v27.343l-2.514-2.508l-1.203,1.205l3.966,3.958
	c0.166,0.165,0.384,0.249,0.601,0.249c0.218,0,0.435-0.083,0.601-0.249l3.966-3.958l-1.202-1.205L20.851,33.795z M17.963,19.398
	l-3.966-3.966l-1.203,1.203l2.513,2.513H2.834v1.702h12.473l-2.513,2.513l1.203,1.203l3.966-3.966
	C18.296,20.269,18.296,19.731,17.963,19.398z M24.692,19.149l2.513-2.513l-1.203-1.203l-3.966,3.966
	c-0.332,0.332-0.332,0.871,0,1.203l3.966,3.966l1.203-1.203l-2.513-2.513h12.473V19.15L24.692,19.149L24.692,19.149z"/>
</svg>
