<?xml version="1.0" encoding="utf-8"?>
<!-- Generator: Adobe Illustrator 23.0.1, SVG Export Plug-In . SVG Version: 6.00 Build 0)  -->
<svg version="1.1" id="Layer_1" xmlns="http://www.w3.org/2000/svg" xmlns:xlink="http://www.w3.org/1999/xlink" x="0px" y="0px"
	 viewBox="0 0 40 40" style="enable-background:new 0 0 40 40;" xml:space="preserve">
<style type="text/css">
	.st0{fill:#231F20;}
</style>
<path class="st0" d="M20,0C8.972,0,0,8.972,0,20s8.972,20,20,20s20-8.972,20-20S31.028,0,20,0z M20,38.298
	C9.911,38.298,1.702,30.09,1.702,20C1.702,9.911,9.911,1.702,20,1.702c10.09,0,18.298,8.209,18.298,18.298
	C38.298,30.09,30.09,38.298,20,38.298z M20.235,8.409c-3.743-0.099-7.432,1.154-10.347,3.527c-0.199,0.162-0.314,0.404-0.314,0.66
	v18.613c0,0.47,0.381,0.851,0.851,0.851h3.166c0.47,0,0.851-0.381,0.851-0.851V14.861c1.781-0.937,3.767-1.457,5.736-1.508
	c1.846,0.056,3.683,0.508,5.345,1.314v16.5c0,0.47,0.381,0.851,0.851,0.851h3.2c0.47,0,0.851-0.381,0.851-0.851V12.238
	c0-0.269-0.128-0.523-0.344-0.684C27.242,9.448,23.736,8.339,20.235,8.409z M28.723,30.315h-1.498v-16.17
	c0-0.314-0.173-0.603-0.45-0.751c-2.007-1.071-4.27-1.674-6.592-1.742c-2.458,0.063-4.883,0.743-7.015,1.968
	c-0.264,0.152-0.427,0.433-0.427,0.738v16h-1.464v-17.35c2.547-1.955,5.706-2.979,8.955-2.897c3.015-0.071,6.017,0.842,8.492,2.564
	L28.723,30.315L28.723,30.315z"/>
</svg>
