<?xml version="1.0" encoding="utf-8"?>
<!-- Generator: Adobe Illustrator 23.0.1, SVG Export Plug-In . SVG Version: 6.00 Build 0)  -->
<svg version="1.1" id="Layer_1" xmlns="http://www.w3.org/2000/svg" xmlns:xlink="http://www.w3.org/1999/xlink" x="0px" y="0px"
	 viewBox="0 0 40 40" style="enable-background:new 0 0 40 40;" xml:space="preserve">
<style type="text/css">
	.st0{fill:#231F20;}
</style>
<g>
	<path class="st0" d="M31.388,14.58c-0.685-0.248-1.44-0.248-2.123,0l-8.612,3.114v11.605c0,6.326,4.866,9.637,9.674,9.637
		S40,35.626,40,29.299V17.694L31.388,14.58z M37.918,29.298c0,5.192-3.936,7.556-7.592,7.556s-7.592-2.364-7.592-7.556V19.154
		l7.238-2.617c0.229-0.083,0.479-0.083,0.707,0l7.237,2.617L37.918,29.298L37.918,29.298z M29.587,17.776l-5.779,2.195v9.059
		c0,1.975,0.714,3.645,2.065,4.828c1.183,1.036,2.763,1.607,4.45,1.607c3.238,0,6.515-2.21,6.515-6.435v-9.059l-5.77-2.195
		C30.589,17.595,30.062,17.595,29.587,17.776z M34.756,21.407v7.624c0,3.008-2.226,4.354-4.433,4.354
		c-2.208,0-4.434-1.346-4.434-4.354v-7.624l4.437-1.686L34.756,21.407z M2.136,20.143c-0.393-3.206,1.419-6.276,4.405-7.467
		c0.479-0.19,0.803-0.646,0.827-1.156c0.238-4.697,4.104-8.375,8.804-8.375c3.443,0,6.595,2.025,8.029,5.159
		c0.151,0.329,0.432,0.584,0.771,0.702c0.342,0.118,0.722,0.088,1.047-0.082c0.565-0.296,1.161-0.446,1.771-0.446
		c2.009,0,3.667,1.515,3.856,3.523c0.053,0.576,0.467,1.046,1.031,1.168c1.682,0.366,3.09,1.38,4.027,2.731h2.4
		c-1.07-2.207-3.025-3.943-5.461-4.634c-0.52-2.811-2.947-4.869-5.852-4.869c-0.697,0-1.379,0.125-2.034,0.368
		c-1.897-3.487-5.581-5.7-9.586-5.7c-5.646,0-10.321,4.297-10.847,9.871c-3.597,1.66-5.744,5.481-5.256,9.462
		c0.559,4.565,4.585,8.009,9.364,8.009h9.446v-2.088l-9.446,0.007C5.705,26.324,2.567,23.668,2.136,20.143z"/>
</g>
</svg>
