<?xml version="1.0" encoding="utf-8"?>
<!-- Generator: Adobe Illustrator 23.0.1, SVG Export Plug-In . SVG Version: 6.00 Build 0)  -->
<svg version="1.1" id="Layer_1" xmlns="http://www.w3.org/2000/svg" xmlns:xlink="http://www.w3.org/1999/xlink" x="0px" y="0px"
	 viewBox="0 0 40 40" style="enable-background:new 0 0 40 40;" xml:space="preserve">
<style type="text/css">
	.st0{fill:#231F20;}
</style>
<g>
	<path class="st0" d="M27.934,34.856v-3.049c0-1.883-1.253-3.463-2.962-3.996v-6.473c1.695-0.363,2.969-1.87,2.969-3.671
		c0-2.071-1.686-3.757-3.758-3.757c-0.493,0-0.96,0.101-1.391,0.274c0.221-0.478,0.351-1.004,0.351-1.562
		c0-2.071-1.686-3.757-3.757-3.757s-3.757,1.686-3.757,3.757c0,0.559,0.131,1.086,0.351,1.562c-0.432-0.173-0.899-0.274-1.392-0.274
		c-2.071,0-3.757,1.686-3.757,3.757c0,1.801,1.276,3.308,2.968,3.671v6.473c-1.71,0.534-2.961,2.113-2.961,3.996v3.049
		c-1.702,0.538-2.946,2.113-2.946,3.991v0.856h2.102v-0.856c0-1.16,0.943-2.102,2.102-2.102h14.579c1.159,0,2.102,0.943,2.102,2.102
		v0.856h2.102v-0.856C30.881,36.97,29.636,35.395,27.934,34.856z M24.183,15.486c1.203,0,2.182,0.978,2.182,2.181
		c0,1.202-0.978,2.181-2.182,2.181c-1.202,0-2.181-0.978-2.181-2.181C22.002,16.464,22.981,15.486,24.183,15.486z M23.395,21.338
		v6.264h-3.22v-11.31c0.208-0.045,0.409-0.11,0.602-0.187c-0.221,0.478-0.351,1.004-0.351,1.562
		C20.426,19.468,21.701,20.973,23.395,21.338z M19.386,10.44c1.202,0,2.181,0.978,2.181,2.181s-0.978,2.181-2.181,2.181
		c-1.202,0-2.181-0.978-2.181-2.181C17.206,11.418,18.184,10.44,19.386,10.44z M18.346,17.667c0-0.559-0.131-1.086-0.351-1.562
		c0.194,0.078,0.394,0.143,0.602,0.187v11.31h-3.221v-6.264C17.072,20.974,18.346,19.468,18.346,17.667z M12.409,17.667
		c0-1.202,0.978-2.181,2.181-2.181c1.203,0,2.182,0.978,2.182,2.181c0,1.202-0.978,2.181-2.182,2.181
		C13.386,19.848,12.409,18.869,12.409,17.667z M25.832,34.643H12.941v-2.836c0-1.159,0.943-2.102,2.102-2.102h8.687
		c1.159,0,2.102,0.943,2.102,2.102V34.643z M33.915,10.965c-0.427-2.746-2.808-4.855-5.672-4.855c-0.846,0-1.663,0.186-2.417,0.547
		c-1.712-3.854-5.507-6.36-9.819-6.36c-5.931,0-10.756,4.825-10.756,10.756c0,0.129,0.003,0.261,0.009,0.395
		C2.161,12.418,0,15.295,0,18.618c0,4.148,3.374,7.522,7.522,7.522h4.142v-2.102H7.522c-2.988,0-5.42-2.431-5.42-5.42
		c0-2.629,1.878-4.87,4.465-5.329c0.551-0.097,0.928-0.609,0.859-1.163c-0.05-0.407-0.074-0.746-0.074-1.072
		c0-4.772,3.882-8.654,8.654-8.654c3.839,0,7.166,2.468,8.28,6.14c0.102,0.336,0.365,0.599,0.699,0.701
		c0.335,0.102,0.699,0.031,0.971-0.191c0.669-0.546,1.459-0.835,2.286-0.835c1.991,0,3.614,1.608,3.637,3.593
		c-0.001,0.025-0.002,0.05-0.002,0.074c0,0.544,0.415,0.998,0.957,1.047c2.887,0.26,5.063,2.641,5.063,5.542
		c0,3.07-2.498,5.568-5.568,5.568h-5.22v2.102h5.22c4.23,0,7.67-3.44,7.67-7.67C40.001,14.777,37.441,11.695,33.915,10.965z"/>
</g>
</svg>
