<?xml version="1.0" encoding="utf-8"?>
<!-- Generator: Adobe Illustrator 23.0.1, SVG Export Plug-In . SVG Version: 6.00 Build 0)  -->
<svg version="1.1" id="Layer_1" xmlns="http://www.w3.org/2000/svg" xmlns:xlink="http://www.w3.org/1999/xlink" x="0px" y="0px"
	 viewBox="0 0 40 40" style="enable-background:new 0 0 40 40;" xml:space="preserve">
<style type="text/css">
	.st0{fill:#231F20;}
</style>
<path class="st0" d="M24.791,16.757h-1.55l-0.001-1.19c0.135-1.872-1.278-3.505-3.162-3.641c-0.041-0.002-0.082-0.004-0.124-0.002
	c-0.908,0.05-1.742,0.45-2.349,1.128c-0.607,0.677-0.913,1.55-0.864,2.429v1.277h-1.523c-0.47,0-0.851,0.381-0.851,0.851v7.974
	c0,0.47,0.381,0.851,0.851,0.851h9.574c0.47,0,0.851-0.381,0.851-0.851v-7.974C25.642,17.138,25.262,16.757,24.791,16.757z
	 M18.872,14.188c0.303-0.339,0.721-0.539,1.095-0.563c0.936,0.067,1.643,0.884,1.573,1.881v1.251h-3.098l-0.001-1.34
	C18.415,14.963,18.569,14.527,18.872,14.188z M23.94,24.732h-7.872V18.46h7.872V24.732z M20,0C8.972,0,0,8.972,0,20s8.972,20,20,20
	s20-8.972,20-20S31.028,0,20,0z M20,38.298C9.911,38.298,1.702,30.09,1.702,20C1.702,9.911,9.911,1.702,20,1.702
	c10.09,0,18.298,8.209,18.298,18.298C38.298,30.09,30.09,38.298,20,38.298z M5.388,16.045c-0.254-0.213-0.608-0.258-0.906-0.118
	c-0.299,0.14-0.49,0.44-0.49,0.771v6.604c0,0.33,0.191,0.631,0.49,0.77c0.115,0.054,0.238,0.081,0.361,0.081
	c0.195,0,0.389-0.067,0.545-0.198l3.957-3.302c0.194-0.161,0.306-0.4,0.306-0.653c0-0.252-0.112-0.492-0.306-0.653L5.388,16.045z
	 M5.694,21.484v-2.967L7.471,20L5.694,21.484z M35.518,15.927c-0.298-0.141-0.652-0.095-0.906,0.118l-3.957,3.302
	c-0.194,0.162-0.306,0.401-0.306,0.653c0,0.253,0.112,0.492,0.306,0.653l3.957,3.302c0.156,0.13,0.35,0.198,0.545,0.198
	c0.122,0,0.246-0.027,0.361-0.081c0.299-0.14,0.49-0.44,0.49-0.77v-6.604C36.008,16.368,35.817,16.067,35.518,15.927z
	 M34.306,21.484L32.528,20l1.778-1.484V21.484z M10.374,30.375h1.702V9.626h-1.702V30.375z M27.923,30.375h1.702V9.626h-1.702
	V30.375z"/>
</svg>
