<?xml version="1.0" encoding="utf-8"?>
<!-- Generator: Adobe Illustrator 23.0.1, SVG Export Plug-In . SVG Version: 6.00 Build 0)  -->
<svg version="1.1" id="Layer_1" xmlns="http://www.w3.org/2000/svg" xmlns:xlink="http://www.w3.org/1999/xlink" x="0px" y="0px"
	 viewBox="0 0 40 40" style="enable-background:new 0 0 40 40;" xml:space="preserve">
<style type="text/css">
	.st0{fill:#231F20;}
</style>
<path class="st0" d="M39.83,19.499L25.495,0.374c-0.22-0.294-0.606-0.414-0.952-0.295c-0.348,0.118-0.581,0.447-0.576,0.814
	l0.075,6.309L2.177,7.265c-1.204,0-2.183,0.979-2.183,2.18L0,30.659c0.011,0.583,0.249,1.126,0.669,1.53
	c0.42,0.405,0.985,0.623,1.539,0.61h21.758v6.319c0,0.366,0.234,0.69,0.581,0.805c0.089,0.03,0.179,0.044,0.269,0.044
	c0.262,0,0.516-0.122,0.679-0.339L39.83,20.519C40.057,20.217,40.057,19.801,39.83,19.499z M25.665,36.57v-4.621
	c0-0.469-0.38-0.849-0.849-0.849H2.192c-0.16-0.005-0.252-0.046-0.345-0.135c-0.093-0.09-0.146-0.21-0.148-0.345L1.693,9.448
	c0-0.268,0.217-0.485,0.501-0.485L24.9,8.9c0.227,0,0.445-0.091,0.604-0.252c0.16-0.162,0.248-0.38,0.245-0.607l-0.054-4.568
	l12.394,16.535L25.665,36.57z M5.707,10.403H2.845v1.699h2.013v15.813H2.845v1.699h2.862c0.469,0,0.849-0.38,0.849-0.849V11.253
	C6.556,10.784,6.176,10.403,5.707,10.403z M8.042,12.841V24.79c0,0.469,0.38,0.849,0.849,0.849h0.747v1.538
	c0,0.469,0.38,0.849,0.849,0.849h7.958c0.469,0,0.849-0.38,0.849-0.849v-1.538h1.486v1.538c0,0.469,0.38,0.849,0.849,0.849h3.983
	c0.469,0,0.849-0.38,0.849-0.849v-1.538h2.335c0.469,0,0.849-0.38,0.849-0.849V12.841c0-0.469-0.38-0.849-0.849-0.849H8.892
	C8.423,11.992,8.042,12.372,8.042,12.841z M9.741,13.69H27.95v10.251h-2.335c-0.469,0-0.849,0.38-0.849,0.849v1.538H22.48V24.79
	c0-0.469-0.38-0.849-0.849-0.849h-3.185c-0.469,0-0.849,0.38-0.849,0.849v1.538h-6.259V24.79c0-0.469-0.38-0.849-0.849-0.849H9.741
	V13.69z M12.875,22.446h11.151c0.469,0,0.849-0.38,0.849-0.849v-5.571c0-0.469-0.38-0.849-0.849-0.849H12.875
	c-0.469,0-0.849,0.38-0.849,0.849v5.571C12.025,22.066,12.406,22.446,12.875,22.446z M19.295,16.875h3.881v3.873h-3.881V16.875z
	 M13.724,16.875h3.873v3.873h-3.873V16.875z"/>
</svg>
