<?xml version="1.0" encoding="utf-8"?>
<!-- Generator: Adobe Illustrator 23.0.1, SVG Export Plug-In . SVG Version: 6.00 Build 0)  -->
<svg version="1.1" id="Layer_1" xmlns="http://www.w3.org/2000/svg" xmlns:xlink="http://www.w3.org/1999/xlink" x="0px" y="0px"
	 viewBox="0 0 40 40" style="enable-background:new 0 0 40 40;" xml:space="preserve">
<path d="M15.983,19.474c-0.453,0.007-0.905,0.054-1.35,0.142l0.183-2.758H18.7V15.74h-5l-0.258,4.058v0.9
	c0.697-0.082,1.398-0.126,2.1-0.133c0.588-0.047,1.176,0.106,1.667,0.433c0.37,0.367,0.557,0.881,0.508,1.4
	c0.034,0.511-0.169,1.008-0.55,1.35c-0.453,0.337-1.011,0.503-1.575,0.467c-0.881-0.028-1.752-0.191-2.583-0.483v1.1
	c0.816,0.362,1.699,0.546,2.592,0.542c0.92,0.038,1.823-0.258,2.542-0.833c0.636-0.533,0.992-1.329,0.967-2.158
	c0.043-0.798-0.26-1.576-0.833-2.133C17.641,19.702,16.819,19.424,15.983,19.474z M24.033,19.774h-0.267l2.8-2.958V15.74h-5.533
	v1.15h4.008l-2.858,3.108v0.842c0.429-0.047,0.86-0.07,1.292-0.067c1.392,0,2.083,0.567,2.083,1.667
	c0.021,0.5-0.184,0.984-0.558,1.317c-0.438,0.339-0.979,0.518-1.533,0.508c-0.853-0.031-1.697-0.194-2.5-0.483v1.083
	c0.788,0.348,1.639,0.533,2.5,0.542c0.93,0.035,1.842-0.26,2.575-0.833c0.634-0.52,0.988-1.306,0.958-2.125
	c0.025-0.741-0.28-1.456-0.833-1.95C25.575,19.991,24.811,19.732,24.033,19.774z M32.092,15.157c0.007-2.239,0.651-4.43,1.858-6.317
	l0.317-0.508l-1.925-2.375l-0.617,0.342c-1.634,0.928-3.479,1.425-5.358,1.442c-2.106,0.03-4.168-0.606-5.892-1.817L20,5.599
	l-0.475,0.325C17.801,7.135,15.74,7.77,13.633,7.74c-1.88-0.017-3.724-0.513-5.358-1.442L7.658,5.957L5.733,8.332L6.058,8.79
	c1.207,1.886,1.852,4.077,1.858,6.317c0,2.917-1.217,5-2.183,6.667c-0.967,1.667-1.558,2.792-1.558,4.458
	c0,3.917,5.408,5.2,7.075,5.5c2.94,0.575,5.759,1.651,8.333,3.183L20,35.157l0.425-0.242c2.574-1.532,5.393-2.609,8.333-3.183
	c1.658-0.3,7.075-1.583,7.075-5.5c0-1.683-0.533-2.608-1.558-4.408C33.25,20.024,32.092,18.032,32.092,15.157z M28.467,30.09
	c-2.976,0.575-5.836,1.636-8.467,3.142c-2.63-1.505-5.491-2.567-8.467-3.142c-0.95-0.175-5.7-1.167-5.7-3.858
	c0-1.233,0.458-2.067,1.333-3.575c1.502-2.219,2.338-4.821,2.408-7.5c-0.004-2.343-0.628-4.643-1.808-6.667l0.317-0.417
	c1.724,0.861,3.623,1.314,5.55,1.325c2.251,0.02,4.46-0.605,6.367-1.8c1.909,1.189,4.118,1.808,6.367,1.783
	c1.927-0.011,3.826-0.464,5.55-1.325l0.317,0.392c-1.18,2.024-1.804,4.324-1.808,6.667c0.071,2.679,0.906,5.281,2.408,7.5
	c0.875,1.508,1.333,2.358,1.333,3.617C34.167,28.924,29.417,29.915,28.467,30.09z M37.833,19.682
	c-0.867-1.492-1.617-2.783-1.617-4.533c0.096-2.347,1.147-4.554,2.908-6.108c0.174-0.135,0.283-0.338,0.3-0.558
	c0.024-0.222-0.042-0.444-0.183-0.617c-0.05-0.058-4.7-5.692-5.758-7.15c-0.147-0.202-0.376-0.327-0.625-0.342
	C32.611,0.358,32.37,0.452,32.2,0.632c-1.458,1.738-3.568,2.799-5.833,2.933c-2.233,0-3.992-1-5.708-3.242
	c-0.043-0.055-0.092-0.105-0.147-0.147c-0.364-0.282-0.887-0.216-1.169,0.147c-1.717,2.242-3.475,3.242-5.708,3.242
	c-2.28-0.123-4.407-1.185-5.875-2.933C7.588,0.452,7.347,0.358,7.1,0.374c-0.249,0.015-0.478,0.14-0.625,0.342
	c-1.058,1.458-5.708,7.092-5.758,7.15C0.575,8.038,0.509,8.26,0.533,8.482c0.023,0.218,0.13,0.419,0.3,0.558
	c1.768,1.55,2.82,3.759,2.908,6.108c0,1.75-0.783,3.042-1.617,4.533C0.802,21.616,0.064,23.89,0,26.232
	c0,4.825,3.925,8.417,10.5,9.6c3.241,0.694,6.303,2.053,8.992,3.992c0.145,0.113,0.324,0.174,0.508,0.175
	c0.184-0.001,0.363-0.062,0.508-0.175c2.686-1.943,5.749-3.302,8.992-3.992c6.575-1.183,10.5-4.775,10.5-9.6
	C39.924,23.886,39.171,21.611,37.833,19.682z M29.167,34.165c-3.293,0.691-6.411,2.043-9.167,3.975
	c-2.757-1.923-5.876-3.266-9.167-3.95c-2.175-0.383-9.167-2.125-9.167-7.958c0-2.442,1-4.133,1.9-5.7
	c0.9-1.567,1.842-3.175,1.842-5.375C5.35,12.593,4.309,10.15,2.5,8.332c1.042-1.283,3.467-4.233,4.742-5.833
	c1.71,1.685,3.993,2.661,6.392,2.733C16.114,5.226,18.457,4.091,20,2.149c1.536,1.955,3.88,3.102,6.367,3.117
	c2.404-0.081,4.687-1.07,6.392-2.767c1.275,1.608,3.7,4.558,4.742,5.833c-1.801,1.81-2.841,4.24-2.908,6.792
	c0,2.2,0.867,3.7,1.842,5.375c0.975,1.675,1.9,3.267,1.9,5.708C38.333,32.065,31.308,33.782,29.167,34.165z"/>
</svg>
