<?xml version="1.0" encoding="utf-8"?>
<!-- Generator: Adobe Illustrator 23.0.1, SVG Export Plug-In . SVG Version: 6.00 Build 0)  -->
<svg version="1.1" id="Layer_1" xmlns="http://www.w3.org/2000/svg" xmlns:xlink="http://www.w3.org/1999/xlink" x="0px" y="0px"
	 viewBox="0 0 40 40" style="enable-background:new 0 0 40 40;" xml:space="preserve">
<style type="text/css">
	.st0{fill:#231F20;}
</style>
<path class="st0" d="M4.511,9.421l0.8,0.034V3.923H4.579L3.243,4.681v0.596l1.268-0.596V9.421z M7.634,9.421h0.834l1.77-4.936V3.889
	H6.996v0.664H9.43L7.634,9.421z M14.417,8.757h-2.306c0.655-0.791,1.115-1.387,1.387-1.77c0.222-0.302,0.41-0.628,0.562-0.97
	c0.097-0.241,0.149-0.498,0.153-0.757c0.026-0.395-0.105-0.783-0.366-1.081c-0.264-0.273-0.634-0.416-1.013-0.391
	c-0.25-0.001-0.497,0.043-0.732,0.128c-0.265,0.093-0.514,0.225-0.74,0.392l0.009,0.655c0.391-0.289,0.853-0.465,1.336-0.511
	c0.451,0,0.681,0.298,0.681,0.851c-0.002,0.276-0.069,0.547-0.196,0.791c-0.184,0.362-0.4,0.707-0.647,1.03
	c-0.306,0.434-0.74,0.996-1.311,1.702v0.596h3.183C14.417,9.422,14.417,8.757,14.417,8.757z M15.804,9.498
	c0.136,0.009,0.269-0.041,0.366-0.136c0.098-0.099,0.151-0.235,0.145-0.374c0.005-0.137-0.048-0.269-0.145-0.366
	c-0.095-0.099-0.229-0.151-0.366-0.145c-0.012,0-0.023,0-0.035,0c-0.272,0.01-0.486,0.238-0.476,0.511
	c-0.006,0.14,0.046,0.275,0.145,0.374C15.536,9.456,15.669,9.506,15.804,9.498z M18.783,9.421l0.8,0.034V3.923h-0.732L17.515,4.68
	v0.596l1.268-0.596C18.783,4.68,18.783,9.421,18.783,9.421z M23.038,9.523c0.449,0.021,0.885-0.156,1.191-0.485
	c0.308-0.369,0.466-0.839,0.443-1.319c0.024-0.43-0.116-0.852-0.391-1.183c-0.256-0.301-0.635-0.467-1.03-0.451
	c-0.394,0.004-0.78,0.116-1.115,0.323c-0.014-0.525,0.103-1.046,0.34-1.515c0.18-0.298,0.503-0.479,0.851-0.477
	c0.173,0.018,0.344,0.052,0.511,0.102c0.167,0.037,0.329,0.091,0.485,0.162V4.093c-0.161-0.085-0.333-0.148-0.511-0.187
	c-0.192-0.051-0.389-0.076-0.587-0.077c-0.58-0.032-1.132,0.255-1.438,0.749c-0.381,0.688-0.558,1.47-0.511,2.255
	c-0.047,0.704,0.1,1.408,0.426,2.034C21.988,9.321,22.505,9.574,23.038,9.523z M22.085,6.927c0.278-0.146,0.587-0.225,0.902-0.23
	c0.241-0.016,0.474,0.089,0.621,0.281c0.159,0.232,0.234,0.511,0.213,0.791c0,0.749-0.264,1.123-0.8,1.123
	c-0.31,0.008-0.593-0.175-0.715-0.46c-0.173-0.462-0.249-0.954-0.221-1.447V6.927z M25.957,9.498
	c0.136,0.008,0.268-0.042,0.366-0.136c0.098-0.099,0.151-0.235,0.145-0.374c0-0.282-0.229-0.511-0.511-0.511
	s-0.511,0.229-0.511,0.511c-0.006,0.14,0.046,0.275,0.145,0.374C25.689,9.456,25.822,9.506,25.957,9.498z M28.979,9.523
	c0.526,0.031,1.026-0.235,1.294-0.689c0.339-0.659,0.495-1.397,0.451-2.136c0.044-0.74-0.112-1.477-0.451-2.136
	c-0.259-0.468-0.759-0.751-1.294-0.732c-0.534-0.033-1.042,0.232-1.319,0.689c-0.339,0.659-0.495,1.397-0.451,2.136
	c-0.044,0.74,0.112,1.477,0.451,2.136C27.923,9.268,28.435,9.552,28.979,9.523z M28.272,4.944c0.07-0.239,0.257-0.425,0.495-0.495
	c0.388-0.114,0.795,0.108,0.909,0.495c0.18,0.548,0.255,1.126,0.221,1.702c0.035,0.576-0.04,1.154-0.221,1.702
	c-0.09,0.311-0.374,0.525-0.698,0.528c-0.327,0.002-0.615-0.214-0.706-0.528c-0.177-0.549-0.252-1.126-0.221-1.702
	C28.022,6.071,28.097,5.494,28.272,4.944z M31.992,9.498c0.136,0.008,0.268-0.042,0.366-0.136c0.098-0.099,0.151-0.235,0.145-0.374
	c0-0.282-0.229-0.511-0.511-0.511s-0.511,0.229-0.511,0.511c-0.006,0.14,0.046,0.275,0.145,0.374
	C31.723,9.456,31.856,9.506,31.992,9.498z M35.013,9.523c0.526,0.031,1.026-0.235,1.294-0.689c0.339-0.659,0.495-1.397,0.451-2.136
	c0.044-0.74-0.112-1.477-0.451-2.136c-0.259-0.468-0.759-0.751-1.294-0.732c-0.528-0.027-1.028,0.238-1.302,0.689
	c-0.339,0.659-0.495,1.397-0.451,2.136c-0.044,0.74,0.112,1.477,0.451,2.136C33.971,9.262,34.475,9.545,35.013,9.523z M34.306,4.944
	c0.07-0.239,0.257-0.425,0.495-0.495c0.388-0.114,0.795,0.108,0.909,0.495c0.18,0.548,0.255,1.126,0.221,1.702
	c0.035,0.576-0.04,1.154-0.221,1.702c-0.09,0.311-0.374,0.525-0.698,0.528c-0.327,0.002-0.615-0.214-0.706-0.528
	C34.13,7.8,34.055,7.223,34.085,6.647C34.056,6.071,34.131,5.494,34.306,4.944z M4.511,22.493h0.8V16.97H4.579l-1.336,0.757v0.655
	l1.268-0.604V22.493z M7.634,22.493h0.834l1.77-4.936V16.97H6.996v0.664H9.43L7.634,22.493z M14.417,21.804h-2.306
	c0.655-0.8,1.115-1.396,1.387-1.779c0.225-0.3,0.414-0.626,0.562-0.97c0.098-0.241,0.15-0.498,0.153-0.757
	c0.016-0.383-0.115-0.758-0.366-1.047c-0.267-0.267-0.636-0.406-1.013-0.383c-0.249-0.003-0.497,0.037-0.732,0.119
	c-0.263,0.097-0.512,0.228-0.74,0.391l0.009,0.647c0.391-0.288,0.853-0.465,1.336-0.511c0.451,0,0.681,0.298,0.681,0.851
	c-0.002,0.273-0.069,0.541-0.196,0.783c-0.185,0.356-0.401,0.695-0.647,1.013c-0.306,0.434-0.74,0.996-1.311,1.702v0.596h3.183
	C14.417,22.459,14.417,21.804,14.417,21.804z M15.804,22.553c0.137,0.007,0.27-0.046,0.366-0.145
	c0.097-0.097,0.149-0.229,0.145-0.366c0.005-0.139-0.047-0.275-0.145-0.374c-0.097-0.096-0.23-0.145-0.366-0.136
	c-0.136-0.008-0.268,0.042-0.366,0.136c-0.097,0.1-0.15,0.235-0.145,0.374c0,0.012,0,0.023,0,0.035
	C15.303,22.349,15.532,22.563,15.804,22.553z M18.783,22.493h0.8V16.97h-0.732l-1.336,0.757v0.655l1.268-0.604
	C18.783,17.778,18.783,22.493,18.783,22.493z M22.996,22.587c0.451,0.021,0.888-0.16,1.191-0.494
	c0.308-0.365,0.466-0.834,0.443-1.311c0.026-0.432-0.114-0.859-0.392-1.191c-0.257-0.298-0.637-0.462-1.03-0.443
	c-0.381,0.014-0.751,0.128-1.072,0.332c-0.011-0.525,0.106-1.045,0.34-1.515c0.181-0.296,0.505-0.474,0.851-0.468
	c0.169,0,0.338,0.02,0.502,0.06c0.168,0.03,0.33,0.082,0.485,0.153v-0.587c-0.162-0.082-0.334-0.145-0.511-0.187
	c-0.192-0.048-0.389-0.071-0.587-0.068c-0.585-0.023-1.135,0.278-1.43,0.783c-0.382,0.691-0.559,1.476-0.511,2.264
	c-0.047,0.701,0.1,1.402,0.426,2.026C21.982,22.377,22.478,22.625,22.996,22.587z M22.085,20c0.28-0.14,0.589-0.216,0.902-0.221
	c0.239-0.015,0.47,0.086,0.621,0.272c0.157,0.233,0.231,0.511,0.213,0.791c0,0.757-0.264,1.132-0.8,1.132
	c-0.31,0.008-0.593-0.175-0.715-0.46c-0.173-0.462-0.248-0.954-0.221-1.447V20z M25.957,22.553c0.012,0,0.023,0,0.035,0
	c0.272-0.01,0.486-0.238,0.476-0.511c0.005-0.139-0.047-0.275-0.145-0.374c-0.21-0.181-0.521-0.181-0.732,0
	c-0.097,0.1-0.15,0.235-0.145,0.374c0,0.012,0,0.023,0,0.035C25.456,22.349,25.685,22.563,25.957,22.553z M28.936,22.493h0.791
	V16.97h-0.732l-1.336,0.757v0.655l1.277-0.604V22.493z M31.992,22.553c0.012,0,0.023,0,0.035,0c0.272-0.01,0.486-0.238,0.476-0.511
	c0.005-0.139-0.047-0.275-0.145-0.374c-0.21-0.181-0.521-0.181-0.732,0c-0.097,0.1-0.15,0.235-0.145,0.374c0,0.012,0,0.023,0,0.035
	C31.49,22.349,31.719,22.563,31.992,22.553z M35.013,22.604c0.535,0.019,1.034-0.264,1.294-0.732
	c0.34-0.661,0.496-1.402,0.451-2.145c0.043-0.74-0.113-1.477-0.451-2.136c-0.26-0.466-0.76-0.746-1.294-0.723
	c-0.535-0.022-1.038,0.257-1.302,0.723c-0.338,0.659-0.494,1.397-0.451,2.136c-0.044,0.74,0.112,1.477,0.451,2.136
	C33.97,22.336,34.474,22.623,35.013,22.604z M34.306,18.025c0.07-0.239,0.257-0.425,0.495-0.495
	c0.388-0.114,0.795,0.108,0.909,0.495c0.179,0.549,0.254,1.126,0.221,1.702c0.033,0.576-0.042,1.154-0.221,1.702
	c-0.093,0.309-0.375,0.523-0.698,0.528c-0.326-0.001-0.613-0.215-0.706-0.528c-0.175-0.55-0.25-1.126-0.221-1.702
	C34.056,19.151,34.131,18.575,34.306,18.025z M4.511,36.357h0.8v-5.532H4.579l-1.336,0.757v0.655l1.268-0.596V36.357z M7.634,36.357
	h0.834l1.77-4.936v-0.596H6.996v0.664H9.43L7.634,36.357z M14.417,35.693h-2.306c0.655-0.8,1.115-1.387,1.387-1.779
	c0.223-0.298,0.411-0.621,0.562-0.962c0.098-0.244,0.15-0.503,0.153-0.766c0.024-0.394-0.108-0.782-0.366-1.081
	c-0.267-0.267-0.636-0.406-1.013-0.383c-0.25-0.001-0.497,0.043-0.732,0.128c-0.265,0.093-0.514,0.225-0.74,0.392l0.009,0.655
	c0.391-0.288,0.853-0.465,1.336-0.511c0.451,0,0.681,0.298,0.681,0.851c-0.004,0.275-0.071,0.546-0.196,0.791
	c-0.186,0.361-0.402,0.706-0.647,1.03c-0.306,0.426-0.74,0.987-1.311,1.702v0.596h3.183C14.417,36.356,14.417,35.693,14.417,35.693z
	 M15.804,36.434c0.136,0.009,0.269-0.041,0.366-0.136c0.097-0.1,0.15-0.235,0.145-0.374c0.005-0.137-0.048-0.269-0.145-0.366
	c-0.095-0.099-0.229-0.151-0.366-0.145c-0.012,0-0.023,0-0.035,0c-0.272,0.01-0.486,0.238-0.476,0.511
	c-0.005,0.139,0.047,0.275,0.145,0.374C15.536,36.392,15.669,36.442,15.804,36.434z M18.783,36.357h0.8v-5.532h-0.732l-1.336,0.757
	v0.655l1.268-0.596C18.783,31.641,18.783,36.357,18.783,36.357z M23.038,36.459c0.449,0.021,0.885-0.156,1.191-0.485
	c0.308-0.369,0.466-0.84,0.443-1.319c0.021-0.432-0.119-0.856-0.391-1.191c-0.26-0.294-0.638-0.457-1.03-0.443
	c-0.394,0.004-0.78,0.116-1.115,0.323c-0.014-0.525,0.103-1.046,0.34-1.515c0.18-0.298,0.503-0.479,0.851-0.477
	c0.169,0,0.338,0.02,0.502,0.06c0.165,0.038,0.328,0.09,0.485,0.153v-0.579c-0.162-0.085-0.333-0.15-0.511-0.196
	c-0.193-0.044-0.39-0.066-0.587-0.068c-0.584-0.02-1.132,0.281-1.43,0.783c-0.38,0.691-0.557,1.476-0.511,2.264
	c-0.047,0.704,0.1,1.408,0.426,2.034C21.988,36.257,22.505,36.51,23.038,36.459z M22.085,33.838c0.28-0.14,0.589-0.216,0.902-0.221
	c0.241-0.016,0.474,0.089,0.621,0.281c0.159,0.232,0.234,0.511,0.213,0.791c0,0.749-0.264,1.123-0.8,1.123
	c-0.31,0.008-0.593-0.175-0.715-0.46c-0.173-0.462-0.248-0.954-0.221-1.447V33.838z M25.957,36.434
	c0.136,0.008,0.268-0.042,0.366-0.136c0.097-0.1,0.15-0.235,0.145-0.374c0-0.282-0.229-0.511-0.511-0.511s-0.511,0.229-0.511,0.511
	c-0.005,0.139,0.047,0.275,0.145,0.374C25.689,36.392,25.822,36.442,25.957,36.434z M30.604,35.693h-2.306
	c0.655-0.8,1.115-1.387,1.387-1.779c0.223-0.298,0.411-0.621,0.562-0.962c0.098-0.244,0.15-0.503,0.153-0.766
	c0.024-0.394-0.108-0.782-0.366-1.081c-0.267-0.267-0.636-0.406-1.013-0.383c-0.25-0.001-0.497,0.043-0.732,0.128
	c-0.265,0.093-0.514,0.225-0.74,0.392l-0.009,0.655c0.391-0.288,0.853-0.465,1.336-0.511c0.451,0,0.681,0.298,0.681,0.851
	c-0.004,0.275-0.071,0.546-0.196,0.791c-0.18,0.361-0.391,0.705-0.63,1.03c-0.306,0.426-0.74,0.987-1.311,1.702v0.596h3.183
	L30.604,35.693L30.604,35.693z M31.992,36.434c0.136,0.008,0.268-0.042,0.366-0.136c0.097-0.1,0.15-0.235,0.145-0.374
	c0-0.282-0.229-0.511-0.511-0.511s-0.511,0.229-0.511,0.511c-0.005,0.139,0.047,0.275,0.145,0.374
	C31.723,36.392,31.856,36.442,31.992,36.434z M35.013,36.459c0.529,0.024,1.028-0.248,1.294-0.706
	c0.339-0.659,0.495-1.397,0.451-2.136c0.044-0.74-0.112-1.477-0.451-2.136c-0.259-0.468-0.759-0.751-1.294-0.732
	c-0.537-0.018-1.039,0.264-1.302,0.732c-0.339,0.659-0.495,1.397-0.451,2.136c-0.038,0.731,0.117,1.459,0.451,2.111
	C33.974,36.195,34.476,36.478,35.013,36.459z M34.306,31.881c0.07-0.239,0.257-0.425,0.495-0.495
	c0.388-0.114,0.795,0.108,0.909,0.495c0.181,0.548,0.256,1.126,0.221,1.702c0.034,0.576-0.041,1.154-0.221,1.702
	c-0.09,0.311-0.374,0.525-0.698,0.528c-0.327,0.002-0.615-0.214-0.706-0.528c-0.176-0.549-0.251-1.126-0.221-1.702
	C34.055,33.007,34.13,32.43,34.306,31.881z M39.149,0.4H0.851C0.381,0.4,0,0.781,0,1.251v10.374c0,0.47,0.381,0.851,0.851,0.851
	h38.298c0.47,0,0.851-0.381,0.851-0.851V1.251C40,0.781,39.619,0.4,39.149,0.4z M38.298,10.774H1.702V2.102h36.596V10.774z
	 M39.149,13.966H0.851C0.381,13.966,0,14.347,0,14.817v10.374c0,0.47,0.381,0.851,0.851,0.851h38.298
	c0.47,0,0.851-0.381,0.851-0.851V14.817C40,14.347,39.619,13.966,39.149,13.966z M38.298,24.34H1.702v-8.672h36.596V24.34z
	 M39.149,27.523H0.851C0.381,27.523,0,27.904,0,28.374v10.375c0,0.47,0.381,0.851,0.851,0.851h38.298
	c0.47,0,0.851-0.381,0.851-0.851V28.374C40,27.904,39.619,27.523,39.149,27.523z M38.298,37.898H1.702v-8.673h36.596V37.898z"/>
</svg>
