<?xml version="1.0" encoding="utf-8"?>
<!-- Generator: Adobe Illustrator 23.0.1, SVG Export Plug-In . SVG Version: 6.00 Build 0)  -->
<svg version="1.1" id="Layer_1" xmlns="http://www.w3.org/2000/svg" xmlns:xlink="http://www.w3.org/1999/xlink" x="0px" y="0px"
	 viewBox="0 0 40 40" style="enable-background:new 0 0 40 40;" xml:space="preserve">
<style type="text/css">
	.st0{fill:#231F20;}
</style>
<path class="st0" d="M19.149,6.208v6.746h1.702V6.208l2.513,2.513l1.203-1.203l-3.966-3.966c-0.332-0.332-0.871-0.332-1.203,0
	l-3.966,3.966l1.203,1.203L19.149,6.208z M20.851,33.795v-7.438h-1.702v7.438l-2.514-2.508l-1.203,1.205l3.966,3.958
	c0.166,0.165,0.384,0.249,0.601,0.249c0.218,0,0.435-0.083,0.601-0.249l3.966-3.958l-1.202-1.205L20.851,33.795z M36.449,19.399
	l-3.958-3.966l-1.205,1.203l2.508,2.514h-4.688v1.702h4.689l-2.509,2.514l1.205,1.202l3.958-3.966
	C36.781,20.269,36.781,19.731,36.449,19.399z M8.721,16.636l-1.203-1.203l-3.966,3.966c-0.332,0.332-0.332,0.871,0,1.203
	l3.966,3.966l1.203-1.203l-2.513-2.513h4.669V19.15H6.208L8.721,16.636z M20,0C8.972,0,0,8.972,0,20s8.972,20,20,20s20-8.972,20-20
	S31.028,0,20,0z M20,38.298C9.911,38.298,1.702,30.09,1.702,20C1.702,9.911,9.911,1.702,20,1.702
	c10.09,0,18.298,8.209,18.298,18.298C38.298,30.09,30.09,38.298,20,38.298z M25.432,18.295c-0.322-1.297-1.336-1.971-2.311-1.971
	c-0.291,0.004-0.576,0.063-0.841,0.17c-0.195-0.315-0.424-0.609-0.681-0.872c-1.268-1.314-3.243-1.699-4.934-0.952
	c-1.49,0.706-2.463,2.149-2.563,3.765c-1.182,0.524-1.972,1.737-1.914,3.039v0.17c0,0.042,0.003,0.085,0.01,0.127
	c0.269,1.78,1.813,3.083,3.607,3.048h8.357l0.19-0.004c0.104,0.01,0.207,0.015,0.309,0.015c0.726,0,1.423-0.249,1.99-0.716
	c0.648-0.534,1.05-1.287,1.13-2.123c0.018-0.189,0.02-0.381,0.007-0.497C27.793,19.986,26.818,18.712,25.432,18.295z M26.087,21.826
	c-0.037,0.382-0.221,0.728-0.518,0.972c-0.297,0.244-0.671,0.361-1.135,0.317h-8.65c-0.936,0.051-1.73-0.638-1.895-1.544v-0.135
	c-0.032-0.741,0.492-1.405,1.218-1.545c0.419-0.081,0.713-0.461,0.687-0.887c-0.007-0.111-0.007-0.221,0.001-0.356
	c0.034-1.054,0.646-1.989,1.578-2.431c1.02-0.452,2.227-0.214,3.004,0.59c0.349,0.358,0.61,0.78,0.775,1.253
	c0.105,0.298,0.366,0.514,0.678,0.561c0.309,0.045,0.625-0.084,0.812-0.338c0.116-0.158,0.303-0.254,0.488-0.257
	c0.31,0,0.661,0.323,0.7,1.033c0.022,0.422,0.352,0.764,0.773,0.802c0.848,0.076,1.484,0.775,1.484,1.7
	C26.095,21.649,26.095,21.739,26.087,21.826z"/>
</svg>
