<?xml version="1.0" encoding="utf-8"?>
<!-- Generator: Adobe Illustrator 23.0.1, SVG Export Plug-In . SVG Version: 6.00 Build 0)  -->
<svg version="1.1" id="Layer_1" xmlns="http://www.w3.org/2000/svg" xmlns:xlink="http://www.w3.org/1999/xlink" x="0px" y="0px"
	 viewBox="0 0 40 40" style="enable-background:new 0 0 40 40;" xml:space="preserve">
<style type="text/css">
	.st0{fill:#231F20;}
</style>
<g>
	<path class="st0" d="M39.999,25.203c0-3.964-2.843-7.26-6.601-7.972c-0.145-2.744-2.397-4.93-5.177-4.93
		c-0.976,0-1.879,0.286-2.659,0.753c-1.575-3.746-5.279-6.377-9.598-6.377c-5.633,0-10.209,4.478-10.391,10.065
		c-3.458,1.291-5.863,4.743-5.545,8.719c0.359,4.495,4.306,7.863,8.816,7.863h23.514v-0.017C36.601,33.123,40,29.625,40,25.337
		l-0.011-0.002C39.989,25.288,39.999,25.248,39.999,25.203z M32.013,31.211H8.564c-3.752,0-6.767-3.219-6.427-7.04
		c0.224-2.521,2.003-4.641,4.375-5.527l0.048-0.018c0.653-0.243,1.093-0.857,1.115-1.553c0.13-3.972,2.929-7.495,6.847-8.164
		c3.905-0.667,7.611,1.434,9.095,4.961l0.176,0.418c0.405,0.963,1.569,1.344,2.465,0.808l0.39-0.233
		c0.502-0.3,1.032-0.453,1.575-0.453c1.633,0,2.982,1.287,3.069,2.93l0.016,0.309c0.042,0.79,0.618,1.449,1.395,1.597l0.066,0.013
		c2.651,0.502,4.806,2.617,5.087,5.302c0.01,0.096,0.033,0.774,0.033,0.774C37.888,28.576,35.253,31.211,32.013,31.211z
		 M19.631,15.416c-2.838,0-4.779,1.922-4.779,4.431v0.037c0,2.472,1.813,4.065,4.542,4.065c1.318,0,2.307-0.513,3.022-1.374
		c-0.018,1.703-0.842,4.047-3.113,4.047c-1.098,0-1.959-0.403-2.929-1.208l-1.227,1.721c1.08,0.897,2.326,1.538,4.102,1.538
		c3.461,0,5.492-2.856,5.492-6.976V21.66c0-2.527-0.605-3.937-1.538-4.888C22.286,15.874,21.243,15.416,19.631,15.416z
		 M22.323,19.755c0,1.245-0.97,2.307-2.6,2.307c-1.593,0-2.618-0.953-2.618-2.289v-0.037c0-1.318,0.953-2.381,2.545-2.381
		c1.63,0,2.673,1.025,2.673,2.362V19.755z"/>
</g>
</svg>
