<?xml version="1.0" encoding="utf-8"?>
<!-- Generator: Adobe Illustrator 23.0.1, SVG Export Plug-In . SVG Version: 6.00 Build 0)  -->
<svg version="1.1" id="Layer_1" xmlns="http://www.w3.org/2000/svg" xmlns:xlink="http://www.w3.org/1999/xlink" x="0px" y="0px"
	 viewBox="0 0 40 40" style="enable-background:new 0 0 40 40;" xml:space="preserve">
<style type="text/css">
	.st0{fill:#231F20;}
</style>
<g>
	<path class="st0" d="M39.999,18.933c0-3.964-2.843-7.26-6.601-7.972c-0.145-2.744-2.397-4.93-5.177-4.93
		c-0.976,0-1.879,0.286-2.659,0.753c-1.575-3.746-5.279-6.377-9.598-6.377c-5.633,0-10.209,4.478-10.391,10.065
		c-3.458,1.291-5.863,4.743-5.545,8.719c0.277,3.465,2.689,6.252,5.844,7.352c0.037-0.71,0.11-1.41,0.247-2.089
		c-2.517-1.035-4.243-3.613-3.982-6.551c0.224-2.521,2.003-4.641,4.375-5.527l0.048-0.018c0.653-0.243,1.093-0.857,1.115-1.553
		c0.13-3.972,2.929-7.495,6.847-8.164c3.905-0.667,7.611,1.434,9.095,4.961l0.176,0.418c0.405,0.963,1.569,1.344,2.465,0.808
		l0.39-0.233c0.502-0.3,1.032-0.453,1.575-0.453c1.633,0,2.982,1.287,3.069,2.93l0.016,0.309c0.042,0.79,0.618,1.449,1.395,1.597
		l0.066,0.013c2.651,0.502,4.806,2.617,5.087,5.302c0.01,0.096,0.033,0.774,0.033,0.774c0,2.405-1.453,4.473-3.526,5.382
		c0.142,0.702,0.216,1.425,0.25,2.159c3.13-1.08,5.386-4.048,5.386-7.54l-0.011-0.002C39.989,19.019,39.999,18.979,39.999,18.933z
		 M20.242,15.002c-6.791,0-12.296,5.505-12.296,12.296s5.505,12.296,12.296,12.296c6.791,0,12.296-5.505,12.296-12.296
		S27.032,15.002,20.242,15.002z M20.242,37.484c-5.616,0-10.185-4.569-10.185-10.185s4.569-10.185,10.185-10.185
		s10.185,4.569,10.185,10.185C30.427,32.915,25.857,37.484,20.242,37.484z M24.985,21.085h-2.111v9.834h-1.866v-6.748h-2.111v6.748
		h-1.866v-4.571h-2.111v4.571h-1.274v2.111h12.644v-2.111h-1.304v-9.834H24.985z"/>
</g>
</svg>
