<?xml version="1.0" encoding="utf-8"?>
<!-- Generator: Adobe Illustrator 23.0.1, SVG Export Plug-In . SVG Version: 6.00 Build 0)  -->
<svg version="1.1" id="Layer_1" xmlns="http://www.w3.org/2000/svg" xmlns:xlink="http://www.w3.org/1999/xlink" x="0px" y="0px"
	 viewBox="0 0 40 40" style="enable-background:new 0 0 40 40;" xml:space="preserve">
<style type="text/css">
	.st0{fill:#231F20;}
</style>
<g>
	<path class="st0" d="M35.822,0.455H4.178C1.871,0.455,0,2.326,0,4.633v9.381c0,2.307,1.871,4.178,4.178,4.178h1.704v21.353h28.235
		V18.192h1.704c2.307,0,4.178-1.871,4.178-4.178V4.633C40,2.326,38.129,0.455,35.822,0.455z M32.028,37.457H7.971V18.193h24.057
		V37.457z M37.911,11.899H23.167v2.089h14.744v0.026c0,1.152-0.937,2.089-2.089,2.089h-1.704l0,0H5.882l0,0H4.178
		c-1.152,0-2.089-0.937-2.089-2.089v-0.026h12.663v-2.089H2.089V4.633c0-1.152,0.937-2.089,2.089-2.089h31.643
		c1.152,0,2.089,0.937,2.089,2.089L37.911,11.899L37.911,11.899z M17.375,13.989h4.887v-2.089h-4.887V13.989z M15.913,30.729
		l-3.486-3.486l3.49-3.501l-1.478-1.478l-4.968,4.977l4.963,4.963L15.913,30.729z M27.409,27.243l-3.486,3.486l1.478,1.477
		l4.963-4.963l-4.968-4.977l-1.478,1.478L27.409,27.243z M24.132,21.263l-1.93-0.801l-5.376,12.955l1.93,0.801L24.132,21.263z"/>
</g>
</svg>
