<?xml version="1.0" encoding="utf-8"?>
<!-- Generator: Adobe Illustrator 23.0.1, SVG Export Plug-In . SVG Version: 6.00 Build 0)  -->
<svg version="1.1" id="Layer_1" xmlns="http://www.w3.org/2000/svg" xmlns:xlink="http://www.w3.org/1999/xlink" x="0px" y="0px"
	 viewBox="0 0 40 40" style="enable-background:new 0 0 40 40;" xml:space="preserve">
<style type="text/css">
	.st0{fill:#231F20;}
</style>
<g>
	<path class="st0" d="M32.65,28.071l3.899-3.899l-3.899-3.899l-1.662,1.662l2.238,2.238l-2.238,2.238L32.65,28.071z M24.424,20.272
		l-3.899,3.899l3.899,3.899l1.662-1.662l-2.238-2.238l2.238-2.238L24.424,20.272z M25.437,29.23l2.182,0.87l4.139-10.384
		l-2.182-0.87L25.437,29.23z M16.846,7.68V9.77h21.066v27.794H18.935v-8.49l-2.089,0.81v9.768H40V7.679L16.846,7.68L16.846,7.68z
		 M18.934,26.638v-6.819c1.858-0.469,3.239-2.137,3.239-4.141c0-2.366-1.918-4.283-4.283-4.283c-2.366,0-4.283,1.918-4.283,4.283
		c0,2.003,1.382,3.672,3.239,4.141v5.529L5.328,31.114V25.85c1.858-0.469,3.239-2.137,3.239-4.141s-1.382-3.672-3.239-4.141V8.693
		c1.858-0.469,3.239-2.137,3.239-4.141c0-2.366-1.918-4.283-4.283-4.283C1.918,0.269,0,2.187,0,4.552
		c0,2.003,1.382,3.672,3.239,4.141v8.875C1.381,18.037,0,19.706,0,21.709s1.382,3.672,3.239,4.141v5.457
		C1.381,31.776,0,33.444,0,35.448c0,2.366,1.918,4.283,4.283,4.283c2.366,0,4.283-1.918,4.283-4.283c0-1.17-0.472-2.229-1.232-3.002
		L18.934,26.638z M15.695,15.678c0-1.21,0.985-2.194,2.194-2.194c1.21,0,2.194,0.984,2.194,2.194s-0.985,2.194-2.194,2.194
		C16.679,17.872,15.695,16.889,15.695,15.678z M2.089,4.554c0-1.21,0.984-2.194,2.194-2.194c1.21,0,2.194,0.984,2.194,2.194
		c0,1.21-0.985,2.194-2.194,2.194C3.073,6.748,2.089,5.764,2.089,4.554z M2.089,21.709c0-1.21,0.984-2.194,2.194-2.194
		c1.21,0,2.194,0.984,2.194,2.194c0,1.21-0.985,2.194-2.194,2.194C3.073,23.904,2.089,22.919,2.089,21.709z M4.283,37.642
		c-1.21,0-2.194-0.985-2.194-2.194c0-1.21,0.984-2.194,2.194-2.194c1.21,0,2.194,0.984,2.194,2.194
		C6.479,36.658,5.494,37.642,4.283,37.642z M11.034,9.502l2.227,2.227l1.477-1.477l-2.227-2.227h2.182V5.936H8.945v5.748h2.089
		V9.502z"/>
</g>
</svg>
