<?xml version="1.0" encoding="utf-8"?>
<!-- Generator: Adobe Illustrator 23.0.1, SVG Export Plug-In . SVG Version: 6.00 Build 0)  -->
<svg version="1.1" id="Layer_1" xmlns="http://www.w3.org/2000/svg" xmlns:xlink="http://www.w3.org/1999/xlink" x="0px" y="0px"
	 viewBox="0 0 40 40" style="enable-background:new 0 0 40 40;" xml:space="preserve">
<style type="text/css">
	.st0{fill:#231F20;}
</style>
<g>
	<path class="st0" d="M21.758,27.246l-3.929,9.55l2.071,0.8l3.929-9.551L21.758,27.246z M16.321,32.143l2.125-2.058l-1.577-1.528
		l-3.701,3.586l3.701,3.586l1.577-1.528L16.321,32.143z M40,20C40,8.954,31.046,0,20,0C9.011,0,0.102,8.863,0.009,19.83L0,19.834
		l0.008,0.006l7.529,5.446l1.219-1.687l-6.099-4.411c0.803-1.854,2.618-3.166,4.766-3.166c2.869,0,5.2,1.274,5.24,4.133l1.137,3.579
		l1.946-0.739l-0.986-2.84c0.04-2.858,2.371-4.133,5.24-4.133c2.869,0,5.2,1.274,5.24,4.133l-0.986,2.84l1.946,0.739l1.137-3.579
		c0.04-2.858,2.371-4.133,5.24-4.133c2.224,0,4.097,1.402,4.853,3.362l-5.829,4.215l1.219,1.688L40,20.095l-0.005-0.003
		C39.997,20.061,40,20.031,40,20z M12.75,16.267c-1.336-1.425-3.222-2.327-5.326-2.327c-1.845,0-3.527,0.689-4.814,1.818
		C4.247,9.056,9.655,3.826,16.45,2.45C14.146,6.126,12.914,10.763,12.75,16.267z M20,13.941c-2.015,0-3.837,0.821-5.161,2.142
		c0.21-5.783,1.69-10.471,4.409-13.967c0.25-0.01,0.498-0.032,0.751-0.032s0.501,0.022,0.751,0.032
		c2.719,3.496,4.199,8.184,4.409,13.967C23.837,14.761,22.015,13.941,20,13.941z M32.576,13.941c-2.104,0-3.99,0.902-5.326,2.327
		c-0.165-5.504-1.397-10.142-3.702-13.817c6.794,1.375,12.201,6.602,13.839,13.302C36.102,14.625,34.418,13.941,32.576,13.941z
		 M9.802,40h21.417V25.002H9.802V40z M11.885,27.085h17.254v10.833H11.885V27.085z M23.099,30.085l2.125,2.058l-2.125,2.058
		l1.577,1.528l3.701-3.586l-3.701-3.586L23.099,30.085z"/>
</g>
</svg>
