<?xml version="1.0" encoding="utf-8"?>
<!-- Generator: Adobe Illustrator 23.0.1, SVG Export Plug-In . SVG Version: 6.00 Build 0)  -->
<svg version="1.1" id="Layer_1" xmlns="http://www.w3.org/2000/svg" xmlns:xlink="http://www.w3.org/1999/xlink" x="0px" y="0px"
	 viewBox="0 0 40 40" style="enable-background:new 0 0 40 40;" xml:space="preserve">
<style type="text/css">
	.st0{fill:#231F20;}
</style>
<g>
	<path class="st0" d="M16.795,24.737l2.344,0.934l4.448-11.157l-2.344-0.934L16.795,24.737z M15.707,23.492l1.785-1.785
		l-2.405-2.405l2.405-2.405l-1.785-1.785l-4.19,4.19L15.707,23.492z M24.545,15.113l-1.785,1.785l2.405,2.405l-2.405,2.405
		l1.785,1.785l4.19-4.19L24.545,15.113z M31.823,25.006c-2.642,0-4.785,2.143-4.785,4.785c0,0.605,0.125,1.177,0.329,1.71
		l-2.527,2.527l3.196,3.196l1.361-1.361l-1.834-1.834l0.866-0.866c0.866,0.873,2.066,1.415,3.394,1.415
		c2.642,0,4.785-2.143,4.785-4.785C36.608,27.149,34.465,25.006,31.823,25.006z M31.823,32.502c-1.495,0-2.711-1.216-2.711-2.71
		c0-1.495,1.216-2.711,2.711-2.711c1.495,0,2.711,1.216,2.711,2.711C34.534,31.286,33.318,32.502,31.823,32.502z M8.179,14.993
		c2.642,0,4.785-2.143,4.785-4.785c0-0.605-0.125-1.177-0.329-1.71l2.527-2.527l-3.196-3.196l-1.361,1.361l1.834,1.834l-0.866,0.866
		c-0.866-0.873-2.066-1.414-3.394-1.414c-2.642,0-4.785,2.143-4.785,4.785C3.393,12.85,5.536,14.993,8.179,14.993z M8.179,7.497
		c1.495,0,2.711,1.216,2.711,2.71c0,1.495-1.216,2.711-2.711,2.711s-2.711-1.216-2.711-2.711C5.468,8.713,6.684,7.497,8.179,7.497z
		 M35.937,20.188l-0.338-1.178c1.184-0.335,2.239-1.122,2.882-2.284c1.281-2.311,0.446-5.224-1.865-6.505s-5.224-0.446-6.505,1.865
		s-0.446,5.224,1.865,6.505c0.529,0.293,1.09,0.463,1.655,0.542l0.985,3.436l4.344-1.246l-0.53-1.85L35.937,20.188z M32.983,16.777
		c-1.307-0.725-1.781-2.377-1.056-3.685s2.377-1.781,3.685-1.056c1.307,0.725,1.781,2.377,1.056,3.685
		C35.943,17.029,34.29,17.502,32.983,16.777z M8.024,21.407c-0.529-0.294-1.09-0.463-1.655-0.542L5.384,17.43L1.04,18.675l0.53,1.85
		l2.493-0.714l0.338,1.178c-1.184,0.335-2.239,1.122-2.882,2.284c-1.281,2.311-0.446,5.224,1.865,6.505
		c2.311,1.281,5.224,0.446,6.505-1.865C11.172,25.6,10.336,22.688,8.024,21.407z M8.076,26.905
		c-0.725,1.308-2.377,1.781-3.685,1.056s-1.781-2.377-1.056-3.685s2.377-1.781,3.685-1.057C8.326,23.945,8.8,25.599,8.076,26.905z
		 M15.426,31.156c-0.513,0.32-0.933,0.729-1.277,1.185l-3.482-0.803l-1.016,4.404l1.875,0.433l0.583-2.527l1.194,0.275
		c-0.281,1.198-0.104,2.502,0.599,3.627c1.4,2.241,4.352,2.922,6.593,1.522c2.241-1.4,2.922-4.352,1.522-6.593
		C20.618,30.438,17.667,29.756,15.426,31.156z M19.397,37.512c-1.267,0.792-2.943,0.406-3.735-0.862
		c-0.792-1.267-0.406-2.943,0.862-3.735c1.267-0.792,2.943-0.405,3.735,0.863C21.052,35.045,20.665,36.72,19.397,37.512z
		 M24.576,8.843c0.513-0.32,0.933-0.729,1.277-1.185l3.482,0.803l1.016-4.402l-1.875-0.433l-0.583,2.527l-1.194-0.275
		c0.281-1.198,0.104-2.502-0.599-3.627c-1.4-2.241-4.352-2.922-6.593-1.522s-2.922,4.352-1.522,6.593
		C19.382,9.562,22.334,10.243,24.576,8.843z M20.604,2.486c1.267-0.792,2.943-0.405,3.735,0.862
		c0.792,1.267,0.406,2.943-0.862,3.735c-1.267,0.792-2.943,0.405-3.735-0.863C18.949,4.954,19.337,3.278,20.604,2.486z"/>
</g>
</svg>
