<?xml version="1.0" encoding="utf-8"?>
<!-- Generator: Adobe Illustrator 23.0.1, SVG Export Plug-In . SVG Version: 6.00 Build 0)  -->
<svg version="1.1" id="Layer_1" xmlns="http://www.w3.org/2000/svg" xmlns:xlink="http://www.w3.org/1999/xlink" x="0px" y="0px"
	 viewBox="0 0 40 40" style="enable-background:new 0 0 40 40;" xml:space="preserve">
<style type="text/css">
	.st0{fill:#231F20;}
</style>
<g>
	<path class="st0" d="M25.71,27.052l-1.961-1.961l1.961-1.961l-1.456-1.456l-3.417,3.417l3.417,3.417L25.71,27.052z M31.968,25.091
		l-1.961,1.961l1.456,1.456l3.417-3.417l-3.417-3.417l-1.456,1.456L31.968,25.091z M27.054,30.286l3.627-9.099l-1.912-0.762
		l-3.627,9.099L27.054,30.286z M29.101,8.356H40l-6.167-6.272H5.024V1.129H0v9.014h4.096v28.729h10.021V8.357h12.982v5.461
		l-9.585,4.16v14.76H38.83v-14.76l-9.729-4.222L29.101,8.356L29.101,8.356z M3.022,8.14H2.002V3.131h1.019V8.14z M33.606,4.708
		l1.618,1.646h-3.562L33.606,4.708z M6.098,4.085h1.834L6.098,5.446V4.085z M6.098,10.804l5.565,4.536l-5.565,5.163V10.804z
		 M6.098,24.992l5.623,5.218l-5.623,5.286V24.992z M12.115,36.868H7.56l4.555-4.282V36.868z M12.115,27.844l-5.491-5.096
		l5.491-5.096V27.844z M12.115,13.126l-3.398-2.769h3.398V13.126z M8.235,6.354l2.72-2.018l2.589,2.018H8.235z M16.678,6.26
		l-2.789-2.175h5.767L16.678,6.26z M19.944,6.354l2.785-2.033l2.755,2.033H19.944z M25.783,4.085h5.461l-2.543,2.153L25.783,4.085z
		 M36.829,30.734H19.517V19.978h17.312V30.734z M33.801,17.976H22.542l5.63-2.443L33.801,17.976z"/>
</g>
</svg>
