<?xml version="1.0" encoding="utf-8"?>
<!-- Generator: Adobe Illustrator 23.0.1, SVG Export Plug-In . SVG Version: 6.00 Build 0)  -->
<svg version="1.1" id="Layer_1" xmlns="http://www.w3.org/2000/svg" xmlns:xlink="http://www.w3.org/1999/xlink" x="0px" y="0px"
	 viewBox="0 0 40 40" style="enable-background:new 0 0 40 40;" xml:space="preserve">
<path d="M35.568,10.856l-16-9.136c-0.248-0.143-0.552-0.143-0.8,0L9.6,7.472l0.8,1.36l8-4.996V5.6H20V3.791l13.367,7.605
	L19.44,19.432l-9.328-5.368l-0.8,1.384L18.4,20.68v16.327L5.498,29.373l1.79-1.037l-0.8-1.384L4.8,27.925V17.6H3.2v11.816
	c0,0.282,0.149,0.544,0.392,0.688l15.2,8.984c0.123,0.073,0.264,0.112,0.408,0.112c0.137,0.013,0.274-0.009,0.4-0.064l3.44-1.84
	l-0.8-1.416L20,37.059V20.956l14.4-8.31v15.049l-2.04-1.183l-0.8,1.384l2.336,1.354l-2.064,1.19l0.8,1.384l2.92-1.712
	c0.248-0.144,0.401-0.409,0.4-0.696V11.544C35.954,11.263,35.808,11.002,35.568,10.856z M20,8h-1.6v3.2H20V8z M18.4,16.8H20v-3.2
	h-1.6V16.8z M30.312,25.296l-2.76-1.6l-0.8,1.384l2.768,1.6L30.312,25.296z M22.76,20.88l-0.8,1.376l2.76,1.6l0.808-1.376
	L22.76,20.88z M11.336,24.16l-2.768,1.6l0.8,1.384l2.768-1.6L11.336,24.16z M16.192,21.36l-2.776,1.6l0.8,1.384l2.776-1.6
	L16.192,21.36z M9.6,11.6c0-2.43-1.97-4.4-4.4-4.4s-4.4,1.97-4.4,4.4S2.77,16,5.2,16C7.628,15.996,9.596,14.028,9.6,11.6z M2.4,11.6
	c0-1.546,1.254-2.8,2.8-2.8S8,10.054,8,11.6s-1.254,2.8-2.8,2.8S2.4,13.146,2.4,11.6z M28.4,31.2c-2.43,0-4.4,1.97-4.4,4.4
	c0,2.43,1.97,4.4,4.4,4.4c2.428-0.004,4.396-1.972,4.4-4.4C32.8,33.17,30.83,31.2,28.4,31.2z M28.4,38.4c-1.546,0-2.8-1.254-2.8-2.8
	s1.254-2.8,2.8-2.8s2.8,1.254,2.8,2.8S29.946,38.4,28.4,38.4z M34.8,0c-2.43,0-4.4,1.97-4.4,4.4s1.97,4.4,4.4,4.4
	c2.428-0.004,4.396-1.972,4.4-4.4C39.2,1.97,37.23,0,34.8,0z M34.8,7.2c-1.546,0-2.8-1.254-2.8-2.8s1.254-2.8,2.8-2.8
	s2.8,1.254,2.8,2.8S36.346,7.2,34.8,7.2z"/>
</svg>
