<?xml version="1.0" encoding="utf-8"?>
<!-- Generator: Adobe Illustrator 23.0.1, SVG Export Plug-In . SVG Version: 6.00 Build 0)  -->
<svg version="1.1" id="Layer_1" xmlns="http://www.w3.org/2000/svg" xmlns:xlink="http://www.w3.org/1999/xlink" x="0px" y="0px"
	 viewBox="0 0 40 40" style="enable-background:new 0 0 40 40;" xml:space="preserve">
<style type="text/css">
	.st0{fill:#231F20;}
</style>
<g>
	<path class="st0" d="M39.816,18.175l-0.007-0.559l-0.031-0.007c-0.344-3.519-2.826-6.538-6.224-7.548
		c-0.565-2.79-2.995-4.821-5.897-4.821c-0.657,0-1.301,0.109-1.921,0.323C23.823,2.157,20.187,0,16.239,0
		C10.633,0,5.987,4.243,5.422,9.758c-3.549,1.682-5.658,5.478-5.175,9.43c0.442,3.615,3.058,6.519,6.496,7.578v-2.546
		c-2.206-0.941-3.837-2.908-4.133-5.321c-0.377-3.075,1.362-6.021,4.226-7.162c0.527-0.21,0.888-0.712,0.919-1.285
		c0.229-4.527,3.954-8.072,8.485-8.072c3.318,0,6.355,1.952,7.737,4.97c0.167,0.365,0.48,0.649,0.857,0.778
		c0.381,0.131,0.802,0.096,1.16-0.09c0.531-0.278,1.091-0.418,1.664-0.418c1.887,0,3.445,1.424,3.623,3.311
		c0.058,0.639,0.519,1.16,1.145,1.296c2.89,0.628,4.992,3.222,5.014,6.176l-0.011,0.557c-0.137,2.25-1.473,4.161-3.381,5.143v2.606
		c3.379-1.177,5.773-4.375,5.773-8.136v-0.123C39.82,18.358,39.819,18.267,39.816,18.175z M20.244,12.92
		c-6.792,0-12.297,1.928-12.297,4.306V40h6.136V19.406c0.769-0.509,2.919-1.205,6.161-1.205s5.392,0.696,6.161,1.205V40h5.504l0,0
		h0.632V17.228C32.541,14.848,27.036,12.92,20.244,12.92z M28.205,38.152V19.404c0-1.539-3.565-2.787-7.961-2.787
		s-7.96,1.248-7.96,2.787v18.747h-2.105l0.005-20.927c0.832-0.779,4.25-2.195,10.06-2.195c5.811,0,9.229,1.416,10.062,2.195v20.927
		H28.205z"/>
</g>
</svg>
