<?xml version="1.0" encoding="utf-8"?>
<!-- Generator: Adobe Illustrator 23.0.1, SVG Export Plug-In . SVG Version: 6.00 Build 0)  -->
<svg version="1.1" id="Layer_1" xmlns="http://www.w3.org/2000/svg" xmlns:xlink="http://www.w3.org/1999/xlink" x="0px" y="0px"
	 viewBox="0 0 40 40" style="enable-background:new 0 0 40 40;" xml:space="preserve">
<style type="text/css">
	.st0{fill:#231F20;}
</style>
<g>
	<path class="st0" d="M2.107,3.663l4.763,4.763l1.49-1.49L3.532,2.108h3.902V0.001H0v7.745h2.107L2.107,3.663L2.107,3.663z
		 M6.907,31.61l-4.799,4.799v-4.154H0.001V40h7.434v-2.107H3.605l4.793-4.793L6.907,31.61z M37.893,36.467l-4.828-4.829l-1.49,1.49
		l4.764,4.763h-3.772v2.107H40v-7.745h-2.107L37.893,36.467L37.893,36.467z M32.566,0.001v2.107h3.843l-4.8,4.8l1.49,1.489
		l4.793-4.793v4.142H40V0L32.566,0.001L32.566,0.001z M29.524,11.092c0-2.201-4.243-3.985-9.479-3.985s-9.479,1.784-9.479,3.985l0,0
		v17.885h0.001l0,0c0,2.201,4.243,3.985,9.479,3.985s9.479-1.784,9.479-3.985l0,0L29.524,11.092L29.524,11.092z M20.045,9.214
		c4.252,0,6.788,1.25,7.312,1.878c-0.523,0.626-3.059,1.878-7.312,1.878s-6.788-1.251-7.312-1.878
		C13.257,10.464,15.793,9.214,20.045,9.214z M27.358,28.976L27.358,28.976c-0.523,0.627-3.059,1.879-7.313,1.879
		c-4.252,0-6.788-1.25-7.312-1.878v-15.35c1.738,0.884,4.369,1.449,7.312,1.449c2.944,0,5.574-0.563,7.313-1.449V28.976z"/>
</g>
</svg>
