<?xml version="1.0" encoding="utf-8"?>
<!-- Generator: Adobe Illustrator 23.0.1, SVG Export Plug-In . SVG Version: 6.00 Build 0)  -->
<svg version="1.1" id="Layer_1" xmlns="http://www.w3.org/2000/svg" xmlns:xlink="http://www.w3.org/1999/xlink" x="0px" y="0px"
	 viewBox="0 0 40 40" style="enable-background:new 0 0 40 40;" xml:space="preserve">
<style type="text/css">
	.st0{fill:#231F20;}
</style>
<path class="st0" d="M35.191,10.374H4.868c-0.47,0-0.851,0.381-0.851,0.851v27.923c0,0.47,0.381,0.851,0.851,0.851h30.323
	c0.47,0,0.851-0.381,0.851-0.851V11.225C36.042,10.755,35.662,10.374,35.191,10.374z M34.34,38.298H5.72V12.077h28.62V38.298z
	 M4.809,8.885h30.374c0.322,0,0.618-0.182,0.761-0.471s0.113-0.634-0.081-0.891L30.468,0.34C30.307,0.126,30.055,0,29.787,0H10.213
	c-0.268,0-0.519,0.125-0.68,0.34L4.128,7.522C3.935,7.78,3.903,8.125,4.047,8.414C4.191,8.703,4.486,8.885,4.809,8.885z
	 M10.638,1.702h18.724l4.117,5.481H6.514L10.638,1.702z M24.231,19.349l1.19-1.217c-2.988-2.923-7.852-2.923-10.841,0l1.19,1.217
	C18.102,17.067,21.898,17.068,24.231,19.349z M13.94,23.699c-0.002-0.593,0.086-1.181,0.26-1.747l-1.626-0.5
	c-0.225,0.73-0.338,1.488-0.336,2.253c0.013,3.541,2.419,6.622,5.85,7.494l0.419-1.649C15.829,28.869,13.951,26.463,13.94,23.699z
	 M25.799,21.952c0.175,0.567,0.263,1.155,0.261,1.746c-0.01,2.764-1.888,5.17-4.567,5.852l0.419,1.649
	c3.432-0.872,5.837-3.954,5.85-7.495c0.002-0.764-0.111-1.522-0.336-2.252L25.799,21.952z M15.694,23.685
	c0,2.092,1.501,3.836,3.481,4.223v6.458h1.702V27.9c1.955-0.406,3.429-2.141,3.429-4.215c0-0.53-0.109-1.032-0.285-1.502l5.98-3.464
	l-0.853-1.473l-6.026,3.491c-0.786-0.832-1.891-1.359-3.123-1.359s-2.337,0.527-3.123,1.359l-6.025-3.49L9.997,18.72l5.98,3.464
	C15.803,22.653,15.694,23.155,15.694,23.685z M20,21.08c1.436,0,2.604,1.169,2.604,2.605S21.436,26.289,20,26.289
	s-2.604-1.168-2.604-2.604S18.564,21.08,20,21.08z"/>
</svg>
