<?xml version="1.0" encoding="utf-8"?>
<!-- Generator: Adobe Illustrator 23.0.1, SVG Export Plug-In . SVG Version: 6.00 Build 0)  -->
<svg version="1.1" id="Layer_1" xmlns="http://www.w3.org/2000/svg" xmlns:xlink="http://www.w3.org/1999/xlink" x="0px" y="0px"
	 viewBox="0 0 40 40" style="enable-background:new 0 0 40 40;" xml:space="preserve">
<style type="text/css">
	.st0{fill:#231F20;}
</style>
<g id="Art">
	<g>
		<path class="st0" d="M35.157,40h-9.574c-0.47,0-0.851-0.381-0.851-0.851v-4.732h-9.464v4.732c0,0.47-0.381,0.851-0.851,0.851
			H4.843c-0.47,0-0.851-0.381-0.851-0.851V0.851C3.992,0.381,4.373,0,4.843,0h30.315c0.47,0,0.851,0.381,0.851,0.851v38.298
			C36.008,39.619,35.628,40,35.157,40z M26.434,38.298h7.872V1.702H5.694v36.596h7.872v-4.732c0-0.47,0.381-0.851,0.851-0.851
			h11.166c0.47,0,0.851,0.381,0.851,0.851V38.298z"/>
	</g>
</g>
</svg>
