<?xml version="1.0" encoding="utf-8"?>
<!-- Generator: Adobe Illustrator 23.0.1, SVG Export Plug-In . SVG Version: 6.00 Build 0)  -->
<svg version="1.1" id="Layer_1" xmlns="http://www.w3.org/2000/svg" xmlns:xlink="http://www.w3.org/1999/xlink" x="0px" y="0px"
	 viewBox="0 0 40 40" style="enable-background:new 0 0 40 40;" xml:space="preserve">
<style type="text/css">
	.st0{fill:#232F3E;}
</style>
<path class="st0" d="M8.788,5.693h20.74c0.338,0,0.644-0.2,0.78-0.51c0.135-0.31,0.075-0.67-0.155-0.918l-3.685-3.991
	C26.308,0.099,26.081,0,25.843,0h-13.37c-0.238,0-0.464,0.099-0.625,0.274L8.163,4.265c-0.229,0.248-0.29,0.609-0.154,0.918
	C8.144,5.494,8.451,5.693,8.788,5.693z M12.846,1.702h12.625l2.113,2.289H10.732L12.846,1.702z M9.639,8.885h19.038v1.54h1.702
	V8.034c0-0.47-0.381-0.851-0.851-0.851H8.788c-0.47,0-0.851,0.381-0.851,0.851v2.391h1.702V8.885z M34.333,26.436
	c-0.159-0.807-1.092-1.697-2.764-2.648l1.143-8.5l-0.01-0.001c0.008-0.046,0.018-0.091,0.018-0.138v-0.255
	c0-2.958-6.961-4.945-13.463-4.945c-6.576,0-13.617,1.987-13.617,4.945v0.255c0,0.046,0.01,0.092,0.018,0.138l-0.01,0.001
	l2.844,21.154c0.107,2.609,6.423,3.558,10.674,3.558C19.231,40,19.297,40,19.363,40c2.067,0,4.135-0.222,6.158-0.66
	c0.672-0.152,1.34-0.352,1.999-0.602c1.523-0.607,2.312-1.38,2.348-2.298l1.144-8.505c0.585,0.109,1.075,0.16,1.475,0.16
	c0.835,0,1.304-0.207,1.548-0.5C34.31,27.268,34.415,26.857,34.333,26.436z M29.578,25.827c-2.404-0.783-5.746-2.17-8.893-3.662
	c-0.092-0.791-0.758-1.408-1.573-1.408c-0.877,0-1.591,0.714-1.591,1.592s0.714,1.592,1.591,1.592c0.305,0,0.587-0.09,0.83-0.24
	c4.251,2.039,7.275,3.222,9.407,3.835l-1.173,8.726c-0.005,0.037-0.004,0.051-0.004,0.088c-0.002,0.004-0.145,0.356-1.267,0.803
	c-0.571,0.215-1.163,0.393-1.751,0.526c-1.958,0.425-3.964,0.649-5.981,0.619c-5.178,0-8.758-1.26-8.979-1.923
	c0-0.038-0.002-0.076-0.007-0.113l-2.54-18.892c2.793,1.458,7.881,2.034,11.535,2.034c4.384,0,8.977-0.699,11.537-2.047
	L29.578,25.827z M31.018,15.013c-0.487,1.124-5.191,2.689-11.838,2.689c-6.653,0-11.355-1.564-11.838-2.687v-0.121
	c0-0.962,4.624-3.243,11.915-3.243c7.197,0,11.761,2.28,11.761,3.243V15.013z M32.44,26.489c-0.294,0-0.71-0.07-1.209-0.188
	l0.09-0.669c0.522,0.337,0.91,0.638,1.126,0.856H32.44z"/>
</svg>
