<?xml version="1.0" encoding="utf-8"?>
<!-- Generator: Adobe Illustrator 23.0.1, SVG Export Plug-In . SVG Version: 6.00 Build 0)  -->
<svg version="1.1" id="Layer_1" xmlns="http://www.w3.org/2000/svg" xmlns:xlink="http://www.w3.org/1999/xlink" x="0px" y="0px"
	 viewBox="0 0 40 40" style="enable-background:new 0 0 40 40;" xml:space="preserve">
<style type="text/css">
	.st0{fill:#231F20;}
</style>
<g>
	<path class="st0" d="M35.812,3.94H4.188C1.878,3.94,0,5.819,0,8.129v23.742c0,2.31,1.879,4.189,4.188,4.189h31.625
		c2.31,0,4.188-1.878,4.188-4.189V8.129C40,5.819,38.121,3.94,35.812,3.94z M37.906,31.87c0,1.154-0.939,2.094-2.094,2.094H4.188
		c-1.154,0-2.094-0.939-2.094-2.094V8.128c0-1.154,0.939-2.094,2.094-2.094h31.625c1.154,0,2.094,0.939,2.094,2.094V31.87z
		 M34.137,7.148h-7.238c-1.154,0-2.094,0.939-2.094,2.094v1.242h-9.611V9.242c0-1.154-0.939-2.094-2.094-2.094H5.863
		c-1.497,0-2.716,1.218-2.716,2.714v20.274c0,1.497,1.218,2.714,2.716,2.714h28.275c1.497,0,2.716-1.218,2.716-2.714V9.863
		C36.852,8.365,35.634,7.148,34.137,7.148z M34.759,30.136c0,0.336-0.285,0.621-0.622,0.621H5.862c-0.337,0-0.621-0.285-0.621-0.621
		V9.863c0-0.336,0.285-0.621,0.621-0.621H13.1v1.242c0,1.154,0.939,2.094,2.094,2.094h9.611c1.155,0,2.094-0.939,2.094-2.094V9.242
		h7.238c0.337,0,0.622,0.285,0.622,0.621L34.759,30.136L34.759,30.136z M29.592,14.274H10.408c-1.12,0-2.03,0.911-2.03,2.031v8.763
		c0,1.12,0.911,2.031,2.03,2.031h19.183c1.12,0,2.03-0.911,2.03-2.031v-8.763C31.621,15.185,30.711,14.274,29.592,14.274z
		 M29.528,25.005l-19.055,0.064l-0.064-8.7l19.119-0.063V25.005z M23.121,7.148h-6.242v2.094h6.242V7.148z"/>
</g>
</svg>
