<?xml version="1.0" encoding="utf-8"?>
<!-- Generator: Adobe Illustrator 23.0.1, SVG Export Plug-In . SVG Version: 6.00 Build 0)  -->
<svg version="1.1" id="Layer_1" xmlns="http://www.w3.org/2000/svg" xmlns:xlink="http://www.w3.org/1999/xlink" x="0px" y="0px"
	 viewBox="0 0 40 40" style="enable-background:new 0 0 40 40;" xml:space="preserve">
<style type="text/css">
	.st0{fill:#231F20;}
</style>
<g>
	<g>
		<path class="st0" d="M6.907,31.61l-4.799,4.799v-4.154H0.001v7.745h7.434v-2.107H3.604l4.793-4.793L6.907,31.61z M2.107,3.663
			l4.763,4.763l1.49-1.49L3.532,2.108h3.902V0.001H0v7.745h2.107L2.107,3.663L2.107,3.663z M37.892,36.467l-4.828-4.829l-1.49,1.49
			l4.764,4.763h-3.772v2.107h7.434v-7.745h-2.107L37.892,36.467L37.892,36.467z M32.566,0.002v2.107h3.843l-4.8,4.799l1.49,1.49
			l4.793-4.793v4.142H40V0.001L32.566,0.002L32.566,0.002z M16.803,8.756c2.937,0,5.626,1.728,6.849,4.4
			c0.149,0.323,0.424,0.574,0.759,0.689c0.336,0.117,0.711,0.086,1.027-0.08c0.47-0.246,0.966-0.37,1.472-0.37
			c1.671,0,3.049,1.261,3.207,2.93c0.051,0.566,0.459,1.026,1.014,1.147c2.559,0.556,4.419,2.851,4.439,5.467l-0.01,0.492
			c-0.121,1.992-1.304,3.683-2.992,4.553v2.306c2.991-1.042,5.11-3.872,5.11-7.201v-0.109c0-0.081-0.001-0.161-0.003-0.242
			l-0.006-0.495l-0.027-0.006c-0.305-3.115-2.502-5.788-5.51-6.682c-0.501-2.47-2.651-4.267-5.22-4.267
			c-0.582,0-1.151,0.096-1.701,0.286c-1.694-3.016-4.912-4.925-8.407-4.925c-4.963,0-9.075,3.755-9.576,8.638
			c-3.142,1.489-5.009,4.848-4.58,8.347c0.392,3.2,2.706,5.77,5.75,6.709V28.09C6.444,27.258,5,25.515,4.738,23.38
			c-0.334-2.723,1.206-5.329,3.74-6.339c0.466-0.186,0.785-0.63,0.814-1.137C9.495,11.894,12.794,8.756,16.803,8.756z M32.71,23.692
			h-3.411v-1.855c0-0.291-0.235-0.527-0.527-0.527h-9.683c-0.058,0-0.105-0.047-0.105-0.105v-1.186c0-0.291-0.235-0.527-0.527-0.527
			h-4.826c-0.291,0-0.527,0.235-0.527,0.527v1.186c0,0.058-0.047,0.105-0.105,0.105h-2.582c-0.291,0-0.527,0.235-0.527,0.527V33.78
			c0,0.291,0.235,0.527,0.527,0.527h18.355c0.291,0,0.527-0.237,0.527-0.527v-0.36l3.657-9.369
			C33.023,23.879,32.895,23.692,32.71,23.692z M27.718,23.692h-0.009v9.035h-16.24v-9.835h2.951c0.145,0,0.264-0.118,0.264-0.263
			v-1.555h2.719v1.555c0,0.145,0.118,0.263,0.263,0.263h10.052V23.692z M29.299,29.074v-3.801h1.483L29.299,29.074z"/>
	</g>
</g>
</svg>
