<?xml version="1.0" encoding="utf-8"?>
<!-- Generator: Adobe Illustrator 23.0.1, SVG Export Plug-In . SVG Version: 6.00 Build 0)  -->
<svg version="1.1" id="Layer_1" xmlns="http://www.w3.org/2000/svg" xmlns:xlink="http://www.w3.org/1999/xlink" x="0px" y="0px"
	 viewBox="0 0 40 40" style="enable-background:new 0 0 40 40;" xml:space="preserve">
<style type="text/css">
	.st0{fill:#231F20;}
</style>
<path class="st0" d="M35.157,0H4.843c-0.47,0-0.851,0.381-0.851,0.851v38.298c0,0.47,0.381,0.851,0.851,0.851h9.574
	c0.47,0,0.851-0.381,0.851-0.851v-4.732h9.464v4.732c0,0.47,0.381,0.851,0.851,0.851h9.574c0.47,0,0.851-0.381,0.851-0.851V0.851
	C36.008,0.381,35.628,0,35.157,0z M34.306,38.298h-7.872v-4.732c0-0.47-0.381-0.851-0.851-0.851H14.417
	c-0.47,0-0.851,0.381-0.851,0.851v4.732H5.694V1.702h28.612V38.298z M14.394,12.025l2.552-7.188h-1.681l-1.67,5.663l-1.681-5.663
	h-1.722l2.552,7.188H14.394z M20.049,12.025h1.556V6.082h2.188V4.837H17.86v1.245h2.188v5.943H20.049z M29.808,10.78h-3.153V4.837
	h-1.556v7.188h4.709V10.78z M13.217,28.826c0.135,0,0.267-0.011,0.4-0.02v0.029h13.566v-0.029c3.14-0.208,5.633-2.822,5.633-6.014
	c0-3.327-2.707-6.034-6.034-6.034s-6.034,2.707-6.034,6.034c0,1.704,0.713,3.242,1.852,4.34h-5.203
	c1.14-1.098,1.853-2.636,1.853-4.34c0-3.327-2.707-6.034-6.034-6.034s-6.034,2.707-6.034,6.034
	C7.183,26.119,9.89,28.826,13.217,28.826z M22.451,22.792c0-2.389,1.943-4.332,4.332-4.332s4.332,1.944,4.332,4.332
	s-1.943,4.332-4.332,4.332S22.451,25.18,22.451,22.792z M13.217,18.46c2.389,0,4.332,1.944,4.332,4.332s-1.944,4.332-4.332,4.332
	s-4.332-1.943-4.332-4.332S10.828,18.46,13.217,18.46z"/>
</svg>
