<?xml version="1.0" encoding="utf-8"?>
<!-- Generator: Adobe Illustrator 23.0.1, SVG Export Plug-In . SVG Version: 6.00 Build 0)  -->
<svg version="1.1" id="Layer_1" xmlns="http://www.w3.org/2000/svg" xmlns:xlink="http://www.w3.org/1999/xlink" x="0px" y="0px"
	 viewBox="0 0 40 40" style="enable-background:new 0 0 40 40;" xml:space="preserve">
<style type="text/css">
	.st0{fill:#231F20;}
</style>
<g>
	<path class="st0" d="M6.216,13.636v12.729h2.327c0.433,1.24,1.601,2.136,2.99,2.136c1.037,0,1.95-0.504,2.529-1.273
		c0.581,0.768,1.493,1.273,2.529,1.273c1.389,0,2.556-0.895,2.99-2.136h8.561c0.433,1.24,1.601,2.136,2.99,2.136
		c1.755,0,3.179-1.423,3.179-3.179c0-0.007-0.002-0.014-0.002-0.021h1.745v-4.705c0-2.6-2.107-4.707-4.707-4.707H28.79v-2.252
		L6.216,13.636L6.216,13.636z M11.532,26.941c-0.894,0-1.621-0.727-1.621-1.62c0-0.894,0.727-1.62,1.621-1.62
		c0.894,0,1.621,0.727,1.621,1.62C13.153,26.214,12.426,26.941,11.532,26.941z M16.592,26.941c-0.894,0-1.621-0.727-1.621-1.62
		c0-0.894,0.727-1.62,1.621-1.62c0.894,0,1.621,0.727,1.621,1.62C18.212,26.214,17.485,26.941,16.592,26.941z M27.231,15.888
		L27.231,15.888v8.917h-7.512c-0.248-1.51-1.547-2.664-3.127-2.664c-1.038,0-1.95,0.504-2.529,1.272
		c-0.581-0.768-1.493-1.272-2.529-1.272c-1.579,0-2.88,1.154-3.127,2.664H7.777v-9.611h19.457v0.694H27.231z M31.131,26.941
		c-0.894,0-1.621-0.727-1.621-1.62c0-0.894,0.727-1.62,1.621-1.62c0.894,0,1.621,0.727,1.621,1.62
		C32.751,26.214,32.024,26.941,31.131,26.941z M31.345,17.446c1.736,0,3.148,1.412,3.148,3.148v3.146h-0.619
		c-0.55-0.952-1.566-1.6-2.744-1.6c-0.93,0-1.76,0.407-2.34,1.043v-5.738H31.345z M21.035,1.037
		c-8.015,0-14.853,4.979-17.629,12.007h2.262c2.657-5.846,8.539-9.929,15.368-9.929c9.311,0,16.885,7.575,16.885,16.885
		s-7.575,16.885-16.885,16.885c-7.226,0-13.389-4.571-15.794-10.968H3.026c2.488,7.572,9.604,13.047,18.01,13.047
		C31.51,38.963,40,30.473,40,19.999S31.509,1.037,21.035,1.037z M4.931,13.876H2.079v2.079h2.852V13.876z M4.931,22.11H2.079v2.079
		h2.852V22.11z M4.931,18.064H0v2.079h4.931V18.064z"/>
</g>
</svg>
