<?xml version="1.0" encoding="utf-8"?>
<!-- Generator: Adobe Illustrator 23.0.1, SVG Export Plug-In . SVG Version: 6.00 Build 0)  -->
<svg version="1.1" id="Layer_1" xmlns="http://www.w3.org/2000/svg" xmlns:xlink="http://www.w3.org/1999/xlink" x="0px" y="0px"
	 viewBox="0 0 40 40" style="enable-background:new 0 0 40 40;" xml:space="preserve">
<style type="text/css">
	.st0{fill:#231F20;}
</style>
<path class="st0" d="M35.157,0H4.843c-0.47,0-0.851,0.381-0.851,0.851v38.298c0,0.47,0.381,0.851,0.851,0.851h9.574
	c0.47,0,0.851-0.381,0.851-0.851v-4.732h9.464v4.732c0,0.47,0.381,0.851,0.851,0.851h9.574c0.47,0,0.851-0.381,0.851-0.851V0.851
	C36.008,0.381,35.628,0,35.157,0z M34.306,38.298h-7.872v-4.732c0-0.47-0.381-0.851-0.851-0.851H14.417
	c-0.47,0-0.851,0.381-0.851,0.851v4.732H5.694V1.702h28.612V38.298z M24.183,8.715h2.349v2.511h1.277V5.328h-1.277v2.399h-2.349
	V5.328h-1.277v5.898h1.277C24.183,11.226,24.183,8.715,24.183,8.715z M32.625,10.238H30.02v-1.54h2.119V7.711H30.02V6.315h2.605
	V5.328h-3.881v5.898h3.881V10.238z M10.294,11.336c0.568,0,1.081-0.088,1.54-0.263v-1.005c-0.595,0.13-1.058,0.196-1.387,0.196
	c-0.584,0-1.019-0.155-1.302-0.464C8.861,9.491,8.719,9.018,8.719,8.383V8.187c0-0.641,0.146-1.117,0.438-1.43
	c0.292-0.312,0.733-0.468,1.324-0.468c0.329,0,0.752,0.057,1.268,0.17V5.455c-0.448-0.159-0.922-0.238-1.422-0.238
	c-0.936,0-1.662,0.269-2.179,0.808c-0.516,0.539-0.774,1.3-0.774,2.281c0,0.992,0.247,1.746,0.741,2.259
	C8.609,11.079,9.335,11.336,10.294,11.336z M20.634,11.336c0.568,0,1.08-0.088,1.54-0.263v-1.005
	c-0.595,0.13-1.058,0.196-1.387,0.196c-0.584,0-1.018-0.155-1.302-0.464s-0.426-0.782-0.426-1.417V8.187
	c0-0.641,0.146-1.117,0.438-1.43c0.292-0.312,0.733-0.468,1.323-0.468c0.329,0,0.752,0.057,1.268,0.17V5.455
	c-0.448-0.159-0.922-0.238-1.421-0.238c-0.936,0-1.662,0.269-2.179,0.808c-0.516,0.539-0.774,1.3-0.774,2.281
	c0,0.992,0.247,1.746,0.741,2.259C18.949,11.079,19.675,11.336,20.634,11.336z M13.885,9.881h2.017l0.417,1.345h1.387L15.63,5.328
	h-1.404l-2.077,5.898h1.336L13.885,9.881z M14.889,6.494l0.749,2.468h-1.481L14.889,6.494z"/>
</svg>
