<?xml version="1.0" encoding="utf-8"?>
<!-- Generator: Adobe Illustrator 23.0.1, SVG Export Plug-In . SVG Version: 6.00 Build 0)  -->
<svg version="1.1" id="Layer_1" xmlns="http://www.w3.org/2000/svg" xmlns:xlink="http://www.w3.org/1999/xlink" x="0px" y="0px"
	 viewBox="0 0 40 40" style="enable-background:new 0 0 40 40;" xml:space="preserve">
<style type="text/css">
	.st0{fill:#231F20;}
</style>
<path class="st0" d="M18.404,11.172H4.841c-0.47,0-0.851,0.381-0.851,0.851v27.126C3.99,39.619,4.371,40,4.841,40h13.563
	c0.47,0,0.851-0.381,0.851-0.851V12.023C19.255,11.553,18.874,11.172,18.404,11.172z M17.553,38.298H5.692V12.874h11.861V38.298z
	 M35.159,11.172H21.595c-0.47,0-0.851,0.381-0.851,0.851v27.126c0,0.47,0.381,0.851,0.851,0.851h13.564
	c0.47,0,0.851-0.381,0.851-0.851V12.023C36.01,11.553,35.629,11.172,35.159,11.172z M34.308,38.298H22.446V12.874h11.862V38.298z
	 M18.404,0H9.768C9.473,0,9.199,0.153,9.044,0.404L4.117,8.385C3.955,8.648,3.948,8.977,4.098,9.247
	c0.15,0.269,0.435,0.436,0.743,0.436h13.563c0.47,0,0.851-0.381,0.851-0.851V0.851C19.255,0.381,18.874,0,18.404,0z M17.553,7.981
	H6.366l3.876-6.279h7.311C17.553,1.702,17.553,7.981,17.553,7.981z M21.595,9.683H35.15c0.308,0,0.592-0.167,0.743-0.436
	c0.15-0.27,0.143-0.599-0.019-0.862l-4.927-7.981C30.792,0.153,30.518,0,30.223,0h-8.628c-0.47,0-0.851,0.381-0.851,0.851v7.981
	C20.744,9.302,21.125,9.683,21.595,9.683z M22.446,1.702h7.302l3.876,6.279H22.446V1.702z"/>
</svg>
