<?xml version="1.0" encoding="utf-8"?>
<!-- Generator: Adobe Illustrator 23.0.1, SVG Export Plug-In . SVG Version: 6.00 Build 0)  -->
<svg version="1.1" id="Layer_1" xmlns="http://www.w3.org/2000/svg" xmlns:xlink="http://www.w3.org/1999/xlink" x="0px" y="0px"
	 viewBox="0 0 40 40" style="enable-background:new 0 0 40 40;" xml:space="preserve">
<style type="text/css">
	.st0{fill:#231F20;}
</style>
<path class="st0" d="M14.422,8.194c-0.118-0.345-0.441-0.576-0.805-0.576H5.72c-1.408,0-2.553,1.145-2.553,2.553V18.8h1.702v-8.629
	c0-0.469,0.382-0.851,0.851-0.851h7.289l0.893,2.615c0.118,0.345,0.441,0.576,0.805,0.576H25.26c0.362,0,0.685-0.229,0.804-0.571
	l0.925-2.655h7.233c0.47,0,0.851,0.382,0.851,0.851v4.647h1.702v-4.647c0-1.408-1.145-2.553-2.553-2.553h-7.838
	c-0.362,0-0.685,0.229-0.804,0.571l-0.925,2.655h-9.339L14.422,8.194z M3.192,23.591v6.238c0,1.408,1.145,2.553,2.553,2.553h28.484
	c1.408,0,2.553-1.145,2.553-2.553v-2.246H35.08v2.246c0,0.47-0.381,0.851-0.851,0.851H5.745c-0.469,0-0.851-0.381-0.851-0.851
	v-6.238H3.192z M38.297,31.153c0.022,1.49-1.174,2.725-2.647,2.753H4.346c-1.479-0.038-2.665-1.273-2.643-2.766v-7.549H0v7.536
	c-0.035,2.408,1.894,4.417,4.323,4.48h31.343c2.424-0.047,4.367-2.056,4.333-4.468v-6.578h-1.702V31.153z M35.625,4.392H4.333
	C1.909,4.438-0.035,6.448,0,8.86v9.94h1.702V8.847C1.68,7.357,2.875,6.121,4.349,6.094h31.266c1.497,0.017,2.699,1.25,2.682,2.766
	v8.97H40V8.861C40.029,6.426,38.071,4.421,35.625,4.392z M31.991,18.8v-3.191c0-0.47-0.381-0.851-0.851-0.851H19.974v1.702h10.315
	v2.34H31.991z M8.749,15.608V18.8h1.702v-2.34h3.941v-1.702H9.6C9.13,14.757,8.749,15.138,8.749,15.608z M8.749,23.591v2.392
	c0,0.47,0.381,0.851,0.851,0.851h4.792v-1.702h-3.941v-1.541H8.749z M31.991,25.983v-2.392h-1.702v1.541H19.974v1.702H31.14
	C31.61,26.834,31.991,26.453,31.991,25.983z M16.783,7.583v1.702h6.382V7.583H16.783z M39.693,20.601l-4.757-4.792l-1.208,1.199
	l3.317,3.341H23.166v1.702h13.876l-3.313,3.332l1.207,1.2l4.757-4.783C40.022,21.469,40.022,20.932,39.693,20.601z M0.026,22.051
	h18.699l-3.319,3.331l1.206,1.202l4.766-4.783c0.331-0.332,0.332-0.868,0.001-1.201l-4.766-4.792l-1.207,1.2l3.323,3.341H0.026
	V22.051z"/>
</svg>
