<?xml version="1.0" encoding="utf-8"?>
<!-- Generator: Adobe Illustrator 23.0.1, SVG Export Plug-In . SVG Version: 6.00 Build 0)  -->
<svg version="1.1" id="Layer_1" xmlns="http://www.w3.org/2000/svg" xmlns:xlink="http://www.w3.org/1999/xlink" x="0px" y="0px"
	 viewBox="0 0 40 40" style="enable-background:new 0 0 40 40;" xml:space="preserve">
<style type="text/css">
	.st0{fill:#231F20;}
</style>
<path class="st0" d="M37.733,19.77c-1.051-0.694-1.784-1.226-2.251-1.584l1.671-11.825C37.152,2.848,29.033,0,19.018,0
	S0.884,2.848,0.884,6.361l3.667,29.313c0,2.389,6.37,4.326,14.229,4.326c7.858,0,14.229-1.937,14.229-4.326l1.602-11.343
	c0.473,0.092,0.919,0.147,1.314,0.147c1.539,0,2.501-0.63,2.922-1.401C39.458,21.966,38.999,20.604,37.733,19.77z M19.018,2.106
	c11.032,0,16.028,3.264,16.028,4.255s-4.997,4.255-16.028,4.255S2.991,7.352,2.991,6.361S7.987,2.106,19.018,2.106z M30.645,35.675
	c-1.201,0.837-5.248,2.219-11.863,2.219c-6.615,0-10.661-1.382-11.863-2.219L3.424,9.596c3.159,1.869,8.951,3.127,15.594,3.127
	c6.605,0,12.366-1.242,15.537-3.094l-1.784,11.876l-11.928-5.288c-0.145-0.932-0.945-1.648-1.919-1.648
	c-1.077,0-1.95,0.873-1.95,1.95c0,1.076,0.873,1.95,1.95,1.95c0.395,0,0.763-0.12,1.071-0.322l12.194,5.406
	c0.09,0.04,0.17,0.065,0.259,0.103L30.645,35.675z M34.909,22.246l0.239-1.691c0.399,0.283,0.87,0.607,1.425,0.974
	c0.375,0.247,0.458,0.486,0.429,0.539C36.897,22.26,36.213,22.519,34.909,22.246z"/>
</svg>
