<?xml version="1.0" encoding="utf-8"?>
<!-- Generator: Adobe Illustrator 23.0.1, SVG Export Plug-In . SVG Version: 6.00 Build 0)  -->
<svg version="1.1" id="Layer_1" xmlns="http://www.w3.org/2000/svg" xmlns:xlink="http://www.w3.org/1999/xlink" x="0px" y="0px"
	 viewBox="0 0 40 40" style="enable-background:new 0 0 40 40;" xml:space="preserve">
<style type="text/css">
	.st0{fill:#231F20;}
</style>
<path class="st0" d="M10.431,27.142c-0.47,0-0.851,0.381-0.851,0.851v6.385c0,0.471,0.381,0.851,0.851,0.851h6.309
	c0.47,0,0.851-0.381,0.851-0.851v-6.385c0-0.471-0.381-0.851-0.851-0.851C16.74,27.142,10.431,27.142,10.431,27.142z M15.888,33.527
	h-4.606v-4.683h4.606V33.527z M25.109,32.072c2.45,0,4.444-2.001,4.444-4.461c0-2.459-1.994-4.461-4.444-4.461
	s-4.444,2.001-4.444,4.461C20.665,30.07,22.659,32.072,25.109,32.072z M25.109,24.852c1.512,0,2.741,1.237,2.741,2.758
	c0,1.522-1.23,2.759-2.741,2.759s-2.741-1.237-2.741-2.759C22.368,26.089,23.597,24.852,25.109,24.852z M16.672,23.62
	c0.151-0.267,0.147-0.594-0.01-0.857l-3.985-6.65c-0.154-0.256-0.431-0.414-0.73-0.414l0,0c-0.299,0-0.576,0.157-0.73,0.413
	l-3.993,6.649c-0.158,0.263-0.162,0.59-0.011,0.857s0.434,0.432,0.741,0.432h7.978C16.238,24.052,16.521,23.887,16.672,23.62z
	 M9.458,22.349l2.488-4.143l2.483,4.143H9.458z M39.172,22.063c-0.226-1.269-1.971-2.456-3.865-3.553l1.569-11.662
	c0-0.001,0-0.001,0-0.002l0.049-0.339c0.006-0.04,0.009-0.081,0.009-0.122C36.934,2.622,27.409,0,18.86,0
	C10.319,0,0.802,2.622,0.802,6.385c0,0.035,0.002,0.069,0.006,0.103L0.85,6.837c0,0.002,0.001,0.005,0.001,0.007
	c0,0.001,0,0.002,0,0.003l3.833,28.609c0.111,3.307,8.713,4.541,14.142,4.541C18.934,39.999,19.041,40,19.149,40
	c2.751,0,5.506-0.293,8.192-0.872c0.912-0.199,1.813-0.466,2.686-0.798c1.952-0.771,2.961-1.731,2.998-2.856l1.592-11.838
	c0.887,0.192,1.689,0.308,2.354,0.308c0.863,0,1.509-0.182,1.858-0.597C39.134,22.984,39.256,22.528,39.172,22.063z M2.688,6.855
	C2.654,6.806,2.636,6.758,2.611,6.71C2.581,6.653,2.546,6.596,2.53,6.54L2.506,6.345C2.615,4.691,9.327,1.703,18.86,1.703
	c9.527,0,16.24,2.979,16.37,4.634l-0.03,0.2c-0.014,0.049-0.047,0.101-0.072,0.151c-0.027,0.056-0.048,0.111-0.088,0.168
	C35.007,6.903,34.956,6.952,34.914,7c-0.053,0.061-0.1,0.121-0.167,0.182c-0.051,0.046-0.117,0.093-0.176,0.14
	c-0.08,0.064-0.154,0.128-0.249,0.192c-0.066,0.045-0.148,0.09-0.22,0.135c-0.107,0.066-0.209,0.133-0.33,0.199
	c-0.08,0.044-0.175,0.087-0.261,0.13c-0.134,0.068-0.263,0.135-0.412,0.202c-0.093,0.042-0.201,0.083-0.3,0.124
	c-0.16,0.067-0.316,0.135-0.491,0.201c-0.107,0.04-0.228,0.079-0.34,0.119c-0.184,0.065-0.365,0.131-0.563,0.195
	c-0.122,0.039-0.257,0.076-0.385,0.114c-0.207,0.062-0.409,0.125-0.629,0.185c-0.134,0.036-0.281,0.07-0.42,0.106
	c-0.23,0.059-0.455,0.118-0.698,0.174c-0.148,0.034-0.31,0.065-0.463,0.098c-0.249,0.054-0.494,0.108-0.756,0.159
	c-0.165,0.032-0.343,0.059-0.513,0.09c-0.265,0.047-0.525,0.096-0.801,0.139c-0.192,0.03-0.398,0.055-0.595,0.084
	c-0.269,0.038-0.533,0.079-0.812,0.113c-0.226,0.028-0.465,0.05-0.698,0.075c-0.265,0.029-0.524,0.06-0.798,0.085
	c-0.281,0.026-0.575,0.044-0.864,0.066c-0.239,0.018-0.471,0.039-0.715,0.054c-0.335,0.02-0.685,0.032-1.03,0.047
	c-0.212,0.009-0.417,0.022-0.632,0.028c-0.566,0.017-1.145,0.026-1.736,0.026c-0.59,0-1.168-0.009-1.734-0.026
	c-0.178-0.005-0.347-0.017-0.523-0.024c-0.382-0.015-0.767-0.029-1.137-0.052c-0.186-0.011-0.361-0.028-0.544-0.041
	c-0.349-0.025-0.701-0.048-1.038-0.079c-0.174-0.016-0.337-0.037-0.507-0.054c-0.333-0.034-0.67-0.067-0.99-0.107
	c-0.159-0.02-0.308-0.044-0.464-0.065c-0.319-0.043-0.64-0.085-0.945-0.133c-0.149-0.023-0.286-0.05-0.431-0.075
	c-0.299-0.05-0.6-0.1-0.884-0.155c-0.141-0.027-0.27-0.057-0.407-0.085C8.981,9.512,8.704,9.457,8.443,9.397
	C8.317,9.367,8.202,9.336,8.08,9.306C7.823,9.243,7.565,9.181,7.324,9.115C7.211,9.084,7.109,9.051,6.999,9.02
	c-0.234-0.067-0.47-0.135-0.687-0.205C6.207,8.782,6.115,8.747,6.014,8.712C5.807,8.642,5.599,8.572,5.409,8.5
	C5.314,8.464,5.232,8.427,5.141,8.391C4.962,8.319,4.782,8.248,4.62,8.175C4.536,8.137,4.464,8.098,4.385,8.06
	C4.235,7.988,4.083,7.916,3.95,7.843C3.875,7.802,3.814,7.761,3.744,7.72c-0.118-0.07-0.24-0.14-0.342-0.21
	C3.338,7.466,3.288,7.422,3.229,7.377C3.143,7.311,3.052,7.245,2.981,7.179C2.929,7.132,2.894,7.086,2.851,7.04
	C2.793,6.978,2.732,6.916,2.688,6.855z M33.186,21.509c-3.327-1.063-8.026-3.007-12.476-5.124c-0.03-0.992-0.842-1.792-1.842-1.792
	c-1.018,0-1.847,0.829-1.847,1.847s0.829,1.847,1.847,1.847c0.412,0,0.789-0.141,1.097-0.37c3.968,1.904,9.052,4.162,12.991,5.297
	l-1.625,12.08c-0.005,0.038-0.007,0.076-0.007,0.114c0,0.161-0.345,0.715-1.912,1.333c-0.784,0.299-1.602,0.542-2.43,0.722
	c-2.667,0.575-5.408,0.857-8.147,0.832c-7.745,0-12.447-2.016-12.447-2.903c0-0.037-0.002-0.076-0.007-0.113l-3.5-26.111
	c0.006,0.004,0.014,0.007,0.02,0.011c0.051,0.03,0.109,0.058,0.161,0.088C3.264,9.381,3.476,9.493,3.7,9.601
	C3.798,9.648,3.898,9.693,4,9.739c0.204,0.092,0.417,0.182,0.636,0.269c0.101,0.04,0.199,0.081,0.303,0.12
	c0.317,0.118,0.644,0.233,0.987,0.342c0.063,0.02,0.13,0.038,0.194,0.057c0.294,0.09,0.597,0.177,0.908,0.26
	c0.127,0.034,0.256,0.066,0.386,0.099c0.272,0.068,0.549,0.134,0.831,0.197c0.125,0.028,0.248,0.056,0.374,0.083
	c0.399,0.085,0.805,0.165,1.22,0.239c0.052,0.009,0.105,0.017,0.157,0.026c0.373,0.065,0.752,0.125,1.136,0.182
	c0.14,0.021,0.281,0.04,0.422,0.059c0.317,0.044,0.637,0.084,0.959,0.122c0.136,0.016,0.272,0.033,0.409,0.048
	c0.447,0.049,0.896,0.094,1.348,0.132c0.029,0.002,0.058,0.004,0.087,0.006c0.429,0.035,0.861,0.064,1.293,0.09
	c0.139,0.008,0.277,0.015,0.416,0.022c0.338,0.017,0.675,0.031,1.013,0.042c0.137,0.004,0.273,0.01,0.409,0.013
	c0.458,0.012,0.916,0.019,1.37,0.019s0.912-0.008,1.371-0.019c0.136-0.003,0.272-0.008,0.409-0.013
	c0.34-0.011,0.68-0.025,1.02-0.043c0.136-0.007,0.272-0.013,0.408-0.021c0.451-0.026,0.901-0.056,1.349-0.093
	c0.009-0.001,0.018-0.001,0.027-0.002c0.46-0.038,0.915-0.084,1.369-0.134c0.126-0.014,0.25-0.029,0.376-0.044
	c0.339-0.04,0.674-0.083,1.007-0.129c0.127-0.018,0.254-0.035,0.38-0.053c0.425-0.062,0.845-0.128,1.257-0.201
	c0.013-0.002,0.026-0.004,0.039-0.006c0.428-0.076,0.846-0.159,1.257-0.246c0.107-0.023,0.211-0.047,0.317-0.07
	c0.31-0.069,0.613-0.141,0.911-0.216c0.106-0.027,0.213-0.053,0.317-0.081c0.366-0.097,0.723-0.198,1.065-0.305
	c0.014-0.004,0.029-0.008,0.043-0.013c0.36-0.113,0.703-0.233,1.034-0.358c0.08-0.03,0.156-0.061,0.234-0.092
	c0.249-0.098,0.488-0.199,0.718-0.303c0.081-0.037,0.161-0.073,0.239-0.11c0.265-0.127,0.517-0.257,0.75-0.393
	c0.019-0.011,0.04-0.021,0.058-0.032c0.01-0.006,0.021-0.011,0.031-0.017L33.186,21.509z M34.839,21.991l0.221-1.647
	c1.843,1.126,2.3,1.696,2.406,1.929C37.061,22.446,36.124,22.324,34.839,21.991z"/>
</svg>
