<?xml version="1.0" encoding="utf-8"?>
<!-- Generator: Adobe Illustrator 23.0.1, SVG Export Plug-In . SVG Version: 6.00 Build 0)  -->
<svg version="1.1" id="Layer_1" xmlns="http://www.w3.org/2000/svg" xmlns:xlink="http://www.w3.org/1999/xlink" x="0px" y="0px"
	 viewBox="0 0 40 40" style="enable-background:new 0 0 40 40;" xml:space="preserve">
<style type="text/css">
	.st0{fill:#231F20;}
</style>
<g>
	<g>
		<path class="st0" d="M6.266,6.298h4.542v5.278c0.329-0.171,0.679-0.329,1.045-0.477V5.254h-6.63v13.697h2.495v-1.045h-1.45V6.298
			L6.266,6.298L6.266,6.298z"/>
	</g>
	<g>
		<path class="st0" d="M20.275,11.775c-5.783,0-10.471,1.758-10.471,3.927v18.323c0,2.169,4.688,3.927,10.471,3.927
			s10.471-1.758,10.471-3.927V15.702C30.746,13.533,26.058,11.775,20.275,11.775z M29.438,22.246c0,0.523-1.522,1.567-4.414,2.166
			c0.135,0.398,0.215,0.821,0.215,1.271c0,0.005-0.001,0.008-0.001,0.011c1.761-0.358,3.23-0.893,4.2-1.55v4.645
			c0,0.514-1.473,1.528-4.265,2.133l0.797,1.154c1.434-0.351,2.637-0.824,3.47-1.387v3.336c0,0.76-3.21,2.618-9.162,2.618
			s-9.162-1.858-9.162-2.618v-3.336c1.093,0.739,2.806,1.33,4.872,1.68v-1.328c-3.183-0.579-4.872-1.702-4.872-2.251v-4.645
			c1.093,0.739,2.806,1.33,4.872,1.68v-1.328c-3.183-0.579-4.872-1.702-4.872-2.251v-4.645c1.785,1.208,5.217,2.027,9.162,2.027
			s7.377-0.818,9.162-2.027L29.438,22.246L29.438,22.246z M20.275,18.319c-5.951,0-9.162-1.858-9.162-2.617
			c0-0.759,3.21-2.617,9.162-2.617s9.162,1.858,9.162,2.617C29.438,16.461,26.227,18.319,20.275,18.319z"/>
	</g>
	<g>
		<path class="st0" d="M40,4.938v-2.89H0v2.89c1.442,0,2.61,1.169,2.61,2.61s-1.169,2.61-2.61,2.61v13.986h7.717V23.1H4.469v-2.159
			h3.248v-1.045H3.425V23.1H1.045V11.05c1.509-0.45,2.61-1.85,2.61-3.503s-1.103-3.053-2.61-3.503V3.091h37.911v0.953
			c-1.509,0.45-2.61,1.85-2.61,3.503s1.103,3.053,2.61,3.503V23.1h-2.016v-3.203h-4.105v1.045h3.061V23.1h-3.061v1.045h7.165V10.158
			c-1.442,0-2.61-1.169-2.61-2.61S38.558,4.938,40,4.938z"/>
	</g>
	<g>
		<path class="st0" d="M32.835,17.907v1.045h1.943V5.254h-6.63v5.639c0.365,0.129,0.711,0.271,1.045,0.422V6.298h4.542v11.609
			L32.835,17.907L32.835,17.907z"/>
	</g>
	<g>
		<path class="st0" d="M27.136,10.569V5.253h-6.63v4.438c0.347,0.002,0.696,0.01,1.045,0.025V6.297h4.542v4.007
			C26.448,10.383,26.797,10.473,27.136,10.569z"/>
	</g>
	<g>
		<path class="st0" d="M19.494,9.702V5.253h-6.63v5.482c0.338-0.109,0.687-0.208,1.045-0.299V6.297h4.542v3.451
			C18.798,9.727,19.146,9.711,19.494,9.702z"/>
	</g>
	<g>
		<path class="st0" d="M17.031,31.683h1.541v-3.056h1.928l2.154,3.056h1.829l-2.367-3.319c1.215-0.351,2.079-1.215,2.079-2.655
			v-0.025c0-0.765-0.263-1.416-0.726-1.891c-0.563-0.551-1.427-0.877-2.53-0.877h-3.907V31.683z M18.571,24.317h2.241
			c1.141,0,1.816,0.513,1.816,1.454v0.025c0,0.889-0.701,1.465-1.803,1.465H18.57v-2.944L18.571,24.317L18.571,24.317z"/>
	</g>
</g>
</svg>
