<?xml version="1.0" encoding="utf-8"?>
<!-- Generator: Adobe Illustrator 23.0.1, SVG Export Plug-In . SVG Version: 6.00 Build 0)  -->
<svg version="1.1" id="Layer_1" xmlns="http://www.w3.org/2000/svg" xmlns:xlink="http://www.w3.org/1999/xlink" x="0px" y="0px"
	 viewBox="0 0 40 40" style="enable-background:new 0 0 40 40;" xml:space="preserve">
<style type="text/css">
	.st0{fill:#231F20;}
</style>
<path class="st0" d="M34.8,0H5.2C2.333,0,0,2.333,0,5.2v29.6C0,37.667,2.333,40,5.2,40h17.191v-1.702H5.2
	c-1.929,0-3.498-1.569-3.498-3.498V5.2c0-1.929,1.569-3.498,3.498-3.498h29.6c1.929,0,3.498,1.569,3.498,3.498v11.609H40V5.2
	C40,2.333,37.667,0,34.8,0z M31.174,16.459c-4.39,0-8.834,1.266-8.834,3.685v16.17c0,2.409,4.444,3.669,8.834,3.669
	c4.386,0,8.826-1.266,8.826-3.685v-16.17C40,17.608,35.425,16.459,31.174,16.459z M31.174,18.162c4.128,0,6.499,1.063,7.015,1.72
	c-0.516,0.663-2.886,1.735-7.015,1.735c-4.118,0-6.49-1.065-7.018-1.728C24.684,19.226,27.057,18.162,31.174,18.162z M38.298,36.298
	c0,0.593-2.424,1.983-7.124,1.983c-4.706,0-7.132-1.378-7.132-1.966v-14.43c1.692,0.943,4.415,1.435,7.132,1.435
	c2.716,0,5.433-0.493,7.124-1.438V36.298z M26.677,26.312v8.845h1.686v-6.128L30.315,33h1.71l1.953-3.97v6.128h1.685v-8.846h-2.055
	l-2.426,5.029l-2.413-5.029H26.677z M13.735,14.427c-0.144,0.122-0.347,0.183-0.609,0.183c-0.156,0-0.334-0.009-0.534-0.028v0.927
	c0.293,0.1,0.596,0.15,0.908,0.15c0.399,0,0.731-0.11,0.992-0.328c0.262-0.219,0.484-0.574,0.665-1.067l2.022-5.43h-1.414
	l-1.01,3.575l-1.067-3.576h-1.451l1.891,4.859L14.1,13.795C14,14.094,13.879,14.305,13.735,14.427z M11.313,13.617V7.129H9.807
	l-1.779,3.689L6.259,7.129H4.723v6.488h1.236V9.123l1.432,2.911h1.254l1.432-2.911v4.494H11.313z M19.987,12.654
	c-0.288,0-0.608-0.028-0.964-0.085c-0.356-0.056-0.69-0.13-1.001-0.224v1.067c0.249,0.112,0.549,0.201,0.898,0.267
	c0.349,0.066,0.699,0.098,1.048,0.098c0.805,0,1.439-0.185,1.901-0.557c0.462-0.371,0.693-0.878,0.693-1.521
	c0-0.455-0.124-0.825-0.37-1.11c-0.247-0.285-0.66-0.532-1.241-0.744l-0.692-0.253c-0.35-0.125-0.588-0.243-0.716-0.356
	c-0.128-0.112-0.192-0.255-0.192-0.431c0-0.474,0.368-0.711,1.105-0.711c0.518,0,1.08,0.094,1.686,0.281V7.307
	c-0.587-0.224-1.186-0.337-1.798-0.337c-0.731,0-1.312,0.175-1.746,0.524c-0.434,0.35-0.651,0.818-0.651,1.405
	c0,0.455,0.122,0.832,0.365,1.128c0.244,0.297,0.642,0.548,1.198,0.754l0.711,0.262c0.368,0.138,0.613,0.263,0.735,0.375
	c0.122,0.112,0.182,0.265,0.182,0.459c0,0.249-0.1,0.441-0.299,0.576C20.64,12.587,20.355,12.654,19.987,12.654z M31.367,7.129
	v6.488h4.25v-1.124h-2.846V7.129H31.367z M29.413,12.456c0.352-0.562,0.529-1.257,0.529-2.088c0-0.711-0.13-1.321-0.388-1.83
	c-0.259-0.509-0.626-0.897-1.1-1.165s-1.033-0.402-1.676-0.402c-0.662,0-1.231,0.139-1.709,0.416
	c-0.477,0.278-0.839,0.672-1.085,1.184c-0.247,0.512-0.37,1.11-0.37,1.797c0,1.036,0.27,1.856,0.81,2.458
	c0.54,0.603,1.284,0.916,2.233,0.941c0.436,0.406,0.931,0.738,1.484,0.997c0.553,0.258,1.11,0.42,1.671,0.482v-1.142
	c-0.406-0.032-0.759-0.086-1.058-0.164c-0.3-0.078-0.581-0.189-0.843-0.332C28.56,13.402,29.061,13.018,29.413,12.456z
	 M28.06,12.054c-0.293,0.387-0.721,0.58-1.282,0.58c-0.562,0-0.989-0.193-1.282-0.58c-0.293-0.387-0.44-0.948-0.44-1.686
	c0-0.736,0.147-1.297,0.44-1.68c0.293-0.384,0.721-0.576,1.282-0.576c0.562,0,0.989,0.192,1.282,0.576
	c0.293,0.383,0.44,0.943,0.44,1.68C28.501,11.105,28.353,11.666,28.06,12.054z"/>
</svg>
