<?xml version="1.0" encoding="utf-8"?>
<!-- Generator: Adobe Illustrator 23.0.1, SVG Export Plug-In . SVG Version: 6.00 Build 0)  -->
<svg version="1.1" id="Layer_1" xmlns="http://www.w3.org/2000/svg" xmlns:xlink="http://www.w3.org/1999/xlink" x="0px" y="0px"
	 viewBox="0 0 40 40" style="enable-background:new 0 0 40 40;" xml:space="preserve">
<style type="text/css">
	.st0{fill:#231F20;}
</style>
<path class="st0" d="M16.43,27.969h-2.749v7.188h1.514v-2.624h1.234c0.747,0,1.338-0.204,1.774-0.613
	c0.436-0.408,0.654-0.964,0.654-1.67s-0.218-1.262-0.654-1.67C17.768,28.173,17.176,27.969,16.43,27.969z M17.047,31.086
	c-0.183,0.19-0.448,0.285-0.793,0.285h-1.058V29.13h1.058c0.346,0,0.61,0.096,0.793,0.285c0.183,0.19,0.275,0.469,0.275,0.835
	C17.322,30.618,17.23,30.896,17.047,31.086z M20.068,35.157h1.556v-7.188h-1.556V35.157z M34.373,27.969h-2.749v7.188h1.514v-2.624
	h1.235c0.746,0,1.338-0.204,1.774-0.613c0.436-0.408,0.653-0.964,0.653-1.67s-0.218-1.262-0.653-1.67
	C35.711,28.173,35.12,27.969,34.373,27.969z M34.99,31.086c-0.183,0.19-0.448,0.285-0.794,0.285h-1.058V29.13h1.058
	c0.346,0,0.611,0.096,0.794,0.285c0.184,0.19,0.275,0.469,0.275,0.835C35.265,30.618,35.174,30.896,34.99,31.086z M28.498,28.239
	c-0.526-0.298-1.144-0.446-1.857-0.446c-0.733,0-1.364,0.154-1.893,0.462s-0.93,0.745-1.203,1.312
	c-0.273,0.568-0.41,1.231-0.41,1.991c0,0.789,0.143,1.466,0.43,2.034c0.288,0.567,0.693,0.999,1.219,1.297
	c0.525,0.297,1.144,0.445,1.857,0.445c0.733,0,1.364-0.155,1.892-0.466c0.529-0.312,0.93-0.75,1.203-1.317
	c0.273-0.568,0.41-1.231,0.41-1.992c0-0.788-0.143-1.464-0.431-2.027C29.43,28.967,29.023,28.536,28.498,28.239z M28.063,33.425
	c-0.326,0.429-0.799,0.643-1.421,0.643s-1.096-0.214-1.421-0.643c-0.325-0.429-0.488-1.051-0.488-1.868
	c0-0.815,0.163-1.436,0.488-1.862c0.325-0.425,0.799-0.637,1.421-0.637s1.095,0.213,1.421,0.637
	c0.325,0.426,0.487,1.046,0.487,1.862C28.55,32.374,28.388,32.996,28.063,33.425z M34.51,0H5.49C2.463,0,0,2.463,0,5.49v29.02
	C0,37.537,2.463,40,5.49,40h29.02c3.027,0,5.49-2.463,5.49-5.49V5.49C40,2.463,37.537,0,34.51,0z M38.298,34.51
	c0,2.089-1.699,3.787-3.787,3.787H5.49c-2.088,0-3.787-1.699-3.787-3.787V5.49c0-2.088,1.699-3.787,3.787-3.787h29.02
	c2.089,0,3.787,1.699,3.787,3.787v29.02H38.298z"/>
</svg>
