<?xml version="1.0" encoding="utf-8"?>
<!-- Generator: Adobe Illustrator 23.0.1, SVG Export Plug-In . SVG Version: 6.00 Build 0)  -->
<svg version="1.1" id="Layer_1" xmlns="http://www.w3.org/2000/svg" xmlns:xlink="http://www.w3.org/1999/xlink" x="0px" y="0px"
	 viewBox="0 0 40 40" style="enable-background:new 0 0 40 40;" xml:space="preserve">
<style type="text/css">
	.st0{fill:#231F20;}
</style>
<path class="st0" d="M8.422,2.105V0H0.001v8.421h2.105V3.593l5.046,5.046L8.64,7.151L3.594,2.105H8.422z M31.579,0v2.105h4.827
	l-5.046,5.046l1.488,1.488l5.046-5.046v4.827H40V0H31.579z M7.151,31.361l-5.046,5.046v-4.827H0V40h8.421v-2.105H3.593l5.046-5.046
	L7.151,31.361z M37.895,36.407l-5.046-5.046l-1.488,1.488l5.046,5.046h-4.827V40H40v-8.421h-2.105V36.407z M6.759,15.203
	c0.526-0.249,1.086-0.475,1.662-0.69v-2.23C3.33,14.001,0,16.813,0,19.999c0,3.186,3.33,5.998,8.421,7.715v-2.23
	c-0.576-0.215-1.137-0.441-1.662-0.69c-2.914-1.381-4.654-3.174-4.654-4.797C2.105,18.377,3.846,16.584,6.759,15.203z
	 M31.579,12.285v2.23c0.576,0.215,1.137,0.441,1.662,0.69c2.914,1.381,4.654,3.174,4.654,4.797c0,1.623-1.739,3.416-4.654,4.797
	c-0.526,0.249-1.086,0.475-1.662,0.69v2.23C36.67,26,40,23.189,40,20.002C40,16.814,36.67,14.002,31.579,12.285z M20,9.474
	c-4.65,0-8.421,1.414-8.421,3.158v14.737c0,1.744,3.77,3.158,8.421,3.158s8.421-1.414,8.421-3.158V12.632
	C28.422,10.888,24.651,9.474,20,9.474z M27.369,27.369c0,0.611-2.582,2.105-7.368,2.105c-4.786,0-7.368-1.494-7.368-2.105v-2.683
	c1.435,0.971,4.195,1.631,7.368,1.631s5.933-0.658,7.368-1.631V27.369z M27.369,23.158c0,0.611-2.582,2.105-7.368,2.105
	c-4.786,0-7.368-1.494-7.368-2.105v-3.736c1.435,0.971,4.195,1.631,7.368,1.631s5.933-0.658,7.368-1.631V23.158z M27.369,17.895
	c0,0.611-2.582,2.105-7.368,2.105c-4.786,0-7.368-1.494-7.368-2.105v-3.736c1.435,0.971,4.195,1.631,7.368,1.631
	s5.933-0.658,7.368-1.631V17.895z M20,14.737c-4.786,0-7.368-1.494-7.368-2.105c0-0.611,2.582-2.105,7.368-2.105
	c4.786,0,7.368,1.494,7.368,2.105C27.368,13.243,24.786,14.737,20,14.737z"/>
</svg>
