<?xml version="1.0" encoding="utf-8"?>
<!-- Generator: Adobe Illustrator 23.0.1, SVG Export Plug-In . SVG Version: 6.00 Build 0)  -->
<svg version="1.1" id="Layer_1" xmlns="http://www.w3.org/2000/svg" xmlns:xlink="http://www.w3.org/1999/xlink" x="0px" y="0px"
	 viewBox="0 0 40 40" style="enable-background:new 0 0 40 40;" xml:space="preserve">
<style type="text/css">
	.st0{fill:#231F20;}
</style>
<g>
	<path class="st0" d="M20,0C13.789,0,8.754,2.222,8.754,4.962l0,0v23.325l0,0c0,2.741,5.035,4.962,11.246,4.962
		c6.211,0,11.246-2.222,11.246-4.962V4.962C31.246,2.222,26.21,0,20,0z M29.491,28.287c0,1.131-3.603,3.208-9.491,3.208
		s-9.491-2.078-9.491-3.208v-1.143v-3.039c1.994,1.386,5.495,2.309,9.491,2.309s7.497-0.922,9.491-2.309V28.287z M29.491,21.451
		c0,1.131-3.603,3.208-9.491,3.208s-9.491-2.078-9.491-3.208l0,0v-5.591c1.994,1.386,5.495,2.309,9.491,2.309
		s7.497-0.922,9.491-2.309V21.451z M29.491,13.207c0,1.131-3.603,3.208-9.491,3.208s-9.491-2.078-9.491-3.208l0,0V7.616
		C12.503,9.002,16.003,9.925,20,9.925s7.497-0.922,9.491-2.309V13.207z M20,8.171c-5.888,0-9.491-2.078-9.491-3.208
		c0-1.131,3.603-3.208,9.491-3.208s9.491,2.078,9.491,3.208S25.888,8.171,20,8.171z M9.637,38.645h2.062v-4.787H9.637V38.645z
		 M28.254,38.645h2.062v-4.787h-2.062V38.645z M15.842,40h2.062v-4.786h-2.062V40z M22.048,40h2.062v-4.786h-2.062V40z"/>
</g>
</svg>
