<?xml version="1.0" encoding="utf-8"?>
<!-- Generator: Adobe Illustrator 23.0.1, SVG Export Plug-In . SVG Version: 6.00 Build 0)  -->
<svg version="1.1" id="Layer_1" xmlns="http://www.w3.org/2000/svg" xmlns:xlink="http://www.w3.org/1999/xlink" x="0px" y="0px"
	 viewBox="0 0 40 40" style="enable-background:new 0 0 40 40;" xml:space="preserve">
<style type="text/css">
	.st0{fill:#231F20;}
</style>
<path class="st0" d="M0,8.885h8.885V0H0V8.885z M1.702,1.702h5.481v5.481H1.702V1.702z M0,19.259h8.885v-8.885H0V19.259z
	 M1.702,12.077h5.481v5.481H1.702V12.077z M0,29.634h8.885v-8.885H0V29.634z M1.702,22.451h5.481v5.481H1.702V22.451z M0,40h8.885
	v-8.885H0V40z M1.702,32.817h5.481v5.481H1.702V32.817z M10.374,0v8.885H40V0H10.374z M38.298,7.183H12.077V1.702h26.221V7.183z
	 M10.374,19.259H40v-8.885H10.374V19.259z M12.077,12.077h26.221v5.481H12.077V12.077z M10.374,29.634H40v-8.885H10.374V29.634z
	 M12.077,22.451h26.221v5.481H12.077V22.451z M10.374,40H40v-8.885H10.374V40z M12.077,32.817h26.221v5.481H12.077V32.817z"/>
</svg>
