<?xml version="1.0" encoding="utf-8"?>
<!-- Generator: Adobe Illustrator 23.0.1, SVG Export Plug-In . SVG Version: 6.00 Build 0)  -->
<svg version="1.1" id="Layer_1" xmlns="http://www.w3.org/2000/svg" xmlns:xlink="http://www.w3.org/1999/xlink" x="0px" y="0px"
	 viewBox="0 0 40 40" style="enable-background:new 0 0 40 40;" xml:space="preserve">
<style type="text/css">
	.st0{fill:#231F20;}
</style>
<path class="st0" d="M34.51,0H5.49C2.463,0,0,2.463,0,5.49v29.02C0,37.537,2.463,40,5.49,40h29.02c3.027,0,5.49-2.463,5.49-5.49
	V5.49C40,2.463,37.537,0,34.51,0z M34.511,38.297H5.49c-2.088,0-3.787-1.699-3.787-3.787V5.49c0-2.088,1.699-3.787,3.787-3.787
	h29.02c2.089,0,3.787,1.699,3.787,3.787v29.02h0.001C38.298,36.599,36.599,38.297,34.511,38.297z M23.783,11.248
	c-0.312-0.34-0.468-0.859-0.468-1.558V9.475c0.001-0.705,0.162-1.23,0.483-1.573c0.321-0.342,0.806-0.514,1.455-0.514
	c0.362,0,0.827,0.062,1.395,0.187V6.47c-0.494-0.175-1.015-0.262-1.564-0.262c-1.03,0-1.828,0.296-2.396,0.889
	c-0.568,0.593-0.852,1.429-0.852,2.508c0,1.093,0.271,1.922,0.814,2.486c0.543,0.565,1.341,0.847,2.396,0.847
	c0.624,0,1.189-0.096,1.695-0.29v-1.105c-0.655,0.144-1.164,0.215-1.526,0.215C24.573,11.758,24.095,11.588,23.783,11.248z
	 M29.072,6.329h-1.404v6.488h4.25v-1.124h-2.846V6.329z M17.951,6.329l-2.284,6.488h1.47l0.44-1.479h2.218l0.459,1.479h1.526
	l-2.284-6.488H17.951z M17.877,10.327l0.805-2.715l0.824,2.715H17.877z M7.958,6.573C7.484,6.304,6.925,6.171,6.282,6.171
	c-0.662,0-1.231,0.139-1.708,0.416C4.097,6.864,3.735,7.259,3.488,7.771c-0.247,0.512-0.37,1.11-0.37,1.797
	c0,0.711,0.129,1.323,0.389,1.835c0.259,0.512,0.625,0.902,1.1,1.17c0.474,0.268,1.033,0.402,1.676,0.402
	c0.662,0,1.231-0.14,1.709-0.421c0.477-0.281,0.839-0.677,1.086-1.189c0.246-0.512,0.37-1.11,0.37-1.798
	c0-0.711-0.13-1.321-0.389-1.83C8.799,7.229,8.433,6.841,7.958,6.573z M7.565,11.254c-0.293,0.387-0.721,0.58-1.282,0.58
	c-0.561,0-0.99-0.193-1.283-0.58c-0.293-0.387-0.44-0.948-0.44-1.686c0-0.736,0.147-1.297,0.44-1.68
	c0.293-0.384,0.721-0.576,1.282-0.576c0.561,0,0.989,0.192,1.282,0.576c0.293,0.383,0.44,0.943,0.44,1.68
	C8.005,10.305,7.858,10.866,7.565,11.254z M32.613,12.817h4.269v-1.086h-2.865v-1.694h2.33V8.951h-2.33V7.416h2.865V6.329h-4.269
	V12.817z M14.577,9.326c0.206-0.3,0.309-0.637,0.309-1.011c0-0.612-0.197-1.095-0.59-1.451c-0.394-0.356-0.927-0.534-1.601-0.534
	h-2.5v6.488h1.348V10.3h0.918l1.404,2.518h1.451l-1.61-2.79C14.08,9.859,14.371,9.625,14.577,9.326z M12.517,9.326h-0.974V7.359
	h0.992c0.643,0,0.965,0.325,0.965,0.974C13.5,8.995,13.172,9.326,12.517,9.326z"/>
</svg>
