<?xml version="1.0" encoding="utf-8"?>
<!-- Generator: Adobe Illustrator 23.0.1, SVG Export Plug-In . SVG Version: 6.00 Build 0)  -->
<svg version="1.1" id="Layer_1" xmlns="http://www.w3.org/2000/svg" xmlns:xlink="http://www.w3.org/1999/xlink" x="0px" y="0px"
	 viewBox="0 0 40 40" style="enable-background:new 0 0 40 40;" xml:space="preserve">
<style type="text/css">
	.st0{fill:#231F20;}
</style>
<path class="st0" d="M20.306,33.281L20.306,33.281c0,0.744-3.124,2.896-9.085,2.896s-9.085-2.152-9.085-2.896l0,0V29
	c2.039,1.263,5.344,2.087,9.085,2.087c3.389,0,6.408-0.68,8.464-1.745c-1.091-0.43-2.276-0.673-3.517-0.673H15.1v-0.057
	c-1.119,0.208-2.412,0.338-3.878,0.338c-5.961,0-9.085-2.152-9.085-2.896l0,0v-5.139c2.039,1.263,5.344,2.087,9.085,2.087
	c3.742,0,7.046-0.824,9.085-2.087v2.269c0.775-0.37,1.494-0.837,2.137-1.39v-3.825l0,0v-8.24h-0.026
	c-0.277-2.67-5.176-4.798-11.196-4.798c-6.021,0-10.919,2.128-11.196,4.798H0v8.24l0,0v8.086l0,0v7.227l0,0
	c0,2.781,5.024,5.035,11.224,5.035c6.198,0,11.224-2.254,11.224-5.035l0,0v-2.276c-0.645-0.554-1.363-1.021-2.137-1.39v3.664
	L20.306,33.281L20.306,33.281z M11.221,7.067c5.961,0,9.085,2.152,9.085,2.896c0,0.744-3.124,2.896-9.085,2.896
	s-9.085-2.152-9.085-2.896C2.136,9.219,5.26,7.067,11.221,7.067z M2.136,17.968V12.91c2.039,1.263,5.344,2.087,9.085,2.087
	c3.742,0,7.046-0.824,9.085-2.087v5.057l0,0c0,0.744-3.124,2.896-9.085,2.896S2.136,18.712,2.136,17.968L2.136,17.968z M31.79,14.96
	h0.67c0-1.647,1.34-2.986,2.986-2.986v-0.67c-1.647,0-2.986-1.34-2.986-2.986h-0.67c0,1.647-1.34,2.986-2.986,2.986v0.67
	C30.45,11.973,31.79,13.313,31.79,14.96z M23.846,7.259h0.562c0-1.382,1.125-2.506,2.506-2.506V4.19
	c-1.382,0-2.506-1.125-2.506-2.506h-0.562c0,1.382-1.125,2.506-2.506,2.506v0.562C22.722,4.751,23.846,5.876,23.846,7.259z
	 M29.285,14.483h-2.401c0,5.909-4.807,10.715-10.715,10.715v2.401c5.909,0,10.715,4.807,10.715,10.715h2.401
	c0-5.909,4.807-10.715,10.715-10.715v-2.401C34.092,25.198,29.285,20.392,29.285,14.483z M28.084,32.866
	c-1.311-2.854-3.612-5.156-6.467-6.467c2.854-1.311,5.156-3.612,6.467-6.467c1.311,2.854,3.612,5.156,6.467,6.467
	C31.697,27.71,29.395,30.012,28.084,32.866z"/>
</svg>
