<?xml version="1.0" encoding="utf-8"?>
<!-- Generator: Adobe Illustrator 23.0.1, SVG Export Plug-In . SVG Version: 6.00 Build 0)  -->
<svg version="1.1" id="Layer_1" xmlns="http://www.w3.org/2000/svg" xmlns:xlink="http://www.w3.org/1999/xlink" x="0px" y="0px"
	 viewBox="0 0 40 40" style="enable-background:new 0 0 40 40;" xml:space="preserve">
<style type="text/css">
	.st0{fill:#231F20;}
</style>
<path class="st0" d="M20.745,0v19.255H40V0H20.745z M38.298,17.554H22.446V1.702h15.852V17.554z M20.745,40H40V20.745H20.745V40z
	 M22.446,22.446h15.852v15.852H22.446V22.446z M0.008,19.255h19.255V0H0.008V19.255z M1.71,1.702h15.852v15.852H1.71V1.702z
	 M0,39.992h19.255V20.736H0V39.992z M1.702,22.438h15.852V38.29H1.702V22.438z M30.377,16.056c3.546,0,6.432-2.886,6.432-6.433
	S33.923,3.19,30.377,3.19c-3.547,0-6.433,2.886-6.433,6.433S26.83,16.056,30.377,16.056z M30.377,4.893
	c2.608,0,4.731,2.122,4.731,4.731s-2.122,4.731-4.731,4.731s-4.731-2.122-4.731-4.731S27.768,4.893,30.377,4.893z"/>
</svg>
