<?xml version="1.0" encoding="utf-8"?>
<!-- Generator: Adobe Illustrator 23.0.1, SVG Export Plug-In . SVG Version: 6.00 Build 0)  -->
<svg version="1.1" id="Layer_1" xmlns="http://www.w3.org/2000/svg" xmlns:xlink="http://www.w3.org/1999/xlink" x="0px" y="0px"
	 viewBox="0 0 40 40" style="enable-background:new 0 0 40 40;" xml:space="preserve">
<g>
	<path d="M33.685,5.263C33.685,2.357,27.558,0,20,0S6.315,2.357,6.315,5.263V5.79v28.947C6.315,37.643,12.442,40,20,40
		s13.685-2.357,13.685-5.263V6.317V5.263z M31.579,34.736c-0.142,0.918-4.371,3.158-11.579,3.158S8.562,35.646,8.42,34.736V8.057
		c2.422,1.48,6.696,2.467,11.579,2.467s9.158-0.986,11.579-2.467V34.736z M20,8.421c-7.209,0-11.44-2.245-11.579-3.153
		C8.56,4.35,12.79,2.105,20,2.105S31.44,4.35,31.579,5.258C31.44,6.176,27.209,8.421,20,8.421z"/>
	<path d="M18.947,22.104c0-1.744-1.414-3.158-3.158-3.158s-3.158,1.414-3.158,3.158c0,0.96,0.437,1.808,1.112,2.387l-0.921,1.842
		c-0.064-0.003-0.126-0.019-0.191-0.019c-1.744,0-3.158,1.414-3.158,3.158c0,1.744,1.414,3.158,3.158,3.158s3.158-1.414,3.158-3.158
		c0-1.301-0.786-2.415-1.91-2.899l0.767-1.533c0.355,0.138,0.738,0.222,1.143,0.222c1.327,0,2.458-0.819,2.926-1.979l2.503,0.834
		c0.408,1.271,1.586,2.198,2.993,2.198c1.744,0,3.158-1.414,3.158-3.158c0-0.957-0.434-1.805-1.107-2.383l0.965-2.894
		c0.048,0.002,0.094,0.015,0.143,0.015c1.744,0,3.158-1.414,3.158-3.158s-1.414-3.158-3.158-3.158c-1.744,0-3.158,1.414-3.158,3.158
		c0,1.327,0.821,2.457,1.979,2.926l-0.851,2.554C24.989,20.082,24.61,20,24.211,20c-1.677,0-3.034,1.311-3.138,2.961l-2.139-0.713
		C18.935,22.199,18.947,22.153,18.947,22.104z M14.737,29.473c0,1.161-0.944,2.105-2.105,2.105s-2.105-0.944-2.105-2.105
		c0-1.161,0.944-2.105,2.105-2.105C13.793,27.368,14.737,28.312,14.737,29.473z M15.79,24.21c-1.161,0-2.105-0.944-2.105-2.105
		c0-1.161,0.944-2.105,2.105-2.105s2.105,0.944,2.105,2.105C17.895,23.265,16.951,24.21,15.79,24.21z M25.263,14.736
		c0-1.161,0.944-2.105,2.105-2.105s2.105,0.944,2.105,2.105c0,1.161-0.944,2.105-2.105,2.105
		C26.208,16.841,25.263,15.897,25.263,14.736z M24.21,21.051c1.161,0,2.105,0.944,2.105,2.105c0,1.161-0.944,2.105-2.105,2.105
		c-1.161,0-2.105-0.944-2.105-2.105C22.105,21.997,23.05,21.051,24.21,21.051z"/>
</g>
</svg>
