<?xml version="1.0" encoding="utf-8"?>
<!-- Generator: Adobe Illustrator 23.0.1, SVG Export Plug-In . SVG Version: 6.00 Build 0)  -->
<svg version="1.1" id="Layer_1" xmlns="http://www.w3.org/2000/svg" xmlns:xlink="http://www.w3.org/1999/xlink" x="0px" y="0px"
	 viewBox="0 0 40 40" style="enable-background:new 0 0 40 40;" xml:space="preserve">
<style type="text/css">
	.st0{fill:#231F20;}
</style>
<g>
	<path class="st0" d="M37.829,30.042c-1.188,0-2.15,0.962-2.15,2.15c0,0.149,0.015,0.294,0.045,0.434L33.002,34.4
		c-0.417-0.386-0.93-0.667-1.506-0.792l-0.111-3.424c1.914-0.422,3.348-2.123,3.348-4.164c0-1.26-0.556-2.381-1.423-3.161
		l2.103-3.454c0.274,0.081,0.559,0.137,0.86,0.137c1.689,0,3.06-1.369,3.06-3.06c0-1.689-1.369-3.06-3.06-3.06
		c-1.689,0-3.06,1.369-3.06,3.06c0,0.821,0.327,1.561,0.853,2.111l-2.097,3.444c-0.47-0.177-0.973-0.287-1.505-0.287
		c-0.866,0-1.67,0.262-2.342,0.705l-1.831-1.901c0.151-0.306,0.243-0.647,0.243-1.013c0-1.276-1.034-2.31-2.31-2.31
		c-1.276,0-2.31,1.034-2.31,2.31c0,1.276,1.034,2.31,2.31,2.31c0.335,0,0.652-0.074,0.94-0.203l1.831,1.901
		c-0.498,0.698-0.798,1.548-0.798,2.47c0,0.064,0.016,0.122,0.018,0.186l-2.364,0.552c-0.522-0.986-1.548-1.666-2.742-1.666
		c-1.72,0-3.115,1.394-3.115,3.115c0,1.72,1.394,3.115,3.115,3.115c1.692,0,3.062-1.351,3.107-3.032l2.347-0.549
		c0.577,1.309,1.793,2.26,3.253,2.485l0.112,3.447c-1.352,0.387-2.348,1.618-2.348,3.095c0,1.786,1.448,3.233,3.235,3.233
		s3.233-1.448,3.233-3.233c0-0.369-0.074-0.718-0.189-1.047l2.728-1.779c0.352,0.25,0.778,0.401,1.244,0.401
		c1.188,0,2.15-0.962,2.15-2.15S39.016,30.042,37.829,30.042z M36.272,15.521c0.532,0,0.964,0.432,0.964,0.964
		c0,0.532-0.432,0.964-0.964,0.964c-0.532,0-0.964-0.432-0.964-0.964C35.308,15.953,35.741,15.521,36.272,15.521z M24.221,20.281
		c-0.407,0-0.738-0.331-0.738-0.738s0.331-0.738,0.738-0.738c0.407,0,0.738,0.331,0.738,0.738
		C24.96,19.95,24.628,20.281,24.221,20.281z M21.107,29.225c-0.561,0-1.018-0.457-1.018-1.018c0-0.561,0.457-1.018,1.018-1.018
		s1.018,0.457,1.018,1.018C22.125,28.768,21.669,29.225,21.107,29.225z M28.289,26.021c0-1.198,0.975-2.173,2.174-2.173
		c1.198,0,2.173,0.975,2.173,2.173c0,1.198-0.975,2.173-2.173,2.173C29.264,28.195,28.289,27.22,28.289,26.021z M30.812,37.906
		c-0.628,0-1.138-0.511-1.138-1.137c0-0.626,0.511-1.138,1.138-1.138c0.628,0,1.137,0.511,1.137,1.138
		C31.949,37.396,31.439,37.906,30.812,37.906z M37.829,32.771c-0.319,0-0.578-0.259-0.578-0.578c0-0.319,0.259-0.578,0.578-0.578
		c0.319,0,0.578,0.259,0.578,0.578C38.407,32.511,38.148,32.771,37.829,32.771z M24.8,32.564v1.236
		c0,1.352-4.307,3.834-11.342,3.834S2.116,35.15,2.116,33.799v-4.997c2.383,1.656,6.566,2.759,11.342,2.759
		c1.277,0,2.505-0.085,3.674-0.231v-2.105c-1.121,0.152-2.349,0.24-3.674,0.24c-7.036,0-11.342-2.483-11.342-3.834v-6.68
		c2.383,1.656,6.566,2.759,11.342,2.759c2.628,0,5.061-0.343,7.129-0.919v-2.174c-1.854,0.581-4.26,0.997-7.129,0.997
		c-7.036,0-11.342-2.483-11.342-3.834v-6.68c2.383,1.656,6.566,2.759,11.342,2.759s8.959-1.103,11.342-2.759v6.68l0,0
		c0,0.094-0.025,0.194-0.066,0.298h2.163V5.93l0,0C26.896,2.655,20.88,0,13.458,0C6.037,0,0.02,2.655,0.02,5.93V33.8
		c0,3.275,6.017,5.93,13.438,5.93c7.421,0,13.438-2.655,13.438-5.93l0,0v-3.218H24.8L24.8,32.564L24.8,32.564z M13.457,2.094
		c7.036,0,11.342,2.483,11.342,3.834c0,1.352-4.306,3.834-11.342,3.834S2.115,7.279,2.115,5.927
		C2.115,4.577,6.422,2.094,13.457,2.094z"/>
</g>
</svg>
