<?xml version="1.0" encoding="utf-8"?>
<!-- Generator: Adobe Illustrator 23.0.1, SVG Export Plug-In . SVG Version: 6.00 Build 0)  -->
<svg version="1.1" id="Layer_1" xmlns="http://www.w3.org/2000/svg" xmlns:xlink="http://www.w3.org/1999/xlink" x="0px" y="0px"
	 viewBox="0 0 40 40" style="enable-background:new 0 0 40 40;" xml:space="preserve">
<style type="text/css">
	.st0{fill:#231F20;}
</style>
<path class="st0" d="M0,12.478h19.255V0.404H0V12.478z M1.702,2.106h15.852v8.67H1.702V2.106z M0,26.041h19.255V13.967H0V26.041z
	 M1.702,15.669h15.852v8.67H1.702V15.669z M0,39.596h19.255V27.522H0V39.596z M1.702,29.223h15.852v8.671H1.702V29.223z
	 M20.745,0.404v12.074H40V0.404H20.745z M38.298,10.776H22.446v-8.67h15.852V10.776z M20.745,26.041H40V13.967H20.745V26.041z
	 M22.446,15.669h15.852v8.67H22.446V15.669z M20.745,39.596H40V27.522H20.745V39.596z M22.446,29.223h15.852v8.671H22.446V29.223z
	 M9.624,2.795c-2.008,0-3.642,1.634-3.642,3.642s1.634,3.642,3.642,3.642s3.642-1.634,3.642-3.642
	C13.265,4.428,11.632,2.795,9.624,2.795z M9.624,8.377c-1.07,0-1.94-0.87-1.94-1.94s0.87-1.94,1.94-1.94s1.94,0.87,1.94,1.94
	S10.693,8.377,9.624,8.377z M9.624,16.358c-2.008,0-3.642,1.634-3.642,3.642s1.634,3.642,3.642,3.642s3.642-1.634,3.642-3.642
	C13.265,17.992,11.632,16.358,9.624,16.358z M9.624,21.94c-1.07,0-1.94-0.87-1.94-1.94c0-1.069,0.87-1.94,1.94-1.94
	s1.94,0.87,1.94,1.94C11.563,21.07,10.693,21.94,9.624,21.94z M9.624,29.921c-2.008,0-3.642,1.634-3.642,3.642
	s1.634,3.641,3.642,3.641s3.642-1.634,3.642-3.641C13.265,31.555,11.632,29.921,9.624,29.921z M9.624,35.503
	c-1.07,0-1.94-0.87-1.94-1.939c0-1.07,0.87-1.94,1.94-1.94s1.94,0.87,1.94,1.94C11.563,34.633,10.693,35.503,9.624,35.503z"/>
</svg>
