<?xml version="1.0" encoding="utf-8"?>
<!-- Generator: Adobe Illustrator 23.0.1, SVG Export Plug-In . SVG Version: 6.00 Build 0)  -->
<svg version="1.1" id="Layer_1" xmlns="http://www.w3.org/2000/svg" xmlns:xlink="http://www.w3.org/1999/xlink" x="0px" y="0px"
	 viewBox="0 0 40 40" style="enable-background:new 0 0 40 40;" xml:space="preserve">
<style type="text/css">
	.st0{fill:#231F20;}
</style>
<path class="st0" d="M14.755,12.409l-1.067-3.576h-1.451l1.891,4.859L14.1,13.795c-0.1,0.299-0.221,0.51-0.365,0.632
	s-0.347,0.183-0.609,0.183c-0.156,0-0.334-0.009-0.534-0.028v0.927c0.293,0.1,0.596,0.15,0.908,0.15c0.399,0,0.731-0.11,0.992-0.328
	c0.262-0.219,0.484-0.574,0.665-1.067l2.022-5.43h-1.414L14.755,12.409z M8.028,10.818L6.259,7.129H4.723v6.488h1.236V9.123
	l1.432,2.911h1.254l1.432-2.911v4.494h1.236V7.129H9.807L8.028,10.818z M20.951,9.845l-0.692-0.253
	c-0.35-0.125-0.588-0.243-0.716-0.356c-0.128-0.112-0.192-0.255-0.192-0.431c0-0.474,0.368-0.711,1.105-0.711
	c0.518,0,1.08,0.094,1.686,0.281V7.307c-0.587-0.224-1.186-0.337-1.798-0.337c-0.731,0-1.312,0.175-1.746,0.524
	c-0.434,0.35-0.651,0.818-0.651,1.405c0,0.455,0.122,0.832,0.365,1.128c0.244,0.297,0.642,0.548,1.198,0.754l0.711,0.262
	c0.368,0.138,0.613,0.263,0.735,0.375s0.182,0.265,0.182,0.459c0,0.249-0.1,0.441-0.299,0.576c-0.199,0.134-0.484,0.201-0.852,0.201
	c-0.288,0-0.608-0.028-0.964-0.085c-0.356-0.056-0.69-0.13-1.001-0.224v1.067c0.249,0.112,0.549,0.201,0.898,0.267
	s0.699,0.098,1.048,0.098c0.805,0,1.439-0.185,1.901-0.557c0.462-0.371,0.693-0.878,0.693-1.521c0-0.455-0.124-0.825-0.37-1.11
	C21.945,10.304,21.532,10.057,20.951,9.845z M32.772,7.129h-1.405v6.488h4.25v-1.124h-2.846V7.129H32.772z M29.413,12.456
	c0.352-0.562,0.529-1.257,0.529-2.088c0-0.711-0.13-1.321-0.388-1.83c-0.259-0.509-0.626-0.897-1.1-1.165s-1.033-0.402-1.676-0.402
	c-0.662,0-1.231,0.139-1.709,0.416c-0.477,0.278-0.839,0.672-1.085,1.184c-0.247,0.512-0.37,1.11-0.37,1.797
	c0,1.036,0.27,1.856,0.81,2.458c0.54,0.603,1.284,0.916,2.233,0.941c0.436,0.406,0.931,0.738,1.484,0.997
	c0.553,0.258,1.11,0.42,1.671,0.482v-1.142c-0.406-0.032-0.759-0.086-1.058-0.164c-0.3-0.078-0.581-0.189-0.843-0.332
	C28.56,13.402,29.061,13.018,29.413,12.456z M28.06,12.054c-0.293,0.387-0.721,0.58-1.282,0.58c-0.562,0-0.989-0.193-1.282-0.58
	s-0.44-0.948-0.44-1.686c0-0.736,0.147-1.297,0.44-1.68c0.293-0.384,0.721-0.576,1.282-0.576c0.562,0,0.989,0.192,1.282,0.576
	c0.293,0.383,0.44,0.943,0.44,1.68C28.501,11.105,28.353,11.666,28.06,12.054z M34.51,0H5.49C2.463,0,0,2.463,0,5.49v29.02
	C0,37.537,2.463,40,5.49,40h29.02c3.027,0,5.49-2.463,5.49-5.49V5.49C40,2.463,37.537,0,34.51,0z M38.298,34.51
	c0,2.089-1.699,3.787-3.787,3.787H5.49c-2.088,0-3.787-1.699-3.787-3.787V5.49c0-2.088,1.699-3.787,3.787-3.787h29.02
	c2.089,0,3.787,1.699,3.787,3.787v29.02H38.298z"/>
</svg>
