<?xml version="1.0" encoding="utf-8"?>
<!-- Generator: Adobe Illustrator 23.0.1, SVG Export Plug-In . SVG Version: 6.00 Build 0)  -->
<svg version="1.1" id="Layer_1" xmlns="http://www.w3.org/2000/svg" xmlns:xlink="http://www.w3.org/1999/xlink" x="0px" y="0px"
	 viewBox="0 0 40 40" style="enable-background:new 0 0 40 40;" xml:space="preserve">
<style type="text/css">
	.st0{fill:#231F20;}
</style>
<path class="st0" d="M34.51,0H5.49C2.463,0,0,2.463,0,5.49v29.02C0,37.537,2.463,40,5.49,40h29.02c3.027,0,5.49-2.463,5.49-5.49
	V5.49C40,2.463,37.537,0,34.51,0z M34.511,38.297H5.49c-2.088,0-3.787-1.699-3.787-3.787V5.49c0-2.088,1.699-3.787,3.787-3.787
	h29.02c2.089,0,3.787,1.699,3.787,3.787v29.02h0.001C38.298,36.599,36.599,38.297,34.511,38.297z M7.972,10.082L6.203,6.394H4.668
	v6.488h1.236V8.388l1.432,2.911H8.59l1.432-2.911v4.494h1.236V6.394H9.751L7.972,10.082z M15.571,9.109l-0.693-0.253
	c-0.35-0.125-0.588-0.243-0.716-0.356c-0.128-0.112-0.192-0.255-0.192-0.431c0-0.474,0.368-0.711,1.105-0.711
	c0.518,0,1.08,0.094,1.685,0.281V6.572c-0.587-0.224-1.186-0.337-1.797-0.337c-0.731,0-1.312,0.175-1.746,0.524
	c-0.434,0.35-0.651,0.818-0.651,1.405c0,0.455,0.122,0.832,0.365,1.128c0.244,0.297,0.643,0.548,1.198,0.754l0.711,0.262
	c0.368,0.138,0.613,0.263,0.735,0.375s0.182,0.265,0.182,0.459c0,0.249-0.1,0.441-0.3,0.576c-0.199,0.132-0.483,0.2-0.851,0.2
	c-0.287,0-0.608-0.028-0.964-0.085c-0.356-0.056-0.69-0.13-1.001-0.224v1.067c0.249,0.112,0.549,0.201,0.898,0.267
	s0.699,0.098,1.048,0.098c0.805,0,1.439-0.185,1.901-0.557c0.462-0.371,0.693-0.878,0.693-1.521c0-0.455-0.123-0.825-0.37-1.11
	C16.564,9.569,16.151,9.321,15.571,9.109z M32.486,6.394h-1.404v6.488h4.25v-1.124h-2.846V6.394z M21.062,9.109L20.37,8.856
	c-0.35-0.125-0.588-0.243-0.716-0.356c-0.128-0.112-0.191-0.255-0.191-0.431c0-0.474,0.368-0.711,1.105-0.711
	c0.518,0,1.079,0.094,1.685,0.281V6.572c-0.587-0.224-1.186-0.337-1.797-0.337c-0.731,0-1.312,0.175-1.747,0.524
	c-0.434,0.35-0.651,0.818-0.651,1.405c0,0.455,0.122,0.832,0.365,1.128c0.244,0.297,0.643,0.548,1.198,0.754l0.711,0.262
	c0.368,0.138,0.613,0.263,0.735,0.375c0.121,0.112,0.183,0.265,0.183,0.459c0,0.249-0.101,0.441-0.3,0.576
	c-0.2,0.132-0.484,0.2-0.852,0.2c-0.287,0-0.608-0.028-0.964-0.085c-0.356-0.056-0.69-0.13-1.001-0.224v1.067
	c0.249,0.112,0.549,0.201,0.898,0.267c0.35,0.066,0.699,0.098,1.049,0.098c0.805,0,1.438-0.185,1.9-0.557
	c0.462-0.371,0.693-0.878,0.693-1.521c0-0.455-0.124-0.825-0.37-1.11C22.056,9.569,21.643,9.321,21.062,9.109z M29.43,11.721
	c0.352-0.562,0.529-1.257,0.529-2.088c0-0.711-0.13-1.321-0.388-1.83c-0.259-0.509-0.626-0.897-1.1-1.165s-1.033-0.402-1.676-0.402
	c-0.662,0-1.231,0.139-1.709,0.416C24.609,6.929,24.246,7.324,24,7.836c-0.247,0.512-0.37,1.11-0.37,1.797
	c0,1.036,0.27,1.856,0.81,2.458c0.54,0.603,1.284,0.916,2.233,0.941c0.436,0.406,0.931,0.738,1.484,0.997
	c0.553,0.258,1.11,0.42,1.671,0.482v-1.142c-0.406-0.032-0.759-0.086-1.058-0.164c-0.3-0.078-0.581-0.189-0.843-0.332
	C28.576,12.667,29.077,12.283,29.43,11.721z M28.077,11.319c-0.293,0.387-0.721,0.58-1.282,0.58c-0.562,0-0.989-0.193-1.282-0.58
	c-0.293-0.387-0.44-0.948-0.44-1.686c0-0.736,0.147-1.297,0.44-1.68c0.293-0.384,0.721-0.576,1.282-0.576
	c0.562,0,0.989,0.192,1.282,0.576c0.293,0.383,0.44,0.943,0.44,1.68S28.37,10.931,28.077,11.319z"/>
</svg>
