<?xml version="1.0" encoding="utf-8"?>
<!-- Generator: Adobe Illustrator 23.0.1, SVG Export Plug-In . SVG Version: 6.00 Build 0)  -->
<svg version="1.1" id="Layer_1" xmlns="http://www.w3.org/2000/svg" xmlns:xlink="http://www.w3.org/1999/xlink" x="0px" y="0px"
	 viewBox="0 0 40 40" style="enable-background:new 0 0 40 40;" xml:space="preserve">
<style type="text/css">
	.st0{fill:#231F20;}
</style>
<path class="st0" d="M20,0C12.809,0,5.166,2.037,5.166,5.813v28.374C5.166,37.963,12.809,40,20,40s14.834-2.037,14.834-5.813V5.813
	C34.834,2.037,27.191,0,20,0z M20,1.702c7.477,0,12.29,2.021,13.023,3.681C32.29,7.043,27.477,9.064,20,9.064
	S7.709,7.043,6.977,5.383C7.71,3.723,12.523,1.702,20,1.702z M33.132,34.187c0,1.716-4.996,4.111-13.132,4.111
	S6.868,35.904,6.868,34.187V7.77C9.522,9.731,14.875,10.766,20,10.766S30.478,9.731,33.132,7.77V34.187z M14.545,21.614
	c0,1.076,0.288,1.966,0.863,2.666c0.575,0.701,1.519,1.294,2.832,1.781l1.682,0.619c0.871,0.325,1.45,0.62,1.737,0.885
	c0.288,0.266,0.431,0.627,0.431,1.085c0,0.59-0.236,1.044-0.708,1.361s-1.144,0.476-2.014,0.476c-0.679,0-1.438-0.066-2.279-0.199
	s-1.63-0.31-2.367-0.531v2.522c0.59,0.266,1.298,0.476,2.124,0.631s1.652,0.233,2.478,0.233c1.904,0,3.401-0.439,4.493-1.317
	c1.091-0.877,1.637-2.076,1.637-3.595c0-1.076-0.292-1.951-0.874-2.622c-0.583-0.671-1.56-1.257-2.931-1.759l-1.638-0.598
	c-0.826-0.295-1.39-0.576-1.693-0.841c-0.303-0.266-0.454-0.605-0.454-1.018c0-1.12,0.87-1.681,2.611-1.681
	c1.224,0,2.552,0.221,3.984,0.664v-2.523c-1.387-0.531-2.803-0.796-4.249-0.796c-1.726,0-3.101,0.413-4.126,1.239
	C15.058,19.121,14.545,20.227,14.545,21.614z"/>
</svg>
