<?xml version="1.0" encoding="utf-8"?>
<!-- Generator: Adobe Illustrator 23.0.1, SVG Export Plug-In . SVG Version: 6.00 Build 0)  -->
<svg version="1.1" id="Layer_1" xmlns="http://www.w3.org/2000/svg" xmlns:xlink="http://www.w3.org/1999/xlink" x="0px" y="0px"
	 viewBox="0 0 40 40" style="enable-background:new 0 0 40 40;" xml:space="preserve">
<style type="text/css">
	.st0{fill:#231F20;}
</style>
<path class="st0" d="M32.427,11.248l2.096-6.01V4.064H22.224l-5.427,10.974l0.526,0.717h5.145l-5.018,15.709h1.975l18.023-18.546
	v-1.669H32.427z M21.333,26.4l3.191-9.99l0.899-2.816h-2.957h-2.547l3.646-7.371h8.328l-1.505,4.314l-1.001,2.871h4.571L21.333,26.4
	z M5.918,35.082h2.154v-1.391H5.918V35.082z M8.072,24.402v-1.391H5.918v1.391H8.072z M8.072,11.926v-1.391H5.918v1.391H8.072z
	 M31.094,23.706l-1.939,0.066l-2.751,2.651c0,0-0.01,0.993-0.01,1.443c0.378-0.135,0.736-0.279,1.077-0.429
	c0.962,0.528,1.464,1.03,1.464,1.334c0,0.888-4.165,3.455-12.112,3.455S4.71,29.661,4.71,28.772c0-0.305,0.502-0.808,1.467-1.336
	c0.001-0.001,0.001-0.001,0.002-0.002c2.534,1.117,6.176,1.835,10.255,1.878l0.689-2.158c-0.103,0.001-0.198,0.006-0.302,0.006
	c-7.947,0-12.112-2.567-12.112-3.455V21.05c2.519,1.592,6.994,2.655,12.112,2.655c0.48,0,0.947-0.018,1.416-0.037l0.701-2.193
	c-0.675,0.041-1.374,0.07-2.115,0.07c-7.947,0-12.112-2.567-12.112-3.455c0-0.493,1.288-1.503,3.791-2.304
	c1.653,0.467,3.569,0.799,5.646,0.954l1.038-2.098c-6.878-0.32-10.474-2.59-10.474-3.414V8.574
	c2.519,1.592,6.994,2.655,12.112,2.655c0.017,0,0.034-0.001,0.051-0.001l1.079-2.181c-0.37,0.011-0.742,0.023-1.129,0.023
	c-7.947,0-12.112-2.567-12.112-3.455S8.877,2.16,16.824,2.16c1.626,0,3.086,0.111,4.392,0.29l0.003-0.007h7.377
	C26.025,0.969,21.713,0,16.824,0C8.942,0,2.553,2.513,2.553,5.614v5.615c0,1.294,1.123,2.481,2.993,3.431H5.545
	c-1.869,0.95-2.992,2.137-2.992,3.431v5.615c0,0.913,0.563,1.773,1.547,2.534c-0.982,0.762-1.547,1.621-1.547,2.533v5.615
	c0,3.101,6.39,5.614,14.271,5.614c7.882,0,14.271-2.513,14.271-5.614v-5.615c0-0.913-0.566-1.771-1.547-2.534
	c-0.001-0.001-0.003-0.001-0.006-0.002C30.523,25.477,31.094,24.618,31.094,23.706z M28.935,34.387
	c0,0.888-4.165,3.455-12.112,3.455S4.711,35.275,4.711,34.387v-2.655c2.519,1.592,6.994,2.655,12.112,2.655
	s9.593-1.063,12.112-2.655V34.387z"/>
</svg>
