<?xml version="1.0" encoding="utf-8"?>
<!-- Generator: Adobe Illustrator 23.0.1, SVG Export Plug-In . SVG Version: 6.00 Build 0)  -->
<svg version="1.1" id="Layer_1" xmlns="http://www.w3.org/2000/svg" xmlns:xlink="http://www.w3.org/1999/xlink" x="0px" y="0px"
	 viewBox="0 0 40 40" style="enable-background:new 0 0 40 40;" xml:space="preserve">
<style type="text/css">
	.st0{fill:#231F20;}
</style>
<path class="st0" d="M23.798,7.902c0.321-0.342,0.806-0.514,1.455-0.514c0.362,0,0.827,0.062,1.395,0.187V6.47
	c-0.494-0.175-1.015-0.262-1.564-0.262c-1.03,0-1.828,0.296-2.396,0.889s-0.852,1.429-0.852,2.508c0,1.093,0.271,1.922,0.814,2.486
	c0.543,0.565,1.341,0.847,2.396,0.847c0.624,0,1.189-0.096,1.695-0.29v-1.105c-0.655,0.144-1.164,0.215-1.526,0.215
	c-0.642,0-1.12-0.17-1.432-0.51c-0.312-0.34-0.468-0.859-0.468-1.558V9.475C23.316,8.77,23.477,8.245,23.798,7.902z M27.668,6.329
	v6.488h4.25v-1.124h-2.846V6.329H27.668z M15.667,12.817h1.47l0.44-1.479h2.218l0.459,1.479h1.526l-2.284-6.488h-1.545
	L15.667,12.817z M19.506,10.327h-1.629l0.805-2.715L19.506,10.327z M7.958,6.573C7.484,6.304,6.925,6.171,6.282,6.171
	c-0.662,0-1.231,0.139-1.708,0.416S3.735,7.259,3.488,7.771s-0.37,1.11-0.37,1.797c0,0.711,0.129,1.323,0.389,1.835
	c0.259,0.512,0.625,0.902,1.1,1.17c0.474,0.268,1.033,0.402,1.676,0.402c0.662,0,1.231-0.14,1.709-0.421
	c0.477-0.281,0.839-0.677,1.086-1.189c0.246-0.512,0.37-1.11,0.37-1.798c0-0.711-0.13-1.321-0.389-1.83
	C8.799,7.229,8.433,6.841,7.958,6.573z M7.565,11.254c-0.293,0.387-0.721,0.58-1.282,0.58S5.293,11.641,5,11.254
	s-0.44-0.948-0.44-1.686c0-0.736,0.147-1.297,0.44-1.68c0.293-0.384,0.721-0.576,1.282-0.576s0.989,0.192,1.282,0.576
	c0.293,0.383,0.44,0.943,0.44,1.68C8.005,10.305,7.858,10.866,7.565,11.254z M36.882,7.416V6.329h-4.269v6.488h4.269v-1.086h-2.865
	v-1.694h2.33V8.951h-2.33V7.416H36.882z M14.577,9.326c0.206-0.3,0.309-0.637,0.309-1.011c0-0.612-0.197-1.095-0.59-1.451
	c-0.394-0.356-0.927-0.534-1.601-0.534h-2.5v6.488h1.348V10.3h0.918l1.404,2.518h1.451l-1.61-2.79
	C14.08,9.859,14.371,9.625,14.577,9.326z M12.517,9.326h-0.974V7.359h0.992c0.643,0,0.965,0.325,0.965,0.974
	C13.5,8.995,13.172,9.326,12.517,9.326z M34.8,0H5.2C2.333,0,0,2.333,0,5.2v29.6C0,37.667,2.333,40,5.2,40h17.191v-1.702H5.2
	c-1.929,0-3.498-1.569-3.498-3.498V5.2c0-1.929,1.569-3.498,3.498-3.498h29.6c1.929,0,3.498,1.569,3.498,3.498v11.609H40V5.2
	C40,2.333,37.667,0,34.8,0z M31.174,16.459c-4.39,0-8.834,1.266-8.834,3.685v16.17c0,2.409,4.444,3.669,8.834,3.669
	c4.386,0,8.826-1.266,8.826-3.685v-16.17C40,17.608,35.425,16.459,31.174,16.459z M31.174,18.162c4.128,0,6.499,1.063,7.015,1.72
	c-0.516,0.663-2.886,1.735-7.015,1.735c-4.118,0-6.49-1.065-7.018-1.728C24.684,19.226,27.057,18.162,31.174,18.162z M38.298,36.298
	c0,0.593-2.424,1.983-7.124,1.983c-4.706,0-7.132-1.378-7.132-1.966v-14.42c1.693,0.94,4.42,1.425,7.132,1.425
	c2.715,0,5.433-0.492,7.124-1.436V36.298z M26.677,26.311v8.846h1.686v-6.128L30.315,33h1.71l1.953-3.97v6.128h1.685v-8.846h-2.055
	l-2.426,5.029l-2.413-5.029L26.677,26.311L26.677,26.311z"/>
</svg>
