<?xml version="1.0" encoding="utf-8"?>
<!-- Generator: Adobe Illustrator 23.0.1, SVG Export Plug-In . SVG Version: 6.00 Build 0)  -->
<svg version="1.1" id="Layer_1" xmlns="http://www.w3.org/2000/svg" xmlns:xlink="http://www.w3.org/1999/xlink" x="0px" y="0px"
	 viewBox="0 0 40 40" style="enable-background:new 0 0 40 40;" xml:space="preserve">
<path d="M39.1,17.7c0.5,0,0.9-0.4,0.9-0.9V9.6c0-0.5-0.4-0.9-0.9-0.9h-3.4c-2.4-1.9-5.8-4.4-6.9-5.2V0.9C28.8,0.4,28.5,0,28,0h-7.2
	c-0.5,0-0.9,0.4-0.9,0.9v5.9l-7.4,6H0.9c-0.5,0-0.9,0.4-0.9,0.9v12.8c0,0.5,0.4,0.9,0.9,0.9h11.7l7.4,6v5.9c0,0.5,0.4,0.9,0.9,0.9
	H28c0.5,0,0.9-0.4,0.9-0.9v-2.8c1.1-0.8,4.5-3.3,6.9-5.2h3.4c0.5,0,0.9-0.4,0.9-0.9v-7.2c0-0.5-0.4-0.9-0.9-0.9H34L32.4,20l1.6-2.3
	H39.1z M21.7,1.7h5.5v5.5h-5.5V1.7z M20.3,8.7c0.1,0.1,0.3,0.2,0.5,0.2h1.9l3.4,5l-6.1,2v-2.3c0-0.5-0.4-0.9-0.9-0.9h-4L20.3,8.7z
	 M32,17.7l-0.6,0.8l-2.6-3.7l2.3-0.8v2.8C31.1,17.3,31.5,17.7,32,17.7z M32,22.3c-0.5,0-0.8,0.4-0.8,0.8V26l-2.3-0.8l2.6-3.7
	L32,22.3z M30.4,20l-3.2,4.7l-7.1-2.4v-4.6l7.1-2.4L30.4,20z M1.7,25.5V14.5h16.6v11.1H1.7z M20.3,31.3l-5-4.1h4
	c0.5,0,0.9-0.4,0.9-0.9v-2.3l6.1,2l-3.4,5h-1.9C20.6,31.1,20.4,31.2,20.3,31.3z M27.1,38.3h-5.5v-5.5h5.5V38.3z M32.8,24h5.5v5.5
	h-5.5V24z M32.9,31.2c-1.5,1.1-3,2.3-4.1,3.1V32c0-0.5-0.4-0.9-0.9-0.9h-3.2l3-4.4l3.3,1.1v2.6c0,0.5,0.4,0.9,0.9,0.9H32.9z M32,8.8
	c-0.5,0-0.9,0.4-0.9,0.9v2.6l-3.3,1.1l-3-4.4H28c0.5,0,0.9-0.4,0.9-0.9V5.7c1.1,0.8,2.6,1.9,4.1,3.1H32z M32.8,10.5h5.5V16h-5.5
	V10.5z M6.3,16.3H3.7v7.2h2.6c1.1,0,1.9-0.3,2.4-0.9c0.6-0.6,0.9-1.5,0.9-2.7c0-1.2-0.3-2-0.9-2.7C8.2,16.6,7.4,16.3,6.3,16.3z
	 M8,20c0,1.5-0.6,2.3-1.9,2.3H5.3v-4.8h0.9c1.3,0,1.9,0.8,1.9,2.3V20z M13,21.7c-0.3-0.4-0.5-1-0.5-1.7v-0.2c0-0.8,0.2-1.4,0.5-1.7
	c0.4-0.4,0.9-0.6,1.6-0.6c0.4,0,0.9,0.1,1.5,0.2v-1.2c-0.5-0.2-1.1-0.3-1.7-0.3c-1.1,0-2,0.3-2.7,1c-0.6,0.7-0.9,1.6-0.9,2.8
	c0,1.2,0.3,2.1,0.9,2.8c0.6,0.6,1.5,0.9,2.7,0.9c0.7,0,1.3-0.1,1.9-0.3V22c-0.7,0.2-1.3,0.2-1.7,0.2C13.9,22.3,13.4,22.1,13,21.7z"
	/>
</svg>
