<?xml version="1.0" encoding="utf-8"?>
<!-- Generator: Adobe Illustrator 23.0.1, SVG Export Plug-In . SVG Version: 6.00 Build 0)  -->
<svg version="1.1" id="Layer_1" xmlns="http://www.w3.org/2000/svg" xmlns:xlink="http://www.w3.org/1999/xlink" x="0px" y="0px"
	 viewBox="0 0 40 40" style="enable-background:new 0 0 40 40;" xml:space="preserve">
<style type="text/css">
	.st0{fill:#231F20;}
</style>
<g>
	<g>
		<path class="st0" d="M5.379,6.706C5.144,6.56,4.872,6.486,4.596,6.494H2.979v5.532h0.732V9.872l0.885-0.034
			c0.408,0.014,0.801-0.154,1.072-0.46c0.285-0.343,0.431-0.78,0.409-1.226c0.001-0.292-0.06-0.582-0.179-0.85
			C5.788,7.057,5.607,6.849,5.379,6.706z M5.081,8.97C4.948,9.162,4.726,9.271,4.494,9.26H3.711V7.106h0.783
			C4.724,7.094,4.945,7.2,5.081,7.387c0.157,0.236,0.231,0.517,0.213,0.8C5.311,8.465,5.236,8.74,5.081,8.97z M9.184,8.205
			c-0.639-0.518-1.577-0.419-2.095,0.22C6.787,8.889,6.644,9.439,6.681,9.992c-0.036,0.558,0.107,1.112,0.409,1.583
			c0.267,0.368,0.703,0.577,1.157,0.553c0.446,0.015,0.87-0.193,1.132-0.553c0.301-0.471,0.445-1.025,0.409-1.583
			c0.045-0.55-0.09-1.099-0.383-1.566C9.339,8.345,9.265,8.271,9.184,8.205z M8.86,11.149c-0.111,0.235-0.353,0.38-0.613,0.366
			v-0.026c-0.253,0.017-0.493-0.117-0.613-0.34c-0.16-0.364-0.23-0.761-0.204-1.157C7.405,9.598,7.475,9.204,7.634,8.843
			C7.75,8.612,7.989,8.469,8.247,8.477C8.505,8.467,8.745,8.61,8.86,8.843c0.159,0.361,0.229,0.755,0.204,1.149
			C9.089,10.388,9.019,10.785,8.86,11.149z M12.06,9.813l-0.485-0.247c-0.138-0.059-0.263-0.146-0.366-0.255
			c-0.071-0.099-0.106-0.219-0.102-0.34c-0.008-0.146,0.048-0.289,0.153-0.391c0.123-0.099,0.277-0.15,0.434-0.145
			c0.313,0.005,0.62,0.077,0.902,0.213V8.102c-0.296-0.168-0.63-0.256-0.97-0.255c-0.315-0.006-0.62,0.11-0.851,0.323
			c-0.23,0.221-0.351,0.532-0.332,0.851c-0.014,0.479,0.271,0.917,0.715,1.098l0.519,0.255c0.298,0.145,0.443,0.332,0.443,0.562
			c-0.012,0.145-0.076,0.281-0.179,0.383c-0.128,0.108-0.292,0.163-0.46,0.153c-0.373-0.012-0.74-0.096-1.081-0.247v0.545
			c0.338,0.198,0.723,0.301,1.115,0.298c0.34,0.017,0.672-0.106,0.919-0.34c0.224-0.226,0.347-0.533,0.34-0.851
			c0.01-0.222-0.049-0.443-0.17-0.63C12.465,10.056,12.277,9.906,12.06,9.813z M14.485,11.328c-0.081-0.126-0.117-0.276-0.102-0.426
			V8.579h0.928V7.974h-0.928V6.843h-0.604l-0.111,1.149l-0.604,0.094v0.477h0.57v2.383c-0.03,0.304,0.055,0.607,0.238,0.851
			c0.184,0.201,0.453,0.303,0.723,0.272c0.251,0.004,0.501-0.046,0.732-0.145v-0.545c-0.16,0.051-0.326,0.077-0.494,0.077
			C14.704,11.47,14.575,11.423,14.485,11.328z M18.153,8.306c-0.251-0.265-0.597-0.421-0.962-0.434
			c-0.399-0.003-0.768,0.212-0.962,0.562c-0.269,0.455-0.396,0.979-0.366,1.506c-0.009,0.356,0.046,0.71,0.162,1.047
			c0.082,0.273,0.238,0.517,0.451,0.706c0.195,0.164,0.443,0.252,0.698,0.247c0.348-0.01,0.678-0.157,0.919-0.409v0.298
			c0.027,0.347-0.044,0.695-0.204,1.004c-0.168,0.216-0.434,0.332-0.706,0.306c-0.364-0.015-0.722-0.098-1.055-0.247v0.57
			c0.341,0.197,0.729,0.3,1.123,0.298c1.055,0,1.583-0.655,1.583-1.974V7.974h-0.621L18.153,8.306z M18.094,11.021
			c-0.189,0.181-0.436,0.289-0.698,0.306c-0.253,0.016-0.492-0.121-0.604-0.349c-0.15-0.334-0.217-0.699-0.196-1.064
			c-0.016-0.37,0.054-0.74,0.204-1.08c0.1-0.219,0.321-0.357,0.562-0.349c0.27,0.01,0.528,0.112,0.732,0.289V11.021z M21.047,8.068
			c-0.174,0.1-0.327,0.233-0.451,0.392l-0.068-0.485h-0.621v4.051l0.723,0.009V8.936c0.24-0.197,0.541-0.302,0.851-0.298
			c0.122-0.01,0.244-0.01,0.366,0V7.94c-0.088-0.008-0.176-0.008-0.264,0C21.396,7.938,21.212,7.982,21.047,8.068z M23.736,7.864
			c-0.449-0.021-0.878,0.188-1.14,0.553c-0.297,0.469-0.437,1.021-0.4,1.575c-0.045,0.565,0.095,1.13,0.4,1.608
			c0.291,0.365,0.743,0.562,1.208,0.528c0.399,0.009,0.792-0.097,1.132-0.306v-0.553c-0.313,0.155-0.655,0.239-1.004,0.247
			c-0.294,0.028-0.583-0.089-0.774-0.315c-0.189-0.312-0.278-0.674-0.255-1.038h2.043c0.045-0.218,0.068-0.441,0.068-0.664
			c0.029-0.43-0.084-0.858-0.323-1.217C24.458,7.995,24.103,7.84,23.736,7.864z M24.34,9.566v0.102h-1.438
			c-0.005-0.316,0.074-0.627,0.23-0.902c0.122-0.197,0.339-0.314,0.57-0.306V8.443c0.194-0.009,0.377,0.089,0.477,0.255
			c0.126,0.232,0.182,0.495,0.162,0.757C24.345,9.492,24.345,9.529,24.34,9.566z M27.711,9.047l-0.562-0.289
			c-0.195-0.09-0.367-0.224-0.502-0.391c-0.103-0.147-0.156-0.323-0.153-0.502c-0.014-0.221,0.067-0.437,0.221-0.596
			c0.157-0.151,0.37-0.231,0.587-0.221c0.397-0.001,0.789,0.086,1.149,0.255v-0.63c-0.377-0.172-0.785-0.268-1.2-0.281
			c-0.411-0.02-0.811,0.131-1.106,0.417c-0.489,0.539-0.565,1.336-0.187,1.957c0.222,0.281,0.516,0.495,0.851,0.621l0.528,0.298
			c0.374,0.146,0.625,0.501,0.638,0.902c0.012,0.246-0.078,0.485-0.247,0.664c-0.181,0.164-0.42,0.249-0.664,0.238
			c-0.45-0.007-0.894-0.108-1.302-0.298v0.613c0.178,0.114,0.373,0.197,0.579,0.247c0.232,0.054,0.469,0.082,0.706,0.085
			c0.448,0.019,0.885-0.14,1.217-0.443c0.309-0.311,0.473-0.737,0.451-1.174c0.008-0.301-0.075-0.598-0.238-0.851
			C28.28,9.398,28.016,9.183,27.711,9.047z M33.311,11.115c0.277-0.578,0.409-1.215,0.383-1.855c0.044-0.747-0.15-1.489-0.553-2.119
			c-0.097-0.124-0.209-0.236-0.333-0.333C31.957,6.141,30.727,6.29,30.06,7.14c-0.403,0.63-0.597,1.372-0.553,2.119
			c-0.011,0.512,0.067,1.021,0.23,1.506c0.126,0.388,0.359,0.733,0.672,0.996c0.313,0.234,0.69,0.368,1.081,0.383
			c0.289,0.311,0.625,0.576,0.996,0.783c0.355,0.198,0.745,0.325,1.149,0.374V12.63c-0.26-0.029-0.514-0.092-0.757-0.187
			c-0.241-0.094-0.465-0.226-0.664-0.391C32.693,11.906,33.092,11.567,33.311,11.115z M32.149,11.383
			c-0.536,0.303-1.216,0.115-1.519-0.421c-0.258-0.529-0.372-1.115-0.332-1.702c-0.035-0.573,0.08-1.144,0.332-1.66
			c0.1-0.176,0.245-0.321,0.421-0.421c0.536-0.303,1.216-0.115,1.519,0.421c0.252,0.515,0.367,1.087,0.332,1.66
			c0.041,0.587-0.074,1.174-0.332,1.702C32.471,11.138,32.325,11.283,32.149,11.383z M35.532,6.494h-0.774v5.532h2.792v-0.647
			h-2.017V6.494H35.532z M34.51,0H5.49C2.463,0,0,2.463,0,5.49v29.02C0,37.537,2.463,40,5.49,40h29.02c3.027,0,5.49-2.463,5.49-5.49
			V5.49C40,2.463,37.537,0,34.51,0z M38.298,34.51c0,2.089-1.699,3.787-3.787,3.787H5.49c-2.088,0-3.787-1.699-3.787-3.787V5.49
			c0-2.088,1.699-3.787,3.787-3.787h29.02c2.089,0,3.787,1.699,3.787,3.787v29.02H38.298z"/>
	</g>
</g>
</svg>
