<?xml version="1.0" encoding="utf-8"?>
<!-- Generator: Adobe Illustrator 23.0.1, SVG Export Plug-In . SVG Version: 6.00 Build 0)  -->
<svg version="1.1" id="Layer_1" xmlns="http://www.w3.org/2000/svg" xmlns:xlink="http://www.w3.org/1999/xlink" x="0px" y="0px"
	 viewBox="0 0 40 40" style="enable-background:new 0 0 40 40;" xml:space="preserve">
<style type="text/css">
	.st0{fill:#231F20;}
</style>
<path class="st0" d="M0,8.885h8.085V0H0V8.885z M1.702,1.702h4.681v5.481H1.702V1.702z M0,19.259h8.085v-8.885H0V19.259z
	 M1.702,12.077h4.681v5.481H1.702V12.077z M0,29.634h8.085v-8.885H0V29.634z M1.702,22.451h4.681v5.481H1.702V22.451z M0,40h8.085
	v-8.885H0V40z M1.702,32.817h4.681v5.481H1.702V32.817z M9.574,8.885h8.085V0H9.574V8.885z M11.277,1.702h4.681v5.481h-4.681V1.702z
	 M9.574,19.259h8.085v-8.885H9.574V19.259z M11.277,12.077h4.681v5.481h-4.681V12.077z M9.574,29.634h8.085v-8.885H9.574V29.634z
	 M11.277,22.451h4.681v5.481h-4.681V22.451z M9.574,40h8.085v-8.885H9.574V40z M11.277,32.817h4.681v5.481h-4.681V32.817z M19.149,0
	v8.885H40V0H19.149z M38.298,7.183H20.851V1.702h17.447V7.183z M19.149,19.259H40v-8.885H19.149V19.259z M20.851,12.077h17.447
	v5.481H20.851V12.077z M19.149,29.634H40v-8.885H19.149V29.634z M20.851,22.451h17.447v5.481H20.851V22.451z M19.149,40H40v-8.885
	H19.149V40z M20.851,32.817h17.447v5.481H20.851V32.817z"/>
</svg>
