<?xml version="1.0" encoding="utf-8"?>
<!-- Generator: Adobe Illustrator 23.0.1, SVG Export Plug-In . SVG Version: 6.00 Build 0)  -->
<svg version="1.1" id="Layer_1" xmlns="http://www.w3.org/2000/svg" xmlns:xlink="http://www.w3.org/1999/xlink" x="0px" y="0px"
	 viewBox="0 0 40 40" style="enable-background:new 0 0 40 40;" xml:space="preserve">
<style type="text/css">
	.st0{fill:#231F20;}
</style>
<g>
	<path class="st0" d="M6.266,6.298h4.542v5.278c0.329-0.171,0.679-0.329,1.045-0.477V5.254h-6.63v13.697h2.495v-1.045h-1.45V6.298
		L6.266,6.298L6.266,6.298z M17.792,31.289v1.31c0.798,0.073,1.625,0.119,2.483,0.119c0.653,0,1.282-0.03,1.902-0.073v-1.305
		c-0.6,0.043-1.231,0.07-1.902,0.07C19.383,31.407,18.56,31.362,17.792,31.289z M20.167,24.861c-0.115,0-0.225-0.005-0.338-0.007
		L20,25.121L20.167,24.861z M32.835,17.907v1.045h1.943V5.254h-6.63v5.639c0.365,0.129,0.711,0.271,1.045,0.422V6.298h4.542v11.609
		L32.835,17.907L32.835,17.907z M27.136,10.569V5.253h-6.63v4.438c0.347,0.002,0.696,0.01,1.045,0.025V6.297h4.542v4.007
		C26.448,10.383,26.797,10.473,27.136,10.569z M19.494,9.702V5.253h-6.63v5.482c0.338-0.109,0.687-0.208,1.045-0.299V6.297h4.542
		v3.451C18.798,9.727,19.145,9.711,19.494,9.702z M40,4.938v-2.89H0v2.89c1.442,0,2.61,1.169,2.61,2.61s-1.169,2.61-2.61,2.61
		v13.986h7.717V23.1H4.469v-2.159h3.248v-1.045H3.425V23.1H1.045V11.05c1.509-0.45,2.61-1.85,2.61-3.503s-1.103-3.053-2.61-3.503
		V3.091h37.911v0.953c-1.509,0.45-2.61,1.85-2.61,3.503s1.103,3.053,2.61,3.503V23.1h-2.016v-3.203h-4.105v1.045h3.061V23.1h-3.061
		v1.045h7.165V10.158c-1.442,0-2.61-1.169-2.61-2.61S38.558,4.938,40,4.938z M20.275,11.775c-5.783,0-10.471,1.758-10.471,3.927
		v18.323c0,2.169,4.688,3.927,10.471,3.927s10.471-1.758,10.471-3.927V15.702C30.746,13.533,26.058,11.775,20.275,11.775z
		 M29.438,22.246c0,0.456-1.166,1.306-3.378,1.914v1.35c1.393-0.349,2.563-0.813,3.378-1.365v4.645c0,0.456-1.166,1.306-3.378,1.914
		v1.35c1.393-0.349,2.563-0.813,3.378-1.365v3.336c0,0.76-3.21,2.618-9.162,2.618c-5.951,0-9.162-1.858-9.162-2.618V30.69
		c0.705,0.478,1.675,0.89,2.825,1.219v-1.367c-1.854-0.59-2.825-1.336-2.825-1.752v-4.645c0.705,0.478,1.675,0.89,2.825,1.221V24
		c-1.854-0.59-2.825-1.336-2.825-1.752v-4.645c1.785,1.208,5.217,2.027,9.162,2.027s7.377-0.818,9.162-2.027V22.246z M20.275,18.319
		c-5.951,0-9.162-1.858-9.162-2.617c0-0.759,3.21-2.617,9.162-2.617c5.951,0,9.162,1.858,9.162,2.617
		C29.438,16.461,26.227,18.319,20.275,18.319z M16.894,22.226h-1.91v10.207h1.765v-7.29l3.193,4.783H20l3.222-4.811v7.32h1.793
		V22.227h-1.91L20,27.053L16.894,22.226z"/>
</g>
</svg>
