<?xml version="1.0" encoding="utf-8"?>
<!-- Generator: Adobe Illustrator 23.0.1, SVG Export Plug-In . SVG Version: 6.00 Build 0)  -->
<svg version="1.1" id="Layer_1" xmlns="http://www.w3.org/2000/svg" xmlns:xlink="http://www.w3.org/1999/xlink" x="0px" y="0px"
	 viewBox="0 0 40 40" style="enable-background:new 0 0 40 40;" xml:space="preserve">
<style type="text/css">
	.st0{fill:#231F20;}
</style>
<path class="st0" d="M28.258,28.723c0,0.621,0.165,1.134,0.498,1.538c0.332,0.405,0.876,0.747,1.634,1.028l0.97,0.357
	c0.502,0.187,0.836,0.357,1.002,0.51c0.165,0.154,0.249,0.362,0.249,0.626c0,0.341-0.136,0.603-0.408,0.785
	c-0.273,0.183-0.66,0.274-1.162,0.274c-0.391,0-0.829-0.038-1.315-0.115c-0.485-0.076-0.941-0.179-1.366-0.307v1.455
	c0.341,0.153,0.749,0.274,1.226,0.364c0.476,0.089,0.953,0.134,1.43,0.134c1.098,0,1.961-0.253,2.591-0.76
	c0.63-0.506,0.945-1.198,0.945-2.074c0-0.621-0.168-1.125-0.504-1.513c-0.336-0.387-0.9-0.726-1.691-1.015l-0.945-0.345
	c-0.476-0.17-0.802-0.332-0.977-0.485c-0.175-0.154-0.261-0.349-0.261-0.588c0-0.647,0.502-0.97,1.506-0.97
	c0.706,0,1.472,0.127,2.298,0.382v-1.455c-0.8-0.306-1.617-0.46-2.451-0.46c-0.996,0-1.789,0.239-2.381,0.716
	C28.553,27.285,28.258,27.923,28.258,28.723z M34.8,0H5.2C2.333,0,0,2.333,0,5.2v29.6C0,37.667,2.333,40,5.2,40h17.191v-1.702H5.2
	c-1.929,0-3.498-1.569-3.498-3.498V5.2c0-1.929,1.569-3.498,3.498-3.498h29.6c1.929,0,3.498,1.569,3.498,3.498v11.609H40V5.2
	C40,2.333,37.667,0,34.8,0z M31.174,16.459c-4.39,0-8.834,1.266-8.834,3.685v16.17c0,2.409,4.444,3.669,8.834,3.669
	c4.386,0,8.826-1.266,8.826-3.685v-16.17C40,17.608,35.425,16.459,31.174,16.459z M31.174,18.162c4.128,0,6.499,1.063,7.015,1.72
	c-0.516,0.663-2.886,1.735-7.015,1.735c-4.118,0-6.49-1.065-7.018-1.728C24.684,19.226,27.057,18.162,31.174,18.162z M38.298,36.298
	c0,0.593-2.424,1.983-7.124,1.983c-4.706,0-7.132-1.378-7.132-1.966V21.886c1.692,0.943,4.415,1.434,7.132,1.434
	c2.716,0,5.433-0.493,7.124-1.437V36.298z"/>
</svg>
