<?xml version="1.0" encoding="utf-8"?>
<!-- Generator: Adobe Illustrator 23.0.1, SVG Export Plug-In . SVG Version: 6.00 Build 0)  -->
<svg version="1.1" id="Layer_1" xmlns="http://www.w3.org/2000/svg" xmlns:xlink="http://www.w3.org/1999/xlink" x="0px" y="0px"
	 viewBox="0 0 40 40" style="enable-background:new 0 0 40 40;" xml:space="preserve">
<style type="text/css">
	.st0{fill:#231F20;}
</style>
<path class="st0" d="M20.741,39.609H40V27.532H20.741V39.609z M22.443,29.234h15.855v8.673H22.443V29.234z M20.741,26.034H40V13.957
	H20.741V26.034z M22.443,15.659h15.855v8.672H22.443V15.659z M20.741,0.391v12.077H40V0.391H20.741z M38.298,10.766H22.443V2.094
	h15.855V10.766z M0,39.609h19.259V27.532H0V39.609z M1.702,29.234h15.855v8.673H1.702V29.234z M0,26.034h19.259V13.957H0V26.034z
	 M1.702,15.659h15.855v8.672H1.702V15.659z M0,12.477h19.259V0.4H0V12.477z M1.702,2.102h15.855v8.672H1.702V2.102z M30.375,29.924
	c-2.009,0-3.643,1.634-3.643,3.643c0,2.008,1.634,3.642,3.643,3.642c2.008,0,3.642-1.634,3.642-3.642
	C34.017,31.558,32.383,29.924,30.375,29.924z M30.375,35.506c-1.07,0-1.941-0.87-1.941-1.94s0.87-1.941,1.941-1.941
	c1.07,0,1.94,0.87,1.94,1.941C32.315,34.636,31.444,35.506,30.375,35.506z M30.375,16.358c-2.009,0-3.643,1.634-3.643,3.642
	c0,2.009,1.634,3.643,3.643,3.643c2.008,0,3.642-1.634,3.642-3.643C34.017,17.992,32.383,16.358,30.375,16.358z M30.375,21.941
	c-1.07,0-1.941-0.87-1.941-1.941c0-1.07,0.87-1.94,1.941-1.94c1.07,0,1.94,0.871,1.94,1.94
	C32.315,21.07,31.444,21.941,30.375,21.941z M30.375,10.076c2.008,0,3.642-1.634,3.642-3.642c0-2.009-1.634-3.643-3.642-3.643
	c-2.009,0-3.643,1.634-3.643,3.643C26.732,8.442,28.366,10.076,30.375,10.076z M30.375,4.493c1.07,0,1.94,0.871,1.94,1.941
	s-0.87,1.94-1.94,1.94s-1.941-0.87-1.941-1.94S29.304,4.493,30.375,4.493z"/>
</svg>
