<?xml version="1.0" encoding="utf-8"?>
<!-- Generator: Adobe Illustrator 23.0.1, SVG Export Plug-In . SVG Version: 6.00 Build 0)  -->
<svg version="1.1" id="Layer_1" xmlns="http://www.w3.org/2000/svg" xmlns:xlink="http://www.w3.org/1999/xlink" x="0px" y="0px"
	 viewBox="0 0 40 40" style="enable-background:new 0 0 40 40;" xml:space="preserve">
<style type="text/css">
	.st0{fill:#231F20;}
</style>
<g>
	<path class="st0" d="M40,20.869c0-3.965-2.843-7.261-6.601-7.973c-0.145-2.744-2.397-4.93-5.177-4.93
		c-0.976,0-1.879,0.286-2.659,0.753c-1.575-3.746-5.279-6.378-9.598-6.378c-5.633,0-10.209,4.478-10.391,10.066
		c-3.458,1.291-5.863,4.743-5.545,8.719c0.359,4.495,4.306,7.863,8.815,7.863h4.706v7.616c0,0.4,0.226,0.767,0.585,0.945
		c0.149,0.074,0.31,0.11,0.47,0.11c0.226,0,0.45-0.072,0.637-0.214l11.186-8.458h5.929V28.97c4.243-0.183,7.642-3.681,7.642-7.969
		l-0.011-0.002C39.99,20.953,40,20.913,40,20.869z M32.014,26.877h-6.293l-10.058,7.606v-7.606H8.565
		c-3.752,0-6.767-3.218-6.427-7.04c0.224-2.521,2.003-4.641,4.375-5.527l0.048-0.018c0.653-0.243,1.093-0.857,1.115-1.553
		c0.13-3.973,2.929-7.495,6.847-8.165c3.905-0.667,7.612,1.434,9.095,4.961l0.176,0.418c0.405,0.963,1.569,1.344,2.465,0.808
		l0.39-0.233c0.502-0.301,1.032-0.453,1.575-0.453c1.633,0,2.982,1.287,3.069,2.93l0.016,0.309c0.042,0.79,0.618,1.449,1.395,1.597
		l0.066,0.013c2.653,0.502,4.806,2.617,5.087,5.302c0.01,0.096,0.033,0.774,0.033,0.774C37.889,24.241,35.254,26.877,32.014,26.877z
		 M28.063,13.091c-1.672,0-3.027,1.355-3.027,3.027c0,0.619,0.187,1.194,0.507,1.674l-2.211,2.523C22.93,20.12,22.484,20,22.008,20
		c-0.329,0-0.641,0.066-0.938,0.163l-2.391-3.631c0.471-0.534,0.766-1.226,0.766-1.994c0-1.672-1.355-3.027-3.027-3.027
		s-3.027,1.355-3.027,3.027c0,0.551,0.159,1.062,0.416,1.506l-2.989,3.009c-0.441-0.251-0.944-0.406-1.488-0.406
		c-1.672,0-3.027,1.355-3.027,3.027c0,1.672,1.355,3.027,3.027,3.027s3.027-1.355,3.027-3.027c0-0.551-0.159-1.062-0.416-1.506
		l2.989-3.009c0.441,0.251,0.944,0.406,1.488,0.406c0.33,0,0.641-0.066,0.938-0.163l2.391,3.631
		c-0.471,0.534-0.766,1.226-0.766,1.994c0,1.672,1.355,3.027,3.027,3.027c1.672,0,3.027-1.355,3.027-3.027
		c0-0.619-0.187-1.194-0.507-1.674l2.211-2.523c0.401,0.197,0.847,0.317,1.323,0.317c1.672,0,3.027-1.355,3.027-3.027
		C31.09,14.447,29.735,13.091,28.063,13.091z M9.329,23.12c-0.797,0-1.445-0.648-1.445-1.445c0-0.797,0.648-1.445,1.445-1.445
		s1.445,0.648,1.445,1.445C10.772,22.472,10.124,23.12,9.329,23.12z M16.416,15.983c-0.797,0-1.445-0.648-1.445-1.445
		c0-0.797,0.648-1.445,1.445-1.445c0.797,0,1.445,0.648,1.445,1.445S17.212,15.983,16.416,15.983z M22.008,24.472
		c-0.797,0-1.445-0.648-1.445-1.445c0-0.797,0.648-1.445,1.445-1.445s1.445,0.648,1.445,1.445
		C23.452,23.824,22.804,24.472,22.008,24.472z M28.063,17.563c-0.797,0-1.445-0.648-1.445-1.445c0-0.797,0.648-1.445,1.445-1.445
		c0.797,0,1.445,0.648,1.445,1.445C29.507,16.915,28.859,17.563,28.063,17.563z"/>
</g>
</svg>
