<?xml version="1.0" encoding="utf-8"?>
<!-- Generator: Adobe Illustrator 23.0.1, SVG Export Plug-In . SVG Version: 6.00 Build 0)  -->
<svg version="1.1" id="Layer_1" xmlns="http://www.w3.org/2000/svg" xmlns:xlink="http://www.w3.org/1999/xlink" x="0px" y="0px"
	 viewBox="0 0 40 40" style="enable-background:new 0 0 40 40;" xml:space="preserve">
<style type="text/css">
	.st0{fill:#231F20;}
</style>
<path class="st0" d="M39.149,9.633H15.298c0.054-0.384,0.088-0.782,0.088-1.202c0-1.91-0.573-3.404-1.718-4.482
	s-2.729-1.617-4.75-1.617c-1.642,0-3.105,0.388-4.39,1.164C3.244,4.274,2.256,5.31,1.563,6.605C0.87,7.902,0.524,9.331,0.524,10.894
	c0,1.352,0.257,2.511,0.771,3.477s1.248,1.7,2.203,2.203c0.955,0.502,2.092,0.754,3.41,0.754c1.128,0,2.156-0.207,3.083-0.62v-1.575
	c-1.039,0.324-2,0.486-2.882,0.486c-1.464,0-2.586-0.411-3.368-1.232s-1.173-1.996-1.173-3.527c0-1.341,0.282-2.53,0.846-3.569
	s1.321-1.84,2.271-2.404C6.634,4.324,7.69,4.042,8.852,4.042c1.508,0,2.661,0.377,3.46,1.131s1.198,1.846,1.198,3.275
	c0,0.749-0.089,1.419-0.268,2.01c-0.179,0.593-0.416,1.047-0.712,1.366c-0.296,0.318-0.617,0.478-0.963,0.478
	c-0.212,0-0.377-0.053-0.494-0.16c-0.118-0.106-0.176-0.253-0.176-0.444c0-0.089,0.017-0.24,0.05-0.452l0.888-5.194h-1.709
	L9.874,6.689c-0.469-0.592-1.1-0.888-1.894-0.888c-0.67,0-1.296,0.246-1.876,0.737C5.523,7.03,5.068,7.658,4.739,8.423
	c-0.33,0.765-0.495,1.567-0.495,2.404c0,0.983,0.224,1.737,0.67,2.261c0.447,0.525,1.089,0.788,1.927,0.788
	c0.436,0,0.871-0.104,1.307-0.31c0.436-0.207,0.798-0.478,1.089-0.813c0.19,0.347,0.475,0.615,0.855,0.805
	c0.379,0.189,0.827,0.285,1.34,0.285c0.782,0,1.475-0.238,2.078-0.712c0.567-0.446,1.006-1.048,1.326-1.796h21.962L19.999,25.334
	l-9.735-8.116l-1.09,1.307l6.146,5.123L1.702,34.998V18.101H0v18.715c0,0.47,0.381,0.851,0.851,0.851h38.298
	c0.47,0,0.851-0.381,0.851-0.851V10.485C40,10.015,39.619,9.633,39.149,9.633z M9.036,10.978c-0.034,0.246-0.05,0.431-0.05,0.554
	c-0.402,0.491-0.855,0.737-1.357,0.737c-0.782,0-1.173-0.548-1.173-1.642c0-0.603,0.095-1.154,0.285-1.651S7.179,8.094,7.487,7.82
	c0.307-0.273,0.634-0.411,0.98-0.411c0.369,0,0.743,0.101,1.122,0.302L9.036,10.978z M24.677,23.652l13.621-11.351v22.698
	L24.677,23.652z M19.456,27.096c0.158,0.131,0.351,0.197,0.544,0.197s0.387-0.066,0.545-0.198l2.802-2.335l13.45,11.205H3.202
	L16.65,24.757L19.456,27.096z"/>
</svg>
