<?xml version="1.0" encoding="utf-8"?>
<!-- Generator: Adobe Illustrator 23.0.1, SVG Export Plug-In . SVG Version: 6.00 Build 0)  -->
<svg version="1.1" id="Layer_1" xmlns="http://www.w3.org/2000/svg" xmlns:xlink="http://www.w3.org/1999/xlink" x="0px" y="0px"
	 viewBox="0 0 40 40" style="enable-background:new 0 0 40 40;" xml:space="preserve">
<style type="text/css">
	.st0{fill:#231F20;}
</style>
<g>
	<path class="st0" d="M20,0.03c-11.029,0-20,8.973-20,20c0,4.008,1.182,7.875,3.416,11.183c0.202,0.299,0.533,0.462,0.87,0.462
		c0.201,0,0.406-0.058,0.586-0.179c0.48-0.323,0.606-0.975,0.281-1.455c-2-2.96-3.057-6.421-3.057-10.009
		c0-9.873,8.032-17.904,17.904-17.904s17.904,8.032,17.904,17.904c0,3.567-1.046,7.011-3.025,9.961
		c-0.322,0.48-0.194,1.133,0.287,1.455c0.481,0.322,1.133,0.194,1.455-0.287C38.831,27.865,40,24.017,40,20.031
		C40,9.003,31.029,0.03,20,0.03z M30.486,31.052v-3.813h-9.389v-4.12h9.473V12.011l0,0V9.533H9.527v2.478l0,0v11.107H19v4.12H9.515
		v3.813c-1.658,0.461-2.882,1.966-2.882,3.771c0,2.17,1.76,3.93,3.93,3.93s3.93-1.76,3.93-3.93c0-1.806-1.224-3.31-2.882-3.771
		v-1.717H19v2.919c-1.683,0.445-2.93,1.963-2.93,3.786c0,2.17,1.76,3.93,3.93,3.93s3.93-1.76,3.93-3.93
		c0-1.787-1.201-3.279-2.834-3.757v-2.949h7.293v1.717c-1.658,0.461-2.882,1.966-2.882,3.771c0,2.17,1.76,3.93,3.93,3.93
		s3.93-1.76,3.93-3.93C33.367,33.018,32.144,31.513,30.486,31.052z M12.398,34.822c0,1.011-0.823,1.834-1.834,1.834
		s-1.834-0.823-1.834-1.834c0-1.011,0.823-1.834,1.834-1.834C11.575,32.988,12.398,33.811,12.398,34.822z M28.473,19.883
		l-4.575-3.445l4.575-3.037V19.883z M27.353,11.629l-7.267,4.824l-7.327-4.824H27.353z M11.623,13.39l4.6,3.029l-4.6,3.463V13.39z
		 M21.834,36.039c0,1.011-0.823,1.834-1.834,1.834s-1.834-0.823-1.834-1.834s0.823-1.834,1.834-1.834S21.834,35.028,21.834,36.039z
		 M13.594,21.022l4.488-3.379l0.851,0.561c0.35,0.23,0.751,0.345,1.153,0.345c0.403,0,0.808-0.117,1.159-0.35l0.801-0.531
		l4.455,3.354H13.594z M29.437,36.657c-1.011,0-1.834-0.823-1.834-1.834c0-1.011,0.823-1.834,1.834-1.834
		c1.011,0,1.834,0.823,1.834,1.834C31.271,35.834,30.448,36.657,29.437,36.657z"/>
</g>
</svg>
