<?xml version="1.0" encoding="utf-8"?>
<!-- Generator: Adobe Illustrator 23.0.1, SVG Export Plug-In . SVG Version: 6.00 Build 0)  -->
<svg version="1.1" id="Layer_1" xmlns="http://www.w3.org/2000/svg" xmlns:xlink="http://www.w3.org/1999/xlink" x="0px" y="0px"
	 viewBox="0 0 40 40" style="enable-background:new 0 0 40 40;" xml:space="preserve">
<style type="text/css">
	.st0{fill:#231F20;}
</style>
<g>
	<path class="st0" d="M38.55,12.512c-0.224-0.557-0.859-0.824-1.415-0.601c-0.557,0.225-0.825,0.858-0.601,1.415
		c0.857,2.12,1.291,4.366,1.291,6.674c0,9.829-7.997,17.826-17.826,17.826c-9.83,0-17.826-7.997-17.826-17.826
		S10.169,2.174,19.999,2.174c2.021,0,4.002,0.335,5.891,0.997c0.566,0.195,1.187-0.101,1.385-0.666
		c0.199-0.567-0.101-1.186-0.666-1.385C24.489,0.377,22.266,0,20,0C8.971,0,0,8.971,0,20c0,11.027,8.971,20,20,20s20-8.971,20-20
		C39.999,17.411,39.512,14.891,38.55,12.512z M28.581,10.066c-2.298-2.002-5.294-3.224-8.582-3.224
		c-7.224,0-13.081,5.857-13.081,13.081s5.857,13.081,13.081,13.081S33.08,27.147,33.08,19.923c0-3.154-1.118-6.048-2.977-8.306
		l0.619-0.602c0.723,0.4,1.542,0.647,2.427,0.647c2.789,0,5.049-2.261,5.049-5.049s-2.261-5.049-5.049-5.049
		s-5.049,2.261-5.049,5.049c0,1.112,0.371,2.131,0.981,2.966L28.581,10.066z M33.151,3.737c1.585,0,2.875,1.29,2.875,2.875
		s-1.29,2.875-2.875,2.875s-2.875-1.29-2.875-2.875S31.565,3.737,33.151,3.737z M30.907,19.923c0,6.015-4.894,10.907-10.907,10.907
		S9.093,25.938,9.093,19.923S13.986,9.016,20,9.016c2.672,0,5.119,0.969,7.018,2.57l-3.153,3.065
		c-1.085-0.793-2.417-1.267-3.864-1.267c-3.623,0-6.56,2.937-6.56,6.56s2.937,6.56,6.56,6.56s6.56-2.937,6.56-6.56
		c0-1.391-0.435-2.679-1.174-3.739l3.145-3.057C30.014,15.009,30.907,17.362,30.907,19.923z M19.29,20.61
		c0.214,0.219,0.496,0.329,0.779,0.329c0.273,0,0.546-0.103,0.758-0.307l2.955-2.872c0.374,0.646,0.603,1.384,0.603,2.182
		c0,2.418-1.968,4.386-4.386,4.386c-2.418,0-4.386-1.968-4.386-4.386s1.968-4.386,4.386-4.386c0.832,0,1.601,0.246,2.265,0.649
		l-2.952,2.869C18.882,19.493,18.872,20.181,19.29,20.61z"/>
</g>
</svg>
