<?xml version="1.0" encoding="utf-8"?>
<!-- Generator: Adobe Illustrator 23.0.1, SVG Export Plug-In . SVG Version: 6.00 Build 0)  -->
<svg version="1.1" id="Layer_1" xmlns="http://www.w3.org/2000/svg" xmlns:xlink="http://www.w3.org/1999/xlink" x="0px" y="0px"
	 viewBox="0 0 40 40" style="enable-background:new 0 0 40 40;" xml:space="preserve">
<style type="text/css">
	.st0{fill:#231F20;}
</style>
<g>
	<path class="st0" d="M37.133,9.812L20.257,0.069C20.177,0.023,20.089,0,20,0s-0.177,0.023-0.257,0.069L2.867,9.812
		C2.708,9.903,2.61,10.073,2.61,10.256v19.487c0,0.184,0.098,0.353,0.257,0.445l16.876,9.743C19.823,39.977,19.911,40,20,40
		s0.177-0.023,0.257-0.069l16.876-9.743c0.159-0.091,0.257-0.262,0.257-0.445V10.256C37.39,10.073,37.292,9.904,37.133,9.812z
		 M35.335,28.854L20,37.708L4.665,28.854V11.147L20,2.293l15.335,8.854V28.854z M16.855,7.598c0,1.737,1.408,3.145,3.145,3.145
		c1.737,0,3.145-1.408,3.145-3.145S21.737,4.453,20,4.453S16.855,5.861,16.855,7.598z M21.09,7.598c0,0.601-0.489,1.09-1.09,1.09
		s-1.09-0.489-1.09-1.09s0.489-1.09,1.09-1.09S21.09,6.997,21.09,7.598z M32.425,23.671c-0.495-0.286-1.035-0.422-1.569-0.422
		c-1.087,0-2.144,0.565-2.727,1.573c-0.869,1.504-0.353,3.428,1.151,4.296c0.495,0.286,1.035,0.422,1.569,0.422
		c1.087,0,2.144-0.565,2.727-1.573C34.445,26.463,33.929,24.54,32.425,23.671z M31.797,26.941c-0.194,0.337-0.558,0.546-0.947,0.546
		c-0.191,0-0.374-0.049-0.542-0.146c-0.253-0.145-0.433-0.381-0.509-0.662c-0.075-0.281-0.037-0.575,0.109-0.827
		c0.198-0.342,0.552-0.546,0.947-0.546c0.191,0,0.374,0.049,0.542,0.146C31.919,25.752,32.097,26.42,31.797,26.941z M11.872,24.823
		c-0.583-1.009-1.64-1.574-2.727-1.573c-0.534,0-1.074,0.136-1.569,0.422c-1.504,0.869-2.019,2.792-1.151,4.296
		c0.583,1.009,1.64,1.573,2.727,1.573c0.534,0,1.074-0.136,1.569-0.422C12.224,28.251,12.739,26.328,11.872,24.823z M9.692,27.34
		c-0.168,0.097-0.351,0.146-0.543,0.146c-0.395,0-0.75-0.205-0.947-0.546c-0.301-0.521-0.121-1.189,0.399-1.489
		c0.168-0.097,0.351-0.146,0.543-0.146c0.395,0,0.75,0.205,0.947,0.546C10.393,26.371,10.214,27.039,9.692,27.34z M27.762,14.392
		l-5.663,3.115c-0.558-0.503-1.289-0.818-2.098-0.818c-0.81,0-1.542,0.314-2.098,0.818l-5.663-3.115
		c0.215-1.26-0.346-2.576-1.518-3.251c-0.495-0.286-1.035-0.422-1.569-0.422c-1.087,0-2.144,0.565-2.727,1.573
		c-0.869,1.504-0.353,3.428,1.151,4.296c0.495,0.286,1.035,0.422,1.569,0.422c0.77,0,1.517-0.296,2.099-0.819l5.664,3.115
		c-0.03,0.173-0.054,0.347-0.054,0.529c0,1.375,0.888,2.531,2.118,2.959v6.908c-1.23,0.427-2.118,1.584-2.118,2.959
		c0,1.737,1.408,3.145,3.145,3.145c1.737,0,3.145-1.408,3.145-3.145c0-1.375-0.888-2.531-2.118-2.959v-6.908
		c1.23-0.427,2.118-1.584,2.118-2.959c0-0.182-0.024-0.357-0.054-0.529l5.664-3.117c0.582,0.525,1.329,0.819,2.099,0.819
		c0.534,0,1.074-0.136,1.569-0.422c1.504-0.869,2.019-2.792,1.151-4.296c-0.583-1.009-1.64-1.573-2.727-1.573
		c-0.534,0-1.074,0.136-1.569,0.422C28.109,11.816,27.548,13.132,27.762,14.392z M10.092,14.409
		c-0.194,0.337-0.558,0.546-0.947,0.546c-0.191,0-0.374-0.049-0.542-0.146c-0.521-0.301-0.699-0.969-0.399-1.489
		c0.198-0.342,0.552-0.546,0.947-0.546c0.191,0,0.374,0.049,0.542,0.146C10.214,13.22,10.393,13.888,10.092,14.409z M21.09,32.661
		c0,0.601-0.489,1.09-1.09,1.09s-1.09-0.489-1.09-1.09c0-0.601,0.489-1.09,1.09-1.09C20.601,31.571,21.09,32.06,21.09,32.661z
		 M20,20.925c-0.601,0-1.09-0.489-1.09-1.09s0.489-1.09,1.09-1.09s1.09,0.489,1.09,1.09S20.601,20.925,20,20.925z M29.799,13.582
		c0.075-0.281,0.256-0.517,0.509-0.662c0.168-0.097,0.351-0.146,0.543-0.146c0.395,0,0.75,0.203,0.947,0.546
		c0.301,0.521,0.121,1.189-0.399,1.489c-0.168,0.097-0.351,0.146-0.542,0.146c-0.395,0-0.75-0.203-0.947-0.546
		C29.762,14.157,29.724,13.863,29.799,13.582z M12.972,12.24l3.709-2.141c-0.416-0.55-0.693-1.201-0.794-1.914l-4.175,2.41
		C12.279,11.04,12.704,11.605,12.972,12.24z M9.145,22.222c0.21,0,0.417,0.019,0.621,0.05v-4.287
		c-0.205,0.031-0.411,0.05-0.621,0.05c-0.49,0-0.975-0.095-1.433-0.264v4.712C8.17,22.317,8.655,22.222,9.145,22.222L9.145,22.222z
		 M11.912,29.521l4,2.31c0.142-0.697,0.471-1.32,0.914-1.845l-3.774-2.178C12.819,28.452,12.444,29.05,11.912,29.521z
		 M28.286,10.593l-4.173-2.409c-0.102,0.713-0.378,1.365-0.794,1.914l3.707,2.141C27.302,11.589,27.73,11.029,28.286,10.593z
		 M32.289,22.486v-4.712c-0.459,0.169-0.943,0.264-1.433,0.264c-0.21,0-0.417-0.019-0.621-0.05v4.287
		c0.205-0.031,0.411-0.05,0.622-0.05C31.347,22.222,31.83,22.317,32.289,22.486z M23.175,29.986
		c0.443,0.525,0.773,1.147,0.914,1.845l4-2.31c-0.522-0.461-0.903-1.052-1.142-1.713L23.175,29.986z"/>
</g>
</svg>
