<?xml version="1.0" encoding="utf-8"?>
<!-- Generator: Adobe Illustrator 23.0.1, SVG Export Plug-In . SVG Version: 6.00 Build 0)  -->
<svg version="1.1" id="Layer_1" xmlns="http://www.w3.org/2000/svg" xmlns:xlink="http://www.w3.org/1999/xlink" x="0px" y="0px"
	 viewBox="0 0 40 40" style="enable-background:new 0 0 40 40;" xml:space="preserve">
<style type="text/css">
	.st0{fill:#231F20;}
</style>
<g>
	<path class="st0" d="M30.581,26.282c-2.089,0-3.783,1.694-3.783,3.783c0,0.425,0.086,0.827,0.216,1.209l-4.212,2.432
		c-0.693-0.775-1.689-1.272-2.81-1.272c-1.133,0-2.137,0.507-2.83,1.296l-4.271-2.466c0.127-0.379,0.213-0.777,0.213-1.199
		c0-2.089-1.694-3.783-3.783-3.783s-3.783,1.694-3.783,3.783s1.694,3.783,3.783,3.783c0.899,0,1.714-0.327,2.364-0.851l4.583,2.646
		c-0.029,0.189-0.058,0.378-0.058,0.575c0,2.089,1.694,3.783,3.783,3.783s3.783-1.694,3.783-3.783c0-0.208-0.029-0.409-0.062-0.608
		l4.513-2.606c0.648,0.52,1.459,0.845,2.355,0.845c2.089,0,3.783-1.694,3.783-3.783C34.363,27.976,32.67,26.282,30.581,26.282z
		 M9.32,31.744c-0.926,0-1.679-0.753-1.679-1.679c0-0.926,0.753-1.679,1.679-1.679c0.926,0,1.679,0.753,1.679,1.679
		C10.999,30.991,10.246,31.744,9.32,31.744z M19.991,37.896c-0.926,0-1.679-0.753-1.679-1.679c0-0.926,0.753-1.679,1.679-1.679
		s1.679,0.753,1.679,1.679C21.67,37.143,20.917,37.896,19.991,37.896z M30.581,31.744c-0.926,0-1.679-0.753-1.679-1.679
		c0-0.926,0.753-1.679,1.679-1.679s1.679,0.753,1.679,1.679C32.26,30.991,31.506,31.744,30.581,31.744z M8.177,24.088
		c1.045-1.809,0.425-4.123-1.385-5.168c-0.366-0.21-0.753-0.336-1.145-0.416v-4.931c1.03-0.206,1.971-0.822,2.537-1.803
		c0.561-0.971,0.629-2.082,0.304-3.07L12.7,6.268c0.266,0.303,0.571,0.578,0.939,0.791c1.809,1.044,4.122,0.425,5.167-1.384
		c1.045-1.809,0.425-4.123-1.384-5.168c-1.809-1.044-4.123-0.425-5.168,1.385c-0.448,0.776-0.573,1.641-0.447,2.462L7.295,6.96
		C7.138,6.832,6.979,6.707,6.799,6.602C4.99,5.558,2.676,6.177,1.631,7.987c-1.045,1.809-0.425,4.122,1.385,5.167
		c0.17,0.098,0.349,0.168,0.527,0.238v5.291c-0.778,0.3-1.47,0.842-1.919,1.622c-1.045,1.809-0.425,4.123,1.385,5.167
		C4.818,26.517,7.133,25.897,8.177,24.088z M14.077,2.945c0.463-0.802,1.491-1.078,2.294-0.615c0.802,0.463,1.078,1.491,0.615,2.294
		c-0.463,0.802-1.491,1.078-2.294,0.615C13.89,4.776,13.615,3.747,14.077,2.945z M3.455,9.04c0.463-0.802,1.491-1.078,2.294-0.615
		c0.802,0.463,1.078,1.491,0.615,2.294c-0.463,0.802-1.491,1.078-2.294,0.615C3.268,10.87,2.992,9.842,3.455,9.04z M6.355,23.037
		c-0.463,0.801-1.491,1.078-2.294,0.615s-1.078-1.491-0.615-2.294c0.463-0.802,1.491-1.078,2.294-0.615
		C6.542,21.206,6.818,22.235,6.355,23.037z M38.376,20.306c-0.45-0.779-1.141-1.321-1.92-1.622v-5.291
		c0.178-0.07,0.357-0.138,0.527-0.238c1.809-1.044,2.43-3.358,1.385-5.167c-1.045-1.809-3.358-2.43-5.168-1.385
		c-0.181,0.104-0.339,0.23-0.496,0.358l-4.513-2.606c0.127-0.822,0.001-1.687-0.447-2.462c-1.045-1.809-3.358-2.43-5.167-1.385
		c-1.809,1.044-2.43,3.358-1.385,5.168c1.045,1.809,3.358,2.428,5.168,1.384c0.368-0.213,0.673-0.488,0.939-0.791l4.212,2.432
		c-0.325,0.987-0.257,2.098,0.304,3.07c0.566,0.981,1.507,1.596,2.537,1.803v4.931c-0.392,0.079-0.779,0.205-1.145,0.416
		c-1.809,1.044-2.43,3.358-1.385,5.168c1.045,1.809,3.358,2.428,5.167,1.384C38.801,24.428,39.42,22.115,38.376,20.306z
		 M25.309,5.239c-0.802,0.463-1.831,0.187-2.294-0.615S22.828,2.793,23.63,2.33c0.802-0.463,1.831-0.187,2.294,0.615
		C26.387,3.747,26.111,4.776,25.309,5.239z M33.639,10.719c-0.463-0.802-0.187-1.831,0.615-2.294
		c0.802-0.463,1.831-0.187,2.294,0.615c0.463,0.802,0.187,1.831-0.615,2.294C35.13,11.796,34.102,11.521,33.639,10.719z
		 M35.939,23.651c-0.802,0.463-1.831,0.187-2.294-0.615c-0.463-0.802-0.187-1.831,0.615-2.294c0.802-0.463,1.831-0.187,2.294,0.615
		C37.017,22.159,36.742,23.188,35.939,23.651z M12.225,23.191l7.826,4.519l7.826-4.519v-9.036l-7.826-4.519l-7.826,4.519V23.191z
		 M14.329,15.37l5.722-3.304l5.722,3.304v6.608l-5.722,3.304l-5.722-3.304V15.37z"/>
</g>
</svg>
