<?xml version="1.0" encoding="utf-8"?>
<!-- Generator: Adobe Illustrator 23.0.1, SVG Export Plug-In . SVG Version: 6.00 Build 0)  -->
<svg version="1.1" id="Layer_1" xmlns="http://www.w3.org/2000/svg" xmlns:xlink="http://www.w3.org/1999/xlink" x="0px" y="0px"
	 viewBox="0 0 40 40" style="enable-background:new 0 0 40 40;" xml:space="preserve">
<style type="text/css">
	.st0{fill:#231F20;}
</style>
<g>
	<path class="st0" d="M6.006,27.71c-1.203-2.17-1.887-4.585-1.984-7.095c-0.164-4.266,1.343-8.341,4.244-11.474
		c2.9-3.133,6.847-4.949,11.113-5.113c2.851-0.108,5.676,0.554,8.199,1.92l0.979-1.81c-2.846-1.541-6.059-2.293-9.256-2.166
		C14.485,2.157,10.03,4.207,6.756,7.743c-3.275,3.537-4.975,8.136-4.789,12.952c0.11,2.856,0.894,5.602,2.272,8.067l-3.752-0.877
		l-0.486,2.086l7.54,1.76l1.208-7.649l-2.116-0.336L6.006,27.71z M17.081,25.153h5.902c0.351,1.501,1.69,2.622,3.298,2.622
		c1.875,0,3.394-1.52,3.394-3.394c0-1.875-1.52-3.394-3.394-3.394c-0.346,0-0.673,0.067-0.988,0.163l-2.935-5.042
		c0.655-0.619,1.068-1.489,1.068-2.461c0-1.875-1.52-3.394-3.394-3.394c-1.875,0-3.394,1.52-3.394,3.394
		c0,0.972,0.414,1.842,1.068,2.461L14.77,21.15c-0.314-0.096-0.641-0.163-0.987-0.163c-1.875,0-3.394,1.52-3.394,3.394
		c0,1.875,1.52,3.394,3.394,3.394C15.391,27.775,16.731,26.654,17.081,25.153z M26.282,22.53c1.02,0,1.85,0.83,1.85,1.85
		c0,1.02-0.83,1.85-1.85,1.85c-1.02,0-1.85-0.83-1.85-1.85C24.431,23.36,25.261,22.53,26.282,22.53z M20.032,11.796
		c1.02,0,1.85,0.83,1.85,1.85c0,1.02-0.83,1.85-1.85,1.85s-1.85-0.83-1.85-1.85S19.012,11.796,20.032,11.796z M19.045,16.877
		c0.314,0.096,0.642,0.163,0.988,0.163s0.673-0.067,0.987-0.163l2.935,5.043c-0.475,0.449-0.818,1.031-0.972,1.689h-5.902
		c-0.154-0.658-0.497-1.241-0.972-1.689L19.045,16.877z M11.933,24.381c0-1.02,0.83-1.85,1.85-1.85s1.85,0.83,1.85,1.85
		c0,1.02-0.83,1.85-1.85,1.85S11.933,25.401,11.933,24.381z M39.999,10.05l-7.538-1.768l-1.215,7.647l2.115,0.339l0.629-3.964
		c1.199,2.167,1.881,4.577,1.977,7.081c0.338,8.806-6.55,16.247-15.356,16.587c-2.83,0.101-5.664-0.552-8.186-1.912l-0.977,1.811
		c2.642,1.426,5.586,2.171,8.558,2.171c0.227,0,0.456-0.005,0.683-0.014c9.941-0.383,17.716-8.782,17.334-18.723
		c-0.11-2.849-0.891-5.589-2.264-8.051l3.753,0.881L39.999,10.05z"/>
</g>
</svg>
