<?xml version="1.0" encoding="utf-8"?>
<!-- Generator: Adobe Illustrator 23.0.1, SVG Export Plug-In . SVG Version: 6.00 Build 0)  -->
<svg version="1.1" id="Layer_1" xmlns="http://www.w3.org/2000/svg" xmlns:xlink="http://www.w3.org/1999/xlink" x="0px" y="0px"
	 viewBox="0 0 40 40" style="enable-background:new 0 0 40 40;" xml:space="preserve">
<style type="text/css">
	.st0{fill:#231F20;}
</style>
<g>
	<g>
		<path class="st0" d="M31.686,21.64c-4.592,0-8.315,3.722-8.315,8.314c0,4.592,3.722,8.315,8.315,8.315
			c4.592,0,8.314-3.722,8.314-8.315C40,25.362,36.278,21.64,31.686,21.64z M31.686,36.167c-3.425,0-6.211-2.786-6.211-6.211
			s2.786-6.211,6.211-6.211s6.211,2.786,6.211,6.211C37.897,33.379,35.111,36.167,31.686,36.167z M22.395,16.649
			c0.603,0.313,1.278,0.508,2.005,0.508s1.401-0.194,2.005-0.508c1.734,0.488,3.271,1.605,4.473,3.134h1.995v-7.828h1.849v7.828
			h2.103V4.885c0-1.735-1.419-3.154-3.154-3.154H3.154C1.419,1.73,0,3.15,0,4.885v20.832c0,1.735,1.419,3.154,3.154,3.154h16.794
			v-2.103H3.154c-0.57,0-1.051-0.481-1.051-1.051V11.956h13.823v11.913c0,0.578,0.473,1.051,1.051,1.051h2.971v-1.577h-2.446v-2.999
			C18.758,18.526,20.455,17.196,22.395,16.649z M24.4,15.58c-1.544,0-2.799-1.256-2.799-2.799c0-1.543,1.256-2.799,2.799-2.799
			c1.544,0,2.799,1.256,2.799,2.799C27.2,14.323,25.944,15.58,24.4,15.58z M31.297,17.865c-1.016-1.038-2.193-1.853-3.48-2.381
			c0.592-0.746,0.96-1.678,0.96-2.705c0-2.417-1.96-4.376-4.376-4.376c-2.417,0-4.376,1.96-4.376,4.376
			c0,1.026,0.368,1.958,0.96,2.705c-1.287,0.528-2.464,1.343-3.48,2.381V7.639h13.793L31.297,17.865L31.297,17.865z M16.978,6.062
			c-0.578,0-1.051,0.473-1.051,1.051v2.739H2.104V4.885c0-0.57,0.481-1.051,1.051-1.051h30.517c0.57,0,1.051,0.481,1.051,1.051
			v4.968h-1.849V7.113c0-0.578-0.473-1.051-1.051-1.051H16.978z M3.568,21.64h5.255v-2.103H3.568V21.64z M11.978,15.331h-8.41v2.103
			h8.41V15.331z M13.825,19.537h-3.152v2.103h3.152V19.537z M33.967,27.122l-3.63,3.759l-1.674-1.671
			c-0.413-0.41-1.078-0.41-1.488,0.001c-0.41,0.412-0.409,1.076,0.001,1.488l2.431,2.426c0.198,0.197,0.465,0.307,0.743,0.307
			c0.003,0,0.007,0,0.01,0c0.282-0.002,0.551-0.119,0.746-0.321l4.373-4.528c0.403-0.418,0.392-1.083-0.025-1.487
			C35.035,26.694,34.371,26.705,33.967,27.122z"/>
	</g>
</g>
</svg>
