<?xml version="1.0" encoding="utf-8"?>
<!-- Generator: Adobe Illustrator 23.0.1, SVG Export Plug-In . SVG Version: 6.00 Build 0)  -->
<svg version="1.1" id="Layer_1" xmlns="http://www.w3.org/2000/svg" xmlns:xlink="http://www.w3.org/1999/xlink" x="0px" y="0px"
	 viewBox="0 0 40 40" style="enable-background:new 0 0 40 40;" xml:space="preserve">
<style type="text/css">
	.st0{fill:#231F20;}
</style>
<path class="st0" d="M39.992,24.619c-0.064-0.568-0.449-1.02-0.949-1.21C38.035,14.999,31.055,8.67,22.508,8.58
	c-0.061,0-0.12-0.001-0.18-0.001c-9.209,0-16.751,7.443-16.848,16.683v0.146c-0.618,0.313-1.276,0.61-1.929,0.895
	c-1.93,0.843-3.325,1.451-3.529,2.529c-0.051,0.269-0.059,0.798,0.455,1.312c0.948,0.947,2.79,1.276,4.586,1.276
	c0.76,0,1.512-0.059,2.184-0.155c1.762-0.174,3.487-0.761,5.037-1.732c2.452-1.775,7.976-2.436,10.856-2.215
	c1.725,0.133,3.802,1.035,5.471,1.76c1.214,0.527,2.262,0.982,3.035,1.094l0.091,0.007c1.598,0.058,3.222-0.027,4.795-0.252
	l0.303-0.037c0.379-0.048,0.736-0.093,1.126-0.096l0.665-0.058c0.771-0.053,1.373-0.7,1.371-1.47v-3.481L39.992,24.619z
	 M22.49,10.282c7.616,0.08,13.848,5.671,14.839,13.131l-0.897,0.082c-0.069,0.007-0.141,0.015-0.211,0.024v-0.069
	c0-0.798-0.649-1.447-1.446-1.447h-0.727c-2.109-5.918-7.789-9.96-14.081-9.96c-0.079,0-0.158,0.001-0.236,0.002
	c-2.409,0.017-4.785,0.555-6.936,1.617c2.693-2.19,6.022-3.38,9.531-3.38C22.381,10.281,22.436,10.282,22.49,10.282z M34.519,23.705
	v1.361h-2.902v-1.361H34.519z M7.045,29.577c-2.474,0.354-4.436,0.021-5.211-0.516c0.448-0.346,1.598-0.848,2.398-1.197
	c0.672-0.293,1.353-0.603,2.01-0.934c1.166,0.858,2.486,1.479,3.882,1.825C9.157,29.183,8.12,29.47,7.045,29.577z M38.298,28.058
	l-0.409,0.038c-0.421,0-0.85,0.054-1.264,0.106l-0.312,0.038c-1.477,0.211-2.981,0.293-4.462,0.241
	c-0.555-0.093-1.529-0.517-2.559-0.964c-1.786-0.775-4.009-1.741-6.018-1.896c-2.775-0.214-7.596,0.313-10.642,1.754
	c-1.694-0.025-3.347-0.518-4.777-1.406v-0.601c0.018-3.803,1.836-7.44,4.866-9.738c2.108-1.233,4.51-1.884,6.969-1.884h0.052
	c0.07-0.001,0.14-0.002,0.21-0.002c5.387,0,10.264,3.323,12.284,8.257h-0.874c-0.726,0-1.323,0.54-1.425,1.238
	c-0.149-0.056-0.289-0.108-0.45-0.17c-1.841-0.707-4.364-1.672-7.281-1.5c-4.36,0.257-6.387,0.503-8.032,0.976l0.47,1.636
	c1.51-0.433,3.444-0.663,7.664-0.913c2.545-0.152,4.873,0.738,6.569,1.39c0.378,0.145,0.717,0.271,1.04,0.384v0.278
	c0,0.797,0.649,1.446,1.446,1.446h3.414c0.797,0,1.446-0.649,1.446-1.446v-0.09c0.013-0.002,0.027-0.003,0.04-0.004
	c0.111-0.013,0.221-0.027,0.336-0.037l1.701-0.173V28.058z"/>
</svg>
