<?xml version="1.0" encoding="utf-8"?>
<!-- Generator: Adobe Illustrator 23.0.1, SVG Export Plug-In . SVG Version: 6.00 Build 0)  -->
<svg version="1.1" id="Layer_1" xmlns="http://www.w3.org/2000/svg" xmlns:xlink="http://www.w3.org/1999/xlink" x="0px" y="0px"
	 viewBox="0 0 40 40" style="enable-background:new 0 0 40 40;" xml:space="preserve">
<style type="text/css">
	.st0{fill:#231F20;}
</style>
<g>
	<path class="st0" d="M29.074,14.71H23.07c-0.525-2.23-2.515-3.895-4.906-3.895c-2.79,0-5.051,2.262-5.051,5.051
		s2.262,5.051,5.051,5.051c2.459,0,4.504-1.76,4.954-4.088h5.955v-2.12H29.074z M18.165,18.8c-1.616,0-2.931-1.315-2.931-2.931
		s1.315-2.931,2.931-2.931s2.931,1.315,2.931,2.931S19.781,18.8,18.165,18.8z M18.165,22.867c-3.859,0-6.999-3.139-6.999-7
		c0-3.859,3.139-6.999,6.999-6.999c2.858,0,5.318,1.725,6.403,4.185h2.267c-1.186-3.658-4.618-6.305-8.671-6.305
		c-5.037,0-9.119,4.083-9.119,9.119c0,5.037,4.082,9.119,9.119,9.119c4.162,0,7.665-2.791,8.759-6.601h-2.235
		C23.673,21.003,21.135,22.867,18.165,22.867z M5.35,2.649h26.319V21.44h2.12V1.572c0-0.574-0.47-1.043-1.043-1.043H4.274
		c-0.574,0-1.043,0.47-1.043,1.043v4.133H1.264C0.568,5.705,0,6.272,0,6.967v4.722c0,0.696,0.567,1.263,1.264,1.263h1.967v5.518
		H1.264C0.568,18.47,0,19.037,0,19.733v4.722c0,0.697,0.567,1.264,1.264,1.264h1.967v4.728c0,0.574,0.47,1.044,1.043,1.044h16.754
		v-2.12H5.35V2.649z M3.23,23.601H2.119v-3.01H3.23V23.601z M3.23,10.834H2.119V7.825H3.23V10.834z M39.977,35.297l-5.83-5.83
		c0.337-1.224,0.319-2.595-0.382-4.046c-0.778-1.609-2.283-2.825-4.039-3.162c-0.389-0.074-0.771-0.11-1.147-0.11
		c-3.463,0-6.215,3.045-5.725,6.602c0.304,2.206,1.935,4.085,4.071,4.717c0.566,0.167,1.119,0.243,1.654,0.243
		c0.651,0,1.275-0.113,1.859-0.312c0.001,0,0.002,0,0.003,0c0.006,0,0.01,0.004,0.01,0.01v1.887h2.146v2.031h1.469v0.675h1.645
		v0.529h0.939v0.939H40v-4.175L39.977,35.297L39.977,35.297z M38.41,37.882h-0.169v-0.939h-0.939v-0.529h-1.645v-0.675h-1.469
		v-2.031h-2.146V33.41l-0.01-1.6h-1.59l-0.266,0.001l-0.249,0.085c-0.442,0.151-0.896,0.226-1.347,0.226
		c-0.399,0-0.803-0.059-1.203-0.178c-1.544-0.457-2.728-1.826-2.946-3.408c-0.17-1.238,0.181-2.431,0.989-3.358
		c0.798-0.914,1.95-1.439,3.161-1.439l0,0c0.28,0,0.565,0.027,0.847,0.082c1.224,0.235,2.338,1.113,2.907,2.293
		c0.466,0.965,0.558,1.924,0.281,2.931l-0.246,0.893l0.655,0.655l5.386,5.386V37.882z M27.952,24.576
		c-1.381,0-2.501,1.12-2.501,2.501c0,1.381,1.12,2.501,2.501,2.501c1.381,0,2.501-1.12,2.501-2.501
		C30.453,25.695,29.333,24.576,27.952,24.576z M27.952,27.987c-0.503,0-0.911-0.409-0.911-0.911s0.409-0.911,0.911-0.911
		c0.502,0,0.911,0.409,0.911,0.911S28.455,27.987,27.952,27.987z"/>
</g>
</svg>
