<?xml version="1.0" encoding="utf-8"?>
<!-- Generator: Adobe Illustrator 23.0.1, SVG Export Plug-In . SVG Version: 6.00 Build 0)  -->
<svg version="1.1" id="Layer_1" xmlns="http://www.w3.org/2000/svg" xmlns:xlink="http://www.w3.org/1999/xlink" x="0px" y="0px"
	 viewBox="0 0 40 40" style="enable-background:new 0 0 40 40;" xml:space="preserve">
<style type="text/css">
	.st0{fill:#231F20;}
</style>
<path class="st0" d="M8.231,33.423c0.076,0.001,0.156-0.009,0.229-0.028c3.281-0.083,6.165-2.088,7.394-5.102h13.222
	c0.248,0,0.484-0.109,0.646-0.297l1.923-2.246c0.303-0.354,0.265-0.886-0.086-1.193l-2.552-2.237
	c-0.155-0.136-0.355-0.211-0.561-0.211h-1.579l-1.682-1.676c-0.333-0.332-0.871-0.33-1.202,0.002l-1.673,1.674h-0.572l-1.673-1.674
	c-0.333-0.332-0.871-0.332-1.202-0.002l-1.682,1.676h-1.323c-1.595-3.945-6.001-6.064-10.121-4.751
	c-2.094,0.666-3.803,2.109-4.812,4.061s-1.198,4.18-0.531,6.274C1.484,31.121,4.633,33.423,8.231,33.423z M6.251,18.978
	c0.656-0.209,1.321-0.308,1.975-0.308c2.765,0,5.34,1.774,6.222,4.547c0.113,0.352,0.44,0.592,0.811,0.592h2.271
	c0.225,0,0.441-0.089,0.6-0.248l1.33-1.324l1.323,1.323c0.16,0.16,0.376,0.249,0.602,0.249h1.276c0.226,0,0.442-0.09,0.602-0.249
	l1.323-1.323l1.329,1.324c0.16,0.159,0.376,0.248,0.601,0.248h1.611l1.679,1.472l-1.121,1.309H15.26
	c-0.369,0-0.696,0.238-0.81,0.589c-0.872,2.702-3.364,4.516-6.201,4.516H8.242c-0.083-0.004-0.127,0.008-0.188,0.023
	c-2.78-0.074-5.192-1.88-6.041-4.544C0.922,23.747,2.823,20.07,6.251,18.978z M5.995,28.293c0.081,0,0.16-0.012,0.234-0.035
	c1.581-0.12,2.844-1.443,2.863-3.062c0-1.708-1.389-3.097-3.097-3.097c-1.707,0-3.097,1.389-3.097,3.097S4.287,28.293,5.995,28.293z
	 M5.995,23.8c0.769,0,1.395,0.626,1.395,1.386c-0.009,0.76-0.635,1.379-1.395,1.379c-0.056,0-0.112,0.006-0.165,0.016
	C5.138,26.5,4.6,25.91,4.6,25.196C4.6,24.427,5.225,23.8,5.995,23.8z M34.019,13.498c1.708,0,3.097-1.389,3.097-3.097
	s-1.389-3.097-3.097-3.097c-0.081,0-0.159,0.012-0.232,0.034c-1.582,0.119-2.846,1.444-2.865,3.063
	C30.922,12.109,32.312,13.498,34.019,13.498z M34.019,9.031c0.056,0,0.111-0.005,0.164-0.016c0.693,0.081,1.232,0.672,1.232,1.386
	c0,0.769-0.626,1.395-1.396,1.395s-1.395-0.626-1.395-1.385C32.632,9.65,33.259,9.031,34.019,9.031z M11.005,13.286
	c0.155,0.137,0.355,0.212,0.562,0.212h1.571l1.682,1.675c0.333,0.331,0.87,0.331,1.202-0.001l1.674-1.674h0.572l1.673,1.674
	c0.332,0.333,0.87,0.333,1.201,0.001l1.683-1.675h1.324c1.277,3.15,4.346,5.131,7.628,5.131c0.828,0,1.67-0.126,2.5-0.391
	c4.32-1.382,6.712-6.021,5.331-10.342c-1.094-3.423-4.243-5.722-7.836-5.722c-0.066,0.007-0.153,0.01-0.226,0.029
	c-3.276,0.089-6.155,2.093-7.385,5.102H10.938c-0.248,0-0.485,0.109-0.646,0.297L8.369,9.848c-0.302,0.354-0.265,0.885,0.084,1.192
	L11.005,13.286z M11.329,9.006h13.425c0.369,0,0.695-0.238,0.809-0.589c0.875-2.701,3.369-4.516,6.209-4.516h0.001
	c0.064,0,0.127-0.008,0.189-0.023c2.77,0.079,5.177,1.881,6.026,4.536c1.095,3.427-0.802,7.107-4.229,8.202
	c-3.422,1.097-7.106-0.801-8.203-4.229c-0.112-0.352-0.44-0.592-0.81-0.592h-2.271c-0.225,0-0.441,0.089-0.6,0.248l-1.33,1.324
	l-1.323-1.323c-0.16-0.16-0.376-0.249-0.602-0.249h-1.276c-0.226,0-0.442,0.09-0.602,0.249l-1.323,1.323l-1.33-1.324
	c-0.16-0.159-0.375-0.248-0.6-0.248h-1.601l-1.681-1.479L11.329,9.006z M38.298,32.955v3.139H1.715v-3.139H0.014v3.99
	c0,0.47,0.381,0.851,0.851,0.851H39.15c0.47,0,0.851-0.381,0.851-0.851v-3.99H38.298z"/>
</svg>
