<?xml version="1.0" encoding="utf-8"?>
<!-- Generator: Adobe Illustrator 23.0.1, SVG Export Plug-In . SVG Version: 6.00 Build 0)  -->
<svg version="1.1" id="Layer_1" xmlns="http://www.w3.org/2000/svg" xmlns:xlink="http://www.w3.org/1999/xlink" x="0px" y="0px"
	 viewBox="0 0 40 40" style="enable-background:new 0 0 40 40;" xml:space="preserve">
<style type="text/css">
	.st0{fill:#231F20;}
</style>
<g>
	<path class="st0" d="M27.28,20.357V8.609L16.232,4.216L5.184,8.609v15.993c0,6.066,4.918,10.984,10.984,10.984h0.127
		c1.419,0,2.77-0.278,4.016-0.768c-0.262-0.599-0.465-1.226-0.614-1.877c-0.778,0.319-1.61,0.534-2.479,0.623V6.733l8.086,3.216
		v11.158C25.931,20.793,26.592,20.542,27.28,20.357z M15.246,33.565c-4.535-0.464-8.085-4.306-8.085-8.962V9.949l8.085-3.215V33.565
		z M21.534,36.908c-1.595,0.713-3.358,1.118-5.215,1.118h-0.171c-7.079,0-12.838-5.759-12.838-12.838V7.264l12.923-5.139
		l12.923,5.139v12.761c0.29-0.024,0.582-0.045,0.878-0.045c0.37,0,0.736,0.02,1.097,0.057V5.925L16.233,0L1.335,5.925v19.263
		C1.335,33.368,7.967,40,16.147,40h0.171c2.375,0,4.611-0.573,6.601-1.567C22.41,37.971,21.946,37.461,21.534,36.908z
		 M30.033,21.957c-4.767,0-8.632,3.865-8.632,8.632c0,4.768,3.865,8.632,8.632,8.632c4.768,0,8.632-3.865,8.632-8.632
		C38.665,25.821,34.801,21.957,30.033,21.957z M30.033,37.246c-3.671,0-6.657-2.986-6.657-6.657s2.986-6.657,6.657-6.657
		s6.657,2.986,6.657,6.657S33.704,37.246,30.033,37.246z M30.878,26.946H29.19v2.814h-2.843v1.645h2.843v2.83h1.688v-2.83h2.843
		v-1.645h-2.843V26.946z"/>
</g>
</svg>
