<?xml version="1.0" encoding="utf-8"?>
<!-- Generator: Adobe Illustrator 23.0.1, SVG Export Plug-In . SVG Version: 6.00 Build 0)  -->
<svg version="1.1" id="Layer_1" xmlns="http://www.w3.org/2000/svg" xmlns:xlink="http://www.w3.org/1999/xlink" x="0px" y="0px"
	 viewBox="0 0 40 40" style="enable-background:new 0 0 40 40;" xml:space="preserve">
<style type="text/css">
	.st0{fill:#231F20;}
</style>
<g>
	<path class="st0" d="M36.847,5.199H3.153C1.419,5.199,0,6.618,0,8.353v23.295c0,1.734,1.419,3.153,3.153,3.153h33.694
		c1.734,0,3.153-1.419,3.153-3.153V8.353C40,6.618,38.581,5.199,36.847,5.199z M37.897,31.647c0,0.57-0.481,1.051-1.051,1.051H3.152
		c-0.57,0-1.051-0.481-1.051-1.051V8.353c0-0.57,0.481-1.051,1.051-1.051h33.694c0.57,0,1.051,0.481,1.051,1.051V31.647z
		 M10.521,25.99v1.6h1.577v-1.6c1.066-0.336,1.843-1.321,1.843-2.499c0-1.454-1.178-2.632-2.632-2.632s-2.632,1.178-2.632,2.632
		C8.677,24.668,9.455,25.653,10.521,25.99z M11.309,22.435c0.583,0,1.056,0.473,1.056,1.056s-0.473,1.056-1.056,1.056
		c-0.582,0-1.056-0.474-1.056-1.056C10.253,22.909,10.727,22.435,11.309,22.435z M18.227,18.026h-1.168v-3.642
		c0-3.205-2.622-5.826-5.826-5.826H11.23c-3.202,0-5.823,2.619-5.823,5.823v3.645H4.239c-0.578,0-1.051,0.473-1.051,1.051v10.422
		c0,0.578,0.473,1.051,1.051,1.051h13.989c0.578,0,1.051-0.473,1.051-1.051V19.076C19.279,18.499,18.806,18.026,18.227,18.026z
		 M7.509,14.381c0-2.051,1.669-3.721,3.721-3.721h0.003c2.054,0,3.723,1.671,3.723,3.725v3.642H7.509V14.381z M17.176,21.716h-2.149
		v1.577h2.149v1.762h-2.149v1.576h2.149v1.816H5.289v-8.32h11.887V21.716z M30.512,15.492h-8.425v1.576h8.425V15.492z
		 M28.409,19.667h-6.322v1.576h6.322V19.667z M30.512,21.243h4.221v-1.576h-4.221V21.243z M32.631,17.069h2.102v-1.576h-2.102
		V17.069z M22.087,25.076h10.527V23.5H22.087V25.076z"/>
</g>
</svg>
