<?xml version="1.0" encoding="utf-8"?>
<!-- Generator: Adobe Illustrator 23.0.1, SVG Export Plug-In . SVG Version: 6.00 Build 0)  -->
<svg version="1.1" id="Layer_1" xmlns="http://www.w3.org/2000/svg" xmlns:xlink="http://www.w3.org/1999/xlink" x="0px" y="0px"
	 viewBox="0 0 40 40" style="enable-background:new 0 0 40 40;" xml:space="preserve">
<path d="M29.072,30.202l9.566,9.566l1.131-1.131l-9.566-9.566L29.072,30.202z M11.973,10.839L1.372,0.238L0.241,1.369L10.842,11.97
	L11.973,10.839z M8.234,30.658l-5.6,5.6l1.131,1.131l5.6-5.6L8.234,30.658z M31.765,9.392l5.6-5.6L36.234,2.66l-5.6,5.6
	L31.765,9.392z M38.347,19.2c-0.157-3.499-1.299-6.964-3.451-9.944L33.6,10.192c1.951,2.701,2.992,5.837,3.149,9.008H35.2v1.6h1.551
	c-0.146,3.19-1.189,6.347-3.151,9.064l1.304,0.924c2.158-2.994,3.298-6.475,3.445-9.988H40v-1.6H38.347z M34.92,30.8l-0.016-0.012
	c-0.003,0.004-0.005,0.008-0.008,0.012H34.92z M19.2,3.253V4.8h1.6V3.253c3.179,0.151,6.324,1.192,9.032,3.147l0.944-1.296
	c-2.989-2.16-6.466-3.302-9.976-3.455V0h-1.6v1.649c-3.51,0.152-6.987,1.295-9.976,3.455L10.168,6.4
	C12.876,4.446,16.021,3.404,19.2,3.253z M20.8,36.771V35.2h-1.6v1.571c-3.179-0.151-6.324-1.192-9.032-3.147L9.224,34.92
	c2.916,2.116,6.388,3.304,9.976,3.451V40h1.6v-1.629c3.588-0.147,7.06-1.335,9.976-3.451l-0.944-1.296
	C27.124,35.578,23.979,36.62,20.8,36.771z M6.4,29.864C4.438,27.147,3.396,23.99,3.249,20.8H4.8v-1.6H3.251
	c0.156-3.171,1.198-6.307,3.149-9.008L5.08,9.256c-2.152,2.98-3.294,6.445-3.451,9.944H0v1.6h1.627c0.147,3.518,1.29,7.004,3.453,10
	L6.4,29.864z M11.936,19.832c-1.809,3.302-0.848,7.435,2.232,9.6c1.562,1.058,3.257,1.905,5.04,2.52
	C19.295,31.984,19.387,32,19.48,32c0.016,0,0.031-0.008,0.047-0.009L19.528,32c0.336,0,8.336-0.72,9.904-6.808
	c2.016-7.824-2.024-10.128-2.2-10.224c-0.235-0.125-0.517-0.125-0.752,0c-0.239,0.126-0.398,0.363-0.424,0.632
	C26,16.085,25.914,16.566,25.8,17.04c-0.366-3.907-2.763-7.318-6.288-9.002c-1.07-0.865-2.362-1.449-3.768-1.638
	c-0.308-0.068-0.626,0.052-0.814,0.305c-0.263,0.355-0.189,0.856,0.166,1.119c1.702,1.658,2.42,4.082,1.896,6.4
	c-0.944-1.216-2.408-2.688-4.144-2.688c-0.098,0-0.194,0.018-0.286,0.054c-0.412,0.159-0.617,0.622-0.458,1.034
	c0.464,1.216,1.384,4.752,0.072,6.816C12.088,19.568,12.016,19.704,11.936,19.832z M22.081,11.959
	c1.434,1.702,2.633,4.369,1.991,8.361c-0.039,0.228,0.023,0.462,0.17,0.64c0.28,0.342,0.784,0.392,1.126,0.112
	c1.041-1.016,1.743-2.329,2.008-3.76c0.768,1.088,1.568,3.36,0.504,7.488c-1.048,4.067-6.01,5.227-7.816,5.514
	c-0.428-1.555-1.298-5.856,0.848-9.794C22.427,17.728,22.831,14.575,22.081,11.959z M13.328,20.592l0.192-0.328
	c1.336-2.112,0.96-4.992,0.536-6.736c1.045,0.799,1.911,1.807,2.544,2.96c0.095,0.18,0.255,0.317,0.447,0.383
	c0.418,0.144,0.873-0.078,1.017-0.495c0.991-2.448,0.898-5.201-0.256-7.576c1.019,0.592,1.832,1.483,2.328,2.552
	c1.136,2.352,0.88,5.576-0.656,8.408c-1.582,3.12-2.007,6.7-1.2,10.104c-1.124-0.47-2.196-1.054-3.2-1.744
	C12.659,26.426,11.904,23.181,13.328,20.592z"/>
</svg>
