<?xml version="1.0" encoding="utf-8"?>
<!-- Generator: Adobe Illustrator 23.0.1, SVG Export Plug-In . SVG Version: 6.00 Build 0)  -->
<svg version="1.1" id="Layer_1" xmlns="http://www.w3.org/2000/svg" xmlns:xlink="http://www.w3.org/1999/xlink" x="0px" y="0px"
	 viewBox="0 0 40 40" style="enable-background:new 0 0 40 40;" xml:space="preserve">
<style type="text/css">
	.st0{fill:#231F20;}
</style>
<path class="st0" d="M33.621,0H6.379C5.06,0,3.987,1.073,3.987,2.392v35.217C3.987,38.927,5.06,40,6.379,40h27.242
	c1.319,0,2.392-1.073,2.392-2.391V2.392C36.013,1.073,34.94,0,33.621,0z M34.311,37.609c0,0.38-0.309,0.689-0.69,0.689H6.379
	c-0.38,0-0.689-0.309-0.689-0.689V2.392c0-0.38,0.309-0.689,0.689-0.689h27.242c0.381,0,0.69,0.309,0.69,0.689V37.609z
	 M12.838,4.808c-1.331,0-2.414,1.078-2.425,2.406c0,0.01,0,0.02,0,0.029c0,1.333,1.084,2.417,2.426,2.417
	c1.338,0,2.426-1.088,2.426-2.426S14.176,4.808,12.838,4.808z M12.83,7.958c-0.39,0-0.708-0.313-0.715-0.701
	c0-0.007,0-0.015,0-0.022c0-0.399,0.325-0.723,0.723-0.723c0.399,0,0.723,0.325,0.723,0.723S13.237,7.958,12.83,7.958z M16.342,17.3
	c0.16-0.16,0.25-0.377,0.249-0.603c0-0.226-0.091-0.443-0.251-0.603l-1.102-1.095V14.34c2.782-1.223,4.251-4.384,3.305-7.341
	c-0.49-1.531-1.547-2.779-2.975-3.515s-3.059-0.871-4.589-0.382C8.476,3.903,6.795,6.207,6.796,8.834
	c0,0.062,0.007,0.122,0.019,0.18c0.068,2.345,1.474,4.403,3.598,5.327v9.062c0,0.249,0.108,0.484,0.297,0.646l1.566,1.345
	c0.16,0.138,0.358,0.205,0.554,0.205c0.237,0,0.472-0.098,0.64-0.29l1.575-1.796c0.136-0.155,0.211-0.355,0.211-0.561v-0.96
	l1.089-1.095c0.33-0.333,0.33-0.87-0.002-1.202l-1.104-1.104v-0.189L16.342,17.3z M14.128,12.943
	c-0.352,0.113-0.592,0.44-0.592,0.811v1.6c0,0.226,0.091,0.444,0.251,0.604l0.748,0.743l-0.749,0.75
	c-0.16,0.16-0.249,0.376-0.249,0.602v0.893c0,0.226,0.09,0.442,0.249,0.602l0.753,0.753L13.8,21.042
	c-0.158,0.16-0.247,0.376-0.247,0.6v0.991l-0.808,0.922l-0.63-0.541v-9.26c0-0.371-0.24-0.699-0.594-0.811
	c-1.799-0.57-3.007-2.221-3.007-4.108c0-0.05-0.005-0.1-0.014-0.149c0.061-1.822,1.25-3.403,2.997-3.962
	c2.268-0.727,4.7,0.528,5.425,2.794C17.647,9.784,16.394,12.217,14.128,12.943z M31.961,23.141h-2.349l-0.001-2.262
	c0.087-2.72-2.054-5.022-4.833-5.133c-2.746,0.084-4.914,2.385-4.834,5.106v2.29h-2.341c-0.47,0-0.851,0.381-0.851,0.851v11.966
	c0,0.47,0.381,0.851,0.851,0.851H31.96c0.47,0,0.851-0.381,0.851-0.851V23.992C32.812,23.521,32.432,23.141,31.961,23.141z
	 M21.647,20.826c-0.054-1.809,1.375-3.325,3.123-3.38c1.789,0.073,3.198,1.588,3.141,3.405v2.29h-6.263L21.647,20.826L21.647,20.826
	z M31.11,35.106H18.455V24.843H31.11V35.106z M23.936,30.792v2.604h1.702v-2.608c0.312-0.12,0.599-0.3,0.841-0.545
	c0.449-0.455,0.694-1.056,0.691-1.695c-0.007-1.304-1.073-2.371-2.404-2.379c-1.318,0.007-2.385,1.086-2.379,2.405
	C22.393,29.591,23.038,30.451,23.936,30.792z M24.782,27.872c0.376,0.002,0.684,0.309,0.686,0.685v0.001
	c0.001,0.185-0.07,0.357-0.199,0.489c-0.13,0.13-0.303,0.204-0.486,0.204H24.78c-0.379,0-0.688-0.307-0.691-0.685
	C24.087,28.186,24.395,27.875,24.782,27.872z"/>
</svg>
