<?xml version="1.0" encoding="utf-8"?>
<!-- Generator: Adobe Illustrator 23.0.1, SVG Export Plug-In . SVG Version: 6.00 Build 0)  -->
<svg version="1.1" id="Layer_1" xmlns="http://www.w3.org/2000/svg" xmlns:xlink="http://www.w3.org/1999/xlink" x="0px" y="0px"
	 viewBox="0 0 40 40" style="enable-background:new 0 0 40 40;" xml:space="preserve">
<style type="text/css">
	.st0{fill:#231F20;}
</style>
<path class="st0" d="M10.222,30.219c-0.004,0-0.008,0-0.012,0l0,0c-4.456-0.006-8.362-2.861-9.719-7.105
	c-0.831-2.599-0.6-5.366,0.65-7.792s3.371-4.219,5.969-5.05c2.599-0.831,5.367-0.599,7.792,0.65
	c2.239,1.154,3.939,3.049,4.841,5.378h1.932l2.202-2.195c0.333-0.331,0.871-0.33,1.203,0.001l2.194,2.194h0.922l2.202-2.195
	c0.333-0.331,0.871-0.33,1.203,0.001l2.194,2.194h2.091c0.206,0,0.406,0.075,0.56,0.21l3.261,2.852
	c0.352,0.308,0.39,0.841,0.086,1.195l-2.444,2.852c-0.162,0.189-0.398,0.298-0.647,0.298H19.744
	C18.224,27.627,14.474,30.219,10.222,30.219z M10.211,28.516c0.004,0,0.007,0,0.011,0c3.718,0,6.976-2.378,8.108-5.921
	c0.113-0.353,0.441-0.592,0.811-0.592h17.172l1.64-1.915l-2.386-2.086h-2.123c-0.226,0-0.442-0.09-0.602-0.249L31,15.91l-1.85,1.844
	c-0.16,0.159-0.376,0.248-0.601,0.248h-1.626c-0.226,0-0.442-0.09-0.602-0.249l-1.842-1.842l-1.85,1.844
	c-0.16,0.159-0.376,0.248-0.601,0.248h-2.886c-0.37,0-0.698-0.239-0.811-0.592c-0.693-2.166-2.187-3.933-4.209-4.975
	C12.1,11.392,9.793,11.2,7.629,11.893c-2.166,0.693-3.933,2.187-4.975,4.208c-1.042,2.022-1.234,4.327-0.542,6.493
	C3.243,26.132,6.498,28.512,10.211,28.516L10.211,28.516z M7.359,23.705c-0.046,0-0.091-0.003-0.136-0.011
	c-1.979-0.072-3.568-1.704-3.568-3.701c0-2.042,1.662-3.703,3.703-3.703s3.703,1.662,3.703,3.703
	C11.062,22.044,9.401,23.705,7.359,23.705z M7.359,17.993c-1.103,0-2.001,0.898-2.001,2s0.898,2.001,2.001,2.001
	c0.034,0,0.067,0.002,0.1,0.006c1.057-0.052,1.9-0.929,1.9-1.998C9.36,18.891,8.462,17.993,7.359,17.993z"/>
</svg>
