<?xml version="1.0" encoding="utf-8"?>
<!-- Generator: Adobe Illustrator 23.0.1, SVG Export Plug-In . SVG Version: 6.00 Build 0)  -->
<svg version="1.1" id="Layer_1" xmlns="http://www.w3.org/2000/svg" xmlns:xlink="http://www.w3.org/1999/xlink" x="0px" y="0px"
	 viewBox="0 0 40 40" style="enable-background:new 0 0 40 40;" xml:space="preserve">
<path d="M27.528,20.68c-0.091-0.049-0.19-0.08-0.293-0.092c-0.439-0.048-0.834,0.269-0.883,0.708
	c-0.062,0.63-0.18,1.254-0.352,1.864c-0.27-4.344-2.908-8.186-6.864-10l-0.048-0.048c-1.17-0.896-2.545-1.487-4-1.72
	c-0.358-0.062-0.713,0.125-0.864,0.456c-0.152,0.33-0.064,0.72,0.216,0.952c1.837,1.811,2.609,4.443,2.04,6.96
	c-0.984-1.32-2.592-2.96-4.48-2.96c-0.271,0.005-0.521,0.146-0.664,0.376c-0.151,0.218-0.184,0.497-0.088,0.744
	c0.016,0.04,1.776,4.68,0.072,7.352l-0.256,0.424c-1.942,3.529-0.906,7.955,2.4,10.256c1.596,1.082,3.324,1.951,5.14,2.598
	c0.154,0.158,0.364,0.259,0.596,0.25l0.12-0.016c0.944-0.048,8.944-0.944,10.544-7.2C32.016,23.24,27.72,20.776,27.528,20.68z
	 M17.939,36.586c-1.254-0.533-2.456-1.183-3.587-1.946c-2.618-1.82-3.448-5.317-1.928-8.12l0.216-0.36
	c1.472-2.304,1-5.488,0.528-7.328c1.199,0.867,2.185,1.997,2.88,3.304c0.156,0.29,0.473,0.455,0.8,0.416
	c0.313-0.026,0.582-0.232,0.688-0.528c1.312-3.736,0.576-6.504-0.36-8.256c0.313,0.167,0.608,0.365,0.886,0.585
	c0.035,0.043,0.061,0.091,0.106,0.127c0.325,0.238,0.628,0.506,0.904,0.8c0.088,0.094,0.171,0.193,0.248,0.296
	c1.004,1.344,1.525,2.987,1.48,4.664c-0.041,1.94-0.578,3.838-1.56,5.512c-0.16,0.288-0.304,0.568-0.44,0.864
	C16.997,30.493,17.449,34.421,17.939,36.586z M28.288,31.2c-1.168,4.448-6.688,5.648-8.528,5.928c-0.44-1.52-1.36-5.768,0.544-9.8
	c0.117-0.277,0.245-0.544,0.384-0.8c1.099-1.915,1.688-4.08,1.712-6.288c-0.005-1.027-0.163-2.048-0.469-3.028
	c1.599,1.84,2.972,4.759,2.269,9.172c-0.039,0.228,0.023,0.462,0.17,0.641c0.28,0.342,0.784,0.392,1.126,0.111
	c1.132-1.118,1.887-2.561,2.16-4.128C28.512,24.176,29.456,26.752,28.288,31.2z M9.376,7.2l-1-1.24
	c-2.397,1.92-4.258,4.423-5.418,7.264C1.306,13.35,0,14.715,0,16.4c0,1.191,0.658,2.218,1.623,2.769
	C1.606,19.468,1.6,19.768,1.6,20.072c0.002,5.25,2.281,10.241,6.248,13.68l1.088-1.208c-3.613-3.137-5.688-7.687-5.688-12.472
	v-0.477C4.993,19.569,6.4,18.151,6.4,16.4c0-1.274-0.749-2.364-1.826-2.879C5.637,11.057,7.279,8.883,9.376,7.2z M4.8,16.4
	c0,0.884-0.716,1.6-1.6,1.6s-1.6-0.716-1.6-1.6s0.716-1.6,1.6-1.6S4.8,15.516,4.8,16.4z M27.512,5.504l0.76-1.432
	C24.83,2.229,20.884,1.55,17.024,2.136l0.24,1.6C20.781,3.211,24.374,3.831,27.512,5.504z M35.2,7.6c0-1.767-1.433-3.2-3.2-3.2
	s-3.2,1.433-3.2,3.2s1.433,3.2,3.2,3.2S35.2,9.367,35.2,7.6z M32,9.2c-0.884,0-1.6-0.716-1.6-1.6S31.116,6,32,6
	c0.884,0,1.6,0.716,1.6,1.6S32.884,9.2,32,9.2z M13.6,7.6c1.767,0,3.2-1.433,3.2-3.2s-1.433-3.2-3.2-3.2s-3.2,1.433-3.2,3.2
	S11.833,7.6,13.6,7.6z M13.6,2.8c0.884,0,1.6,0.716,1.6,1.6S14.484,6,13.6,6C12.716,6,12,5.283,12,4.4S12.716,2.8,13.6,2.8z
	 M36.803,14c-0.433-1.207-0.989-2.367-1.667-3.456l-1.352,0.848c0.592,0.955,1.079,1.97,1.468,3.024
	C34.271,14.962,33.6,15.997,33.6,17.2c0,1.564,1.124,2.862,2.607,3.14c-0.033,3.438-1.143,6.781-3.191,9.548l1.288,0.952
	c2.274-3.075,3.499-6.797,3.507-10.619C39.08,19.796,40,18.612,40,17.2C40,15.434,38.569,14.002,36.803,14z M36.8,18.8
	c-0.884,0-1.6-0.716-1.6-1.6c0-0.884,0.716-1.6,1.6-1.6c0.884,0,1.6,0.716,1.6,1.6C38.4,18.083,37.684,18.8,36.8,18.8z"/>
</svg>
