<?xml version="1.0" encoding="utf-8"?>
<!-- Generator: Adobe Illustrator 23.0.1, SVG Export Plug-In . SVG Version: 6.00 Build 0)  -->
<svg version="1.1" id="Layer_1" xmlns="http://www.w3.org/2000/svg" xmlns:xlink="http://www.w3.org/1999/xlink" x="0px" y="0px"
	 viewBox="0 0 40 40" style="enable-background:new 0 0 40 40;" xml:space="preserve">
<style type="text/css">
	.st0{fill:#231F20;}
</style>
<path class="st0" d="M9.206,23.306h0.046c0.877-0.009,1.698-0.36,2.312-0.987c0.614-0.627,0.947-1.455,0.938-2.333
	c-0.018-1.786-1.487-3.244-3.273-3.251H9.218c-1.806,0-3.279,1.466-3.285,3.273c-0.003,0.878,0.335,1.705,0.954,2.327
	C7.504,22.959,8.328,23.303,9.206,23.306z M9.217,18.438h0.005c0.861,0.003,1.569,0.706,1.577,1.567
	c0.009,0.873-0.693,1.59-1.557,1.599H9.209c-0.422-0.002-0.818-0.168-1.115-0.467c-0.298-0.3-0.461-0.698-0.46-1.122
	C7.637,19.145,8.347,18.438,9.217,18.438z M11.613,28.872h0.091c3.656,0,6.875-2.207,8.206-5.566h14.362
	c0.25,0,0.487-0.11,0.649-0.301l2.085-2.459c0.3-0.354,0.261-0.883-0.087-1.189l-2.74-2.409c-0.155-0.137-0.355-0.212-0.562-0.212
	H31.83l-1.87-1.848c-0.335-0.329-0.872-0.327-1.202,0.005l-1.835,1.843h-0.618l-1.879-1.849c-0.331-0.326-0.863-0.326-1.193,0
	l-1.879,1.849h-1.521c-0.789-1.982-2.248-3.594-4.162-4.581c-2.101-1.083-4.499-1.284-6.751-0.565
	c-2.252,0.719-4.09,2.273-5.173,4.374s-1.284,4.498-0.565,6.751C4.358,26.398,7.746,28.872,11.613,28.872z M5.26,16.744
	c0.876-1.697,2.36-2.952,4.178-3.533c1.82-0.581,3.755-0.419,5.453,0.456c1.697,0.876,2.952,2.36,3.533,4.178
	c0.113,0.353,0.44,0.592,0.811,0.592h2.468c0.224,0,0.438-0.088,0.597-0.244l1.531-1.506l1.531,1.506
	c0.159,0.157,0.373,0.244,0.597,0.244h1.319c0.226,0,0.443-0.09,0.603-0.251l1.487-1.493l1.516,1.498
	c0.16,0.157,0.375,0.246,0.598,0.246h1.815l1.871,1.645l-1.289,1.521H19.311c-0.371,0-0.699,0.24-0.811,0.593
	c-0.946,2.98-3.673,4.973-6.796,4.973c-0.018,0-0.07-0.002-0.087,0h-0.003c-3.123,0-5.86-1.999-6.81-4.974
	C4.222,20.377,4.385,18.441,5.26,16.744z M39.149,7.179H0.851C0.381,7.179,0,7.56,0,8.03v23.94c0,0.47,0.381,0.851,0.851,0.851
	h38.298c0.47,0,0.851-0.381,0.851-0.851V8.03C40,7.56,39.619,7.179,39.149,7.179z M38.298,31.119H1.702V8.881h36.596V31.119z"/>
</svg>
