<?xml version="1.0" encoding="utf-8"?>
<!-- Generator: Adobe Illustrator 23.0.1, SVG Export Plug-In . SVG Version: 6.00 Build 0)  -->
<svg version="1.1" id="Layer_1" xmlns="http://www.w3.org/2000/svg" xmlns:xlink="http://www.w3.org/1999/xlink" x="0px" y="0px"
	 viewBox="0 0 40 40" style="enable-background:new 0 0 40 40;" xml:space="preserve">
<style type="text/css">
	.st0{fill:#231F20;}
</style>
<path class="st0" d="M8.232,30.621c0.828,0,1.67-0.125,2.499-0.391c2.328-0.744,4.202-2.493,5.115-4.738h7.111V23.79H15.25
	c-0.37,0-0.697,0.239-0.81,0.591c-0.641,2.005-2.222,3.586-4.228,4.228c-3.425,1.093-7.106-0.802-8.201-4.228
	s0.801-7.106,4.228-8.201c3.424-1.096,7.105,0.801,8.201,4.228C14.553,20.76,14.881,21,15.251,21h2.271
	c0.226,0,0.442-0.09,0.601-0.249l1.321-1.321l1.321,1.321C20.925,20.91,21.141,21,21.367,21h1.284c0.226,0,0.442-0.09,0.601-0.249
	l1.322-1.322l1.33,1.324C26.064,20.911,26.28,21,26.505,21h1.603l0.499,0.436l1.12-1.281l-0.74-0.647
	c-0.155-0.135-0.354-0.21-0.56-0.21h-1.571l-1.683-1.675c-0.331-0.332-0.87-0.33-1.201,0.001l-1.673,1.673h-0.58l-1.673-1.673
	c-0.333-0.332-0.871-0.332-1.203,0l-1.673,1.673h-1.323c-1.599-3.943-6.004-6.057-10.125-4.739c-4.32,1.381-6.711,6.02-5.33,10.34
	C1.507,28.39,4.749,30.621,8.232,30.621z M2.892,22.394c0,1.708,1.389,3.097,3.096,3.097s3.096-1.389,3.096-3.097
	c0-1.707-1.389-3.096-3.096-3.096C4.281,19.299,2.892,20.687,2.892,22.394z M7.383,22.394c0,0.769-0.626,1.396-1.395,1.396
	s-1.395-0.626-1.395-1.396C4.593,21.625,5.218,21,5.988,21S7.383,21.625,7.383,22.394z M10.999,11.304
	c0.155,0.136,0.354,0.211,0.561,0.211h1.571l1.682,1.675c0.333,0.331,0.87,0.33,1.202-0.001l1.682-1.682h0.572l1.673,1.673
	c0.331,0.332,0.87,0.333,1.201,0.002l1.683-1.675h1.322c0.735,1.823,2.082,3.306,3.847,4.219c1.185,0.613,2.472,0.923,3.769,0.923
	c0.839,0,1.682-0.13,2.504-0.392c2.093-0.666,3.802-2.108,4.811-4.06c1.008-1.952,1.197-4.18,0.531-6.273
	c-1.091-3.429-4.24-5.73-7.837-5.73c-0.116,0.003-0.179,0.012-0.262,0.037c-3.267,0.095-6.136,2.097-7.361,5.1H10.93
	c-0.248,0-0.485,0.109-0.646,0.297L8.361,7.874C8.058,8.228,8.096,8.76,8.447,9.067L10.999,11.304z M11.321,7.033h13.422
	c0.369,0,0.696-0.238,0.81-0.589c0.871-2.701,3.363-4.514,6.2-4.514h0.007c0.072,0,0.144-0.011,0.212-0.031
	c2.769,0.084,5.169,1.887,6.014,4.542c0.529,1.661,0.38,3.428-0.421,4.976c-0.8,1.548-2.156,2.692-3.816,3.221
	c-1.66,0.528-3.427,0.378-4.976-0.422c-1.548-0.8-2.691-2.156-3.22-3.816c-0.112-0.353-0.44-0.593-0.811-0.593h-2.271
	c-0.225,0-0.44,0.089-0.6,0.248l-1.33,1.324l-1.322-1.322c-0.159-0.159-0.376-0.249-0.601-0.249h-1.276
	c-0.226,0-0.442,0.09-0.601,0.249l-1.331,1.331l-1.329-1.324c-0.159-0.159-0.375-0.248-0.6-0.248h-1.602L10.2,8.342L11.321,7.033z
	 M34.006,11.524c1.708,0,3.097-1.389,3.097-3.096s-1.389-3.096-3.097-3.096c-0.081,0-0.159,0.012-0.232,0.034
	c-1.582,0.119-2.846,1.443-2.864,3.062C30.911,10.135,32.299,11.524,34.006,11.524z M34.006,7.058c0.056,0,0.11-0.005,0.164-0.016
	c0.693,0.081,1.232,0.672,1.232,1.385c0,0.769-0.626,1.395-1.396,1.395s-1.395-0.626-1.395-1.385
	C32.62,7.677,33.246,7.058,34.006,7.058z M1.709,30.178H0.008v3.989c0,0.47,0.381,0.851,0.851,0.851h19.939v-1.701H1.709V30.178z
	 M31.166,22.148c-4.869,0-8.829,3.961-8.829,8.829s3.961,8.829,8.829,8.829s8.829-3.961,8.829-8.829S36.034,22.148,31.166,22.148z
	 M31.166,38.105c-3.931,0-7.128-3.197-7.128-7.128s3.197-7.128,7.128-7.128s7.128,3.197,7.128,7.128S35.096,38.105,31.166,38.105z
	 M30.315,30.918h-3.938v1.701h5.639v-7.23h-1.701C30.315,25.389,30.315,30.918,30.315,30.918z"/>
</svg>
