<?xml version="1.0" encoding="utf-8"?>
<!-- Generator: Adobe Illustrator 23.0.1, SVG Export Plug-In . SVG Version: 6.00 Build 0)  -->
<svg version="1.1" id="Layer_1" xmlns="http://www.w3.org/2000/svg" xmlns:xlink="http://www.w3.org/1999/xlink" x="0px" y="0px"
	 viewBox="0 0 40 40" style="enable-background:new 0 0 40 40;" xml:space="preserve">
<style type="text/css">
	.st0{fill:#231F20;}
</style>
<g>
	<path class="st0" d="M20,0C8.972,0,0,8.972,0,20s8.972,20,20,20s20-8.972,20-20S31.028,0,20,0z M20,38.298
		C9.911,38.298,1.702,30.09,1.702,20C1.702,9.911,9.911,1.702,20,1.702c10.09,0,18.298,8.209,18.298,18.298
		C38.298,30.09,30.09,38.298,20,38.298z"/>
	<path class="st0" d="M20,9.072c-4.637,0-12.417,0.338-12.417,2.604c0,0.173,0.06,0.332,0.146,0.484l-0.016,0.01l9.045,14.457v6.139
		c0,0.47,0.381,0.851,0.851,0.851c1.417,0,2.767-0.613,4.073-1.207c0.348-0.159,0.694-0.316,1.036-0.458
		c0.317-0.132,0.524-0.442,0.524-0.786v-4.54l8.998-14.423c0.103-0.164,0.176-0.336,0.176-0.527C32.417,9.411,24.638,9.072,20,9.072
		z M20,10.775c5.163,0,8.53,0.483,10.015,0.902c-1.486,0.419-4.852,0.902-10.015,0.902c-5.162,0-8.529-0.483-10.015-0.902
		C11.471,11.257,14.837,10.775,20,10.775z M21.669,25.933c-0.084,0.135-0.129,0.291-0.129,0.45v4.224
		c-0.187,0.082-0.375,0.168-0.563,0.253c-0.84,0.382-1.702,0.774-2.517,0.953v-5.431c0-0.16-0.045-0.316-0.13-0.451L10.59,13.56
		c2.687,0.594,6.615,0.72,9.41,0.72c2.787,0,6.698-0.126,9.384-0.715L21.669,25.933z"/>
</g>
</svg>
