<?xml version="1.0" encoding="utf-8"?>
<!-- Generator: Adobe Illustrator 23.0.1, SVG Export Plug-In . SVG Version: 6.00 Build 0)  -->
<svg version="1.1" id="Layer_1" xmlns="http://www.w3.org/2000/svg" xmlns:xlink="http://www.w3.org/1999/xlink" x="0px" y="0px"
	 viewBox="0 0 40 40" style="enable-background:new 0 0 40 40;" xml:space="preserve">
<style type="text/css">
	.st0{fill:#231F20;}
</style>
<path class="st0" d="M39.958,7.229V2.447c0-0.47-0.381-0.851-0.851-0.851H0.851C0.381,1.596,0,1.977,0,2.447v35.106
	c0,0.47,0.381,0.851,0.851,0.851h26.332v-1.702H1.702V8.089h36.554l0.041,28.613h-3.14v1.702h3.992c0.226,0,0.443-0.09,0.603-0.249
	c0.16-0.16,0.249-0.377,0.249-0.603L39.958,7.229z M38.255,6.379H1.702V3.298h36.553V6.379z M28.034,18.404
	c0-4.43-3.605-8.034-8.034-8.034s-8.034,3.604-8.034,8.034S15.57,26.439,20,26.439S28.034,22.834,28.034,18.404z M20,24.737
	c-3.492,0-6.332-2.841-6.332-6.332s2.84-6.332,6.332-6.332s6.332,2.84,6.332,6.332S23.492,24.737,20,24.737z M15.157,27.179v7.183
	c0,0.329,0.189,0.628,0.487,0.769c0.116,0.056,0.241,0.082,0.364,0.082c0.193,0,0.384-0.066,0.539-0.193L20,32.193l3.452,2.827
	c0.254,0.208,0.608,0.253,0.903,0.111c0.298-0.14,0.487-0.44,0.487-0.769v-7.183H23.14v5.386l-2.601-2.129
	c-0.314-0.258-0.765-0.258-1.078,0l-2.601,2.129v-5.386C16.86,27.179,15.157,27.179,15.157,27.179z M23.375,15.418l-4.703,4.943
	l-2.047-2.152l-1.233,1.174l2.664,2.8c0.161,0.169,0.384,0.264,0.617,0.264s0.456-0.096,0.617-0.264l5.32-5.591L23.375,15.418z"/>
</svg>
