<?xml version="1.0" encoding="utf-8"?>
<!-- Generator: Adobe Illustrator 23.0.1, SVG Export Plug-In . SVG Version: 6.00 Build 0)  -->
<svg version="1.1" id="Layer_1" xmlns="http://www.w3.org/2000/svg" xmlns:xlink="http://www.w3.org/1999/xlink" x="0px" y="0px"
	 viewBox="0 0 40 40" style="enable-background:new 0 0 40 40;" xml:space="preserve">
<style type="text/css">
	.st0{fill:#231F20;}
</style>
<g>
	<path class="st0" d="M14.607,26.794c0.081,0,0.166-0.02,0.247-0.062l5.126-2.695l5.126,2.695c0.081,0.042,0.165,0.062,0.246,0.062
		c0.309,0,0.579-0.278,0.521-0.619l-0.979-5.707l4.146-4.042c0.314-0.306,0.141-0.839-0.294-0.902l-5.73-0.833l-2.562-5.192
		c-0.097-0.197-0.286-0.295-0.474-0.295c-0.189,0-0.377,0.098-0.474,0.295l-2.562,5.192l-5.73,0.833
		c-0.434,0.063-0.607,0.595-0.294,0.902l4.146,4.042l-0.979,5.707C14.026,26.516,14.298,26.794,14.607,26.794z M14.697,17.154
		l2.549-0.37l1.101-0.16l0.493-0.998l1.139-2.31l1.139,2.31l0.493,0.998l1.101,0.16l2.549,0.37l-1.845,1.798l-0.797,0.776
		l0.187,1.096l0.435,2.538l-2.28-1.199l-0.984-0.518l-0.984,0.518l-2.28,1.199l0.435-2.538l0.187-1.096l-0.797-0.776L14.697,17.154z
		 M12.904,28.894H9.243v2.116h3.661V28.894z M9.243,34.166h3.661V32.05H9.243V34.166z M16.711,31.009h14.074v-2.116H16.711V31.009z
		 M25.496,32.05h-8.785v2.116h8.785V32.05z M0,1.515v36.969h27.619v-2.116H2.115V8.755h35.769v27.614h-3.002v2.116H40V1.515H0z
		 M37.883,6.639H2.114V3.631h35.769V6.639z"/>
</g>
</svg>
