<?xml version="1.0" encoding="utf-8"?>
<!-- Generator: Adobe Illustrator 23.0.1, SVG Export Plug-In . SVG Version: 6.00 Build 0)  -->
<svg version="1.1" id="Layer_1" xmlns="http://www.w3.org/2000/svg" xmlns:xlink="http://www.w3.org/1999/xlink" x="0px" y="0px"
	 viewBox="0 0 40 40" style="enable-background:new 0 0 40 40;" xml:space="preserve">
<style type="text/css">
	.st0{fill:#231F20;}
</style>
<g>
	<g>
		<path class="st0" d="M14.964,4.941c-6.27,0.286-11.12,5.601-10.833,11.871s5.601,11.12,11.871,10.833s11.12-5.601,10.833-11.871
			C26.549,9.504,21.234,4.654,14.964,4.941z M15.908,25.589c-5.126,0.234-9.487-3.745-9.721-8.872
			C5.953,11.59,9.932,7.23,15.059,6.996c5.126-0.234,9.487,3.746,9.721,8.872C25.015,20.994,21.034,25.355,15.908,25.589z"/>
	</g>
	<g>
		<path class="st0" d="M38.644,31.953l-9.401-8.58c1.2-2.327,1.838-4.983,1.71-7.786C30.562,7.044,23.32,0.436,14.778,0.825
			C6.235,1.215-0.373,8.458,0.016,17c0.391,8.543,7.632,15.151,16.174,14.762c2.717-0.124,5.234-0.946,7.397-2.277l9.444,8.619
			c0.849,0.775,1.931,1.133,2.997,1.083c1.064-0.048,2.11-0.503,2.885-1.352C40.462,36.135,40.341,33.502,38.644,31.953z
			 M16.096,29.705C8.7,30.043,2.408,24.3,2.07,16.906C1.732,9.51,7.474,3.219,14.869,2.881c7.396-0.338,13.687,5.404,14.026,12.799
			C29.233,23.075,23.491,29.368,16.096,29.705z M37.392,36.447c-0.379,0.416-0.897,0.658-1.458,0.683
			c-0.561,0.025-1.099-0.169-1.515-0.547l-9.127-8.329c1.09-0.896,2.054-1.933,2.863-3.087l9.102,8.307
			c0.415,0.379,0.658,0.897,0.683,1.46C37.966,35.493,37.771,36.031,37.392,36.447z"/>
	</g>
	<g>
		<path class="st0" d="M19.483,19.93c-0.245-1.358-1.121-2.485-2.313-3.089v-2.234c1.617-0.354,2.83-1.791,2.83-3.514
			c0-1.989-1.613-3.601-3.601-3.601s-3.601,1.612-3.601,3.601c0,1.724,1.213,3.16,2.83,3.514v1.791
			c-0.137-0.014-0.27-0.041-0.411-0.041c-0.92,0-1.77,0.29-2.473,0.778l-1.968-1.69c0.339-0.601,0.547-1.287,0.547-2.029
			c0-1.274-0.583-2.4-1.482-3.166c-0.375,0.351-0.719,0.735-1.023,1.148C9.4,11.881,9.779,12.6,9.779,13.414
			c0,1.426-1.144,2.585-2.561,2.622c-0.007,0.21-0.013,0.419-0.003,0.633c0.014,0.306,0.048,0.606,0.094,0.902
			c0.941-0.035,1.79-0.393,2.471-0.949l1.869,1.605c-0.488,0.703-0.777,1.552-0.777,2.473c0,2.4,1.945,4.345,4.345,4.345
			c2.136,0,3.903-1.543,4.268-3.574h2.97v-1.543h-2.97L19.483,19.93L19.483,19.93z M14.339,11.092c0-1.135,0.923-2.058,2.058-2.058
			c1.135,0,2.058,0.924,2.058,2.058s-0.923,2.058-2.058,2.058C15.263,13.15,14.339,12.227,14.339,11.092z M15.216,23.504
			c-1.545,0-2.802-1.257-2.802-2.802c0-1.545,1.257-2.802,2.802-2.802c1.545,0,2.802,1.257,2.802,2.802
			C18.017,22.247,16.761,23.504,15.216,23.504z"/>
	</g>
</g>
</svg>
