<?xml version="1.0" encoding="utf-8"?>
<!-- Generator: Adobe Illustrator 23.0.1, SVG Export Plug-In . SVG Version: 6.00 Build 0)  -->
<svg version="1.1" id="Layer_1" xmlns="http://www.w3.org/2000/svg" xmlns:xlink="http://www.w3.org/1999/xlink" x="0px" y="0px"
	 viewBox="0 0 40 40" style="enable-background:new 0 0 40 40;" xml:space="preserve">
<style type="text/css">
	.st0{fill:#231F20;}
</style>
<g>
	<path class="st0" d="M18.819,18.583h-4.126v1.574h4.126V18.583z M20.918,11.492h-6.224v1.574h6.224V11.492z M30.056,11.635
		l-5.328-5.327H11.286v23.464h18.771V11.635H30.056z M24.723,8.53l1.52,1.52l1.592,1.591h-3.112V8.53z M28.482,28.198H12.859V7.883
		h10.291v5.333h5.333L28.482,28.198L28.482,28.198z M14.694,16.967h12.519v-1.574H14.694V16.967z M14.694,23.347h7.273v-1.574
		h-7.273V23.347z M20,0.069c-11.046,0-20,8.954-20,20c0,9.218,6.246,16.959,14.729,19.274v-2.167
		C7.423,34.92,2.098,28.105,2.098,20.069c0-9.871,8.031-17.902,17.902-17.902s17.902,8.031,17.902,17.902
		c0,8.065-5.363,14.896-12.71,17.128v2.167C33.715,37.075,40,29.316,40,20.069C40,9.023,31.046,0.069,20,0.069z M25.454,33.749
		c-0.165-0.388-0.545-0.639-0.966-0.639h-1.323v-2.378h-2.098v4.477h0.957l-2.078,2.159l-2.078-2.159h0.957v-4.477h-2.098v2.378
		h-1.323c-0.421,0-0.801,0.251-0.966,0.639c-0.165,0.388-0.082,0.835,0.209,1.138l4.543,4.721c0.198,0.206,0.471,0.322,0.757,0.322
		c0.286,0,0.559-0.117,0.757-0.322l4.543-4.721C25.536,34.583,25.619,34.135,25.454,33.749z"/>
</g>
</svg>
