<?xml version="1.0" encoding="utf-8"?>
<!-- Generator: Adobe Illustrator 23.0.1, SVG Export Plug-In . SVG Version: 6.00 Build 0)  -->
<svg version="1.1" id="Layer_1" xmlns="http://www.w3.org/2000/svg" xmlns:xlink="http://www.w3.org/1999/xlink" x="0px" y="0px"
	 viewBox="0 0 40 40" style="enable-background:new 0 0 40 40;" xml:space="preserve">
<style type="text/css">
	.st0{fill:#231F20;}
</style>
<g>
	<path class="st0" d="M18.961,18.977c-1.296,1.296-1.296,3.398,0,4.695c1.296,1.296,3.398,1.296,4.695,0
		c1.296-1.296,1.296-3.398,0-4.695C22.36,17.68,20.257,17.681,18.961,18.977z M22.445,22.46c-0.627,0.628-1.647,0.628-2.274,0
		c-0.627-0.628-0.627-1.647,0-2.274c0.627-0.628,1.647-0.628,2.274,0C23.072,20.813,23.072,21.834,22.445,22.46z M39.604,35.244
		l-9.226-9.226c1.389-3.072,0.83-6.81-1.696-9.336c-1.63-1.63-3.765-2.443-5.901-2.443s-4.271,0.815-5.901,2.443
		c-3.258,3.258-3.258,8.542,0,11.8c1.63,1.63,3.765,2.443,5.901,2.443c1.069,0,2.137-0.203,3.143-0.611l0.969,0.969l0.083,3.143
		h3.059l0.449,0.45v3.328h3.328l1.415,1.415l3.834,0.23L40,38.907L39.604,35.244z M36.154,37.561l-1.466-1.466h-2.091v-2.092
		l-1.686-1.686h-1.879l-0.029-1.089l-0.023-0.841l-2.553-2.553l-1.297,0.527c-0.747,0.303-1.537,0.457-2.349,0.457
		c-1.665,0-3.23-0.648-4.408-1.826c-1.177-1.177-1.826-2.743-1.826-4.408c0-1.665,0.648-3.231,1.826-4.408
		c1.177-1.177,2.743-1.826,4.408-1.826c1.665,0,3.231,0.648,4.408,1.826c1.819,1.82,2.328,4.623,1.265,6.975l-0.601,1.33
		l1.032,1.032l8.701,8.701l0.158,1.444L36.154,37.561z M2.165,18.941c-0.385-3.138,1.39-6.143,4.319-7.311
		c0.477-0.192,0.802-0.647,0.829-1.162c0.232-4.602,4.022-8.208,8.626-8.208c3.374,0,6.462,1.984,7.868,5.055
		c0.152,0.333,0.437,0.591,0.781,0.707c0.345,0.119,0.728,0.087,1.051-0.083c0.55-0.288,1.13-0.434,1.727-0.434
		c1.96,0,3.576,1.478,3.76,3.439c0.055,0.577,0.472,1.049,1.04,1.174c2.957,0.641,5.106,3.297,5.125,6.322l-0.016,0.625
		c-0.178,2.491-1.786,4.573-4.022,5.455v2.238c3.569-1.02,6.149-4.284,6.149-8.157v-0.122c0-0.096-0.001-0.193-0.005-0.288
		l-0.006-0.456l-0.023-0.004c-0.312-3.53-2.806-6.563-6.22-7.539c-0.521-2.77-2.917-4.796-5.783-4.796
		c-0.681,0-1.346,0.119-1.985,0.354c-1.877-3.425-5.502-5.599-9.442-5.599c-5.566,0-10.174,4.232-10.699,9.72
		c-3.541,1.641-5.652,5.406-5.172,9.329c0.552,4.506,4.525,7.905,9.241,7.905h3.997v-2.113l-3.997,0.002
		C5.659,24.993,2.587,22.392,2.165,18.941z"/>
</g>
</svg>
