<?xml version="1.0" encoding="utf-8"?>
<!-- Generator: Adobe Illustrator 23.0.1, SVG Export Plug-In . SVG Version: 6.00 Build 0)  -->
<svg version="1.1" id="Layer_1" xmlns="http://www.w3.org/2000/svg" xmlns:xlink="http://www.w3.org/1999/xlink" x="0px" y="0px"
	 viewBox="0 0 40 40" style="enable-background:new 0 0 40 40;" xml:space="preserve">
<style type="text/css">
	.st0{fill:#231F20;}
</style>
<path class="st0" d="M33.617,0H6.383C5.065,0,3.992,1.073,3.992,2.392v35.217C3.992,38.927,5.065,40,6.383,40h27.234
	c1.318,0,2.391-1.073,2.391-2.391V2.392C36.008,1.073,34.935,0,33.617,0z M34.306,37.609c0,0.38-0.309,0.689-0.689,0.689H6.383
	c-0.38,0-0.689-0.309-0.689-0.689V2.392c0-0.38,0.309-0.689,0.689-0.689h27.234c0.38,0,0.689,0.309,0.689,0.689V37.609z M20,3.191
	c-4.871,0-8.834,3.963-8.834,8.834s3.963,8.834,8.834,8.834s8.834-3.963,8.834-8.834S24.871,3.191,20,3.191z M20,19.157
	c-3.932,0-7.132-3.199-7.132-7.132s3.2-7.131,7.132-7.131c3.933,0,7.132,3.199,7.132,7.132S23.933,19.157,20,19.157z M19.149,11.966
	h-3.932v1.702h5.634V6.434h-1.702V11.966z M14.545,31.041l-0.756-0.276c-0.381-0.136-0.642-0.265-0.781-0.388
	c-0.14-0.122-0.209-0.279-0.209-0.47c0-0.517,0.402-0.776,1.205-0.776c0.565,0,1.178,0.102,1.838,0.307v-1.164
	c-0.64-0.245-1.294-0.367-1.961-0.367c-0.797,0-1.432,0.19-1.905,0.572c-0.473,0.381-0.71,0.892-0.71,1.532
	c0,0.497,0.133,0.908,0.398,1.231c0.266,0.323,0.701,0.597,1.307,0.822l0.776,0.286c0.401,0.15,0.669,0.286,0.802,0.408
	c0.133,0.123,0.199,0.29,0.199,0.5c0,0.273-0.109,0.482-0.327,0.628c-0.218,0.146-0.528,0.219-0.93,0.219
	c-0.313,0-0.664-0.031-1.052-0.091c-0.388-0.062-0.753-0.143-1.093-0.245v1.164c0.272,0.122,0.599,0.219,0.981,0.291
	c0.381,0.071,0.762,0.107,1.144,0.107c0.878,0,1.569-0.203,2.073-0.608c0.504-0.406,0.756-0.958,0.756-1.66
	c0-0.497-0.135-0.9-0.404-1.21C15.629,31.543,15.178,31.273,14.545,31.041z M16.972,29.305h2.155v5.852h1.533v-5.852h2.154v-1.226
	h-5.842V29.305z M26.976,31.041l-0.755-0.276c-0.381-0.136-0.642-0.265-0.781-0.388c-0.14-0.122-0.209-0.279-0.209-0.47
	c0-0.517,0.401-0.776,1.205-0.776c0.565,0,1.178,0.102,1.838,0.307v-1.164c-0.641-0.245-1.294-0.367-1.961-0.367
	c-0.796,0-1.431,0.19-1.904,0.572c-0.474,0.381-0.71,0.892-0.71,1.532c0,0.497,0.132,0.908,0.398,1.231
	c0.265,0.323,0.701,0.597,1.307,0.822l0.776,0.286c0.401,0.15,0.668,0.286,0.801,0.408c0.133,0.123,0.199,0.29,0.199,0.5
	c0,0.273-0.109,0.482-0.327,0.628c-0.219,0.146-0.528,0.219-0.93,0.219c-0.313,0-0.663-0.031-1.051-0.091
	c-0.388-0.062-0.753-0.143-1.093-0.245v1.164c0.272,0.122,0.599,0.219,0.981,0.291c0.381,0.071,0.762,0.107,1.144,0.107
	c0.878,0,1.569-0.203,2.074-0.608c0.504-0.406,0.755-0.958,0.755-1.66c0-0.497-0.135-0.9-0.404-1.21
	C28.061,31.543,27.61,31.273,26.976,31.041z"/>
</svg>
