<?xml version="1.0" encoding="utf-8"?>
<!-- Generator: Adobe Illustrator 23.0.1, SVG Export Plug-In . SVG Version: 6.00 Build 0)  -->
<svg version="1.1" id="Layer_1" xmlns="http://www.w3.org/2000/svg" xmlns:xlink="http://www.w3.org/1999/xlink" x="0px" y="0px"
	 viewBox="0 0 40 40" style="enable-background:new 0 0 40 40;" xml:space="preserve">
<style type="text/css">
	.st0{fill:#231F20;}
</style>
<path class="st0" d="M33.617,0H6.383C5.065,0,3.992,1.073,3.992,2.392v35.217C3.992,38.927,5.065,40,6.383,40h27.234
	c1.318,0,2.391-1.073,2.391-2.391V2.392C36.008,1.073,34.935,0,33.617,0z M34.306,37.609c0,0.38-0.309,0.689-0.689,0.689H6.383
	c-0.38,0-0.689-0.309-0.689-0.689V2.392c0-0.38,0.309-0.689,0.689-0.689h27.234c0.38,0,0.689,0.309,0.689,0.689V37.609z
	 M15.407,26.582l-2.985,2.988l-2.985-2.988l-1.204,1.203l2.986,2.99l-2.986,2.99l1.204,1.203l2.985-2.988l2.985,2.988l1.204-1.203
	l-2.986-2.99l2.986-2.99L15.407,26.582z M11.226,10.022l-2.59-2.59L7.432,8.636l3.191,3.191c0.166,0.166,0.384,0.249,0.602,0.249
	s0.436-0.083,0.602-0.249l6.383-6.383l-1.203-1.203L11.226,10.022z M11.226,20.396l-2.59-2.59L7.432,19.01l3.191,3.191
	c0.166,0.166,0.384,0.249,0.602,0.249s0.436-0.083,0.602-0.249l6.383-6.383l-1.203-1.203L11.226,20.396z"/>
</svg>
