<?xml version="1.0" encoding="utf-8"?>
<!-- Generator: Adobe Illustrator 23.0.1, SVG Export Plug-In . SVG Version: 6.00 Build 0)  -->
<svg version="1.1" id="Layer_1" xmlns="http://www.w3.org/2000/svg" xmlns:xlink="http://www.w3.org/1999/xlink" x="0px" y="0px"
	 viewBox="0 0 40 40" style="enable-background:new 0 0 40 40;" xml:space="preserve">
<style type="text/css">
	.st0{fill:#231F20;}
</style>
<g>
	<path class="st0" d="M28.015,18.312c0-0.576-0.471-1.047-1.047-1.047h-1.163v-3.627c0-3.192-2.611-5.803-5.803-5.803h-0.003
		c-3.19,0-5.8,2.61-5.8,5.8v3.631h-1.163c-0.576,0-1.047,0.471-1.047,1.047v10.381c0,0.576,0.471,1.047,1.047,1.047h13.934
		c0.389,0,0.717-0.224,0.897-0.54l10.421,10.421l1.48-1.481L28.016,26.389L28.015,18.312L28.015,18.312z M16.291,13.634
		c0-2.043,1.663-3.706,3.706-3.706h0.003c2.046,0,3.71,1.664,3.71,3.71v3.627h-7.419L16.291,13.634L16.291,13.634z M25.92,20.941
		h-2.14v1.57h2.14v1.757h-2.14v1.57h2.14v1.809H14.08V19.36H25.92V20.941z M19.291,25.198v1.594h1.57v-1.594
		c1.062-0.335,1.836-1.317,1.836-2.489c0-1.448-1.174-2.623-2.623-2.623c-1.448,0-2.623,1.174-2.623,2.623
		C17.453,23.881,18.229,24.863,19.291,25.198z M20.076,21.658c0.581,0,1.051,0.472,1.051,1.051c0,0.579-0.472,1.051-1.051,1.051
		c-0.579,0-1.051-0.472-1.051-1.051C19.025,22.13,19.495,21.658,20.076,21.658z M13.16,11.535L1.785,0.16l-1.48,1.48L11.68,13.014
		L13.16,11.535z M18.954,3.676v1.681h2.094V3.669c3.34,0.2,6.408,1.416,8.902,3.346l1.499-1.499
		c-2.884-2.299-6.479-3.735-10.402-3.94V0h-2.094v1.582c-3.882,0.239-7.436,1.683-10.289,3.975l1.499,1.499
		C12.627,5.135,15.653,3.908,18.954,3.676z M31.733,9.675l8.034-8.034l-1.48-1.48l-8.034,8.034L31.733,9.675z M8.778,29.668
		L0.305,38.14l1.48,1.481l8.473-8.473L8.778,29.668z M21.047,35.919v-1.275h-2.094v1.269c-3.251-0.229-6.236-1.425-8.68-3.299
		l-1.499,1.499c2.834,2.241,6.345,3.656,10.179,3.892V40h2.094v-1.987c3.874-0.203,7.425-1.609,10.291-3.858l-1.499-1.499
		C27.365,34.537,24.339,35.722,21.047,35.919z M5.807,31.158l1.499-1.499c-1.874-2.422-3.082-5.383-3.334-8.61h1.385v-2.094H3.954
		c0.175-3.339,1.364-6.409,3.27-8.915L5.725,8.54c-2.273,2.896-3.683,6.492-3.864,10.414H0.001v2.094h1.878
		C2.14,24.859,3.565,28.345,5.807,31.158z M38.308,18.955c-0.181-3.947-1.607-7.564-3.905-10.469l-1.499,1.499
		c1.929,2.515,3.136,5.607,3.311,8.971h-1.571v2.094h1.553c-0.254,3.252-1.477,6.234-3.376,8.666l1.499,1.499
		c2.267-2.823,3.707-6.331,3.969-10.165h1.71v-2.094h-1.69V18.955z"/>
</g>
</svg>
