<?xml version="1.0" encoding="utf-8"?>
<!-- Generator: Adobe Illustrator 23.0.1, SVG Export Plug-In . SVG Version: 6.00 Build 0)  -->
<svg version="1.1" id="Layer_1" xmlns="http://www.w3.org/2000/svg" xmlns:xlink="http://www.w3.org/1999/xlink" x="0px" y="0px"
	 viewBox="0 0 40 40" style="enable-background:new 0 0 40 40;" xml:space="preserve">
<style type="text/css">
	.st0{fill:#231F20;}
</style>
<path class="st0" d="M26.734,0H6.279C5.02,0.007,3.995,1.038,3.995,2.298v35.405c0,1.261,1.025,2.291,2.289,2.298h27.437
	c1.26-0.007,2.284-1.037,2.284-2.298V9.271L26.734,0z M27.233,2.905L33.1,8.773h-5.867C27.233,8.773,27.233,2.905,27.233,2.905z
	 M34.303,37.702c0,0.327-0.265,0.594-0.587,0.596H6.288c-0.326-0.002-0.592-0.269-0.592-0.596V2.298
	c0-0.327,0.265-0.594,0.587-0.596H25.53v7.922c0,0.47,0.381,0.851,0.851,0.851h7.921v27.227H34.303z M25.625,15.41
	c0.066-3.152-2.444-5.771-5.529-5.833c-0.032-0.003-0.077-0.004-0.108-0.005c-3.142,0.044-5.671,2.636-5.638,5.769v3.012h-3.089
	c-0.47,0-0.851,0.381-0.851,0.851v14.355c0,0.47,0.381,0.851,0.851,0.851h17.511c0.47,0,0.851-0.381,0.851-0.851V19.204
	c0-0.47-0.381-0.851-0.851-0.851h-3.148V15.41H25.625z M16.052,15.332c-0.023-2.207,1.753-4.027,3.941-4.058
	c2.214,0.047,3.976,1.886,3.93,4.118v2.961h-7.871V15.332z M27.922,20.055v12.654h-15.81V20.055H27.922z M19.149,27.096v3.273h1.702
	v-3.273c1.088-0.36,1.88-1.375,1.88-2.582c0-1.506-1.226-2.731-2.731-2.731c-1.506,0-2.731,1.226-2.731,2.731
	C17.269,25.721,18.061,26.736,19.149,27.096z M20,23.484c0.568,0,1.03,0.462,1.03,1.03s-0.462,1.03-1.03,1.03s-1.03-0.462-1.03-1.03
	C18.971,23.946,19.433,23.484,20,23.484z"/>
</svg>
