<?xml version="1.0" encoding="utf-8"?>
<!-- Generator: Adobe Illustrator 23.0.1, SVG Export Plug-In . SVG Version: 6.00 Build 0)  -->
<svg version="1.1" id="Layer_1" xmlns="http://www.w3.org/2000/svg" xmlns:xlink="http://www.w3.org/1999/xlink" x="0px" y="0px"
	 viewBox="0 0 40 40" style="enable-background:new 0 0 40 40;" xml:space="preserve">
<style type="text/css">
	.st0{fill:#231F20;}
</style>
<g>
	<path class="st0" d="M39.392,24.816C39.775,23.271,40,21.664,40,20c0-1.716-0.239-3.374-0.646-4.963h-3.982
		c-0.28-0.873-0.637-1.712-1.054-2.513l2.809-2.809c-1.706-2.834-4.089-5.205-6.934-6.897L27.39,5.622
		c-0.799-0.413-1.631-0.767-2.5-1.043v-3.95c-1.568-0.394-3.2-0.627-4.89-0.627c-1.69,0-3.322,0.232-4.89,0.627v3.95
		c-0.87,0.276-1.702,0.631-2.5,1.043L9.804,2.818C6.96,4.509,4.577,6.88,2.872,9.714l2.809,2.809
		c-0.417,0.801-0.774,1.64-1.054,2.513H0.646C0.239,16.626,0,18.283,0,20c0,1.664,0.225,3.271,0.608,4.816H4.6
		c0.278,0.882,0.639,1.727,1.057,2.537l-2.841,2.841c1.691,2.845,4.063,5.226,6.897,6.932l2.847-2.847
		c0.814,0.424,1.664,0.786,2.551,1.067v4.024c1.568,0.394,3.2,0.627,4.89,0.627s3.322-0.232,4.89-0.627v-4.024
		c0.887-0.282,1.737-0.643,2.551-1.067l2.847,2.847c2.834-1.706,5.206-4.089,6.897-6.932l-2.841-2.841
		c0.418-0.81,0.779-1.655,1.057-2.537H39.392z M34.525,30.469c-1.105,1.528-2.449,2.88-3.971,3.994l-2.722-2.723l-1.349,0.703
		c-0.735,0.382-1.481,0.695-2.221,0.93l-1.446,0.46v3.857c-0.954,0.158-1.896,0.238-2.816,0.238c-0.92,0-1.862-0.08-2.816-0.238
		v-3.857l-1.446-0.46c-0.738-0.234-1.486-0.547-2.221-0.93L12.17,31.74l-2.722,2.722c-1.522-1.114-2.866-2.465-3.971-3.994
		l2.72-2.72l-0.695-1.346c-0.384-0.744-0.694-1.487-0.921-2.209l-0.457-1.451H2.301C2.151,21.813,2.075,20.895,2.075,20
		c0-0.945,0.083-1.912,0.249-2.89h3.818l0.462-1.441c0.234-0.733,0.544-1.468,0.918-2.189l0.703-1.348L5.539,9.446
		C6.654,7.924,8.004,6.58,9.533,5.475l2.683,2.683l1.346-0.695c0.728-0.376,1.461-0.681,2.177-0.91l1.446-0.46V2.311
		c0.954-0.158,1.896-0.238,2.816-0.238s1.862,0.08,2.816,0.238v3.783l1.446,0.46c0.717,0.227,1.449,0.534,2.177,0.91l1.346,0.695
		l2.683-2.683c1.528,1.105,2.88,2.449,3.994,3.971l-1.61,1.61l-1.075,1.075l0.703,1.348c0.375,0.719,0.683,1.456,0.919,2.189
		l0.462,1.441h3.818c0.166,0.978,0.249,1.945,0.249,2.89c0,0.895-0.075,1.812-0.225,2.742h-3.823l-0.457,1.451
		c-0.227,0.722-0.537,1.465-0.921,2.209l-0.695,1.346L34.525,30.469z M18.942,7.615l-8.579,3.103V22.28
		c0,6.304,4.848,9.602,9.637,9.602s9.637-3.298,9.637-9.602V10.718l-8.58-3.104C20.375,7.369,19.625,7.369,18.942,7.615z
		 M27.564,22.28c0,5.172-3.921,7.528-7.564,7.528c-3.642,0-7.563-2.355-7.563-7.528V12.173l7.211-2.608
		c0.226-0.082,0.479-0.082,0.705,0l7.211,2.608V22.28z M19.263,10.799l-5.759,2.187v9.025c0,1.968,0.712,3.632,2.058,4.811
		c1.178,1.032,2.753,1.601,4.433,1.601c3.226,0,6.491-2.202,6.491-6.411v-9.025L20.739,10.8
		C20.263,10.618,19.74,10.617,19.263,10.799z M18.964,26.235c-1.809-0.364-3.385-1.701-3.385-4.224v-7.595l3.385-1.286V26.235z
		 M21.037,13.133l3.377,1.285v7.595c0,2.519-1.571,3.855-3.377,4.222V13.133z"/>
</g>
</svg>
