<?xml version="1.0" encoding="utf-8"?>
<!-- Generator: Adobe Illustrator 23.0.1, SVG Export Plug-In . SVG Version: 6.00 Build 0)  -->
<svg version="1.1" id="CARDS" xmlns="http://www.w3.org/2000/svg" xmlns:xlink="http://www.w3.org/1999/xlink" x="0px" y="0px"
	 viewBox="0 0 40 40" style="enable-background:new 0 0 40 40;" xml:space="preserve">
<path d="M37.189,12.123c0.005,0,0.009,0.003,0.013,0.003c0.004,0,0.007-0.003,0.011-0.003H37.189z M37.203,12.125
	c-0.072,0.001-0.143,0.018-0.206,0.053l-6.949,4.003c-0.128,0.08-0.416,0.208-0.416,0.376v8.967c0.009,0.123,0.009,0.246,0,0.368
	l-7.814,4.499c-0.133,0.075-0.216,0.216-0.216,0.368v8.006c-0.005,0.228,0.172,0.419,0.4,0.432c0.076,0.001,0.15-0.019,0.216-0.056
	l15.179-8.751c0.134-0.074,0.217-0.215,0.216-0.368V12.547C37.613,12.318,37.43,12.133,37.203,12.125z M36.012,29.344l-12.81,7.398
	v-5.3l7.205-4.155c0.43-0.241,0.725-0.666,0.801-1.153c0.016-0.2,0.016-0.401,0-0.6v-8.174l4.804-2.778V29.344z M36.669,9.921
	c-0.003-0.437-0.233-0.841-0.608-1.065L20.897,0.162c-0.38-0.216-0.845-0.216-1.225,0L3.003,9.769
	c-0.381,0.22-0.615,0.625-0.616,1.065v19.215c0.001,0.439,0.236,0.845,0.616,1.065l15.179,8.727c0.189,0.104,0.401,0.159,0.616,0.16
	c0.203,0.002,0.403-0.044,0.584-0.136c0.381-0.22,0.615-0.625,0.616-1.065V20.257l16.06-9.271
	C36.439,10.765,36.671,10.359,36.669,9.921z M19.015,18.976c-0.383,0.217-0.619,0.624-0.616,1.065v18.11L3.988,29.832V11.01
	l16.3-9.439l14.411,8.35L19.015,18.976z"/>
</svg>
