<?xml version="1.0" encoding="utf-8"?>
<!-- Generator: Adobe Illustrator 23.0.1, SVG Export Plug-In . SVG Version: 6.00 Build 0)  -->
<svg version="1.1" id="Layer_1" xmlns="http://www.w3.org/2000/svg" xmlns:xlink="http://www.w3.org/1999/xlink" x="0px" y="0px"
	 viewBox="0 0 40 40" style="enable-background:new 0 0 40 40;" xml:space="preserve">
<path d="M34.51,0H5.49C2.463,0,0,2.463,0,5.49V34.51C0,37.537,2.463,40,5.49,40H34.51c3.027,0,5.49-2.463,5.49-5.49V5.49
	C40,2.463,37.537,0,34.51,0z M38.298,34.51c0,2.089-1.699,3.787-3.787,3.787H5.49c-2.088,0-3.787-1.699-3.787-3.787V5.49
	c0-2.088,1.699-3.787,3.787-3.787H34.51c2.089,0,3.787,1.699,3.787,3.787V34.51z M18.408,3.991H5.642
	c-0.47,0-0.851,0.381-0.851,0.851v7.983c0,0.47,0.381,0.851,0.851,0.851h12.766c0.47,0,0.851-0.381,0.851-0.851V4.843
	C19.259,4.373,18.878,3.991,18.408,3.991z M17.557,11.974H6.494V5.694h11.064V11.974z M9.685,7.234H7.983v3.191h1.702V7.234z
	 M12.876,7.234h-1.702v3.191h1.702V7.234z M16.068,7.234h-1.702v3.191h1.702V7.234z M18.408,15.157H5.642
	c-0.47,0-0.851,0.381-0.851,0.851v7.983c0,0.47,0.381,0.851,0.851,0.851h12.766c0.47,0,0.851-0.381,0.851-0.851v-7.983
	C19.259,15.539,18.878,15.157,18.408,15.157z M17.557,23.141H6.494V16.86h11.064V23.141z M9.685,18.4H7.983v3.191h1.702V18.4z
	 M12.876,18.4h-1.702v3.191h1.702V18.4z M16.068,18.4h-1.702v3.191h1.702V18.4z M18.408,26.332H5.642
	c-0.47,0-0.851,0.381-0.851,0.851v7.983c0,0.47,0.381,0.851,0.851,0.851h12.766c0.47,0,0.851-0.381,0.851-0.851v-7.983
	C19.259,26.713,18.878,26.332,18.408,26.332z M17.557,34.315H6.494v-6.281h11.064V34.315z M9.685,29.574H7.983v3.191h1.702V29.574z
	 M12.876,29.574h-1.702v3.191h1.702V29.574z M16.068,29.574h-1.702v3.191h1.702V29.574z M34.366,3.991H21.6
	c-0.47,0-0.851,0.381-0.851,0.851v7.983c0,0.47,0.381,0.851,0.851,0.851h12.766c0.47,0,0.851-0.381,0.851-0.851V4.843
	C35.217,4.373,34.836,3.991,34.366,3.991z M33.515,11.974H22.451V5.694h11.064V11.974z M25.642,7.234H23.94v3.191h1.702V7.234z
	 M28.834,7.234h-1.702v3.191h1.702V7.234z M32.025,7.234h-1.702v3.191h1.702V7.234z M34.366,15.157H21.6
	c-0.47,0-0.851,0.381-0.851,0.851v7.983c0,0.47,0.381,0.851,0.851,0.851h12.766c0.47,0,0.851-0.381,0.851-0.851v-7.983
	C35.217,15.539,34.836,15.157,34.366,15.157z M33.515,23.141H22.451V16.86h11.064V23.141z M25.642,18.4H23.94v3.191h1.702V18.4z
	 M28.834,18.4h-1.702v3.191h1.702V18.4z M32.025,18.4h-1.702v3.191h1.702V18.4z M34.366,26.332H21.6
	c-0.47,0-0.851,0.381-0.851,0.851v7.983c0,0.47,0.381,0.851,0.851,0.851h12.766c0.47,0,0.851-0.381,0.851-0.851v-7.983
	C35.217,26.713,34.836,26.332,34.366,26.332z M33.515,34.315H22.451v-6.281h11.064V34.315z M25.642,29.574H23.94v3.191h1.702V29.574
	z M28.834,29.574h-1.702v3.191h1.702V29.574z M32.025,29.574h-1.702v3.191h1.702V29.574z"/>
</svg>
