<?xml version="1.0" encoding="utf-8"?>
<!-- Generator: Adobe Illustrator 23.0.1, SVG Export Plug-In . SVG Version: 6.00 Build 0)  -->
<svg version="1.1" id="Layer_1" xmlns="http://www.w3.org/2000/svg" xmlns:xlink="http://www.w3.org/1999/xlink" x="0px" y="0px"
	 viewBox="0 0 40 40" style="enable-background:new 0 0 40 40;" xml:space="preserve">
<style type="text/css">
	.st0{fill:#231F20;}
</style>
<g>
	<path class="st0" d="M20,0C8.954,0,0,8.954,0,20s8.954,20,20,20s20-8.954,20-20S31.046,0,20,0z M20,37.909
		c-9.874,0-17.909-8.034-17.909-17.909c0-9.874,8.034-17.909,17.909-17.909c9.875,0,17.909,8.034,17.909,17.909
		C37.908,29.874,29.875,37.909,20,37.909z M25.414,23.265h6.448v-6.448h-6.448V23.265z M26.982,18.385h3.311v3.311h-3.311V18.385z
		 M16.184,16.899l5.899-3.417l-0.587,2.207l1.515,0.403l1.278-4.794l-4.794-1.277l-0.405,1.515l2.208,0.589l-5.899,3.417
		L16.184,16.899z M4.481,24.621h9.16v-9.16h-9.16V24.621z M6.049,17.03h6.023v6.022H6.049V17.03z M21.495,24.575l0.587,2.208
		l-5.899-3.417l-0.786,1.358l5.898,3.417l-2.207,0.589l0.405,1.515l4.794-1.278l-1.278-4.794L21.495,24.575z M25.414,31.878h6.448
		V25.43h-6.448V31.878z M26.982,26.999h3.311v3.311h-3.311V26.999z M25.414,14.651h6.448V8.203h-6.448V14.651z M26.982,9.773h3.311
		v3.311h-3.311V9.773z M19.947,17.733l1.615,1.615h-6.817v1.569h6.817l-1.615,1.615l1.109,1.109l3.509-3.509l-3.509-3.509
		L19.947,17.733z"/>
</g>
</svg>
