<?xml version="1.0" encoding="utf-8"?>
<!-- Generator: Adobe Illustrator 23.0.1, SVG Export Plug-In . SVG Version: 6.00 Build 0)  -->
<svg version="1.1" id="Layer_1" xmlns="http://www.w3.org/2000/svg" xmlns:xlink="http://www.w3.org/1999/xlink" x="0px" y="0px"
	 viewBox="0 0 40 40" style="enable-background:new 0 0 40 40;" xml:space="preserve">
<style type="text/css">
	.st0{fill:#231F20;}
</style>
<path class="st0" d="M38.119,19.149H21.03c-1.037,0-1.881,0.844-1.881,1.881v17.166C19.158,39.194,19.973,40,20.962,40h17.233
	c1.004-0.009,1.813-0.834,1.804-1.83V21.03C40,19.993,39.156,19.149,38.119,19.149z M38.298,38.178
	c0.001,0.065-0.052,0.119-0.128,0.12H20.971c0,0,0,0-0.001,0c-0.065,0-0.118-0.053-0.119-0.128V21.03
	c0-0.099,0.08-0.179,0.179-0.179h17.089c0.099,0,0.179,0.08,0.179,0.179C38.298,21.03,38.298,38.178,38.298,38.178z M10.477,28.511
	V11.496c0.001-0.102,0.081-0.184,0.162-0.186h17.106c0.099,0,0.179,0.08,0.179,0.179v6.119h1.702v-6.119
	c0-1.037-0.844-1.881-1.881-1.881H10.618c-1.025,0.025-1.835,0.848-1.843,1.88v17c-0.012,0.504,0.172,0.984,0.52,1.349
	c0.348,0.366,0.818,0.574,1.343,0.587h6.885v-1.702h-6.865C10.556,28.721,10.474,28.635,10.477,28.511z M1.702,18.97V1.881
	c0-0.098,0.08-0.179,0.179-0.179H18.97c0.098,0,0.179,0.08,0.179,0.179v6.153h1.702V1.881C20.851,0.844,20.007,0,18.97,0H1.881
	C0.844,0,0,0.844,0,1.881V18.97c0,1.037,0.844,1.881,1.881,1.881h5.353v-1.702H1.881C1.782,19.149,1.702,19.069,1.702,18.97z"/>
</svg>
