<?xml version="1.0" encoding="utf-8"?>
<!-- Generator: Adobe Illustrator 23.0.1, SVG Export Plug-In . SVG Version: 6.00 Build 0)  -->
<svg version="1.1" id="Layer_1" xmlns="http://www.w3.org/2000/svg" xmlns:xlink="http://www.w3.org/1999/xlink" x="0px" y="0px"
	 viewBox="0 0 40 40" style="enable-background:new 0 0 40 40;" xml:space="preserve">
<path d="M38.394,29.6h-3.496L21.026,0.456C20.893,0.178,20.613,0.001,20.306,0H7.994c-0.442,0-0.8,0.358-0.8,0.8v8.8
	c-0.001,0.213,0.082,0.417,0.232,0.568c0.151,0.15,0.355,0.233,0.568,0.232h5.888l13.936,29.144c0.132,0.278,0.412,0.455,0.72,0.456
	h9.856c0.442,0,0.8-0.358,0.8-0.8v-8.8C39.194,29.958,38.835,29.6,38.394,29.6z M37.594,38.4h-8.552L15.114,9.256
	c-0.132-0.278-0.412-0.455-0.72-0.456h-5.6V1.6h11.008l13.872,29.144c0.132,0.278,0.412,0.455,0.72,0.456h3.2V38.4z M13.178,16.088
	c-0.135-0.275-0.414-0.449-0.72-0.448c-0.308,0.001-0.588,0.178-0.72,0.456L0.914,38.824c-0.143,0.248-0.143,0.552,0,0.8
	C1.06,39.858,1.317,40.001,1.594,40h10.4c0.308-0.007,0.586-0.191,0.712-0.472l5.688-12c0.1-0.221,0.1-0.475,0-0.696L13.178,16.088z
	 M11.474,38.4H2.866l9.6-20.12l4.328,8.92L11.474,38.4z"/>
</svg>
