<?xml version="1.0" encoding="utf-8"?>
<!-- Generator: Adobe Illustrator 23.0.1, SVG Export Plug-In . SVG Version: 6.00 Build 0)  -->
<svg version="1.1" id="Layer_1" xmlns="http://www.w3.org/2000/svg" xmlns:xlink="http://www.w3.org/1999/xlink" x="0px" y="0px"
	 viewBox="0 0 40 40" style="enable-background:new 0 0 40 40;" xml:space="preserve">
<path d="M33.705,12.687c-0.44-3.528-2.8-5.127-5.039-5.127c-1.074-0.004-2.117,0.357-2.96,1.024c-0.588-1.276-1.401-2.435-2.4-3.424
	c-1.926-1.97-4.547-3.107-7.302-3.169C10.184,1.861,5.359,6.474,5.229,12.295v0.584c-3.192,0.879-5.357,3.843-5.223,7.151v0.52
	c0.338,4.071,3.795,7.17,7.879,7.063h0.92v-1.6h-0.92c-3.229,0.111-5.984-2.317-6.279-5.535v-0.44c0-4.031,2.928-5.359,4.671-5.791
	c0.394-0.098,0.653-0.477,0.6-0.88c-0.042-0.353-0.063-0.708-0.064-1.064C6.872,9.959,7.85,7.731,9.537,6.102
	c3.549-3.429,9.205-3.331,12.634,0.218c1.128,1.11,1.984,2.465,2.504,3.959c0.099,0.276,0.342,0.476,0.632,0.52
	c0.291,0.044,0.583-0.076,0.76-0.312c0.61-0.825,1.573-1.314,2.6-1.32c1.496,0,3.312,1.104,3.495,4.231
	c0.022,0.362,0.284,0.664,0.64,0.736c3.719,0.744,5.599,2.76,5.599,5.959c0,5.343-4.471,5.919-6.399,5.919v1.6
	c3.863,0,7.999-1.984,7.999-7.527C40,16.303,37.768,13.687,33.705,12.687z M25.602,19.486c-2.403,0-4.351,1.948-4.351,4.351
	c0,2.13,1.531,3.899,3.551,4.275v3.5h-4.799V17.936c2.019-0.379,3.548-2.146,3.551-4.273c0-2.403-1.948-4.351-4.351-4.351
	s-4.351,1.948-4.351,4.351c0,2.13,1.531,3.899,3.551,4.275v9.675h-4.799v-1.534c2.019-0.379,3.548-2.146,3.551-4.273
	c0-2.403-1.948-4.351-4.351-4.351s-4.351,1.948-4.351,4.351c0,2.13,1.531,3.899,3.551,4.275v2.332c0,0.442,0.358,0.8,0.8,0.8h5.599
	v8.799h1.6v-4.799h5.599c0.442,0,0.8-0.358,0.8-0.8v-4.301c2.019-0.379,3.548-2.146,3.551-4.273
	C29.953,21.434,28.005,19.486,25.602,19.486z M10.052,21.806c0-1.52,1.232-2.752,2.752-2.752c1.518,0.004,2.747,1.234,2.752,2.752
	c0,1.52-1.232,2.752-2.752,2.752S10.052,23.325,10.052,21.806z M19.203,16.415c-1.52,0-2.752-1.232-2.752-2.752
	s1.232-2.752,2.752-2.752v0.032c1.507,0,2.734,1.212,2.752,2.72C21.955,15.183,20.723,16.415,19.203,16.415z M25.602,26.589
	c-1.52,0-2.752-1.232-2.752-2.752c0-1.52,1.232-2.752,2.752-2.752c1.52,0,2.752,1.232,2.752,2.752
	C28.354,25.357,27.122,26.589,25.602,26.589z"/>
</svg>
