<?xml version="1.0" encoding="utf-8"?>
<!-- Generator: Adobe Illustrator 23.0.1, SVG Export Plug-In . SVG Version: 6.00 Build 0)  -->
<svg version="1.1" id="Layer_1" xmlns="http://www.w3.org/2000/svg" xmlns:xlink="http://www.w3.org/1999/xlink" x="0px" y="0px"
	 viewBox="0 0 40 40" style="enable-background:new 0 0 40 40;" xml:space="preserve">
<path d="M25.166,7.35c-0.341,0.109-0.587,0.408-0.627,0.763c-0.627,5.608-2.799,9.607-5.962,10.988
	c-0.216,0.092-0.388,0.264-0.48,0.48c-0.197,0.462,0.018,0.996,0.48,1.192c3.236,1.372,5.371,5.371,5.962,10.97
	c0.023,0.373,0.272,0.694,0.627,0.809c0.093,0.014,0.188,0.014,0.282,0c0.256-0.001,0.501-0.11,0.673-0.3
	c1.291-1.418,5.453-6.489,5.453-12.324c0-5.49-3.417-10.079-5.453-12.324C25.88,7.339,25.507,7.24,25.166,7.35z M26.012,29.454
	c-0.818-4.381-2.663-7.707-5.253-9.525c2.599-1.818,4.444-5.162,5.308-9.561c1.69,2.29,3.635,5.699,3.635,9.561
	S27.52,27.409,26.012,29.454z M17.723,8.577l-0.682,2.036l-2.036,0.682l2.036,0.682l0.682,2.036l0.673-2.036l2.036-0.682
	l-2.036-0.682L17.723,8.577z M34.082,27.645l0.673-2.036l2.036-0.682l-2.036-0.682l-0.673-2.036l-0.682,2.036l-2.036,0.682
	l2.036,0.682L34.082,27.645z M15.987,29.308l0.782,2.354l0.791-2.354l2.354-0.782l-2.354-0.791l-0.791-2.354l-0.782,2.354
	l-2.354,0.791L15.987,29.308z M25.846,3.017c-9.38-1.722-18.38,4.487-20.102,13.867c-0.09,0.502,0.243,0.982,0.745,1.072
	c0.502,0.09,0.982-0.243,1.072-0.745C8.702,10.85,13.682,5.87,20.043,4.73c8.399-1.506,16.429,4.082,17.935,12.482
	c1.506,8.399-4.082,16.429-12.482,17.935c-8.399,1.506-16.429-4.082-17.935-12.482C7.476,22.162,7,21.825,6.498,21.91
	c-0.502,0.085-0.84,0.561-0.754,1.063c1.445,8.273,8.634,14.307,17.032,14.296c8.317-0.023,15.436-5.971,16.937-14.151
	C41.435,13.739,35.226,4.739,25.846,3.017z M2.727,19.02H0.909C0.407,19.02,0,19.427,0,19.929s0.407,0.909,0.909,0.909h1.818
	c0.502,0,0.909-0.407,0.909-0.909S3.229,19.02,2.727,19.02z M8.18,19.929c0-0.502-0.407-0.909-0.909-0.909H5.453
	c-0.502,0-0.909,0.407-0.909,0.909s0.407,0.909,0.909,0.909h1.818C7.773,20.838,8.18,20.431,8.18,19.929z M11.815,20.838
	c0.502,0,0.909-0.407,0.909-0.909s-0.407-0.909-0.909-0.909H9.997c-0.502,0-0.909,0.407-0.909,0.909s0.407,0.909,0.909,0.909H11.815
	z M13.633,19.929c0,0.502,0.407,0.909,0.909,0.909h1.818c0.502,0,0.909-0.407,0.909-0.909s-0.407-0.909-0.909-0.909h-1.818
	C14.04,19.02,13.633,19.427,13.633,19.929z"/>
</svg>
