<?xml version="1.0" encoding="utf-8"?>
<!-- Generator: Adobe Illustrator 23.0.1, SVG Export Plug-In . SVG Version: 6.00 Build 0)  -->
<svg version="1.1" id="Layer_1" xmlns="http://www.w3.org/2000/svg" xmlns:xlink="http://www.w3.org/1999/xlink" x="0px" y="0px"
	 viewBox="0 0 40 40" style="enable-background:new 0 0 40 40;" xml:space="preserve">
<path d="M9.162,16.755c0.003,0.825,0.3,1.621,0.838,2.246l0.085,0.161c0.063,0.073,0.133,0.14,0.208,0.2
	c0.116,0.101,0.24,0.193,0.369,0.277c0.025,0.022,0.054,0.041,0.085,0.054c0.123,0.069,0.254,0.138,0.392,0.2l0.238,0.108
	l0.077,0.038h0.085l0.223,0.1c0.362,0.138,0.769,0.285,1.223,0.431l0.708,0.2l0.377,0.085c1.941,0.471,3.933,0.701,5.93,0.685
	c3.036,0.058,6.051-0.526,8.845-1.715c1.216-0.542,2.004-1.745,2.015-3.077V5.71c-0.001-0.469-0.274-0.895-0.7-1.092l-9.668-4.5
	c-0.323-0.157-0.7-0.157-1.023,0L9.801,4.587C9.379,4.788,9.11,5.212,9.109,5.679c0,0.095,0.023,0.183,0.054,0.267V16.755z
	 M29.322,16.747c0.003,0.741-0.431,1.413-1.108,1.715c-2.357,0.995-4.887,1.517-7.446,1.538v-9.294l8.553-3.842V16.747z M20,1.579
	l8.538,3.952l-8.371,3.76c-0.031-0.018-0.057-0.043-0.09-0.059l-8.338-3.846L20,1.579z M10.678,6.604l8.553,3.967v9.43
	c-1.618-0.041-3.227-0.255-4.8-0.638l-0.362-0.1l-0.661-0.185c-0.415-0.138-0.792-0.277-1.092-0.385l-0.269-0.115l-0.269-0.131
	l-0.262-0.131l-0.231-0.177l-0.085-0.085l-0.069-0.077c-0.294-0.34-0.455-0.774-0.454-1.223V6.604z M33.253,27.016l-3.584-1.538
	c-0.274-0.135-0.595-0.135-0.869,0l-3.661,1.577c-0.319,0.162-0.521,0.488-0.523,0.846v3.985l-3.407-1.462
	c-0.274-0.135-0.595-0.135-0.869,0l-3.415,1.435V27.9c-0.001-0.387-0.235-0.736-0.592-0.885l-3.584-1.538
	c-0.274-0.135-0.595-0.135-0.869,0l-3.661,1.577c-0.319,0.162-0.521,0.488-0.523,0.846v4.684c0.006,0.373,0.228,0.709,0.569,0.861
	l3.577,1.538c0.06,0.03,0.123,0.053,0.188,0.069c0.091,0.027,0.185,0.046,0.281,0.047c0.144,0.009,0.288-0.023,0.415-0.092
	l3.431-1.478v3.955c0.001,0.381,0.223,0.726,0.569,0.885l3.577,1.538c0.119,0.06,0.251,0.092,0.385,0.092c0.01,0,0.021,0,0.031,0
	c0.006,0,0.011-0.004,0.018-0.004c0.012,0,0.024,0.004,0.036,0.004c0.143,0.006,0.286-0.023,0.415-0.085l3.677-1.584
	c0.319-0.162,0.521-0.488,0.523-0.846v-3.952l3.377,1.452c0.06,0.03,0.123,0.053,0.188,0.069c0.091,0.027,0.185,0.046,0.281,0.047
	c0.144,0.009,0.288-0.023,0.415-0.092l3.677-1.584c0.319-0.158,0.522-0.482,0.523-0.838V27.9
	C33.844,27.513,33.61,27.164,33.253,27.016z M11.539,33.177l-2.308-0.985v-3.223l2.308,0.985V33.177z M12.393,28.685l-2.039-0.875
	l1.954-0.84l2.086,0.897L12.393,28.685z M15.385,32.192l-2.308,0.986v-3.112l2.308-0.943V32.192z M20,38.084l-2.308-0.992v-3.246
	L20,34.861V38.084z M20.85,33.59l-2.04-0.876l1.96-0.838l2.089,0.893L20.85,33.59z M23.846,37.092l-2.308,0.992v-3.113l2.308-0.943
	V37.092z M28.461,33.177l-2.308-0.985v-3.223l2.308,0.985V33.177z M29.323,28.688l-2.047-0.878l1.954-0.84l2.094,0.901
	L29.323,28.688z M32.307,32.192l-2.308,0.986v-3.105l2.308-0.943V32.192z M33.291,12.448l-0.431,1.477
	c3.454,1.015,5.6,2.461,5.6,3.769c0,2.546-7.584,5.384-18.46,5.384S1.54,20.239,1.54,17.693c0-1.308,2.146-2.754,5.6-3.769
	l-0.431-1.477c-4.323,1.277-6.707,3.138-6.707,5.246c0,4.5,10.307,6.923,19.998,6.923s19.998-2.423,19.998-6.923
	C39.998,15.586,37.614,13.724,33.291,12.448z"/>
</svg>
