<?xml version="1.0" encoding="utf-8"?>
<!-- Generator: Adobe Illustrator 23.0.1, SVG Export Plug-In . SVG Version: 6.00 Build 0)  -->
<svg version="1.1" id="Layer_1" xmlns="http://www.w3.org/2000/svg" xmlns:xlink="http://www.w3.org/1999/xlink" x="0px" y="0px"
	 viewBox="0 0 40 40" style="enable-background:new 0 0 40 40;" xml:space="preserve">
<path d="M35.963,30.336v-5.601C38.25,24.37,40,22.394,40,20.004c0-2.649-2.147-4.796-4.796-4.796c-2.306,0-4.23,1.628-4.69,3.797
	h-5.647c-0.419-1.978-2.057-3.501-4.091-3.756v-3.976c2.779-0.299,4.944-2.648,4.948-5.506V5.759c0-3.064-2.484-5.548-5.548-5.548
	c-3.064,0-5.548,2.484-5.548,5.548c0,2.722,1.962,4.982,4.548,5.453v4.101c-1.846,0.392-3.3,1.845-3.691,3.691h-5.288
	c-0.465-2.362-2.543-4.145-5.041-4.149C2.313,14.852,0.004,17.153,0,19.996c-0.004,2.447,1.702,4.493,3.989,5.02v5.406
	c-2.069,0.515-3.605,2.381-3.605,4.61c0,2.627,2.129,4.756,4.756,4.756c2.633-0.022,4.756-2.163,4.756-4.796
	c-0.021-2.46-1.907-4.469-4.309-4.694v-5.169c2.436-0.21,4.386-2.111,4.67-4.526h5.164c0.254,2.034,1.778,3.671,3.756,4.091v4.897
	c-2.365,0.465-4.149,2.548-4.149,5.049c0,2.843,2.305,5.148,5.148,5.148c2.839-0.009,5.139-2.308,5.148-5.148
	c0-2.64-1.988-4.813-4.548-5.11v-4.771c2.168-0.271,3.884-1.987,4.155-4.155h5.518c0.261,2.088,1.861,3.755,3.915,4.119v5.637
	c-2.19,0.41-3.857,2.321-3.877,4.633c-0.022,2.627,2.089,4.774,4.716,4.796c2.649,0,4.796-2.147,4.796-4.796
	C39.98,32.628,38.235,30.681,35.963,30.336z M8.297,35.032v0.008c0,1.744-1.414,3.157-3.157,3.157s-3.157-1.414-3.157-3.157
	c0-1.744,1.414-3.157,3.157-3.157C6.872,31.904,8.272,33.3,8.297,35.032z M5.156,23.553c-1.96,0.004-3.553-1.581-3.557-3.541
	c-0.004-1.96,1.581-3.553,3.541-3.557h0.008c1.96,0,3.549,1.589,3.549,3.549C8.697,21.961,7.113,23.549,5.156,23.553z M16.227,5.767
	c0-2.181,1.768-3.949,3.949-3.949s3.949,1.768,3.949,3.949s-1.768,3.949-3.949,3.949S16.227,7.948,16.227,5.767z M23.725,34.64
	c0,1.96-1.589,3.549-3.549,3.549s-3.549-1.589-3.549-3.549s1.589-3.549,3.549-3.549C22.134,31.096,23.721,32.682,23.725,34.64z
	 M20.176,23.281c-1.766,0-3.197-1.432-3.197-3.197c0-1.766,1.432-3.197,3.197-3.197v-0.04c0.013,0,0.027,0,0.04,0
	c1.766,0.022,3.179,1.471,3.157,3.237C23.373,21.85,21.942,23.281,20.176,23.281z M32.006,20.084c0-1.766,1.432-3.197,3.197-3.197
	v-0.04c0.013,0,0.027,0,0.04,0c1.766,0.022,3.179,1.471,3.157,3.237c0,1.766-1.432,3.197-3.197,3.197
	C33.438,23.281,32.006,21.85,32.006,20.084z M35.284,38.197c-1.744,0.022-3.175-1.374-3.197-3.117s1.374-3.175,3.117-3.197
	c0.011,0,0.022,0,0.032,0c1.744-0.004,3.161,1.406,3.165,3.15C38.406,36.763,37.015,38.175,35.284,38.197z M5.14,18.421
	c-0.874,0-1.583,0.709-1.583,1.583c0,0.874,0.709,1.583,1.583,1.583s1.583-0.709,1.583-1.583C6.723,19.13,6.014,18.421,5.14,18.421z
	 M18.593,34.64c0,0.874,0.709,1.583,1.583,1.583s1.583-0.709,1.583-1.583c0-0.874-0.709-1.583-1.583-1.583
	S18.593,33.766,18.593,34.64z"/>
</svg>
