<?xml version="1.0" encoding="utf-8"?>
<!-- Generator: Adobe Illustrator 23.0.1, SVG Export Plug-In . SVG Version: 6.00 Build 0)  -->
<svg version="1.1" id="Layer_1" xmlns="http://www.w3.org/2000/svg" xmlns:xlink="http://www.w3.org/1999/xlink" x="0px" y="0px"
	 viewBox="0 0 40 40" style="enable-background:new 0 0 40 40;" xml:space="preserve">
<style type="text/css">
	.st0{fill:#231F20;}
</style>
<path class="st0" d="M34.8,0H5.2C2.333,0,0,2.333,0,5.2v29.6C0,37.667,2.333,40,5.2,40h17.191v-1.702H5.2
	c-1.929,0-3.498-1.569-3.498-3.498V5.2c0-1.929,1.569-3.498,3.498-3.498h29.6c1.929,0,3.498,1.569,3.498,3.498v11.609H40V5.2
	C40,2.333,37.667,0,34.8,0z M39.934,19.634c-0.559-2.176-4.799-3.174-8.76-3.174c-4.069,0-8.177,1.089-8.758,3.174
	c0,0-0.076,0.318-0.076,0.51v16.17c0,2.409,4.444,3.669,8.834,3.669c4.386,0,8.826-1.266,8.826-3.685v-16.17
	C40,19.87,39.934,19.634,39.934,19.634z M31.174,18.162c4.128,0,6.499,1.063,7.015,1.72c-0.516,0.663-2.886,1.735-7.015,1.735
	c-4.118,0-6.49-1.065-7.018-1.728C24.684,19.226,27.057,18.162,31.174,18.162z M38.298,36.298c0,0.593-2.424,1.983-7.124,1.983
	c-4.706,0-7.132-1.378-7.132-1.966V21.896c1.693,0.939,4.421,1.423,7.132,1.423c2.707,0,5.432-0.484,7.124-1.422V36.298z"/>
</svg>
