<?xml version="1.0" encoding="utf-8"?>
<!-- Generator: Adobe Illustrator 23.0.1, SVG Export Plug-In . SVG Version: 6.00 Build 0)  -->
<svg version="1.1" id="Layer_1" xmlns="http://www.w3.org/2000/svg" xmlns:xlink="http://www.w3.org/1999/xlink" x="0px" y="0px"
	 viewBox="0 0 40 40" style="enable-background:new 0 0 40 40;" xml:space="preserve">
<style type="text/css">
	.st0{fill:#231F20;}
</style>
<path class="st0" d="M34.51,0H5.49C2.463,0,0,2.463,0,5.49v29.02C0,37.537,2.463,40,5.49,40h29.02c3.027,0,5.49-2.463,5.49-5.49
	V5.49C40,2.463,37.537,0,34.51,0z M38.298,34.51c0,2.089-1.699,3.787-3.787,3.787H5.49c-2.088,0-3.787-1.699-3.787-3.787V5.49
	c0-2.088,1.699-3.787,3.787-3.787h29.02c2.089,0,3.787,1.699,3.787,3.787v29.02H38.298z M31.17,7.979H8.83
	c-0.47,0-0.851,0.381-0.851,0.851v22.34c0,0.47,0.381,0.851,0.851,0.851h22.34c0.47,0,0.851-0.381,0.851-0.851V8.83
	C32.021,8.36,31.641,7.979,31.17,7.979z M30.319,30.319H9.681V9.681h20.638V30.319z M14.896,25.308l2.191-3.922l2.221,3.922h2.589
	l-3.493-5.545l3.232-5.071h-2.527l-1.946,3.447l-1.946-3.447h-2.589l3.187,5.101l-3.447,5.515H14.896z M24.854,25.308h2.267V14.692
	h-2.007l-2.987,1.348v1.746l2.727-0.858V25.308z"/>
</svg>
