<?xml version="1.0" encoding="utf-8"?>
<!-- Generator: Adobe Illustrator 23.0.1, SVG Export Plug-In . SVG Version: 6.00 Build 0)  -->
<svg version="1.1" id="Layer_1" xmlns="http://www.w3.org/2000/svg" xmlns:xlink="http://www.w3.org/1999/xlink" x="0px" y="0px"
	 viewBox="0 0 40 40" style="enable-background:new 0 0 40 40;" xml:space="preserve">
<style type="text/css">
	.st0{fill:#231F20;}
</style>
<g>
	<path class="st0" d="M20,0C8.954,0,0,8.954,0,20s8.954,20,20,20s20-8.954,20-20S31.046,0,20,0z M20,37.909
		c-9.874,0-17.909-8.034-17.909-17.909S10.126,2.091,20,2.091c9.874,0,17.909,8.033,17.909,17.909S29.874,37.909,20,37.909z
		 M30.144,25.362v-3.888h-2.912v-4.179h-6.186v-1.672h6.262V6.552H12.694v9.071h6.261v1.672h-6.185v4.179H9.857v3.888h-2.73v5.752
		h5.752v-5.752h-1.453v-2.32h4.006v2.32H13.78v5.752h5.752v-5.752h-2.53v-3.888h-2.663v-2.61h11.326v2.61h-2.663v3.888h-2.53v5.752
		h5.752v-5.752H24.57v-2.32h4.006v2.32h-1.453v5.752h5.752v-5.752H30.144z M11.309,29.545H8.694V26.93h2.615V29.545z M17.961,26.93
		v2.615h-2.615V26.93H17.961z M14.784,13.53V8.642h10.431v4.888H14.784z M24.654,26.93v2.615h-2.615V26.93H24.654z M31.306,29.545
		h-2.615V26.93h2.615V29.545z"/>
</g>
</svg>
