<?xml version="1.0" encoding="utf-8"?>
<!-- Generator: Adobe Illustrator 23.0.1, SVG Export Plug-In . SVG Version: 6.00 Build 0)  -->
<svg version="1.1" id="Layer_1" xmlns="http://www.w3.org/2000/svg" xmlns:xlink="http://www.w3.org/1999/xlink" x="0px" y="0px"
	 viewBox="0 0 40 40" style="enable-background:new 0 0 40 40;" xml:space="preserve">
<style type="text/css">
	.st0{fill:#231F20;}
</style>
<path class="st0" d="M39.149,7.179H0.851C0.381,7.179,0,7.56,0,8.03v23.94c0,0.47,0.381,0.851,0.851,0.851h38.298
	c0.47,0,0.851-0.381,0.851-0.851V8.03C40,7.56,39.619,7.179,39.149,7.179z M38.298,31.119H1.702V8.881h36.596V31.119z M6.494,11.221
	H4.791V28.77h1.702L6.494,11.221L6.494,11.221z M11.277,11.221H9.574V28.77h1.702V11.221H11.277z M16.068,11.221h-1.702V28.77h1.702
	V11.221z M20.851,11.221h-1.702V28.77h1.702V11.221z M25.642,11.221H23.94V28.77h1.702V11.221z M30.426,11.221h-1.702V28.77h1.702
	V11.221z M35.217,11.221h-1.702V28.77h1.702V11.221z"/>
</svg>
