<?xml version="1.0" encoding="utf-8"?>
<!-- Generator: Adobe Illustrator 23.0.1, SVG Export Plug-In . SVG Version: 6.00 Build 0)  -->
<svg version="1.1" id="Layer_1" xmlns="http://www.w3.org/2000/svg" xmlns:xlink="http://www.w3.org/1999/xlink" x="0px" y="0px"
	 viewBox="0 0 40 40" style="enable-background:new 0 0 40 40;" xml:space="preserve">
<style type="text/css">
	.st0{fill:#231F20;}
</style>
<path class="st0" d="M34.51,0H5.49C2.463,0,0,2.463,0,5.49v29.02C0,37.537,2.463,40,5.49,40h29.02c3.027,0,5.49-2.463,5.49-5.49
	V5.49C40,2.463,37.537,0,34.51,0z M38.298,34.51c0,2.089-1.699,3.787-3.787,3.787H5.49c-2.088,0-3.787-1.699-3.787-3.787V5.49
	c0-2.088,1.699-3.787,3.787-3.787h29.02c2.089,0,3.787,1.699,3.787,3.787v29.02H38.298z M12.219,23.977
	c-0.745-0.812-1.117-2.052-1.117-3.72v-0.514c0-1.683,0.383-2.934,1.15-3.753c0.767-0.819,1.925-1.228,3.474-1.228
	c0.864,0,1.974,0.149,3.329,0.446v-2.636c-1.176-0.416-2.42-0.625-3.731-0.625c-2.457,0-4.364,0.707-5.719,2.122
	c-1.356,1.415-2.033,3.411-2.033,5.987c0,2.606,0.648,4.584,1.944,5.932s3.202,2.021,5.719,2.021c1.489,0,2.837-0.231,4.044-0.692
	V24.68c-1.564,0.343-2.778,0.514-3.642,0.514C14.102,25.194,12.963,24.789,12.219,23.977z M27.227,18.693l3.931-3.998v-2.458h-9.427
	v2.547h5.92l-3.999,4.312v2.055c0.254-0.029,0.615-0.063,1.084-0.101c0.469-0.037,0.801-0.056,0.994-0.056
	c0.969,0,1.684,0.168,2.146,0.503c0.46,0.335,0.691,0.853,0.691,1.553c0,0.79-0.249,1.389-0.748,1.799
	c-0.499,0.41-1.225,0.614-2.178,0.614c-1.074,0-2.443-0.283-4.112-0.849v2.524c1.415,0.611,2.822,0.916,4.223,0.916
	c1.235,0,2.315-0.212,3.24-0.637c0.923-0.425,1.626-1.016,2.111-1.776c0.484-0.76,0.725-1.631,0.725-2.614
	c0-1.266-0.409-2.286-1.228-3.06C29.78,19.192,28.657,18.767,27.227,18.693z"/>
</svg>
