<?xml version="1.0" encoding="utf-8"?>
<!-- Generator: Adobe Illustrator 23.0.1, SVG Export Plug-In . SVG Version: 6.00 Build 0)  -->
<svg version="1.1" id="Layer_1" xmlns="http://www.w3.org/2000/svg" xmlns:xlink="http://www.w3.org/1999/xlink" x="0px" y="0px"
	 viewBox="0 0 40 40" style="enable-background:new 0 0 40 40;" xml:space="preserve">
<style type="text/css">
	.st0{fill:#231F20;}
</style>
<path class="st0" d="M39.149,7.179H0.851C0.381,7.179,0,7.56,0,8.03v23.94c0,0.47,0.381,0.851,0.851,0.851h38.298
	c0.47,0,0.851-0.381,0.851-0.851V8.03C40,7.56,39.619,7.179,39.149,7.179z M38.298,31.119H1.702V8.881h36.596V31.119z M5.694,11.221
	H3.991V28.77h1.702L5.694,11.221L5.694,11.221z M10.477,11.221H8.775V28.77h1.702C10.477,28.77,10.477,11.221,10.477,11.221z
	 M31.226,11.221h-1.702V28.77h1.702V11.221z M36.008,11.221h-1.702V28.77h1.702V11.221z M12.817,21.647h6.332v1.489h-5.532
	c-0.47,0-0.851,0.381-0.851,0.851v3.991c0,0.47,0.381,0.851,0.851,0.851h12.766c0.47,0,0.851-0.381,0.851-0.851v-3.991
	c0-0.47-0.381-0.851-0.851-0.851h-5.532v-1.489h6.332c0.47,0,0.851-0.381,0.851-0.851v-8.775c0-0.47-0.381-0.851-0.851-0.851H12.817
	c-0.47,0-0.851,0.381-0.851,0.851v8.775C11.966,21.266,12.347,21.647,12.817,21.647z M25.532,24.839v2.289H14.468v-2.289H25.532z
	 M13.668,12.872h12.664v7.073H13.668V12.872z M23.983,25.579h-1.591v0.8h1.591V25.579z"/>
</svg>
