<?xml version="1.0" encoding="utf-8"?>
<!-- Generator: Adobe Illustrator 23.0.1, SVG Export Plug-In . SVG Version: 6.00 Build 0)  -->
<svg version="1.1" id="Layer_1" xmlns="http://www.w3.org/2000/svg" xmlns:xlink="http://www.w3.org/1999/xlink" x="0px" y="0px"
	 viewBox="0 0 40 40" style="enable-background:new 0 0 40 40;" xml:space="preserve">
<style type="text/css">
	.st0{fill:#231F20;}
</style>
<path class="st0" d="M32.41,0.894c0-0.003-0.004-0.002-0.005-0.004c-0.01-0.086-0.03-0.171-0.067-0.251
	c-0.124-0.273-0.381-0.461-0.678-0.497C31.163,0.084,19.4-1.236,12.801,5.495c-4.989,5.091-5.445,13.191-5.347,17.048V40H9.17
	V25.515c0.481,0.031,1.16,0.062,1.989,0.062c3.993,0,11.38-0.709,16.039-5.462C33.788,13.382,32.47,1.4,32.41,0.894z M14.027,6.696
	C18.264,2.373,25.146,1.73,28.869,1.73c0.416,0,0.793,0.008,1.123,0.02c-2.931,4.153-6.222,8.081-9.802,11.698
	c-3.39,3.501-7.083,6.746-10.991,9.66C9.068,19.826,9.262,11.556,14.027,6.696z M25.973,18.915
	c-4.287,4.373-11.237,4.972-14.963,4.948c3.686-2.812,7.188-5.894,10.406-9.215c3.419-3.454,6.562-7.205,9.407-11.151
	C30.859,7.234,30.313,14.481,25.973,18.915z"/>
</svg>
