<?xml version="1.0" encoding="utf-8"?>
<!-- Generator: Adobe Illustrator 23.0.1, SVG Export Plug-In . SVG Version: 6.00 Build 0)  -->
<svg version="1.1" id="Layer_1" xmlns="http://www.w3.org/2000/svg" xmlns:xlink="http://www.w3.org/1999/xlink" x="0px" y="0px"
	 viewBox="0 0 40 40" style="enable-background:new 0 0 40 40;" xml:space="preserve">
<style type="text/css">
	.st0{fill:#231F20;}
</style>
<path class="st0" d="M39.744,19.35l-5.822-6.272l-1.4,1.301l4.331,4.665H16.191c-0.475-4.031-3.908-7.17-8.065-7.17
	C3.645,11.874,0,15.519,0,20c0,4.48,3.645,8.126,8.126,8.126c4.157,0,7.589-3.139,8.065-7.17h20.661l-4.33,4.664l1.4,1.301
	l5.822-6.271C40.085,20.284,40.085,19.716,39.744,19.35z M8.126,26.214c-3.426,0-6.214-2.788-6.214-6.214s2.788-6.214,6.214-6.214
	S14.34,16.574,14.34,20S11.553,26.214,8.126,26.214z M37.705,20.037v-0.074L37.74,20L37.705,20.037z"/>
</svg>
