<?xml version="1.0" encoding="utf-8"?>
<!-- Generator: Adobe Illustrator 23.0.1, SVG Export Plug-In . SVG Version: 6.00 Build 0)  -->
<svg version="1.1" id="Layer_1" xmlns="http://www.w3.org/2000/svg" xmlns:xlink="http://www.w3.org/1999/xlink" x="0px" y="0px"
	 viewBox="0 0 40 40" style="enable-background:new 0 0 40 40;" xml:space="preserve">
<style type="text/css">
	.st0{fill:#231F20;}
</style>
<g>
	<path class="st0" d="M11.263,27.632h9.508V9.616h-9.508V27.632z M12.797,11.148h6.441v14.95h-6.441V11.148z M14.001,14.418h4.032
		v-1.797h-4.032V14.418z M14.001,17.574h4.032v-1.797h-4.032V17.574z M26.3,6.433c1.013,0.581,1.892,2.65,1.318,6.719
		c-0.403,2.863-1.114,5.228-1.555,6.519l-0.954-2.192l-1.406,0.613l1.907,4.384l4.385-1.907l-0.613-1.406l-1.79,0.778
		c0.466-1.393,1.143-3.737,1.543-6.575c0.586-4.161-0.17-7.173-2.074-8.264c-1.295-0.742-2.948-0.448-4.53,0.807l0.952,1.202
		C24.111,6.614,25.31,5.866,26.3,6.433z M33.101,26.616l1.463-0.462l-1.438-4.561l-4.561,1.438l0.462,1.463l2.007-0.633
		c-1.146,1.898-3.532,5.796-4.588,7.138c-0.837,1.064-2.2,2.857-3.553,2.768c-0.706-0.042-1.417-0.645-2.113-1.789l-1.31,0.797
		c0.973,1.599,2.094,2.448,3.332,2.522c0.059,0.005,0.119,0.006,0.178,0.006c2.034,0,3.679-2.092,4.673-3.357
		c1.151-1.464,3.668-5.586,4.785-7.443L33.101,26.616z M40,23.09h-0.006c-0.066-3.902-2.881-7.131-6.596-7.835
		c-0.078-1.479-0.779-2.781-1.834-3.68v4.874c0.246,0.413,0.641,0.728,1.137,0.822l0.066,0.013c2.651,0.502,4.806,2.617,5.087,5.302
		c0.022,0.205,0.026,0.418,0.027,0.632c-0.07,3.329-2.794,6.017-6.141,6.017h-0.177v2.111h0.177c3.766,0,6.945-2.537,7.934-5.99
		c0.042-0.131,0.071-0.272,0.105-0.409c0.023-0.098,0.047-0.197,0.066-0.297c0.042-0.208,0.075-0.423,0.098-0.643
		c0.015-0.134,0.019-0.27,0.029-0.406C39.979,23.476,40,23.358,40,23.227c0-0.025-0.003-0.049-0.003-0.073
		C39.996,23.133,40,23.112,40,23.09z M25.135,29.237H8.563c-3.752,0-6.767-3.218-6.428-7.04c0.224-2.521,2.004-4.641,4.375-5.527
		l0.048-0.018c0.653-0.243,1.093-0.857,1.115-1.553c0.13-3.973,2.929-7.495,6.847-8.165c3.905-0.667,7.612,1.434,9.095,4.961
		l0.176,0.418c0.401,0.953,1.544,1.334,2.437,0.821v-2.394c-0.23,0.098-0.454,0.209-0.666,0.336
		c-1.575-3.746-5.279-6.378-9.598-6.378c-5.633,0-10.209,4.478-10.391,10.067c-3.458,1.291-5.863,4.743-5.545,8.719
		c0.359,4.495,4.306,7.863,8.816,7.863h16.292L25.135,29.237L25.135,29.237z"/>
</g>
</svg>
