<?xml version="1.0" encoding="utf-8"?>
<!-- Generator: Adobe Illustrator 23.0.1, SVG Export Plug-In . SVG Version: 6.00 Build 0)  -->
<svg version="1.1" id="Layer_1" xmlns="http://www.w3.org/2000/svg" xmlns:xlink="http://www.w3.org/1999/xlink" x="0px" y="0px"
	 viewBox="0 0 40 40" style="enable-background:new 0 0 40 40;" xml:space="preserve">
<style type="text/css">
	.st0{fill:#231F20;}
</style>
<g>
	<path class="st0" d="M20,0C8.954,0,0,8.954,0,20s8.954,20,20,20s20-8.954,20-20C40,8.954,31.046,0,20,0z M31.163,33.979V11.594
		l-5.587-5.587H9.624v27.985h21.522c-3.062,2.445-6.933,3.917-11.146,3.917c-9.874,0-17.909-8.034-17.909-17.909
		c0-9.875,8.033-17.909,17.909-17.909S37.909,10.125,37.909,20C37.909,25.654,35.269,30.695,31.163,33.979z M29.595,12.704v19.72
		H11.193V7.576h13.274v5.128H29.595z M26.037,11.135v-2.45l2.45,2.45H26.037z M20.414,18.015l-2.201,1.187
		c-0.406-0.384-0.951-0.624-1.554-0.624c-1.251,0-2.266,1.015-2.266,2.266c0,1.251,1.015,2.266,2.266,2.266
		c0.603,0,1.149-0.24,1.554-0.624l2.201,1.189c-0.006,0.067-0.021,0.133-0.021,0.201c0,1.251,1.015,2.266,2.266,2.266
		c1.251,0,2.266-1.015,2.266-2.266s-1.015-2.266-2.266-2.266c-0.806,0-1.509,0.424-1.911,1.057l-1.966-1.061
		c0.086-0.239,0.141-0.494,0.141-0.762s-0.055-0.523-0.141-0.762l1.966-1.061c0.402,0.633,1.105,1.057,1.911,1.057
		c1.251,0,2.266-1.015,2.266-2.266c0-1.251-1.015-2.266-2.266-2.266c-1.251,0-2.266,1.015-2.266,2.266
		C20.394,17.882,20.408,17.947,20.414,18.015z M16.658,22.065c-0.673,0-1.221-0.547-1.221-1.221s0.547-1.221,1.221-1.221
		c0.673,0,1.221,0.547,1.221,1.221S17.331,22.065,16.658,22.065z M22.659,22.656c0.673,0,1.221,0.547,1.221,1.221
		c0,0.673-0.547,1.221-1.221,1.221c-0.673,0-1.221-0.547-1.221-1.221C21.44,23.203,21.986,22.656,22.659,22.656z M22.659,16.593
		c0.673,0,1.221,0.547,1.221,1.221c0,0.673-0.547,1.221-1.221,1.221c-0.673,0-1.221-0.547-1.221-1.221
		C21.44,17.141,21.986,16.593,22.659,16.593z M12.323,20.847c0,4.457,3.613,8.07,8.07,8.07c4.457,0,8.07-3.613,8.07-8.07
		s-3.613-8.07-8.07-8.07C15.937,12.776,12.323,16.39,12.323,20.847z M26.895,20.847c0,3.585-2.917,6.502-6.502,6.502
		s-6.502-2.917-6.502-6.502s2.917-6.502,6.502-6.502C23.978,14.345,26.895,17.262,26.895,20.847z"/>
</g>
</svg>
