<?xml version="1.0" encoding="utf-8"?>
<!-- Generator: Adobe Illustrator 23.0.1, SVG Export Plug-In . SVG Version: 6.00 Build 0)  -->
<svg version="1.1" id="Layer_1" xmlns="http://www.w3.org/2000/svg" xmlns:xlink="http://www.w3.org/1999/xlink" x="0px" y="0px"
	 viewBox="0 0 40 40" style="enable-background:new 0 0 40 40;" xml:space="preserve">
<style type="text/css">
	.st0{fill:#231F20;}
</style>
<g>
	<path class="st0" d="M39.149,7.179H0.851C0.381,7.179,0,7.56,0,8.03v23.94c0,0.47,0.381,0.851,0.851,0.851h38.298
		c0.47,0,0.851-0.381,0.851-0.851V8.03C40,7.56,39.619,7.179,39.149,7.179z M38.298,31.119H1.702V8.881h36.596V31.119z"/>
	<rect x="3.991" y="11.221" class="st0" width="1.702" height="17.549"/>
	<rect x="8.775" y="11.221" class="st0" width="1.702" height="17.549"/>
	<rect x="29.524" y="11.221" class="st0" width="1.702" height="17.549"/>
	<rect x="34.306" y="11.221" class="st0" width="1.702" height="17.549"/>
	<path class="st0" d="M14.366,26.273v1.705h1.702v-1.549h1.489v1.549h1.702v-1.549h1.489v1.549h1.702v-1.549h1.489v1.549h1.702
		v-1.71c0.272-0.138,0.492-0.359,0.631-0.631h1.71v-1.702h-1.549v-1.489h1.549v-1.702h-1.549v-1.489h1.549v-1.702h-1.549v-1.489
		h1.549v-1.702h-1.701c-0.138-0.28-0.362-0.506-0.64-0.647v-1.693H23.94v1.532h-1.489v-1.532h-1.702v1.532H19.26v-1.532h-1.702
		v1.532h-1.489v-1.532h-1.702v1.688c-0.282,0.141-0.509,0.369-0.648,0.652h-1.692v1.702h1.54v1.489h-1.54v1.702h1.54v1.489h-1.54
		v1.702h1.54v1.489h-1.54v1.702h1.701C13.867,25.913,14.09,26.135,14.366,26.273z M15.268,15.255h9.464v9.472h-9.464
		C15.268,24.727,15.268,15.255,15.268,15.255z"/>
</g>
</svg>
