<?xml version="1.0" encoding="utf-8"?>
<!-- Generator: Adobe Illustrator 23.0.1, SVG Export Plug-In . SVG Version: 6.00 Build 0)  -->
<svg version="1.1" id="Layer_1" xmlns="http://www.w3.org/2000/svg" xmlns:xlink="http://www.w3.org/1999/xlink" x="0px" y="0px"
	 viewBox="0 0 40 40" style="enable-background:new 0 0 40 40;" xml:space="preserve">
<style type="text/css">
	.st0{fill:#231F20;}
</style>
<g>
	<path class="st0" d="M40,25.065h-0.006c-0.066-3.902-2.881-7.13-6.595-7.834c-0.145-2.744-2.397-4.93-5.177-4.93
		c-0.976,0-1.879,0.286-2.659,0.753c-1.575-3.746-5.279-6.377-9.598-6.377c-5.633,0-10.209,4.478-10.391,10.065
		c-3.458,1.291-5.863,4.743-5.545,8.719c0.359,4.495,4.306,7.863,8.815,7.863h22.899c3.766,0,6.945-2.537,7.934-5.99
		c0.042-0.131,0.071-0.272,0.105-0.409c0.023-0.098,0.047-0.197,0.066-0.297c0.042-0.208,0.075-0.423,0.098-0.645
		c0.015-0.134,0.019-0.27,0.029-0.406C39.979,25.452,40,25.334,40,25.203c0-0.025-0.003-0.049-0.003-0.073
		C39.997,25.109,40,25.087,40,25.065z M23.617,13.872l0.176,0.418c0.405,0.963,1.569,1.344,2.465,0.808l0.39-0.233
		c0.502-0.301,1.032-0.453,1.575-0.453c1.633,0,2.982,1.287,3.069,2.93l0.016,0.309c0.042,0.79,0.618,1.449,1.395,1.597l0.066,0.013
		c2.589,0.49,4.688,2.521,5.05,5.113H25.737c0,0-0.066,0.177-0.082,0.229c0.657,0.525,1.022,1.395,0.789,2.343
		c-0.192,0.782-0.822,1.427-1.6,1.631c-1.521,0.399-2.896-0.745-2.896-2.203c0-0.719,0.338-1.354,0.859-1.771l-0.085-0.229H18.69
		V22.25c0.137,0.016,0.274,0.032,0.416,0.032c1.99,0,3.602-1.613,3.602-3.602c0-1.99-1.613-3.602-3.602-3.602
		c-0.142,0-0.279,0.015-0.416,0.031V9.246C20.875,10.003,22.684,11.656,23.617,13.872z M6.512,18.646l0.048-0.018
		c0.653-0.243,1.093-0.857,1.115-1.553c0.13-3.973,2.929-7.495,6.847-8.165c0.88-0.151,1.747-0.153,2.584-0.038v8.301
		c0,0,0.178,0.066,0.229,0.082c0.525-0.657,1.397-1.022,2.343-0.789c0.782,0.192,1.427,0.822,1.631,1.6
		c0.399,1.521-0.745,2.896-2.203,2.896c-0.719,0-1.354-0.338-1.771-0.859l-0.229,0.085v4.185h-1.911
		c0.016-0.137,0.032-0.275,0.032-0.416c0-1.99-1.613-3.602-3.602-3.602c-1.99,0-3.603,1.613-3.603,3.602
		c0,0.142,0.015,0.279,0.031,0.416H2.129c0.003-0.067,0.001-0.134,0.007-0.201C2.361,21.65,4.14,19.53,6.512,18.646z M31.742,31.213
		H8.564c-3.149,0-5.769-2.269-6.333-5.256h7.886c0,0,0.066-0.178,0.082-0.229c-0.657-0.525-1.022-1.395-0.789-2.343
		c0.192-0.782,0.822-1.427,1.6-1.631c1.521-0.399,2.896,0.745,2.896,2.203c0,0.719-0.338,1.354-0.861,1.771l0.085,0.229h4.488v0.001
		h3.039c-0.016,0.137-0.031,0.274-0.031,0.416c0,1.99,1.613,3.602,3.602,3.602c1.99,0,3.602-1.613,3.602-3.602
		c0-0.142-0.015-0.279-0.031-0.416h10.013C37.379,28.925,34.827,31.213,31.742,31.213z"/>
</g>
</svg>
