<?xml version="1.0" encoding="utf-8"?>
<!-- Generator: Adobe Illustrator 23.0.1, SVG Export Plug-In . SVG Version: 6.00 Build 0)  -->
<svg version="1.1" id="Layer_1" xmlns="http://www.w3.org/2000/svg" xmlns:xlink="http://www.w3.org/1999/xlink" x="0px" y="0px"
	 viewBox="0 0 40 40" style="enable-background:new 0 0 40 40;" xml:space="preserve">
<style type="text/css">
	.st0{fill:#231F20;}
</style>
<g>
	<path class="st0" d="M23.993,21.051h5.616c0.485,2.362,2.576,4.139,5.082,4.139c2.865,0,5.189-2.322,5.189-5.189
		s-2.322-5.189-5.189-5.189c-2.506,0-4.597,1.777-5.081,4.138h-5.616c-0.117-1.334-0.45-2.603-0.968-3.776l6.695-5.863
		c0.87,0.658,1.942,1.064,3.117,1.064c2.865,0,5.189-2.322,5.189-5.189S35.704,0,32.838,0c-2.865,0-5.189,2.322-5.189,5.189
		c0,0.929,0.264,1.789,0.691,2.543l-6.351,5.561c-2.152-3.171-5.785-5.256-9.906-5.256C5.477,8.037,0.12,13.393,0.12,20
		s5.357,11.963,11.963,11.963c4.121,0,7.754-2.085,9.906-5.256l6.351,5.561c-0.427,0.754-0.693,1.614-0.693,2.543
		c0,2.865,2.322,5.189,5.189,5.189c2.865,0,5.189-2.322,5.189-5.189c0-2.865-2.322-5.189-5.189-5.189
		c-1.175,0-2.247,0.406-3.117,1.064l-6.695-5.863C23.543,23.655,23.877,22.385,23.993,21.051z M34.69,16.912
		c1.704,0,3.09,1.386,3.09,3.09c0,1.704-1.386,3.09-3.09,3.09c-1.704,0-3.09-1.386-3.09-3.09S32.986,16.912,34.69,16.912z
		 M32.835,2.101c1.704,0,3.09,1.386,3.09,3.09c0,1.704-1.386,3.09-3.09,3.09c-1.704,0-3.09-1.386-3.09-3.09
		C29.746,3.487,31.131,2.101,32.835,2.101z M32.835,31.723c1.704,0,3.09,1.386,3.09,3.09c0,1.704-1.386,3.09-3.09,3.09
		c-1.704,0-3.09-1.386-3.09-3.09C29.745,33.11,31.131,31.723,32.835,31.723z M12.082,29.866c-5.44,0-9.865-4.425-9.865-9.865
		s4.425-9.865,9.865-9.865s9.865,4.425,9.865,9.865S17.522,29.866,12.082,29.866z"/>
</g>
</svg>
