<?xml version="1.0" encoding="utf-8"?>
<!-- Generator: Adobe Illustrator 23.0.1, SVG Export Plug-In . SVG Version: 6.00 Build 0)  -->
<svg version="1.1" id="Layer_1" xmlns="http://www.w3.org/2000/svg" xmlns:xlink="http://www.w3.org/1999/xlink" x="0px" y="0px"
	 viewBox="0 0 40 40" style="enable-background:new 0 0 40 40;" xml:space="preserve">
<style type="text/css">
	.st0{fill:#231F20;}
</style>
<path class="st0" d="M34.51,0H5.49C2.463,0,0,2.463,0,5.49v29.02C0,37.537,2.463,40,5.49,40h29.02c3.027,0,5.49-2.463,5.49-5.49
	V5.49C40,2.463,37.537,0,34.51,0z M38.298,34.51c0,2.089-1.699,3.787-3.787,3.787H5.49c-2.088,0-3.787-1.699-3.787-3.787V5.49
	c0-2.088,1.699-3.787,3.787-3.787h29.02c2.089,0,3.787,1.699,3.787,3.787v29.02H38.298z M34.366,6.383H5.642
	c-0.47,0-0.851,0.381-0.851,0.851v9.574c0,0.47,0.381,0.851,0.851,0.851h28.723c0.47,0,0.851-0.381,0.851-0.851V7.234
	C35.217,6.764,34.836,6.383,34.366,6.383z M14.366,15.957H6.494V8.085h7.872V15.957z M23.94,15.957h-7.872V8.085h7.872V15.957z
	 M33.515,15.957h-7.872V8.085h7.872V15.957z M34.366,20.749H5.642c-0.47,0-0.851,0.381-0.851,0.851v11.966
	c0,0.47,0.381,0.851,0.851,0.851h28.723c0.47,0,0.851-0.381,0.851-0.851V21.6C35.217,21.129,34.836,20.749,34.366,20.749z
	 M14.366,32.715H6.494V22.451h7.872V32.715z M23.94,32.715h-7.872V22.451h7.872V32.715z M33.515,32.715h-7.872V22.451h7.872V32.715z
	"/>
</svg>
