<?xml version="1.0" encoding="utf-8"?>
<!-- Generator: Adobe Illustrator 23.0.1, SVG Export Plug-In . SVG Version: 6.00 Build 0)  -->
<svg version="1.1" id="Layer_1" xmlns="http://www.w3.org/2000/svg" xmlns:xlink="http://www.w3.org/1999/xlink" x="0px" y="0px"
	 viewBox="0 0 40 40" style="enable-background:new 0 0 40 40;" xml:space="preserve">
<style type="text/css">
	.st0{fill:#231F20;}
</style>
<g id="Art">
	<g>
		<path class="st0" d="M34.51,40H5.49C2.463,40,0,37.537,0,34.51V5.49C0,2.463,2.463,0,5.49,0h29.02C37.537,0,40,2.463,40,5.49
			v29.02C40,37.537,37.537,40,34.51,40z M5.49,1.702c-2.088,0-3.787,1.699-3.787,3.787V34.51c0,2.089,1.699,3.787,3.787,3.787h29.02
			c2.089,0,3.787-1.699,3.787-3.787V5.49c0-2.088-1.699-3.787-3.787-3.787L5.49,1.702L5.49,1.702z"/>
	</g>
</g>
</svg>
