<?xml version="1.0" encoding="utf-8"?>
<!-- Generator: Adobe Illustrator 23.0.1, SVG Export Plug-In . SVG Version: 6.00 Build 0)  -->
<svg version="1.1" id="Layer_1" xmlns="http://www.w3.org/2000/svg" xmlns:xlink="http://www.w3.org/1999/xlink" x="0px" y="0px"
	 viewBox="0 0 40 40" style="enable-background:new 0 0 40 40;" xml:space="preserve">
<path d="M34.51,0H5.49C2.463,0,0,2.463,0,5.49V34.51C0,37.537,2.463,40,5.49,40H34.51c3.027,0,5.49-2.463,5.49-5.49V5.49
	C40,2.463,37.537,0,34.51,0z M38.298,34.51c0,2.089-1.699,3.787-3.787,3.787H5.49c-2.088,0-3.787-1.699-3.787-3.787V5.49
	c0-2.088,1.699-3.787,3.787-3.787H34.51c2.089,0,3.787,1.699,3.787,3.787V34.51z M35.166,15.957h-1.928
	c-1.355-4.425-4.771-7.84-9.196-9.196V4.843c0-0.47-0.381-0.851-0.851-0.851h-6.383c-0.47,0-0.851,0.381-0.851,0.851v1.919
	c-4.425,1.357-7.84,4.771-9.196,9.196H4.843c-0.47,0-0.851,0.381-0.851,0.851v6.383c0,0.47,0.381,0.851,0.851,0.851h1.919
	c1.357,4.425,4.771,7.84,9.196,9.196v1.919c0,0.47,0.381,0.851,0.851,0.851h6.383c0.47,0,0.851-0.381,0.851-0.851v-1.919
	c4.425-1.355,7.84-4.77,9.196-9.196h1.928c0.47,0,0.851-0.381,0.851-0.851v-6.383C36.017,16.339,35.637,15.957,35.166,15.957z
	 M24.043,8.574c3.468,1.229,6.155,3.916,7.384,7.383h-4.032c-0.775-1.421-1.932-2.578-3.351-3.351V8.574z M17.66,5.694h4.681v7.872
	H17.66V5.694z M15.957,8.574v4.032c-1.42,0.774-2.577,1.931-3.351,3.351H8.574C9.803,12.49,12.49,9.803,15.957,8.574z M5.694,22.34
	V17.66h7.872v4.681H5.694z M15.957,31.426c-3.467-1.228-6.155-3.916-7.383-7.384h4.032c0.773,1.419,1.93,2.577,3.351,3.351V31.426z
	 M22.34,34.306H17.66v-7.872h4.681V34.306z M24.007,25.404c-0.084-0.382-0.408-0.672-0.815-0.672h-6.383
	c-0.407,0-0.731,0.291-0.815,0.672c-0.533-0.394-1.004-0.864-1.398-1.397c0.381-0.084,0.672-0.408,0.672-0.815v-6.383
	c0-0.407-0.291-0.73-0.672-0.815c0.394-0.533,0.864-1.003,1.398-1.398c0.084,0.381,0.408,0.672,0.815,0.672h6.383
	c0.407,0,0.731-0.291,0.815-0.672c0.533,0.395,1.004,0.865,1.398,1.399c-0.377,0.087-0.664,0.41-0.664,0.813v6.383
	c0,0.404,0.287,0.726,0.664,0.813C25.011,24.539,24.54,25.009,24.007,25.404z M24.043,31.426v-4.033
	c1.42-0.774,2.577-1.931,3.351-3.351h4.033C30.198,27.51,27.51,30.198,24.043,31.426z M34.315,22.34h-7.872V17.66h7.872V22.34z"/>
</svg>
