<?xml version="1.0" encoding="utf-8"?>
<!-- Generator: Adobe Illustrator 23.0.1, SVG Export Plug-In . SVG Version: 6.00 Build 0)  -->
<svg version="1.1" id="Layer_1" xmlns="http://www.w3.org/2000/svg" xmlns:xlink="http://www.w3.org/1999/xlink" x="0px" y="0px"
	 viewBox="0 0 40 40" style="enable-background:new 0 0 40 40;" xml:space="preserve">
<path d="M35.879,29.559l-7.401-4.265c-0.249-0.144-0.557-0.144-0.806,0l-7.691,4.442l-8.788-5.079V14.515l7.788-4.491
	c0.248-0.143,0.401-0.407,0.403-0.693v-8.53c-0.001-0.14-0.038-0.277-0.108-0.398c-0.223-0.386-0.716-0.518-1.101-0.295L2.646,9.098
	C2.398,9.241,2.245,9.505,2.243,9.791V29.39c-0.001,0.289,0.153,0.557,0.403,0.701l16.931,9.796
	c0.122,0.072,0.261,0.111,0.403,0.113c0.142-0.001,0.281-0.04,0.403-0.113l15.496-8.933c0.25-0.145,0.404-0.412,0.403-0.701
	C36.28,29.966,36.126,29.703,35.879,29.559z M19.98,38.259L3.855,28.923V10.258l13.915-8.054v6.659l-7.788,4.491
	c-0.248,0.143-0.401,0.407-0.403,0.693v11.077c-0.001,0.289,0.153,0.557,0.403,0.701l9.594,5.539c0.249,0.144,0.557,0.144,0.806,0
	l7.659-4.442l5.821,3.322L19.98,38.259z M37.354,9.098L21.931,0.189c-0.121-0.07-0.258-0.107-0.398-0.108
	c-0.445-0.003-0.808,0.356-0.811,0.801v8.53c0.002,0.286,0.155,0.55,0.403,0.693l7.643,4.41v8.933
	c-0.001,0.289,0.153,0.557,0.403,0.701l7.377,4.241c0.122,0.072,0.261,0.111,0.403,0.113c0.445,0,0.806-0.361,0.806-0.806V9.791
	C37.755,9.505,37.602,9.241,37.354,9.098z M36.145,26.302l-5.764-3.314v-8.965c-0.002-0.286-0.155-0.55-0.403-0.693l-7.643-4.41
	V2.261l13.811,7.998V26.302z"/>
</svg>
