<?xml version="1.0" encoding="utf-8"?>
<!-- Generator: Adobe Illustrator 23.0.1, SVG Export Plug-In . SVG Version: 6.00 Build 0)  -->
<svg version="1.1" id="Layer_1" xmlns="http://www.w3.org/2000/svg" xmlns:xlink="http://www.w3.org/1999/xlink" x="0px" y="0px"
	 viewBox="0 0 40 40" style="enable-background:new 0 0 40 40;" xml:space="preserve">
<path d="M25.689,24.249v-8.445c0-0.809-0.658-1.467-1.467-1.467h-8.444c-0.809,0-1.467,0.658-1.467,1.467v8.445
	c0,0.808,0.658,1.466,1.467,1.466h8.444C25.031,25.715,25.689,25.058,25.689,24.249z M23.911,23.938h-7.822v-7.822h7.822V23.938z
	 M13.6,20.88v-1.778h-2.862c-0.696,0-1.262,0.566-1.262,1.262v8.889c0,0.696,0.566,1.262,1.262,1.262h8.889
	c0.696,0,1.262-0.566,1.262-1.262v-2.826h-1.778v2.311h-7.858V20.88H13.6z M26.4,19.174v1.778h2.862
	c0.696,0,1.262-0.566,1.262-1.263V10.8c0-0.696-0.566-1.262-1.262-1.262h-8.889c-0.696,0-1.262,0.566-1.262,1.262v2.8h1.778v-2.284
	h7.858v7.858H26.4z M14.228,12.998l-10.4-10.4L2.572,3.855l10.4,10.4L14.228,12.998z M25.772,27.056l10.4,10.399l1.257-1.257
	l-10.4-10.399L25.772,27.056z M8.171,30.598l-5.6,5.6l1.257,1.257l5.6-5.6L8.171,30.598z M31.828,9.456l5.601-5.6l-1.257-1.257
	l-5.601,5.6L31.828,9.456z M38.459,19.138c-0.168-3.493-1.314-6.95-3.463-9.933l-1.443,1.039c1.925,2.673,2.96,5.765,3.127,8.894
	H35.2v1.778h1.481c-0.167,3.128-1.202,6.221-3.127,8.894l1.443,1.038c2.149-2.983,3.294-6.44,3.463-9.932H40v-1.778H38.459z
	 M19.111,3.372v1.455h1.778V3.372c3.129,0.167,6.221,1.202,8.893,3.127l1.04-1.443c-2.984-2.149-6.44-3.295-9.933-3.463V0.027
	h-1.778v1.567c-3.493,0.168-6.949,1.314-9.933,3.463l1.039,1.443C12.89,4.574,15.983,3.539,19.111,3.372z M20.889,36.708v-1.481
	h-1.778v1.481c-3.128-0.167-6.221-1.202-8.894-3.127l-1.039,1.443c2.984,2.149,6.44,3.295,9.933,3.463v1.486h1.778v-1.486
	c3.493-0.168,6.949-1.314,9.933-3.463l-1.04-1.443C27.11,35.506,24.018,36.542,20.889,36.708z M6.446,29.81
	c-1.925-2.673-2.96-5.765-3.127-8.894H4.8v-1.778H3.319c0.166-3.129,1.202-6.222,3.127-8.894L5.003,9.205
	c-2.149,2.983-3.294,6.44-3.462,9.933H0v1.778h1.541c0.168,3.493,1.314,6.949,3.462,9.932L6.446,29.81z"/>
</svg>
