<?xml version="1.0" encoding="utf-8"?>
<!-- Generator: Adobe Illustrator 23.0.1, SVG Export Plug-In . SVG Version: 6.00 Build 0)  -->
<svg version="1.1" id="Layer_1" xmlns="http://www.w3.org/2000/svg" xmlns:xlink="http://www.w3.org/1999/xlink" x="0px" y="0px"
	 viewBox="0 0 40 40" style="enable-background:new 0 0 40 40;" xml:space="preserve">
<path d="M19.115,3.021v7.421h1.77V3.021l3.561,3.56l1.251-1.251l-5.071-5.071c-0.346-0.346-0.906-0.346-1.251,0L14.303,5.33
	l1.251,1.251L19.115,3.021z M20.885,36.979v-7.421h-1.77v7.421l-3.56-3.56l-1.251,1.251l5.071,5.07C19.547,39.914,19.774,40,20,40
	s0.453-0.086,0.626-0.259l5.071-5.07l-1.251-1.251L20.885,36.979z M25.664,13.722v-1.686h-1.77v1.505h-1.416v-1.505h-1.77v1.505
	h-1.416v-1.505h-1.77v1.505h-1.416v-1.505h-1.77v1.686c-0.262,0.14-0.475,0.353-0.615,0.615h-1.686v1.77h1.505v1.416h-1.505v1.77
	h1.505v1.416h-1.505v1.77h1.505v1.416h-1.505v1.77h1.686c0.14,0.261,0.353,0.475,0.615,0.614v1.686h1.77V26.46h1.416v1.505h1.77
	V26.46h1.416v1.505h1.77V26.46h1.416v1.505h1.77v-1.686c0.261-0.14,0.475-0.353,0.614-0.614h1.686v-1.77H26.46v-1.416h1.505v-1.77
	H26.46v-1.416h1.505v-1.77H26.46v-1.416h1.505v-1.77h-1.686C26.139,14.075,25.926,13.862,25.664,13.722z M24.69,24.69h-9.38v-9.38
	h9.38V24.69z M5.148,14.357l-1.251,1.251l3.508,3.507H0.088v1.77h7.421l-3.613,3.613l1.251,1.251l5.071-5.071
	c0.166-0.166,0.259-0.391,0.259-0.626c0-0.235-0.093-0.46-0.259-0.626L5.148,14.357z M39.912,19.115h-7.315l3.508-3.507
	l-1.251-1.251l-5.071,5.07c-0.166,0.166-0.259,0.391-0.259,0.626c0,0.235,0.093,0.46,0.259,0.626l5.071,5.071l1.251-1.251
	l-3.613-3.613h7.421V19.115z"/>
</svg>
