<?xml version="1.0" encoding="utf-8"?>
<!-- Generator: Adobe Illustrator 23.0.1, SVG Export Plug-In . SVG Version: 6.00 Build 0)  -->
<svg version="1.1" id="Layer_1" xmlns="http://www.w3.org/2000/svg" xmlns:xlink="http://www.w3.org/1999/xlink" x="0px" y="0px"
	 viewBox="0 0 40 40" style="enable-background:new 0 0 40 40;" xml:space="preserve">
<path d="M38.4,0H19.2c-0.884,0-1.6,0.716-1.6,1.6v4h1.6v-4h19.2v19.2h-4v1.6h4c0.884,0,1.6-0.716,1.6-1.6V1.6
	C40,0.716,39.284,0,38.4,0z M20.8,38.4H1.6V19.2h4v-1.6h-4c-0.884,0-1.6,0.716-1.6,1.6v19.2C0,39.284,0.716,40,1.6,40h19.2
	c0.884,0,1.6-0.716,1.6-1.6v-4h-1.6V38.4z M28.8,9.615V7.2h-1.6v2.4h-2.4V7.2h-1.6v2.4h-2.4V7.2h-1.6v2.4h-2.4V7.2h-1.6v2.4h-2.4
	V7.2h-1.6v2.415c-0.844,0.074-1.511,0.74-1.585,1.585H7.2v1.6h2.4v2.4H7.2v1.6h2.4v2.4H7.2v1.6h2.4v2.4H7.2v1.6h2.4v2.4H7.2v1.6
	h2.415c0.074,0.844,0.74,1.511,1.585,1.585V32.8h1.6v-2.4h2.4v2.4h1.6v-2.4h2.4v2.4h1.6v-2.4h2.4v2.4h1.6v-2.4h2.4v2.4h1.6v-2.415
	c0.844-0.074,1.511-0.74,1.585-1.585H32.8v-1.6h-2.4v-2.4h2.4v-1.6h-2.4v-2.4h2.4v-1.6h-2.4v-2.4h2.4v-1.6h-2.4v-2.4h2.4v-1.6
	h-2.415C30.311,10.356,29.644,9.689,28.8,9.615z M28.8,28.656c0,0.08-0.064,0.144-0.144,0.144H11.344
	c-0.08,0-0.144-0.064-0.144-0.144V11.344c0-0.08,0.064-0.144,0.144-0.144h17.312c0.08,0,0.144,0.064,0.144,0.144V28.656z"/>
</svg>
