<?xml version="1.0" encoding="utf-8"?>
<!-- Generator: Adobe Illustrator 23.0.1, SVG Export Plug-In . SVG Version: 6.00 Build 0)  -->
<svg version="1.1" id="Layer_1" xmlns="http://www.w3.org/2000/svg" xmlns:xlink="http://www.w3.org/1999/xlink" x="0px" y="0px"
	 viewBox="0 0 40 40" style="enable-background:new 0 0 40 40;" xml:space="preserve">
<path d="M32.264,13.611c-0.024-0.096-0.096-0.192-0.096-0.336c-1.448-5.054-5.87-8.686-11.109-9.125h-0.112l-1.032-0.04
	c-6.94,0.07-12.533,5.706-12.55,12.646c0,4.474,2.585,8.676,6.907,11.206c0.416,0.248,1.577,1.057,1.969,1.337
	c0.737,0.577,1.16,1.466,1.145,2.401v2.225c0,0.442,0.358,0.8,0.8,0.8c0.092-0.005,0.184-0.021,0.272-0.048
	c8.276-2.217,14.279-9.581,14.279-17.529C32.738,15.954,32.579,14.764,32.264,13.611z M18.986,32.853V31.7
	c0.025-1.458-0.643-2.842-1.801-3.73c-0.064-0.04-1.545-1.097-2.105-1.417c-3.826-2.241-6.115-5.931-6.115-9.869
	c0.017-6.056,4.894-10.975,10.949-11.045l0.984,0.064h0.088c4.576,0.393,8.428,3.582,9.669,8.004c-0.003,0.029-0.003,0.059,0,0.088
	l0.056,0.216c0.285,1.021,0.428,2.077,0.424,3.138C31.136,24.048,26.085,30.539,18.986,32.853z M26.637,1.381
	C18.185-2.284,8.363,1.597,4.698,10.049c-3.665,8.452,0.216,18.274,8.668,21.939v7.204c0.001,0.248,0.116,0.481,0.312,0.632
	c0.14,0.108,0.311,0.168,0.488,0.168c0.077,0.011,0.155,0.011,0.232,0l3.514-0.928c10.869-2.817,18.769-12.238,18.769-22.411
	C36.67,10.017,32.725,4.02,26.637,1.381z M17.513,37.487l-2.545,0.656V31.74c-0.011-0.535-0.342-1.012-0.84-1.209
	c-5.59-2.358-9.222-7.838-9.215-13.905c0.01-8.324,6.766-15.063,15.089-15.053c0.011,0,0.021,0,0.032,0
	c8.337,0.004,15.092,6.766,15.087,15.103C35.122,26.089,27.694,34.862,17.513,37.487z M26.173,11.978H13.367v1.601h12.806V11.978z
	 M13.367,17.581h15.207V15.98H13.367V17.581z M13.367,21.583h8.004v-1.601h-8.004V21.583z"/>
</svg>
