<?xml version="1.0" encoding="utf-8"?>
<!-- Generator: Adobe Illustrator 23.0.1, SVG Export Plug-In . SVG Version: 6.00 Build 0)  -->
<svg version="1.1" id="Layer_1" xmlns="http://www.w3.org/2000/svg" xmlns:xlink="http://www.w3.org/1999/xlink" x="0px" y="0px"
	 viewBox="0 0 40 40" style="enable-background:new 0 0 40 40;" xml:space="preserve">
<style type="text/css">
	.st0{fill:#231F20;}
</style>
<g>
	<path class="st0" d="M31.673,15.661c-0.306,0-0.617,0.017-0.93,0.051c-3.616,0.4-6.613,3.278-7.14,6.877
		c-0.498,3.408,1.113,6.488,3.72,8.134c0.313,0.198,0.515,0.527,0.515,0.896v2.031c0,0.577,0.467,1.045,1.045,1.045l0,0h5.578
		c0.577,0,1.045-0.468,1.045-1.045v-2.032c0-0.369,0.203-0.698,0.515-0.895c2.289-1.445,3.812-3.996,3.812-6.903
		C39.834,19.315,36.18,15.661,31.673,15.661z M34.908,28.957c-0.933,0.589-1.489,1.584-1.489,2.662v0.987H32.56v-5.461h1.307v-2.089
		h-4.704v2.089h1.307v5.461h-0.542V31.62c0-1.079-0.557-2.074-1.49-2.663c-2.064-1.303-3.125-3.626-2.768-6.064
		c0.39-2.66,2.618-4.806,5.302-5.103c0.233-0.026,0.47-0.039,0.701-0.039c3.348,0,6.071,2.724,6.071,6.071
		C37.744,25.916,36.684,27.836,34.908,28.957z M27.997,35.182c-0.062,0.278-0.099,0.565-0.099,0.861
		c0,2.186,1.773,3.958,3.958,3.958c2.186,0,3.958-1.773,3.958-3.958c0-0.296-0.038-0.583-0.099-0.861H27.997z M31.855,38.433
		c-1.072,0-1.983-0.71-2.285-1.685h4.569C33.837,37.723,32.927,38.433,31.855,38.433z M12.561,8.183H4.328v2.089h8.233V8.183z
		 M21.111,12.933H10.593v2.089h10.518V12.933z M4.328,15.022h5.022v-2.089H4.328V15.022z M4.328,29.273h10.518v-2.089H4.328V29.273z
		 M4.328,22.433v2.089h9.567v-2.089H4.328z M21.111,24.523v-2.089h-5.972v2.089H21.111z M21.111,17.683H4.328v2.089h16.783V17.683z
		 M23.319,33.33H2.255V2.089h12.884v8.18h8.18v7.441h2.089V7.6L17.175,0H0.166v35.42h25.242v-5.202h-2.089L23.319,33.33
		L23.319,33.33z M17.23,2.893l5.726,5.286H17.23V2.893z"/>
</g>
</svg>
