<?xml version="1.0" encoding="utf-8"?>
<!-- Generator: Adobe Illustrator 23.0.1, SVG Export Plug-In . SVG Version: 6.00 Build 0)  -->
<svg version="1.1" id="Layer_1" xmlns="http://www.w3.org/2000/svg" xmlns:xlink="http://www.w3.org/1999/xlink" x="0px" y="0px"
	 viewBox="0 0 40 40" style="enable-background:new 0 0 40 40;" xml:space="preserve">
<style type="text/css">
	.st0{fill:#231F20;}
</style>
<g>
	<path class="st0" d="M7.012,21.501v-2.654c0-1.152-0.934-2.084-2.085-2.084H2.176V2.084h22.302v11.625h2.085V1.042
		C26.563,0.466,26.096,0,25.52,0H1.134C0.558,0,0.091,0.466,0.091,1.042v16.763c0,0.576,0.466,1.042,1.042,1.042h3.794v4.007
		c0,0.948,0.775,1.567,1.577,1.567c0.408,0,0.823-0.16,1.147-0.518l4.222-4.67v-2.434c-0.458,0.078-0.882,0.3-1.198,0.65
		L7.012,21.501z M38.865,15.058H13.957c-0.576,0-1.042,0.466-1.042,1.042v17.284c0,0.576,0.466,1.042,1.042,1.042h12.605l4.57,5.056
		C31.456,39.84,31.872,40,32.28,40c0.802,0,1.577-0.618,1.577-1.567v-4.007h5.009c0.576,0,1.042-0.466,1.042-1.042V16.1
		C39.909,15.524,39.441,15.058,38.865,15.058z M37.823,32.341h-3.967c-1.151,0-2.085,0.934-2.085,2.084v2.654l-3.663-4.051
		c-0.395-0.438-0.958-0.687-1.546-0.687H15v-15.2h22.823V32.341z M17.981,4.107H4.439v2.084h13.542V4.107z M22.414,4.107h-3.334
		v2.084h3.334V4.107z M4.439,10.039h7.298V7.954H4.439V10.039z M22.414,7.954h-8.653v2.084h8.653V7.954z M4.439,13.71h10.871v-2.084
		H4.439V13.71z M20.083,13.71v-2.084h-3.126v2.084H20.083z M26.459,26.977c1.397,0,2.533-1.136,2.533-2.532
		c0-1.397-1.136-2.532-2.533-2.532c-1.397,0-2.533,1.136-2.533,2.532C23.926,25.841,25.062,26.977,26.459,26.977z M26.459,23.215
		c0.678,0,1.23,0.552,1.23,1.23s-0.552,1.23-1.23,1.23c-0.678,0-1.23-0.552-1.23-1.23C25.229,23.767,25.781,23.215,26.459,23.215z
		 M21.519,25.99c0.089,0.283,0.205,0.554,0.339,0.814l-0.911,0.911c0.543,0.912,1.303,1.677,2.213,2.224l0.913-0.913
		c0.261,0.136,0.534,0.253,0.818,0.343v1.29c0.503,0.127,1.026,0.201,1.568,0.201s1.065-0.074,1.568-0.201v-1.29
		c0.285-0.09,0.558-0.207,0.818-0.343l0.913,0.913c0.91-0.547,1.67-1.312,2.213-2.224l-0.911-0.911
		c0.134-0.259,0.25-0.53,0.339-0.814h1.281c0.122-0.496,0.195-1.011,0.195-1.545c0-0.551-0.077-1.082-0.207-1.592h-1.277
		c-0.09-0.28-0.205-0.549-0.338-0.806l0.902-0.902c-0.547-0.91-1.312-1.67-2.224-2.213l-0.899,0.899
		c-0.256-0.133-0.523-0.246-0.802-0.335V18.23c-0.503-0.127-1.026-0.201-1.568-0.201c-0.542,0-1.065,0.074-1.568,0.201v1.267
		c-0.279,0.089-0.546,0.202-0.802,0.335l-0.899-0.899c-0.912,0.543-1.677,1.303-2.224,2.213l0.902,0.902
		c-0.134,0.257-0.248,0.526-0.338,0.806h-1.277c-0.13,0.51-0.207,1.041-0.207,1.592c0,0.534,0.072,1.049,0.195,1.545H21.519z
		 M21.356,24.156h1.123l0.29-0.905c0.064-0.201,0.15-0.403,0.253-0.602l0.441-0.848l-0.785-0.785
		c0.119-0.131,0.245-0.256,0.376-0.374l0.786,0.786l0.846-0.437c0.201-0.104,0.403-0.189,0.599-0.25l0.909-0.289v-1.111
		c0.089-0.006,0.177-0.008,0.265-0.008c0.088,0,0.176,0.002,0.265,0.008v1.111l0.909,0.288c0.195,0.062,0.398,0.146,0.599,0.25
		l0.846,0.437l0.786-0.786c0.131,0.118,0.257,0.243,0.376,0.374l-0.11,0.11l-0.675,0.675l0.441,0.848
		c0.104,0.199,0.189,0.401,0.253,0.602l0.29,0.905h1.123c0.006,0.097,0.009,0.193,0.009,0.289c0,0.08-0.002,0.16-0.007,0.241h-1.122
		l-0.287,0.912c-0.062,0.197-0.147,0.401-0.254,0.607l-0.437,0.846l0.673,0.673l0.125,0.125c-0.118,0.131-0.243,0.257-0.374,0.376
		l-0.797-0.798l-0.848,0.441c-0.203,0.106-0.408,0.192-0.61,0.256l-0.909,0.288v1.135c-0.089,0.006-0.177,0.008-0.265,0.008
		c-0.088,0-0.176-0.002-0.265-0.008V28.41l-0.909-0.288c-0.202-0.064-0.407-0.151-0.61-0.256l-0.848-0.441l-0.797,0.797
		c-0.131-0.119-0.256-0.245-0.374-0.376l0.798-0.798l-0.437-0.846c-0.106-0.207-0.192-0.41-0.254-0.608l-0.287-0.912h-1.122
		c-0.005-0.081-0.007-0.162-0.007-0.241C21.347,24.35,21.349,24.253,21.356,24.156z"/>
</g>
</svg>
