<?xml version="1.0" encoding="utf-8"?>
<!-- Generator: Adobe Illustrator 23.0.1, SVG Export Plug-In . SVG Version: 6.00 Build 0)  -->
<svg version="1.1" id="Layer_1" xmlns="http://www.w3.org/2000/svg" xmlns:xlink="http://www.w3.org/1999/xlink" x="0px" y="0px"
	 viewBox="0 0 40 40" style="enable-background:new 0 0 40 40;" xml:space="preserve">
<style type="text/css">
	.st0{fill:#231F20;}
</style>
<g>
	<path class="st0" d="M21.567,31.87c7.423,0,13.44-6.018,13.44-13.44c0-7.423-6.018-13.44-13.44-13.44s-13.44,6.018-13.44,13.44
		c0,2.252,0.561,4.371,1.54,6.236l-8.492,8.493c-1.566,1.566-1.566,4.102,0,5.668C1.959,39.609,2.984,40,4.011,40
		s2.051-0.391,2.834-1.174l8.494-8.494C17.2,31.31,19.316,31.87,21.567,31.87z M21.567,7.068c6.264,0,11.362,5.097,11.362,11.362
		c0,6.264-5.097,11.362-11.362,11.362S10.205,24.696,10.205,18.43C10.205,12.165,15.302,7.068,21.567,7.068z M5.374,37.357
		c-0.364,0.364-0.849,0.566-1.364,0.566s-1-0.201-1.364-0.566S2.08,36.508,2.08,35.993c0-0.515,0.201-1,0.566-1.364l8.165-8.166
		c0.775,1.036,1.694,1.954,2.73,2.729L5.374,37.357z M21.567,0c-2.631,0-5.172,0.543-7.553,1.614
		c-0.523,0.235-0.756,0.85-0.521,1.374c0.235,0.523,0.851,0.755,1.374,0.521c2.112-0.95,4.366-1.431,6.701-1.431
		c9.016,0,16.352,7.335,16.352,16.352s-7.335,16.351-16.352,16.351c-2.671,0-5.186-0.656-7.413-1.799l-1.531,1.531
		c2.651,1.484,5.695,2.345,8.944,2.345c10.162,0,18.43-8.268,18.43-18.43C39.996,8.268,31.73,0,21.567,0z M7.016,25.847
		c-1.145-2.228-1.801-4.745-1.801-7.417c0-2.319,0.475-4.557,1.411-6.655c0.234-0.524-0.001-1.138-0.524-1.372
		c-0.527-0.234-1.138,0.001-1.372,0.524c-1.056,2.365-1.592,4.891-1.592,7.502c0,3.251,0.863,6.296,2.348,8.95L7.016,25.847z
		 M24.417,16.3c0.724,0,1.311-0.587,1.311-1.311c0-0.723-0.587-1.311-1.311-1.311c-0.724,0-1.311,0.587-1.311,1.311
		C23.107,15.712,23.693,16.3,24.417,16.3z M15.321,25.803h12.207c0.574,0,1.039-0.465,1.039-1.039V12.557
		c0-0.574-0.465-1.039-1.039-1.039H15.321c-0.574,0-1.039,0.465-1.039,1.039v12.207C14.283,25.338,14.748,25.803,15.321,25.803z
		 M15.841,13.076h11.168v3.864l-2.975,2.844l-2.673-2.288c-0.307-0.263-0.763-0.247-1.051,0.035l-4.468,4.37v-8.825H15.841z
		 M15.841,24.082l5.047-4.937l2.667,2.282c0.304,0.261,0.756,0.248,1.046-0.029l2.407-2.301v5.147H15.84v-0.162H15.841z"/>
</g>
</svg>
