<?xml version="1.0" encoding="utf-8"?>
<!-- Generator: Adobe Illustrator 23.0.1, SVG Export Plug-In . SVG Version: 6.00 Build 0)  -->
<svg version="1.1" id="Layer_1" xmlns="http://www.w3.org/2000/svg" xmlns:xlink="http://www.w3.org/1999/xlink" x="0px" y="0px"
	 viewBox="0 0 40 40" style="enable-background:new 0 0 40 40;" xml:space="preserve">
<style type="text/css">
	.st0{fill:#231F20;}
</style>
<g>
	<path class="st0" d="M33.432,31.503c-1.217,0-2.306,0.518-3.081,1.337l-7.857-4.366l0.349-0.313
		c-0.517-0.475-0.985-0.998-1.405-1.562l-0.886,0.797l-6.679-3.712v-2.629h5.081v-2.102h-5.081v-2.903l6.552-3.552l1.013,0.91
		c0.418-0.565,0.888-1.087,1.405-1.562l-0.457-0.41l7.938-4.303c0.776,0.838,1.877,1.37,3.11,1.37c2.348,0,4.251-1.903,4.251-4.251
		S35.781,0,33.433,0c-1.983,0-3.635,1.364-4.104,3.2H16.927C16.457,1.364,14.806,0,12.823,0c-2.348,0-4.251,1.903-4.251,4.251
		c0,1.239,0.539,2.344,1.385,3.121l-4.566,8.514c-0.327-0.08-0.663-0.136-1.015-0.136c-2.348,0-4.251,1.903-4.251,4.251
		s1.903,4.251,4.251,4.251c0.352,0,0.688-0.055,1.015-0.136l4.566,8.514c-0.846,0.777-1.385,1.882-1.385,3.121
		c0,2.348,1.903,4.251,4.251,4.251c1.983,0,3.635-1.364,4.104-3.2h12.402c0.47,1.837,2.121,3.2,4.104,3.2
		c2.348,0,4.251-1.903,4.251-4.251C37.683,33.405,35.78,31.503,33.432,31.503z M33.432,2.103c1.185,0,2.15,0.965,2.15,2.15
		s-0.965,2.15-2.15,2.15c-1.185,0-2.15-0.965-2.15-2.15S32.247,2.103,33.432,2.103z M16.925,5.302h12.364l-8.563,4.641l-4.153-3.733
		C16.723,5.925,16.844,5.623,16.925,5.302z M18.766,11.006l-4.894,2.653V8.356c0.472-0.121,0.917-0.307,1.31-0.57L18.766,11.006z
		 M12.822,2.103c1.185,0,2.15,0.965,2.15,2.15s-0.965,2.15-2.15,2.15s-2.15-0.965-2.15-2.15S11.637,2.103,12.822,2.103z
		 M11.772,8.432v6.365l-4.287,2.324c-0.078-0.085-0.159-0.163-0.243-0.241L11.772,8.432z M8.518,18.952l3.254-1.764v1.764H8.518z
		 M11.772,21.053v1.462l-2.63-1.462H11.772z M4.376,22.152c-1.185,0-2.15-0.965-2.15-2.15c0-1.185,0.965-2.15,2.15-2.15
		s2.15,0.965,2.15,2.15C6.525,21.188,5.561,22.152,4.376,22.152z M7.241,23.124c0.16-0.147,0.304-0.309,0.44-0.479l4.091,2.273
		v6.654L7.241,23.124z M12.822,37.903c-1.185,0-2.15-0.965-2.15-2.15s0.965-2.15,2.15-2.15s2.15,0.965,2.15,2.15
		S14.007,37.903,12.822,37.903z M15.182,32.22c-0.393-0.263-0.839-0.45-1.31-0.57v-5.564l5.028,2.793L15.182,32.22z M29.33,34.703
		H16.93c-0.086-0.318-0.207-0.622-0.357-0.909l4.269-3.836l8.494,4.72C29.333,34.687,29.333,34.695,29.33,34.703z M33.432,37.903
		c-1.185,0-2.15-0.965-2.15-2.15s0.965-2.15,2.15-2.15c1.185,0,2.15,0.965,2.15,2.15S34.618,37.903,33.432,37.903z M39.58,22.326
		c0.185-0.745,0.294-1.521,0.294-2.324c0-0.829-0.115-1.627-0.312-2.396h-1.921c-0.135-0.422-0.307-0.826-0.509-1.213l1.355-1.356
		c-0.823-1.368-1.973-2.512-3.345-3.328l-1.353,1.353c-0.385-0.199-0.788-0.37-1.207-0.503v-1.906
		c-0.757-0.191-1.544-0.303-2.359-0.303c-0.816,0-1.604,0.112-2.359,0.303v1.906c-0.419,0.134-0.822,0.304-1.207,0.503l-1.353-1.353
		c-1.373,0.816-2.522,1.96-3.345,3.328l1.355,1.356c-0.201,0.387-0.374,0.791-0.509,1.213h-1.921
		c-0.197,0.767-0.312,1.567-0.312,2.396c0,0.802,0.109,1.578,0.294,2.324h1.927c0.134,0.426,0.309,0.833,0.51,1.224l-1.372,1.371
		c0.816,1.373,1.96,2.522,3.328,3.345l1.374-1.374c0.392,0.205,0.802,0.379,1.231,0.516v1.942c0.757,0.191,1.544,0.303,2.359,0.303
		c0.816,0,1.604-0.112,2.359-0.303v-1.942c0.429-0.136,0.839-0.311,1.231-0.516l1.374,1.374c1.368-0.823,2.512-1.973,3.328-3.345
		l-1.372-1.371c0.202-0.391,0.376-0.799,0.51-1.224H39.58z M36.498,20.751l-0.347,1.103c-0.099,0.317-0.237,0.645-0.407,0.975
		l-0.528,1.023l0.814,0.814l0.439,0.439c-0.331,0.405-0.702,0.777-1.105,1.112l-0.435-0.435l-0.817-0.817l-1.025,0.534
		c-0.325,0.169-0.655,0.307-0.979,0.41l-1.098,0.35v1.78c-0.264,0.027-0.526,0.041-0.784,0.041c-0.257,0-0.519-0.014-0.784-0.041
		v-1.78l-1.098-0.35c-0.325-0.103-0.655-0.241-0.981-0.41l-1.025-0.534l-0.817,0.817l-0.435,0.435
		c-0.403-0.334-0.774-0.706-1.105-1.112l0.439-0.439l0.814-0.814l-0.528-1.023c-0.17-0.33-0.307-0.657-0.407-0.975l-0.347-1.103
		h-1.762c-0.025-0.253-0.038-0.502-0.038-0.748c0-0.269,0.015-0.543,0.046-0.82h1.762l0.351-1.095
		c0.103-0.322,0.24-0.648,0.406-0.966l0.534-1.025l-1.236-1.236c0.334-0.403,0.706-0.774,1.111-1.105l0.421,0.421l0.814,0.815
		l1.023-0.528c0.322-0.167,0.646-0.302,0.961-0.402l1.098-0.349V11.97c0.264-0.027,0.526-0.041,0.784-0.041
		c0.257,0,0.519,0.014,0.784,0.041v1.744l1.098,0.349c0.315,0.101,0.639,0.236,0.961,0.402l1.023,0.528l0.814-0.815l0.421-0.421
		c0.405,0.331,0.777,0.702,1.112,1.105l-0.418,0.418l-0.817,0.817l0.534,1.025c0.166,0.318,0.302,0.643,0.406,0.966l0.351,1.095
		h1.761c0.03,0.277,0.046,0.55,0.046,0.82c0,0.246-0.013,0.495-0.038,0.748L36.498,20.751L36.498,20.751z M30.223,15.906
		c-2.263,0-4.096,1.834-4.096,4.096c0,2.263,1.834,4.097,4.096,4.097c2.263,0,4.097-1.834,4.097-4.097
		C34.32,17.741,32.486,15.906,30.223,15.906z M30.223,22.524c-1.39,0-2.521-1.13-2.521-2.521c0-1.39,1.131-2.521,2.521-2.521
		c1.39,0,2.521,1.13,2.521,2.521C32.744,21.392,31.613,22.524,30.223,22.524z"/>
</g>
</svg>
