<?xml version="1.0" encoding="utf-8"?>
<!-- Generator: Adobe Illustrator 23.0.1, SVG Export Plug-In . SVG Version: 6.00 Build 0)  -->
<svg version="1.1" id="Layer_1" xmlns="http://www.w3.org/2000/svg" xmlns:xlink="http://www.w3.org/1999/xlink" x="0px" y="0px"
	 viewBox="0 0 40 40" style="enable-background:new 0 0 40 40;" xml:space="preserve">
<style type="text/css">
	.st0{fill:#231F20;}
</style>
<g>
	<path class="st0" d="M39.738,37.072l-2.91-5.76c0.967-1.832,1.474-3.87,1.474-5.93c0-7.031-5.72-12.75-12.75-12.75
		c-1.993,0-3.903,0.448-5.675,1.33c-0.522,0.259-0.735,0.894-0.474,1.416c0.259,0.521,0.893,0.734,1.416,0.474
		c1.477-0.735,3.07-1.109,4.734-1.109c5.865,0,10.638,4.773,10.638,10.638c0,1.879-0.507,3.736-1.469,5.371L34.43,31.25l3.274,6.482
		l-6.121-3.581l-0.538,0.326c-1.665,1.009-3.566,1.542-5.493,1.542c-5.513,0-10.171-4.299-10.605-9.789
		c-0.047-0.582-0.547-1.013-1.136-0.97c-0.582,0.046-1.016,0.554-0.97,1.136c0.519,6.579,6.102,11.735,12.71,11.735
		c2.103,0,4.175-0.528,6.034-1.53l5.335,3.12C37.241,39.908,37.593,40,37.941,40c0.498,0,0.991-0.187,1.377-0.55
		C39.975,38.833,40.145,37.878,39.738,37.072z M18.83,28.347h2.112v-6.425H18.83V28.347z M23.009,26.936v-3.603h-1.056v3.603H23.009
		z M32.594,22.417h-1.056v5.434h1.056V22.417z M25.183,28.58v-6.891h-1.056v6.891H25.183z M26.103,20.994v8.281h1.056v-8.281H26.103
		z M28.829,19.976v10.317h1.056V19.976H28.829z M18.786,16.83H3.417v2.112h15.369V16.83z M3.417,23.225h11.144v-2.112H3.417V23.225z
		 M25.212,16.83h-5.326v2.112h5.326V16.83z M3.417,13.026v2.112h5.864v-2.112H3.417z M11.372,13.026v2.112h3.183v-2.112H11.372z
		 M2.155,23.177H0.043v7.507h11.466v-2.112H2.155V23.177z M2.155,2.112h9.216v7.419h8.514v1.959h2.112V7.419L13.483,0H0.043v18.961
		h2.112L2.155,2.112L2.155,2.112z M13.484,2.801l5.299,4.618h-5.299V2.801z"/>
</g>
</svg>
