<?xml version="1.0" encoding="utf-8"?>
<!-- Generator: Adobe Illustrator 23.0.1, SVG Export Plug-In . SVG Version: 6.00 Build 0)  -->
<svg version="1.1" id="Layer_1" xmlns="http://www.w3.org/2000/svg" xmlns:xlink="http://www.w3.org/1999/xlink" x="0px" y="0px"
	 viewBox="0 0 40 40" style="enable-background:new 0 0 40 40;" xml:space="preserve">
<style type="text/css">
	.st0{fill:#231F20;}
</style>
<g>
	<path class="st0" d="M39.625,15.219L35,11.52V6c0-0.345-0.177-0.665-0.47-0.848l-8-5c-0.334-0.208-0.758-0.202-1.085,0.016
		L20,3.798l-5.446-3.63c-0.327-0.218-0.751-0.224-1.085-0.016l-8,5C5.177,5.335,5,5.655,5,6v5.52l-4.625,3.699
		C0.137,15.409,0,15.696,0,16v8c0,0.304,0.138,0.591,0.375,0.781L5,28.48V33c0,0.335,0.167,0.647,0.446,0.832l9,6
		C14.614,39.944,14.807,40,15,40c0.177,0,0.357-0.047,0.514-0.143L20,37.166l4.486,2.691C24.645,39.953,24.823,40,25,40
		c0.193,0,0.387-0.056,0.554-0.168l9-6C34.832,33.647,35,33.335,35,33v-4.52l4.625-3.699C39.862,24.591,40,24.304,40,24v-8
		C40.001,15.697,39.863,15.409,39.625,15.219z M19.001,35.434l-3.973,2.383l-2.422-1.615l3.909-2.345
		c0.473-0.285,0.627-0.898,0.343-1.373c-0.285-0.474-0.899-0.627-1.371-0.343l-4.721,2.832l-3.765-2.511v-3.847l3.447-1.723
		c0.494-0.247,0.694-0.848,0.447-1.342c-0.247-0.494-0.848-0.694-1.342-0.447l-3.427,1.714L2,23.519v-1.953l4.514-2.709
		c0.473-0.285,0.627-0.898,0.343-1.373c-0.285-0.474-0.898-0.629-1.371-0.343L2,19.233V16.48l4.081-3.265L10,15.565v4.757
		l-4.371,1.749c-0.513,0.206-0.762,0.787-0.558,1.299c0.206,0.512,0.785,0.762,1.299,0.558l4.478-1.792l3.151,2.362v3.382
		l-4.447,2.224c-0.494,0.247-0.694,0.848-0.447,1.342C9.28,31.796,9.633,31.999,10,31.999c0.151,0,0.303-0.034,0.447-0.106
		L19,27.616L19.001,35.434L19.001,35.434z M33.376,27.219c-0.237,0.19-0.375,0.477-0.375,0.781v4.465l-8.029,5.352l-3.971-2.383
		v-3.361h3.16c0.391,0.827,1.226,1.403,2.202,1.403c1.349,0,2.442-1.094,2.442-2.442s-1.094-2.442-2.442-2.442
		c-0.976,0-1.811,0.576-2.202,1.403h-3.16V22c0-0.265-0.105-0.52-0.293-0.707l-4-4c-0.391-0.391-1.024-0.391-1.414,0
		c-0.391,0.391-0.391,1.024,0,1.414l3.707,3.707v2.968l-3,1.499V24c0-0.314-0.149-0.611-0.4-0.8l-3.6-2.701v-4.882l3.447-1.723
		c0.338-0.169,0.552-0.515,0.552-0.895v-6c0-0.552-0.448-1-1-1s-1,0.448-1,1v5.382l-2.957,1.478l-4.043-2.426v-4.88l3-1.875v5.321
		c0,0.552,0.448,1,1,1s1-0.448,1-1V3.426l1.983-1.239l4.979,3.32v8.254l4.998,3.411c-0.019,0.126-0.039,0.251-0.039,0.383
		c0,1.349,1.094,2.442,2.442,2.442s2.442-1.094,2.442-2.442c0-1.348-1.094-2.442-2.442-2.442c-0.451,0-0.869,0.131-1.231,0.344
		l-4.093-2.793V5.508l4.978-3.319l6.983,4.365V9.09H31.01c-0.391-0.827-1.226-1.403-2.202-1.403c-1.349,0-2.442,1.094-2.442,2.442
		c0,1.349,1.094,2.442,2.442,2.442c0.976,0,1.811-0.576,2.202-1.403h1.992v0.831c0,0.304,0.138,0.591,0.375,0.781l4.625,3.699v7.039
		l-0.112,0.089L35.15,21.92c0.01-0.089,0.027-0.175,0.027-0.266c0-1.349-1.094-2.442-2.442-2.442c-1.349,0-2.442,1.094-2.442,2.442
		s1.094,2.442,2.442,2.442c0.494,0,0.952-0.149,1.336-0.401l2.096,1.29L33.376,27.219z M25.48,31.034
		c0-0.488,0.397-0.885,0.885-0.885c0.488,0,0.885,0.397,0.885,0.885c0,0.488-0.397,0.885-0.885,0.885
		C25.877,31.919,25.48,31.522,25.48,31.034z M26.363,16.674c0.488,0,0.885,0.397,0.885,0.885s-0.397,0.885-0.885,0.885
		c-0.488,0-0.885-0.397-0.885-0.885S25.877,16.674,26.363,16.674z M29.69,10.13c0,0.488-0.397,0.885-0.885,0.885
		c-0.488,0-0.885-0.397-0.885-0.885c0-0.488,0.397-0.885,0.885-0.885C29.294,9.246,29.69,9.643,29.69,10.13z M33.618,21.656
		c0,0.488-0.397,0.885-0.885,0.885s-0.885-0.397-0.885-0.885s0.397-0.885,0.885-0.885C33.222,20.773,33.618,21.169,33.618,21.656z"
		/>
</g>
</svg>
