<?xml version="1.0" encoding="utf-8"?>
<!-- Generator: Adobe Illustrator 23.0.1, SVG Export Plug-In . SVG Version: 6.00 Build 0)  -->
<svg version="1.1" id="Layer_1" xmlns="http://www.w3.org/2000/svg" xmlns:xlink="http://www.w3.org/1999/xlink" x="0px" y="0px"
	 viewBox="0 0 40 40" style="enable-background:new 0 0 40 40;" xml:space="preserve">
<style type="text/css">
	.st0{fill:#231F20;}
</style>
<g>
	<path class="st0" d="M11.685,35.792v-4.208l2.085,2.085h1.382v-1.593l-4.519-4.519l-4.519,4.519v1.593h1.382l2.085-2.085v4.208
		c0,2.32,1.887,4.208,4.208,4.208h2.782v-2.104h-2.782C12.629,37.896,11.685,36.952,11.685,35.792z M28.337,4.208v3.718
		l-2.085-2.085h-1.382v1.593l4.519,4.519l4.519-4.519V5.841h-1.382l-2.085,2.085V4.208c0-2.32-1.887-4.208-4.208-4.208h-2.782v2.104
		h2.782C27.393,2.104,28.337,3.048,28.337,4.208z M37.959,21.167v-2.539l-5.952-5.952h-2.539l0,0H18.949v26.507h19.01V21.167z
		 M31.571,15.216l3.848,3.848h-3.848V15.216z M35.855,37.08H21.053V14.781h8.415v6.387h6.387L35.855,37.08L35.855,37.08z
		 M9.957,10.296L5.366,21.081h2.402l0.979-2.402h4.529l0.979,2.402h2.463l-4.59-10.785H9.957z M9.589,16.599l1.423-3.472
		l1.423,3.472H9.589z M29.097,23.09h-2.104v1.787h-4.137v2.104h1.157l2.522,2.157l-3.758,3.243l1.375,1.592l4-3.453l3.905,3.339
		l1.367-1.6l-3.661-3.13l2.49-2.15h0.981v-2.104h-4.137L29.097,23.09L29.097,23.09z M28.146,27.749l-0.896-0.767h1.784
		L28.146,27.749z M4.145,21.458H2.041v5.539h15.173v-2.104H4.145V21.458z M4.145,2.593h8.415v6.387h6.387v2.506h2.104V6.441
		l-5.952-5.952H12.56l0,0H2.041v17.12h2.104V2.593z M14.665,3.029l3.848,3.848h-3.848V3.029z"/>
</g>
</svg>
