<?xml version="1.0" encoding="utf-8"?>
<!-- Generator: Adobe Illustrator 23.0.1, SVG Export Plug-In . SVG Version: 6.00 Build 0)  -->
<svg version="1.1" id="Layer_1" xmlns="http://www.w3.org/2000/svg" xmlns:xlink="http://www.w3.org/1999/xlink" x="0px" y="0px"
	 viewBox="0 0 40 40" style="enable-background:new 0 0 40 40;" xml:space="preserve">
<style type="text/css">
	.st0{fill:#231F20;}
</style>
<g>
	<path class="st0" d="M13.182,32.313h2.146v-3.57h-2.146V32.313z M13.182,40h2.146v-5.582h-2.146V40z M24.592,40h2.146v-9.617
		h-2.146V40z M18.862,31.737h2.464v-2.146h-2.464V31.737z M18.862,35.868h2.464v-2.146h-2.464V35.868z M18.862,40h2.464v-2.146
		h-2.464V40z M14.764,10.281c0,2.84,2.303,5.143,5.143,5.143s5.143-2.303,5.143-5.143s-2.303-5.143-5.143-5.143
		C17.066,5.138,14.764,7.44,14.764,10.281z M22.903,10.281c0,1.653-1.344,2.996-2.997,2.996c-1.653,0-2.997-1.344-2.997-2.996
		c0-1.653,1.344-2.996,2.997-2.996C21.559,7.285,22.903,8.629,22.903,10.281z M18.674,10.281c0,0.68,0.552,1.232,1.232,1.232
		c0.68,0,1.232-0.552,1.232-1.232c0-0.68-0.552-1.232-1.232-1.232S18.674,9.6,18.674,10.281z M23.071,0h-1.475v2.146h1.475V0z
		 M23.362,23.713v-3.005c0-0.053-0.016-0.101-0.03-0.147h5.198c0.59,0,1.073-0.483,1.073-1.073V1.073C29.603,0.483,29.12,0,28.53,0
		h-3.848v2.146h2.775v16.267h-15.1V2.146h7.629V0h-8.702c-0.59,0-1.073,0.482-1.073,1.073v18.415c0,0.59,0.483,1.073,1.073,1.073
		h5.198c-0.014,0.048-0.03,0.095-0.03,0.147v3.005h1.61v-1.931h3.69v1.931H23.362z M26.57,21.567h-2.21v2.146h2.21
		c0.495,0,0.904,0.362,1.022,0.826h-4.231v2.146h4.282V40h2.146V24.786C29.791,23.016,28.342,21.567,26.57,21.567z M20.791,24.539
		h-8.195c0.118-0.464,0.527-0.826,1.022-0.826h1.835v-2.146h-1.835c-1.77,0-3.219,1.449-3.219,3.219v8.15h2.146v-6.25h8.247
		L20.791,24.539L20.791,24.539z"/>
</g>
</svg>
