<?xml version="1.0" encoding="utf-8"?>
<!-- Generator: Adobe Illustrator 23.0.1, SVG Export Plug-In . SVG Version: 6.00 Build 0)  -->
<svg version="1.1" id="Layer_1" xmlns="http://www.w3.org/2000/svg" xmlns:xlink="http://www.w3.org/1999/xlink" x="0px" y="0px"
	 viewBox="0 0 40 40" style="enable-background:new 0 0 40 40;" xml:space="preserve">
<style type="text/css">
	.st0{fill:#231F20;}
</style>
<g>
	<path class="st0" d="M26.408,23.27h-2.246v2.078h4.323v-4.287h-2.078V23.27z M16.727,13.59h2.138v-2.078h-4.216v4.253h2.078V13.59z
		 M26.408,15.765h2.078v-4.253h-4.323v2.078h2.246V15.765z M18.865,23.27h-2.138v-2.209h-2.078v4.287h4.216V23.27z M25.337,19.991
		l-2.208,2.208h2.208V19.991z M25.337,14.661h-2.208l2.208,2.208V14.661z M17.798,16.869l2.208-2.208h-2.208V16.869z M17.798,22.199
		h2.208l-2.208-2.208V22.199z M21.568,0c-2.631,0-5.171,0.543-7.553,1.614c-0.523,0.235-0.757,0.85-0.521,1.374
		s0.851,0.755,1.374,0.521c2.112-0.95,4.367-1.431,6.701-1.431c9.016,0,16.352,7.336,16.352,16.352s-7.336,16.352-16.352,16.352
		c-2.671,0-5.185-0.656-7.413-1.799l-1.531,1.531c2.651,1.483,5.696,2.345,8.944,2.345c10.162,0,18.43-8.267,18.43-18.43
		S31.73,0,21.568,0z M7.017,25.848c-1.145-2.229-1.801-4.745-1.801-7.418c0-2.319,0.474-4.558,1.41-6.655
		c0.234-0.523-0.001-1.138-0.525-1.373c-0.527-0.234-1.138,0.001-1.373,0.525c-1.056,2.366-1.591,4.89-1.591,7.503
		c0,3.25,0.862,6.297,2.347,8.95L7.017,25.848z M21.568,31.87c7.423,0,13.44-6.017,13.44-13.44S28.991,4.99,21.568,4.99
		s-13.44,6.017-13.44,13.44c0,2.253,0.561,4.371,1.541,6.237l-8.493,8.493c-1.565,1.566-1.565,4.103,0,5.667
		C1.959,39.609,2.984,40,4.01,40c1.025,0,2.051-0.391,2.834-1.174l8.494-8.494C17.2,31.31,19.318,31.87,21.568,31.87z M21.568,7.068
		c6.265,0,11.362,5.097,11.362,11.362s-5.097,11.362-11.362,11.362S10.206,24.695,10.206,18.43S15.303,7.068,21.568,7.068z
		 M5.374,37.357c-0.365,0.365-0.849,0.566-1.365,0.566c-0.515,0-1-0.201-1.365-0.566c-0.365-0.365-0.566-0.849-0.566-1.365
		c0-0.515,0.201-1,0.566-1.365l8.166-8.166c0.775,1.035,1.694,1.954,2.729,2.728L5.374,37.357z"/>
</g>
</svg>
